<svg xmlns="http://www.w3.org/2000/svg" width="177" height="24" fill="none" viewBox="0 0 177 24" xmlns:xlink="http://www.w3.org/1999/xlink">
  <path fill="url(#a)" d="M9.061 23.108c-3.793-.731-12.452-2.48-7.644-18.044 8.217 1.035 15.556 9 7.644 18.044"/>
  <path fill="url(#b)" d="M8.92 23.094C5.275 21.222.783 4.209 17.006 0c3.75 7.193 2.614 16.545-8.088 23.094Z"/>
  <path fill="url(#c)" d="M8.914 23.079c-.179-3.197 1.245-13.994 14.656-9.968-.389 7.012-4.586 13.307-14.656 9.968"/>
  <path fill="#fafafa" d="M32.3 19.392V3.894h5.638l1.987 6.054q.166.551.385 1.414.228.864.447 1.841.229.978.416 1.883.199.894.322 1.53h-.8q.114-.636.301-1.53l.416-1.872q.23-.978.448-1.841.218-.874.384-1.425L44.2 3.894h5.648v15.498h-3.682v-6.688q0-.52.02-1.32.021-.802.042-1.738.03-.936.052-1.893.03-.957.031-1.789h.312a80 80 0 0 1-.457 1.862q-.25.968-.5 1.893a47 47 0 0 1-.468 1.695q-.218.771-.374 1.29l-2.215 6.688H39.56l-2.247-6.688q-.165-.52-.395-1.29l-.478-1.685-.51-1.893q-.25-.967-.468-1.872h.364q.01.821.031 1.779l.042 1.893q.03.936.052 1.737.02.801.02 1.331v6.688zm19.368 0V8.024h3.62v11.368zm1.8-12.606q-.811 0-1.363-.51a1.68 1.68 0 0 1-.551-1.269q0-.749.551-1.258.552-.51 1.363-.51t1.362.51q.552.5.552 1.258 0 .75-.552 1.27-.55.509-1.362.509m7.24 6.24v6.366h-3.62V8.024h3.463l.042 2.943h-.312q.468-1.415 1.404-2.267.936-.864 2.486-.864 1.206 0 2.09.541.884.531 1.353 1.508.478.978.478 2.31v7.197h-3.609v-6.48q0-.978-.489-1.518-.479-.54-1.362-.541-.572 0-1.01.25a1.67 1.67 0 0 0-.675.738q-.24.478-.24 1.186Zm15.748-5.002v2.725h-7.448V8.024zm-5.773-2.86h3.609v10.619q0 .478.208.697.219.218.76.218.218 0 .571-.03.365-.033.53-.053l.271 2.694a7.5 7.5 0 0 1-1.05.146q-.562.04-1.113.041-1.905 0-2.85-.822-.936-.821-.936-2.454z"/>
  <path fill="#9f9fa9" d="M88.667 19.652q-1.716 0-2.985-.582-1.258-.583-1.966-1.633-.707-1.051-.759-2.486h1.976q.052.968.541 1.633.489.656 1.321.998.832.333 1.872.333 1.082 0 1.914-.343.843-.343 1.321-.957.489-.624.489-1.446 0-.707-.374-1.175-.375-.479-1.061-.8a9.7 9.7 0 0 0-1.633-.573l-1.82-.489q-2.07-.55-3.121-1.529-1.04-.988-1.04-2.548 0-1.32.686-2.31.688-.988 1.893-1.528 1.207-.551 2.757-.551 1.56 0 2.735.561 1.185.563 1.862 1.56.675.99.718 2.289h-1.904q-.114-1.27-1.07-1.966-.948-.708-2.404-.707-.998 0-1.768.332-.759.333-1.186.916a2.13 2.13 0 0 0-.426 1.31q0 .729.426 1.207.428.468 1.113.78.687.3 1.477.51l1.633.426q.833.208 1.612.551.791.333 1.415.832.635.489 1.009 1.207.374.707.374 1.675 0 1.3-.686 2.319-.676 1.02-1.935 1.602t-3.006.582m12.43-11.628v1.57h-5.99v-1.57zm-4.16-2.86h1.83V16.52q0 .719.292 1.04.3.313 1.019.313.198 0 .468-.021.28-.031.51-.052l.229 1.55a5 5 0 0 1-.635.093 8 8 0 0 1-.676.031q-1.467 0-2.257-.717-.78-.73-.78-2.08V5.162Zm9.393 14.457q-1.103 0-1.987-.395a3.33 3.33 0 0 1-1.404-1.176q-.52-.78-.52-1.903 0-.978.385-1.591a2.67 2.67 0 0 1 1.029-.957 5.4 5.4 0 0 1 1.436-.53 17 17 0 0 1 1.612-.282 68 68 0 0 1 1.674-.218q.635-.073.926-.24.291-.176.291-.592v-.083q0-.677-.28-1.165a1.84 1.84 0 0 0-.812-.76q-.54-.27-1.342-.27-.8 0-1.393.26a2.7 2.7 0 0 0-.947.676q-.364.405-.489.863l-1.799-.343q.281-1.04.967-1.716a4.35 4.35 0 0 1 1.633-1.009 6 6 0 0 1 1.997-.333q.739 0 1.488.187a4.1 4.1 0 0 1 1.393.635q.635.437 1.02 1.196.385.75.385 1.893v7.624h-1.8v-1.57h-.093a3.4 3.4 0 0 1-.614.821q-.416.417-1.092.697t-1.664.281m.291-1.623q1.05 0 1.747-.395.708-.405 1.051-1.04.353-.645.353-1.352v-1.519q-.103.116-.447.219a10 10 0 0 1-.801.177 18 18 0 0 1-.915.145 45 45 0 0 1-.811.104q-.666.084-1.249.291a2.2 2.2 0 0 0-.925.583q-.354.385-.354 1.03 0 .561.291.957.302.395.832.603.53.197 1.228.197m7.572 1.394V8.024h1.758v1.768h.094a2.84 2.84 0 0 1 1.071-1.404q.76-.53 1.789-.53.229 0 .479.02.25.01.395.02V9.74a3 3 0 0 0-.416-.073 5 5 0 0 0-.697-.042q-.739 0-1.342.323a2.4 2.4 0 0 0-.957.926q-.343.603-.343 1.445v7.073zm12.129-11.368v1.57h-5.992v-1.57zm-4.161-2.86h1.831V16.52q0 .719.291 1.04.302.313 1.019.313.198 0 .468-.021.281-.031.51-.052l.229 1.55a5 5 0 0 1-.635.093 8 8 0 0 1-.676.031q-1.466 0-2.257-.717-.78-.73-.78-2.08V5.162Zm10.443 14.478q-1.654 0-2.839-.739-1.186-.748-1.831-2.07-.634-1.33-.634-3.057 0-1.748.634-3.08.645-1.341 1.8-2.1 1.164-.76 2.694-.76 1.008 0 1.913.354a4.5 4.5 0 0 1 1.613 1.071q.707.718 1.102 1.81.406 1.081.406 2.559v.666h-9.029v-1.56h8.03l-.832.561q0-1.133-.374-1.997-.375-.863-1.092-1.342-.719-.489-1.737-.489-1.02 0-1.758.49a3.26 3.26 0 0 0-1.144 1.32q-.396.822-.396 1.841v.926q0 1.227.427 2.122.426.884 1.206 1.362.78.468 1.852.468.717 0 1.29-.208a2.6 2.6 0 0 0 1.581-1.633l1.789.292a4 4 0 0 1-.895 1.664q-.645.718-1.612 1.123t-2.164.406m6.855-.25V8.024h1.758v1.768h.094a2.84 2.84 0 0 1 1.071-1.404q.76-.53 1.789-.53.23 0 .478.02.25.01.396.02V9.74a3 3 0 0 0-.416-.073 5 5 0 0 0-.697-.042 2.8 2.8 0 0 0-1.342.323 2.4 2.4 0 0 0-.957.926q-.343.603-.343 1.445v7.073zm13.97-4.43v-2.247q.53-.687 1.061-1.311.53-.634 1.082-1.248.551-.624 1.123-1.238l4.66-5.024h2.538l-6.616 7.073h-.093zm-1.321 4.43V3.894h1.935v5.347l-.021 3.318.021.946v5.887zm9.507 0-5.648-7.915 1.206-1.508 6.73 9.423zm4.046 0V8.024h1.831v11.368zm.926-13.365q-.52 0-.895-.354a1.18 1.18 0 0 1-.374-.874q0-.51.374-.863a1.24 1.24 0 0 1 .895-.364q.52 0 .895.364.374.353.374.863t-.374.874q-.375.354-.895.354m8.249 1.997v1.57h-5.992v-1.57zm-4.161-2.86h1.831V16.52q0 .719.291 1.04.302.313 1.019.313.198 0 .468-.021.281-.031.51-.052l.229 1.55a5 5 0 0 1-.635.093 8 8 0 0 1-.676.031q-1.466 0-2.257-.717-.78-.73-.78-2.08V5.162Z"/>
  <defs>
    <linearGradient id="a" x1="3.776" x2="5.232" y1="5.916" y2="21.559" gradientUnits="userSpaceOnUse">
      <stop stop-color="#18e299"/>
      <stop offset="1" stop-color="#15803d"/>
    </linearGradient>
    <linearGradient id="b" x1="12.171" x2="10.19" y1="-.718" y2="22.983" gradientUnits="userSpaceOnUse">
      <stop stop-color="#16a34a"/>
      <stop offset="1" stop-color="#4ade80"/>
    </linearGradient>
    <linearGradient id="c" x1="23.133" x2="9.338" y1="15.353" y2="18.52" gradientUnits="userSpaceOnUse">
      <stop stop-color="#4ade80"/>
      <stop offset="1" stop-color="#0d9373"/>
    </linearGradient>
  </defs>
</svg>
