<svg xmlns="http://www.w3.org/2000/svg" width="177" height="24" fill="none" viewBox="0 0 177 24">
  <path fill="url(#a)" d="M9.061 23.108c-3.793-.731-12.452-2.48-7.644-18.044 8.217 1.035 15.556 9 7.644 18.044Z"/>
  <path fill="url(#b)" d="M8.92 23.094C5.275 21.222.783 4.209 17.006 0c3.75 7.193 2.614 16.545-8.088 23.094Z"/>
  <path fill="url(#c)" d="M8.914 23.079c-.179-3.197 1.245-13.994 14.656-9.968-.389 7.012-4.586 13.307-14.656 9.968Z"/>
  <path fill="#09090B" d="M32.3 19.392V3.894h5.638l1.987 6.054c.11.367.24.839.385 1.414.152.576.301 1.19.447 1.841.153.652.291 1.28.416 1.883.132.596.24 1.106.322 1.53h-.8c.076-.424.176-.934.301-1.53.132-.596.27-1.22.416-1.872.153-.652.302-1.266.448-1.841.145-.583.273-1.058.384-1.425L44.2 3.894h5.648v15.498h-3.682v-6.688c0-.347.007-.787.02-1.32.014-.535.028-1.114.042-1.738.02-.624.038-1.255.052-1.893.02-.638.031-1.234.031-1.789h.312a79.993 79.993 0 0 1-.457 1.862c-.167.645-.333 1.276-.5 1.893a46.988 46.988 0 0 1-.468 1.695c-.145.514-.27.944-.374 1.29l-2.215 6.688H39.56l-2.247-6.688c-.11-.347-.242-.776-.395-1.29l-.478-1.685-.51-1.893c-.167-.644-.323-1.269-.468-1.872h.364c.007.548.017 1.14.031 1.779l.042 1.893c.02.624.038 1.203.052 1.737.014.534.02.978.02 1.331v6.688H32.3Zm19.368 0V8.024h3.62v11.368h-3.62Zm1.8-12.606c-.541 0-.995-.17-1.363-.51a1.678 1.678 0 0 1-.551-1.269c0-.499.184-.919.551-1.258.368-.34.822-.51 1.363-.51.54 0 .995.17 1.362.51.368.333.552.752.552 1.258 0 .5-.184.923-.552 1.27-.367.339-.821.509-1.362.509Zm7.24 6.24v6.366h-3.62V8.024h3.463l.042 2.943h-.312c.312-.943.78-1.699 1.404-2.267.624-.576 1.453-.864 2.486-.864.804 0 1.501.18 2.09.541.59.354 1.04.857 1.353 1.508.319.652.478 1.422.478 2.31v7.197h-3.609v-6.48c0-.652-.163-1.158-.489-1.518-.319-.36-.773-.541-1.362-.541-.382 0-.718.083-1.01.25a1.669 1.669 0 0 0-.675.738c-.16.319-.24.714-.24 1.186Zm15.748-5.002v2.725h-7.448V8.024h7.448Zm-5.773-2.86h3.609v10.619c0 .319.07.551.208.697.146.145.399.218.76.218.145 0 .336-.01.571-.03.243-.022.42-.04.53-.053l.271 2.694a7.47 7.47 0 0 1-1.05.146c-.375.027-.746.041-1.113.041-1.27 0-2.22-.274-2.85-.822-.624-.547-.936-1.366-.936-2.454V5.163Z"/>
  <path fill="#52525C" d="M88.667 19.652c-1.144 0-2.139-.194-2.985-.582-.839-.389-1.494-.933-1.966-1.633-.471-.7-.724-1.53-.759-2.486h1.976c.035.645.215 1.19.541 1.633.326.437.766.77 1.321.998.555.222 1.179.333 1.872.333.721 0 1.36-.114 1.914-.343.562-.229 1.002-.548 1.321-.957.326-.416.489-.898.489-1.446 0-.471-.125-.863-.374-1.175-.25-.319-.604-.586-1.061-.8a9.65 9.65 0 0 0-1.633-.573l-1.82-.489c-1.38-.367-2.42-.877-3.121-1.529-.693-.659-1.04-1.508-1.04-2.548 0-.88.229-1.65.686-2.31.458-.658 1.09-1.168 1.893-1.528.805-.368 1.724-.551 2.757-.551 1.04 0 1.952.187 2.735.561.79.375 1.411.895 1.862 1.56.45.66.69 1.422.718 2.289h-1.904c-.076-.846-.433-1.502-1.07-1.966-.632-.472-1.433-.707-2.404-.707-.665 0-1.255.11-1.768.332-.506.222-.901.527-1.186.916a2.135 2.135 0 0 0-.426 1.31c0 .486.142.888.426 1.207.285.312.656.572 1.113.78.458.201.95.37 1.477.51l1.633.426c.555.139 1.093.322 1.612.551.528.222.999.5 1.415.832.423.326.76.728 1.009 1.207.25.471.374 1.03.374 1.675 0 .866-.228 1.64-.686 2.319-.45.68-1.096 1.213-1.935 1.602-.839.388-1.84.582-3.006.582Zm12.43-11.628v1.57h-5.99v-1.57h5.99Zm-4.16-2.86h1.83V16.52c0 .479.098.826.292 1.04.2.209.54.313 1.019.313.132 0 .288-.007.468-.021.187-.021.357-.038.51-.052l.229 1.55a4.972 4.972 0 0 1-.635.093 7.625 7.625 0 0 1-.676.031c-.978 0-1.73-.239-2.257-.717-.52-.486-.78-1.18-.78-2.08V5.162Zm9.393 14.457c-.735 0-1.398-.132-1.987-.395a3.33 3.33 0 0 1-1.404-1.176c-.347-.52-.52-1.154-.52-1.903 0-.652.128-1.182.385-1.591a2.67 2.67 0 0 1 1.029-.957 5.44 5.44 0 0 1 1.436-.53 17.377 17.377 0 0 1 1.612-.282 68.2 68.2 0 0 1 1.674-.218c.423-.049.732-.128.926-.24.194-.117.291-.315.291-.592v-.083c0-.451-.093-.84-.28-1.165a1.839 1.839 0 0 0-.812-.76c-.36-.18-.808-.27-1.342-.27-.533 0-.998.087-1.393.26a2.69 2.69 0 0 0-.947.676c-.243.27-.405.558-.489.863l-1.799-.343c.187-.693.51-1.265.967-1.716a4.353 4.353 0 0 1 1.633-1.009 5.977 5.977 0 0 1 1.997-.333c.493 0 .988.063 1.488.187a4.1 4.1 0 0 1 1.393.635c.423.291.763.69 1.02 1.196.256.5.385 1.13.385 1.893v7.624h-1.8v-1.57h-.093a3.382 3.382 0 0 1-.614.821c-.277.278-.642.51-1.092.697-.451.187-1.006.281-1.664.281Zm.291-1.623c.7 0 1.283-.131 1.747-.395.472-.27.822-.617 1.051-1.04.235-.43.353-.88.353-1.352v-1.519c-.069.077-.218.15-.447.219a9.62 9.62 0 0 1-.801.177 17.86 17.86 0 0 1-.915.145 45.44 45.44 0 0 1-.811.104c-.444.056-.86.153-1.249.291a2.21 2.21 0 0 0-.925.583c-.236.256-.354.6-.354 1.03 0 .374.097.693.291.957.201.263.479.464.832.603.354.132.763.197 1.228.197Zm7.572 1.394V8.024h1.758v1.768h.094a2.837 2.837 0 0 1 1.071-1.404c.506-.354 1.103-.53 1.789-.53.153 0 .312.006.479.02.166.007.298.014.395.02V9.74a2.85 2.85 0 0 0-.416-.073 5.312 5.312 0 0 0-.697-.042c-.492 0-.94.108-1.342.323a2.41 2.41 0 0 0-.957.926c-.229.402-.343.884-.343 1.445v7.073h-1.831Zm12.129-11.368v1.57h-5.992v-1.57h5.992Zm-4.161-2.86h1.831V16.52c0 .479.097.826.291 1.04.201.209.541.313 1.019.313.132 0 .288-.007.468-.021.188-.021.357-.038.51-.052l.229 1.55a4.945 4.945 0 0 1-.635.093 7.608 7.608 0 0 1-.676.031c-.977 0-1.73-.239-2.257-.717-.52-.486-.78-1.18-.78-2.08V5.162Zm10.443 14.478c-1.102 0-2.049-.246-2.839-.739-.791-.499-1.401-1.189-1.831-2.07-.423-.887-.634-1.906-.634-3.057 0-1.165.211-2.192.634-3.08.43-.894 1.03-1.594 1.8-2.1.776-.507 1.674-.76 2.694-.76.672 0 1.31.118 1.913.354a4.47 4.47 0 0 1 1.613 1.071c.471.479.839 1.082 1.102 1.81.271.721.406 1.574.406 2.559v.666h-9.029v-1.56h8.03l-.832.561c0-.756-.125-1.421-.374-1.997-.25-.575-.614-1.023-1.092-1.342-.479-.326-1.058-.489-1.737-.489-.68 0-1.266.163-1.758.49a3.257 3.257 0 0 0-1.144 1.32c-.264.548-.396 1.162-.396 1.841v.926c0 .818.143 1.526.427 2.122.284.59.686 1.043 1.206 1.362.52.312 1.138.468 1.852.468.478 0 .908-.069 1.29-.208a2.606 2.606 0 0 0 1.581-1.633l1.789.292a3.974 3.974 0 0 1-.895 1.664c-.43.478-.967.853-1.612 1.123-.645.27-1.366.406-2.164.406Zm6.855-.25V8.024h1.758v1.768h.094a2.837 2.837 0 0 1 1.071-1.404c.506-.354 1.103-.53 1.789-.53.153 0 .312.006.478.02.167.007.299.014.396.02V9.74a2.85 2.85 0 0 0-.416-.073 5.312 5.312 0 0 0-.697-.042 2.8 2.8 0 0 0-1.342.323 2.41 2.41 0 0 0-.957.926c-.229.402-.343.884-.343 1.445v7.073h-1.831Zm13.97-4.43v-2.247c.354-.458.707-.895 1.061-1.311.354-.423.714-.839 1.082-1.248.367-.416.742-.829 1.123-1.238l4.66-5.024h2.538l-6.616 7.073h-.093l-3.755 3.994Zm-1.321 4.43V3.894h1.935v5.347l-.021 3.318.021.946v5.887h-1.935Zm9.507 0-5.648-7.915 1.206-1.508 6.73 9.423h-2.288Zm4.046 0V8.024h1.831v11.368h-1.831Zm.926-13.365c-.347 0-.645-.118-.895-.354a1.177 1.177 0 0 1-.374-.874c0-.34.125-.627.374-.863a1.24 1.24 0 0 1 .895-.364c.347 0 .645.121.895.364.249.236.374.523.374.863 0 .34-.125.631-.374.874-.25.236-.548.354-.895.354Zm8.249 1.997v1.57h-5.992v-1.57h5.992Zm-4.161-2.86h1.831V16.52c0 .479.097.826.291 1.04.201.209.541.313 1.019.313.132 0 .288-.007.468-.021.188-.021.357-.038.51-.052l.229 1.55a4.945 4.945 0 0 1-.635.093 7.608 7.608 0 0 1-.676.031c-.977 0-1.73-.239-2.257-.717-.52-.486-.78-1.18-.78-2.08V5.162Z"/>
  <defs>
    <linearGradient id="a" x1="3.776" x2="5.232" y1="5.916" y2="21.559" gradientUnits="userSpaceOnUse">
      <stop stop-color="#18E299"/>
      <stop offset="1" stop-color="#15803D"/>
    </linearGradient>
    <linearGradient id="b" x1="12.171" x2="10.19" y1="-.718" y2="22.983" gradientUnits="userSpaceOnUse">
      <stop stop-color="#16A34A"/>
      <stop offset="1" stop-color="#4ADE80"/>
    </linearGradient>
    <linearGradient id="c" x1="23.133" x2="9.338" y1="15.353" y2="18.52" gradientUnits="userSpaceOnUse">
      <stop stop-color="#4ADE80"/>
      <stop offset="1" stop-color="#0D9373"/>
    </linearGradient>
  </defs>
</svg>
