G04 DipTrace 3.3.1.3*
G04 TopSilk.gbr*
%MOIN*%
G04 #@! TF.FileFunction,Legend,Top*
G04 #@! TF.Part,Single*
%ADD10C,0.01*%
%ADD29C,0.023623*%
%ADD33C,0.023631*%
%ADD36C,0.015422*%
%ADD45C,0.015404*%
%ADD49C,0.015395*%
%ADD51C,0.011774*%
%ADD125C,0.004632*%
%ADD126C,0.006176*%
%ADD127C,0.015439*%
%ADD129C,0.00772*%
%FSLAX26Y26*%
G04*
G70*
G90*
G75*
G01*
G04 TopSilk*
%LPD*%
X844537Y1006035D2*
D10*
Y1068965D1*
X837089Y1006035D2*
Y1068965D1*
Y1006035D2*
X860648D1*
X837089Y1068965D2*
X860648D1*
X1044589Y609841D2*
Y436626D1*
X930414Y609841D2*
Y436626D1*
D29*
X987496Y649211D3*
X106496Y825000D2*
D10*
Y1225000D1*
X134067Y828200D2*
Y1221800D1*
X291535Y839800D2*
Y1210200D1*
X134437Y825000D2*
X106496D1*
X134437Y1225000D2*
X106496D1*
X206417Y836200D2*
Y867400D1*
Y985800D2*
Y1064200D1*
Y1182600D2*
Y1213800D1*
X133327Y825000D2*
X290425Y839800D1*
X137953Y1225000D2*
X289130Y1210200D1*
X634841Y1192911D2*
X461626D1*
X634841Y1307086D2*
X461626D1*
D33*
X674211Y1250004D3*
X765159Y769589D2*
D10*
X938374D1*
X765159Y655414D2*
X938374D1*
D33*
X725789Y712496D3*
X1702659Y544589D2*
D10*
X1875874D1*
X1702659Y430414D2*
X1875874D1*
D33*
X1663289Y487496D3*
X2486929Y2024684D2*
D10*
X2538071D1*
D36*
X2202209Y1969151D3*
X2152067Y1978352D2*
D10*
Y2096457D1*
X2132382D1*
Y1978352D1*
X2152067D1*
D36*
X2089709Y1856651D3*
X2039567Y1865852D2*
D10*
Y1983957D1*
X2019882D1*
Y1865852D1*
X2039567D1*
D36*
X2202209Y1744151D3*
X2152067Y1753352D2*
D10*
Y1871457D1*
X2132382D1*
Y1753352D1*
X2152067D1*
X508472Y519480D2*
X91150D1*
Y165150D1*
X508472D1*
Y519480D1*
G36*
X402013Y484756D2*
X370631D1*
Y516256D1*
X402013D1*
Y484756D1*
G37*
G36*
X205287D2*
X173863D1*
Y516256D1*
X205287D1*
Y484756D1*
G37*
X212500Y2237500D2*
D10*
X112500D1*
X212500Y2037500D2*
Y2237500D1*
Y2037500D2*
X112500D1*
Y2237500D1*
X2500000Y250000D2*
X2400000D1*
Y550000D1*
X2500000D2*
X2400000D1*
X2500000Y250000D2*
Y550000D1*
X2100000Y150000D2*
X2200000D1*
X2100000Y550000D2*
Y150000D1*
X2200000Y550000D2*
Y150000D1*
X2100000Y550000D2*
X2200000D1*
X2300000Y150000D2*
X2400000D1*
X2300000Y550000D2*
Y150000D1*
X2400000Y550000D2*
Y150000D1*
X2300000Y550000D2*
X2400000D1*
X2200000Y150000D2*
X2300000D1*
X2200000Y550000D2*
Y150000D1*
X2300000Y550000D2*
Y150000D1*
X2200000Y550000D2*
X2300000D1*
X412500Y2237500D2*
X312500D1*
X412500Y2037500D2*
Y2237500D1*
Y2037500D2*
X312500D1*
Y2237500D1*
X925033Y2023542D2*
Y2304749D1*
X1649967D1*
Y2023542D1*
X925033D2*
X962465D1*
Y1317274D1*
X931232D1*
Y1279738D1*
X1037485D1*
Y1317274D1*
X1537515D1*
Y1286029D1*
X1649967D1*
Y1323460D1*
X1612535D1*
Y2023542D1*
X1649967D1*
D36*
X1997791Y1768349D3*
X2047933Y1759148D2*
D10*
Y1641043D1*
X2067618D1*
Y1759148D1*
X2047933D1*
D36*
X1997791Y1618349D3*
X2047933Y1609148D2*
D10*
Y1491043D1*
X2067618D1*
Y1609148D1*
X2047933D1*
D45*
X1144151Y147791D3*
X1153352Y197933D2*
D10*
X1271457D1*
Y217618D1*
X1153352D1*
Y197933D1*
D45*
X1344151Y147791D3*
X1353352Y197933D2*
D10*
X1471457D1*
Y217618D1*
X1353352D1*
Y197933D1*
D45*
X1544151Y147791D3*
X1553352Y197933D2*
D10*
X1671457D1*
Y217618D1*
X1553352D1*
Y197933D1*
D49*
X1183375Y626914D3*
X1237440Y621651D2*
D10*
Y503543D1*
X1268931Y621651D2*
Y503543D1*
X1237440D2*
X1268931D1*
X1237440Y621651D2*
X1268931D1*
D49*
X916625Y848086D3*
X862560Y853349D2*
D10*
Y971457D1*
X831069Y853349D2*
Y971457D1*
X862560D2*
X831069D1*
X862560Y853349D2*
X831069D1*
X1935309Y1098119D2*
X1915645D1*
Y1117810D1*
X1935309Y1294992D2*
X1915645D1*
Y1275300D2*
Y1294992D1*
X2112465D2*
X2092775D1*
X2112465Y1275300D2*
Y1294992D1*
D51*
X2141949Y1137491D3*
X2092775Y1098119D2*
D10*
X2112465Y1117810D1*
X2234732Y923917D2*
Y671949D1*
X2423732Y923917D2*
Y671949D1*
X2234732D2*
X2423732D1*
X2234732Y923917D2*
X2305598D1*
X2352866D2*
X2423732D1*
X2305598D2*
G03X2352866Y923917I23634J4353D01*
G01*
G36*
X271466Y1912992D2*
Y1887992D1*
X296461Y1912992D1*
X271466D1*
G37*
X208953Y1937992D2*
D10*
X433961D1*
X208953Y1737992D2*
X433961D1*
X267611Y773427D2*
Y576573D1*
X369987Y773427D2*
Y576573D1*
X267611D2*
X369987D1*
X299105Y773427D2*
X267611D1*
X338494D2*
X369987D1*
X299105D2*
G03X338494Y773427I19694J9D01*
G01*
X876941Y844300D2*
D125*
X875515Y847152D1*
X872630Y850037D1*
X869778Y851463D1*
X864041D1*
X861156Y850037D1*
X858304Y847152D1*
X856845Y844300D1*
X855419Y839989D1*
Y832793D1*
X856845Y828515D1*
X858304Y825630D1*
X861156Y822778D1*
X864041Y821319D1*
X869778D1*
X872630Y822778D1*
X875515Y825630D1*
X876941Y828515D1*
X886204Y845693D2*
X889089Y847152D1*
X893400Y851430D1*
Y821319D1*
X768544Y1892046D2*
X765692Y1890620D1*
X762807Y1887735D1*
X761381Y1884883D1*
Y1879146D1*
X762807Y1876261D1*
X765692Y1873409D1*
X768544Y1871950D1*
X772855Y1870524D1*
X780051D1*
X784329Y1871950D1*
X787214Y1873409D1*
X790066Y1876261D1*
X791525Y1879146D1*
Y1884883D1*
X790066Y1887735D1*
X787214Y1890620D1*
X784329Y1892046D1*
X768577Y1902769D2*
X767151D1*
X764266Y1904194D1*
X762840Y1905620D1*
X761414Y1908505D1*
Y1914242D1*
X762840Y1917094D1*
X764266Y1918520D1*
X767151Y1919979D1*
X770003D1*
X772888Y1918520D1*
X777166Y1915668D1*
X791525Y1901309D1*
Y1921405D1*
X830700Y1896672D2*
X827848Y1895246D1*
X824963Y1892361D1*
X823537Y1889509D1*
Y1883772D1*
X824963Y1880887D1*
X827848Y1878035D1*
X830700Y1876576D1*
X835011Y1875150D1*
X842207D1*
X846485Y1876576D1*
X849370Y1878035D1*
X852222Y1880887D1*
X853681Y1883772D1*
Y1889509D1*
X852222Y1892361D1*
X849370Y1895246D1*
X846485Y1896672D1*
X823571Y1908820D2*
Y1924572D1*
X835044Y1915983D1*
Y1920294D1*
X836470Y1923146D1*
X837896Y1924572D1*
X842207Y1926031D1*
X845059D1*
X849370Y1924572D1*
X852255Y1921720D1*
X853681Y1917409D1*
Y1913098D1*
X852255Y1908820D1*
X850796Y1907394D1*
X847944Y1905935D1*
X881044Y597582D2*
X878192Y596156D1*
X875307Y593271D1*
X873881Y590419D1*
Y584682D1*
X875307Y581797D1*
X878192Y578945D1*
X881044Y577486D1*
X885355Y576060D1*
X892551D1*
X896829Y577486D1*
X899714Y578945D1*
X902566Y581797D1*
X904025Y584682D1*
Y590419D1*
X902566Y593271D1*
X899714Y596156D1*
X896829Y597582D1*
X904025Y621205D2*
X873914D1*
X893977Y606846D1*
Y628368D1*
X818544Y598295D2*
X815692Y596869D1*
X812807Y593984D1*
X811381Y591132D1*
Y585395D1*
X812807Y582510D1*
X815692Y579658D1*
X818544Y578199D1*
X822855Y576773D1*
X830051D1*
X834329Y578199D1*
X837214Y579658D1*
X840066Y582510D1*
X841525Y585395D1*
Y591132D1*
X840066Y593984D1*
X837214Y596869D1*
X834329Y598295D1*
X811414Y624770D2*
Y610444D1*
X824314Y609018D1*
X822888Y610444D1*
X821429Y614755D1*
Y619033D1*
X822888Y623344D1*
X825740Y626229D1*
X830051Y627655D1*
X832903D1*
X837214Y626229D1*
X840099Y623344D1*
X841525Y619033D1*
Y614755D1*
X840099Y610444D1*
X838640Y609018D1*
X835788Y607559D1*
X993199Y864970D2*
X990347Y863544D1*
X987462Y860659D1*
X986036Y857807D1*
Y852070D1*
X987462Y849185D1*
X990347Y846333D1*
X993199Y844874D1*
X997510Y843448D1*
X1004706D1*
X1008984Y844874D1*
X1011869Y846333D1*
X1014721Y849185D1*
X1016180Y852070D1*
Y857807D1*
X1014721Y860659D1*
X1011869Y863544D1*
X1008984Y864970D1*
X990347Y891444D2*
X987495Y890018D1*
X986069Y885707D1*
Y882855D1*
X987495Y878544D1*
X991806Y875659D1*
X998969Y874233D1*
X1006132D1*
X1011869Y875659D1*
X1014754Y878544D1*
X1016180Y882855D1*
Y884281D1*
X1014754Y888559D1*
X1011869Y891444D1*
X1007558Y892870D1*
X1006132D1*
X1001821Y891444D1*
X998969Y888559D1*
X997543Y884281D1*
Y882855D1*
X998969Y878544D1*
X1001821Y875659D1*
X1006132Y874233D1*
X1080700Y540423D2*
X1077848Y538997D1*
X1074963Y536111D1*
X1073537Y533260D1*
Y527523D1*
X1074963Y524638D1*
X1077848Y521786D1*
X1080700Y520327D1*
X1085011Y518901D1*
X1092207D1*
X1096485Y520327D1*
X1099370Y521786D1*
X1102222Y524638D1*
X1103681Y527523D1*
Y533260D1*
X1102222Y536111D1*
X1099370Y538997D1*
X1096485Y540422D1*
X1103681Y555423D2*
X1073571Y569782D1*
Y549686D1*
X1124450Y540439D2*
X1121598Y539013D1*
X1118713Y536128D1*
X1117287Y533276D1*
Y527539D1*
X1118713Y524654D1*
X1121598Y521802D1*
X1124450Y520343D1*
X1128761Y518917D1*
X1135957D1*
X1140235Y520343D1*
X1143120Y521802D1*
X1145972Y524654D1*
X1147431Y527539D1*
Y533276D1*
X1145972Y536128D1*
X1143120Y539013D1*
X1140235Y540439D1*
X1117320Y556866D2*
X1118746Y552588D1*
X1121598Y551129D1*
X1124483D1*
X1127335Y552588D1*
X1128794Y555440D1*
X1130220Y561177D1*
X1131646Y565488D1*
X1134531Y568339D1*
X1137383Y569765D1*
X1141694D1*
X1144546Y568339D1*
X1146005Y566913D1*
X1147431Y562602D1*
Y556865D1*
X1146005Y552588D1*
X1144546Y551129D1*
X1141694Y549703D1*
X1137383D1*
X1134531Y551129D1*
X1131646Y554014D1*
X1130220Y558291D1*
X1128794Y564028D1*
X1127335Y566914D1*
X1124483Y568339D1*
X1121598D1*
X1118746Y566914D1*
X1117320Y562603D1*
Y556866D1*
X1399450Y583704D2*
X1396598Y582278D1*
X1393713Y579393D1*
X1392287Y576541D1*
Y570804D1*
X1393713Y567919D1*
X1396598Y565067D1*
X1399450Y563608D1*
X1403761Y562182D1*
X1410957D1*
X1415235Y563608D1*
X1418120Y565067D1*
X1420972Y567919D1*
X1422431Y570804D1*
Y576541D1*
X1420972Y579393D1*
X1418120Y582278D1*
X1415235Y583704D1*
X1402335Y611637D2*
X1406646Y610178D1*
X1409531Y607326D1*
X1410957Y603015D1*
Y601589D1*
X1409531Y597278D1*
X1406646Y594426D1*
X1402335Y592967D1*
X1400909D1*
X1396598Y594426D1*
X1393746Y597278D1*
X1392320Y601589D1*
Y603015D1*
X1393746Y607326D1*
X1396598Y610178D1*
X1402335Y611637D1*
X1409531D1*
X1416694Y610178D1*
X1421005Y607326D1*
X1422431Y603015D1*
Y600163D1*
X1421005Y595852D1*
X1418120Y594426D1*
X843170Y1109704D2*
X841744Y1112556D1*
X838859Y1115441D1*
X836007Y1116867D1*
X830270D1*
X827385Y1115441D1*
X824533Y1112556D1*
X823074Y1109704D1*
X821648Y1105393D1*
Y1098197D1*
X823074Y1093919D1*
X824533Y1091034D1*
X827385Y1088182D1*
X830270Y1086723D1*
X836007D1*
X838859Y1088182D1*
X841744Y1091034D1*
X843170Y1093919D1*
X852434Y1111097D2*
X855319Y1112556D1*
X859630Y1116834D1*
Y1086723D1*
X868893Y1111097D2*
X871778Y1112556D1*
X876089Y1116834D1*
Y1086723D1*
X624760Y1944301D2*
X623334Y1947153D1*
X620448Y1950038D1*
X617597Y1951464D1*
X611860D1*
X608975Y1950038D1*
X606123Y1947153D1*
X604664Y1944301D1*
X603238Y1939990D1*
Y1932794D1*
X604664Y1928516D1*
X606123Y1925631D1*
X608975Y1922779D1*
X611860Y1921320D1*
X617597D1*
X620448Y1922779D1*
X623334Y1925631D1*
X624760Y1928516D1*
X634023Y1945694D2*
X636908Y1947153D1*
X641219Y1951431D1*
Y1921320D1*
X659105Y1951431D2*
X654794Y1950005D1*
X651909Y1945694D1*
X650483Y1938531D1*
Y1934220D1*
X651909Y1927057D1*
X654794Y1922746D1*
X659105Y1921320D1*
X661957D1*
X666268Y1922746D1*
X669120Y1927057D1*
X670579Y1934220D1*
Y1938531D1*
X669120Y1945694D1*
X666268Y1950005D1*
X661957Y1951431D1*
X659105D1*
X669120Y1945694D2*
X651909Y1927057D1*
X2593791Y762851D2*
X2590939Y761426D1*
X2588054Y758540D1*
X2586628Y755689D1*
Y749952D1*
X2588054Y747067D1*
X2590939Y744215D1*
X2593791Y742756D1*
X2598102Y741330D1*
X2605298D1*
X2609576Y742756D1*
X2612461Y744215D1*
X2615313Y747067D1*
X2616772Y749952D1*
Y755689D1*
X2615313Y758540D1*
X2612461Y761425D1*
X2609576Y762851D1*
X2592398Y772115D2*
X2590939Y775000D1*
X2586661Y779311D1*
X2616772D1*
X2586661Y791460D2*
Y807211D1*
X2598135Y798623D1*
Y802934D1*
X2599561Y805786D1*
X2600987Y807211D1*
X2605298Y808671D1*
X2608150D1*
X2612461Y807211D1*
X2615346Y804360D1*
X2616772Y800049D1*
Y795738D1*
X2615346Y791460D1*
X2613887Y790034D1*
X2611035Y788575D1*
X2543199Y761548D2*
X2540347Y760122D1*
X2537462Y757237D1*
X2536036Y754385D1*
Y748648D1*
X2537462Y745763D1*
X2540347Y742911D1*
X2543199Y741452D1*
X2547510Y740026D1*
X2554706D1*
X2558984Y741452D1*
X2561869Y742911D1*
X2564721Y745763D1*
X2566180Y748648D1*
Y754385D1*
X2564721Y757237D1*
X2561869Y760122D1*
X2558984Y761548D1*
X2541806Y770811D2*
X2540347Y773697D1*
X2536069Y778008D1*
X2566180D1*
Y801630D2*
X2536069D1*
X2556132Y787271D1*
Y808793D1*
X2218200Y1400942D2*
X2215348Y1399516D1*
X2212463Y1396631D1*
X2211037Y1393779D1*
Y1388042D1*
X2212463Y1385157D1*
X2215348Y1382305D1*
X2218200Y1380846D1*
X2222511Y1379420D1*
X2229707D1*
X2233985Y1380846D1*
X2236870Y1382305D1*
X2239722Y1385157D1*
X2241181Y1388042D1*
Y1393779D1*
X2239722Y1396631D1*
X2236870Y1399516D1*
X2233985Y1400942D1*
X2216807Y1410206D2*
X2215348Y1413091D1*
X2211071Y1417402D1*
X2241181D1*
X2211071Y1443876D2*
Y1429550D1*
X2223970Y1428124D1*
X2222544Y1429550D1*
X2221085Y1433861D1*
Y1438139D1*
X2222544Y1442450D1*
X2225396Y1445335D1*
X2229707Y1446761D1*
X2232559D1*
X2236870Y1445335D1*
X2239755Y1442450D1*
X2241181Y1438139D1*
Y1433861D1*
X2239755Y1429550D1*
X2238296Y1428124D1*
X2235444Y1426665D1*
X2080699Y1401672D2*
X2077847Y1400246D1*
X2074962Y1397361D1*
X2073536Y1394509D1*
Y1388772D1*
X2074962Y1385887D1*
X2077847Y1383035D1*
X2080699Y1381576D1*
X2085010Y1380150D1*
X2092206D1*
X2096484Y1381576D1*
X2099369Y1383035D1*
X2102221Y1385887D1*
X2103680Y1388772D1*
Y1394509D1*
X2102221Y1397361D1*
X2099369Y1400246D1*
X2096484Y1401672D1*
X2079306Y1410935D2*
X2077847Y1413820D1*
X2073569Y1418131D1*
X2103680D1*
X2077847Y1444606D2*
X2074995Y1443180D1*
X2073569Y1438869D1*
Y1436017D1*
X2074995Y1431706D1*
X2079306Y1428821D1*
X2086469Y1427395D1*
X2093632D1*
X2099369Y1428821D1*
X2102254Y1431706D1*
X2103680Y1436017D1*
Y1437443D1*
X2102254Y1441721D1*
X2099369Y1444606D1*
X2095058Y1446032D1*
X2093632D1*
X2089321Y1444606D1*
X2086469Y1441721D1*
X2085043Y1437443D1*
Y1436017D1*
X2086469Y1431706D1*
X2089321Y1428821D1*
X2093632Y1427395D1*
X2136950Y1300942D2*
X2134098Y1299516D1*
X2131213Y1296631D1*
X2129787Y1293779D1*
Y1288042D1*
X2131213Y1285157D1*
X2134098Y1282305D1*
X2136950Y1280846D1*
X2141261Y1279420D1*
X2148457D1*
X2152735Y1280846D1*
X2155620Y1282305D1*
X2158472Y1285157D1*
X2159931Y1288042D1*
Y1293779D1*
X2158472Y1296631D1*
X2155620Y1299516D1*
X2152735Y1300942D1*
X2135557Y1310206D2*
X2134098Y1313091D1*
X2129820Y1317402D1*
X2159931D1*
Y1332402D2*
X2129820Y1346761D1*
Y1326665D1*
X2024450Y849778D2*
X2021598Y848352D1*
X2018713Y845466D1*
X2017287Y842615D1*
Y836878D1*
X2018713Y833993D1*
X2021598Y831141D1*
X2024450Y829682D1*
X2028761Y828256D1*
X2035957D1*
X2040235Y829682D1*
X2043120Y831141D1*
X2045972Y833993D1*
X2047431Y836878D1*
Y842615D1*
X2045972Y845466D1*
X2043120Y848352D1*
X2040235Y849777D1*
X2023057Y859041D2*
X2021598Y861926D1*
X2017320Y866237D1*
X2047431D1*
X2017320Y882664D2*
X2018746Y878386D1*
X2021598Y876927D1*
X2024483D1*
X2027335Y878386D1*
X2028794Y881238D1*
X2030220Y886975D1*
X2031646Y891286D1*
X2034531Y894138D1*
X2037383Y895563D1*
X2041694D1*
X2044546Y894137D1*
X2046005Y892712D1*
X2047431Y888401D1*
Y882664D1*
X2046005Y878386D1*
X2044546Y876927D1*
X2041694Y875501D1*
X2037383D1*
X2034531Y876927D1*
X2031646Y879812D1*
X2030220Y884090D1*
X2028794Y889826D1*
X2027335Y892712D1*
X2024483Y894138D1*
X2021598D1*
X2018746Y892712D1*
X2017320Y888401D1*
Y882664D1*
X2024450Y750474D2*
X2021598Y749048D1*
X2018713Y746163D1*
X2017287Y743311D1*
Y737574D1*
X2018713Y734689D1*
X2021598Y731837D1*
X2024450Y730378D1*
X2028761Y728952D1*
X2035957D1*
X2040235Y730378D1*
X2043120Y731837D1*
X2045972Y734689D1*
X2047431Y737574D1*
Y743311D1*
X2045972Y746163D1*
X2043120Y749048D1*
X2040235Y750474D1*
X2023057Y759737D2*
X2021598Y762622D1*
X2017320Y766934D1*
X2047431Y766933D1*
X2027335Y794867D2*
X2031646Y793408D1*
X2034531Y790556D1*
X2035957Y786245D1*
Y784819D1*
X2034531Y780508D1*
X2031646Y777656D1*
X2027335Y776197D1*
X2025909D1*
X2021598Y777656D1*
X2018746Y780508D1*
X2017320Y784819D1*
Y786245D1*
X2018746Y790556D1*
X2021598Y793408D1*
X2027335Y794867D1*
X2034531D1*
X2041694Y793408D1*
X2046005Y790556D1*
X2047431Y786245D1*
Y783393D1*
X2046005Y779082D1*
X2043120Y777656D1*
X2087261Y988050D2*
X2085835Y990902D1*
X2082950Y993787D1*
X2080098Y995213D1*
X2074361D1*
X2071476Y993787D1*
X2068624Y990902D1*
X2067165Y988050D1*
X2065739Y983739D1*
Y976543D1*
X2067165Y972265D1*
X2068624Y969380D1*
X2071476Y966528D1*
X2074361Y965069D1*
X2080098D1*
X2082950Y966528D1*
X2085835Y969380D1*
X2087261Y972265D1*
X2097983Y988017D2*
Y989443D1*
X2099409Y992328D1*
X2100835Y993754D1*
X2103720Y995180D1*
X2109457D1*
X2112309Y993754D1*
X2113735Y992328D1*
X2115194Y989443D1*
Y986591D1*
X2113735Y983706D1*
X2110883Y979428D1*
X2096524Y965069D1*
X2116620D1*
X2125884Y989443D2*
X2128769Y990902D1*
X2133080Y995180D1*
Y965069D1*
X2024450Y644492D2*
X2021598Y643066D1*
X2018713Y640181D1*
X2017287Y637329D1*
Y631592D1*
X2018713Y628707D1*
X2021598Y625855D1*
X2024450Y624396D1*
X2028761Y622970D1*
X2035957D1*
X2040235Y624396D1*
X2043120Y625855D1*
X2045972Y628707D1*
X2047431Y631592D1*
Y637329D1*
X2045972Y640181D1*
X2043120Y643066D1*
X2040235Y644492D1*
X2024483Y655215D2*
X2023057D1*
X2020172Y656641D1*
X2018746Y658067D1*
X2017320Y660952D1*
Y666689D1*
X2018746Y669541D1*
X2020172Y670967D1*
X2023057Y672426D1*
X2025909D1*
X2028794Y670966D1*
X2033072Y668115D1*
X2047431Y653756D1*
Y673852D1*
X2024483Y684574D2*
X2023057D1*
X2020172Y686000D1*
X2018746Y687426D1*
X2017320Y690311D1*
Y696048D1*
X2018746Y698900D1*
X2020172Y700326D1*
X2023057Y701785D1*
X2025909D1*
X2028794Y700326D1*
X2033072Y697474D1*
X2047431Y683115D1*
Y703211D1*
X105699Y1793311D2*
X102847Y1791885D1*
X99962Y1789000D1*
X98536Y1786148D1*
Y1780411D1*
X99962Y1777526D1*
X102847Y1774674D1*
X105699Y1773215D1*
X110010Y1771789D1*
X117206D1*
X121484Y1773215D1*
X124369Y1774674D1*
X127221Y1777526D1*
X128680Y1780411D1*
Y1786148D1*
X127221Y1789000D1*
X124369Y1791885D1*
X121484Y1793311D1*
X105732Y1804034D2*
X104306D1*
X101421Y1805460D1*
X99995Y1806886D1*
X98569Y1809771D1*
Y1815508D1*
X99995Y1818359D1*
X101421Y1819785D1*
X104306Y1821245D1*
X107158D1*
X110043Y1819785D1*
X114321Y1816933D1*
X128680Y1802574D1*
Y1822670D1*
X98569Y1834819D2*
Y1850571D1*
X110043Y1841982D1*
Y1846293D1*
X111469Y1849145D1*
X112895Y1850571D1*
X117206Y1852030D1*
X120058D1*
X124369Y1850571D1*
X127254Y1847719D1*
X128680Y1843408D1*
Y1839097D1*
X127254Y1834819D1*
X125795Y1833393D1*
X122943Y1831934D1*
X655700Y937060D2*
X652848Y935634D1*
X649963Y932749D1*
X648537Y929897D1*
Y924160D1*
X649963Y921275D1*
X652848Y918423D1*
X655700Y916964D1*
X660011Y915538D1*
X667207D1*
X671485Y916964D1*
X674370Y918423D1*
X677222Y921275D1*
X678681Y924160D1*
Y929897D1*
X677222Y932749D1*
X674370Y935634D1*
X671485Y937060D1*
X655733Y947783D2*
X654307D1*
X651422Y949209D1*
X649996Y950635D1*
X648571Y953520D1*
Y959257D1*
X649996Y962109D1*
X651422Y963535D1*
X654307Y964994D1*
X657159D1*
X660044Y963535D1*
X664322Y960683D1*
X678681Y946324D1*
Y966420D1*
X648571Y984305D2*
X649996Y979994D1*
X654307Y977109D1*
X661470Y975683D1*
X665781D1*
X672944Y977109D1*
X677255Y979994D1*
X678681Y984305D1*
Y987157D1*
X677255Y991468D1*
X672944Y994320D1*
X665781Y995779D1*
X661470D1*
X654307Y994320D1*
X649996Y991468D1*
X648571Y987157D1*
Y984305D1*
X654307Y994320D2*
X672944Y977109D1*
X606279Y763050D2*
X604853Y765902D1*
X601968Y768787D1*
X599116Y770213D1*
X593379D1*
X590494Y768787D1*
X587642Y765902D1*
X586183Y763050D1*
X584757Y758739D1*
Y751543D1*
X586183Y747265D1*
X587642Y744380D1*
X590494Y741528D1*
X593379Y740069D1*
X599116D1*
X601968Y741528D1*
X604853Y744380D1*
X606279Y747265D1*
X617002Y763017D2*
Y764443D1*
X618428Y767328D1*
X619854Y768754D1*
X622739Y770180D1*
X628476D1*
X631328Y768754D1*
X632753Y767328D1*
X634213Y764443D1*
Y761591D1*
X632753Y758706D1*
X629902Y754428D1*
X615543Y740069D1*
X635639D1*
X659261D2*
Y770180D1*
X644902Y750117D1*
X666424D1*
X1062316Y430249D2*
X1092460D1*
Y440297D1*
X1091001Y444608D1*
X1088149Y447493D1*
X1085264Y448919D1*
X1080986Y450345D1*
X1073790D1*
X1069479Y448919D1*
X1066627Y447493D1*
X1063742Y444608D1*
X1062316Y440297D1*
Y430249D1*
X1068086Y459608D2*
X1066627Y462493D1*
X1062349Y466804D1*
X1092460D1*
X174288Y1268934D2*
Y1238790D1*
X184336D1*
X188647Y1240249D1*
X191532Y1243101D1*
X192958Y1245986D1*
X194384Y1250264D1*
Y1257460D1*
X192958Y1261771D1*
X191532Y1264623D1*
X188647Y1267508D1*
X184336Y1268934D1*
X174288D1*
X205107Y1261738D2*
Y1263164D1*
X206533Y1266049D1*
X207959Y1267475D1*
X210844Y1268901D1*
X216581D1*
X219433Y1267475D1*
X220858Y1266049D1*
X222318Y1263164D1*
Y1260312D1*
X220858Y1257427D1*
X218007Y1253149D1*
X203648Y1238790D1*
X223744D1*
X527737Y1176020D2*
Y1145876D1*
X537785D1*
X542096Y1147335D1*
X544981Y1150187D1*
X546407Y1153072D1*
X547833Y1157350D1*
Y1164546D1*
X546407Y1168857D1*
X544981Y1171709D1*
X542096Y1174594D1*
X537785Y1176020D1*
X527737D1*
X559981Y1175987D2*
X575733D1*
X567144Y1164513D1*
X571455D1*
X574307Y1163087D1*
X575733Y1161661D1*
X577192Y1157350D1*
Y1154498D1*
X575733Y1150187D1*
X572881Y1147302D1*
X568570Y1145876D1*
X564259D1*
X559981Y1147302D1*
X558555Y1148761D1*
X557096Y1151613D1*
X747095Y813522D2*
Y783378D1*
X757143D1*
X761454Y784838D1*
X764339Y787689D1*
X765765Y790575D1*
X767191Y794852D1*
Y802048D1*
X765765Y806359D1*
X764339Y809211D1*
X761454Y812096D1*
X757143Y813522D1*
X747095D1*
X790814Y783378D2*
Y813489D1*
X776455Y793426D1*
X797977D1*
X1766558Y588522D2*
Y558378D1*
X1776606D1*
X1780917Y559838D1*
X1783802Y562689D1*
X1785228Y565575D1*
X1786654Y569852D1*
Y577048D1*
X1785228Y581359D1*
X1783802Y584211D1*
X1780917Y587096D1*
X1776606Y588522D1*
X1766558D1*
X1813129Y588489D2*
X1798803D1*
X1797377Y575589D1*
X1798803Y577015D1*
X1803114Y578474D1*
X1807392D1*
X1811703Y577015D1*
X1814588Y574163D1*
X1816014Y569852D1*
Y567000D1*
X1814588Y562689D1*
X1811703Y559804D1*
X1807392Y558378D1*
X1803114D1*
X1798803Y559804D1*
X1797377Y561263D1*
X1795918Y564115D1*
X2439039Y1931799D2*
X2469183D1*
Y1941846D1*
X2467724Y1946157D1*
X2464872Y1949043D1*
X2461987Y1950468D1*
X2457709Y1951894D1*
X2450513D1*
X2446202Y1950469D1*
X2443350Y1949043D1*
X2440465Y1946158D1*
X2439039Y1941846D1*
Y1931799D1*
X2443350Y1978369D2*
X2440498Y1976943D1*
X2439072Y1972632D1*
Y1969780D1*
X2440498Y1965469D1*
X2444809Y1962584D1*
X2451972Y1961158D1*
X2459135D1*
X2464872Y1962584D1*
X2467757Y1965469D1*
X2469183Y1969780D1*
Y1971206D1*
X2467757Y1975484D1*
X2464872Y1978369D1*
X2460561Y1979795D1*
X2459135D1*
X2454824Y1978369D1*
X2451972Y1975484D1*
X2450546Y1971206D1*
Y1969780D1*
X2451972Y1965469D1*
X2454824Y1962584D1*
X2459135Y1961158D1*
X2118372Y2140391D2*
Y2110247D1*
X2128420D1*
X2132731Y2111706D1*
X2135616Y2114558D1*
X2137042Y2117443D1*
X2138468Y2121720D1*
Y2128917D1*
X2137042Y2133228D1*
X2135616Y2136080D1*
X2132731Y2138965D1*
X2128420Y2140391D1*
X2118372D1*
X2153468Y2110247D2*
X2167828Y2140357D1*
X2147732D1*
X2005889Y2027891D2*
Y1997747D1*
X2015937D1*
X2020248Y1999206D1*
X2023133Y2002058D1*
X2024559Y2004943D1*
X2025985Y2009220D1*
Y2016417D1*
X2024559Y2020728D1*
X2023133Y2023580D1*
X2020248Y2026465D1*
X2015937Y2027891D1*
X2005889D1*
X2042411Y2027857D2*
X2038133Y2026431D1*
X2036674Y2023580D1*
Y2020694D1*
X2038133Y2017843D1*
X2040985Y2016383D1*
X2046722Y2014957D1*
X2051033Y2013532D1*
X2053885Y2010646D1*
X2055311Y2007795D1*
Y2003484D1*
X2053885Y2000632D1*
X2052459Y1999172D1*
X2048148Y1997747D1*
X2042411D1*
X2038133Y1999172D1*
X2036674Y2000632D1*
X2035248Y2003484D1*
Y2007795D1*
X2036674Y2010646D1*
X2039559Y2013532D1*
X2043837Y2014957D1*
X2049574Y2016383D1*
X2052459Y2017843D1*
X2053885Y2020694D1*
Y2023580D1*
X2052459Y2026431D1*
X2048148Y2027857D1*
X2042411D1*
X2119085Y1921641D2*
Y1891497D1*
X2129133D1*
X2133444Y1892956D1*
X2136329Y1895808D1*
X2137755Y1898693D1*
X2139181Y1902971D1*
Y1910167D1*
X2137755Y1914478D1*
X2136329Y1917330D1*
X2133444Y1920215D1*
X2129133Y1921641D1*
X2119085D1*
X2167115Y1911593D2*
X2165655Y1907282D1*
X2162804Y1904397D1*
X2158492Y1902971D1*
X2157067D1*
X2152756Y1904397D1*
X2149904Y1907282D1*
X2148444Y1911593D1*
Y1913019D1*
X2149904Y1917330D1*
X2152756Y1920182D1*
X2157067Y1921608D1*
X2158492D1*
X2162804Y1920182D1*
X2165655Y1917330D1*
X2167115Y1911593D1*
Y1904397D1*
X2165655Y1897234D1*
X2162804Y1892923D1*
X2158492Y1891497D1*
X2155641D1*
X2151330Y1892923D1*
X2149904Y1895808D1*
X286061Y563414D2*
Y540466D1*
X284635Y536155D1*
X283176Y534729D1*
X280324Y533270D1*
X277439D1*
X274587Y534729D1*
X273161Y536155D1*
X271702Y540466D1*
Y543318D1*
X296783Y556218D2*
Y557644D1*
X298209Y560529D1*
X299635Y561955D1*
X302520Y563381D1*
X308257D1*
X311109Y561955D1*
X312535Y560529D1*
X313994Y557644D1*
Y554792D1*
X312535Y551907D1*
X309683Y547629D1*
X295324Y533270D1*
X315420D1*
X156031Y150663D2*
X153179Y153548D1*
X148868Y154974D1*
X143131D1*
X138820Y153548D1*
X135935Y150663D1*
Y147811D1*
X137394Y144926D1*
X138820Y143500D1*
X141672Y142074D1*
X150294Y139189D1*
X153179Y137763D1*
X154605Y136304D1*
X156031Y133452D1*
Y129141D1*
X153179Y126290D1*
X148868Y124830D1*
X143131D1*
X138820Y126290D1*
X135935Y129141D1*
X183931Y154974D2*
X165295D1*
Y124830D1*
X183931D1*
X165295Y140615D2*
X176768D1*
X193195D2*
X206095D1*
X210406Y142074D1*
X211865Y143500D1*
X213291Y146352D1*
Y149237D1*
X211865Y152089D1*
X210406Y153548D1*
X206095Y154974D1*
X193195D1*
Y124830D1*
X203243Y140615D2*
X213291Y124830D1*
X222555Y154974D2*
X234028Y124830D1*
X245502Y154974D1*
X263388D2*
X260503Y153548D1*
X257651Y150663D1*
X256192Y147811D1*
X254766Y143500D1*
Y136304D1*
X256192Y132026D1*
X257651Y129141D1*
X260503Y126290D1*
X263388Y124830D1*
X269125D1*
X271977Y126290D1*
X274862Y129141D1*
X276288Y132026D1*
X277714Y136304D1*
Y143500D1*
X276288Y147811D1*
X274862Y150663D1*
X271977Y153548D1*
X269125Y154974D1*
X263388D1*
X316138Y139189D2*
X329071D1*
X333349Y140615D1*
X334808Y142074D1*
X336234Y144926D1*
Y149237D1*
X334808Y152089D1*
X333349Y153548D1*
X329071Y154974D1*
X316138D1*
Y124830D1*
X354120Y154974D2*
X351235Y153548D1*
X348383Y150663D1*
X346924Y147811D1*
X345498Y143500D1*
Y136304D1*
X346924Y132026D1*
X348383Y129141D1*
X351235Y126290D1*
X354120Y124830D1*
X359857D1*
X362709Y126290D1*
X365594Y129141D1*
X367020Y132026D1*
X368445Y136304D1*
Y143500D1*
X367020Y147811D1*
X365594Y150663D1*
X362709Y153548D1*
X359857Y154974D1*
X354120D1*
X377709D2*
X384905Y124830D1*
X392068Y154974D1*
X399231Y124830D1*
X406427Y154974D1*
X434328D2*
X415691D1*
Y124830D1*
X434328D1*
X415691Y140615D2*
X427165D1*
X443591D2*
X456491D1*
X460802Y142074D1*
X462261Y143500D1*
X463687Y146352D1*
Y149237D1*
X462261Y152089D1*
X460802Y153548D1*
X456491Y154974D1*
X443591D1*
Y124830D1*
X453639Y140615D2*
X463687Y124830D1*
X2664362Y983946D2*
Y960998D1*
X2662936Y956687D1*
X2661477Y955261D1*
X2658625Y953802D1*
X2655740D1*
X2652888Y955261D1*
X2651462Y956687D1*
X2650003Y960998D1*
Y963850D1*
X2676511Y983912D2*
X2692262D1*
X2683673Y972439D1*
X2687985D1*
X2690836Y971013D1*
X2692262Y969587D1*
X2693721Y965276D1*
Y962424D1*
X2692262Y958113D1*
X2689410Y955228D1*
X2685099Y953802D1*
X2680788D1*
X2676511Y955228D1*
X2675085Y956687D1*
X2673625Y959539D1*
X146770Y2018934D2*
Y1995986D1*
X145344Y1991675D1*
X143885Y1990249D1*
X141033Y1988790D1*
X138148D1*
X135296Y1990249D1*
X133870Y1991675D1*
X132411Y1995986D1*
Y1998838D1*
X156033Y2013164D2*
X158919Y2014623D1*
X163230Y2018901D1*
Y1988790D1*
X181115Y2018901D2*
X176804Y2017475D1*
X173919Y2013164D1*
X172493Y2006001D1*
Y2001690D1*
X173919Y1994527D1*
X176804Y1990216D1*
X181115Y1988790D1*
X183967D1*
X188278Y1990216D1*
X191130Y1994527D1*
X192589Y2001690D1*
Y2006001D1*
X191130Y2013164D1*
X188278Y2017475D1*
X183967Y2018901D1*
X181115D1*
X191130Y2013164D2*
X173919Y1994527D1*
X2441787Y593934D2*
Y570986D1*
X2440361Y566675D1*
X2438902Y565249D1*
X2436050Y563790D1*
X2433165D1*
X2430313Y565249D1*
X2428887Y566675D1*
X2427428Y570986D1*
Y573838D1*
X2465409Y563790D2*
Y593901D1*
X2451050Y573838D1*
X2472572D1*
X2451675Y49982D2*
Y62882D1*
X2450215Y67193D1*
X2448790Y68652D1*
X2445938Y70078D1*
X2443053D1*
X2440201Y68652D1*
X2438741Y67193D1*
X2437316Y62882D1*
X2437315Y49982D1*
X2467460D1*
X2451675Y60030D2*
X2467460Y70078D1*
X2441627Y99438D2*
X2438742Y96586D1*
X2437316Y92275D1*
Y86538D1*
X2438742Y82227D1*
X2441627Y79342D1*
X2444478D1*
X2447364Y80801D1*
X2448790Y82227D1*
X2450215Y85079D1*
X2453101Y93701D1*
X2454526Y96586D1*
X2455986Y98012D1*
X2458838Y99438D1*
X2463149D1*
X2466000Y96586D1*
X2467460Y92275D1*
Y86538D1*
X2466000Y82227D1*
X2463149Y79342D1*
X2444512Y110160D2*
X2443086D1*
X2440201Y111586D1*
X2438775Y113012D1*
X2437349Y115897D1*
Y121634D1*
X2438775Y124486D1*
X2440201Y125912D1*
X2443086Y127371D1*
X2445938D1*
X2448823Y125912D1*
X2453101Y123060D1*
X2467460Y108701D1*
Y128797D1*
X2437349Y140946D2*
Y156698D1*
X2448823Y148109D1*
Y152420D1*
X2450249Y155272D1*
X2451675Y156698D1*
X2455986Y158157D1*
X2458837D1*
X2463148Y156698D1*
X2466034Y153846D1*
X2467460Y149535D1*
Y145224D1*
X2466034Y140946D1*
X2464574Y139520D1*
X2461723Y138061D1*
X2444512Y168880D2*
X2443086D1*
X2440201Y170306D1*
X2438775Y171731D1*
X2437349Y174617D1*
Y180354D1*
X2438775Y183205D1*
X2440201Y184631D1*
X2443086Y186091D1*
X2445938Y186090D1*
X2448823Y184631D1*
X2453101Y181779D1*
X2467460Y167420D1*
Y187516D1*
X2143229Y593934D2*
Y570986D1*
X2141803Y566675D1*
X2140344Y565249D1*
X2137492Y563790D1*
X2134607D1*
X2131755Y565249D1*
X2130329Y566675D1*
X2128870Y570986D1*
Y573838D1*
X2169704Y589623D2*
X2168278Y592475D1*
X2163967Y593901D1*
X2161115D1*
X2156804Y592475D1*
X2153919Y588164D1*
X2152493Y581001D1*
Y573838D1*
X2153919Y568101D1*
X2156804Y565216D1*
X2161115Y563790D1*
X2162541D1*
X2166819Y565216D1*
X2169704Y568101D1*
X2171130Y572412D1*
Y573838D1*
X2169704Y578149D1*
X2166819Y581001D1*
X2162541Y582427D1*
X2161115D1*
X2156804Y581001D1*
X2153919Y578149D1*
X2152493Y573838D1*
X2143599Y49552D2*
Y65303D1*
X2155073Y56715D1*
Y61026D1*
X2156499Y63878D1*
X2157925Y65303D1*
X2162236Y66763D1*
X2165088D1*
X2169399Y65303D1*
X2172284Y62452D1*
X2173710Y58141D1*
Y53830D1*
X2172284Y49552D1*
X2170825Y48126D1*
X2167973Y46667D1*
X2143566Y76026D2*
X2173710Y87500D1*
X2143566Y98974D1*
X2143599Y111123D2*
Y126874D1*
X2155073Y118286D1*
Y122597D1*
X2156499Y125448D1*
X2157925Y126874D1*
X2162236Y128334D1*
X2165088D1*
X2169399Y126874D1*
X2172284Y124022D1*
X2173710Y119711D1*
Y115400D1*
X2172284Y111123D1*
X2170825Y109697D1*
X2167973Y108238D1*
X2342500Y593934D2*
Y570986D1*
X2341074Y566675D1*
X2339615Y565249D1*
X2336763Y563790D1*
X2333878D1*
X2331026Y565249D1*
X2329600Y566675D1*
X2328141Y570986D1*
Y573838D1*
X2357500Y563790D2*
X2371859Y593901D1*
X2351763D1*
X2338229Y68902D2*
X2335377Y67476D1*
X2332492Y64591D1*
X2331066Y61739D1*
Y56002D1*
X2332492Y53117D1*
X2335377Y50265D1*
X2338229Y48806D1*
X2342540Y47380D1*
X2349736D1*
X2354014Y48806D1*
X2356899Y50265D1*
X2359751Y53117D1*
X2361210Y56002D1*
Y61739D1*
X2359751Y64590D1*
X2356899Y67476D1*
X2354014Y68901D1*
X2349736D1*
Y61739D1*
X2331066Y98261D2*
X2361210D1*
X2331066Y78165D1*
X2361210D1*
X2331066Y107525D2*
X2361210D1*
Y117573D1*
X2359751Y121884D1*
X2356899Y124769D1*
X2354014Y126195D1*
X2349736Y127621D1*
X2342540D1*
X2338229Y126195D1*
X2335377Y124769D1*
X2332492Y121884D1*
X2331066Y117573D1*
Y107525D1*
X2243213Y593934D2*
Y570986D1*
X2241787Y566675D1*
X2240328Y565249D1*
X2237476Y563790D1*
X2234591D1*
X2231739Y565249D1*
X2230313Y566675D1*
X2228854Y570986D1*
Y573838D1*
X2271146Y583886D2*
X2269687Y579575D1*
X2266835Y576690D1*
X2262524Y575264D1*
X2261098D1*
X2256787Y576690D1*
X2253935Y579575D1*
X2252476Y583886D1*
Y585312D1*
X2253935Y589623D1*
X2256787Y592475D1*
X2261098Y593901D1*
X2262524D1*
X2266835Y592475D1*
X2269687Y589623D1*
X2271146Y583886D1*
Y576690D1*
X2269687Y569527D1*
X2266835Y565216D1*
X2262524Y563790D1*
X2259672D1*
X2255361Y565216D1*
X2253935Y568101D1*
X2238229Y62844D2*
X2235377Y61418D1*
X2232492Y58533D1*
X2231066Y55681D1*
Y49944D1*
X2232492Y47059D1*
X2235377Y44207D1*
X2238229Y42748D1*
X2242540Y41322D1*
X2249736D1*
X2254014Y42748D1*
X2256899Y44207D1*
X2259751Y47059D1*
X2261210Y49944D1*
Y55681D1*
X2259751Y58533D1*
X2256899Y61418D1*
X2254014Y62844D1*
X2249736D1*
Y55681D1*
X2246851Y72107D2*
Y85040D1*
X2245425Y89318D1*
X2243966Y90777D1*
X2241114Y92203D1*
X2236803D1*
X2233951Y90777D1*
X2232492Y89318D1*
X2231066Y85040D1*
Y72107D1*
X2261210D1*
X2231066Y101467D2*
X2261210D1*
X2231066Y119352D2*
X2232492Y116467D1*
X2235377Y113615D1*
X2238229Y112156D1*
X2242540Y110730D1*
X2249736D1*
X2254014Y112156D1*
X2256899Y113615D1*
X2259751Y116467D1*
X2261210Y119352D1*
Y125089D1*
X2259751Y127941D1*
X2256899Y130826D1*
X2254014Y132252D1*
X2249736Y133678D1*
X2242540D1*
X2238229Y132252D1*
X2235377Y130826D1*
X2232492Y127941D1*
X2231066Y125089D1*
Y119352D1*
X353220Y2018934D2*
Y1995986D1*
X351794Y1991675D1*
X350335Y1990249D1*
X347483Y1988790D1*
X344598D1*
X341746Y1990249D1*
X340320Y1991675D1*
X338861Y1995986D1*
Y1998838D1*
X362483Y2013164D2*
X365368Y2014623D1*
X369680Y2018901D1*
Y1988790D1*
X378943Y2013164D2*
X381828Y2014623D1*
X386139Y2018901D1*
Y1988790D1*
X570665Y544524D2*
Y514380D1*
X587876D1*
X597139Y538754D2*
X600024Y540213D1*
X604335Y544491D1*
Y514380D1*
X1290744Y1212290D2*
Y1242434D1*
X1279270Y1212290D1*
X1267796Y1242434D1*
Y1212290D1*
X1300008Y1236663D2*
X1302893Y1238122D1*
X1307204Y1242400D1*
Y1212290D1*
X2095802Y1669985D2*
X2092950Y1668592D1*
X2090065Y1665707D1*
X2088639Y1662822D1*
X2087180Y1658511D1*
Y1651348D1*
X2088639Y1647037D1*
X2090065Y1644185D1*
X2092950Y1641300D1*
X2095802Y1639874D1*
X2101539D1*
X2104424Y1641300D1*
X2107276Y1644185D1*
X2108702Y1647037D1*
X2110161Y1651348D1*
Y1658511D1*
X2108702Y1662822D1*
X2107276Y1665707D1*
X2104424Y1668592D1*
X2101539Y1669985D1*
X2095802D1*
X2100113Y1645611D2*
X2108702Y1636989D1*
X2119425Y1664215D2*
X2122310Y1665674D1*
X2126621Y1669952D1*
Y1639841D1*
X2095601Y1607486D2*
X2092749Y1606094D1*
X2089864Y1603208D1*
X2088438Y1600323D1*
X2086979Y1596012D1*
Y1588849D1*
X2088438Y1584538D1*
X2089864Y1581687D1*
X2092749Y1578801D1*
X2095601Y1577375D1*
X2101338D1*
X2104223Y1578801D1*
X2107075Y1581687D1*
X2108501Y1584538D1*
X2109960Y1588849D1*
Y1596012D1*
X2108501Y1600323D1*
X2107075Y1603208D1*
X2104223Y1606094D1*
X2101338Y1607486D1*
X2095601D1*
X2099912Y1583112D2*
X2108501Y1574490D1*
X2120683Y1600290D2*
Y1601716D1*
X2122109Y1604601D1*
X2123535Y1606027D1*
X2126420Y1607453D1*
X2132157D1*
X2135009Y1606027D1*
X2136435Y1604601D1*
X2137894Y1601716D1*
Y1598864D1*
X2136435Y1595979D1*
X2133583Y1591701D1*
X2119224Y1577342D1*
X2139320D1*
X1186404Y317654D2*
X1183553Y316262D1*
X1180668Y313376D1*
X1179242Y310491D1*
X1177782Y306180D1*
Y299017D1*
X1179242Y294706D1*
X1180668Y291854D1*
X1183553Y288969D1*
X1186404Y287543D1*
X1192141D1*
X1195027Y288969D1*
X1197878Y291854D1*
X1199304Y294706D1*
X1200764Y299017D1*
Y306180D1*
X1199304Y310491D1*
X1197878Y313376D1*
X1195027Y316262D1*
X1192141Y317654D1*
X1186404D1*
X1190716Y293280D2*
X1199304Y284658D1*
X1212912Y317621D2*
X1228664D1*
X1220075Y306147D1*
X1224386D1*
X1227238Y304721D1*
X1228664Y303295D1*
X1230123Y298984D1*
Y296132D1*
X1228664Y291821D1*
X1225812Y288936D1*
X1221501Y287510D1*
X1217190D1*
X1212912Y288936D1*
X1211486Y290395D1*
X1210027Y293247D1*
X1385692Y317654D2*
X1382840Y316262D1*
X1379955Y313376D1*
X1378529Y310491D1*
X1377069Y306180D1*
Y299017D1*
X1378529Y294706D1*
X1379955Y291854D1*
X1382840Y288969D1*
X1385692Y287543D1*
X1391428D1*
X1394314Y288969D1*
X1397165Y291854D1*
X1398591Y294706D1*
X1400051Y299017D1*
Y306180D1*
X1398591Y310491D1*
X1397165Y313376D1*
X1394314Y316262D1*
X1391428Y317654D1*
X1385692D1*
X1390003Y293280D2*
X1398591Y284658D1*
X1423673Y287510D2*
Y317621D1*
X1409314Y297558D1*
X1430836D1*
X1586404Y317654D2*
X1583553Y316262D1*
X1580668Y313376D1*
X1579242Y310491D1*
X1577782Y306180D1*
Y299017D1*
X1579242Y294706D1*
X1580668Y291854D1*
X1583553Y288969D1*
X1586404Y287543D1*
X1592141D1*
X1595027Y288969D1*
X1597878Y291854D1*
X1599304Y294706D1*
X1600764Y299017D1*
Y306180D1*
X1599304Y310491D1*
X1597878Y313376D1*
X1595027Y316262D1*
X1592141Y317654D1*
X1586404D1*
X1590716Y293280D2*
X1599304Y284658D1*
X1627238Y317621D2*
X1612912D1*
X1611486Y304721D1*
X1612912Y306147D1*
X1617223Y307606D1*
X1621501D1*
X1625812Y306147D1*
X1628697Y303295D1*
X1630123Y298984D1*
Y296132D1*
X1628697Y291821D1*
X1625812Y288936D1*
X1621501Y287510D1*
X1617223D1*
X1612912Y288936D1*
X1611486Y290395D1*
X1610027Y293247D1*
X712896Y1981132D2*
Y1994032D1*
X711437Y1998343D1*
X710011Y1999802D1*
X707159Y2001228D1*
X704274D1*
X701422Y1999802D1*
X699963Y1998343D1*
X698537Y1994032D1*
Y1981132D1*
X728681D1*
X712896Y1991180D2*
X728681Y2001228D1*
X704307Y2010491D2*
X702848Y2013376D1*
X698571Y2017687D1*
X728681D1*
X1050396Y843431D2*
Y856331D1*
X1048937Y860642D1*
X1047511Y862101D1*
X1044659Y863527D1*
X1041774D1*
X1038922Y862101D1*
X1037463Y860642D1*
X1036037Y856331D1*
Y843431D1*
X1066181D1*
X1050396Y853479D2*
X1066181Y863527D1*
X1043233Y874250D2*
X1041807D1*
X1038922Y875676D1*
X1037496Y877102D1*
X1036071Y879987D1*
Y885724D1*
X1037496Y888576D1*
X1038922Y890002D1*
X1041807Y891461D1*
X1044659D1*
X1047544Y890002D1*
X1051822Y887150D1*
X1066181Y872791D1*
Y892887D1*
X1200272Y425194D2*
X1213172D1*
X1217483Y426653D1*
X1218942Y428079D1*
X1220368Y430931D1*
Y433816D1*
X1218942Y436668D1*
X1217483Y438127D1*
X1213172Y439553D1*
X1200272D1*
Y409409D1*
X1210320Y425194D2*
X1220368Y409409D1*
X1232517Y439520D2*
X1248269D1*
X1239680Y428046D1*
X1243991D1*
X1246843Y426620D1*
X1248269Y425194D1*
X1249728Y420883D1*
Y418031D1*
X1248269Y413720D1*
X1245417Y410835D1*
X1241106Y409409D1*
X1236795D1*
X1232517Y410835D1*
X1231091Y412294D1*
X1229632Y415146D1*
X725396Y992719D2*
Y1005619D1*
X723937Y1009930D1*
X722511Y1011389D1*
X719659Y1012815D1*
X716774D1*
X713922Y1011389D1*
X712463Y1009930D1*
X711037Y1005619D1*
Y992719D1*
X741181D1*
X725396Y1002767D2*
X741181Y1012815D1*
Y1036437D2*
X711070D1*
X731133Y1022078D1*
Y1043600D1*
X1100395Y844162D2*
Y857062D1*
X1098936Y861373D1*
X1097510Y862832D1*
X1094658Y864258D1*
X1091773D1*
X1088921Y862832D1*
X1087462Y861373D1*
X1086036Y857062D1*
Y844162D1*
X1116180D1*
X1100395Y854210D2*
X1116180Y864258D1*
X1090347Y890732D2*
X1087495Y889306D1*
X1086069Y884995D1*
Y882144D1*
X1087495Y877833D1*
X1091806Y874947D1*
X1098969Y873522D1*
X1106132Y873521D1*
X1111869Y874947D1*
X1114754Y877832D1*
X1116180Y882143D1*
Y883569D1*
X1114754Y887847D1*
X1111869Y890732D1*
X1107558Y892158D1*
X1106132D1*
X1101821Y890732D1*
X1098969Y887847D1*
X1097543Y883569D1*
Y882144D1*
X1098969Y877833D1*
X1101821Y874947D1*
X1106132Y873521D1*
X1706646Y1293448D2*
Y1306348D1*
X1705187Y1310659D1*
X1703761Y1312118D1*
X1700909Y1313544D1*
X1698024D1*
X1695172Y1312118D1*
X1693713Y1310659D1*
X1692287Y1306348D1*
Y1293448D1*
X1722431D1*
X1706646Y1303496D2*
X1722431Y1313544D1*
X1692320Y1329970D2*
X1693746Y1325692D1*
X1696598Y1324233D1*
X1699483D1*
X1702335Y1325692D1*
X1703794Y1328544D1*
X1705220Y1334281D1*
X1706646Y1338592D1*
X1709531Y1341444D1*
X1712383Y1342870D1*
X1716694D1*
X1719546Y1341444D1*
X1721005Y1340018D1*
X1722431Y1335707D1*
Y1329970D1*
X1721005Y1325692D1*
X1719546Y1324233D1*
X1716694Y1322807D1*
X1712383D1*
X1709531Y1324233D1*
X1706646Y1327118D1*
X1705220Y1331396D1*
X1703794Y1337133D1*
X1702335Y1340018D1*
X1699483Y1341444D1*
X1696598D1*
X1693746Y1340018D1*
X1692320Y1335707D1*
Y1329970D1*
X1900395Y1699605D2*
X1913295D1*
X1917606Y1701064D1*
X1919065Y1702490D1*
X1920491Y1705342D1*
Y1708227D1*
X1919065Y1711079D1*
X1917606Y1712538D1*
X1913295Y1713964D1*
X1900395D1*
Y1683820D1*
X1910443Y1699605D2*
X1920491Y1683820D1*
X1948424Y1703916D2*
X1946965Y1699605D1*
X1944113Y1696720D1*
X1939802Y1695294D1*
X1938376D1*
X1934065Y1696720D1*
X1931213Y1699605D1*
X1929754Y1703916D1*
Y1705342D1*
X1931213Y1709653D1*
X1934065Y1712505D1*
X1938376Y1713931D1*
X1939802D1*
X1944113Y1712505D1*
X1946965Y1709653D1*
X1948424Y1703916D1*
Y1696720D1*
X1946965Y1689557D1*
X1944113Y1685246D1*
X1939802Y1683820D1*
X1936950D1*
X1932639Y1685246D1*
X1931213Y1688131D1*
X1899083Y1774605D2*
X1911983D1*
X1916294Y1776064D1*
X1917753Y1777490D1*
X1919179Y1780342D1*
Y1783227D1*
X1917753Y1786079D1*
X1916294Y1787538D1*
X1911983Y1788964D1*
X1899083D1*
Y1758820D1*
X1909131Y1774605D2*
X1919179Y1758820D1*
X1928442Y1783194D2*
X1931328Y1784653D1*
X1935639Y1788931D1*
Y1758820D1*
X1944902Y1783194D2*
X1947787Y1784653D1*
X1952098Y1788931D1*
Y1758820D1*
X2469146Y1778952D2*
Y1791852D1*
X2467687Y1796163D1*
X2466261Y1797622D1*
X2463409Y1799048D1*
X2460524D1*
X2457672Y1797622D1*
X2456213Y1796163D1*
X2454787Y1791852D1*
Y1778952D1*
X2484931D1*
X2469146Y1789000D2*
X2484931Y1799048D1*
X2460557Y1808311D2*
X2459098Y1811197D1*
X2454820Y1815508D1*
X2484931D1*
X2454820Y1833393D2*
X2456246Y1829082D1*
X2460557Y1826197D1*
X2467720Y1824771D1*
X2472031D1*
X2479194Y1826197D1*
X2483505Y1829082D1*
X2484931Y1833393D1*
Y1836245D1*
X2483505Y1840556D1*
X2479194Y1843408D1*
X2472031Y1844867D1*
X2467720D1*
X2460557Y1843408D1*
X2456246Y1840556D1*
X2454820Y1836245D1*
Y1833393D1*
X2460557Y1843408D2*
X2479194Y1826197D1*
X1888008Y1624605D2*
X1900908D1*
X1905219Y1626064D1*
X1906678Y1627490D1*
X1908104Y1630342D1*
Y1633227D1*
X1906678Y1636079D1*
X1905219Y1637538D1*
X1900908Y1638964D1*
X1888008D1*
Y1608820D1*
X1898056Y1624605D2*
X1908104Y1608820D1*
X1917368Y1633194D2*
X1920253Y1634653D1*
X1924564Y1638931D1*
Y1608820D1*
X1936713Y1638931D2*
X1952464D1*
X1943875Y1627457D1*
X1948186D1*
X1951038Y1626031D1*
X1952464Y1624605D1*
X1953923Y1620294D1*
Y1617442D1*
X1952464Y1613131D1*
X1949612Y1610246D1*
X1945301Y1608820D1*
X1940990D1*
X1936713Y1610246D1*
X1935287Y1611705D1*
X1933827Y1614557D1*
X2241920Y1305854D2*
X2254820D1*
X2259131Y1307313D1*
X2260590Y1308739D1*
X2262016Y1311591D1*
Y1314476D1*
X2260590Y1317328D1*
X2259131Y1318787D1*
X2254820Y1320213D1*
X2241920D1*
Y1290069D1*
X2251968Y1305854D2*
X2262016Y1290069D1*
X2271280Y1314443D2*
X2274165Y1315902D1*
X2278476Y1320180D1*
Y1290069D1*
X2302098D2*
Y1320180D1*
X2287739Y1300117D1*
X2309261D1*
X2242633Y1187104D2*
X2255533D1*
X2259844Y1188563D1*
X2261303Y1189989D1*
X2262729Y1192841D1*
Y1195726D1*
X2261303Y1198578D1*
X2259844Y1200037D1*
X2255533Y1201463D1*
X2242633D1*
Y1171319D1*
X2252681Y1187104D2*
X2262729Y1171319D1*
X2271993Y1195693D2*
X2274878Y1197152D1*
X2279189Y1201430D1*
Y1171319D1*
X2305663Y1201430D2*
X2291337D1*
X2289911Y1188530D1*
X2291337Y1189956D1*
X2295648Y1191415D1*
X2299926D1*
X2304237Y1189956D1*
X2307122Y1187104D1*
X2308548Y1182793D1*
Y1179941D1*
X2307122Y1175630D1*
X2304237Y1172745D1*
X2299926Y1171319D1*
X2295648D1*
X2291337Y1172745D1*
X2289911Y1174204D1*
X2288452Y1177056D1*
X1888738Y1549605D2*
X1901638D1*
X1905949Y1551064D1*
X1907408Y1552490D1*
X1908834Y1555342D1*
Y1558227D1*
X1907408Y1561079D1*
X1905949Y1562538D1*
X1901638Y1563964D1*
X1888738D1*
Y1533820D1*
X1898786Y1549605D2*
X1908834Y1533820D1*
X1918097Y1558194D2*
X1920982Y1559653D1*
X1925293Y1563931D1*
Y1533820D1*
X1951768Y1559653D2*
X1950342Y1562505D1*
X1946031Y1563931D1*
X1943179D1*
X1938868Y1562505D1*
X1935983Y1558194D1*
X1934557Y1551031D1*
Y1543868D1*
X1935983Y1538131D1*
X1938868Y1535246D1*
X1943179Y1533820D1*
X1944605D1*
X1948883Y1535246D1*
X1951768Y1538131D1*
X1953194Y1542442D1*
Y1543868D1*
X1951768Y1548179D1*
X1948883Y1551031D1*
X1944605Y1552457D1*
X1943179D1*
X1938868Y1551031D1*
X1935983Y1548179D1*
X1934557Y1543868D1*
X2225395Y1642633D2*
Y1655533D1*
X2223936Y1659844D1*
X2222510Y1661303D1*
X2219658Y1662729D1*
X2216773D1*
X2213921Y1661303D1*
X2212462Y1659844D1*
X2211036Y1655533D1*
Y1642633D1*
X2241180D1*
X2225395Y1652681D2*
X2241180Y1662729D1*
X2216806Y1671993D2*
X2215347Y1674878D1*
X2211069Y1679189D1*
X2241180D1*
Y1694189D2*
X2211069Y1708548D1*
Y1688452D1*
X869146Y203969D2*
Y216868D1*
X867687Y221179D1*
X866261Y222639D1*
X863409Y224065D1*
X860524D1*
X857672Y222639D1*
X856213Y221179D1*
X854787Y216868D1*
Y203969D1*
X884931D1*
X869146Y214017D2*
X884931Y224064D1*
X860557Y233328D2*
X859098Y236213D1*
X854820Y240524D1*
X884931D1*
X854820Y256951D2*
X856246Y252673D1*
X859098Y251214D1*
X861983D1*
X864835Y252673D1*
X866294Y255525D1*
X867720Y261262D1*
X869146Y265573D1*
X872031Y268425D1*
X874883Y269850D1*
X879194D1*
X882046Y268425D1*
X883505Y266999D1*
X884931Y262688D1*
Y256951D1*
X883505Y252673D1*
X882046Y251214D1*
X879194Y249788D1*
X874883D1*
X872031Y251214D1*
X869146Y254099D1*
X867720Y258377D1*
X866294Y264114D1*
X864835Y266999D1*
X861983Y268425D1*
X859098D1*
X856246Y266999D1*
X854820Y262688D1*
Y256951D1*
X1069146Y204665D2*
Y217565D1*
X1067687Y221876D1*
X1066261Y223335D1*
X1063409Y224761D1*
X1060524D1*
X1057672Y223335D1*
X1056213Y221876D1*
X1054787Y217565D1*
Y204665D1*
X1084931D1*
X1069146Y214713D2*
X1084931Y224761D1*
X1060557Y234024D2*
X1059098Y236910D1*
X1054820Y241221D1*
X1084931Y241220D1*
X1064835Y269154D2*
X1069146Y267695D1*
X1072031Y264843D1*
X1073457Y260532D1*
Y259106D1*
X1072031Y254795D1*
X1069146Y251943D1*
X1064835Y250484D1*
X1063409D1*
X1059098Y251943D1*
X1056246Y254795D1*
X1054820Y259106D1*
Y260532D1*
X1056246Y264843D1*
X1059098Y267695D1*
X1064835Y269154D1*
X1072031D1*
X1079194Y267695D1*
X1083505Y264843D1*
X1084931Y260532D1*
Y257680D1*
X1083505Y253369D1*
X1080620Y251943D1*
X1111183Y55854D2*
X1124083D1*
X1128394Y57313D1*
X1129853Y58739D1*
X1131279Y61591D1*
Y64476D1*
X1129853Y67328D1*
X1128394Y68787D1*
X1124083Y70213D1*
X1111183D1*
Y40069D1*
X1121231Y55854D2*
X1131279Y40069D1*
X1142002Y63017D2*
Y64443D1*
X1143428Y67328D1*
X1144854Y68754D1*
X1147739Y70180D1*
X1153476D1*
X1156328Y68754D1*
X1157753Y67328D1*
X1159213Y64443D1*
Y61591D1*
X1157753Y58706D1*
X1154902Y54428D1*
X1140543Y40069D1*
X1160639D1*
X1178524Y70180D2*
X1174213Y68754D1*
X1171328Y64443D1*
X1169902Y57280D1*
Y52969D1*
X1171328Y45806D1*
X1174213Y41495D1*
X1178524Y40069D1*
X1181376D1*
X1185687Y41495D1*
X1188539Y45806D1*
X1189998Y52969D1*
Y57280D1*
X1188539Y64443D1*
X1185687Y68754D1*
X1181376Y70180D1*
X1178524D1*
X1188539Y64443D2*
X1171328Y45806D1*
X1317633Y55854D2*
X1330533D1*
X1334844Y57313D1*
X1336303Y58739D1*
X1337729Y61591D1*
Y64476D1*
X1336303Y67328D1*
X1334844Y68787D1*
X1330533Y70213D1*
X1317633D1*
Y40069D1*
X1327681Y55854D2*
X1337729Y40069D1*
X1348452Y63017D2*
Y64443D1*
X1349878Y67328D1*
X1351304Y68754D1*
X1354189Y70180D1*
X1359926D1*
X1362777Y68754D1*
X1364203Y67328D1*
X1365663Y64443D1*
Y61591D1*
X1364203Y58706D1*
X1361352Y54428D1*
X1346993Y40069D1*
X1367089D1*
X1376352Y64443D2*
X1379237Y65902D1*
X1383548Y70180D1*
Y40069D1*
X1511183Y55854D2*
X1524083D1*
X1528394Y57313D1*
X1529853Y58739D1*
X1531279Y61591D1*
Y64476D1*
X1529853Y67328D1*
X1528394Y68787D1*
X1524083Y70213D1*
X1511183D1*
Y40069D1*
X1521231Y55854D2*
X1531279Y40069D1*
X1542002Y63017D2*
Y64443D1*
X1543428Y67328D1*
X1544854Y68754D1*
X1547739Y70180D1*
X1553476D1*
X1556328Y68754D1*
X1557753Y67328D1*
X1559213Y64443D1*
Y61591D1*
X1557753Y58706D1*
X1554902Y54428D1*
X1540543Y40069D1*
X1560639D1*
X1572787Y70180D2*
X1588539D1*
X1579950Y58706D1*
X1584261D1*
X1587113Y57280D1*
X1588539Y55854D1*
X1589998Y51543D1*
Y48691D1*
X1588539Y44380D1*
X1585687Y41495D1*
X1581376Y40069D1*
X1577065D1*
X1572787Y41495D1*
X1571361Y42954D1*
X1569902Y45806D1*
X1867042Y1968945D2*
X1879942D1*
X1884253Y1970404D1*
X1885712Y1971830D1*
X1887138Y1974682D1*
Y1977567D1*
X1885712Y1980419D1*
X1884253Y1981878D1*
X1879942Y1983304D1*
X1867042D1*
Y1953160D1*
X1877090Y1968945D2*
X1887138Y1953160D1*
X1896402Y1977534D2*
X1899287Y1978993D1*
X1903598Y1983271D1*
Y1953160D1*
X1914321Y1976108D2*
Y1977534D1*
X1915747Y1980419D1*
X1917173Y1981845D1*
X1920058Y1983271D1*
X1925795D1*
X1928647Y1981845D1*
X1930073Y1980419D1*
X1931532Y1977534D1*
Y1974682D1*
X1930073Y1971797D1*
X1927221Y1967519D1*
X1912862Y1953160D1*
X1932958D1*
X563240Y829308D2*
Y842208D1*
X561781Y846519D1*
X560355Y847978D1*
X557503Y849404D1*
X554618D1*
X551766Y847978D1*
X550307Y846519D1*
X548881Y842208D1*
Y829308D1*
X579025D1*
X563240Y839356D2*
X579025Y849404D1*
X548914Y875878D2*
Y861552D1*
X561814Y860126D1*
X560388Y861552D1*
X558929Y865863D1*
Y870141D1*
X560388Y874452D1*
X563240Y877337D1*
X567551Y878763D1*
X570403D1*
X574714Y877337D1*
X577599Y874452D1*
X579025Y870141D1*
Y865863D1*
X577599Y861552D1*
X576140Y860126D1*
X573288Y858667D1*
X563240Y964986D2*
Y977886D1*
X561781Y982197D1*
X560355Y983656D1*
X557503Y985082D1*
X554618D1*
X551766Y983656D1*
X550307Y982197D1*
X548881Y977886D1*
Y964986D1*
X579025D1*
X563240Y975034D2*
X579025Y985082D1*
Y1000083D2*
X548914Y1014442D1*
Y994346D1*
X585002Y705854D2*
X597902D1*
X602213Y707313D1*
X603672Y708739D1*
X605098Y711591D1*
Y714476D1*
X603672Y717328D1*
X602213Y718787D1*
X597902Y720213D1*
X585002D1*
Y690069D1*
X595050Y705854D2*
X605098Y690069D1*
X615821Y713017D2*
Y714443D1*
X617247Y717328D1*
X618672Y718754D1*
X621558Y720180D1*
X627295D1*
X630146Y718754D1*
X631572Y717328D1*
X633031Y714443D1*
Y711591D1*
X631572Y708706D1*
X628720Y704428D1*
X614361Y690069D1*
X634457D1*
X645180Y713017D2*
Y714443D1*
X646606Y717328D1*
X648032Y718754D1*
X650917Y720180D1*
X656654D1*
X659506Y718754D1*
X660932Y717328D1*
X662391Y714443D1*
Y711591D1*
X660932Y708706D1*
X658080Y704428D1*
X643721Y690069D1*
X663817D1*
X776818Y1667182D2*
X773966Y1670067D1*
X769655Y1671493D1*
X763918D1*
X759607Y1670067D1*
X756722Y1667182D1*
Y1664330D1*
X758181Y1661445D1*
X759607Y1660019D1*
X762459Y1658593D1*
X771081Y1655708D1*
X773966Y1654282D1*
X775392Y1652823D1*
X776818Y1649971D1*
Y1645660D1*
X773966Y1642808D1*
X769655Y1641349D1*
X763918D1*
X759607Y1642808D1*
X756722Y1645660D1*
X786082Y1665723D2*
X788967Y1667182D1*
X793278Y1671460D1*
Y1641349D1*
X570368Y398433D2*
X567516Y401318D1*
X563205Y402744D1*
X557468D1*
X553157Y401318D1*
X550272Y398433D1*
Y395581D1*
X551731Y392696D1*
X553157Y391270D1*
X556009Y389844D1*
X564631Y386959D1*
X567516Y385533D1*
X568942Y384074D1*
X570368Y381222D1*
Y376911D1*
X567516Y374059D1*
X563205Y372600D1*
X557468D1*
X553157Y374059D1*
X550272Y376911D1*
X581091Y395547D2*
Y396973D1*
X582517Y399858D1*
X583943Y401284D1*
X586828Y402710D1*
X592565D1*
X595417Y401284D1*
X596843Y399858D1*
X598302Y396973D1*
Y394122D1*
X596843Y391236D1*
X593991Y386959D1*
X579632Y372600D1*
X599728D1*
X1233537Y672299D2*
Y650777D1*
X1234963Y646466D1*
X1237848Y643614D1*
X1242159Y642155D1*
X1245011D1*
X1249322Y643614D1*
X1252207Y646466D1*
X1253633Y650777D1*
Y672299D1*
X1262897Y666529D2*
X1265782Y667988D1*
X1270093Y672266D1*
Y642155D1*
X929707Y959141D2*
Y937619D1*
X931133Y933308D1*
X934018Y930456D1*
X938329Y928997D1*
X941181D1*
X945492Y930456D1*
X948377Y933308D1*
X949803Y937619D1*
Y959141D1*
X960526Y951944D2*
Y953370D1*
X961952Y956255D1*
X963378Y957681D1*
X966263Y959107D1*
X972000D1*
X974852Y957681D1*
X976278Y956255D1*
X977737Y953370D1*
Y950518D1*
X976278Y947633D1*
X973426Y943356D1*
X959067Y928997D1*
X979163D1*
X2004898Y1355646D2*
Y1334124D1*
X2006324Y1329813D1*
X2009209Y1326962D1*
X2013520Y1325502D1*
X2016372D1*
X2020683Y1326962D1*
X2023568Y1329813D1*
X2024994Y1334124D1*
Y1355646D1*
X2037143Y1355613D2*
X2052895D1*
X2044306Y1344139D1*
X2048617D1*
X2051469Y1342713D1*
X2052895Y1341287D1*
X2054354Y1336976D1*
Y1334124D1*
X2052895Y1329813D1*
X2050043Y1326928D1*
X2045732Y1325502D1*
X2041421D1*
X2037143Y1326928D1*
X2035717Y1328388D1*
X2034258Y1331239D1*
X2303792Y967851D2*
Y946329D1*
X2305217Y942018D1*
X2308103Y939166D1*
X2312414Y937707D1*
X2315265D1*
X2319577Y939166D1*
X2322462Y942018D1*
X2323888Y946329D1*
Y967851D1*
X2347510Y937707D2*
Y967818D1*
X2333151Y947755D1*
X2354673D1*
X209229Y1719426D2*
Y1697904D1*
X210655Y1693593D1*
X213540Y1690741D1*
X217851Y1689282D1*
X220703D1*
X225014Y1690741D1*
X227899Y1693593D1*
X229325Y1697904D1*
Y1719426D1*
X255799Y1719393D2*
X241474D1*
X240048Y1706493D1*
X241474Y1707919D1*
X245785Y1709378D1*
X250062D1*
X254373Y1707919D1*
X257259Y1705067D1*
X258684Y1700756D1*
Y1697904D1*
X257259Y1693593D1*
X254373Y1690708D1*
X250062Y1689282D1*
X245785D1*
X241474Y1690708D1*
X240048Y1692167D1*
X238588Y1695019D1*
X294801Y817361D2*
Y795839D1*
X296227Y791528D1*
X299112Y788676D1*
X303423Y787217D1*
X306275D1*
X310586Y788676D1*
X313471Y791528D1*
X314897Y795839D1*
Y817361D1*
X341371Y813050D2*
X339946Y815902D1*
X335634Y817328D1*
X332783D1*
X328472Y815902D1*
X325586Y811591D1*
X324161Y804428D1*
Y797265D1*
X325586Y791528D1*
X328472Y788643D1*
X332783Y787217D1*
X334209D1*
X338486Y788643D1*
X341371Y791528D1*
X342797Y795839D1*
Y797265D1*
X341371Y801576D1*
X338486Y804428D1*
X334209Y805854D1*
X332783D1*
X328472Y804428D1*
X325586Y801576D1*
X324161Y797265D1*
X506646Y584289D2*
Y597189D1*
X505187Y601500D1*
X503761Y602959D1*
X500909Y604385D1*
X498024D1*
X495172Y602959D1*
X493713Y601500D1*
X492287Y597189D1*
Y584289D1*
X522431D1*
X506646Y594337D2*
X522431Y604385D1*
X499483Y615108D2*
X498057D1*
X495172Y616534D1*
X493746Y617960D1*
X492320Y620845D1*
Y626582D1*
X493746Y629434D1*
X495172Y630859D1*
X498057Y632319D1*
X500909D1*
X503794Y630859D1*
X508072Y628008D1*
X522431Y613648D1*
Y633744D1*
Y657367D2*
X492320D1*
X512383Y643008D1*
Y664530D1*
X86728Y2302793D2*
D126*
Y2262601D1*
X109676D1*
X122028Y2302793D2*
Y2262601D1*
X164976D2*
Y2302793D1*
X149678Y2262601D1*
X134379Y2302793D1*
Y2262601D1*
X177328Y2302793D2*
Y2262601D1*
X203076Y2302793D2*
Y2262601D1*
X189679Y2302793D2*
X216474D1*
X228825Y2295099D2*
X232672Y2297045D1*
X238420Y2302748D1*
Y2262601D1*
X166360Y69647D2*
D127*
X221630D1*
X392710Y112702D2*
Y26592D1*
X349710Y69592D2*
X435820D1*
X2608633Y1773311D2*
D129*
Y1794866D1*
X2606257Y1801996D1*
X2603825Y1804428D1*
X2599072Y1806805D1*
X2591887D1*
X2587133Y1804428D1*
X2584701Y1801996D1*
X2582325Y1794866D1*
Y1773311D1*
X2632565D1*
X2582325Y1836614D2*
X2584701Y1831806D1*
X2589510Y1827052D1*
X2594263Y1824621D1*
X2601448Y1822244D1*
X2613442D1*
X2620571Y1824620D1*
X2625380Y1827052D1*
X2630133Y1831805D1*
X2632565Y1836614D1*
Y1846176D1*
X2630133Y1850929D1*
X2625380Y1855737D1*
X2620571Y1858114D1*
X2613442Y1860490D1*
X2601448D1*
X2594263Y1858114D1*
X2589510Y1855737D1*
X2584701Y1850929D1*
X2582325Y1846176D1*
Y1836614D1*
Y1875930D2*
X2632565Y1887923D1*
X2582325Y1899861D1*
X2632565Y1911800D1*
X2582325Y1923793D1*
Y1970294D2*
Y1939232D1*
X2632565D1*
Y1970294D1*
X2606257Y1939232D2*
Y1958356D1*
Y1985733D2*
Y2007233D1*
X2603825Y2014418D1*
X2601448Y2016850D1*
X2596695Y2019226D1*
X2591886D1*
X2587133Y2016850D1*
X2584701Y2014418D1*
X2582325Y2007233D1*
Y1985733D1*
X2632565D1*
X2606257Y2002480D2*
X2632565Y2019226D1*
X520480Y1634090D2*
Y1655589D1*
X518048Y1662774D1*
X515671Y1665206D1*
X510918Y1667583D1*
X506110D1*
X501356Y1665206D1*
X498925Y1662774D1*
X496548Y1655589D1*
Y1634090D1*
X546788D1*
X520480Y1650836D2*
X546788Y1667583D1*
X496548Y1714084D2*
Y1683022D1*
X546788D1*
Y1714084D1*
X520480Y1683022D2*
Y1702145D1*
X503733Y1763016D2*
X498925Y1758263D1*
X496548Y1751078D1*
Y1741516D1*
X498925Y1734331D1*
X503733Y1729523D1*
X508486D1*
X513295Y1731955D1*
X515671Y1734331D1*
X518048Y1739084D1*
X522856Y1753455D1*
X525233Y1758263D1*
X527665Y1760640D1*
X532418Y1763016D1*
X539603D1*
X544356Y1758263D1*
X546788Y1751078D1*
Y1741516D1*
X544356Y1734331D1*
X539603Y1729523D1*
X496548Y1809517D2*
Y1778455D1*
X546788D1*
Y1809517D1*
X520480Y1778455D2*
Y1797579D1*
X496548Y1841703D2*
X546788D1*
X496548Y1824956D2*
Y1858449D1*
X782325Y110811D2*
X832565D1*
Y132366D1*
X830133Y139551D1*
X827756Y141928D1*
X823003Y144305D1*
X815818D1*
X811010Y141928D1*
X808633Y139552D1*
X806257Y132366D1*
X803825Y139552D1*
X801448Y141928D1*
X796695Y144305D1*
X791887D1*
X787133Y141928D1*
X784701Y139552D1*
X782325Y132366D1*
Y110811D1*
X806257D2*
Y132366D1*
X782325Y176491D2*
X832565D1*
X782325Y159744D2*
Y193237D1*
Y242170D2*
X832565D1*
X782325Y208676D1*
X832565D1*
X280478Y2302793D2*
D126*
Y2262601D1*
X303426D1*
X315777Y2302793D2*
Y2262601D1*
X358726D2*
Y2302793D1*
X343427Y2262601D1*
X328128Y2302793D1*
Y2262601D1*
X371077Y2302793D2*
Y2262601D1*
X396826Y2302793D2*
Y2262601D1*
X383428Y2302793D2*
X410223D1*
X424520Y2293198D2*
Y2295099D1*
X426421Y2298946D1*
X428322Y2300847D1*
X432169Y2302748D1*
X439818D1*
X443621Y2300847D1*
X445522Y2298946D1*
X447468Y2295099D1*
Y2291297D1*
X445522Y2287450D1*
X441720Y2281746D1*
X422574Y2262601D1*
X449369D1*
M02*
