M48
INCH
T01C0.01
T02C0.0236
T03C0.0256
T04C0.0299
T05C0.0354
T06C0.0402
T07C0.0433
T08C0.0512
T09C0.0618
T10C0.0669
T11C0.128
T12C0.1417
%
T01
X+024774Y+012050
X+025012Y+012250
X+025012Y+011844
X+024781Y+011625
X+023750Y+010250
X+023250Y+010250
X+022125Y+011437
X+021563Y+011687
X+020625Y+011937
X+020188Y+011937
X+020188Y+011500
X+019687Y+011937
X+020188Y+012437
X+018750Y+012687
X+019000Y+013438
X+019500Y+014438
X+018938Y+015563
X+018500Y+015438
X+017938Y+015438
X+017250Y+015375
X+017813Y+014625
X+017813Y+014313
X+017313Y+014000
X+017063Y+013750
X+018062Y+012188
X+016875Y+011062
X+016125Y+011312
X+015438Y+011750
X+014938Y+011187
X+013562Y+009438
X+013000Y+008250
X+012000Y+008375
X+012000Y+008063
X+012000Y+007750
X+012000Y+007438
X+011375Y+007250
X+011375Y+006875
X+010875Y+006875
X+012000Y+006687
X+012312Y+006687
X+012563Y+006000
X+012563Y+005625
X+012563Y+005250
X+013375Y+004750
X+014000Y+005563
X+014250Y+007000
X+016688Y+007875
X+016937Y+006875
X+018250Y+008250
X+017813Y+010125
X+017812Y+010562
X+018375Y+010375
X+020750Y+010625
X+021188Y+010125
X+021438Y+010375
X+020750Y+009687
X+021250Y+006437
X+024062Y+008625
X+025500Y+008000
X+026000Y+008000
X+026750Y+005500
X+026750Y+002500
X+025500Y+000500
X+023000Y+000500
X+020000Y+000500
X+017000Y+000500
X+016187Y+001625
X+015250Y+001250
X+014188Y+001625
X+013250Y+001250
X+014000Y+000500
X+012188Y+001625
X+011250Y+001250
X+010750Y+000500
X+007625Y+000500
X+005000Y+000500
X+002000Y+000500
X+000500Y+002000
X+000500Y+004500
X+000437Y+007500
X+000437Y+010000
X+000437Y+014750
X+000437Y+016500
X+000500Y+019500
X+002500Y+019437
X+002178Y+021921
X+000750Y+022750
X+004750Y+022750
X+004750Y+021000
X+006000Y+020250
X+005750Y+019000
X+007312Y+020187
X+008375Y+020375
X+008750Y+020000
X+009812Y+020000
X+011000Y+020000
X+012250Y+020000
X+013500Y+020000
X+014750Y+020000
X+016000Y+020000
X+017000Y+020000
X+018062Y+019438
X+018562Y+018250
X+018625Y+017750
X+018938Y+017063
X+017500Y+017250
X+017188Y+017812
X+020250Y+019250
X+020563Y+020375
X+021875Y+018875
X+021375Y+018125
X+021875Y+016125
X+022250Y+014375
X+022250Y+013375
X+022500Y+013000
X+023750Y+013500
X+020875Y+014375
X+026750Y+014500
X+026750Y+011500
X+026750Y+017500
X+026750Y+020500
X+025125Y+020375
X+026750Y+022500
X+021750Y+022750
X+009688Y+017438
X+009688Y+017062
X+008563Y+015875
X+008625Y+018562
X+010625Y+013313
X+010625Y+012375
X+009239Y+010489
X+008739Y+009926
X+008000Y+009438
X+008000Y+009125
X+008000Y+008812
X+008000Y+008500
X+008938Y+009000
X+009063Y+007625
X+009500Y+007000
X+009063Y+006375
X+008875Y+005875
X+008250Y+005875
X+007188Y+003812
X+013000Y+002750
X+015500Y+003000
X+015875Y+004750
X+003375Y+014125
T02
X+026109Y+013641G85X+026346Y+013641
X+024365Y+013641G85X+024798Y+013641
X+024365Y+010239G85X+024798Y+010239
X+026109Y+010239G85X+026346Y+010239
T03
X+024790Y+010802
X+024790Y+013078
T04
X+002325Y+014112G85X+002325Y+015013
X+003957Y+016492G85X+003056Y+016492
T05
X+007625Y+011531
X+007625Y+013500
X+014438Y+010125
X+015438Y+010125
X+015438Y+009125
X+016438Y+009125
X+016438Y+010125
X+014438Y+009125
X+014120Y+003560
X+013120Y+003560
X+012120Y+003560
X+011120Y+003560
X+010120Y+003560
X+009120Y+003560
X+008120Y+003560
X+015120Y+003560
X+016120Y+003560
X+017120Y+003560
X+020500Y+004000
X+021500Y+004000
X+021500Y+005000
X+020500Y+005000
X+020500Y+003000
X+021500Y+003000
X+021500Y+002000
X+022500Y+002000
X+022500Y+003000
X+022500Y+004000
X+022500Y+005000
X+023500Y+005000
X+024500Y+005000
X+024500Y+004000
X+024500Y+003000
X+023500Y+003000
X+023500Y+004000
X+023500Y+002000
X+023970Y+017624
X+023970Y+018428
X+023970Y+019231
X+023970Y+020034
X+023269Y+019632
X+023269Y+018829
X+023269Y+018026
X+023269Y+020436
T06
X+004687Y+014063G85X+004687Y+015063
T07
X+005000Y+008250
X+005000Y+010250
T08
X+003864Y+003620
X+001896Y+003620
T09
X+023620Y+022229
X+023620Y+015831
T10
X+002250Y+006125
X+002250Y+012292
T11
X+024970Y+021530
X+024970Y+016530
T12
X+007875Y+021750
X+019450Y+021750
T00
M30
