G04 DipTrace 3.3.1.3*
G04 Bottom.gbr*
%MOIN*%
G04 #@! TF.FileFunction,Copper,L2,Bot*
G04 #@! TF.Part,Single*
%AMOUTLINE0*
4,1,4,
0.055118,0.055118,
0.055118,-0.055118,
-0.055118,-0.055118,
-0.055118,0.055118,
0.055118,0.055118,
0*%
%AMOUTLINE3*
4,1,4,
0.049213,-0.049213,
-0.049213,-0.049213,
-0.049213,0.049213,
0.049213,0.049213,
0.049213,-0.049213,
0*%
%AMOUTLINE12*
4,1,16,
-0.011811,0.019685,
-0.020352,0.017736,
-0.027201,0.012273,
-0.031003,0.00438,
-0.031003,-0.00438,
-0.027201,-0.012273,
-0.020352,-0.017736,
-0.011811,-0.019685,
0.011811,-0.019685,
0.020352,-0.017736,
0.027201,-0.012273,
0.031003,-0.00438,
0.031003,0.00438,
0.027201,0.012273,
0.020352,0.017736,
0.011811,0.019685,
-0.011811,0.019685,
0*%
%AMOUTLINE15*
4,1,16,
-0.021654,0.019685,
-0.030195,0.017736,
-0.037044,0.012273,
-0.040845,0.00438,
-0.040845,-0.00438,
-0.037044,-0.012273,
-0.030195,-0.017736,
-0.021654,-0.019685,
0.021654,-0.019685,
0.030195,-0.017736,
0.037044,-0.012273,
0.040845,-0.00438,
0.040845,0.00438,
0.037044,0.012273,
0.030195,0.017736,
0.021654,0.019685,
-0.021654,0.019685,
0*%
G04 #@! TA.AperFunction,CopperBalancing*
%ADD10C,0.01*%
G04 #@! TA.AperFunction,Conductor*
%ADD11C,0.006*%
G04 #@! TA.AperFunction,CopperBalancing*
%ADD14C,0.015*%
G04 #@! TA.AperFunction,Conductor*
%ADD20C,0.03*%
G04 #@! TA.AperFunction,ComponentPad*
%ADD25R,0.059055X0.059055*%
%ADD26C,0.059055*%
%ADD30R,0.074803X0.074803*%
%ADD31C,0.074803*%
%ADD34C,0.110236*%
%ADD38O,0.07874X0.19685*%
%ADD39O,0.07874X0.177165*%
%ADD40O,0.177165X0.07874*%
%ADD41C,0.098425*%
%ADD43C,0.11811*%
G04 #@! TA.AperFunction,ViaPad*
%ADD57C,0.022*%
G04 #@! TA.AperFunction,ComponentPad*
%ADD130OUTLINE0*%
%ADD133OUTLINE3*%
%ADD142OUTLINE12*%
%ADD145OUTLINE15*%
%FSLAX26Y26*%
G04*
G70*
G90*
G75*
G01*
G04 Bottom*
%LPD*%
X912000Y356000D2*
D10*
Y380749D1*
X1200000Y668749D1*
X968751Y1706249D2*
X981251Y1718749D1*
X1618749D1*
X1725000Y1825000D1*
X1856249D1*
X968751Y1743751D2*
Y1737500D1*
X1606251D1*
X1812501Y1943751D1*
X1806249D1*
X1706251Y1375000D2*
Y1187501D1*
X1593749Y1075000D1*
Y956249D1*
X1543751Y906251D1*
Y912500D1*
X856251Y1587500D2*
X900000Y1543751D1*
X1581249D1*
X1706251Y1418749D1*
Y1375000D1*
X1781251Y1012500D2*
X1643751D1*
X1837500Y1037500D2*
X1812500Y1012500D1*
Y937500D1*
X1787500Y912500D1*
X1643751D1*
X2050000Y400000D2*
X1912500Y262500D1*
X1487500D1*
X1462500Y287500D1*
Y575000D1*
X1200000Y837500D1*
X1612500Y1131249D2*
X1543751Y1062500D1*
Y1012500D1*
X1493751Y1118749D2*
X1493749D1*
Y837501D1*
X1618751Y712500D1*
X1843749D1*
X1975000Y581249D1*
X2218751D1*
X2250000Y550000D1*
Y500000D1*
Y300000D2*
X2300000Y350000D1*
Y543749D1*
X2243749Y600000D1*
X1987501D1*
X1868751Y718751D1*
Y1037500D1*
X1750000Y1156251D1*
Y1381251D1*
X1731251Y1400000D1*
X1693749Y687500D2*
X1837500D1*
X1962500Y562500D1*
X2181251D1*
X2200000Y543751D1*
Y450000D1*
X2250000Y400000D1*
Y200000D2*
X2300000Y250000D1*
X2381251D1*
X2400000Y268749D1*
Y543749D1*
X2325000Y618749D1*
X2000000D1*
X1893749Y725000D1*
Y1043751D1*
X1775000Y1162500D1*
Y1393749D1*
X1756249Y1412500D1*
Y1675001D1*
X1718751Y1712500D1*
Y1781249D1*
X1875000Y1268749D2*
Y1456249D1*
X1893751Y1475000D1*
Y1556251D1*
X2075000Y1062500D2*
X2037500Y1100000D1*
X1931251D1*
X1900000Y1131251D1*
Y1343751D1*
X1112000Y356000D2*
Y549500D1*
X1231249Y668749D1*
X1781251Y1431251D2*
X1831249Y1381252D1*
Y1137500D1*
X1906249Y1062500D1*
X2006249D1*
X2056249Y1012500D1*
X2118751D1*
X1781251Y1462500D2*
X1850000Y1393751D1*
Y1150000D1*
X1918751Y1081249D1*
X2018751D1*
X2062500Y1037500D1*
X2143751D1*
X718751Y381249D2*
X781252Y443751D1*
X937501D1*
X1175000Y681249D1*
Y850000D1*
X1475000Y1150000D1*
X1518751D1*
X1543751Y1175000D1*
X2478126Y1162500D2*
D11*
Y1204291D1*
X2477424Y1204993D1*
X2501201Y1225000D2*
Y1184375D1*
X2150000Y500000D2*
D20*
Y400000D1*
Y300000D1*
Y200000D1*
Y300000D2*
D14*
X2050000D1*
X1512000Y356000D2*
Y688000D1*
X1393749Y806251D1*
Y962499D1*
X1443751Y1012500D1*
X1325000Y125000D2*
D10*
X1262500Y187500D1*
Y387500D1*
X1312500Y437500D1*
Y662500D1*
X1200000Y775000D1*
X1125000Y125000D2*
Y262500D1*
X1162500Y300000D1*
Y387500D1*
X1187500Y412500D1*
X1250000D1*
X1287500Y450000D1*
Y656251D1*
X1200000Y743751D1*
X1525000Y125000D2*
X1400000D1*
X1362500Y162500D1*
Y643751D1*
X1200000Y806251D1*
D57*
X2477424Y1204993D3*
X2501201Y1184375D3*
X2478126Y1162500D3*
X2501201Y1225000D3*
X2056251Y2037500D3*
X2137500Y1812500D3*
X2025000Y1925000D3*
X1837500Y1037500D3*
X2075000Y1062500D3*
X1893751Y1706251D3*
X1900000Y1343751D3*
X800000Y850000D3*
Y881249D3*
Y912500D3*
Y943751D3*
X887500Y587500D3*
X825000D3*
X906251Y637500D3*
X950000Y700000D3*
X906251Y762500D3*
X1543751Y1175000D3*
X893751Y900000D3*
X1256251Y600000D3*
Y562500D3*
Y525000D3*
X718751Y381249D3*
X1137500Y725000D3*
X1356249Y943751D3*
X1337500Y475000D3*
X1087500Y687500D3*
X1137500D3*
X575000Y1900000D3*
X731249Y2018749D3*
X837500Y2037500D3*
X2250000Y1300000D3*
X2212500Y1143749D3*
X2225000Y1437500D3*
X2087500D3*
X2062500Y1193749D3*
X2018751Y1243749D3*
Y1193749D3*
Y1150000D3*
X1968749Y1193749D3*
X2225000Y1337500D3*
X1418751Y162500D3*
X1618749D3*
X1218751D3*
X2156251Y1168749D3*
X1200000Y806251D3*
X2187500Y1887500D3*
X217765Y2192102D3*
X250000Y1943749D3*
X1750000Y1725000D3*
X875000Y2000000D3*
X2550000Y800000D3*
X2600000D3*
X2075000Y968749D3*
X2125000Y643749D3*
X2406249Y862500D3*
X1875000Y1268749D3*
X1893751Y1556251D3*
X1706251Y1375000D3*
X1612500Y1131249D3*
X923867Y1048867D3*
X968751Y1743751D3*
Y1706249D3*
X1806249Y1943751D3*
X1856249Y1825000D3*
X856251Y1587500D3*
X873867Y992618D3*
X2187500Y1612500D3*
X1781251Y1012500D3*
X1200000Y775000D3*
Y743751D3*
X1125000Y125000D3*
X1325000D3*
X1525000D3*
X1200000Y668749D3*
X1231249D3*
X2118751Y1012500D3*
X2143751Y1037500D3*
X1781251Y1462500D3*
Y1431251D3*
X1062500Y1331251D3*
Y1237500D3*
X1700000Y2000000D3*
X1600000D3*
X1200000Y837500D3*
X1693749Y687500D3*
X1493751Y1118749D3*
X1781249Y1056249D3*
X1731251Y1400000D3*
X1718751Y1781249D3*
X1668751Y787500D3*
X1687500Y1106249D3*
X1806249Y1218751D3*
X1793751Y1543751D3*
X1850000D3*
X1950000Y1443751D3*
X1862500Y1775000D3*
X862500Y1856249D3*
X981249Y2000000D3*
X1725000Y1537500D3*
X75000Y2275000D3*
X50000Y1950000D3*
X43749Y1650000D3*
Y1475000D3*
Y1000000D3*
Y750000D3*
X50000Y450000D3*
Y200000D3*
X475000Y2275000D3*
Y2100000D3*
X600000Y2025000D3*
X337500Y1412500D3*
X200000Y50000D3*
X500000D3*
X762500D3*
X1075000D3*
X1400000D3*
X1700000D3*
X2000000D3*
X2300000D3*
X2550000D3*
X2675000Y250000D3*
Y550000D3*
X1100000Y2000000D3*
X2675000Y1150000D3*
Y1450000D3*
Y1750000D3*
Y2050000D3*
Y2250000D3*
X1225000Y2000000D3*
X1350000D3*
X1475000D3*
X1825000Y825000D3*
X2375000Y1350000D3*
Y1025000D3*
X2325000D3*
X1300000Y275000D3*
X1550000Y300000D3*
X2175000Y2275000D3*
X1300000Y825000D3*
X1587500Y475000D3*
X2512500Y2037500D3*
X1425000Y700000D3*
X1400000Y556251D3*
X53973Y2289049D2*
D10*
X494004D1*
X2137254D2*
X2326816D1*
X2397098D2*
X2671035D1*
X43172Y2279180D2*
X494004D1*
X2137254D2*
X2312226D1*
X2411687D2*
X2681836D1*
X36531Y2269311D2*
X494004D1*
X2137254D2*
X2302754D1*
X2421160D2*
X2688476D1*
X32430Y2259442D2*
X494004D1*
X2137254D2*
X2296094D1*
X2427820D2*
X2692558D1*
X31023Y2249574D2*
X494004D1*
X2137254D2*
X2291445D1*
X2432469D2*
X2693984D1*
X30242Y2239705D2*
X494004D1*
X2137254D2*
X2288437D1*
X2435496D2*
X2694765D1*
X30242Y2229836D2*
X494004D1*
X2137254D2*
X2286836D1*
X2437098D2*
X2462383D1*
X2531629D2*
X2694765D1*
X30242Y2219967D2*
X494004D1*
X2137254D2*
X2286562D1*
X2437351D2*
X2445508D1*
X2548504D2*
X2694765D1*
X30242Y2210098D2*
X494004D1*
X2137254D2*
X2287617D1*
X2559441D2*
X2694765D1*
X30242Y2200230D2*
X494004D1*
X2137254D2*
X2290039D1*
X2567312D2*
X2694765D1*
X30242Y2190361D2*
X494004D1*
X2137254D2*
X2293984D1*
X2573094D2*
X2694765D1*
X30242Y2180492D2*
X494004D1*
X2137254D2*
X2299746D1*
X2577234D2*
X2694765D1*
X30242Y2170623D2*
X494004D1*
X2137254D2*
X2307930D1*
X2580008D2*
X2694765D1*
X30242Y2160755D2*
X494004D1*
X2137254D2*
X2319922D1*
X2403992D2*
X2412480D1*
X2581512D2*
X2694765D1*
X30242Y2150886D2*
X494004D1*
X2137254D2*
X2341992D1*
X2381941D2*
X2412148D1*
X2581844D2*
X2694765D1*
X30242Y2141017D2*
X494004D1*
X2137254D2*
X2412988D1*
X2581004D2*
X2694765D1*
X30242Y2131148D2*
X494004D1*
X2137254D2*
X2415019D1*
X2578973D2*
X2694765D1*
X30242Y2121280D2*
X494004D1*
X2137254D2*
X2418359D1*
X2575633D2*
X2694765D1*
X30242Y2111411D2*
X494004D1*
X2137254D2*
X2423164D1*
X2570828D2*
X2694765D1*
X30242Y2101542D2*
X494004D1*
X2137254D2*
X2429765D1*
X2564226D2*
X2694765D1*
X30242Y2091673D2*
X494004D1*
X2137254D2*
X2438789D1*
X2555223D2*
X2694765D1*
X30242Y2081804D2*
X494004D1*
X2137254D2*
X2302363D1*
X2351492D2*
X2451660D1*
X2542332D2*
X2694765D1*
X30242Y2071936D2*
X494004D1*
X2137254D2*
X2291094D1*
X2362742D2*
X2474492D1*
X2519519D2*
X2694765D1*
X30242Y2062067D2*
X494004D1*
X2137254D2*
X2284980D1*
X2368855D2*
X2694765D1*
X30242Y2052198D2*
X497363D1*
X2133894D2*
X2281836D1*
X2372000D2*
X2694765D1*
X30242Y2042329D2*
X2281015D1*
X2420418D2*
X2694765D1*
X30242Y2032461D2*
X2282383D1*
X2432254D2*
X2694765D1*
X30242Y2022592D2*
X2286191D1*
X2438621D2*
X2694765D1*
X30242Y2012723D2*
X2293242D1*
X2441941D2*
X2694765D1*
X30242Y2002854D2*
X2304726D1*
X2442918D2*
X2694765D1*
X30242Y1992986D2*
X2292246D1*
X2441707D2*
X2694765D1*
X30242Y1983117D2*
X2285625D1*
X2438094D2*
X2694765D1*
X30242Y1973248D2*
X2282129D1*
X2431316D2*
X2694765D1*
X30242Y1963379D2*
X1787598D1*
X1824910D2*
X2280996D1*
X2418426D2*
X2694765D1*
X30242Y1953511D2*
X1780723D1*
X1831785D2*
X2282051D1*
X2431043D2*
X2694765D1*
X30242Y1943642D2*
X1778848D1*
X1833894D2*
X2285488D1*
X2437937D2*
X2694765D1*
X30242Y1933773D2*
X1772676D1*
X1831687D2*
X2292012D1*
X2441629D2*
X2694765D1*
X30242Y1923904D2*
X1762812D1*
X1824656D2*
X2304199D1*
X2442918D2*
X2694765D1*
X30242Y1914035D2*
X1752930D1*
X1812644D2*
X2293515D1*
X2442000D2*
X2694765D1*
X30242Y1904167D2*
X1743066D1*
X1802762D2*
X2286328D1*
X2438758D2*
X2694765D1*
X30242Y1894298D2*
X1733203D1*
X1792898D2*
X2282461D1*
X2432508D2*
X2694765D1*
X30242Y1884429D2*
X1723320D1*
X1783035D2*
X2281015D1*
X2420906D2*
X2694765D1*
X30242Y1874560D2*
X1713457D1*
X1773152D2*
X2281777D1*
X2429734D2*
X2694765D1*
X30242Y1864692D2*
X1703594D1*
X1763289D2*
X2284863D1*
X2437215D2*
X2694765D1*
X30242Y1854823D2*
X1693730D1*
X1753426D2*
X2290859D1*
X2441277D2*
X2694765D1*
X30242Y1844954D2*
X1683848D1*
X1874539D2*
X2301894D1*
X2442879D2*
X2694765D1*
X30242Y1835085D2*
X1673984D1*
X1881648D2*
X2294883D1*
X2442273D2*
X2694765D1*
X30242Y1825217D2*
X1664121D1*
X1883640D2*
X2287090D1*
X2439363D2*
X2694765D1*
X30242Y1815348D2*
X1654258D1*
X1881824D2*
X2282832D1*
X2433601D2*
X2694765D1*
X30242Y1805479D2*
X1644375D1*
X1875027D2*
X2281094D1*
X2423074D2*
X2694765D1*
X30242Y1795610D2*
X1634512D1*
X1741902D2*
X2281543D1*
X2428308D2*
X2694765D1*
X30242Y1785741D2*
X1624648D1*
X1745769D2*
X2284277D1*
X2436414D2*
X2694765D1*
X30242Y1775873D2*
X1614765D1*
X1745594D2*
X2289805D1*
X2440867D2*
X2694765D1*
X30242Y1766004D2*
X953555D1*
X983953D2*
X1604902D1*
X1741297D2*
X2299863D1*
X2442781D2*
X2694765D1*
X30242Y1756135D2*
X944433D1*
X1685984D2*
X1697344D1*
X1740144D2*
X2351523D1*
X2442488D2*
X2694765D1*
X30242Y1746266D2*
X941465D1*
X1676121D2*
X1697344D1*
X1740144D2*
X2354082D1*
X2439910D2*
X2694765D1*
X30242Y1736398D2*
X942402D1*
X1666238D2*
X1697344D1*
X1740144D2*
X2359394D1*
X2434598D2*
X2487090D1*
X2506902D2*
X2694765D1*
X30242Y1726529D2*
X947734D1*
X1656375D2*
X1697344D1*
X1740144D2*
X1875840D1*
X1911648D2*
X2369023D1*
X2424988D2*
X2455644D1*
X2538348D2*
X2694765D1*
X30242Y1716660D2*
X943496D1*
X1646512D2*
X1697344D1*
X1744441D2*
X1868496D1*
X1919012D2*
X2441387D1*
X2552605D2*
X2694765D1*
X30242Y1706791D2*
X941348D1*
X1636648D2*
X1698164D1*
X1754305D2*
X1866348D1*
X1921140D2*
X2431640D1*
X2562351D2*
X2694765D1*
X30242Y1696923D2*
X273613D1*
X427664D2*
X943047D1*
X994441D2*
X1704473D1*
X1764187D2*
X1868047D1*
X1919441D2*
X2424551D1*
X2569441D2*
X2694765D1*
X30242Y1687054D2*
X260879D1*
X440398D2*
X949629D1*
X987879D2*
X1714355D1*
X1773699D2*
X1874629D1*
X1912879D2*
X2419355D1*
X2574656D2*
X2694765D1*
X30242Y1677185D2*
X253359D1*
X447918D2*
X1724219D1*
X1777527D2*
X2415683D1*
X2578308D2*
X2694765D1*
X30242Y1667316D2*
X248750D1*
X452527D2*
X1734082D1*
X1777644D2*
X2413359D1*
X2580633D2*
X2694765D1*
X30242Y1657448D2*
X246289D1*
X454988D2*
X1734844D1*
X1777644D2*
X2356640D1*
X2367293D2*
X2412246D1*
X2581746D2*
X2694765D1*
X30242Y1647579D2*
X245683D1*
X455594D2*
X1734844D1*
X1777644D2*
X2323691D1*
X2400223D2*
X2412305D1*
X2581687D2*
X2694765D1*
X30242Y1637710D2*
X246875D1*
X454402D2*
X1734844D1*
X1777644D2*
X2310332D1*
X2580457D2*
X2694765D1*
X30242Y1627841D2*
X249980D1*
X451297D2*
X1734844D1*
X1777644D2*
X2301426D1*
X2578015D2*
X2694765D1*
X30242Y1617972D2*
X255410D1*
X445867D2*
X1734844D1*
X1777644D2*
X2295176D1*
X2574207D2*
X2694765D1*
X30242Y1608104D2*
X264180D1*
X437098D2*
X838750D1*
X873758D2*
X1734844D1*
X1777644D2*
X2290820D1*
X2568836D2*
X2694765D1*
X30242Y1598235D2*
X280273D1*
X421004D2*
X831133D1*
X881375D2*
X1734844D1*
X1777644D2*
X2288047D1*
X2561531D2*
X2694765D1*
X30242Y1588366D2*
X401348D1*
X536160D2*
X828867D1*
X885242D2*
X1734844D1*
X1777644D2*
X2286699D1*
X2437234D2*
X2442561D1*
X2551453D2*
X2694765D1*
X30242Y1578497D2*
X387793D1*
X549715D2*
X830430D1*
X895105D2*
X1734844D1*
X1777644D2*
X1878535D1*
X1908973D2*
X2286640D1*
X2437273D2*
X2457480D1*
X2536512D2*
X2694765D1*
X30242Y1568629D2*
X385254D1*
X552254D2*
X836797D1*
X904969D2*
X1734844D1*
X1777644D2*
X1869433D1*
X1918074D2*
X2287930D1*
X2435984D2*
X2694765D1*
X30242Y1558760D2*
X218906D1*
X246140D2*
X385254D1*
X552254D2*
X855137D1*
X1596062D2*
X1734844D1*
X1777644D2*
X1866465D1*
X1921023D2*
X2290605D1*
X2433328D2*
X2694765D1*
X30242Y1548891D2*
X198164D1*
X266902D2*
X385254D1*
X552254D2*
X865000D1*
X1605965D2*
X1734844D1*
X1777644D2*
X1867402D1*
X1920105D2*
X2294844D1*
X2429090D2*
X2694765D1*
X30242Y1539022D2*
X188242D1*
X276805D2*
X385254D1*
X552254D2*
X874883D1*
X1615828D2*
X1734844D1*
X1777644D2*
X1872344D1*
X1915144D2*
X2300976D1*
X2422957D2*
X2694765D1*
X30242Y1529154D2*
X182148D1*
X282918D2*
X385254D1*
X552254D2*
X884746D1*
X1625691D2*
X1734844D1*
X1777644D2*
X1872344D1*
X1915144D2*
X2309668D1*
X2414265D2*
X2694765D1*
X30242Y1519285D2*
X178535D1*
X286531D2*
X385254D1*
X552254D2*
X1575859D1*
X1635574D2*
X1734844D1*
X1777644D2*
X1872344D1*
X1915144D2*
X2322637D1*
X2401277D2*
X2694765D1*
X30242Y1509416D2*
X176894D1*
X288152D2*
X385254D1*
X552254D2*
X1585742D1*
X1645437D2*
X1734844D1*
X1777644D2*
X1872344D1*
X1915144D2*
X2350390D1*
X2373523D2*
X2694765D1*
X30242Y1499547D2*
X176758D1*
X288308D2*
X385254D1*
X552254D2*
X1595605D1*
X1655301D2*
X1734844D1*
X1777644D2*
X1872344D1*
X1915144D2*
X2694765D1*
X30242Y1489678D2*
X176758D1*
X288308D2*
X385254D1*
X552254D2*
X1605469D1*
X1665164D2*
X1734844D1*
X1777644D2*
X1872344D1*
X1915144D2*
X2694765D1*
X30242Y1479810D2*
X176758D1*
X288308D2*
X385254D1*
X552254D2*
X1615332D1*
X1675047D2*
X1734844D1*
X1802176D2*
X1868711D1*
X1915144D2*
X2694765D1*
X30242Y1469941D2*
X176758D1*
X288308D2*
X385254D1*
X552254D2*
X1625215D1*
X1684910D2*
X1734844D1*
X1807586D2*
X1858887D1*
X1914519D2*
X2694765D1*
X30242Y1460072D2*
X176758D1*
X288308D2*
X385254D1*
X552254D2*
X1635078D1*
X1694773D2*
X1734844D1*
X1813523D2*
X1853965D1*
X1908680D2*
X2694765D1*
X30242Y1450203D2*
X176758D1*
X288308D2*
X385254D1*
X552254D2*
X1644941D1*
X1704656D2*
X1734844D1*
X1823406D2*
X1853594D1*
X1898797D2*
X2694765D1*
X30242Y1440335D2*
X176758D1*
X288308D2*
X385254D1*
X552254D2*
X1654824D1*
X1714519D2*
X1734844D1*
X1833269D2*
X1853594D1*
X1896394D2*
X2694765D1*
X30242Y1430466D2*
X176758D1*
X288308D2*
X385254D1*
X552254D2*
X1664687D1*
X1723953D2*
X1734844D1*
X1843133D2*
X1853594D1*
X1896394D2*
X2694765D1*
X30242Y1420597D2*
X176758D1*
X288308D2*
X385254D1*
X552254D2*
X1674551D1*
X1896394D2*
X2694765D1*
X30242Y1410728D2*
X176758D1*
X288308D2*
X385254D1*
X552254D2*
X1684414D1*
X1896394D2*
X2694765D1*
X30242Y1400860D2*
X177109D1*
X287957D2*
X385254D1*
X552254D2*
X1684844D1*
X1896394D2*
X2694765D1*
X30242Y1390991D2*
X179160D1*
X285887D2*
X385254D1*
X552254D2*
X743105D1*
X781883D2*
X1684238D1*
X1896394D2*
X2413789D1*
X2502566D2*
X2588203D1*
X2657293D2*
X2694765D1*
X30242Y1381122D2*
X183281D1*
X281785D2*
X385254D1*
X552254D2*
X729101D1*
X795906D2*
X1679570D1*
X1796394D2*
X1801523D1*
X1896394D2*
X2405351D1*
X2511023D2*
X2579746D1*
X2665750D2*
X2694765D1*
X30242Y1371253D2*
X190058D1*
X274988D2*
X385254D1*
X552254D2*
X721914D1*
X803074D2*
X1679121D1*
X1796394D2*
X1809844D1*
X1896394D2*
X2401191D1*
X2515164D2*
X2575605D1*
X2669890D2*
X2694765D1*
X30242Y1361385D2*
X70058D1*
X192449D2*
X201269D1*
X263777D2*
X385254D1*
X552254D2*
X718047D1*
X806961D2*
X1682637D1*
X1796394D2*
X1809844D1*
X1920652D2*
X2400937D1*
X2515418D2*
X2575351D1*
X2670144D2*
X2694765D1*
X30242Y1351516D2*
X66562D1*
X195945D2*
X385254D1*
X552254D2*
X716601D1*
X808406D2*
X1684844D1*
X1796394D2*
X1809844D1*
X1926238D2*
X2403183D1*
X2513172D2*
X2577598D1*
X2667898D2*
X2694765D1*
X30242Y1341647D2*
X66504D1*
X196004D2*
X385351D1*
X552137D2*
X717363D1*
X807644D2*
X1684844D1*
X1796394D2*
X1809844D1*
X1927312D2*
X2408555D1*
X2507801D2*
X2582969D1*
X2662527D2*
X2694765D1*
X30242Y1331778D2*
X66504D1*
X196004D2*
X389238D1*
X548269D2*
X720430D1*
X804558D2*
X1684844D1*
X1796394D2*
X1809844D1*
X1924519D2*
X2421992D1*
X2494851D2*
X2596387D1*
X2649109D2*
X2694765D1*
X30242Y1321909D2*
X66504D1*
X196004D2*
X726445D1*
X798562D2*
X1684844D1*
X1796394D2*
X1809844D1*
X1921394D2*
X2453652D1*
X2504441D2*
X2694765D1*
X30242Y1312041D2*
X66504D1*
X196004D2*
X737461D1*
X787527D2*
X1684844D1*
X1796394D2*
X1809844D1*
X1921394D2*
X2450176D1*
X2507918D2*
X2694765D1*
X30242Y1302172D2*
X66504D1*
X196004D2*
X1684844D1*
X1796394D2*
X1809844D1*
X1921394D2*
X2450410D1*
X2507683D2*
X2694765D1*
X30242Y1292303D2*
X66504D1*
X257547D2*
X1684844D1*
X1796394D2*
X1809844D1*
X1921394D2*
X2454473D1*
X2503621D2*
X2694765D1*
X30242Y1282434D2*
X66504D1*
X272293D2*
X1684844D1*
X1796394D2*
X1809844D1*
X1921394D2*
X2465703D1*
X2492410D2*
X2694765D1*
X30242Y1272566D2*
X66504D1*
X281629D2*
X1684844D1*
X1796394D2*
X1809844D1*
X1921394D2*
X2694765D1*
X30242Y1262697D2*
X66504D1*
X288074D2*
X1684844D1*
X1796394D2*
X1809844D1*
X1921394D2*
X2694765D1*
X30242Y1252828D2*
X66504D1*
X292449D2*
X1684844D1*
X1796394D2*
X1809844D1*
X1921394D2*
X2694765D1*
X30242Y1242959D2*
X66504D1*
X295164D2*
X1684844D1*
X1796394D2*
X1809844D1*
X1921394D2*
X2480859D1*
X2521551D2*
X2694765D1*
X30242Y1233091D2*
X66504D1*
X296414D2*
X1684844D1*
X1796394D2*
X1809844D1*
X1921394D2*
X2475078D1*
X2527332D2*
X2694765D1*
X30242Y1223222D2*
X66504D1*
X296258D2*
X1684844D1*
X1796394D2*
X1809844D1*
X1921394D2*
X2457324D1*
X2528543D2*
X2694765D1*
X30242Y1213353D2*
X66504D1*
X294715D2*
X1684844D1*
X1796394D2*
X1809844D1*
X1921394D2*
X2451387D1*
X2525887D2*
X2694765D1*
X30242Y1203484D2*
X66504D1*
X291648D2*
X1684844D1*
X1796394D2*
X1809844D1*
X1921394D2*
X2450058D1*
X2520594D2*
X2694765D1*
X30242Y1193615D2*
X66504D1*
X286863D2*
X716582D1*
X808426D2*
X1524023D1*
X1563465D2*
X1682519D1*
X1796394D2*
X1809844D1*
X1921394D2*
X2452598D1*
X2526922D2*
X2694765D1*
X30242Y1183747D2*
X66504D1*
X279890D2*
X716582D1*
X808426D2*
X1517851D1*
X1569656D2*
X1672637D1*
X1796394D2*
X1809844D1*
X1921394D2*
X2458730D1*
X2528601D2*
X2694765D1*
X30242Y1173878D2*
X66504D1*
X269695D2*
X716582D1*
X808426D2*
X1512773D1*
X1571121D2*
X1662773D1*
X1722430D2*
X1728594D1*
X1796394D2*
X1809844D1*
X1921394D2*
X2453301D1*
X2526433D2*
X2694765D1*
X30242Y1164009D2*
X66504D1*
X252801D2*
X716582D1*
X808426D2*
X1459160D1*
X1568758D2*
X1652910D1*
X1712605D2*
X1728594D1*
X1803348D2*
X1809844D1*
X1921394D2*
X2450762D1*
X2518992D2*
X2694765D1*
X30242Y1154140D2*
X66504D1*
X196004D2*
X716582D1*
X808426D2*
X1449297D1*
X1560926D2*
X1598340D1*
X1626648D2*
X1643047D1*
X1702742D2*
X1728711D1*
X1921394D2*
X2452090D1*
X2504168D2*
X2694765D1*
X30242Y1144272D2*
X66504D1*
X196004D2*
X716582D1*
X808426D2*
X1439414D1*
X1542879D2*
X1588535D1*
X1692879D2*
X1732480D1*
X1921394D2*
X2458027D1*
X2498230D2*
X2694765D1*
X30242Y1134403D2*
X66504D1*
X196004D2*
X716582D1*
X808426D2*
X1429551D1*
X1532898D2*
X1585293D1*
X1682996D2*
X1741992D1*
X1926707D2*
X2694765D1*
X30242Y1124534D2*
X66504D1*
X196004D2*
X716582D1*
X808426D2*
X1419687D1*
X1520515D2*
X1575937D1*
X1673133D2*
X1751875D1*
X1936570D2*
X2694765D1*
X30242Y1114665D2*
X66504D1*
X196004D2*
X716582D1*
X808426D2*
X1409824D1*
X1520828D2*
X1566074D1*
X1663269D2*
X1761738D1*
X2052683D2*
X2694765D1*
X30242Y1104797D2*
X66504D1*
X196004D2*
X1399941D1*
X1459656D2*
X1470332D1*
X1517156D2*
X1556191D1*
X1653387D2*
X1771601D1*
X2062547D2*
X2464238D1*
X2493875D2*
X2694765D1*
X30242Y1094928D2*
X66504D1*
X196004D2*
X1390078D1*
X1449773D2*
X1472344D1*
X1515144D2*
X1546328D1*
X1643523D2*
X1781465D1*
X2072430D2*
X2453984D1*
X2504109D2*
X2694765D1*
X30242Y1085059D2*
X66504D1*
X196004D2*
X1380215D1*
X1439910D2*
X1472344D1*
X1515144D2*
X1536465D1*
X1633660D2*
X1791348D1*
X2089715D2*
X2450273D1*
X2507820D2*
X2694765D1*
X30242Y1075190D2*
X66504D1*
X196004D2*
X482598D1*
X517390D2*
X1370332D1*
X1430047D2*
X1472344D1*
X1515144D2*
X1526777D1*
X1623797D2*
X1801211D1*
X2099148D2*
X2450312D1*
X2507801D2*
X2694765D1*
X30242Y1065322D2*
X66504D1*
X196004D2*
X464902D1*
X535086D2*
X1360469D1*
X1420164D2*
X1472344D1*
X1515144D2*
X1522539D1*
X1615144D2*
X1811074D1*
X2102254D2*
X2454121D1*
X2503992D2*
X2694765D1*
X30242Y1055453D2*
X66504D1*
X198836D2*
X455859D1*
X544129D2*
X1350605D1*
X1410301D2*
X1429570D1*
X1457918D2*
X1472344D1*
X1515144D2*
X1522344D1*
X1689676D2*
X1817148D1*
X2164109D2*
X2420137D1*
X2496219D2*
X2594551D1*
X2650945D2*
X2694765D1*
X30242Y1045584D2*
X66504D1*
X208699D2*
X450371D1*
X549617D2*
X1340742D1*
X1400437D2*
X1412363D1*
X1689676D2*
X1811367D1*
X2169890D2*
X2407930D1*
X2508426D2*
X2582344D1*
X2663152D2*
X2694765D1*
X30242Y1035715D2*
X66504D1*
X218562D2*
X447305D1*
X552703D2*
X1330859D1*
X1390574D2*
X1404277D1*
X1689676D2*
X1767676D1*
X1794812D2*
X1805859D1*
X1915144D2*
X2003183D1*
X2171082D2*
X2402812D1*
X2513543D2*
X2577226D1*
X2668269D2*
X2694765D1*
X30242Y1025846D2*
X66504D1*
X228445D2*
X446211D1*
X553797D2*
X1320996D1*
X1380691D2*
X1399844D1*
X1915144D2*
X2013047D1*
X2168445D2*
X2400937D1*
X2515418D2*
X2575351D1*
X2670144D2*
X2694765D1*
X30242Y1015978D2*
X66504D1*
X238308D2*
X446973D1*
X553015D2*
X1311133D1*
X1370828D2*
X1397949D1*
X1915144D2*
X2022930D1*
X2160047D2*
X2401348D1*
X2515008D2*
X2575762D1*
X2669734D2*
X2694765D1*
X30242Y1006109D2*
X67539D1*
X248172D2*
X449687D1*
X550301D2*
X1301250D1*
X1360965D2*
X1398281D1*
X1835965D2*
X1847344D1*
X1915144D2*
X2032793D1*
X2145359D2*
X2405723D1*
X2510652D2*
X2580117D1*
X2665379D2*
X2694765D1*
X30242Y996240D2*
X74473D1*
X258035D2*
X454726D1*
X545281D2*
X1291387D1*
X1351082D2*
X1394101D1*
X1833894D2*
X1847344D1*
X1915144D2*
X2042930D1*
X2140555D2*
X2414765D1*
X2501609D2*
X2589160D1*
X2656336D2*
X2694765D1*
X30242Y986371D2*
X84336D1*
X267918D2*
X463008D1*
X537000D2*
X1281523D1*
X1341219D2*
X1384238D1*
X1689676D2*
X1776484D1*
X1786023D2*
X1791092D1*
X1833894D2*
X1847344D1*
X1915144D2*
X2113984D1*
X2123516D2*
X2694765D1*
X30242Y976503D2*
X94219D1*
X277781D2*
X478125D1*
X521883D2*
X1271660D1*
X1331355D2*
X1374629D1*
X1689676D2*
X1791094D1*
X1833894D2*
X1847344D1*
X1915144D2*
X2694765D1*
X30242Y966634D2*
X104082D1*
X287644D2*
X1261777D1*
X1321492D2*
X1370234D1*
X1431277D2*
X1472344D1*
X1615144D2*
X1791094D1*
X1833894D2*
X1847344D1*
X1915144D2*
X2694765D1*
X30242Y956765D2*
X113945D1*
X294812D2*
X1251914D1*
X1311609D2*
X1369844D1*
X1421394D2*
X1435058D1*
X1452430D2*
X1472344D1*
X1615144D2*
X1635058D1*
X1652430D2*
X1791094D1*
X1833894D2*
X1847344D1*
X1915144D2*
X2694765D1*
X30242Y946896D2*
X123828D1*
X296004D2*
X1242051D1*
X1301746D2*
X1369844D1*
X1673660D2*
X1791094D1*
X1833894D2*
X1847344D1*
X1915144D2*
X2694765D1*
X30242Y937028D2*
X133691D1*
X296004D2*
X1232168D1*
X1291883D2*
X1369844D1*
X1682390D2*
X1782168D1*
X1833894D2*
X1847344D1*
X1915144D2*
X2694765D1*
X30242Y927159D2*
X143555D1*
X296004D2*
X1222305D1*
X1282000D2*
X1369844D1*
X1594500D2*
X1600273D1*
X1831082D2*
X1847344D1*
X1915144D2*
X2694765D1*
X30242Y917290D2*
X153418D1*
X296004D2*
X1212441D1*
X1272137D2*
X1369844D1*
X1589422D2*
X1598086D1*
X1822137D2*
X1847344D1*
X1915144D2*
X2694765D1*
X30242Y907421D2*
X154004D1*
X296004D2*
X1202578D1*
X1262273D2*
X1369844D1*
X1589383D2*
X1598105D1*
X1812273D2*
X1847344D1*
X1915144D2*
X2694765D1*
X30242Y897553D2*
X154004D1*
X296004D2*
X1192695D1*
X1252410D2*
X1369844D1*
X1587117D2*
X1600390D1*
X1802390D2*
X1847344D1*
X1915144D2*
X2694765D1*
X30242Y887684D2*
X154004D1*
X296004D2*
X1182832D1*
X1242527D2*
X1369844D1*
X1582195D2*
X1605293D1*
X1682195D2*
X1847344D1*
X1915144D2*
X2694765D1*
X30242Y877815D2*
X154004D1*
X296004D2*
X1172969D1*
X1232664D2*
X1369844D1*
X1573308D2*
X1614199D1*
X1673308D2*
X1847344D1*
X1915144D2*
X2694765D1*
X30242Y867946D2*
X154004D1*
X296004D2*
X446191D1*
X553797D2*
X1163105D1*
X1222801D2*
X1369844D1*
X1417644D2*
X1436973D1*
X1450535D2*
X1472344D1*
X1515144D2*
X1536973D1*
X1550535D2*
X1636973D1*
X1650535D2*
X1847344D1*
X1915144D2*
X2694765D1*
X30242Y858077D2*
X154004D1*
X296004D2*
X446191D1*
X553797D2*
X1155273D1*
X1217547D2*
X1369844D1*
X1417644D2*
X1472344D1*
X1515144D2*
X1847344D1*
X1915144D2*
X2694765D1*
X30242Y848209D2*
X154004D1*
X296004D2*
X446191D1*
X553797D2*
X1153594D1*
X1225125D2*
X1369844D1*
X1417644D2*
X1472344D1*
X1515144D2*
X1847344D1*
X1915144D2*
X2694765D1*
X30242Y838340D2*
X154004D1*
X296004D2*
X446191D1*
X553797D2*
X1153594D1*
X1229012D2*
X1369844D1*
X1417644D2*
X1472344D1*
X1522762D2*
X1847344D1*
X1915144D2*
X2694765D1*
X30242Y828471D2*
X154004D1*
X296004D2*
X446191D1*
X553797D2*
X1153594D1*
X1238875D2*
X1369844D1*
X1417644D2*
X1474453D1*
X1532625D2*
X1847344D1*
X1915144D2*
X2694765D1*
X30242Y818602D2*
X154004D1*
X296004D2*
X446191D1*
X553797D2*
X1153594D1*
X1248738D2*
X1369844D1*
X1417644D2*
X1482793D1*
X1542508D2*
X1847344D1*
X1915144D2*
X2694765D1*
X30242Y808734D2*
X154004D1*
X296004D2*
X446191D1*
X553797D2*
X1153594D1*
X1258621D2*
X1369844D1*
X1424656D2*
X1492676D1*
X1552371D2*
X1847344D1*
X1915144D2*
X2694765D1*
X30242Y798865D2*
X154004D1*
X296004D2*
X446191D1*
X553797D2*
X1153594D1*
X1268484D2*
X1371074D1*
X1434519D2*
X1502539D1*
X1562234D2*
X1847344D1*
X1915144D2*
X2694765D1*
X30242Y788996D2*
X154004D1*
X296004D2*
X446191D1*
X553797D2*
X1153594D1*
X1278348D2*
X1377617D1*
X1444383D2*
X1512402D1*
X1572098D2*
X1847344D1*
X1915144D2*
X2694765D1*
X30242Y779127D2*
X154004D1*
X296004D2*
X446191D1*
X553797D2*
X1153594D1*
X1288230D2*
X1387480D1*
X1454265D2*
X1522265D1*
X1581980D2*
X1847344D1*
X1915144D2*
X2694765D1*
X30242Y769259D2*
X154004D1*
X296004D2*
X1153594D1*
X1298094D2*
X1397363D1*
X1464129D2*
X1532148D1*
X1591844D2*
X1847344D1*
X1915144D2*
X2694765D1*
X30242Y759390D2*
X154004D1*
X296004D2*
X1153594D1*
X1307957D2*
X1407226D1*
X1473992D2*
X1542012D1*
X1601707D2*
X1847344D1*
X1915144D2*
X2694765D1*
X30242Y749521D2*
X154004D1*
X296004D2*
X1153594D1*
X1317820D2*
X1417090D1*
X1483855D2*
X1551875D1*
X1611570D2*
X1847344D1*
X1915144D2*
X2694765D1*
X30242Y739652D2*
X154004D1*
X296004D2*
X1153594D1*
X1327703D2*
X1426953D1*
X1493738D2*
X1561758D1*
X1621453D2*
X1847344D1*
X1915144D2*
X2694765D1*
X30242Y729783D2*
X150508D1*
X296004D2*
X1153594D1*
X1337566D2*
X1436836D1*
X1503601D2*
X1571621D1*
X1918816D2*
X2694765D1*
X30242Y719915D2*
X140625D1*
X296004D2*
X1153594D1*
X1347430D2*
X1446699D1*
X1513465D2*
X1581484D1*
X1928680D2*
X2694765D1*
X30242Y710046D2*
X130762D1*
X296004D2*
X1153594D1*
X1357312D2*
X1456562D1*
X1523348D2*
X1591348D1*
X1938562D2*
X2694765D1*
X30242Y700177D2*
X120898D1*
X296004D2*
X1153594D1*
X1367176D2*
X1466445D1*
X1532390D2*
X1601230D1*
X1948426D2*
X2694765D1*
X30242Y690308D2*
X111015D1*
X296004D2*
X1153594D1*
X1377039D2*
X1476308D1*
X1535789D2*
X1666504D1*
X1958289D2*
X2694765D1*
X30242Y680440D2*
X101152D1*
X296004D2*
X1144336D1*
X1386902D2*
X1486172D1*
X1535906D2*
X1667305D1*
X1968152D2*
X2694765D1*
X30242Y670571D2*
X91289D1*
X296004D2*
X1134473D1*
X1396785D2*
X1488105D1*
X1535906D2*
X1672500D1*
X1978035D2*
X2694765D1*
X30242Y660702D2*
X82109D1*
X296004D2*
X1124609D1*
X1406648D2*
X1488105D1*
X1535906D2*
X1834453D1*
X1987898D2*
X2694765D1*
X30242Y650833D2*
X79023D1*
X296004D2*
X1114726D1*
X1251648D2*
X1263066D1*
X1416512D2*
X1488105D1*
X1535906D2*
X1844316D1*
X1997762D2*
X2694765D1*
X30242Y640965D2*
X79004D1*
X296004D2*
X1104863D1*
X1233308D2*
X1266094D1*
X1426394D2*
X1488105D1*
X1535906D2*
X1854180D1*
X2007644D2*
X2694765D1*
X30242Y631096D2*
X79004D1*
X296004D2*
X1095000D1*
X1223445D2*
X1266094D1*
X1333894D2*
X1341094D1*
X1436258D2*
X1488105D1*
X1535906D2*
X1864062D1*
X2342508D2*
X2694765D1*
X30242Y621227D2*
X79004D1*
X296004D2*
X1085137D1*
X1213582D2*
X1266094D1*
X1333894D2*
X1341094D1*
X1446121D2*
X1488105D1*
X1535906D2*
X1873926D1*
X2352371D2*
X2694765D1*
X30242Y611358D2*
X79004D1*
X296004D2*
X1075254D1*
X1203699D2*
X1266094D1*
X1333894D2*
X1341094D1*
X1383894D2*
X1396289D1*
X1455984D2*
X1488105D1*
X1535906D2*
X1883789D1*
X2362234D2*
X2694765D1*
X30242Y601490D2*
X79004D1*
X296004D2*
X1065390D1*
X1193836D2*
X1266094D1*
X1333894D2*
X1341094D1*
X1383894D2*
X1406152D1*
X1465867D2*
X1488105D1*
X1535906D2*
X1893652D1*
X2372117D2*
X2694765D1*
X30242Y591621D2*
X79004D1*
X296004D2*
X1055527D1*
X1183973D2*
X1266094D1*
X1333894D2*
X1341094D1*
X1383894D2*
X1416035D1*
X1475730D2*
X1488105D1*
X1535906D2*
X1903535D1*
X2281980D2*
X2322285D1*
X2381980D2*
X2694765D1*
X30242Y581752D2*
X79004D1*
X296004D2*
X1045644D1*
X1174109D2*
X1266094D1*
X1333894D2*
X1341094D1*
X1383894D2*
X1425898D1*
X1482742D2*
X1488101D1*
X1535906D2*
X1913398D1*
X2291844D2*
X2332148D1*
X2391844D2*
X2694765D1*
X30242Y571883D2*
X79004D1*
X296004D2*
X1035781D1*
X1164226D2*
X1266094D1*
X1333894D2*
X1341094D1*
X1383894D2*
X1435762D1*
X1535906D2*
X1923262D1*
X2301707D2*
X2342012D1*
X2401707D2*
X2694765D1*
X30242Y562014D2*
X79004D1*
X296004D2*
X1025918D1*
X1154363D2*
X1266094D1*
X1333894D2*
X1341094D1*
X1383894D2*
X1441094D1*
X1535906D2*
X1933144D1*
X2311590D2*
X2351894D1*
X2411590D2*
X2694765D1*
X30242Y552146D2*
X79004D1*
X296004D2*
X1016055D1*
X1144500D2*
X1266094D1*
X1333894D2*
X1341094D1*
X1383894D2*
X1441094D1*
X1535906D2*
X1943008D1*
X2319598D2*
X2361758D1*
X2419598D2*
X2694765D1*
X30242Y542277D2*
X79004D1*
X296004D2*
X1006172D1*
X1134637D2*
X1266094D1*
X1333894D2*
X1341094D1*
X1383894D2*
X1441094D1*
X1535906D2*
X1958828D1*
X2421394D2*
X2433789D1*
X2466199D2*
X2694765D1*
X30242Y532408D2*
X79004D1*
X296004D2*
X996308D1*
X1133406D2*
X1266094D1*
X1333894D2*
X1341094D1*
X1383894D2*
X1441094D1*
X1535906D2*
X2017890D1*
X2082117D2*
X2104082D1*
X2482117D2*
X2694765D1*
X30242Y522539D2*
X79004D1*
X296004D2*
X986445D1*
X1083640D2*
X1090605D1*
X1133406D2*
X1266094D1*
X1333894D2*
X1341094D1*
X1383894D2*
X1441094D1*
X1535906D2*
X2010137D1*
X2089871D2*
X2104082D1*
X2489871D2*
X2694765D1*
X30242Y512671D2*
X79004D1*
X296004D2*
X976562D1*
X1073777D2*
X1090605D1*
X1133406D2*
X1266094D1*
X1333894D2*
X1341094D1*
X1383894D2*
X1441094D1*
X1535906D2*
X2005898D1*
X2094109D2*
X2104082D1*
X2494109D2*
X2694765D1*
X30242Y502802D2*
X79004D1*
X296004D2*
X966699D1*
X1063894D2*
X1090605D1*
X1133406D2*
X1266094D1*
X1333894D2*
X1341094D1*
X1383894D2*
X1441094D1*
X1535906D2*
X2004160D1*
X2095848D2*
X2104082D1*
X2495848D2*
X2694765D1*
X30242Y492933D2*
X79004D1*
X296004D2*
X956836D1*
X1054031D2*
X1090605D1*
X1133406D2*
X1266094D1*
X1333894D2*
X1341094D1*
X1383894D2*
X1441094D1*
X1535906D2*
X2004629D1*
X2095359D2*
X2104082D1*
X2495359D2*
X2694765D1*
X30242Y483064D2*
X79004D1*
X296004D2*
X946973D1*
X1044168D2*
X1090605D1*
X1133406D2*
X1266094D1*
X1333894D2*
X1341094D1*
X1383894D2*
X1441094D1*
X1535906D2*
X2007383D1*
X2092605D2*
X2104082D1*
X2492605D2*
X2694765D1*
X30242Y473196D2*
X79004D1*
X296004D2*
X937090D1*
X1034305D2*
X1090605D1*
X1133406D2*
X1266094D1*
X1333894D2*
X1341094D1*
X1383894D2*
X1441094D1*
X1535906D2*
X2012949D1*
X2087058D2*
X2104082D1*
X2487058D2*
X2694765D1*
X30242Y463327D2*
X79004D1*
X296004D2*
X774512D1*
X1024422D2*
X1090605D1*
X1133406D2*
X1266094D1*
X1333894D2*
X1341094D1*
X1383894D2*
X1441094D1*
X1535906D2*
X2023047D1*
X2076961D2*
X2104082D1*
X2476961D2*
X2694765D1*
X30242Y453458D2*
X79004D1*
X296004D2*
X761113D1*
X1014558D2*
X1090605D1*
X1133406D2*
X1261113D1*
X1333894D2*
X1341094D1*
X1383894D2*
X1441094D1*
X1535906D2*
X2118594D1*
X2321394D2*
X2378594D1*
X2421394D2*
X2694765D1*
X30242Y443589D2*
X79004D1*
X296004D2*
X751250D1*
X1004695D2*
X1090605D1*
X1133406D2*
X1251230D1*
X1333894D2*
X1341094D1*
X1383894D2*
X1441094D1*
X1535906D2*
X2038125D1*
X2061883D2*
X2118594D1*
X2321394D2*
X2338125D1*
X2361883D2*
X2378594D1*
X2421394D2*
X2438125D1*
X2461883D2*
X2694765D1*
X30242Y433720D2*
X79004D1*
X296004D2*
X741367D1*
X994812D2*
X1090605D1*
X1133406D2*
X1241367D1*
X1333543D2*
X1341094D1*
X1383894D2*
X1441094D1*
X1535906D2*
X2019316D1*
X2080691D2*
X2118594D1*
X2181394D2*
X2186420D1*
X2480691D2*
X2694765D1*
X30242Y423852D2*
X79004D1*
X296004D2*
X327422D1*
X445437D2*
X731504D1*
X984949D2*
X1090605D1*
X1133406D2*
X1169004D1*
X1328660D2*
X1341094D1*
X1383894D2*
X1441094D1*
X1535906D2*
X2010918D1*
X2089070D2*
X2110918D1*
X2189070D2*
X2196289D1*
X2489070D2*
X2694765D1*
X30242Y413983D2*
X79004D1*
X296004D2*
X321055D1*
X451785D2*
X721640D1*
X781336D2*
X915390D1*
X975086D2*
X1090605D1*
X1133406D2*
X1159140D1*
X1318836D2*
X1341094D1*
X1383894D2*
X1441094D1*
X1535906D2*
X2006308D1*
X2093699D2*
X2106308D1*
X2193699D2*
X2206172D1*
X2493699D2*
X2694765D1*
X30242Y404114D2*
X79004D1*
X296004D2*
X320820D1*
X452039D2*
X704551D1*
X771473D2*
X905508D1*
X965223D2*
X1090605D1*
X1133406D2*
X1149258D1*
X1308973D2*
X1341094D1*
X1383894D2*
X1441094D1*
X1535906D2*
X2004258D1*
X2095730D2*
X2104258D1*
X2195730D2*
X2204258D1*
X2495730D2*
X2694765D1*
X30242Y394245D2*
X79004D1*
X296004D2*
X320820D1*
X452039D2*
X694765D1*
X857937D2*
X887422D1*
X955340D2*
X987422D1*
X1036570D2*
X1087422D1*
X1136570D2*
X1142234D1*
X1536570D2*
X1587422D1*
X1636570D2*
X1687422D1*
X1736570D2*
X2004433D1*
X2095555D2*
X2104433D1*
X2195555D2*
X2204433D1*
X2495555D2*
X2694765D1*
X30242Y384377D2*
X79004D1*
X296004D2*
X320820D1*
X452039D2*
X691543D1*
X751726D2*
X766074D1*
X857937D2*
X876172D1*
X947840D2*
X976172D1*
X1047840D2*
X1076172D1*
X1547840D2*
X1576172D1*
X1647840D2*
X1676172D1*
X1747840D2*
X2004531D1*
X2093133D2*
X2106875D1*
X2193133D2*
X2206875D1*
X2493133D2*
X2694765D1*
X30242Y374508D2*
X79004D1*
X296004D2*
X320820D1*
X452039D2*
X692226D1*
X745281D2*
X766074D1*
X857937D2*
X870058D1*
X953933D2*
X970058D1*
X1053933D2*
X1070058D1*
X1553933D2*
X1570058D1*
X1653933D2*
X1670058D1*
X1753933D2*
X1994648D1*
X2087996D2*
X2112012D1*
X2187996D2*
X2212012D1*
X2487996D2*
X2694765D1*
X30242Y364639D2*
X79004D1*
X296004D2*
X320820D1*
X452039D2*
X697226D1*
X740262D2*
X766074D1*
X857937D2*
X866914D1*
X957098D2*
X966914D1*
X1057098D2*
X1066914D1*
X1557098D2*
X1566914D1*
X1657098D2*
X1666914D1*
X1757098D2*
X1984785D1*
X2078719D2*
X2118594D1*
X2181394D2*
X2221289D1*
X2478719D2*
X2694765D1*
X30242Y354770D2*
X79004D1*
X296004D2*
X320820D1*
X452039D2*
X766074D1*
X857937D2*
X866094D1*
X957918D2*
X966094D1*
X1057918D2*
X1066094D1*
X1557918D2*
X1566094D1*
X1657918D2*
X1666094D1*
X1757918D2*
X1974922D1*
X2034617D2*
X2118594D1*
X2181394D2*
X2274922D1*
X2321394D2*
X2378594D1*
X2421394D2*
X2694765D1*
X30242Y344902D2*
X79004D1*
X296004D2*
X320820D1*
X452039D2*
X766074D1*
X857937D2*
X867461D1*
X956531D2*
X967461D1*
X1056531D2*
X1067461D1*
X1556531D2*
X1567461D1*
X1656531D2*
X1667461D1*
X1756531D2*
X1965058D1*
X2095926D2*
X2118594D1*
X2181394D2*
X2247480D1*
X2252525D2*
X2265058D1*
X2320750D2*
X2347480D1*
X2352525D2*
X2378594D1*
X2495926D2*
X2694765D1*
X30242Y335033D2*
X79004D1*
X296004D2*
X320820D1*
X452039D2*
X766074D1*
X857937D2*
X871269D1*
X952742D2*
X971269D1*
X1052742D2*
X1071269D1*
X1552742D2*
X1571269D1*
X1652742D2*
X1671269D1*
X1752742D2*
X1955176D1*
X2095926D2*
X2118594D1*
X2181394D2*
X2220879D1*
X2314890D2*
X2320879D1*
X2495926D2*
X2694765D1*
X30242Y325164D2*
X79004D1*
X296004D2*
X320820D1*
X452039D2*
X766074D1*
X857937D2*
X878320D1*
X945672D2*
X978320D1*
X1045672D2*
X1078320D1*
X1545672D2*
X1578320D1*
X1645672D2*
X1678320D1*
X1745672D2*
X1945312D1*
X2095926D2*
X2111777D1*
X2188211D2*
X2211777D1*
X2305008D2*
X2311777D1*
X2495926D2*
X2694765D1*
X30242Y315295D2*
X79004D1*
X296004D2*
X320820D1*
X452039D2*
X766074D1*
X857937D2*
X891992D1*
X932019D2*
X991992D1*
X1032019D2*
X1091992D1*
X1132019D2*
X1141094D1*
X1183894D2*
X1191992D1*
X1232019D2*
X1241094D1*
X1283894D2*
X1291992D1*
X1332019D2*
X1341094D1*
X1383894D2*
X1391992D1*
X1432019D2*
X1441094D1*
X1483894D2*
X1491992D1*
X1532019D2*
X1591992D1*
X1632019D2*
X1691992D1*
X1732019D2*
X1935449D1*
X1995144D2*
X2004082D1*
X2193250D2*
X2206758D1*
X2295144D2*
X2306758D1*
X2495926D2*
X2694765D1*
X30242Y305427D2*
X79004D1*
X296004D2*
X322695D1*
X450164D2*
X1138086D1*
X1183894D2*
X1241094D1*
X1283894D2*
X1341094D1*
X1383894D2*
X1441094D1*
X1483894D2*
X1925586D1*
X1985281D2*
X2004082D1*
X2195594D2*
X2204394D1*
X2295594D2*
X2304394D1*
X2495926D2*
X2694765D1*
X30242Y295558D2*
X79492D1*
X295496D2*
X1128203D1*
X1183406D2*
X1241094D1*
X1283894D2*
X1341094D1*
X1383894D2*
X1441094D1*
X1484285D2*
X1915703D1*
X1975398D2*
X2004082D1*
X2195711D2*
X2204297D1*
X2295711D2*
X2304297D1*
X2495926D2*
X2694765D1*
X30242Y285689D2*
X85019D1*
X289969D2*
X1118340D1*
X1178035D2*
X1241094D1*
X1283894D2*
X1341094D1*
X1383894D2*
X1441172D1*
X1494168D2*
X1905840D1*
X1965535D2*
X2004082D1*
X2193582D2*
X2206406D1*
X2293582D2*
X2306406D1*
X2495926D2*
X2694765D1*
X30242Y275820D2*
X1108555D1*
X1168172D2*
X1241094D1*
X1283894D2*
X1341094D1*
X1383894D2*
X1444765D1*
X1955672D2*
X2004082D1*
X2095926D2*
X2111133D1*
X2188875D2*
X2211133D1*
X2288875D2*
X2311133D1*
X2495926D2*
X2694765D1*
X30242Y265951D2*
X1103887D1*
X1158308D2*
X1241094D1*
X1283894D2*
X1341094D1*
X1383894D2*
X1454199D1*
X1945808D2*
X2004082D1*
X2095926D2*
X2118594D1*
X2181394D2*
X2219687D1*
X2280320D2*
X2286277D1*
X2495926D2*
X2694765D1*
X30242Y256083D2*
X1103594D1*
X1148426D2*
X1241094D1*
X1283894D2*
X1341094D1*
X1383894D2*
X1464062D1*
X1935926D2*
X2004082D1*
X2095926D2*
X2118594D1*
X2181394D2*
X2239531D1*
X2260476D2*
X2276230D1*
X2495926D2*
X2694765D1*
X30242Y246214D2*
X1103594D1*
X1146394D2*
X1241094D1*
X1283894D2*
X1341094D1*
X1383894D2*
X1474219D1*
X1925789D2*
X2118594D1*
X2181394D2*
X2266367D1*
X2407312D2*
X2694765D1*
X30379Y236345D2*
X1103594D1*
X1146394D2*
X1241094D1*
X1283894D2*
X1341094D1*
X1383894D2*
X2118594D1*
X2181394D2*
X2222598D1*
X2397449D2*
X2694609D1*
X31160Y226476D2*
X1103594D1*
X1146394D2*
X1241094D1*
X1283894D2*
X1341094D1*
X1383894D2*
X2112695D1*
X2187293D2*
X2212695D1*
X2306336D2*
X2312694D1*
X2387293D2*
X2693848D1*
X31941Y216608D2*
X1103594D1*
X1146394D2*
X1241094D1*
X1283894D2*
X1341094D1*
X1383894D2*
X2107246D1*
X2192742D2*
X2207246D1*
X2296453D2*
X2307246D1*
X2392742D2*
X2693066D1*
X32723Y206739D2*
X1103594D1*
X1146394D2*
X1241094D1*
X1283894D2*
X1341094D1*
X1383894D2*
X2104590D1*
X2195418D2*
X2204590D1*
X2295418D2*
X2304590D1*
X2395418D2*
X2692285D1*
X34695Y196870D2*
X1103594D1*
X1146394D2*
X1241094D1*
X1283894D2*
X1341094D1*
X1383894D2*
X2104180D1*
X2195828D2*
X2204180D1*
X2295828D2*
X2304180D1*
X2395828D2*
X2690312D1*
X37058Y187001D2*
X1103594D1*
X1146394D2*
X1241113D1*
X1292840D2*
X1341094D1*
X1383894D2*
X2105996D1*
X2194012D2*
X2205996D1*
X2294012D2*
X2305996D1*
X2394012D2*
X2687949D1*
X39422Y177133D2*
X1103594D1*
X1146394D2*
X1243926D1*
X1302723D2*
X1341094D1*
X1383894D2*
X2110332D1*
X2189676D2*
X2210332D1*
X2289676D2*
X2310332D1*
X2389676D2*
X2685566D1*
X42625Y167264D2*
X1103594D1*
X1146394D2*
X1252890D1*
X1312586D2*
X1341094D1*
X1387586D2*
X2118223D1*
X2181765D2*
X2218223D1*
X2281765D2*
X2318223D1*
X2381765D2*
X2682363D1*
X46707Y157395D2*
X1103594D1*
X1146394D2*
X1262754D1*
X1322449D2*
X1341758D1*
X1397449D2*
X2134746D1*
X2165262D2*
X2234746D1*
X2265262D2*
X2334746D1*
X2365262D2*
X2678281D1*
X50808Y147526D2*
X1103594D1*
X1146394D2*
X1272617D1*
X1339773D2*
X1347617D1*
X1407332D2*
X1510234D1*
X1539773D2*
X2674199D1*
X55652Y137657D2*
X1100840D1*
X1149168D2*
X1282500D1*
X1349168D2*
X1357500D1*
X1549168D2*
X2669355D1*
X61687Y127789D2*
X1097754D1*
X1152254D2*
X1292363D1*
X1352254D2*
X1367363D1*
X1552254D2*
X2663301D1*
X67742Y117920D2*
X1098574D1*
X1151433D2*
X1298574D1*
X1351433D2*
X1377226D1*
X1551433D2*
X2657265D1*
X75027Y108051D2*
X1103750D1*
X1146238D2*
X1303750D1*
X1346238D2*
X1387656D1*
X1546238D2*
X2649980D1*
X83465Y98182D2*
X2641543D1*
X91883Y88314D2*
X2633125D1*
X103348Y78445D2*
X2621660D1*
X114890Y68576D2*
X2610098D1*
X130027Y58707D2*
X2594961D1*
X146394Y48839D2*
X2578594D1*
X170223Y38970D2*
X2554785D1*
X207000Y29101D2*
X2518008D1*
X722572Y1198077D2*
X807428D1*
Y1108222D1*
X717572D1*
Y1198077D1*
X722572D1*
X807416Y1349000D2*
X807028Y1344018D1*
X806088Y1339110D1*
X804609Y1334336D1*
X802608Y1329756D1*
X800112Y1325427D1*
X797150Y1321402D1*
X793760Y1317731D1*
X789982Y1314458D1*
X785865Y1311626D1*
X781459Y1309269D1*
X776818Y1307415D1*
X772000Y1306088D1*
X767064Y1305305D1*
X762072Y1305074D1*
X757085Y1305400D1*
X752165Y1306277D1*
X747373Y1307695D1*
X742769Y1309637D1*
X738408Y1312078D1*
X734345Y1314988D1*
X730631Y1318332D1*
X727311Y1322067D1*
X724427Y1326148D1*
X722013Y1330524D1*
X720101Y1335141D1*
X718713Y1339942D1*
X717867Y1344867D1*
X717573Y1349856D1*
X717835Y1354846D1*
X718649Y1359777D1*
X720006Y1364587D1*
X721889Y1369216D1*
X724275Y1373607D1*
X727133Y1377706D1*
X730429Y1381463D1*
X734121Y1384830D1*
X738165Y1387766D1*
X742510Y1390235D1*
X747102Y1392207D1*
X751885Y1393656D1*
X756799Y1394564D1*
X761784Y1394922D1*
X766777Y1394723D1*
X771718Y1393972D1*
X776544Y1392676D1*
X781197Y1390852D1*
X785619Y1388523D1*
X789754Y1385717D1*
X793552Y1382469D1*
X796966Y1378820D1*
X799954Y1374814D1*
X802478Y1370500D1*
X804507Y1365934D1*
X806017Y1361170D1*
X806988Y1356268D1*
X807409Y1351288D1*
X807416Y1349000D1*
X295341Y1224236D2*
X294810Y1219266D1*
X293929Y1214345D1*
X292701Y1209499D1*
X291133Y1204753D1*
X289232Y1200129D1*
X287009Y1195652D1*
X284474Y1191343D1*
X281641Y1187225D1*
X278522Y1183318D1*
X275135Y1179641D1*
X271496Y1176214D1*
X267623Y1173053D1*
X263536Y1170175D1*
X259255Y1167593D1*
X254802Y1165321D1*
X250200Y1163371D1*
X245471Y1161751D1*
X240638Y1160470D1*
X235728Y1159535D1*
X230763Y1158950D1*
X225770Y1158718D1*
X220772Y1158841D1*
X215796Y1159317D1*
X210866Y1160145D1*
X206007Y1161320D1*
X201244Y1162836D1*
X194999Y1165459D1*
X195000Y1058301D1*
X290208Y962989D1*
X292053Y960450D1*
X293478Y957654D1*
X294447Y954669D1*
X294938Y951569D1*
X295000Y925000D1*
X294938Y298431D1*
X294447Y295331D1*
X293478Y292346D1*
X292053Y289550D1*
X290208Y287011D1*
X287989Y284792D1*
X285450Y282947D1*
X282654Y281522D1*
X279669Y280553D1*
X276569Y280062D1*
X250000Y280000D1*
X98431Y280062D1*
X95331Y280553D1*
X92346Y281522D1*
X89550Y282947D1*
X87011Y284792D1*
X84792Y287011D1*
X82947Y289550D1*
X81522Y292346D1*
X80553Y295331D1*
X80062Y298431D1*
X80000Y325000D1*
X80062Y651569D1*
X80553Y654669D1*
X81522Y657654D1*
X82947Y660450D1*
X84792Y662989D1*
X103535Y681820D1*
X155008Y733292D1*
X155000Y916699D1*
X72292Y999511D1*
X70447Y1002050D1*
X69022Y1004846D1*
X68053Y1007831D1*
X67562Y1010931D1*
X67500Y1037500D1*
X67562Y1351569D1*
X68053Y1354669D1*
X69022Y1357654D1*
X70447Y1360450D1*
X72292Y1362989D1*
X74511Y1365208D1*
X77050Y1367053D1*
X79846Y1368478D1*
X82831Y1369447D1*
X85931Y1369938D1*
X112500Y1370000D1*
X176569Y1369938D1*
X179669Y1369447D1*
X182654Y1368478D1*
X185450Y1367053D1*
X187989Y1365208D1*
X190208Y1362989D1*
X192053Y1360450D1*
X193478Y1357654D1*
X194447Y1354669D1*
X194938Y1351569D1*
X195000Y1325000D1*
Y1293066D1*
X203061Y1296251D1*
X207865Y1297637D1*
X212754Y1298679D1*
X217704Y1299372D1*
X222692Y1299713D1*
X227691Y1299699D1*
X232676Y1299331D1*
X237623Y1298611D1*
X242506Y1297543D1*
X247302Y1296131D1*
X251985Y1294383D1*
X256533Y1292308D1*
X260922Y1289915D1*
X265131Y1287218D1*
X269138Y1284229D1*
X272923Y1280964D1*
X276468Y1277439D1*
X279754Y1273672D1*
X282764Y1269681D1*
X285485Y1265487D1*
X287901Y1261111D1*
X290002Y1256575D1*
X291775Y1251901D1*
X293213Y1247113D1*
X294309Y1242236D1*
X295056Y1237293D1*
X295518Y1229232D1*
X295341Y1224236D1*
X452198Y877802D2*
X552802D1*
Y772198D1*
X447198D1*
Y877802D1*
X452198D1*
X552639Y1020857D2*
X552151Y1016740D1*
X551343Y1012674D1*
X550217Y1008683D1*
X548782Y1004794D1*
X547047Y1001029D1*
X545021Y997411D1*
X542717Y993964D1*
X540151Y990708D1*
X537336Y987664D1*
X534292Y984849D1*
X531036Y982283D1*
X527589Y979979D1*
X523971Y977953D1*
X520206Y976218D1*
X516317Y974783D1*
X512326Y973657D1*
X508260Y972849D1*
X504143Y972361D1*
X500000Y972198D1*
X495857Y972361D1*
X491740Y972849D1*
X487674Y973657D1*
X483683Y974783D1*
X479794Y976218D1*
X476029Y977953D1*
X472411Y979979D1*
X468964Y982283D1*
X465708Y984849D1*
X462664Y987664D1*
X459849Y990708D1*
X457283Y993964D1*
X454979Y997411D1*
X452953Y1001029D1*
X451218Y1004794D1*
X449783Y1008683D1*
X448657Y1012674D1*
X447849Y1016740D1*
X447361Y1020857D1*
X447198Y1025000D1*
X447361Y1029143D1*
X447849Y1033260D1*
X448657Y1037326D1*
X449783Y1041317D1*
X451218Y1045206D1*
X452953Y1048971D1*
X454979Y1052589D1*
X457283Y1056036D1*
X459849Y1059292D1*
X462664Y1062336D1*
X465708Y1065151D1*
X468964Y1067717D1*
X472411Y1070021D1*
X476029Y1072047D1*
X479794Y1073782D1*
X483683Y1075217D1*
X487674Y1076343D1*
X491740Y1077151D1*
X495857Y1077639D1*
X500000Y1077802D1*
X504143Y1077639D1*
X508260Y1077151D1*
X512326Y1076343D1*
X516317Y1075217D1*
X520206Y1073782D1*
X523971Y1072047D1*
X527589Y1070021D1*
X531036Y1067717D1*
X534292Y1065151D1*
X537336Y1062336D1*
X540151Y1059292D1*
X542717Y1056036D1*
X545021Y1052589D1*
X547047Y1048971D1*
X548782Y1045206D1*
X550217Y1041317D1*
X551343Y1037326D1*
X552151Y1033260D1*
X552639Y1029143D1*
X552802Y1025000D1*
X552639Y1020857D1*
X177759Y1505394D2*
X177981Y1510391D1*
X178657Y1515344D1*
X179782Y1520214D1*
X181347Y1524961D1*
X183337Y1529546D1*
X185738Y1533930D1*
X188528Y1538077D1*
X191684Y1541952D1*
X195181Y1545524D1*
X198988Y1548762D1*
X203075Y1551639D1*
X207407Y1554132D1*
X211949Y1556220D1*
X216662Y1557885D1*
X221507Y1559113D1*
X226444Y1559894D1*
X231431Y1560222D1*
X236428Y1560094D1*
X241392Y1559511D1*
X246282Y1558478D1*
X251058Y1557004D1*
X255679Y1555100D1*
X260108Y1552783D1*
X264307Y1550072D1*
X268241Y1546989D1*
X271878Y1543560D1*
X275188Y1539814D1*
X278142Y1535782D1*
X280716Y1531498D1*
X282888Y1526997D1*
X284642Y1522316D1*
X285961Y1517495D1*
X286835Y1512574D1*
X287258Y1507593D1*
X287299Y1468463D1*
X287217Y1404040D1*
X286716Y1399066D1*
X285763Y1394160D1*
X284368Y1389360D1*
X282540Y1384708D1*
X280296Y1380242D1*
X277655Y1375999D1*
X274637Y1372014D1*
X271269Y1368321D1*
X267578Y1364951D1*
X263595Y1361931D1*
X259354Y1359287D1*
X254889Y1357040D1*
X250237Y1355210D1*
X245439Y1353811D1*
X240533Y1352856D1*
X235560Y1352352D1*
X230562Y1352303D1*
X225580Y1352711D1*
X220657Y1353570D1*
X215832Y1354875D1*
X211146Y1356615D1*
X206638Y1358774D1*
X202346Y1361335D1*
X198305Y1364277D1*
X194549Y1367575D1*
X191110Y1371202D1*
X188015Y1375127D1*
X185292Y1379318D1*
X182961Y1383740D1*
X181044Y1388355D1*
X179555Y1393127D1*
X178507Y1398014D1*
X177910Y1402977D1*
X177759Y1409038D1*
Y1505362D1*
X301424Y1594394D2*
X296466Y1594619D1*
X291514Y1595298D1*
X286645Y1596426D1*
X281899Y1597994D1*
X277315Y1599987D1*
X272932Y1602390D1*
X268787Y1605182D1*
X264913Y1608341D1*
X261343Y1611840D1*
X258108Y1615649D1*
X255233Y1619738D1*
X252743Y1624072D1*
X250658Y1628614D1*
X248996Y1633328D1*
X247770Y1638174D1*
X246992Y1643111D1*
X246667Y1648099D1*
X246798Y1653095D1*
X247384Y1658059D1*
X248420Y1662949D1*
X249897Y1667724D1*
X251804Y1672344D1*
X254123Y1676772D1*
X256837Y1680969D1*
X259922Y1684901D1*
X263353Y1688536D1*
X267101Y1691843D1*
X271135Y1694795D1*
X275421Y1697366D1*
X279923Y1699536D1*
X284605Y1701287D1*
X289427Y1702603D1*
X294348Y1703475D1*
X299329Y1703894D1*
X343427Y1703934D1*
X402752Y1703857D1*
X407726Y1703365D1*
X412635Y1702421D1*
X417437Y1701034D1*
X422092Y1699215D1*
X426562Y1696979D1*
X430810Y1694345D1*
X434800Y1691335D1*
X438499Y1687973D1*
X441876Y1684288D1*
X444903Y1680311D1*
X447555Y1676074D1*
X449810Y1671613D1*
X451648Y1666965D1*
X453055Y1662169D1*
X454019Y1657265D1*
X454532Y1652293D1*
X454585Y1647164D1*
X454175Y1642183D1*
X453312Y1637260D1*
X452005Y1632436D1*
X450262Y1627751D1*
X448100Y1623244D1*
X445537Y1618954D1*
X442592Y1614915D1*
X439292Y1611161D1*
X435663Y1607724D1*
X431736Y1604632D1*
X427544Y1601910D1*
X423121Y1599583D1*
X418504Y1597668D1*
X413731Y1596182D1*
X408843Y1595137D1*
X403881Y1594542D1*
X397852Y1594394D1*
X301427Y1594398D1*
X435618Y297387D2*
X336004Y297435D1*
X333618Y297813D1*
X331319Y298560D1*
X329166Y299657D1*
X327211Y301077D1*
X325502Y302786D1*
X324082Y304741D1*
X322985Y306894D1*
X322238Y309192D1*
X321860Y311579D1*
X321813Y362787D1*
X321860Y412421D1*
X322238Y414808D1*
X322985Y417106D1*
X324082Y419259D1*
X325502Y421214D1*
X327211Y422923D1*
X329166Y424343D1*
X331319Y425440D1*
X333618Y426187D1*
X336004Y426565D1*
X387213Y426613D1*
X436846Y426565D1*
X439233Y426187D1*
X441531Y425440D1*
X443684Y424343D1*
X445639Y422923D1*
X447348Y421214D1*
X448769Y419259D1*
X449866Y417106D1*
X450612Y414808D1*
X450990Y412421D1*
X451038Y361213D1*
X450990Y311579D1*
X450612Y309192D1*
X449866Y306894D1*
X448769Y304741D1*
X447348Y302786D1*
X445639Y301077D1*
X443684Y299657D1*
X441531Y298560D1*
X439233Y297813D1*
X436846Y297435D1*
X435633Y297388D1*
X2593213Y1394176D2*
X2595783Y1395722D1*
X2598600Y1396739D1*
X2608493Y1398969D1*
X2611938Y1399164D1*
X2636555Y1399034D1*
X2646528Y1396828D1*
X2649370Y1395881D1*
X2651977Y1394399D1*
X2660314Y1387744D1*
X2662323Y1385523D1*
X2663408Y1383840D1*
X2668031Y1374227D1*
X2668878Y1371353D1*
X2669125Y1369366D1*
X2669119Y1358699D1*
X2668635Y1355743D1*
X2667996Y1353845D1*
X2663363Y1344237D1*
X2661644Y1341784D1*
X2660245Y1340352D1*
X2651902Y1333705D1*
X2649289Y1332241D1*
X2647407Y1331557D1*
X2637006Y1329189D1*
X2633560Y1328994D1*
X2608944Y1329123D1*
X2598970Y1331329D1*
X2596129Y1332277D1*
X2593521Y1333758D1*
X2585185Y1340414D1*
X2583176Y1342635D1*
X2582091Y1344318D1*
X2577468Y1353931D1*
X2576621Y1356804D1*
X2576374Y1358791D1*
X2576379Y1369458D1*
X2576863Y1372414D1*
X2577503Y1374312D1*
X2582136Y1383920D1*
X2583855Y1386373D1*
X2585254Y1387806D1*
X2592742Y1393812D1*
X2655209Y1336301D2*
X2655203Y1336297D1*
X2424572Y1056674D2*
X2435075Y1058938D1*
X2445529Y1059006D1*
X2460478D1*
X2457609Y1061909D1*
X2455008Y1065488D1*
X2453000Y1069431D1*
X2451632Y1073638D1*
X2450940Y1078008D1*
Y1082433D1*
X2451632Y1086803D1*
X2453000Y1091010D1*
X2455008Y1094952D1*
X2457609Y1098532D1*
X2460737Y1101660D1*
X2464317Y1104261D1*
X2468259Y1106270D1*
X2472467Y1107637D1*
X2476836Y1108329D1*
X2481261D1*
X2485631Y1107637D1*
X2489838Y1106270D1*
X2493781Y1104261D1*
X2497360Y1101660D1*
X2500488Y1098532D1*
X2503089Y1094952D1*
X2505098Y1091010D1*
X2506465Y1086803D1*
X2507157Y1082433D1*
Y1078008D1*
X2506465Y1073638D1*
X2505098Y1069431D1*
X2503089Y1065488D1*
X2500488Y1061909D1*
X2497360Y1058781D1*
X2493667Y1056117D1*
X2496414Y1054793D1*
X2500324Y1051827D1*
X2506307Y1046890D1*
X2508167Y1044543D1*
X2510403Y1040174D1*
X2513651Y1033130D1*
X2514309Y1030208D1*
X2514428Y1025302D1*
X2514298Y1017547D1*
X2513623Y1014628D1*
X2511601Y1010156D1*
X2508119Y1003225D1*
X2506245Y1000889D1*
X2502483Y997737D1*
X2496339Y993003D1*
X2493636Y991711D1*
X2488879Y990504D1*
X2481290Y988905D1*
X2470836Y988836D1*
X2435530Y988869D1*
X2432127Y989445D1*
X2422646Y991742D1*
X2419951Y993049D1*
X2416041Y996016D1*
X2410058Y1000952D1*
X2408198Y1003300D1*
X2405962Y1007669D1*
X2402714Y1014712D1*
X2402056Y1017634D1*
X2401937Y1022541D1*
X2402013Y1029830D1*
X2402599Y1032767D1*
X2403896Y1035884D1*
X2408246Y1044617D1*
X2410120Y1046954D1*
X2413882Y1050105D1*
X2420026Y1054839D1*
X2422729Y1056131D1*
X2423683Y1056443D1*
X2500485Y996144D2*
X2500479Y996139D1*
X2424572Y1396831D2*
X2435075Y1399095D1*
X2445529Y1399164D1*
X2480835Y1399131D1*
X2484238Y1398555D1*
X2493719Y1396258D1*
X2496414Y1394951D1*
X2500324Y1391984D1*
X2506307Y1387048D1*
X2508167Y1384700D1*
X2510403Y1380331D1*
X2513651Y1373288D1*
X2514309Y1370366D1*
X2514427Y1365459D1*
X2514298Y1357704D1*
X2513623Y1354786D1*
X2511601Y1350314D1*
X2508119Y1343383D1*
X2506245Y1341046D1*
X2502483Y1337895D1*
X2496339Y1333161D1*
X2493781Y1331820D1*
X2497360Y1329219D1*
X2500488Y1326091D1*
X2503089Y1322512D1*
X2505098Y1318569D1*
X2506465Y1314362D1*
X2507157Y1309992D1*
Y1305567D1*
X2506465Y1301197D1*
X2505098Y1296990D1*
X2503089Y1293048D1*
X2500488Y1289468D1*
X2497360Y1286340D1*
X2493781Y1283739D1*
X2489838Y1281730D1*
X2485631Y1280363D1*
X2481261Y1279671D1*
X2476836D1*
X2472467Y1280363D1*
X2468259Y1281730D1*
X2464317Y1283739D1*
X2460737Y1286340D1*
X2457609Y1289468D1*
X2455008Y1293048D1*
X2453000Y1296990D1*
X2451632Y1301197D1*
X2450940Y1305567D1*
Y1309992D1*
X2451632Y1314362D1*
X2453000Y1318569D1*
X2455008Y1322512D1*
X2457609Y1326091D1*
X2460490Y1328990D1*
X2435530Y1329026D1*
X2432127Y1329602D1*
X2422646Y1331899D1*
X2419951Y1333207D1*
X2416041Y1336173D1*
X2410389Y1340777D1*
X2408458Y1343066D1*
X2406830Y1346024D1*
X2402714Y1354870D1*
X2402056Y1357792D1*
X2401937Y1362698D1*
X2402067Y1370453D1*
X2402742Y1373372D1*
X2404764Y1377844D1*
X2408246Y1384775D1*
X2410120Y1387111D1*
X2413882Y1390263D1*
X2420026Y1394997D1*
X2422729Y1396289D1*
X2423683Y1396600D1*
X2500485Y1336301D2*
X2500479Y1336297D1*
X2598982Y1056673D2*
X2609485Y1058938D1*
X2619938Y1059006D1*
X2636555Y1058877D1*
X2646528Y1056671D1*
X2649370Y1055723D1*
X2651977Y1054242D1*
X2660314Y1047586D1*
X2662323Y1045365D1*
X2663408Y1043682D1*
X2668031Y1034069D1*
X2668877Y1031196D1*
X2669125Y1029209D1*
X2669119Y1018542D1*
X2668635Y1015586D1*
X2667996Y1013688D1*
X2663363Y1004080D1*
X2661644Y1001627D1*
X2660245Y1000194D1*
X2651902Y993548D1*
X2649289Y992083D1*
X2647407Y991400D1*
X2637006Y989032D1*
X2633560Y988836D1*
X2609864Y988874D1*
X2606537Y989445D1*
X2597055Y991742D1*
X2594360Y993049D1*
X2590450Y996016D1*
X2584468Y1000952D1*
X2582607Y1003300D1*
X2580371Y1007669D1*
X2577123Y1014712D1*
X2576465Y1017634D1*
X2576347Y1022541D1*
X2576476Y1030296D1*
X2577151Y1033214D1*
X2579173Y1037686D1*
X2582655Y1044617D1*
X2584529Y1046954D1*
X2588292Y1050105D1*
X2594436Y1054839D1*
X2597138Y1056131D1*
X2598092Y1056443D1*
X2655209Y996144D2*
X2655203Y996139D1*
X1614155Y1057427D2*
X1688678D1*
X1688751Y1032900D1*
X1764512D1*
X1767457Y1035010D1*
X1771148Y1036890D1*
X1775088Y1038171D1*
X1779179Y1038819D1*
X1783322D1*
X1787414Y1038171D1*
X1791353Y1036890D1*
X1795045Y1035010D1*
X1798396Y1032575D1*
X1801067Y1029925D1*
X1811237Y1040087D1*
X1811829Y1043663D1*
X1813110Y1047603D1*
X1814990Y1051294D1*
X1817425Y1054645D1*
X1820075Y1057316D1*
X1734488Y1143002D1*
X1732606Y1145592D1*
X1731153Y1148444D1*
X1730164Y1151488D1*
X1729663Y1154650D1*
X1729600Y1181251D1*
Y1362676D1*
X1727609Y1359482D1*
X1726651Y1358268D1*
X1726588Y1185901D1*
X1726087Y1182739D1*
X1725098Y1179695D1*
X1723645Y1176842D1*
X1721763Y1174253D1*
X1702998Y1155399D1*
X1614154Y1066555D1*
X1614149Y1057441D1*
X1688678Y992095D2*
Y967572D1*
X1614167D1*
X1614087Y954649D1*
X1613586Y951487D1*
X1612597Y948443D1*
X1611143Y945590D1*
X1609262Y943001D1*
X1590497Y924147D1*
X1587776Y921426D1*
X1588540Y916025D1*
X1588678Y912500D1*
X1588540Y908975D1*
X1588125Y905472D1*
X1587437Y902012D1*
X1586479Y898617D1*
X1585258Y895307D1*
X1583781Y892103D1*
X1582058Y889025D1*
X1580098Y886092D1*
X1577914Y883322D1*
X1575519Y880731D1*
X1572929Y878337D1*
X1570158Y876153D1*
X1567225Y874193D1*
X1564147Y872469D1*
X1560944Y870992D1*
X1557634Y869771D1*
X1554239Y868814D1*
X1550779Y868126D1*
X1547276Y867711D1*
X1543751Y867572D1*
X1540226Y867711D1*
X1536722Y868126D1*
X1533263Y868814D1*
X1529867Y869771D1*
X1526558Y870992D1*
X1523354Y872469D1*
X1520276Y874193D1*
X1517343Y876153D1*
X1514158Y878720D1*
X1514149Y845956D1*
X1627209Y732892D1*
X1845350Y732837D1*
X1846947Y732648D1*
X1848351Y733751D1*
Y1013419D1*
X1845658Y1012392D1*
X1841630Y1011425D1*
X1840094Y1011243D1*
X1832908Y1004058D1*
X1832837Y935899D1*
X1832336Y932738D1*
X1831347Y929693D1*
X1829894Y926841D1*
X1828012Y924251D1*
X1809247Y905397D1*
X1800749Y896988D1*
X1798159Y895106D1*
X1795307Y893653D1*
X1792262Y892664D1*
X1789101Y892163D1*
X1762500Y892100D1*
X1683770D1*
X1682058Y889025D1*
X1680098Y886092D1*
X1677914Y883322D1*
X1675519Y880731D1*
X1672929Y878337D1*
X1670158Y876153D1*
X1667225Y874193D1*
X1664147Y872469D1*
X1660944Y870992D1*
X1657634Y869771D1*
X1654239Y868814D1*
X1650779Y868126D1*
X1647276Y867711D1*
X1643751Y867572D1*
X1640226Y867711D1*
X1636722Y868126D1*
X1633263Y868814D1*
X1629867Y869771D1*
X1626558Y870992D1*
X1623354Y872469D1*
X1620276Y874193D1*
X1617343Y876153D1*
X1614573Y878337D1*
X1611982Y880731D1*
X1609587Y883322D1*
X1607403Y886092D1*
X1605444Y889025D1*
X1603720Y892103D1*
X1602243Y895307D1*
X1601022Y898617D1*
X1600064Y902012D1*
X1599376Y905472D1*
X1598962Y908975D1*
X1598823Y912500D1*
X1598962Y916025D1*
X1599376Y919528D1*
X1600064Y922988D1*
X1601022Y926383D1*
X1602243Y929693D1*
X1603720Y932897D1*
X1605444Y935975D1*
X1607403Y938908D1*
X1609587Y941678D1*
X1611982Y944269D1*
X1614573Y946663D1*
X1617343Y948847D1*
X1620276Y950807D1*
X1623354Y952531D1*
X1626558Y954008D1*
X1629867Y955229D1*
X1633263Y956186D1*
X1636722Y956874D1*
X1640226Y957289D1*
X1643751Y957428D1*
X1647276Y957289D1*
X1650779Y956874D1*
X1654239Y956186D1*
X1657634Y955229D1*
X1660944Y954008D1*
X1664147Y952531D1*
X1667225Y950807D1*
X1670158Y948847D1*
X1672929Y946663D1*
X1675519Y944269D1*
X1677914Y941678D1*
X1680098Y938908D1*
X1682058Y935975D1*
X1683775Y932909D1*
X1779044Y932900D1*
X1792092Y945942D1*
X1792100Y988418D1*
X1789409Y987392D1*
X1785381Y986425D1*
X1781251Y986100D1*
X1777121Y986425D1*
X1773093Y987392D1*
X1769265Y988977D1*
X1765733Y991142D1*
X1764519Y992099D1*
X1688692Y992100D1*
X1514158Y1046280D2*
X1517343Y1048847D1*
X1520276Y1050807D1*
X1523342Y1052524D1*
X1523414Y1064101D1*
X1523914Y1067262D1*
X1524903Y1070307D1*
X1526357Y1073159D1*
X1528238Y1075749D1*
X1547003Y1094603D1*
X1586239Y1133839D1*
X1586829Y1137412D1*
X1588110Y1141352D1*
X1589990Y1145043D1*
X1592425Y1148395D1*
X1595355Y1151324D1*
X1598706Y1153759D1*
X1602397Y1155640D1*
X1606337Y1156920D1*
X1610429Y1157568D1*
X1614571D1*
X1618663Y1156920D1*
X1622603Y1155640D1*
X1626294Y1153759D1*
X1629645Y1151324D1*
X1632575Y1148395D1*
X1634987Y1145077D1*
X1685846Y1195947D1*
X1685851Y1358224D1*
X1683741Y1361206D1*
X1681860Y1364897D1*
X1680580Y1368837D1*
X1679932Y1372929D1*
Y1377071D1*
X1680580Y1381163D1*
X1681860Y1385103D1*
X1683741Y1388794D1*
X1685850Y1391732D1*
X1685851Y1410293D1*
X1572791Y1523359D1*
X898399Y1523413D1*
X895238Y1523914D1*
X892193Y1524903D1*
X889341Y1526357D1*
X886751Y1528238D1*
X867897Y1547003D1*
X853686Y1561214D1*
X850088Y1561829D1*
X846148Y1563110D1*
X842457Y1564990D1*
X839105Y1567425D1*
X836176Y1570355D1*
X833741Y1573706D1*
X831860Y1577397D1*
X830580Y1581337D1*
X829932Y1585429D1*
Y1589571D1*
X830580Y1593663D1*
X831860Y1597603D1*
X833741Y1601294D1*
X836176Y1604645D1*
X839105Y1607575D1*
X842457Y1610010D1*
X846148Y1611890D1*
X850088Y1613171D1*
X854179Y1613819D1*
X858322D1*
X862414Y1613171D1*
X866353Y1611890D1*
X870045Y1610010D1*
X873396Y1607575D1*
X876325Y1604645D1*
X878760Y1601294D1*
X880641Y1597603D1*
X881921Y1593663D1*
X882507Y1590094D1*
X908448Y1564153D1*
X1582850Y1564088D1*
X1586012Y1563587D1*
X1589056Y1562598D1*
X1591908Y1561145D1*
X1594498Y1559263D1*
X1613352Y1540498D1*
X1721763Y1431998D1*
X1723645Y1429408D1*
X1725100Y1426550D1*
X1727121Y1426075D1*
X1731251Y1426400D1*
X1735381Y1426075D1*
X1735849Y1425982D1*
Y1666543D1*
X1703238Y1699251D1*
X1701357Y1701841D1*
X1699903Y1704693D1*
X1698914Y1707738D1*
X1698413Y1710899D1*
X1698351Y1737500D1*
Y1764512D1*
X1696263Y1767422D1*
X1631998Y1703237D1*
X1629408Y1701355D1*
X1626556Y1699902D1*
X1623512Y1698913D1*
X1620350Y1698412D1*
X1593749Y1698349D1*
X993925D1*
X992273Y1694264D1*
X990109Y1690732D1*
X987418Y1687582D1*
X984268Y1684891D1*
X980736Y1682727D1*
X976909Y1681141D1*
X972881Y1680174D1*
X968751Y1679849D1*
X964621Y1680174D1*
X960593Y1681141D1*
X956765Y1682727D1*
X953233Y1684891D1*
X950083Y1687582D1*
X947393Y1690732D1*
X945228Y1694264D1*
X943643Y1698091D1*
X942676Y1702119D1*
X942351Y1706249D1*
X942676Y1710379D1*
X943643Y1714407D1*
X945228Y1718235D1*
X947393Y1721767D1*
X950172Y1724999D1*
X947393Y1728233D1*
X945228Y1731765D1*
X943643Y1735593D1*
X942676Y1739621D1*
X942351Y1743751D1*
X942676Y1747881D1*
X943643Y1751909D1*
X945228Y1755736D1*
X947393Y1759268D1*
X950083Y1762418D1*
X953233Y1765109D1*
X956765Y1767273D1*
X960593Y1768859D1*
X964621Y1769826D1*
X968751Y1770151D1*
X972881Y1769826D1*
X976909Y1768859D1*
X980736Y1767273D1*
X984268Y1765109D1*
X987418Y1762418D1*
X990109Y1759268D1*
X991022Y1757901D1*
X1597794Y1757900D1*
X1780079Y1940178D1*
X1779849Y1943751D1*
X1780174Y1947881D1*
X1781141Y1951909D1*
X1782727Y1955736D1*
X1784891Y1959268D1*
X1787582Y1962418D1*
X1790732Y1965109D1*
X1794264Y1967273D1*
X1798091Y1968859D1*
X1802119Y1969826D1*
X1806249Y1970151D1*
X1810379Y1969826D1*
X1814407Y1968859D1*
X1818235Y1967273D1*
X1821767Y1965109D1*
X1824917Y1962418D1*
X1827607Y1959268D1*
X1829772Y1955736D1*
X1831357Y1951909D1*
X1832650Y1946942D1*
X1832901Y1943751D1*
X1832650Y1940559D1*
X1831357Y1935593D1*
X1829772Y1931765D1*
X1827607Y1928233D1*
X1824917Y1925083D1*
X1821767Y1922393D1*
X1818235Y1920228D1*
X1817477Y1919879D1*
X1742999Y1845398D1*
X1839512Y1845400D1*
X1842455Y1847510D1*
X1846147Y1849390D1*
X1850086Y1850671D1*
X1854178Y1851319D1*
X1858321D1*
X1862412Y1850671D1*
X1866352Y1849390D1*
X1870043Y1847510D1*
X1873395Y1845075D1*
X1876324Y1842145D1*
X1878759Y1838794D1*
X1880640Y1835103D1*
X1881920Y1831163D1*
X1882568Y1827071D1*
Y1822929D1*
X1881920Y1818837D1*
X1880640Y1814897D1*
X1878759Y1811206D1*
X1876324Y1807855D1*
X1873395Y1804925D1*
X1870043Y1802490D1*
X1866352Y1800610D1*
X1862412Y1799329D1*
X1858321Y1798681D1*
X1854178D1*
X1850086Y1799329D1*
X1846147Y1800610D1*
X1842455Y1802490D1*
X1839517Y1804599D1*
X1733456Y1804600D1*
X1734268Y1802607D1*
X1737418Y1799917D1*
X1740109Y1796767D1*
X1742273Y1793235D1*
X1743859Y1789407D1*
X1744826Y1785379D1*
X1745151Y1781249D1*
X1744826Y1777119D1*
X1743859Y1773091D1*
X1742273Y1769264D1*
X1740109Y1765732D1*
X1739151Y1764517D1*
Y1720956D1*
X1771762Y1688250D1*
X1773643Y1685660D1*
X1775097Y1682808D1*
X1776086Y1679764D1*
X1776587Y1676602D1*
X1776649Y1650001D1*
Y1488497D1*
X1781251Y1488900D1*
X1785381Y1488575D1*
X1789409Y1487608D1*
X1793236Y1486023D1*
X1796768Y1483858D1*
X1799918Y1481168D1*
X1802609Y1478018D1*
X1804773Y1474485D1*
X1806359Y1470658D1*
X1807326Y1466630D1*
X1807507Y1465094D1*
X1854606Y1417995D1*
X1854663Y1457850D1*
X1855164Y1461012D1*
X1856153Y1464056D1*
X1857606Y1466908D1*
X1859488Y1469498D1*
X1873350Y1483449D1*
X1873351Y1539512D1*
X1871241Y1542457D1*
X1869360Y1546148D1*
X1868080Y1550088D1*
X1867432Y1554179D1*
Y1558322D1*
X1868080Y1562414D1*
X1869360Y1566353D1*
X1871241Y1570045D1*
X1873676Y1573396D1*
X1876605Y1576325D1*
X1879957Y1578760D1*
X1883648Y1580641D1*
X1887588Y1581921D1*
X1891679Y1582569D1*
X1895822D1*
X1899914Y1581921D1*
X1903853Y1580641D1*
X1907545Y1578760D1*
X1910896Y1576325D1*
X1913825Y1573396D1*
X1916260Y1570045D1*
X1918141Y1566353D1*
X1919421Y1562414D1*
X1920069Y1558322D1*
Y1554179D1*
X1919421Y1550088D1*
X1918141Y1546148D1*
X1916260Y1542457D1*
X1914151Y1539519D1*
X1914088Y1473399D1*
X1913587Y1470238D1*
X1912598Y1467193D1*
X1911145Y1464341D1*
X1909263Y1461751D1*
X1895401Y1447800D1*
X1895400Y1369745D1*
X1900000Y1370151D1*
X1904130Y1369826D1*
X1908158Y1368859D1*
X1911985Y1367273D1*
X1915518Y1365109D1*
X1918668Y1362418D1*
X1921358Y1359268D1*
X1923523Y1355736D1*
X1925108Y1351909D1*
X1926075Y1347881D1*
X1926400Y1343751D1*
X1926075Y1339621D1*
X1925108Y1335593D1*
X1923523Y1331765D1*
X1921358Y1328233D1*
X1920401Y1327019D1*
X1920400Y1139708D1*
X1939712Y1120388D1*
X2039101Y1120337D1*
X2042262Y1119836D1*
X2045307Y1118847D1*
X2048159Y1117394D1*
X2050749Y1115512D1*
X2069603Y1096747D1*
X2077571Y1088779D1*
X2081163Y1088171D1*
X2085103Y1086890D1*
X2088794Y1085010D1*
X2092145Y1082575D1*
X2095075Y1079645D1*
X2097510Y1076294D1*
X2099390Y1072603D1*
X2100671Y1068663D1*
X2101319Y1064571D1*
Y1060429D1*
X2100982Y1057902D1*
X2127012Y1057900D1*
X2129957Y1060010D1*
X2133648Y1061890D1*
X2137588Y1063171D1*
X2141679Y1063819D1*
X2145822D1*
X2149914Y1063171D1*
X2153853Y1061890D1*
X2157545Y1060010D1*
X2160896Y1057575D1*
X2163825Y1054645D1*
X2166260Y1051294D1*
X2168141Y1047603D1*
X2169421Y1043663D1*
X2170069Y1039571D1*
Y1035429D1*
X2169421Y1031337D1*
X2168141Y1027397D1*
X2166260Y1023706D1*
X2163825Y1020355D1*
X2160896Y1017425D1*
X2157545Y1014990D1*
X2153853Y1013110D1*
X2149914Y1011829D1*
X2145822Y1011181D1*
X2145118Y1011154D1*
X2144826Y1008370D1*
X2143859Y1004342D1*
X2142273Y1000515D1*
X2140109Y996982D1*
X2137418Y993832D1*
X2134268Y991142D1*
X2130736Y988977D1*
X2126909Y987392D1*
X2122881Y986425D1*
X2118751Y986100D1*
X2114621Y986425D1*
X2110593Y987392D1*
X2106765Y988977D1*
X2103233Y991142D1*
X2102019Y992099D1*
X2054649Y992163D1*
X2051487Y992664D1*
X2048443Y993653D1*
X2045590Y995106D1*
X2043001Y996988D1*
X2024147Y1015753D1*
X1997810Y1042090D1*
X1914160Y1042100D1*
X1914149Y733458D1*
X2008454Y639146D1*
X2326601Y639087D1*
X2329762Y638586D1*
X2332807Y637597D1*
X2335659Y636143D1*
X2338249Y634262D1*
X2357103Y615497D1*
X2415512Y556998D1*
X2417394Y554408D1*
X2418847Y551556D1*
X2419836Y548512D1*
X2420337Y545350D1*
X2420400Y533808D1*
X2424009Y536646D1*
X2428239Y539306D1*
X2432739Y541480D1*
X2437453Y543140D1*
X2442322Y544267D1*
X2447286Y544845D1*
X2452283Y544870D1*
X2457252Y544338D1*
X2462131Y543259D1*
X2466861Y541644D1*
X2471381Y539514D1*
X2475637Y536895D1*
X2479576Y533819D1*
X2483149Y530325D1*
X2486312Y526456D1*
X2489026Y522259D1*
X2491256Y517787D1*
X2492977Y513095D1*
X2494165Y508241D1*
X2494807Y503285D1*
X2494916Y499000D1*
X2494528Y494018D1*
X2493588Y489110D1*
X2492109Y484336D1*
X2490108Y479756D1*
X2487612Y475427D1*
X2484650Y471402D1*
X2481260Y467731D1*
X2477482Y464458D1*
X2473365Y461626D1*
X2468959Y459269D1*
X2464318Y457415D1*
X2459500Y456088D1*
X2454564Y455305D1*
X2449572Y455074D1*
X2444585Y455400D1*
X2439665Y456277D1*
X2434873Y457695D1*
X2430269Y459637D1*
X2425908Y462078D1*
X2421845Y464988D1*
X2420401Y466202D1*
X2420400Y433808D1*
X2423592Y436347D1*
X2426525Y438307D1*
X2429603Y440031D1*
X2432807Y441508D1*
X2436117Y442729D1*
X2439512Y443686D1*
X2442972Y444374D1*
X2446475Y444789D1*
X2450000Y444928D1*
X2453525Y444789D1*
X2457028Y444374D1*
X2460488Y443686D1*
X2463883Y442729D1*
X2467193Y441508D1*
X2470397Y440031D1*
X2473475Y438307D1*
X2476408Y436347D1*
X2479178Y434163D1*
X2481769Y431769D1*
X2484163Y429178D1*
X2486347Y426408D1*
X2488307Y423475D1*
X2490031Y420397D1*
X2491508Y417193D1*
X2492729Y413883D1*
X2493686Y410488D1*
X2494374Y407028D1*
X2494789Y403525D1*
X2494928Y400000D1*
X2494789Y396475D1*
X2494374Y392972D1*
X2493686Y389512D1*
X2492729Y386117D1*
X2491508Y382807D1*
X2490031Y379603D1*
X2488307Y376525D1*
X2486347Y373592D1*
X2484163Y370822D1*
X2481769Y368231D1*
X2479178Y365837D1*
X2476408Y363653D1*
X2473475Y361693D1*
X2470397Y359969D1*
X2467193Y358492D1*
X2463883Y357271D1*
X2460488Y356314D1*
X2457028Y355626D1*
X2453525Y355211D1*
X2450000Y355072D1*
X2446475Y355211D1*
X2442972Y355626D1*
X2439512Y356314D1*
X2436117Y357271D1*
X2432807Y358492D1*
X2429603Y359969D1*
X2426525Y361693D1*
X2423592Y363653D1*
X2420407Y366220D1*
X2420400Y344941D1*
X2494928Y344927D1*
Y255072D1*
X2415143D1*
X2394499Y234488D1*
X2391910Y232606D1*
X2389057Y231153D1*
X2386013Y230164D1*
X2383816Y229580D1*
X2386892Y225641D1*
X2389512Y221385D1*
X2391642Y216865D1*
X2393258Y212136D1*
X2394338Y207256D1*
X2394869Y202287D1*
X2394883Y198001D1*
X2394383Y193028D1*
X2393334Y188142D1*
X2391749Y183403D1*
X2389648Y178869D1*
X2387056Y174596D1*
X2384005Y170638D1*
X2380534Y167043D1*
X2376685Y163856D1*
X2372505Y161116D1*
X2368048Y158857D1*
X2363367Y157107D1*
X2358520Y155888D1*
X2353568Y155214D1*
X2348572Y155095D1*
X2343594Y155531D1*
X2338695Y156518D1*
X2333936Y158043D1*
X2329375Y160086D1*
X2325070Y162624D1*
X2321073Y165624D1*
X2317434Y169049D1*
X2314198Y172857D1*
X2311405Y177001D1*
X2309090Y181430D1*
X2307281Y186088D1*
X2306000Y190919D1*
X2305263Y195862D1*
X2305081Y200856D1*
X2305454Y205839D1*
X2306378Y210751D1*
X2307841Y215529D1*
X2309827Y220115D1*
X2312309Y224452D1*
X2315258Y228487D1*
X2316207Y229602D1*
X2308458Y229600D1*
X2292728Y213878D1*
X2293686Y210488D1*
X2294374Y207028D1*
X2294789Y203525D1*
X2294928Y200000D1*
X2294789Y196475D1*
X2294374Y192972D1*
X2293686Y189512D1*
X2292729Y186117D1*
X2291508Y182807D1*
X2290031Y179603D1*
X2288307Y176525D1*
X2286347Y173592D1*
X2284163Y170822D1*
X2281769Y168231D1*
X2279178Y165837D1*
X2276408Y163653D1*
X2273475Y161693D1*
X2270397Y159969D1*
X2267193Y158492D1*
X2263883Y157271D1*
X2260488Y156314D1*
X2257028Y155626D1*
X2253525Y155211D1*
X2250000Y155072D1*
X2246475Y155211D1*
X2242972Y155626D1*
X2239512Y156314D1*
X2236117Y157271D1*
X2232807Y158492D1*
X2229603Y159969D1*
X2226525Y161693D1*
X2223592Y163653D1*
X2220822Y165837D1*
X2218231Y168231D1*
X2215837Y170822D1*
X2213653Y173592D1*
X2211693Y176525D1*
X2209969Y179603D1*
X2208492Y182807D1*
X2207271Y186117D1*
X2206314Y189512D1*
X2205626Y192972D1*
X2205211Y196475D1*
X2205072Y200000D1*
X2205211Y203525D1*
X2205626Y207028D1*
X2206314Y210488D1*
X2207271Y213883D1*
X2208492Y217193D1*
X2209969Y220397D1*
X2211693Y223475D1*
X2213653Y226408D1*
X2215837Y229178D1*
X2218231Y231769D1*
X2220822Y234163D1*
X2223592Y236347D1*
X2226525Y238307D1*
X2229603Y240031D1*
X2232807Y241508D1*
X2236117Y242729D1*
X2239512Y243686D1*
X2242972Y244374D1*
X2246475Y244789D1*
X2250000Y244928D1*
X2253525Y244789D1*
X2257028Y244374D1*
X2260488Y243686D1*
X2263870Y242732D1*
X2286751Y265512D1*
X2289341Y267394D1*
X2292193Y268847D1*
X2295238Y269836D1*
X2298399Y270337D1*
X2316191Y270400D1*
X2313026Y274477D1*
X2310420Y278742D1*
X2308304Y283269D1*
X2306704Y288003D1*
X2305639Y292886D1*
X2305124Y297857D1*
X2305163Y302854D1*
X2305758Y307816D1*
X2306899Y312681D1*
X2308574Y317390D1*
X2310762Y321883D1*
X2313435Y326105D1*
X2316560Y330005D1*
X2320100Y333533D1*
X2324009Y336646D1*
X2328239Y339306D1*
X2332739Y341480D1*
X2337453Y343140D1*
X2342322Y344267D1*
X2347286Y344845D1*
X2352283Y344870D1*
X2357252Y344338D1*
X2362131Y343259D1*
X2366861Y341644D1*
X2371381Y339514D1*
X2375637Y336895D1*
X2379603Y333796D1*
X2379600Y366191D1*
X2375874Y363271D1*
X2371634Y360624D1*
X2367127Y358465D1*
X2362409Y356820D1*
X2357536Y355709D1*
X2352571Y355146D1*
X2347573Y355138D1*
X2342606Y355685D1*
X2337730Y356780D1*
X2333006Y358411D1*
X2328492Y360555D1*
X2324244Y363188D1*
X2320401Y366202D1*
X2320337Y348399D1*
X2319836Y345238D1*
X2318847Y342193D1*
X2317394Y339341D1*
X2315512Y336751D1*
X2296747Y317897D1*
X2292728Y313878D1*
X2293686Y310488D1*
X2294374Y307028D1*
X2294789Y303525D1*
X2294928Y300000D1*
X2294789Y296475D1*
X2294374Y292972D1*
X2293686Y289512D1*
X2292729Y286117D1*
X2291508Y282807D1*
X2290031Y279603D1*
X2288307Y276525D1*
X2286347Y273592D1*
X2284163Y270822D1*
X2281769Y268231D1*
X2279178Y265837D1*
X2276408Y263653D1*
X2273475Y261693D1*
X2270397Y259969D1*
X2267193Y258492D1*
X2263883Y257271D1*
X2260488Y256314D1*
X2257028Y255626D1*
X2253525Y255211D1*
X2250000Y255072D1*
X2246475Y255211D1*
X2242972Y255626D1*
X2239512Y256314D1*
X2236117Y257271D1*
X2232807Y258492D1*
X2229603Y259969D1*
X2226525Y261693D1*
X2223592Y263653D1*
X2220822Y265837D1*
X2218231Y268231D1*
X2215837Y270822D1*
X2213653Y273592D1*
X2211693Y276525D1*
X2209969Y279603D1*
X2208492Y282807D1*
X2207271Y286117D1*
X2206314Y289512D1*
X2205626Y292972D1*
X2205211Y296475D1*
X2205072Y300000D1*
X2205211Y303525D1*
X2205626Y307028D1*
X2206314Y310488D1*
X2207271Y313883D1*
X2208492Y317193D1*
X2209969Y320397D1*
X2211693Y323475D1*
X2213653Y326408D1*
X2215837Y329178D1*
X2218231Y331769D1*
X2220822Y334163D1*
X2223592Y336347D1*
X2226525Y338307D1*
X2229603Y340031D1*
X2232807Y341508D1*
X2236117Y342729D1*
X2239512Y343686D1*
X2242972Y344374D1*
X2246475Y344789D1*
X2250000Y344928D1*
X2253525Y344789D1*
X2257028Y344374D1*
X2260488Y343686D1*
X2263870Y342732D1*
X2279590Y358440D1*
X2279600Y366191D1*
X2276408Y363653D1*
X2273475Y361693D1*
X2270397Y359969D1*
X2267193Y358492D1*
X2263883Y357271D1*
X2260488Y356314D1*
X2257028Y355626D1*
X2253525Y355211D1*
X2250000Y355072D1*
X2246475Y355211D1*
X2242972Y355626D1*
X2239512Y356314D1*
X2236117Y357271D1*
X2232807Y358492D1*
X2229603Y359969D1*
X2226525Y361693D1*
X2223592Y363653D1*
X2220822Y365837D1*
X2218231Y368231D1*
X2215837Y370822D1*
X2213653Y373592D1*
X2211693Y376525D1*
X2209969Y379603D1*
X2208492Y382807D1*
X2207271Y386117D1*
X2206314Y389512D1*
X2205626Y392972D1*
X2205211Y396475D1*
X2205072Y400000D1*
X2205211Y403525D1*
X2205626Y407028D1*
X2206314Y410488D1*
X2207268Y413870D1*
X2184488Y436751D1*
X2182606Y439341D1*
X2181153Y442193D1*
X2180597Y443702D1*
X2180400Y435000D1*
Y433066D1*
X2184163Y429178D1*
X2186347Y426408D1*
X2188307Y423475D1*
X2190031Y420397D1*
X2191508Y417193D1*
X2192729Y413883D1*
X2193686Y410488D1*
X2194374Y407028D1*
X2194789Y403525D1*
X2194928Y400000D1*
X2194789Y396475D1*
X2194374Y392972D1*
X2193686Y389512D1*
X2192729Y386117D1*
X2191508Y382807D1*
X2190031Y379603D1*
X2188307Y376525D1*
X2186347Y373592D1*
X2184163Y370822D1*
X2180403Y366969D1*
X2180400Y333066D1*
X2184163Y329178D1*
X2186347Y326408D1*
X2188307Y323475D1*
X2190031Y320397D1*
X2191508Y317193D1*
X2192729Y313883D1*
X2193686Y310488D1*
X2194374Y307028D1*
X2194789Y303525D1*
X2194928Y300000D1*
X2194789Y296475D1*
X2194374Y292972D1*
X2193686Y289512D1*
X2192729Y286117D1*
X2191508Y282807D1*
X2190031Y279603D1*
X2188307Y276525D1*
X2186347Y273592D1*
X2184163Y270822D1*
X2180403Y266969D1*
X2180400Y233066D1*
X2184163Y229178D1*
X2186347Y226408D1*
X2188307Y223475D1*
X2190031Y220397D1*
X2191508Y217193D1*
X2192729Y213883D1*
X2193686Y210488D1*
X2194374Y207028D1*
X2194789Y203525D1*
X2194928Y200000D1*
X2194789Y196475D1*
X2194374Y192972D1*
X2193686Y189512D1*
X2192729Y186117D1*
X2191508Y182807D1*
X2190031Y179603D1*
X2188307Y176525D1*
X2186347Y173592D1*
X2184163Y170822D1*
X2181769Y168231D1*
X2179178Y165837D1*
X2176408Y163653D1*
X2173475Y161693D1*
X2170397Y159969D1*
X2167193Y158492D1*
X2163883Y157271D1*
X2160488Y156314D1*
X2157028Y155626D1*
X2153525Y155211D1*
X2150000Y155072D1*
X2146475Y155211D1*
X2142972Y155626D1*
X2139512Y156314D1*
X2136117Y157271D1*
X2132807Y158492D1*
X2129603Y159969D1*
X2126525Y161693D1*
X2123592Y163653D1*
X2120822Y165837D1*
X2118231Y168231D1*
X2115837Y170822D1*
X2113653Y173592D1*
X2111693Y176525D1*
X2109969Y179603D1*
X2108492Y182807D1*
X2107271Y186117D1*
X2106314Y189512D1*
X2105626Y192972D1*
X2105211Y196475D1*
X2105072Y200000D1*
X2105211Y203525D1*
X2105626Y207028D1*
X2106314Y210488D1*
X2107271Y213883D1*
X2108492Y217193D1*
X2109969Y220397D1*
X2111693Y223475D1*
X2113653Y226408D1*
X2115837Y229178D1*
X2119597Y233031D1*
X2119600Y266934D1*
X2115837Y270822D1*
X2113653Y273592D1*
X2111376Y277090D1*
X2094941Y277100D1*
X2094928Y255072D1*
X2005073D1*
Y326225D1*
X1925749Y246988D1*
X1923159Y245106D1*
X1920307Y243653D1*
X1917262Y242664D1*
X1914101Y242163D1*
X1887500Y242100D1*
X1485899Y242163D1*
X1482738Y242664D1*
X1479693Y243653D1*
X1476841Y245106D1*
X1474251Y246988D1*
X1455397Y265753D1*
X1446988Y274251D1*
X1445106Y276841D1*
X1443653Y279693D1*
X1442664Y282738D1*
X1442163Y285899D1*
X1442100Y312500D1*
Y322637D1*
X1438408Y319653D1*
X1435475Y317693D1*
X1432397Y315969D1*
X1429193Y314492D1*
X1425883Y313271D1*
X1422488Y312314D1*
X1419028Y311626D1*
X1415525Y311211D1*
X1412000Y311072D1*
X1408475Y311211D1*
X1404972Y311626D1*
X1401512Y312314D1*
X1398117Y313271D1*
X1394807Y314492D1*
X1391603Y315969D1*
X1388525Y317693D1*
X1385592Y319653D1*
X1382898Y321777D1*
X1382900Y170958D1*
X1408455Y145395D1*
X1508262Y145400D1*
X1511206Y147510D1*
X1514897Y149390D1*
X1518837Y150671D1*
X1522929Y151319D1*
X1527071D1*
X1531163Y150671D1*
X1535103Y149390D1*
X1538794Y147510D1*
X1542145Y145075D1*
X1545075Y142145D1*
X1547510Y138794D1*
X1549390Y135103D1*
X1550671Y131163D1*
X1551319Y127071D1*
Y122929D1*
X1550671Y118837D1*
X1549390Y114897D1*
X1547510Y111206D1*
X1545075Y107855D1*
X1542145Y104925D1*
X1538794Y102490D1*
X1535103Y100610D1*
X1531163Y99329D1*
X1527071Y98681D1*
X1522929D1*
X1518837Y99329D1*
X1514897Y100610D1*
X1511206Y102490D1*
X1508268Y104599D1*
X1398399Y104663D1*
X1395238Y105164D1*
X1392193Y106153D1*
X1389341Y107606D1*
X1386751Y109488D1*
X1367897Y128253D1*
X1346988Y149251D1*
X1345106Y151841D1*
X1343653Y154693D1*
X1342664Y157738D1*
X1342163Y160899D1*
X1342100Y187500D1*
Y322637D1*
X1338408Y319653D1*
X1335475Y317693D1*
X1332397Y315969D1*
X1329193Y314492D1*
X1325883Y313271D1*
X1322488Y312314D1*
X1319028Y311626D1*
X1315525Y311211D1*
X1312000Y311072D1*
X1308475Y311211D1*
X1304972Y311626D1*
X1301512Y312314D1*
X1298117Y313271D1*
X1294807Y314492D1*
X1291603Y315969D1*
X1288525Y317693D1*
X1285592Y319653D1*
X1282898Y321777D1*
X1282900Y195957D1*
X1327569Y151281D1*
X1331163Y150671D1*
X1335103Y149390D1*
X1338794Y147510D1*
X1342145Y145075D1*
X1345075Y142145D1*
X1347510Y138794D1*
X1349390Y135103D1*
X1350671Y131163D1*
X1351319Y127071D1*
Y122929D1*
X1350671Y118837D1*
X1349390Y114897D1*
X1347510Y111206D1*
X1345075Y107855D1*
X1342145Y104925D1*
X1338794Y102490D1*
X1335103Y100610D1*
X1331163Y99329D1*
X1327071Y98681D1*
X1322929D1*
X1318837Y99329D1*
X1314897Y100610D1*
X1311206Y102490D1*
X1307855Y104925D1*
X1304925Y107855D1*
X1302490Y111206D1*
X1300610Y114897D1*
X1299329Y118837D1*
X1298743Y122406D1*
X1246988Y174251D1*
X1245106Y176841D1*
X1243653Y179693D1*
X1242664Y182738D1*
X1242163Y185899D1*
X1242100Y212500D1*
Y322637D1*
X1238408Y319653D1*
X1235475Y317693D1*
X1232397Y315969D1*
X1229193Y314492D1*
X1225883Y313271D1*
X1222488Y312314D1*
X1219028Y311626D1*
X1215525Y311211D1*
X1212000Y311072D1*
X1208475Y311211D1*
X1204972Y311626D1*
X1201512Y312314D1*
X1198117Y313271D1*
X1194807Y314492D1*
X1191603Y315969D1*
X1188525Y317693D1*
X1185592Y319653D1*
X1182898Y321777D1*
X1182837Y298399D1*
X1182336Y295238D1*
X1181347Y292193D1*
X1179894Y289341D1*
X1178012Y286751D1*
X1159247Y267897D1*
X1145395Y254045D1*
X1145400Y141738D1*
X1147510Y138794D1*
X1149390Y135103D1*
X1150671Y131163D1*
X1151319Y127071D1*
Y122929D1*
X1150671Y118837D1*
X1149390Y114897D1*
X1147510Y111206D1*
X1145075Y107855D1*
X1142145Y104925D1*
X1138794Y102490D1*
X1135103Y100610D1*
X1131163Y99329D1*
X1127071Y98681D1*
X1122929D1*
X1118837Y99329D1*
X1114897Y100610D1*
X1111206Y102490D1*
X1107855Y104925D1*
X1104925Y107855D1*
X1102490Y111206D1*
X1100610Y114897D1*
X1099329Y118837D1*
X1098681Y122929D1*
Y127071D1*
X1099329Y131163D1*
X1100610Y135103D1*
X1102490Y138794D1*
X1104599Y141732D1*
X1104663Y264101D1*
X1105164Y267262D1*
X1106153Y270307D1*
X1107606Y273159D1*
X1109488Y275749D1*
X1128253Y294603D1*
X1142105Y308455D1*
X1142100Y322637D1*
X1138408Y319653D1*
X1135475Y317693D1*
X1132397Y315969D1*
X1129193Y314492D1*
X1125883Y313271D1*
X1122488Y312314D1*
X1119028Y311626D1*
X1115525Y311211D1*
X1112000Y311072D1*
X1108475Y311211D1*
X1104972Y311626D1*
X1101512Y312314D1*
X1098117Y313271D1*
X1094807Y314492D1*
X1091603Y315969D1*
X1088525Y317693D1*
X1085592Y319653D1*
X1082822Y321837D1*
X1080231Y324231D1*
X1077837Y326822D1*
X1075653Y329592D1*
X1073693Y332525D1*
X1071969Y335603D1*
X1070492Y338807D1*
X1069271Y342117D1*
X1068314Y345512D1*
X1067626Y348972D1*
X1067211Y352475D1*
X1067072Y356000D1*
X1067211Y359525D1*
X1067626Y363028D1*
X1068314Y366488D1*
X1069271Y369883D1*
X1070492Y373193D1*
X1071969Y376397D1*
X1073693Y379475D1*
X1075653Y382408D1*
X1077837Y385178D1*
X1080231Y387769D1*
X1082822Y390163D1*
X1085592Y392347D1*
X1088525Y394307D1*
X1091591Y396024D1*
X1091600Y531488D1*
X945766Y385665D1*
X948347Y382408D1*
X950307Y379475D1*
X952031Y376397D1*
X953508Y373193D1*
X954729Y369883D1*
X955686Y366488D1*
X956374Y363028D1*
X956789Y359525D1*
X956928Y356000D1*
X956789Y352475D1*
X956374Y348972D1*
X955686Y345512D1*
X954729Y342117D1*
X953508Y338807D1*
X952031Y335603D1*
X950307Y332525D1*
X948347Y329592D1*
X946163Y326822D1*
X943769Y324231D1*
X941178Y321837D1*
X938408Y319653D1*
X935475Y317693D1*
X932397Y315969D1*
X929193Y314492D1*
X925883Y313271D1*
X922488Y312314D1*
X919028Y311626D1*
X915525Y311211D1*
X912000Y311072D1*
X908475Y311211D1*
X904972Y311626D1*
X901512Y312314D1*
X898117Y313271D1*
X894807Y314492D1*
X891603Y315969D1*
X888525Y317693D1*
X885592Y319653D1*
X882822Y321837D1*
X880231Y324231D1*
X877837Y326822D1*
X875653Y329592D1*
X873693Y332525D1*
X871969Y335603D1*
X870492Y338807D1*
X869271Y342117D1*
X868314Y345512D1*
X867626Y348972D1*
X867211Y352475D1*
X867072Y356000D1*
X867211Y359525D1*
X867626Y363028D1*
X868314Y366488D1*
X869271Y369883D1*
X870492Y373193D1*
X871969Y376397D1*
X873693Y379475D1*
X875653Y382408D1*
X877837Y385178D1*
X880231Y387769D1*
X882822Y390163D1*
X885592Y392347D1*
X888525Y394307D1*
X891603Y396031D1*
X894807Y397508D1*
X898117Y398729D1*
X902228Y399829D1*
X925763Y423362D1*
X789708Y423351D1*
X745033Y378682D1*
X744421Y375086D1*
X743141Y371147D1*
X741260Y367455D1*
X738825Y364104D1*
X735896Y361175D1*
X732545Y358740D1*
X728853Y356859D1*
X724914Y355579D1*
X720822Y354931D1*
X716679D1*
X712588Y355579D1*
X708648Y356859D1*
X704957Y358740D1*
X701605Y361175D1*
X698676Y364104D1*
X696241Y367455D1*
X694360Y371147D1*
X693080Y375086D1*
X692432Y379178D1*
Y383321D1*
X693080Y387412D1*
X694360Y391352D1*
X696241Y395043D1*
X698676Y398395D1*
X701605Y401324D1*
X704957Y403759D1*
X708648Y405640D1*
X712588Y406920D1*
X716157Y407506D1*
X768003Y459263D1*
X770593Y461145D1*
X773445Y462598D1*
X776490Y463587D1*
X779651Y464088D1*
X806252Y464151D1*
X929045D1*
X1154612Y689712D1*
X1154663Y851601D1*
X1155164Y854762D1*
X1156153Y857807D1*
X1157606Y860659D1*
X1159488Y863249D1*
X1178253Y882103D1*
X1461751Y1165512D1*
X1464341Y1167394D1*
X1467193Y1168847D1*
X1470238Y1169836D1*
X1473399Y1170337D1*
X1500000Y1170400D1*
X1510293D1*
X1517487Y1177587D1*
X1518080Y1181163D1*
X1519360Y1185103D1*
X1521241Y1188794D1*
X1523676Y1192145D1*
X1526605Y1195075D1*
X1529957Y1197510D1*
X1533648Y1199390D1*
X1537588Y1200671D1*
X1541679Y1201319D1*
X1545822D1*
X1549914Y1200671D1*
X1553853Y1199390D1*
X1557545Y1197510D1*
X1560896Y1195075D1*
X1563825Y1192145D1*
X1566260Y1188794D1*
X1568141Y1185103D1*
X1569421Y1181163D1*
X1570069Y1177071D1*
Y1172929D1*
X1569421Y1168837D1*
X1568141Y1164897D1*
X1566260Y1161206D1*
X1563825Y1157855D1*
X1560896Y1154925D1*
X1557545Y1152490D1*
X1553853Y1150610D1*
X1549914Y1149329D1*
X1546345Y1148743D1*
X1531999Y1134488D1*
X1529410Y1132606D1*
X1526557Y1131153D1*
X1523513Y1130164D1*
X1520351Y1129663D1*
X1518744Y1129600D1*
X1518141Y1128852D1*
X1519421Y1124912D1*
X1520069Y1120821D1*
Y1116678D1*
X1519421Y1112586D1*
X1518141Y1108647D1*
X1516260Y1104955D1*
X1514151Y1102017D1*
X1514149Y1046308D1*
X1473344Y978720D2*
X1470158Y976153D1*
X1467225Y974193D1*
X1464147Y972469D1*
X1460944Y970992D1*
X1457634Y969771D1*
X1454239Y968814D1*
X1450779Y968126D1*
X1447276Y967711D1*
X1443751Y967572D1*
X1440226Y967711D1*
X1436722Y968126D1*
X1432639Y968990D1*
X1416647Y953011D1*
X1416649Y948339D1*
X1421121Y951312D1*
X1425571Y953585D1*
X1430247Y955350D1*
X1435089Y956585D1*
X1440039Y957274D1*
X1445034Y957409D1*
X1450014Y956989D1*
X1454916Y956018D1*
X1459680Y954509D1*
X1464247Y952480D1*
X1468561Y949956D1*
X1472567Y946969D1*
X1473347Y946301D1*
X1473349Y978693D1*
X1400240Y1001389D2*
X1399376Y1005472D1*
X1398962Y1008975D1*
X1398823Y1012500D1*
X1398962Y1016025D1*
X1399376Y1019528D1*
X1400064Y1022988D1*
X1401022Y1026383D1*
X1402243Y1029693D1*
X1403720Y1032897D1*
X1405444Y1035975D1*
X1407403Y1038908D1*
X1409587Y1041678D1*
X1411982Y1044269D1*
X1414573Y1046663D1*
X1417343Y1048847D1*
X1420276Y1050807D1*
X1423354Y1052531D1*
X1426558Y1054008D1*
X1429867Y1055229D1*
X1433263Y1056186D1*
X1436722Y1056874D1*
X1440226Y1057289D1*
X1443751Y1057428D1*
X1447276Y1057289D1*
X1450779Y1056874D1*
X1454239Y1056186D1*
X1457634Y1055229D1*
X1460944Y1054008D1*
X1464147Y1052531D1*
X1467225Y1050807D1*
X1470158Y1048847D1*
X1473344Y1046280D1*
X1473349Y1102013D1*
X1471241Y1104955D1*
X1469360Y1108647D1*
X1468080Y1112586D1*
X1467807Y1113960D1*
X1213833Y859983D1*
X1217145Y857575D1*
X1220075Y854645D1*
X1222510Y851294D1*
X1224390Y847603D1*
X1225671Y843663D1*
X1226257Y840094D1*
X1478012Y588249D1*
X1479894Y585659D1*
X1481347Y582807D1*
X1482336Y579762D1*
X1482837Y576601D1*
X1482900Y550000D1*
Y390215D1*
X1485592Y392347D1*
X1489090Y394624D1*
X1489100Y678520D1*
X1376336Y791378D1*
X1374224Y794285D1*
X1372592Y797487D1*
X1371482Y800905D1*
X1370920Y804454D1*
X1370849Y826251D1*
X1370920Y964295D1*
X1371482Y967845D1*
X1372592Y971262D1*
X1374224Y974464D1*
X1376336Y977371D1*
X1391699Y992834D1*
X1400220Y1001355D1*
X1473351Y878705D2*
X1469624Y875771D1*
X1465385Y873124D1*
X1460878Y870965D1*
X1456159Y869320D1*
X1451287Y868209D1*
X1446321Y867646D1*
X1441324Y867638D1*
X1436356Y868185D1*
X1431481Y869280D1*
X1426757Y870911D1*
X1422243Y873055D1*
X1417995Y875688D1*
X1416648Y876671D1*
X1416649Y815721D1*
X1529413Y702872D1*
X1531526Y699965D1*
X1533157Y696763D1*
X1534267Y693346D1*
X1534830Y689797D1*
X1534900Y668000D1*
Y394660D1*
X1538408Y392347D1*
X1541178Y390163D1*
X1543769Y387769D1*
X1546163Y385178D1*
X1548347Y382408D1*
X1550307Y379475D1*
X1552031Y376397D1*
X1553508Y373193D1*
X1554729Y369883D1*
X1555686Y366488D1*
X1556374Y363028D1*
X1556789Y359525D1*
X1556928Y356000D1*
X1556789Y352475D1*
X1556374Y348972D1*
X1555686Y345512D1*
X1554729Y342117D1*
X1553508Y338807D1*
X1552031Y335603D1*
X1550307Y332525D1*
X1548347Y329592D1*
X1546163Y326822D1*
X1543769Y324231D1*
X1541178Y321837D1*
X1538408Y319653D1*
X1535475Y317693D1*
X1532397Y315969D1*
X1529193Y314492D1*
X1525883Y313271D1*
X1522488Y312314D1*
X1519028Y311626D1*
X1515525Y311211D1*
X1512000Y311072D1*
X1508475Y311211D1*
X1504972Y311626D1*
X1501512Y312314D1*
X1498117Y313271D1*
X1494807Y314492D1*
X1491603Y315969D1*
X1488525Y317693D1*
X1485592Y319653D1*
X1482898Y321777D1*
X1482900Y295957D1*
X1495942Y282908D1*
X1904043Y282900D1*
X2007276Y386126D1*
X2006314Y389512D1*
X2005626Y392972D1*
X2005211Y396475D1*
X2005072Y400000D1*
X2005211Y403525D1*
X2005626Y407028D1*
X2006314Y410488D1*
X2007271Y413883D1*
X2008492Y417193D1*
X2009969Y420397D1*
X2011693Y423475D1*
X2013653Y426408D1*
X2015837Y429178D1*
X2018231Y431769D1*
X2020822Y434163D1*
X2023592Y436347D1*
X2026525Y438307D1*
X2029603Y440031D1*
X2032807Y441508D1*
X2036117Y442729D1*
X2039512Y443686D1*
X2042972Y444374D1*
X2046475Y444789D1*
X2050000Y444928D1*
X2053525Y444789D1*
X2057028Y444374D1*
X2060488Y443686D1*
X2063883Y442729D1*
X2067193Y441508D1*
X2070397Y440031D1*
X2073475Y438307D1*
X2076408Y436347D1*
X2079178Y434163D1*
X2081769Y431769D1*
X2084163Y429178D1*
X2086347Y426408D1*
X2088307Y423475D1*
X2090031Y420397D1*
X2091508Y417193D1*
X2092729Y413883D1*
X2093686Y410488D1*
X2094374Y407028D1*
X2094789Y403525D1*
X2094928Y400000D1*
X2094789Y396475D1*
X2094374Y392972D1*
X2093686Y389512D1*
X2092729Y386117D1*
X2091508Y382807D1*
X2090031Y379603D1*
X2088307Y376525D1*
X2086347Y373592D1*
X2084163Y370822D1*
X2081769Y368231D1*
X2079178Y365837D1*
X2076408Y363653D1*
X2073475Y361693D1*
X2070397Y359969D1*
X2067193Y358492D1*
X2063883Y357271D1*
X2060488Y356314D1*
X2057028Y355626D1*
X2053525Y355211D1*
X2050000Y355072D1*
X2046475Y355211D1*
X2042972Y355626D1*
X2039512Y356314D1*
X2036130Y357268D1*
X2023780Y344930D1*
X2094928Y344927D1*
X2095000Y322900D1*
X2111348D1*
X2113653Y326408D1*
X2115837Y329178D1*
X2119597Y333031D1*
X2119600Y366934D1*
X2115837Y370822D1*
X2113653Y373592D1*
X2111693Y376525D1*
X2109969Y379603D1*
X2108492Y382807D1*
X2107271Y386117D1*
X2106314Y389512D1*
X2105626Y392972D1*
X2105211Y396475D1*
X2105072Y400000D1*
X2105211Y403525D1*
X2105626Y407028D1*
X2106314Y410488D1*
X2107271Y413883D1*
X2108492Y417193D1*
X2109969Y420397D1*
X2111693Y423475D1*
X2113653Y426408D1*
X2115837Y429178D1*
X2119597Y433031D1*
X2119600Y455059D1*
X2105073Y455072D1*
Y542102D1*
X2065930Y542009D1*
X2070497Y539980D1*
X2074810Y537456D1*
X2078816Y534469D1*
X2082466Y531055D1*
X2085714Y527257D1*
X2088521Y523122D1*
X2090850Y518701D1*
X2092675Y514049D1*
X2093971Y509222D1*
X2094723Y504282D1*
X2094928Y500000D1*
X2094650Y495010D1*
X2093819Y490082D1*
X2092447Y485277D1*
X2090549Y480654D1*
X2088150Y476270D1*
X2085278Y472180D1*
X2081970Y468434D1*
X2078267Y465079D1*
X2074213Y462156D1*
X2069861Y459701D1*
X2065262Y457744D1*
X2060475Y456311D1*
X2055558Y455418D1*
X2050572Y455076D1*
X2045579Y455290D1*
X2040641Y456058D1*
X2035819Y457369D1*
X2031172Y459208D1*
X2026758Y461551D1*
X2022632Y464371D1*
X2018844Y467631D1*
X2015442Y471291D1*
X2012467Y475307D1*
X2009957Y479628D1*
X2007942Y484201D1*
X2006447Y488970D1*
X2005492Y493875D1*
X2005087Y498856D1*
X2005238Y503851D1*
X2005942Y508799D1*
X2007192Y513637D1*
X2008972Y518307D1*
X2011259Y522751D1*
X2014025Y526912D1*
X2017236Y530741D1*
X2020853Y534190D1*
X2024831Y537216D1*
X2029120Y539781D1*
X2033667Y541853D1*
X2034321Y542100D1*
X1960899Y542163D1*
X1957738Y542664D1*
X1954693Y543653D1*
X1951841Y545106D1*
X1949251Y546988D1*
X1930397Y565753D1*
X1829041Y667109D1*
X1710488Y667100D1*
X1707543Y664990D1*
X1703852Y663110D1*
X1699912Y661829D1*
X1695821Y661181D1*
X1691678D1*
X1687586Y661829D1*
X1683647Y663110D1*
X1679955Y664990D1*
X1676604Y667425D1*
X1673675Y670355D1*
X1671240Y673706D1*
X1669359Y677397D1*
X1668079Y681337D1*
X1667431Y685429D1*
Y689571D1*
X1667768Y692098D1*
X1617150Y692163D1*
X1613988Y692664D1*
X1610944Y693653D1*
X1608092Y695106D1*
X1605502Y696988D1*
X1586648Y715753D1*
X1478237Y824253D1*
X1476355Y826842D1*
X1474902Y829695D1*
X1473913Y832739D1*
X1473412Y835901D1*
X1473349Y862501D1*
Y878693D1*
X2441789Y1758924D2*
X2441374Y1755421D1*
X2440686Y1751961D1*
X2439729Y1748565D1*
X2438508Y1745256D1*
X2437031Y1742052D1*
X2435307Y1738974D1*
X2433347Y1736041D1*
X2431163Y1733271D1*
X2428769Y1730680D1*
X2426178Y1728286D1*
X2423408Y1726102D1*
X2420475Y1724142D1*
X2417397Y1722418D1*
X2414193Y1720941D1*
X2410883Y1719720D1*
X2407488Y1718763D1*
X2404028Y1718074D1*
X2400525Y1717660D1*
X2397000Y1717521D1*
X2393475Y1717660D1*
X2389972Y1718074D1*
X2386512Y1718763D1*
X2383117Y1719720D1*
X2379807Y1720941D1*
X2376603Y1722418D1*
X2373525Y1724142D1*
X2370592Y1726102D1*
X2367822Y1728286D1*
X2365231Y1730680D1*
X2362837Y1733271D1*
X2360653Y1736041D1*
X2358693Y1738974D1*
X2356969Y1742052D1*
X2355492Y1745256D1*
X2354271Y1748565D1*
X2353314Y1751961D1*
X2352626Y1755421D1*
X2352211Y1758924D1*
X2352072Y1762449D1*
X2352191Y1765464D1*
X2348556Y1763231D1*
X2344049Y1761072D1*
X2339330Y1759426D1*
X2334458Y1758315D1*
X2329492Y1757752D1*
X2324494Y1757744D1*
X2319527Y1758291D1*
X2314651Y1759387D1*
X2309927Y1761017D1*
X2305413Y1763161D1*
X2301166Y1765794D1*
X2297237Y1768882D1*
X2293675Y1772388D1*
X2290524Y1776267D1*
X2287824Y1780472D1*
X2285608Y1784951D1*
X2283903Y1789649D1*
X2282730Y1794507D1*
X2282104Y1799465D1*
X2282032Y1804462D1*
X2282516Y1809436D1*
X2283549Y1814325D1*
X2285119Y1819070D1*
X2287206Y1823610D1*
X2289784Y1827891D1*
X2292822Y1831859D1*
X2296282Y1835465D1*
X2300121Y1838665D1*
X2304291Y1841418D1*
X2306775Y1842762D1*
X2303447Y1844614D1*
X2300514Y1846574D1*
X2297743Y1848758D1*
X2295153Y1851153D1*
X2292758Y1853743D1*
X2290574Y1856514D1*
X2288614Y1859447D1*
X2286891Y1862525D1*
X2285414Y1865728D1*
X2284193Y1869038D1*
X2283235Y1872433D1*
X2282547Y1875893D1*
X2282132Y1879396D1*
X2281994Y1882921D1*
X2282132Y1886446D1*
X2282547Y1889949D1*
X2283235Y1893409D1*
X2284193Y1896805D1*
X2285414Y1900114D1*
X2286891Y1903318D1*
X2288614Y1906396D1*
X2290574Y1909329D1*
X2292758Y1912099D1*
X2295153Y1914690D1*
X2297743Y1917084D1*
X2300514Y1919268D1*
X2303447Y1921228D1*
X2306787Y1923073D1*
X2303447Y1924929D1*
X2300514Y1926889D1*
X2297743Y1929073D1*
X2295153Y1931468D1*
X2292758Y1934058D1*
X2290574Y1936828D1*
X2288614Y1939762D1*
X2286891Y1942840D1*
X2285414Y1946043D1*
X2284193Y1949353D1*
X2283235Y1952748D1*
X2282547Y1956208D1*
X2282132Y1959711D1*
X2281994Y1963236D1*
X2282132Y1966761D1*
X2282547Y1970264D1*
X2283235Y1973724D1*
X2284193Y1977120D1*
X2285414Y1980429D1*
X2286891Y1983633D1*
X2288614Y1986711D1*
X2290574Y1989644D1*
X2292758Y1992414D1*
X2295153Y1995005D1*
X2297743Y1997399D1*
X2300514Y1999583D1*
X2303447Y2001543D1*
X2306787Y2003388D1*
X2303447Y2005244D1*
X2300514Y2007204D1*
X2297743Y2009388D1*
X2295153Y2011783D1*
X2292758Y2014373D1*
X2290574Y2017143D1*
X2288614Y2020077D1*
X2286891Y2023154D1*
X2285414Y2026358D1*
X2284193Y2029668D1*
X2283235Y2033063D1*
X2282547Y2036523D1*
X2282132Y2040026D1*
X2281994Y2043551D1*
X2282132Y2047076D1*
X2282547Y2050579D1*
X2283235Y2054039D1*
X2284193Y2057435D1*
X2285414Y2060744D1*
X2286891Y2063948D1*
X2288614Y2067026D1*
X2290574Y2069959D1*
X2292758Y2072729D1*
X2295153Y2075320D1*
X2297743Y2077714D1*
X2300514Y2079898D1*
X2303447Y2081858D1*
X2306525Y2083582D1*
X2309728Y2085059D1*
X2313038Y2086280D1*
X2316433Y2087237D1*
X2319893Y2087926D1*
X2323396Y2088340D1*
X2326921Y2088479D1*
X2330446Y2088340D1*
X2333949Y2087926D1*
X2337409Y2087237D1*
X2340805Y2086280D1*
X2344114Y2085059D1*
X2347318Y2083582D1*
X2350396Y2081858D1*
X2353329Y2079898D1*
X2356099Y2077714D1*
X2358690Y2075320D1*
X2361084Y2072729D1*
X2363268Y2069959D1*
X2365228Y2067026D1*
X2366952Y2063948D1*
X2368429Y2060744D1*
X2369650Y2057435D1*
X2370607Y2054039D1*
X2371296Y2050579D1*
X2371710Y2047076D1*
X2371849Y2043551D1*
X2371730Y2040536D1*
X2376603Y2043424D1*
X2379807Y2044901D1*
X2383117Y2046122D1*
X2386512Y2047080D1*
X2389972Y2047768D1*
X2393475Y2048183D1*
X2397000Y2048321D1*
X2400525Y2048183D1*
X2404028Y2047768D1*
X2407488Y2047080D1*
X2410883Y2046122D1*
X2414193Y2044901D1*
X2417397Y2043424D1*
X2420475Y2041701D1*
X2423408Y2039741D1*
X2426178Y2037557D1*
X2428769Y2035162D1*
X2431163Y2032572D1*
X2433347Y2029801D1*
X2435307Y2026868D1*
X2437031Y2023790D1*
X2438508Y2020587D1*
X2439729Y2017277D1*
X2440686Y2013882D1*
X2441374Y2010422D1*
X2441789Y2006919D1*
X2441928Y2003394D1*
X2441789Y1999869D1*
X2441374Y1996365D1*
X2440686Y1992906D1*
X2439729Y1989510D1*
X2438508Y1986201D1*
X2437031Y1982997D1*
X2435307Y1979919D1*
X2433347Y1976986D1*
X2431163Y1974216D1*
X2428769Y1971625D1*
X2426178Y1969231D1*
X2423408Y1967047D1*
X2420475Y1965087D1*
X2417134Y1963242D1*
X2420475Y1961386D1*
X2423408Y1959426D1*
X2426178Y1957242D1*
X2428769Y1954847D1*
X2431163Y1952257D1*
X2433347Y1949486D1*
X2435307Y1946553D1*
X2437031Y1943475D1*
X2438508Y1940272D1*
X2439729Y1936962D1*
X2440686Y1933567D1*
X2441374Y1930107D1*
X2441789Y1926604D1*
X2441928Y1923079D1*
X2441789Y1919554D1*
X2441374Y1916051D1*
X2440686Y1912591D1*
X2439729Y1909195D1*
X2438508Y1905886D1*
X2437031Y1902682D1*
X2435307Y1899604D1*
X2433347Y1896671D1*
X2431163Y1893901D1*
X2428769Y1891310D1*
X2426178Y1888916D1*
X2423408Y1886732D1*
X2420475Y1884772D1*
X2417134Y1882927D1*
X2420475Y1881071D1*
X2423408Y1879111D1*
X2426178Y1876927D1*
X2428769Y1874532D1*
X2431163Y1871942D1*
X2433347Y1869172D1*
X2435307Y1866238D1*
X2437031Y1863160D1*
X2438508Y1859957D1*
X2439729Y1856647D1*
X2440686Y1853252D1*
X2441374Y1849792D1*
X2441789Y1846289D1*
X2441928Y1842764D1*
X2441789Y1839239D1*
X2441374Y1835736D1*
X2440686Y1832276D1*
X2439729Y1828880D1*
X2438508Y1825571D1*
X2437031Y1822367D1*
X2435307Y1819289D1*
X2433347Y1816356D1*
X2431163Y1813586D1*
X2428769Y1810995D1*
X2426178Y1808601D1*
X2423408Y1806417D1*
X2420475Y1804457D1*
X2417134Y1802612D1*
X2420475Y1800756D1*
X2423408Y1798796D1*
X2426178Y1796612D1*
X2428769Y1794217D1*
X2431163Y1791627D1*
X2433347Y1788857D1*
X2435307Y1785923D1*
X2437031Y1782846D1*
X2438508Y1779642D1*
X2439729Y1776332D1*
X2440686Y1772937D1*
X2441374Y1769477D1*
X2441789Y1765974D1*
X2441928Y1762449D1*
X2441789Y1758924D1*
X2436409Y2221882D2*
X2436087Y2215892D1*
X2435248Y2209752D1*
X2438147Y2212755D1*
X2441811Y2216156D1*
X2445672Y2219332D1*
X2449715Y2222272D1*
X2453927Y2224966D1*
X2458291Y2227404D1*
X2462793Y2229579D1*
X2467416Y2231481D1*
X2472144Y2233104D1*
X2476961Y2234442D1*
X2481849Y2235492D1*
X2486791Y2236248D1*
X2491769Y2236708D1*
X2496765Y2236871D1*
X2501763Y2236736D1*
X2506743Y2236304D1*
X2511689Y2235575D1*
X2516583Y2234553D1*
X2521407Y2233242D1*
X2526144Y2231645D1*
X2530778Y2229769D1*
X2535292Y2227620D1*
X2539670Y2225206D1*
X2543896Y2222535D1*
X2547956Y2219618D1*
X2551834Y2216463D1*
X2555518Y2213084D1*
X2558994Y2209490D1*
X2562249Y2205696D1*
X2565273Y2201715D1*
X2568054Y2197561D1*
X2570583Y2193249D1*
X2572850Y2188793D1*
X2574848Y2184210D1*
X2576569Y2179517D1*
X2578008Y2174729D1*
X2579159Y2169864D1*
X2580017Y2164939D1*
X2580581Y2159971D1*
X2580871Y2153000D1*
X2580722Y2148003D1*
X2580276Y2143024D1*
X2579534Y2138080D1*
X2578498Y2133189D1*
X2577173Y2128369D1*
X2575563Y2123636D1*
X2573674Y2119007D1*
X2571512Y2114499D1*
X2569086Y2110128D1*
X2566404Y2105909D1*
X2563475Y2101858D1*
X2560310Y2097988D1*
X2556920Y2094314D1*
X2553317Y2090848D1*
X2549514Y2087603D1*
X2545524Y2084591D1*
X2541362Y2081821D1*
X2537043Y2079305D1*
X2532581Y2077050D1*
X2527992Y2075065D1*
X2523294Y2073357D1*
X2518502Y2071932D1*
X2513634Y2070795D1*
X2508707Y2069950D1*
X2503738Y2069400D1*
X2498745Y2069147D1*
X2493746Y2069192D1*
X2488758Y2069535D1*
X2483800Y2070174D1*
X2478889Y2071107D1*
X2474042Y2072332D1*
X2469276Y2073843D1*
X2464609Y2075636D1*
X2460058Y2077703D1*
X2455637Y2080038D1*
X2451363Y2082632D1*
X2447252Y2085476D1*
X2443317Y2088560D1*
X2439573Y2091872D1*
X2436033Y2095402D1*
X2432710Y2099137D1*
X2429615Y2103063D1*
X2426760Y2107167D1*
X2424154Y2111433D1*
X2421806Y2115847D1*
X2419726Y2120393D1*
X2417921Y2125055D1*
X2416397Y2129816D1*
X2415158Y2134660D1*
X2414211Y2139568D1*
X2413558Y2144525D1*
X2413201Y2149511D1*
X2413142Y2154510D1*
X2413381Y2159504D1*
X2413917Y2164474D1*
X2415042Y2170679D1*
X2410562Y2166477D1*
X2405864Y2162748D1*
X2400880Y2159409D1*
X2395645Y2156482D1*
X2390190Y2153986D1*
X2384553Y2151937D1*
X2378768Y2150349D1*
X2372875Y2149231D1*
X2366911Y2148592D1*
X2360914Y2148434D1*
X2354925Y2148760D1*
X2348981Y2149567D1*
X2343121Y2150850D1*
X2337384Y2152600D1*
X2331806Y2154806D1*
X2326424Y2157455D1*
X2321273Y2160528D1*
X2316385Y2164005D1*
X2311794Y2167865D1*
X2307528Y2172082D1*
X2303615Y2176628D1*
X2300081Y2181475D1*
X2296949Y2186591D1*
X2294239Y2191942D1*
X2291968Y2197494D1*
X2290151Y2203211D1*
X2288801Y2209055D1*
X2287925Y2214989D1*
X2287530Y2220974D1*
X2287618Y2226972D1*
X2288188Y2232943D1*
X2289238Y2238849D1*
X2290759Y2244651D1*
X2292743Y2250312D1*
X2295175Y2255795D1*
X2298042Y2261065D1*
X2301323Y2266086D1*
X2304997Y2270827D1*
X2309042Y2275257D1*
X2313430Y2279347D1*
X2318132Y2283070D1*
X2323120Y2286403D1*
X2328359Y2289324D1*
X2333817Y2291813D1*
X2339457Y2293855D1*
X2345243Y2295436D1*
X2351138Y2296546D1*
X2357103Y2297178D1*
X2363099Y2297328D1*
X2369088Y2296995D1*
X2375031Y2296181D1*
X2380889Y2294891D1*
X2386624Y2293133D1*
X2392199Y2290920D1*
X2397578Y2288265D1*
X2402726Y2285186D1*
X2407609Y2281702D1*
X2412196Y2277837D1*
X2416456Y2273614D1*
X2420363Y2269063D1*
X2423891Y2264212D1*
X2427017Y2259092D1*
X2429721Y2253738D1*
X2431985Y2248183D1*
X2433794Y2242464D1*
X2435138Y2236618D1*
X2436006Y2230683D1*
X2436394Y2224697D1*
X2436409Y2221882D1*
Y1582118D2*
X2436087Y1576128D1*
X2435284Y1570184D1*
X2434005Y1564324D1*
X2432258Y1558585D1*
X2430055Y1553006D1*
X2427410Y1547622D1*
X2424340Y1542469D1*
X2420866Y1537579D1*
X2417009Y1532985D1*
X2412794Y1528717D1*
X2408250Y1524801D1*
X2403406Y1521264D1*
X2398292Y1518129D1*
X2392943Y1515415D1*
X2387392Y1513141D1*
X2381676Y1511321D1*
X2375833Y1509967D1*
X2369899Y1509087D1*
X2363914Y1508689D1*
X2357916Y1508773D1*
X2351945Y1509340D1*
X2346038Y1510385D1*
X2340235Y1511903D1*
X2334573Y1513883D1*
X2329089Y1516312D1*
X2323818Y1519175D1*
X2318794Y1522453D1*
X2314051Y1526125D1*
X2309618Y1530167D1*
X2305526Y1534552D1*
X2301799Y1539253D1*
X2298464Y1544238D1*
X2295540Y1549475D1*
X2293047Y1554931D1*
X2291002Y1560570D1*
X2289417Y1566355D1*
X2288303Y1572249D1*
X2287667Y1578214D1*
X2287514Y1584210D1*
X2287843Y1590200D1*
X2288654Y1596143D1*
X2289940Y1602002D1*
X2291694Y1607738D1*
X2293904Y1613315D1*
X2296555Y1618695D1*
X2299632Y1623845D1*
X2303112Y1628730D1*
X2306975Y1633319D1*
X2311194Y1637582D1*
X2315743Y1641492D1*
X2320592Y1645023D1*
X2325710Y1648152D1*
X2331063Y1650859D1*
X2336616Y1653127D1*
X2342334Y1654940D1*
X2348179Y1656287D1*
X2354114Y1657159D1*
X2360099Y1657550D1*
X2366097Y1657458D1*
X2372068Y1656884D1*
X2377973Y1655831D1*
X2383774Y1654306D1*
X2389434Y1652319D1*
X2394915Y1649883D1*
X2400183Y1647013D1*
X2405202Y1643729D1*
X2409941Y1640052D1*
X2414369Y1636005D1*
X2415005Y1635365D1*
X2414211Y1639568D1*
X2413558Y1644525D1*
X2413201Y1649511D1*
X2413142Y1654510D1*
X2413381Y1659504D1*
X2413917Y1664474D1*
X2414748Y1669404D1*
X2415872Y1674275D1*
X2417284Y1679071D1*
X2418978Y1683774D1*
X2420951Y1688368D1*
X2423193Y1692836D1*
X2425697Y1697163D1*
X2428455Y1701333D1*
X2431457Y1705331D1*
X2434691Y1709143D1*
X2438147Y1712755D1*
X2441811Y1716156D1*
X2445672Y1719332D1*
X2449715Y1722272D1*
X2453927Y1724966D1*
X2458291Y1727404D1*
X2462793Y1729579D1*
X2467416Y1731481D1*
X2472144Y1733104D1*
X2476961Y1734442D1*
X2481849Y1735492D1*
X2486791Y1736248D1*
X2491769Y1736708D1*
X2496765Y1736871D1*
X2501763Y1736736D1*
X2506743Y1736304D1*
X2511689Y1735575D1*
X2516583Y1734553D1*
X2521407Y1733242D1*
X2526144Y1731645D1*
X2530778Y1729769D1*
X2535292Y1727620D1*
X2539670Y1725206D1*
X2543896Y1722535D1*
X2547956Y1719618D1*
X2551834Y1716463D1*
X2555518Y1713084D1*
X2558994Y1709490D1*
X2562249Y1705696D1*
X2565273Y1701715D1*
X2568054Y1697561D1*
X2570583Y1693249D1*
X2572850Y1688793D1*
X2574848Y1684210D1*
X2576569Y1679517D1*
X2578008Y1674729D1*
X2579159Y1669864D1*
X2580017Y1664939D1*
X2580581Y1659971D1*
X2580871Y1653000D1*
X2580722Y1648003D1*
X2580276Y1643024D1*
X2579534Y1638080D1*
X2578498Y1633189D1*
X2577173Y1628369D1*
X2575563Y1623636D1*
X2573674Y1619007D1*
X2571512Y1614499D1*
X2569086Y1610128D1*
X2566404Y1605909D1*
X2563475Y1601858D1*
X2560310Y1597988D1*
X2556920Y1594314D1*
X2553317Y1590848D1*
X2549514Y1587603D1*
X2545524Y1584591D1*
X2541362Y1581821D1*
X2537043Y1579305D1*
X2532581Y1577050D1*
X2527992Y1575065D1*
X2523294Y1573357D1*
X2518502Y1571932D1*
X2513634Y1570795D1*
X2508707Y1569950D1*
X2503738Y1569400D1*
X2498745Y1569147D1*
X2493746Y1569192D1*
X2488758Y1569535D1*
X2483800Y1570174D1*
X2478889Y1571107D1*
X2474042Y1572332D1*
X2469276Y1573843D1*
X2464609Y1575636D1*
X2460058Y1577703D1*
X2455637Y1580038D1*
X2451363Y1582632D1*
X2447252Y1585476D1*
X2443317Y1588560D1*
X2439573Y1591872D1*
X2435241Y1596292D1*
X2436104Y1589924D1*
X2436411Y1583933D1*
X2436409Y1582118D1*
X2320366Y544927D2*
X2369975D1*
X2316563Y598336D1*
X2274238Y598349D1*
X2315512Y556998D1*
X2317394Y554408D1*
X2318847Y551556D1*
X2319836Y548512D1*
X2320337Y545344D1*
X2379604Y455072D2*
X2320400D1*
Y433808D1*
X2324009Y436646D1*
X2328239Y439306D1*
X2332739Y441480D1*
X2337453Y443140D1*
X2342322Y444267D1*
X2347286Y444845D1*
X2352283Y444870D1*
X2357252Y444338D1*
X2362131Y443259D1*
X2366861Y441644D1*
X2371381Y439514D1*
X2375637Y436895D1*
X2379603Y433796D1*
X2379600Y455058D1*
X767280Y400927D2*
X856928D1*
Y311072D1*
X767073D1*
Y400724D1*
X1056916Y355000D2*
X1056528Y350018D1*
X1055588Y345110D1*
X1054109Y340336D1*
X1052108Y335756D1*
X1049612Y331427D1*
X1046650Y327402D1*
X1043260Y323731D1*
X1039482Y320458D1*
X1035365Y317626D1*
X1030959Y315269D1*
X1026318Y313415D1*
X1021500Y312088D1*
X1016564Y311305D1*
X1011572Y311074D1*
X1006585Y311400D1*
X1001665Y312277D1*
X996873Y313695D1*
X992269Y315637D1*
X987908Y318078D1*
X983845Y320988D1*
X980131Y324332D1*
X976811Y328067D1*
X973927Y332148D1*
X971513Y336524D1*
X969601Y341141D1*
X968213Y345942D1*
X967367Y350867D1*
X967073Y355856D1*
X967335Y360846D1*
X968149Y365777D1*
X969506Y370587D1*
X971389Y375216D1*
X973775Y379607D1*
X976633Y383706D1*
X979929Y387463D1*
X983621Y390830D1*
X987665Y393766D1*
X992010Y396235D1*
X996602Y398207D1*
X1001385Y399656D1*
X1006299Y400564D1*
X1011284Y400922D1*
X1016277Y400723D1*
X1021218Y399972D1*
X1026044Y398676D1*
X1030697Y396852D1*
X1035119Y394523D1*
X1039254Y391717D1*
X1043052Y388469D1*
X1046466Y384820D1*
X1049454Y380814D1*
X1051978Y376500D1*
X1054007Y371934D1*
X1055517Y367170D1*
X1056488Y362268D1*
X1056909Y357288D1*
X1056916Y355000D1*
X1132409Y396024D2*
X1135475Y394307D1*
X1138408Y392347D1*
X1142180Y389237D1*
X1142664Y392262D1*
X1143653Y395307D1*
X1145106Y398159D1*
X1146988Y400749D1*
X1165753Y419603D1*
X1174251Y428012D1*
X1176841Y429894D1*
X1179693Y431347D1*
X1182738Y432336D1*
X1185899Y432837D1*
X1212500Y432900D1*
X1241543D1*
X1267105Y458455D1*
X1267100Y647793D1*
X1255825Y659075D1*
X1253759Y654955D1*
X1251324Y651604D1*
X1248395Y648675D1*
X1245043Y646240D1*
X1241352Y644359D1*
X1237412Y643079D1*
X1233843Y642493D1*
X1132413Y541063D1*
X1132400Y396043D1*
X1304039Y400189D2*
X1308475Y400789D1*
X1312000Y400928D1*
X1315525Y400789D1*
X1319028Y400374D1*
X1322488Y399686D1*
X1325883Y398729D1*
X1329193Y397508D1*
X1332397Y396031D1*
X1335475Y394307D1*
X1338408Y392347D1*
X1342099Y389312D1*
X1342100Y635293D1*
X1332897Y644504D1*
X1332837Y435899D1*
X1332336Y432738D1*
X1331347Y429693D1*
X1329894Y426841D1*
X1328012Y424251D1*
X1309247Y405397D1*
X1304068Y400218D1*
X1382898Y390223D2*
X1385592Y392347D1*
X1388525Y394307D1*
X1391603Y396031D1*
X1394807Y397508D1*
X1398117Y398729D1*
X1401512Y399686D1*
X1404972Y400374D1*
X1408475Y400789D1*
X1412000Y400928D1*
X1415525Y400789D1*
X1419028Y400374D1*
X1422488Y399686D1*
X1425883Y398729D1*
X1429193Y397508D1*
X1432397Y396031D1*
X1435475Y394307D1*
X1438408Y392347D1*
X1442099Y389312D1*
X1442100Y566543D1*
X1382902Y625748D1*
X1382900Y390215D1*
X1656789Y352475D2*
X1656374Y348972D1*
X1655686Y345512D1*
X1654729Y342117D1*
X1653508Y338807D1*
X1652031Y335603D1*
X1650307Y332525D1*
X1648347Y329592D1*
X1646163Y326822D1*
X1643769Y324231D1*
X1641178Y321837D1*
X1638408Y319653D1*
X1635475Y317693D1*
X1632397Y315969D1*
X1629193Y314492D1*
X1625883Y313271D1*
X1622488Y312314D1*
X1619028Y311626D1*
X1615525Y311211D1*
X1612000Y311072D1*
X1608475Y311211D1*
X1604972Y311626D1*
X1601512Y312314D1*
X1598117Y313271D1*
X1594807Y314492D1*
X1591603Y315969D1*
X1588525Y317693D1*
X1585592Y319653D1*
X1582822Y321837D1*
X1580231Y324231D1*
X1577837Y326822D1*
X1575653Y329592D1*
X1573693Y332525D1*
X1571969Y335603D1*
X1570492Y338807D1*
X1569271Y342117D1*
X1568314Y345512D1*
X1567626Y348972D1*
X1567211Y352475D1*
X1567072Y356000D1*
X1567211Y359525D1*
X1567626Y363028D1*
X1568314Y366488D1*
X1569271Y369883D1*
X1570492Y373193D1*
X1571969Y376397D1*
X1573693Y379475D1*
X1575653Y382408D1*
X1577837Y385178D1*
X1580231Y387769D1*
X1582822Y390163D1*
X1585592Y392347D1*
X1588525Y394307D1*
X1591603Y396031D1*
X1594807Y397508D1*
X1598117Y398729D1*
X1601512Y399686D1*
X1604972Y400374D1*
X1608475Y400789D1*
X1612000Y400928D1*
X1615525Y400789D1*
X1619028Y400374D1*
X1622488Y399686D1*
X1625883Y398729D1*
X1629193Y397508D1*
X1632397Y396031D1*
X1635475Y394307D1*
X1638408Y392347D1*
X1641178Y390163D1*
X1643769Y387769D1*
X1646163Y385178D1*
X1648347Y382408D1*
X1650307Y379475D1*
X1652031Y376397D1*
X1653508Y373193D1*
X1654729Y369883D1*
X1655686Y366488D1*
X1656374Y363028D1*
X1656789Y359525D1*
X1656928Y356000D1*
X1656789Y352475D1*
X1756789D2*
X1756374Y348972D1*
X1755686Y345512D1*
X1754729Y342117D1*
X1753508Y338807D1*
X1752031Y335603D1*
X1750307Y332525D1*
X1748347Y329592D1*
X1746163Y326822D1*
X1743769Y324231D1*
X1741178Y321837D1*
X1738408Y319653D1*
X1735475Y317693D1*
X1732397Y315969D1*
X1729193Y314492D1*
X1725883Y313271D1*
X1722488Y312314D1*
X1719028Y311626D1*
X1715525Y311211D1*
X1712000Y311072D1*
X1708475Y311211D1*
X1704972Y311626D1*
X1701512Y312314D1*
X1698117Y313271D1*
X1694807Y314492D1*
X1691603Y315969D1*
X1688525Y317693D1*
X1685592Y319653D1*
X1682822Y321837D1*
X1680231Y324231D1*
X1677837Y326822D1*
X1675653Y329592D1*
X1673693Y332525D1*
X1671969Y335603D1*
X1670492Y338807D1*
X1669271Y342117D1*
X1668314Y345512D1*
X1667626Y348972D1*
X1667211Y352475D1*
X1667072Y356000D1*
X1667211Y359525D1*
X1667626Y363028D1*
X1668314Y366488D1*
X1669271Y369883D1*
X1670492Y373193D1*
X1671969Y376397D1*
X1673693Y379475D1*
X1675653Y382408D1*
X1677837Y385178D1*
X1680231Y387769D1*
X1682822Y390163D1*
X1685592Y392347D1*
X1688525Y394307D1*
X1691603Y396031D1*
X1694807Y397508D1*
X1698117Y398729D1*
X1701512Y399686D1*
X1704972Y400374D1*
X1708475Y400789D1*
X1712000Y400928D1*
X1715525Y400789D1*
X1719028Y400374D1*
X1722488Y399686D1*
X1725883Y398729D1*
X1729193Y397508D1*
X1732397Y396031D1*
X1735475Y394307D1*
X1738408Y392347D1*
X1741178Y390163D1*
X1743769Y387769D1*
X1746163Y385178D1*
X1748347Y382408D1*
X1750307Y379475D1*
X1752031Y376397D1*
X1753508Y373193D1*
X1754729Y369883D1*
X1755686Y366488D1*
X1756374Y363028D1*
X1756789Y359525D1*
X1756928Y356000D1*
X1756789Y352475D1*
X2459725Y1185430D2*
X2457349Y1187848D1*
X2454914Y1191199D1*
X2453033Y1194891D1*
X2451753Y1198830D1*
X2451105Y1202922D1*
Y1207065D1*
X2451753Y1211156D1*
X2453033Y1215096D1*
X2454914Y1218787D1*
X2457349Y1222139D1*
X2460278Y1225068D1*
X2463630Y1227503D1*
X2467321Y1229384D1*
X2471261Y1230664D1*
X2475571Y1231321D1*
X2476810Y1235103D1*
X2478691Y1238794D1*
X2481126Y1242145D1*
X2484055Y1245075D1*
X2487407Y1247510D1*
X2491098Y1249390D1*
X2495038Y1250671D1*
X2499129Y1251319D1*
X2503272D1*
X2507364Y1250671D1*
X2511304Y1249390D1*
X2514995Y1247510D1*
X2518346Y1245075D1*
X2521276Y1242145D1*
X2523710Y1238794D1*
X2525591Y1235103D1*
X2526871Y1231163D1*
X2527519Y1227071D1*
Y1222929D1*
X2526871Y1218837D1*
X2525591Y1214897D1*
X2523710Y1211206D1*
X2521276Y1207855D1*
X2519601Y1206085D1*
Y1203301D1*
X2522559Y1199893D1*
X2524723Y1196361D1*
X2526309Y1192533D1*
X2527276Y1188505D1*
X2527601Y1184375D1*
X2527276Y1180245D1*
X2526309Y1176217D1*
X2524723Y1172390D1*
X2522559Y1168858D1*
X2519868Y1165708D1*
X2516718Y1163017D1*
X2513186Y1160853D1*
X2509359Y1159267D1*
X2505331Y1158300D1*
X2504165Y1158162D1*
X2503234Y1154342D1*
X2501649Y1150515D1*
X2499484Y1146982D1*
X2496794Y1143832D1*
X2493644Y1141142D1*
X2490111Y1138977D1*
X2486284Y1137392D1*
X2482256Y1136425D1*
X2478126Y1136100D1*
X2473996Y1136425D1*
X2469968Y1137392D1*
X2466141Y1138977D1*
X2462608Y1141142D1*
X2459458Y1143832D1*
X2456768Y1146982D1*
X2454603Y1150515D1*
X2453018Y1154342D1*
X2452051Y1158370D1*
X2451726Y1162500D1*
X2452051Y1166630D1*
X2453018Y1170658D1*
X2454603Y1174485D1*
X2456768Y1178018D1*
X2459726Y1181415D1*
Y1185410D1*
X1920069Y1704179D2*
X1919421Y1700088D1*
X1918141Y1696148D1*
X1916260Y1692457D1*
X1913825Y1689105D1*
X1910896Y1686176D1*
X1907545Y1683741D1*
X1903853Y1681860D1*
X1899914Y1680580D1*
X1895822Y1679932D1*
X1891679D1*
X1887588Y1680580D1*
X1883648Y1681860D1*
X1879957Y1683741D1*
X1876605Y1686176D1*
X1873676Y1689105D1*
X1871241Y1692457D1*
X1869360Y1696148D1*
X1868080Y1700088D1*
X1867432Y1704179D1*
Y1708322D1*
X1868080Y1712414D1*
X1869360Y1716353D1*
X1871241Y1720045D1*
X1873676Y1723396D1*
X1876605Y1726325D1*
X1879957Y1728760D1*
X1883648Y1730641D1*
X1887588Y1731921D1*
X1891679Y1732569D1*
X1895822D1*
X1899914Y1731921D1*
X1903853Y1730641D1*
X1907545Y1728760D1*
X1910896Y1726325D1*
X1913825Y1723396D1*
X1916260Y1720045D1*
X1918141Y1716353D1*
X1919421Y1712414D1*
X1920069Y1708322D1*
Y1704179D1*
X2136251Y2298926D2*
X2136197Y2061127D1*
X2135767Y2058415D1*
X2134919Y2055803D1*
X2133672Y2053356D1*
X2132058Y2051135D1*
X2130116Y2049193D1*
X2127894Y2047579D1*
X2125448Y2046332D1*
X2122836Y2045483D1*
X2120124Y2045054D1*
X2083751Y2045000D1*
X511127Y2045054D1*
X508415Y2045484D1*
X505803Y2046332D1*
X503356Y2047579D1*
X501135Y2049193D1*
X499193Y2051135D1*
X497579Y2053356D1*
X496332Y2055803D1*
X495484Y2058415D1*
X495054Y2061127D1*
X495000Y2097500D1*
Y2298926D1*
X84613Y2298916D1*
X69118Y2296880D1*
X56207Y2291535D1*
X45122Y2283030D1*
X36616Y2271946D1*
X31270Y2259037D1*
X29232Y2243535D1*
X29234Y238286D1*
X31910Y204264D1*
X39646Y172044D1*
X52327Y141434D1*
X69640Y113185D1*
X91159Y87993D1*
X116354Y66476D1*
X144605Y49166D1*
X175216Y36489D1*
X207433Y28757D1*
X241429Y26083D1*
X2483575D1*
X2517586Y28759D1*
X2549806Y36495D1*
X2580416Y49176D1*
X2608665Y66489D1*
X2633857Y88009D1*
X2655374Y113204D1*
X2672684Y141455D1*
X2685361Y172066D1*
X2693094Y204283D1*
X2695767Y238279D1*
X2695769Y2243542D1*
X2693732Y2259030D1*
X2688387Y2271941D1*
X2679881Y2283027D1*
X2668796Y2291533D1*
X2655887Y2296879D1*
X2640385Y2298918D1*
X2136246Y2298917D1*
X406269Y1588751D2*
X532819Y1588689D1*
X535918Y1588198D1*
X538903Y1587228D1*
X541699Y1585804D1*
X544238Y1583959D1*
X546458Y1581740D1*
X548302Y1579201D1*
X549727Y1576404D1*
X550697Y1573420D1*
X551188Y1570320D1*
X551249Y1543751D1*
X551188Y1342181D1*
X550697Y1339082D1*
X549727Y1336097D1*
X548302Y1333301D1*
X546458Y1330762D1*
X544238Y1328542D1*
X541699Y1326698D1*
X538903Y1325273D1*
X535918Y1324303D1*
X532819Y1323812D1*
X506249Y1323751D1*
X404680Y1323812D1*
X401580Y1324303D1*
X398596Y1325273D1*
X395799Y1326698D1*
X393260Y1328542D1*
X391041Y1330762D1*
X389196Y1333301D1*
X387772Y1336097D1*
X386802Y1339082D1*
X386311Y1342181D1*
X386249Y1368751D1*
X386311Y1570320D1*
X386802Y1573420D1*
X387772Y1576404D1*
X389196Y1579201D1*
X391041Y1581740D1*
X393260Y1583959D1*
X395799Y1585804D1*
X398596Y1587228D1*
X401580Y1588198D1*
X404680Y1588689D1*
X406255Y1588751D1*
X1795405Y1170945D2*
X1810845Y1155505D1*
X1810849Y1372793D1*
X1795404Y1388247D1*
X1795400Y1170956D1*
X762500Y1394908D2*
D14*
Y1305092D1*
X717592Y1350000D2*
X807408D1*
X232529Y1560214D2*
Y1352288D1*
X177778Y1456251D2*
X287280D1*
X350639Y1703915D2*
Y1594413D1*
X246676Y1649164D2*
X454602D1*
X2622749Y1399154D2*
Y1329004D1*
X2576357Y1364079D2*
X2669142D1*
X2458182Y1058996D2*
Y988846D1*
X2401947Y1023921D2*
X2514418D1*
X2458182Y1399154D2*
Y1329004D1*
X2401947Y1364079D2*
X2514417D1*
X2622749Y1058996D2*
Y988846D1*
X2576357Y1023921D2*
X2669142D1*
X1443751Y957408D2*
Y867592D1*
X2450000Y544908D2*
Y455092D1*
Y500000D2*
X2494908D1*
X2326921Y1802606D2*
Y1757698D1*
X2282013Y1802606D2*
X2326921D1*
X2361961Y2297317D2*
Y2148446D1*
X2287525Y2222882D2*
X2436396D1*
X2361961Y1657554D2*
Y1508683D1*
X2287525Y1583118D2*
X2436396D1*
X2350000Y544908D2*
Y455092D1*
Y444908D2*
Y355092D1*
Y344908D2*
Y300000D1*
X2305092D2*
X2350000D1*
Y200000D2*
Y155092D1*
X2305092Y200000D2*
X2394908D1*
X812000Y400908D2*
Y311092D1*
X767092Y356000D2*
X856908D1*
X1012000Y400908D2*
Y311092D1*
X967092Y356000D2*
X1056908D1*
X2050000Y500000D2*
Y455092D1*
X2005092Y500000D2*
X2094908D1*
D25*
X762500Y1153150D3*
D26*
Y1350000D3*
D30*
X500000Y825000D3*
D31*
Y1025000D3*
D130*
X225000Y612500D3*
D34*
Y1229232D3*
D38*
X468749Y1456251D3*
D39*
X232529D3*
D40*
X350639Y1649164D3*
D133*
X386425Y362000D3*
D41*
X189575D3*
D142*
X2622749Y1364079D3*
D145*
X2458182Y1023921D3*
Y1364079D3*
D142*
X2622749Y1023921D3*
D25*
X1643751Y1012500D3*
D26*
Y912500D3*
X1543751Y1012500D3*
Y912500D3*
X1443751Y1012500D3*
Y912500D3*
D25*
X2450000Y300000D3*
D26*
Y400000D3*
Y500000D3*
X2397000Y1762449D3*
X2326921Y1802606D3*
X2397000Y1842764D3*
X2326921Y1882921D3*
X2397000Y1923079D3*
X2326921Y1963236D3*
X2397000Y2003394D3*
X2326921Y2043551D3*
D43*
X2361961Y2222882D3*
Y1583118D3*
D25*
X2150000Y500000D3*
D26*
Y400000D3*
Y300000D3*
Y200000D3*
D25*
X2350000Y500000D3*
D26*
Y400000D3*
Y300000D3*
Y200000D3*
D25*
X812000Y356000D3*
D26*
X912000D3*
X1012000D3*
X1112000D3*
X1212000D3*
X1312000D3*
X1412000D3*
X1512000D3*
X1612000D3*
X1712000D3*
D25*
X2050000Y300000D3*
D26*
Y400000D3*
Y500000D3*
D25*
X2250000D3*
D26*
Y400000D3*
Y300000D3*
Y200000D3*
M02*
