G04 DipTrace 3.3.1.3*
G04 Top.gbr*
%MOIN*%
G04 #@! TF.FileFunction,Copper,L1,Top*
G04 #@! TF.Part,Single*
%AMOUTLINE0*
4,1,4,
0.055118,0.055118,
0.055118,-0.055118,
-0.055118,-0.055118,
-0.055118,0.055118,
0.055118,0.055118,
0*%
%AMOUTLINE3*
4,1,4,
0.049213,-0.049213,
-0.049213,-0.049213,
-0.049213,0.049213,
0.049213,0.049213,
0.049213,-0.049213,
0*%
%AMOUTLINE6*
4,1,4,
0.028543,0.011811,
0.028543,-0.011811,
-0.028543,-0.011811,
-0.028543,0.011811,
0.028543,0.011811,
0*%
%AMOUTLINE9*
4,1,4,
0.028543,0.005906,
0.028543,-0.005906,
-0.028543,-0.005906,
-0.028543,0.005906,
0.028543,0.005906,
0*%
%AMOUTLINE12*
4,1,16,
-0.011811,0.019685,
-0.020352,0.017736,
-0.027201,0.012273,
-0.031003,0.00438,
-0.031003,-0.00438,
-0.027201,-0.012273,
-0.020352,-0.017736,
-0.011811,-0.019685,
0.011811,-0.019685,
0.020352,-0.017736,
0.027201,-0.012273,
0.031003,-0.00438,
0.031003,0.00438,
0.027201,0.012273,
0.020352,0.017736,
0.011811,0.019685,
-0.011811,0.019685,
0*%
%AMOUTLINE15*
4,1,16,
-0.021654,0.019685,
-0.030195,0.017736,
-0.037044,0.012273,
-0.040845,0.00438,
-0.040845,-0.00438,
-0.037044,-0.012273,
-0.030195,-0.017736,
-0.021654,-0.019685,
0.021654,-0.019685,
0.030195,-0.017736,
0.037044,-0.012273,
0.040845,-0.00438,
0.040845,0.00438,
0.037044,0.012273,
0.030195,0.017736,
0.021654,0.019685,
-0.021654,0.019685,
0*%
%AMOUTLINE18*
4,1,4,
0.025,-0.015748,
-0.025,-0.015748,
-0.025,0.015748,
0.025,0.015748,
0.025,-0.015748,
0*%
%AMOUTLINE21*
4,1,4,
-0.015748,-0.025,
-0.015748,0.025,
0.015748,0.025,
0.015748,-0.025,
-0.015748,-0.025,
0*%
%AMOUTLINE24*
4,1,4,
0.11811,-0.11811,
-0.11811,-0.11811,
-0.11811,0.11811,
0.11811,0.11811,
0.11811,-0.11811,
0*%
G04 #@! TA.AperFunction,CopperBalancing*
%ADD10C,0.01*%
G04 #@! TA.AperFunction,Conductor*
%ADD11C,0.006*%
G04 #@! TA.AperFunction,CopperBalancing*
%ADD14C,0.015*%
%ADD15C,0.008*%
G04 #@! TA.AperFunction,Conductor*
%ADD16C,0.02*%
%ADD17C,0.075*%
%ADD18C,0.06*%
G04 #@! TA.AperFunction,CopperBalancing*
%ADD19C,0.04*%
%ADD20C,0.03*%
G04 #@! TA.AperFunction,Conductor*
%ADD21C,0.025*%
%ADD22R,0.035433X0.027559*%
%ADD23R,0.03937X0.043307*%
%ADD24R,0.027559X0.035433*%
G04 #@! TA.AperFunction,ComponentPad*
%ADD25R,0.059055X0.059055*%
%ADD26C,0.059055*%
%ADD27R,0.062992X0.070866*%
%ADD29R,0.082677X0.055118*%
G04 #@! TA.AperFunction,ComponentPad*
%ADD30R,0.074803X0.074803*%
%ADD31C,0.074803*%
%ADD33R,0.055118X0.082677*%
G04 #@! TA.AperFunction,ComponentPad*
%ADD34C,0.110236*%
%ADD35R,0.059055X0.051181*%
%ADD37R,0.041339X0.025591*%
G04 #@! TA.AperFunction,ComponentPad*
%ADD38O,0.07874X0.19685*%
%ADD39O,0.07874X0.177165*%
%ADD40O,0.177165X0.07874*%
%ADD41C,0.098425*%
%ADD43C,0.11811*%
%ADD44R,0.15748X0.051181*%
%ADD46R,0.025591X0.041339*%
%ADD48R,0.055118X0.055118*%
%ADD50R,0.043307X0.023622*%
%ADD52O,0.033465X0.011811*%
%ADD53O,0.011811X0.033465*%
%ADD54R,0.137795X0.137795*%
%ADD55R,0.070866X0.015748*%
%ADD56R,0.03937X0.059055*%
G04 #@! TA.AperFunction,ViaPad*
%ADD57C,0.022*%
G04 #@! TA.AperFunction,ComponentPad*
%ADD130OUTLINE0*%
%ADD133OUTLINE3*%
%ADD136OUTLINE6*%
%ADD139OUTLINE9*%
G04 #@! TA.AperFunction,ComponentPad*
%ADD142OUTLINE12*%
%ADD145OUTLINE15*%
%ADD148OUTLINE18*%
%ADD151OUTLINE21*%
%ADD154OUTLINE24*%
%FSLAX26Y26*%
G04*
G70*
G90*
G75*
G01*
G04 Top*
%LPD*%
X912500Y262500D2*
D14*
X912000Y356000D1*
X925000Y1800000D2*
D10*
X981250D1*
X993751Y1787500D1*
Y1406249D1*
X968751Y1381249D1*
Y1187500D1*
X1225000Y931251D1*
Y693749D1*
X1200000Y668749D1*
X2397000Y1842764D2*
D15*
X2292764D1*
X2225000Y1775000D1*
X2187500D1*
X968751Y1706249D2*
D10*
X925000D1*
Y1700000D1*
X2187500Y1775000D2*
X2075000D1*
X2025000Y1825000D1*
X1856249D1*
X2187500Y1701181D2*
Y1775000D1*
X2326921Y1963236D2*
D15*
X2075933D1*
X2075000Y1962303D1*
X968751Y1743751D2*
D10*
X925000D1*
Y1750000D1*
X2075000Y1962303D2*
X1824802D1*
X1806249Y1943751D1*
X712500Y1898819D2*
X923819D1*
X925000Y1900000D1*
X712500Y1898819D2*
Y1900000D1*
X662500D1*
X1706251Y1375000D2*
X1787500D1*
X1825000Y1412500D1*
Y1637500D1*
X1850000Y1662500D1*
X1898819D1*
X662500Y1900000D2*
Y1812500D1*
X787500D1*
X825000Y1775000D1*
Y1618751D1*
X856251Y1587500D1*
X1650000Y1800000D2*
X1600000D1*
X1587500Y1787500D1*
Y1068751D1*
X1643751Y1012500D1*
X1781251D2*
X2006251D1*
X2033760Y1040009D1*
Y1098130D1*
X1650000Y1850000D2*
X1593751D1*
X1568749Y1824999D1*
Y1056251D1*
X1593749Y1031251D1*
Y962501D1*
X1643751Y912500D1*
X2014075Y1098130D2*
Y1051575D1*
X2000000Y1037500D1*
X1837500D1*
X2014075Y1196555D2*
D16*
X2018751Y1193749D1*
X232529Y1456251D2*
D17*
X312501D1*
X350639Y1494388D1*
Y1649164D1*
X2112500Y1176870D2*
D10*
X2148130D1*
X2156251Y1168749D1*
X2125000Y1438681D2*
D14*
X2187500D1*
X225000Y612500D2*
D18*
Y937500D1*
X125000Y1037500D1*
Y1425000D1*
X162500Y1462500D1*
X226280D1*
X232529Y1456251D1*
X189575Y362000D2*
Y477075D1*
X225000Y512500D1*
Y612500D1*
X925000Y1350000D2*
D10*
Y1200000D1*
X1200000Y925000D1*
Y837500D1*
X1650000Y1350000D2*
X1750000D1*
Y1343749D1*
X1862500D1*
X1893751Y1375000D1*
Y1510875D1*
X1895375Y1512500D1*
X1612500Y1131249D2*
Y1237500D1*
X1650000Y1275000D1*
Y1350000D1*
X1493751Y1118749D2*
Y1193751D1*
X1512500Y1212500D1*
Y1281251D1*
X1650000Y1400000D2*
X1731251D1*
X1462500Y1281251D2*
Y1112500D1*
X1493749Y1081251D1*
Y756251D1*
X1562500Y687500D1*
X1693749D1*
X1650000Y1900000D2*
X1706250D1*
X1718751Y1887500D1*
Y1781249D1*
X468749Y1456251D2*
D18*
Y1337501D1*
X500000Y1306251D1*
Y1250000D1*
Y1025000D1*
X546462Y1250000D2*
D19*
X500000D1*
X825000Y475000D2*
D16*
X706201D1*
X700000Y481201D1*
X825000Y475000D2*
X887500D1*
X937500D1*
X966038Y446462D1*
X987500D1*
X2012500Y1737500D2*
D10*
X1951181D1*
X2112500Y1235925D2*
X2173425D1*
X2187500Y1250000D1*
Y1287500D1*
X2012500Y1587500D2*
X1946556D1*
X1200000Y525197D2*
Y463681D1*
X1199409Y463091D1*
X2012500Y1662697D2*
Y1637499D1*
X2000001Y1625000D1*
X1906251D1*
X1893751Y1612500D1*
Y1589125D1*
X1895375Y1587500D1*
X1994390Y1098130D2*
Y1069388D1*
X1987501Y1062500D1*
X1906251D1*
X1875000Y1093751D1*
Y1268749D1*
X1893751Y1556251D2*
Y1585875D1*
X1895375Y1587500D1*
X1893751Y1706251D2*
Y1731251D1*
X1900000Y1737500D1*
Y1343751D2*
X2012500Y1456251D1*
Y1512697D1*
X2073130Y1098130D2*
Y1064370D1*
X2075000Y1062500D1*
X1900000Y1737500D2*
Y1762501D1*
X1906249Y1768751D1*
X2043749D1*
X2062500Y1750000D1*
X2125001D1*
X2143751Y1731251D1*
Y1525001D1*
X2131249Y1512500D1*
X2012697D1*
X2012500Y1512697D1*
X743701Y937303D2*
X687697D1*
X675000Y950000D1*
X850000Y787500D2*
D16*
Y862500D1*
X743701D2*
Y787500D1*
Y706299D1*
X750000Y700000D1*
Y600000D1*
X737500Y587500D1*
X700000D1*
X798819Y787500D2*
X743701D1*
X1037500Y775000D2*
D10*
X987500D1*
X1037500D2*
X1087500D1*
X850000Y937303D2*
X981448D1*
X1087500Y831251D1*
Y775000D1*
X1612402Y253051D2*
D14*
Y355598D1*
X1612000Y356000D1*
X1412402Y253051D2*
Y355598D1*
X1412000Y356000D1*
X1212402Y253051D2*
Y355598D1*
X1212000Y356000D1*
X1176181Y100000D2*
Y162500D1*
X1175000D1*
X1376181Y100000D2*
Y162500D1*
X1375000D1*
X1576181Y100000D2*
Y162500D1*
X1575000D1*
X2187500Y887500D2*
D10*
X2075000D1*
X2187500Y836319D2*
X2075000D1*
X2187500Y810728D2*
X2110728D1*
X2100000Y800000D1*
X2075000D1*
Y787500D1*
X2187500Y785138D2*
X2116388D1*
X2106249Y774999D1*
Y743749D1*
X2100000Y737500D1*
X2076181D1*
X2075000Y736319D1*
X2470965Y810728D2*
X2410728D1*
X2400000Y800000D1*
Y675000D1*
X2531249Y543751D1*
Y381249D1*
X2450000Y300000D1*
X2470965Y836319D2*
X2398819D1*
X2375000Y812500D1*
Y662500D1*
X2506249Y531251D1*
Y456249D1*
X2450000Y400000D1*
X2125000Y937500D2*
X2237500D1*
X2250000Y925000D1*
Y875000D1*
X2236909Y861909D1*
X2187500D1*
Y759547D2*
X2134547D1*
X2125000Y750000D1*
Y706251D1*
X2112500Y693751D1*
X2080070D1*
X2075000Y688681D1*
X2422159Y1262898D2*
X2301579D1*
X2301181Y1262500D1*
X2422159Y1144787D2*
X2302219D1*
X2301181Y1143749D1*
X2103051Y1550098D2*
X1984155D1*
X1946556Y1512500D1*
X2103051Y1700098D2*
X1987598D1*
X1950000Y1662500D1*
X1112500Y262500D2*
D14*
Y355500D1*
X1112000Y356000D1*
X925000Y1850000D2*
D10*
X993749D1*
X1012500Y1831249D1*
Y1400000D1*
X987500Y1375000D1*
Y1200000D1*
X1243749Y943751D1*
Y681249D1*
X1231249Y668749D1*
X2187500Y1849803D2*
D15*
X2237303D1*
X2270421Y1882921D1*
X2326921D1*
X2187500Y1849803D2*
D10*
X1849803D1*
X1825000Y1825000D1*
Y1675000D1*
X1700000Y1550000D1*
X1650000D1*
X2075000Y1887500D2*
D15*
X2112500D1*
X2148079Y1923079D1*
X2397000D1*
X2075000Y1887500D2*
D10*
X1850000D1*
X1800000Y1837500D1*
Y1687500D1*
X1712500Y1600000D1*
X1650000D1*
X2397000Y2003394D2*
D15*
X2190894D1*
X2187500Y2000000D1*
D10*
X2156251D1*
X2143751Y1987500D1*
X1812500D1*
X1775000Y1950000D1*
Y1700000D1*
X1725000Y1650000D1*
X1650000D1*
X2187500Y2074803D2*
D15*
X2218946D1*
X2250198Y2043551D1*
X2326921D1*
X2187500Y2074803D2*
D10*
X2156052D1*
X2143749Y2062500D1*
Y2018748D1*
X2131251Y2006249D1*
X1793749D1*
X1750000Y1962500D1*
Y1775000D1*
X1725000Y1750000D1*
X1650000D1*
X186516Y1874189D2*
Y1775984D1*
X212500Y1750000D1*
X562500D1*
X762500Y1550000D1*
X925000D1*
X2470965Y785138D2*
X2521113D1*
X2537500Y768751D1*
X2625000D1*
X2637500Y781251D1*
Y943751D1*
X2618751Y962500D1*
X2168751D1*
X2118751Y1012500D1*
X1650000Y1450000D2*
X1762501D1*
X1781251Y1431251D1*
X2470965Y759547D2*
X2515453D1*
X2525000Y750000D1*
X2631249D1*
X2656249Y775000D1*
Y956249D1*
X2631249Y981249D1*
X2200001D1*
X2143751Y1037500D1*
X1650000Y1500000D2*
X1743750D1*
X1781251Y1462500D1*
X1650000Y1950000D2*
X1593751D1*
X1543751Y1900000D1*
Y1175000D1*
X718751Y381249D2*
X662500D1*
Y381251D1*
X2112500Y1216240D2*
D11*
X2233760D1*
X2246157Y1203843D1*
X2422159D1*
X2477424Y1204993D2*
X2475555Y1203125D1*
X2422877D1*
X2422159Y1203843D1*
X2478126Y1162500D2*
X2424131D1*
X2422159Y1164472D1*
X2112500Y1196555D2*
X2228445D1*
X2240843Y1184157D1*
X2422159D1*
X2501201Y1184375D2*
X2500983Y1184157D1*
X2422159D1*
Y1223528D2*
Y1225000D1*
X2501201D1*
X743701Y899902D2*
D16*
X676083D1*
X675000Y898819D1*
X762500Y1050000D2*
X687500D1*
X637500Y1000000D1*
Y912500D1*
X651181Y898819D1*
X675000D1*
X762500Y1050000D2*
D19*
Y1153150D1*
Y1231249D1*
X743749Y1250000D1*
X700000D1*
X1306299Y600000D2*
D14*
X1318749D1*
X1325000Y606251D1*
X1362500D1*
Y612500D1*
X925000Y1950000D2*
D16*
X837500D1*
X775000D1*
X712500D1*
X249016Y2142102D2*
D14*
Y2067594D1*
X249508Y2067102D1*
X1362500Y612500D2*
D20*
Y875000D1*
X1018749Y1218751D1*
Y1349999D1*
X1050000Y1381249D1*
Y1906249D1*
X1006249Y1950000D1*
X925000D1*
X249016Y2142102D2*
D14*
X357898D1*
X550000Y1950000D1*
X712500D1*
X2470965Y887500D2*
X2550000D1*
X2600000D1*
X2600591Y888091D1*
X2550000Y887500D2*
Y925000D1*
X2537500Y937500D1*
X2300000D1*
X2287500Y925000D1*
Y706249D1*
X2150000Y568749D1*
Y500000D1*
X1362500Y612500D2*
D20*
X1737500D1*
X1750000Y600000D1*
X1787500Y562500D1*
Y262500D1*
X1811100Y238900D1*
X1850000Y200000D1*
X2150000D1*
X1750000Y1292568D2*
D16*
Y600000D1*
Y1292568D2*
Y1300000D1*
X1900000D1*
X2081251Y1481251D1*
X2187500D1*
X2256249Y1550000D1*
Y1618749D1*
X2399949Y1762449D1*
X2397000D1*
X912500Y211319D2*
D14*
X1112500D1*
X912500D2*
D10*
X698819D1*
X662500Y175000D1*
Y74164D1*
X1112500Y211319D2*
D21*
X1783518D1*
X1811100Y238900D1*
X2397000Y1762449D2*
D10*
X2399949D1*
X2425000Y1787500D1*
X2511319D1*
X2512500Y1786319D1*
X1037500Y723819D2*
X987500D1*
X1087500Y600000D2*
D16*
X987500D1*
X1087500D2*
X1137500D1*
X1200000D2*
X1137500D1*
X1512000Y356000D2*
Y425000D1*
X1312000D1*
X1250591D1*
X1162500D1*
X1137500Y450000D1*
Y600000D1*
X1312000Y356000D2*
Y425000D1*
X1712500Y487500D2*
Y425000D1*
X1712000D1*
Y356000D1*
X1512000Y425000D2*
X1712000D1*
X1250591Y463091D2*
D14*
Y425000D1*
X987500Y723819D2*
D10*
Y600000D1*
X2422159Y1290457D2*
D14*
Y1287500D1*
X2456251D1*
X2468751Y1275000D1*
X2506251D1*
X2531251Y1250000D1*
Y1137500D1*
X2506251Y1112500D1*
X2468751D1*
X2456251Y1100000D1*
X2424615D1*
X2422159Y1097543D1*
Y1290457D2*
D16*
X2359543D1*
X2262500Y1387500D1*
X2187500D1*
X2125000D1*
X2073130Y1294980D2*
D10*
Y1337500D1*
Y1373130D1*
X2087500Y1387500D1*
X2125000D1*
X2112500Y1255610D2*
X2143110D1*
X2150000Y1262500D1*
Y1325000D1*
X2137500Y1337500D1*
X2073130D1*
X2422159Y1097543D2*
D16*
X2160043D1*
X1975000Y912500D1*
Y512500D1*
X1950000Y487500D1*
X1866038D1*
X925000Y1450000D2*
D10*
X881250D1*
X850000Y1418751D1*
Y1212500D1*
X1156249Y906251D1*
Y818751D1*
X1200000Y775000D1*
X1325000Y125000D2*
Y100000D1*
X925000Y1500000D2*
X881250D1*
X831249Y1450000D1*
Y1200001D1*
X1137500Y893751D1*
Y806251D1*
X1200000Y743751D1*
X1125000Y125000D2*
Y100000D1*
X925000Y1400000D2*
X887502D1*
X868751Y1381249D1*
Y1225000D1*
X1175000Y918751D1*
Y831251D1*
X1200000Y806251D1*
X1525000Y125000D2*
Y100000D1*
X2512500Y1837500D2*
Y1912500D1*
D57*
X2477424Y1204993D3*
X2501201Y1184375D3*
X2478126Y1162500D3*
X2501201Y1225000D3*
X2056251Y2037500D3*
X2137500Y1812500D3*
X2025000Y1925000D3*
X1837500Y1037500D3*
X2075000Y1062500D3*
X1893751Y1706251D3*
X1900000Y1343751D3*
X800000Y850000D3*
Y881249D3*
Y912500D3*
Y943751D3*
X887500Y587500D3*
X825000D3*
X906251Y637500D3*
X950000Y700000D3*
X906251Y762500D3*
X1543751Y1175000D3*
X893751Y900000D3*
X1256251Y600000D3*
Y562500D3*
Y525000D3*
X718751Y381249D3*
X1137500Y725000D3*
X1356249Y943751D3*
X1337500Y475000D3*
X1087500Y687500D3*
X1137500D3*
X575000Y1900000D3*
X731249Y2018749D3*
X837500Y2037500D3*
X2250000Y1300000D3*
X2212500Y1143749D3*
X2225000Y1437500D3*
X2087500D3*
X2062500Y1193749D3*
X2018751Y1243749D3*
Y1193749D3*
Y1150000D3*
X1968749Y1193749D3*
X2225000Y1337500D3*
X1418751Y162500D3*
X1618749D3*
X1218751D3*
X2156251Y1168749D3*
X1200000Y806251D3*
X2187500Y1887500D3*
X217765Y2192102D3*
X250000Y1943749D3*
X1750000Y1725000D3*
X875000Y2000000D3*
X2550000Y800000D3*
X2600000D3*
X2075000Y968749D3*
X2125000Y643749D3*
X2406249Y862500D3*
X1875000Y1268749D3*
X1893751Y1556251D3*
X1706251Y1375000D3*
X1612500Y1131249D3*
X923867Y1048867D3*
X968751Y1743751D3*
Y1706249D3*
X1806249Y1943751D3*
X1856249Y1825000D3*
X856251Y1587500D3*
X873867Y992618D3*
X2187500Y1612500D3*
X1781251Y1012500D3*
X1200000Y775000D3*
Y743751D3*
X1125000Y125000D3*
X1325000D3*
X1525000D3*
X1200000Y668749D3*
X1231249D3*
X2118751Y1012500D3*
X2143751Y1037500D3*
X1781251Y1462500D3*
Y1431251D3*
X1062500Y1331251D3*
Y1237500D3*
X1700000Y2000000D3*
X1600000D3*
X1200000Y837500D3*
X1693749Y687500D3*
X1493751Y1118749D3*
X1781249Y1056249D3*
X1731251Y1400000D3*
X1718751Y1781249D3*
X1668751Y787500D3*
X1687500Y1106249D3*
X1806249Y1218751D3*
X1793751Y1543751D3*
X1850000D3*
X1950000Y1443751D3*
X1862500Y1775000D3*
X862500Y1856249D3*
X981249Y2000000D3*
X1725000Y1537500D3*
X75000Y2275000D3*
X50000Y1950000D3*
X43749Y1650000D3*
Y1475000D3*
Y1000000D3*
Y750000D3*
X50000Y450000D3*
Y200000D3*
X475000Y2275000D3*
Y2100000D3*
X600000Y2025000D3*
X337500Y1412500D3*
X200000Y50000D3*
X500000D3*
X762500D3*
X1075000D3*
X1400000D3*
X1700000D3*
X2000000D3*
X2300000D3*
X2550000D3*
X2675000Y250000D3*
Y550000D3*
X1100000Y2000000D3*
X2675000Y1150000D3*
Y1450000D3*
Y1750000D3*
Y2050000D3*
Y2250000D3*
X1225000Y2000000D3*
X1350000D3*
X1475000D3*
X1825000Y825000D3*
X2375000Y1350000D3*
Y1025000D3*
X2325000D3*
X1300000Y275000D3*
X1550000Y300000D3*
X2175000Y2275000D3*
X1300000Y825000D3*
X1587500Y475000D3*
X2512500Y2037500D3*
X1425000Y700000D3*
X1400000Y556251D3*
X53973Y2289049D2*
D10*
X494004D1*
X2137254D2*
X2326816D1*
X2397098D2*
X2671035D1*
X43172Y2279180D2*
X494004D1*
X2137254D2*
X2312226D1*
X2411687D2*
X2681836D1*
X36531Y2269311D2*
X494004D1*
X2137254D2*
X2302754D1*
X2421160D2*
X2688476D1*
X32430Y2259442D2*
X494004D1*
X2137254D2*
X2296094D1*
X2427820D2*
X2692558D1*
X31023Y2249574D2*
X494004D1*
X2137254D2*
X2291445D1*
X2432469D2*
X2693984D1*
X30242Y2239705D2*
X494004D1*
X2137254D2*
X2288437D1*
X2435496D2*
X2694765D1*
X30242Y2229836D2*
X494004D1*
X2137254D2*
X2286836D1*
X2437098D2*
X2462383D1*
X2531629D2*
X2694765D1*
X30242Y2219967D2*
X218828D1*
X279187D2*
X494004D1*
X2137254D2*
X2286562D1*
X2437351D2*
X2445508D1*
X2548504D2*
X2694765D1*
X30242Y2210098D2*
X218828D1*
X279187D2*
X494004D1*
X2137254D2*
X2287617D1*
X2559441D2*
X2694765D1*
X30242Y2200230D2*
X218828D1*
X279187D2*
X494004D1*
X2137254D2*
X2290039D1*
X2567312D2*
X2694765D1*
X30242Y2190361D2*
X218828D1*
X279187D2*
X494004D1*
X2137254D2*
X2293984D1*
X2573094D2*
X2694765D1*
X30242Y2180492D2*
X218828D1*
X279187D2*
X494004D1*
X2137254D2*
X2299746D1*
X2577234D2*
X2694765D1*
X30242Y2170623D2*
X218828D1*
X279187D2*
X494004D1*
X2137254D2*
X2307930D1*
X2580008D2*
X2694765D1*
X30242Y2160755D2*
X218828D1*
X372176D2*
X494004D1*
X2137254D2*
X2319922D1*
X2403992D2*
X2412480D1*
X2581512D2*
X2694765D1*
X30242Y2150886D2*
X218828D1*
X382508D2*
X494004D1*
X2137254D2*
X2341992D1*
X2381941D2*
X2412148D1*
X2581844D2*
X2694765D1*
X30242Y2141017D2*
X218828D1*
X392371D2*
X494004D1*
X2137254D2*
X2412988D1*
X2581004D2*
X2694765D1*
X30242Y2131148D2*
X218828D1*
X402234D2*
X494004D1*
X2137254D2*
X2415019D1*
X2578973D2*
X2694765D1*
X30242Y2121280D2*
X218828D1*
X412098D2*
X494004D1*
X2137254D2*
X2418359D1*
X2575633D2*
X2694765D1*
X30242Y2111411D2*
X150430D1*
X348582D2*
X355195D1*
X421980D2*
X494004D1*
X2137254D2*
X2423164D1*
X2570828D2*
X2694765D1*
X30242Y2101542D2*
X150430D1*
X348582D2*
X365078D1*
X431844D2*
X494004D1*
X2137254D2*
X2150430D1*
X2224578D2*
X2429765D1*
X2564226D2*
X2694765D1*
X30242Y2091673D2*
X150430D1*
X348582D2*
X374941D1*
X441707D2*
X494004D1*
X2137254D2*
X2143574D1*
X2229519D2*
X2438789D1*
X2555223D2*
X2694765D1*
X30242Y2081804D2*
X150430D1*
X348582D2*
X384805D1*
X451590D2*
X494004D1*
X2240379D2*
X2302363D1*
X2351492D2*
X2451660D1*
X2542332D2*
X2694765D1*
X30242Y2071936D2*
X150430D1*
X348582D2*
X394687D1*
X461453D2*
X494004D1*
X2250242D2*
X2291094D1*
X2362742D2*
X2474492D1*
X2519519D2*
X2694765D1*
X30242Y2062067D2*
X150430D1*
X348582D2*
X404551D1*
X471316D2*
X494004D1*
X2368855D2*
X2694765D1*
X30242Y2052198D2*
X150430D1*
X348582D2*
X414414D1*
X481180D2*
X497363D1*
X2372000D2*
X2694765D1*
X30242Y2042329D2*
X150430D1*
X348582D2*
X424277D1*
X491062D2*
X738906D1*
X811082D2*
X922715D1*
X1648406D2*
X2059883D1*
X2420418D2*
X2694765D1*
X30242Y2032461D2*
X150430D1*
X348582D2*
X434160D1*
X500926D2*
X738906D1*
X867683D2*
X2059883D1*
X2432254D2*
X2694765D1*
X30242Y2022592D2*
X150430D1*
X348582D2*
X444023D1*
X510789D2*
X738906D1*
X867683D2*
X885195D1*
X964793D2*
X1610195D1*
X1689793D2*
X1780547D1*
X2438621D2*
X2466582D1*
X2558426D2*
X2694765D1*
X30242Y2012723D2*
X453887D1*
X520672D2*
X738906D1*
X867683D2*
X883594D1*
X966394D2*
X1608594D1*
X1691394D2*
X1770371D1*
X2441941D2*
X2466582D1*
X2558426D2*
X2694765D1*
X30242Y2002854D2*
X463769D1*
X530535D2*
X738906D1*
X867683D2*
X883594D1*
X966394D2*
X1608594D1*
X1691394D2*
X1760508D1*
X2442918D2*
X2466582D1*
X2558426D2*
X2694765D1*
X30242Y1992986D2*
X473633D1*
X540398D2*
X738906D1*
X867683D2*
X883594D1*
X966394D2*
X1608594D1*
X1691394D2*
X1750644D1*
X2441707D2*
X2466582D1*
X2558426D2*
X2694765D1*
X30242Y1983117D2*
X483496D1*
X550262D2*
X738906D1*
X867683D2*
X883633D1*
X966355D2*
X1608633D1*
X1691355D2*
X1740762D1*
X2438094D2*
X2466582D1*
X2558426D2*
X2694765D1*
X30242Y1973248D2*
X493359D1*
X560144D2*
X682324D1*
X1026844D2*
X1610547D1*
X1689441D2*
X1731660D1*
X2431316D2*
X2466582D1*
X2558426D2*
X2694765D1*
X30242Y1963379D2*
X503242D1*
X1036863D2*
X1577285D1*
X1691394D2*
X1728613D1*
X2418426D2*
X2466582D1*
X2558426D2*
X2694765D1*
X30242Y1953511D2*
X513105D1*
X1046726D2*
X1567402D1*
X1691394D2*
X1728594D1*
X2431043D2*
X2466582D1*
X2558426D2*
X2694765D1*
X30242Y1943642D2*
X522969D1*
X1056609D2*
X1557539D1*
X1691394D2*
X1728594D1*
X2112078D2*
X2285488D1*
X2437937D2*
X2466582D1*
X2558426D2*
X2694765D1*
X30242Y1933773D2*
X532832D1*
X1066473D2*
X1547676D1*
X1691394D2*
X1728594D1*
X1831687D2*
X1947383D1*
X2021512D2*
X2130332D1*
X2441629D2*
X2466582D1*
X2558426D2*
X2694765D1*
X30242Y1923904D2*
X577207D1*
X1075750D2*
X1537812D1*
X1689070D2*
X1728594D1*
X1824656D2*
X1947383D1*
X2021512D2*
X2120469D1*
X2442918D2*
X2466582D1*
X2558426D2*
X2694765D1*
X30242Y1914035D2*
X150430D1*
X348582D2*
X577207D1*
X1080379D2*
X1527949D1*
X1722058D2*
X1728594D1*
X1796394D2*
X1947383D1*
X2021512D2*
X2037930D1*
X2442000D2*
X2466582D1*
X2558426D2*
X2694765D1*
X30242Y1904167D2*
X150430D1*
X348582D2*
X577207D1*
X1081394D2*
X1522773D1*
X1796394D2*
X1837246D1*
X2438758D2*
X2466582D1*
X2558426D2*
X2694765D1*
X30242Y1894298D2*
X150430D1*
X348582D2*
X577207D1*
X1081394D2*
X1522344D1*
X1796394D2*
X1826953D1*
X2147742D2*
X2253359D1*
X2432508D2*
X2466582D1*
X2558426D2*
X2694765D1*
X30242Y1884429D2*
X150430D1*
X348582D2*
X577207D1*
X1081394D2*
X1522344D1*
X1796394D2*
X1817070D1*
X2137859D2*
X2243496D1*
X2420906D2*
X2466582D1*
X2558426D2*
X2694765D1*
X30242Y1874560D2*
X150430D1*
X348582D2*
X577207D1*
X742683D2*
X886367D1*
X1081394D2*
X1522344D1*
X1796394D2*
X1807207D1*
X2127996D2*
X2150430D1*
X2224578D2*
X2233633D1*
X2429734D2*
X2466582D1*
X2558426D2*
X2694765D1*
X30242Y1864692D2*
X150430D1*
X348582D2*
X641094D1*
X683894D2*
X883594D1*
X1081394D2*
X1522344D1*
X2437215D2*
X2482324D1*
X2542683D2*
X2694765D1*
X30242Y1854823D2*
X150430D1*
X348582D2*
X618535D1*
X706453D2*
X883594D1*
X1081394D2*
X1522344D1*
X2270750D2*
X2276399D1*
X2441277D2*
X2482324D1*
X2542683D2*
X2694765D1*
X30242Y1844954D2*
X150430D1*
X348582D2*
X618535D1*
X706453D2*
X883594D1*
X1081394D2*
X1522344D1*
X2260887D2*
X2266535D1*
X2442879D2*
X2482324D1*
X2542683D2*
X2694765D1*
X30242Y1835085D2*
X150430D1*
X348582D2*
X618535D1*
X706453D2*
X883594D1*
X1081394D2*
X1522344D1*
X2250945D2*
X2256654D1*
X2442273D2*
X2482324D1*
X2542683D2*
X2694765D1*
X30242Y1825217D2*
X165117D1*
X207918D2*
X618535D1*
X804637D2*
X886523D1*
X1081394D2*
X1172070D1*
X1422703D2*
X1522344D1*
X2134012D2*
X2150430D1*
X2224578D2*
X2246777D1*
X2439363D2*
X2482324D1*
X2542683D2*
X2694765D1*
X30242Y1815348D2*
X165117D1*
X207918D2*
X618535D1*
X814500D2*
X883594D1*
X1081394D2*
X1163476D1*
X1431316D2*
X1522344D1*
X2134012D2*
X2236914D1*
X2433601D2*
X2482324D1*
X2542683D2*
X2694765D1*
X30242Y1805479D2*
X165117D1*
X207918D2*
X618535D1*
X824363D2*
X883594D1*
X1081394D2*
X1162890D1*
X1431902D2*
X1522344D1*
X2134012D2*
X2227051D1*
X2542683D2*
X2694765D1*
X30242Y1795610D2*
X165117D1*
X207918D2*
X618535D1*
X834246D2*
X883594D1*
X1081394D2*
X1162890D1*
X1431902D2*
X1522344D1*
X1846394D2*
X2024531D1*
X2134012D2*
X2150430D1*
X2274051D2*
X2281543D1*
X2542683D2*
X2694765D1*
X30242Y1785741D2*
X165117D1*
X207918D2*
X618535D1*
X706453D2*
X784414D1*
X843348D2*
X883594D1*
X1081394D2*
X1162890D1*
X1431902D2*
X1522344D1*
X1846394D2*
X1893965D1*
X2264168D2*
X2284277D1*
X2542683D2*
X2694765D1*
X30242Y1775873D2*
X165117D1*
X216473D2*
X618535D1*
X785203D2*
X794277D1*
X846375D2*
X886074D1*
X1081394D2*
X1162890D1*
X1431902D2*
X1522344D1*
X1846394D2*
X1883594D1*
X2254305D2*
X2289805D1*
X2542683D2*
X2694765D1*
X30242Y1766004D2*
X167715D1*
X576160D2*
X697285D1*
X785203D2*
X803594D1*
X846394D2*
X883594D1*
X1081394D2*
X1162890D1*
X1431902D2*
X1522344D1*
X1846394D2*
X1865879D1*
X2244441D2*
X2299863D1*
X2442781D2*
X2482324D1*
X2542683D2*
X2694765D1*
X30242Y1756135D2*
X176523D1*
X586219D2*
X697285D1*
X785203D2*
X803594D1*
X846394D2*
X883594D1*
X1081394D2*
X1162890D1*
X1431902D2*
X1522344D1*
X1846394D2*
X1865879D1*
X2230535D2*
X2351523D1*
X2442488D2*
X2482324D1*
X2542683D2*
X2694765D1*
X30242Y1746266D2*
X186387D1*
X596082D2*
X697285D1*
X785203D2*
X803594D1*
X846394D2*
X883594D1*
X1081394D2*
X1162890D1*
X1431902D2*
X1522344D1*
X1846394D2*
X1865879D1*
X2208894D2*
X2346836D1*
X2439910D2*
X2694765D1*
X30242Y1736398D2*
X196250D1*
X605945D2*
X697285D1*
X785203D2*
X803594D1*
X846394D2*
X883594D1*
X1081394D2*
X1162890D1*
X1431902D2*
X1522344D1*
X1741238D2*
X1753594D1*
X1846394D2*
X1865879D1*
X2208894D2*
X2336973D1*
X2434598D2*
X2487090D1*
X2506902D2*
X2694765D1*
X30242Y1726529D2*
X556113D1*
X615828D2*
X697285D1*
X785203D2*
X803594D1*
X846394D2*
X885683D1*
X1081394D2*
X1162890D1*
X1431902D2*
X1522344D1*
X1689324D2*
X1753594D1*
X1846394D2*
X1865879D1*
X2217683D2*
X2327109D1*
X2424988D2*
X2455644D1*
X2538348D2*
X2694765D1*
X30242Y1716660D2*
X565996D1*
X625691D2*
X697285D1*
X785203D2*
X803594D1*
X846394D2*
X883633D1*
X1081394D2*
X1162890D1*
X1431902D2*
X1522344D1*
X1691375D2*
X1753594D1*
X1846394D2*
X1865879D1*
X2217683D2*
X2317246D1*
X2391082D2*
X2441387D1*
X2552605D2*
X2694765D1*
X30242Y1706791D2*
X575859D1*
X635555D2*
X697285D1*
X785203D2*
X803594D1*
X846394D2*
X883594D1*
X1081394D2*
X1162890D1*
X1431902D2*
X1522344D1*
X1691394D2*
X1751933D1*
X1846394D2*
X1866348D1*
X2217683D2*
X2307363D1*
X2381219D2*
X2431640D1*
X2562351D2*
X2694765D1*
X30242Y1696923D2*
X273613D1*
X427664D2*
X585723D1*
X645418D2*
X697285D1*
X785203D2*
X803594D1*
X846394D2*
X883594D1*
X1081394D2*
X1162890D1*
X1431902D2*
X1522344D1*
X1691394D2*
X1742070D1*
X1846394D2*
X1868047D1*
X2217683D2*
X2297500D1*
X2371336D2*
X2424551D1*
X2569441D2*
X2694765D1*
X30242Y1687054D2*
X260879D1*
X440398D2*
X595605D1*
X655301D2*
X803594D1*
X846394D2*
X883594D1*
X1081394D2*
X1162890D1*
X1431902D2*
X1522344D1*
X1691394D2*
X1732207D1*
X1846394D2*
X1864707D1*
X2217683D2*
X2287637D1*
X2361473D2*
X2419355D1*
X2574656D2*
X2694765D1*
X30242Y1677185D2*
X253359D1*
X447918D2*
X605469D1*
X665164D2*
X803594D1*
X846394D2*
X885312D1*
X1081394D2*
X1162890D1*
X1431902D2*
X1522344D1*
X1689676D2*
X1722344D1*
X2217683D2*
X2277773D1*
X2351609D2*
X2415683D1*
X2578308D2*
X2694765D1*
X30242Y1667316D2*
X248750D1*
X452527D2*
X615332D1*
X675027D2*
X803594D1*
X846394D2*
X883672D1*
X1081394D2*
X1162890D1*
X1431902D2*
X1522344D1*
X2217683D2*
X2267890D1*
X2341746D2*
X2413359D1*
X2580633D2*
X2694765D1*
X30242Y1657448D2*
X246289D1*
X454988D2*
X625195D1*
X684910D2*
X803594D1*
X846394D2*
X883594D1*
X1081394D2*
X1162890D1*
X1431902D2*
X1522344D1*
X2217683D2*
X2258027D1*
X2331863D2*
X2356640D1*
X2367293D2*
X2412246D1*
X2581746D2*
X2694765D1*
X30242Y1647579D2*
X245683D1*
X455594D2*
X635078D1*
X694773D2*
X803594D1*
X846394D2*
X883594D1*
X1081394D2*
X1162890D1*
X1431902D2*
X1522344D1*
X2217683D2*
X2248164D1*
X2400223D2*
X2412305D1*
X2581687D2*
X2694765D1*
X30242Y1637710D2*
X246875D1*
X454402D2*
X644941D1*
X704637D2*
X803594D1*
X846394D2*
X883594D1*
X1081394D2*
X1162890D1*
X1431902D2*
X1522344D1*
X1855066D2*
X1864707D1*
X2217683D2*
X2238281D1*
X2580457D2*
X2694765D1*
X30242Y1627841D2*
X249980D1*
X451297D2*
X654805D1*
X714500D2*
X803594D1*
X846394D2*
X885000D1*
X1081394D2*
X1162890D1*
X1431902D2*
X1522344D1*
X1846394D2*
X1879238D1*
X2217683D2*
X2231523D1*
X2578015D2*
X2694765D1*
X30242Y1617972D2*
X255410D1*
X445867D2*
X539805D1*
X627723D2*
X664668D1*
X724383D2*
X803613D1*
X855633D2*
X883769D1*
X1081394D2*
X1162890D1*
X1431902D2*
X1522344D1*
X1797820D2*
X1803594D1*
X1846394D2*
X1873105D1*
X2217683D2*
X2229844D1*
X2574207D2*
X2694765D1*
X30242Y1608104D2*
X264180D1*
X437098D2*
X539805D1*
X627723D2*
X674551D1*
X734246D2*
X806601D1*
X873758D2*
X883594D1*
X1081394D2*
X1162890D1*
X1431902D2*
X1522344D1*
X1787957D2*
X1803594D1*
X1846394D2*
X1861250D1*
X2165144D2*
X2229844D1*
X2282644D2*
X2290820D1*
X2568836D2*
X2694765D1*
X30242Y1598235D2*
X280273D1*
X421004D2*
X539805D1*
X627723D2*
X684414D1*
X744109D2*
X815664D1*
X1081394D2*
X1162890D1*
X1431902D2*
X1522344D1*
X1778094D2*
X1803594D1*
X1846394D2*
X1861250D1*
X2165144D2*
X2229844D1*
X2282644D2*
X2288069D1*
X2561531D2*
X2694765D1*
X30242Y1588366D2*
X401348D1*
X627723D2*
X694277D1*
X753992D2*
X825527D1*
X1081394D2*
X1162890D1*
X1431902D2*
X1522344D1*
X1768211D2*
X1803594D1*
X1846394D2*
X1861250D1*
X2165144D2*
X2229844D1*
X2437234D2*
X2442561D1*
X2551453D2*
X2694765D1*
X30242Y1578497D2*
X387793D1*
X627723D2*
X704160D1*
X763855D2*
X830430D1*
X1081394D2*
X1162890D1*
X1431902D2*
X1522344D1*
X1758348D2*
X1803594D1*
X1846394D2*
X1861250D1*
X2165144D2*
X2229844D1*
X2437273D2*
X2457480D1*
X2536512D2*
X2694765D1*
X30242Y1568629D2*
X385254D1*
X627723D2*
X714023D1*
X1081394D2*
X1164219D1*
X1430574D2*
X1522344D1*
X1748484D2*
X1803594D1*
X1846394D2*
X1861250D1*
X2165144D2*
X2229844D1*
X2282644D2*
X2287921D1*
X2435984D2*
X2694765D1*
X30242Y1558760D2*
X218906D1*
X246140D2*
X385254D1*
X627723D2*
X723887D1*
X1081394D2*
X1522344D1*
X1738601D2*
X1803594D1*
X1846394D2*
X1861250D1*
X2165144D2*
X2228086D1*
X2282644D2*
X2290605D1*
X2433328D2*
X2694765D1*
X30242Y1548891D2*
X198164D1*
X266902D2*
X385254D1*
X627723D2*
X733750D1*
X1081394D2*
X1522344D1*
X1728738D2*
X1803594D1*
X1846394D2*
X1867402D1*
X2165144D2*
X2218223D1*
X2282625D2*
X2294844D1*
X2429090D2*
X2694765D1*
X30242Y1539022D2*
X188242D1*
X276805D2*
X385254D1*
X706453D2*
X743633D1*
X1081394D2*
X1522344D1*
X1718875D2*
X1803594D1*
X1846394D2*
X1861250D1*
X2165144D2*
X2208359D1*
X2280164D2*
X2300976D1*
X2422957D2*
X2694765D1*
X30242Y1529154D2*
X182148D1*
X282918D2*
X385254D1*
X552254D2*
X618535D1*
X706453D2*
X884473D1*
X1081394D2*
X1522344D1*
X1690535D2*
X1803594D1*
X1846394D2*
X1861250D1*
X2165144D2*
X2198476D1*
X2272332D2*
X2309668D1*
X2414265D2*
X2694765D1*
X30242Y1519285D2*
X178535D1*
X286531D2*
X385254D1*
X552254D2*
X618535D1*
X706453D2*
X873594D1*
X1081394D2*
X1522344D1*
X1751414D2*
X1803594D1*
X1846394D2*
X1861250D1*
X2164324D2*
X2188613D1*
X2262449D2*
X2322637D1*
X2401277D2*
X2694765D1*
X30242Y1509416D2*
X176894D1*
X288152D2*
X385254D1*
X552254D2*
X618535D1*
X706453D2*
X860820D1*
X1081394D2*
X1522344D1*
X1764187D2*
X1803594D1*
X1846394D2*
X1861250D1*
X2158015D2*
X2178750D1*
X2252586D2*
X2350390D1*
X2373523D2*
X2694765D1*
X30242Y1499547D2*
X176758D1*
X288308D2*
X385254D1*
X552254D2*
X618535D1*
X706453D2*
X850937D1*
X1081394D2*
X1522344D1*
X1774051D2*
X1803594D1*
X1846394D2*
X1861250D1*
X2242723D2*
X2694765D1*
X30242Y1489678D2*
X176758D1*
X288308D2*
X385254D1*
X552254D2*
X618535D1*
X706453D2*
X841074D1*
X1081394D2*
X1522344D1*
X1783914D2*
X1803594D1*
X1846394D2*
X1861250D1*
X2232840D2*
X2694765D1*
X30242Y1479810D2*
X176758D1*
X288308D2*
X385254D1*
X552254D2*
X618535D1*
X706453D2*
X831211D1*
X1081394D2*
X1522344D1*
X1846394D2*
X1872344D1*
X1915144D2*
X1991094D1*
X2222976D2*
X2694765D1*
X30242Y1469941D2*
X176758D1*
X288308D2*
X385254D1*
X552254D2*
X618535D1*
X706453D2*
X821348D1*
X1081394D2*
X1522344D1*
X1846394D2*
X1872344D1*
X1915144D2*
X1991094D1*
X2217683D2*
X2694765D1*
X30242Y1460072D2*
X176758D1*
X288308D2*
X385254D1*
X552254D2*
X812500D1*
X1081394D2*
X1522344D1*
X1846394D2*
X1872344D1*
X1915144D2*
X1986465D1*
X2217683D2*
X2694765D1*
X30242Y1450203D2*
X176758D1*
X288308D2*
X385254D1*
X552254D2*
X809844D1*
X1081394D2*
X1522344D1*
X1846394D2*
X1872344D1*
X1915144D2*
X1976601D1*
X2087117D2*
X2094824D1*
X2217683D2*
X2694765D1*
X30242Y1440335D2*
X176758D1*
X288308D2*
X385254D1*
X552254D2*
X809844D1*
X1081394D2*
X1522344D1*
X1846394D2*
X1872344D1*
X1915144D2*
X1966738D1*
X2077254D2*
X2094824D1*
X2217683D2*
X2694765D1*
X30242Y1430466D2*
X176758D1*
X288308D2*
X385254D1*
X552254D2*
X809844D1*
X1081394D2*
X1522344D1*
X1846394D2*
X1872344D1*
X1915144D2*
X1956875D1*
X2067390D2*
X2094824D1*
X2217683D2*
X2694765D1*
X30242Y1420597D2*
X176758D1*
X288308D2*
X385254D1*
X552254D2*
X809844D1*
X1081394D2*
X1522344D1*
X1846394D2*
X1872344D1*
X1915144D2*
X1946992D1*
X2057527D2*
X2094824D1*
X2217683D2*
X2694765D1*
X30242Y1410728D2*
X176758D1*
X288308D2*
X385254D1*
X552254D2*
X809844D1*
X1081394D2*
X1522344D1*
X1846316D2*
X1872344D1*
X1915144D2*
X1937129D1*
X2047644D2*
X2094824D1*
X2273777D2*
X2694765D1*
X30242Y1400860D2*
X177109D1*
X287957D2*
X385254D1*
X552254D2*
X809844D1*
X1081394D2*
X1522344D1*
X1842762D2*
X1872344D1*
X1915144D2*
X1927265D1*
X2037781D2*
X2071015D1*
X2286062D2*
X2694765D1*
X30242Y1390991D2*
X179160D1*
X285887D2*
X385254D1*
X552254D2*
X743105D1*
X781883D2*
X809844D1*
X1081394D2*
X1522344D1*
X1833348D2*
X1872344D1*
X2027918D2*
X2061133D1*
X2295926D2*
X2413789D1*
X2502566D2*
X2588203D1*
X2657293D2*
X2694765D1*
X30242Y1381122D2*
X183281D1*
X281785D2*
X385254D1*
X552254D2*
X729101D1*
X795906D2*
X809844D1*
X1081394D2*
X1522344D1*
X1823465D2*
X1870019D1*
X2018035D2*
X2053359D1*
X2305808D2*
X2405351D1*
X2511023D2*
X2579746D1*
X2665750D2*
X2694765D1*
X30242Y1371253D2*
X190058D1*
X274988D2*
X385254D1*
X552254D2*
X721914D1*
X803074D2*
X809844D1*
X1079715D2*
X1522344D1*
X1813601D2*
X1860156D1*
X2008172D2*
X2051738D1*
X2315672D2*
X2401191D1*
X2515164D2*
X2575605D1*
X2669890D2*
X2694765D1*
X30242Y1361385D2*
X70058D1*
X192449D2*
X201269D1*
X263777D2*
X385254D1*
X552254D2*
X718047D1*
X1074012D2*
X1522344D1*
X1998308D2*
X2051738D1*
X2217683D2*
X2251699D1*
X2325535D2*
X2400937D1*
X2515437D2*
X2575351D1*
X2670144D2*
X2694765D1*
X30242Y1351516D2*
X66562D1*
X195945D2*
X385254D1*
X552254D2*
X716601D1*
X1064265D2*
X1522344D1*
X1988445D2*
X2051738D1*
X2217683D2*
X2261562D1*
X2335398D2*
X2403183D1*
X2513172D2*
X2577598D1*
X2667898D2*
X2694765D1*
X30242Y1341647D2*
X66504D1*
X196004D2*
X385351D1*
X552137D2*
X717363D1*
X1054383D2*
X1522344D1*
X1978562D2*
X2051738D1*
X2217683D2*
X2271426D1*
X2345281D2*
X2379394D1*
X2507801D2*
X2582969D1*
X2662527D2*
X2694765D1*
X30242Y1331778D2*
X66504D1*
X196004D2*
X389238D1*
X548269D2*
X720430D1*
X804558D2*
X809844D1*
X1050144D2*
X1522344D1*
X1968699D2*
X2051738D1*
X2217683D2*
X2281308D1*
X2355144D2*
X2377207D1*
X2494851D2*
X2596387D1*
X2649109D2*
X2694765D1*
X30242Y1321909D2*
X66504D1*
X196004D2*
X425117D1*
X543621D2*
X726445D1*
X798562D2*
X809844D1*
X1050144D2*
X1522344D1*
X1685203D2*
X1719824D1*
X2217683D2*
X2291172D1*
X2365008D2*
X2377207D1*
X2504441D2*
X2694765D1*
X30242Y1312041D2*
X66504D1*
X410594D2*
X430156D1*
X546023D2*
X737461D1*
X787527D2*
X809844D1*
X1671394D2*
X1719824D1*
X2217683D2*
X2301035D1*
X2507918D2*
X2694765D1*
X30242Y1302172D2*
X66504D1*
X416238D2*
X438867D1*
X590418D2*
X656035D1*
X743953D2*
X809844D1*
X1671394D2*
X1719824D1*
X2217683D2*
X2310898D1*
X2507683D2*
X2694765D1*
X30242Y1292303D2*
X66504D1*
X416394D2*
X448750D1*
X590418D2*
X656035D1*
X743953D2*
X809844D1*
X1671394D2*
X1719824D1*
X2217683D2*
X2320781D1*
X2522254D2*
X2694765D1*
X30242Y1282434D2*
X66504D1*
X416394D2*
X453594D1*
X590418D2*
X656035D1*
X758933D2*
X809844D1*
X1671394D2*
X1719824D1*
X2532195D2*
X2694765D1*
X30242Y1272566D2*
X66504D1*
X416394D2*
X453594D1*
X590418D2*
X656035D1*
X772254D2*
X809844D1*
X1671258D2*
X1719824D1*
X1780183D2*
X1847871D1*
X2542078D2*
X2694765D1*
X30242Y1262697D2*
X66504D1*
X416394D2*
X453594D1*
X590418D2*
X656035D1*
X782117D2*
X809844D1*
X1667273D2*
X1719824D1*
X1780183D2*
X1848301D1*
X2551316D2*
X2694765D1*
X30242Y1252828D2*
X66504D1*
X416394D2*
X453594D1*
X590418D2*
X656035D1*
X791570D2*
X809844D1*
X1657683D2*
X1723594D1*
X1776394D2*
X1852949D1*
X2208894D2*
X2215879D1*
X2554969D2*
X2694765D1*
X30242Y1242959D2*
X66504D1*
X416394D2*
X453594D1*
X590418D2*
X656035D1*
X796902D2*
X809844D1*
X1647801D2*
X1723594D1*
X1776394D2*
X1853594D1*
X2207644D2*
X2215879D1*
X2555144D2*
X2694765D1*
X30242Y1233091D2*
X66504D1*
X416394D2*
X453594D1*
X590418D2*
X656035D1*
X798855D2*
X809844D1*
X1050144D2*
X1441094D1*
X1637937D2*
X1723594D1*
X1776394D2*
X1853594D1*
X2242156D2*
X2377656D1*
X2555144D2*
X2694765D1*
X30242Y1223222D2*
X66504D1*
X416394D2*
X453594D1*
X590418D2*
X656035D1*
X798894D2*
X809844D1*
X1058269D2*
X1441094D1*
X1633894D2*
X1723594D1*
X1776394D2*
X1853594D1*
X2253797D2*
X2377207D1*
X2555144D2*
X2694765D1*
X30242Y1213353D2*
X66504D1*
X416394D2*
X453594D1*
X590418D2*
X656035D1*
X798894D2*
X809844D1*
X1068133D2*
X1441094D1*
X1633894D2*
X1723594D1*
X1776394D2*
X1853594D1*
X2555144D2*
X2694765D1*
X30242Y1203484D2*
X66504D1*
X416394D2*
X453594D1*
X590418D2*
X656035D1*
X798894D2*
X809844D1*
X1078015D2*
X1441094D1*
X1633894D2*
X1723594D1*
X1776394D2*
X1853594D1*
X2555144D2*
X2694765D1*
X30242Y1193615D2*
X66504D1*
X416394D2*
X453594D1*
X590418D2*
X656035D1*
X1087879D2*
X1441094D1*
X1633894D2*
X1723594D1*
X1776394D2*
X1853594D1*
X2555144D2*
X2694765D1*
X30242Y1183747D2*
X66504D1*
X416394D2*
X453594D1*
X546394D2*
X716582D1*
X808426D2*
X817656D1*
X1097742D2*
X1441094D1*
X1633894D2*
X1723594D1*
X1776394D2*
X1853594D1*
X2555144D2*
X2694765D1*
X30242Y1173878D2*
X66504D1*
X416394D2*
X453594D1*
X546394D2*
X716582D1*
X808426D2*
X827519D1*
X1107605D2*
X1441094D1*
X1633894D2*
X1723594D1*
X1776394D2*
X1853594D1*
X2149754D2*
X2224101D1*
X2555144D2*
X2694765D1*
X30242Y1164009D2*
X66504D1*
X416394D2*
X453594D1*
X546394D2*
X716582D1*
X808426D2*
X837383D1*
X1117488D2*
X1441094D1*
X1633894D2*
X1723594D1*
X1776394D2*
X1853594D1*
X2149754D2*
X2215879D1*
X2555144D2*
X2694765D1*
X30242Y1154140D2*
X66504D1*
X416394D2*
X453594D1*
X546394D2*
X716582D1*
X808426D2*
X847265D1*
X1127351D2*
X1441094D1*
X1633894D2*
X1723594D1*
X1776394D2*
X1853594D1*
X2149754D2*
X2215879D1*
X2555144D2*
X2694765D1*
X30242Y1144272D2*
X66504D1*
X416394D2*
X453594D1*
X546394D2*
X716582D1*
X808426D2*
X857129D1*
X1137215D2*
X1441094D1*
X1636473D2*
X1723594D1*
X1776394D2*
X1853594D1*
X2149754D2*
X2215879D1*
X2555144D2*
X2694765D1*
X30242Y1134403D2*
X66504D1*
X416394D2*
X453594D1*
X546394D2*
X716582D1*
X808426D2*
X866992D1*
X1147098D2*
X1441094D1*
X1639715D2*
X1723594D1*
X1776394D2*
X1853594D1*
X2149754D2*
X2215879D1*
X2554949D2*
X2694765D1*
X30242Y1124534D2*
X66504D1*
X416394D2*
X453594D1*
X546394D2*
X716582D1*
X808426D2*
X876875D1*
X1156961D2*
X1441094D1*
X1639031D2*
X1723594D1*
X1776394D2*
X1853594D1*
X2149754D2*
X2215879D1*
X2551121D2*
X2694765D1*
X30242Y1114665D2*
X66504D1*
X416394D2*
X453594D1*
X546394D2*
X716582D1*
X808426D2*
X886738D1*
X1166824D2*
X1441094D1*
X1634051D2*
X1723594D1*
X1776394D2*
X1853594D1*
X2541805D2*
X2694765D1*
X30242Y1104797D2*
X66504D1*
X416394D2*
X453594D1*
X546394D2*
X726094D1*
X798894D2*
X896601D1*
X1176687D2*
X1442617D1*
X1608894D2*
X1723594D1*
X1776394D2*
X1853594D1*
X2531941D2*
X2694765D1*
X30242Y1094928D2*
X66504D1*
X416394D2*
X453594D1*
X546394D2*
X714609D1*
X810398D2*
X824844D1*
X1186570D2*
X1450215D1*
X1608894D2*
X1723594D1*
X1776394D2*
X1853594D1*
X2521941D2*
X2694765D1*
X30242Y1085059D2*
X66504D1*
X416394D2*
X453594D1*
X546394D2*
X714609D1*
X810398D2*
X824844D1*
X1196433D2*
X1460098D1*
X1608894D2*
X1723594D1*
X1776394D2*
X1855547D1*
X2507820D2*
X2694765D1*
X30242Y1075190D2*
X66504D1*
X416394D2*
X453594D1*
X546394D2*
X683242D1*
X810398D2*
X824844D1*
X920633D2*
X926226D1*
X1206297D2*
X1469961D1*
X1610906D2*
X1723594D1*
X1776394D2*
X1863711D1*
X2507801D2*
X2694765D1*
X30242Y1065322D2*
X66504D1*
X416394D2*
X453594D1*
X546394D2*
X665898D1*
X810398D2*
X824844D1*
X920633D2*
X936074D1*
X1216180D2*
X1472344D1*
X1620789D2*
X1723594D1*
X1776394D2*
X1873574D1*
X2164734D2*
X2377207D1*
X2503992D2*
X2694765D1*
X30242Y1055453D2*
X66504D1*
X416394D2*
X453594D1*
X546394D2*
X656035D1*
X810398D2*
X824844D1*
X920633D2*
X945957D1*
X1226043D2*
X1429570D1*
X1457918D2*
X1472344D1*
X1689676D2*
X1723594D1*
X1776394D2*
X1817148D1*
X2164109D2*
X2377207D1*
X2496219D2*
X2594551D1*
X2650945D2*
X2694765D1*
X30242Y1045584D2*
X66504D1*
X416394D2*
X450371D1*
X549617D2*
X646172D1*
X810398D2*
X824844D1*
X920633D2*
X955820D1*
X1235906D2*
X1412363D1*
X1689676D2*
X1723594D1*
X1776394D2*
X1811367D1*
X2169890D2*
X2379883D1*
X2508426D2*
X2582344D1*
X2663152D2*
X2694765D1*
X30242Y1035715D2*
X66504D1*
X416394D2*
X447305D1*
X552703D2*
X636289D1*
X810398D2*
X824844D1*
X920633D2*
X965683D1*
X1245769D2*
X1404277D1*
X1689676D2*
X1723594D1*
X1794812D2*
X1810156D1*
X2054695D2*
X2061289D1*
X2175379D2*
X2402812D1*
X2513543D2*
X2577226D1*
X2668269D2*
X2694765D1*
X30242Y1025846D2*
X66504D1*
X416394D2*
X446211D1*
X553797D2*
X626426D1*
X810398D2*
X824844D1*
X920633D2*
X975547D1*
X1255652D2*
X1399844D1*
X1689676D2*
X1723594D1*
X2185262D2*
X2400937D1*
X2515437D2*
X2575351D1*
X2670144D2*
X2694765D1*
X30242Y1015978D2*
X66504D1*
X416394D2*
X446973D1*
X553015D2*
X616758D1*
X690398D2*
X714609D1*
X810398D2*
X824844D1*
X920633D2*
X985430D1*
X1265515D2*
X1397949D1*
X1689676D2*
X1723594D1*
X2195125D2*
X2401348D1*
X2515008D2*
X2575762D1*
X2669734D2*
X2694765D1*
X30242Y1006109D2*
X67539D1*
X416394D2*
X449687D1*
X550301D2*
X611836D1*
X680535D2*
X714609D1*
X810398D2*
X824844D1*
X920633D2*
X995293D1*
X1275379D2*
X1398281D1*
X1689676D2*
X1723594D1*
X2204988D2*
X2405723D1*
X2510652D2*
X2580117D1*
X2665379D2*
X2694765D1*
X30242Y996240D2*
X74473D1*
X416394D2*
X454726D1*
X545281D2*
X611094D1*
X670652D2*
X1005156D1*
X1285262D2*
X1400859D1*
X1689676D2*
X1723594D1*
X2656336D2*
X2694765D1*
X30242Y986371D2*
X84336D1*
X416394D2*
X463008D1*
X537000D2*
X611094D1*
X663894D2*
X1015039D1*
X1295125D2*
X1406211D1*
X1689676D2*
X1723594D1*
X1786023D2*
X2011953D1*
X2085789D2*
X2113984D1*
X2655984D2*
X2694765D1*
X30242Y976503D2*
X94219D1*
X416394D2*
X478125D1*
X521883D2*
X611094D1*
X705183D2*
X1024902D1*
X1304988D2*
X1415859D1*
X1689676D2*
X1723594D1*
X1776394D2*
X2002090D1*
X2075926D2*
X2124902D1*
X2665848D2*
X2694765D1*
X30242Y966634D2*
X104082D1*
X416394D2*
X611094D1*
X705183D2*
X1034765D1*
X1314851D2*
X1472344D1*
X1515144D2*
X1572344D1*
X1619461D2*
X1723594D1*
X1776394D2*
X1992207D1*
X2674812D2*
X2694765D1*
X30242Y956765D2*
X113945D1*
X416394D2*
X611094D1*
X781746D2*
X811953D1*
X988562D2*
X1044629D1*
X1324734D2*
X1435058D1*
X1452430D2*
X1472344D1*
X1515144D2*
X1535058D1*
X1552430D2*
X1573164D1*
X1629344D2*
X1635058D1*
X1652430D2*
X1723594D1*
X1776394D2*
X1982344D1*
X2677644D2*
X2694765D1*
X30242Y946896D2*
X123828D1*
X416394D2*
X611094D1*
X781746D2*
X811953D1*
X1001707D2*
X1054512D1*
X1334598D2*
X1413848D1*
X1573660D2*
X1579512D1*
X1673660D2*
X1723594D1*
X1776394D2*
X1972480D1*
X2677644D2*
X2694765D1*
X30242Y937028D2*
X133691D1*
X585613D2*
X611094D1*
X781746D2*
X811953D1*
X1011570D2*
X1064375D1*
X1344461D2*
X1405117D1*
X1582390D2*
X1589375D1*
X1682390D2*
X1723594D1*
X1776394D2*
X1962598D1*
X2677644D2*
X2694765D1*
X30242Y927159D2*
X143555D1*
X591258D2*
X611094D1*
X781746D2*
X811953D1*
X1021433D2*
X1074238D1*
X1354324D2*
X1400273D1*
X1587215D2*
X1599238D1*
X1687215D2*
X1723594D1*
X1776394D2*
X1953262D1*
X2026590D2*
X2039707D1*
X2677644D2*
X2694765D1*
X30242Y917290D2*
X153418D1*
X591394D2*
X611094D1*
X781746D2*
X811953D1*
X1031316D2*
X1084101D1*
X1265144D2*
X1276211D1*
X1364207D2*
X1398086D1*
X1589422D2*
X1598086D1*
X1689422D2*
X1723594D1*
X1776394D2*
X1949062D1*
X2016707D2*
X2039707D1*
X2677644D2*
X2694765D1*
X30242Y907421D2*
X154004D1*
X591394D2*
X611621D1*
X781746D2*
X811953D1*
X888055D2*
X981484D1*
X1041180D2*
X1093984D1*
X1265144D2*
X1286094D1*
X1374070D2*
X1398105D1*
X1589383D2*
X1598105D1*
X1689383D2*
X1723594D1*
X1776394D2*
X1948594D1*
X2006844D2*
X2044824D1*
X2311394D2*
X2419140D1*
X2677644D2*
X2694765D1*
X30242Y897553D2*
X154004D1*
X591394D2*
X615957D1*
X781746D2*
X811953D1*
X888055D2*
X991348D1*
X1051043D2*
X1103848D1*
X1265144D2*
X1295957D1*
X1383933D2*
X1400390D1*
X1587117D2*
X1600390D1*
X1687117D2*
X1723594D1*
X1776394D2*
X1948594D1*
X2001394D2*
X2044824D1*
X2311394D2*
X2419140D1*
X2677644D2*
X2694765D1*
X30242Y887684D2*
X154004D1*
X591394D2*
X625390D1*
X781746D2*
X811953D1*
X888055D2*
X1001211D1*
X1060926D2*
X1113711D1*
X1265144D2*
X1305820D1*
X1391121D2*
X1405293D1*
X1582195D2*
X1605293D1*
X1682195D2*
X1723594D1*
X1776394D2*
X1948594D1*
X2001394D2*
X2044824D1*
X2311394D2*
X2419140D1*
X2677644D2*
X2694765D1*
X30242Y877815D2*
X154004D1*
X591394D2*
X635898D1*
X781746D2*
X811953D1*
X888055D2*
X1011094D1*
X1070789D2*
X1116094D1*
X1265144D2*
X1315683D1*
X1393777D2*
X1414199D1*
X1573308D2*
X1614199D1*
X1673308D2*
X1723594D1*
X1776394D2*
X1948594D1*
X2001394D2*
X2044824D1*
X2311394D2*
X2419140D1*
X2677644D2*
X2694765D1*
X30242Y867946D2*
X154004D1*
X591394D2*
X644824D1*
X781746D2*
X811953D1*
X888055D2*
X1020957D1*
X1080652D2*
X1116094D1*
X1265144D2*
X1325566D1*
X1393894D2*
X1436973D1*
X1450535D2*
X1472344D1*
X1515144D2*
X1536973D1*
X1550535D2*
X1636973D1*
X1650535D2*
X1723594D1*
X1776394D2*
X1948594D1*
X2001394D2*
X2044824D1*
X2311394D2*
X2419140D1*
X2677644D2*
X2694765D1*
X30242Y858077D2*
X154004D1*
X591394D2*
X705644D1*
X781746D2*
X811953D1*
X888055D2*
X1030820D1*
X1090515D2*
X1116094D1*
X1265144D2*
X1331094D1*
X1393894D2*
X1472344D1*
X1515144D2*
X1723594D1*
X1776394D2*
X1948594D1*
X2001394D2*
X2044824D1*
X2311394D2*
X2419140D1*
X2677644D2*
X2694765D1*
X30242Y848209D2*
X154004D1*
X591394D2*
X705644D1*
X781746D2*
X811953D1*
X888055D2*
X1040683D1*
X1100398D2*
X1116094D1*
X1265144D2*
X1331094D1*
X1393894D2*
X1472344D1*
X1515144D2*
X1723594D1*
X1776394D2*
X1948594D1*
X2001394D2*
X2044824D1*
X2253055D2*
X2263594D1*
X2311394D2*
X2380859D1*
X2677644D2*
X2694765D1*
X30242Y838340D2*
X154004D1*
X591394D2*
X705644D1*
X781746D2*
X811953D1*
X888055D2*
X1050566D1*
X1107625D2*
X1116094D1*
X1265144D2*
X1331094D1*
X1393894D2*
X1472344D1*
X1515144D2*
X1723594D1*
X1776394D2*
X1948594D1*
X2001394D2*
X2044824D1*
X2239324D2*
X2263594D1*
X2311394D2*
X2370996D1*
X2677644D2*
X2694765D1*
X30242Y828471D2*
X154004D1*
X591394D2*
X717305D1*
X770105D2*
X823594D1*
X876394D2*
X1060430D1*
X1108894D2*
X1116094D1*
X1265144D2*
X1331094D1*
X1393894D2*
X1472344D1*
X1515144D2*
X1723594D1*
X1776394D2*
X1948594D1*
X2001394D2*
X2044824D1*
X2239324D2*
X2263594D1*
X2311394D2*
X2361113D1*
X2677644D2*
X2694765D1*
X30242Y818602D2*
X154004D1*
X591394D2*
X717305D1*
X770105D2*
X823594D1*
X876394D2*
X1066094D1*
X1108894D2*
X1116094D1*
X1265144D2*
X1331094D1*
X1393894D2*
X1472344D1*
X1515144D2*
X1723594D1*
X1776394D2*
X1948594D1*
X2001394D2*
X2044824D1*
X2239324D2*
X2263594D1*
X2311394D2*
X2354531D1*
X2677644D2*
X2694765D1*
X30242Y808734D2*
X154004D1*
X591394D2*
X717305D1*
X884109D2*
X1066094D1*
X1108894D2*
X1116094D1*
X1265144D2*
X1331094D1*
X1393894D2*
X1472344D1*
X1515144D2*
X1723594D1*
X1776394D2*
X1948594D1*
X2001394D2*
X2044824D1*
X2239324D2*
X2263594D1*
X2311394D2*
X2353594D1*
X2677644D2*
X2694765D1*
X30242Y798865D2*
X154004D1*
X591394D2*
X717305D1*
X884109D2*
X957324D1*
X1265144D2*
X1331094D1*
X1393894D2*
X1472344D1*
X1515144D2*
X1723594D1*
X1776394D2*
X1948594D1*
X2001394D2*
X2044824D1*
X2239324D2*
X2263594D1*
X2311394D2*
X2353594D1*
X2537234D2*
X2616094D1*
X2677644D2*
X2694765D1*
X30242Y788996D2*
X154004D1*
X591394D2*
X717305D1*
X884109D2*
X957324D1*
X1117683D2*
X1124902D1*
X1265144D2*
X1331094D1*
X1393894D2*
X1472344D1*
X1515144D2*
X1723594D1*
X1776394D2*
X1948594D1*
X2001394D2*
X2044824D1*
X2239324D2*
X2263594D1*
X2311394D2*
X2353594D1*
X2677644D2*
X2694765D1*
X30242Y779127D2*
X154004D1*
X591394D2*
X717305D1*
X884109D2*
X957324D1*
X1117683D2*
X1134765D1*
X1265144D2*
X1331094D1*
X1393894D2*
X1472344D1*
X1515144D2*
X1723594D1*
X1776394D2*
X1948594D1*
X2001394D2*
X2044824D1*
X2239324D2*
X2263594D1*
X2311394D2*
X2353594D1*
X2677644D2*
X2694765D1*
X30242Y769259D2*
X154004D1*
X591394D2*
X717305D1*
X884109D2*
X957324D1*
X1117683D2*
X1144648D1*
X1265144D2*
X1331094D1*
X1393894D2*
X1472344D1*
X1515144D2*
X1723594D1*
X1776394D2*
X1948594D1*
X2001394D2*
X2044824D1*
X2239324D2*
X2263594D1*
X2311394D2*
X2353594D1*
X2676824D2*
X2694765D1*
X30242Y759390D2*
X154004D1*
X591394D2*
X717305D1*
X884109D2*
X957324D1*
X1117683D2*
X1154512D1*
X1265144D2*
X1331094D1*
X1393894D2*
X1472344D1*
X1520457D2*
X1723594D1*
X1776394D2*
X1948594D1*
X2001394D2*
X2044824D1*
X2239324D2*
X2263594D1*
X2311394D2*
X2353594D1*
X2670496D2*
X2694765D1*
X30242Y749521D2*
X154004D1*
X591394D2*
X706035D1*
X793953D2*
X859570D1*
X947488D2*
X957324D1*
X1117683D2*
X1164375D1*
X1265144D2*
X1331094D1*
X1393894D2*
X1473496D1*
X1530320D2*
X1723594D1*
X1776394D2*
X1948594D1*
X2001394D2*
X2044824D1*
X2239324D2*
X2263594D1*
X2311394D2*
X2353594D1*
X2660613D2*
X2694765D1*
X30242Y739652D2*
X154004D1*
X591394D2*
X706035D1*
X793953D2*
X859570D1*
X947488D2*
X957324D1*
X1117683D2*
X1172930D1*
X1265144D2*
X1331094D1*
X1393894D2*
X1480488D1*
X1540203D2*
X1723594D1*
X1776394D2*
X1948594D1*
X2001394D2*
X2044824D1*
X2239324D2*
X2263594D1*
X2311394D2*
X2353594D1*
X2650750D2*
X2694765D1*
X30242Y729783D2*
X150508D1*
X591394D2*
X706035D1*
X793953D2*
X859570D1*
X947488D2*
X957324D1*
X1117683D2*
X1176601D1*
X1265144D2*
X1331094D1*
X1393894D2*
X1490371D1*
X1550066D2*
X1723594D1*
X1776394D2*
X1948594D1*
X2001394D2*
X2044824D1*
X2239324D2*
X2263594D1*
X2311394D2*
X2353594D1*
X2634988D2*
X2694765D1*
X30242Y719915D2*
X140625D1*
X591394D2*
X706035D1*
X793953D2*
X859570D1*
X947488D2*
X957324D1*
X1117683D2*
X1187656D1*
X1265144D2*
X1331094D1*
X1393894D2*
X1500234D1*
X1559930D2*
X1723594D1*
X1776394D2*
X1948594D1*
X2001394D2*
X2044824D1*
X2239324D2*
X2263594D1*
X2311394D2*
X2353594D1*
X2522801D2*
X2694765D1*
X30242Y710046D2*
X130762D1*
X591394D2*
X706035D1*
X793953D2*
X859570D1*
X947488D2*
X957324D1*
X1117683D2*
X1203594D1*
X1265144D2*
X1331094D1*
X1393894D2*
X1510098D1*
X1569812D2*
X1679023D1*
X1708484D2*
X1723594D1*
X1776394D2*
X1948594D1*
X2001394D2*
X2044824D1*
X2239324D2*
X2257910D1*
X2311394D2*
X2353594D1*
X2522801D2*
X2694765D1*
X30242Y700177D2*
X120898D1*
X591394D2*
X706035D1*
X793953D2*
X859570D1*
X947488D2*
X957324D1*
X1117683D2*
X1201582D1*
X1265144D2*
X1331094D1*
X1393894D2*
X1519980D1*
X1717898D2*
X1723594D1*
X1776394D2*
X1948594D1*
X2001394D2*
X2044824D1*
X2239324D2*
X2248047D1*
X2310574D2*
X2353594D1*
X2522801D2*
X2694765D1*
X30242Y690308D2*
X111015D1*
X591394D2*
X706035D1*
X793953D2*
X859570D1*
X947488D2*
X966094D1*
X1008894D2*
X1183769D1*
X1265144D2*
X1331094D1*
X1393894D2*
X1529844D1*
X1776394D2*
X1948594D1*
X2001394D2*
X2044824D1*
X2304949D2*
X2353594D1*
X2522801D2*
X2694765D1*
X30242Y680440D2*
X101152D1*
X591394D2*
X706035D1*
X793953D2*
X859570D1*
X947488D2*
X966094D1*
X1008894D2*
X1057324D1*
X1167683D2*
X1175332D1*
X1265125D2*
X1331094D1*
X1393894D2*
X1539707D1*
X1776394D2*
X1948594D1*
X2001394D2*
X2044824D1*
X2129031D2*
X2228301D1*
X2295066D2*
X2353594D1*
X2424402D2*
X2694765D1*
X30242Y670571D2*
X91289D1*
X591394D2*
X706035D1*
X793953D2*
X859570D1*
X947488D2*
X966094D1*
X1008894D2*
X1057324D1*
X1262137D2*
X1331094D1*
X1393894D2*
X1550117D1*
X1715008D2*
X1723594D1*
X1776394D2*
X1948594D1*
X2001394D2*
X2044824D1*
X2105183D2*
X2218437D1*
X2285203D2*
X2353594D1*
X2434285D2*
X2694765D1*
X30242Y660702D2*
X82109D1*
X591394D2*
X706035D1*
X793953D2*
X859570D1*
X947488D2*
X966094D1*
X1008894D2*
X1057324D1*
X1167683D2*
X1173848D1*
X1257390D2*
X1331094D1*
X1393894D2*
X1723594D1*
X1776394D2*
X1948594D1*
X2001394D2*
X2044824D1*
X2105183D2*
X2208574D1*
X2275340D2*
X2353672D1*
X2444148D2*
X2694765D1*
X30242Y650833D2*
X79023D1*
X591394D2*
X706035D1*
X793953D2*
X859570D1*
X947488D2*
X966094D1*
X1008894D2*
X1057324D1*
X1167683D2*
X1179609D1*
X1251648D2*
X1331094D1*
X1393894D2*
X1723594D1*
X1776394D2*
X1948594D1*
X2001394D2*
X2044824D1*
X2105183D2*
X2198691D1*
X2265476D2*
X2357265D1*
X2454012D2*
X2694765D1*
X30242Y640965D2*
X79004D1*
X591394D2*
X723594D1*
X776394D2*
X929765D1*
X1045242D2*
X1057324D1*
X1167683D2*
X1331094D1*
X1776394D2*
X1948594D1*
X2001394D2*
X2044824D1*
X2105183D2*
X2188828D1*
X2255594D2*
X2366680D1*
X2463894D2*
X2694765D1*
X30242Y631096D2*
X79004D1*
X591394D2*
X723594D1*
X776394D2*
X929765D1*
X1045242D2*
X1057324D1*
X1167683D2*
X1331094D1*
X1776394D2*
X1948594D1*
X2001394D2*
X2044824D1*
X2105183D2*
X2178965D1*
X2245730D2*
X2376562D1*
X2473758D2*
X2694765D1*
X30242Y621227D2*
X79004D1*
X591394D2*
X604863D1*
X795144D2*
X929765D1*
X1238055D2*
X1268242D1*
X1776394D2*
X1948594D1*
X2001394D2*
X2044824D1*
X2105183D2*
X2169101D1*
X2235867D2*
X2386426D1*
X2483621D2*
X2694765D1*
X30242Y611358D2*
X79004D1*
X591394D2*
X604863D1*
X795144D2*
X929765D1*
X1238055D2*
X1268242D1*
X1782625D2*
X1948594D1*
X2001394D2*
X2044824D1*
X2105183D2*
X2159219D1*
X2226004D2*
X2396289D1*
X2493484D2*
X2694765D1*
X30242Y601490D2*
X79004D1*
X591394D2*
X604863D1*
X795144D2*
X929765D1*
X1238055D2*
X1268242D1*
X1792508D2*
X1948594D1*
X2001394D2*
X2149355D1*
X2216121D2*
X2406152D1*
X2503367D2*
X2694765D1*
X30242Y591621D2*
X79004D1*
X591394D2*
X604863D1*
X795144D2*
X929765D1*
X1238055D2*
X1268242D1*
X1802371D2*
X1948594D1*
X2001394D2*
X2139492D1*
X2206258D2*
X2416035D1*
X2513230D2*
X2694765D1*
X30242Y581752D2*
X79004D1*
X591394D2*
X604863D1*
X795144D2*
X929765D1*
X1238055D2*
X1268242D1*
X1392683D2*
X1724258D1*
X1812019D2*
X1948594D1*
X2001394D2*
X2130156D1*
X2196394D2*
X2425898D1*
X2523094D2*
X2694765D1*
X30242Y571883D2*
X79004D1*
X591394D2*
X604863D1*
X923582D2*
X929765D1*
X1045242D2*
X1057324D1*
X1238055D2*
X1332324D1*
X1392683D2*
X1734121D1*
X1817410D2*
X1948594D1*
X2001394D2*
X2126308D1*
X2186512D2*
X2435762D1*
X2532976D2*
X2694765D1*
X30242Y562014D2*
X79004D1*
X591394D2*
X604863D1*
X923582D2*
X929765D1*
X1045242D2*
X1111094D1*
X1238055D2*
X1332324D1*
X1392683D2*
X1743984D1*
X1818894D2*
X1948594D1*
X2001394D2*
X2126094D1*
X2176648D2*
X2445644D1*
X2542840D2*
X2694765D1*
X30242Y552146D2*
X79004D1*
X591394D2*
X604863D1*
X923582D2*
X1111094D1*
X1238055D2*
X1268242D1*
X1392683D2*
X1753867D1*
X1818894D2*
X1948594D1*
X2001394D2*
X2126094D1*
X2173894D2*
X2455508D1*
X2550848D2*
X2694765D1*
X30242Y542277D2*
X79004D1*
X591394D2*
X788906D1*
X923582D2*
X1111094D1*
X1238055D2*
X1268242D1*
X1392683D2*
X1668535D1*
X1909988D2*
X1948594D1*
X2001394D2*
X2033789D1*
X2066199D2*
X2104082D1*
X2195926D2*
X2204082D1*
X2295926D2*
X2304082D1*
X2395926D2*
X2433789D1*
X2552644D2*
X2694765D1*
X30242Y532408D2*
X79004D1*
X591394D2*
X788906D1*
X923582D2*
X1111094D1*
X1238055D2*
X1268242D1*
X1392683D2*
X1668535D1*
X1909988D2*
X1948594D1*
X2001394D2*
X2017890D1*
X2082117D2*
X2104082D1*
X2195926D2*
X2204082D1*
X2295926D2*
X2304082D1*
X2395926D2*
X2417890D1*
X2552644D2*
X2694765D1*
X30242Y522539D2*
X79004D1*
X591394D2*
X788906D1*
X923582D2*
X1111094D1*
X1238055D2*
X1268242D1*
X1344344D2*
X1668535D1*
X1909988D2*
X1948125D1*
X2001394D2*
X2010137D1*
X2089871D2*
X2104082D1*
X2195926D2*
X2204082D1*
X2295926D2*
X2304082D1*
X2395926D2*
X2410137D1*
X2552644D2*
X2694765D1*
X30242Y512671D2*
X79004D1*
X591394D2*
X604863D1*
X923582D2*
X1111094D1*
X1238055D2*
X1268242D1*
X1344344D2*
X1668535D1*
X2094109D2*
X2104082D1*
X2195926D2*
X2204082D1*
X2295926D2*
X2304082D1*
X2395926D2*
X2405898D1*
X2552644D2*
X2694765D1*
X30242Y502802D2*
X79004D1*
X591394D2*
X604863D1*
X923582D2*
X1111094D1*
X1238055D2*
X1268242D1*
X1344344D2*
X1668535D1*
X2095848D2*
X2104082D1*
X2195926D2*
X2204082D1*
X2295926D2*
X2304082D1*
X2395926D2*
X2404160D1*
X2552644D2*
X2694765D1*
X30242Y492933D2*
X79004D1*
X591394D2*
X604863D1*
X956492D2*
X1111094D1*
X1221394D2*
X1668535D1*
X1992351D2*
X2004629D1*
X2095359D2*
X2104082D1*
X2195926D2*
X2204082D1*
X2295926D2*
X2304082D1*
X2395926D2*
X2404629D1*
X2552644D2*
X2694765D1*
X30242Y483064D2*
X79004D1*
X591394D2*
X604863D1*
X1045242D2*
X1111094D1*
X1284715D2*
X1668535D1*
X1982488D2*
X2007383D1*
X2092605D2*
X2104082D1*
X2195926D2*
X2204082D1*
X2295926D2*
X2304082D1*
X2395926D2*
X2407383D1*
X2552644D2*
X2694765D1*
X30242Y473196D2*
X79004D1*
X591394D2*
X604863D1*
X1045242D2*
X1111094D1*
X1284715D2*
X1668535D1*
X1972625D2*
X2012949D1*
X2087058D2*
X2104082D1*
X2195926D2*
X2204082D1*
X2295926D2*
X2304082D1*
X2395926D2*
X2412949D1*
X2552644D2*
X2694765D1*
X30242Y463327D2*
X79004D1*
X591394D2*
X604863D1*
X1045242D2*
X1111094D1*
X1284715D2*
X1668535D1*
X1958797D2*
X2023047D1*
X2076961D2*
X2104082D1*
X2195926D2*
X2204082D1*
X2295926D2*
X2304082D1*
X2395926D2*
X2423047D1*
X2476961D2*
X2483476D1*
X2552644D2*
X2694765D1*
X30242Y453458D2*
X79004D1*
X591394D2*
X604863D1*
X1045242D2*
X1111094D1*
X1284715D2*
X1668535D1*
X1909988D2*
X2473613D1*
X2552644D2*
X2694765D1*
X30242Y443589D2*
X79004D1*
X591394D2*
X604863D1*
X923582D2*
X929765D1*
X1045242D2*
X1111914D1*
X1909988D2*
X2038125D1*
X2061883D2*
X2138125D1*
X2161883D2*
X2238125D1*
X2261883D2*
X2338125D1*
X2361883D2*
X2438125D1*
X2552644D2*
X2694765D1*
X30242Y433720D2*
X79004D1*
X591394D2*
X929765D1*
X1045242D2*
X1117012D1*
X1909988D2*
X2019316D1*
X2080691D2*
X2119316D1*
X2180691D2*
X2219316D1*
X2280691D2*
X2319316D1*
X2380691D2*
X2419316D1*
X2552644D2*
X2694765D1*
X30242Y423852D2*
X79004D1*
X591394D2*
X618535D1*
X706453D2*
X929765D1*
X1045242D2*
X1126719D1*
X1738875D2*
X1756094D1*
X1818894D2*
X2010918D1*
X2089070D2*
X2110918D1*
X2189070D2*
X2210918D1*
X2289070D2*
X2310918D1*
X2389070D2*
X2410918D1*
X2503699D2*
X2509844D1*
X2552644D2*
X2694765D1*
X30242Y413983D2*
X79004D1*
X591394D2*
X618535D1*
X706453D2*
X929765D1*
X1045242D2*
X1136601D1*
X1738406D2*
X1756094D1*
X1818894D2*
X2006308D1*
X2093699D2*
X2106308D1*
X2193699D2*
X2206308D1*
X2293699D2*
X2306308D1*
X2393699D2*
X2406308D1*
X2493836D2*
X2509844D1*
X2552644D2*
X2694765D1*
X30242Y404114D2*
X79004D1*
X591394D2*
X618535D1*
X732957D2*
X929765D1*
X1045242D2*
X1147051D1*
X1738406D2*
X1756094D1*
X1818894D2*
X2004258D1*
X2095730D2*
X2104258D1*
X2195730D2*
X2204258D1*
X2295730D2*
X2304258D1*
X2395730D2*
X2404258D1*
X2495730D2*
X2509844D1*
X2552644D2*
X2694765D1*
X30242Y394245D2*
X79004D1*
X591394D2*
X618535D1*
X742723D2*
X766074D1*
X857937D2*
X887422D1*
X936570D2*
X987422D1*
X1036570D2*
X1087422D1*
X1136570D2*
X1187422D1*
X1236570D2*
X1285605D1*
X1338406D2*
X1387422D1*
X1436570D2*
X1485605D1*
X1538406D2*
X1587422D1*
X1636570D2*
X1685605D1*
X1738406D2*
X1756094D1*
X1818894D2*
X2004433D1*
X2095555D2*
X2104433D1*
X2195555D2*
X2204433D1*
X2295555D2*
X2304433D1*
X2395555D2*
X2404433D1*
X2495555D2*
X2509844D1*
X2552644D2*
X2694765D1*
X30242Y384377D2*
X79004D1*
X591394D2*
X618535D1*
X745965D2*
X766074D1*
X857937D2*
X876172D1*
X947840D2*
X976172D1*
X1047840D2*
X1076172D1*
X1147840D2*
X1176172D1*
X1247840D2*
X1276172D1*
X1347840D2*
X1376172D1*
X1447840D2*
X1476172D1*
X1547840D2*
X1576172D1*
X1647840D2*
X1676172D1*
X1747840D2*
X1756094D1*
X1818894D2*
X2006875D1*
X2093133D2*
X2106875D1*
X2193133D2*
X2206875D1*
X2293133D2*
X2306875D1*
X2393133D2*
X2406875D1*
X2493133D2*
X2504531D1*
X2552644D2*
X2694765D1*
X30242Y374508D2*
X79004D1*
X591394D2*
X618535D1*
X745281D2*
X766074D1*
X857937D2*
X870058D1*
X953933D2*
X970058D1*
X1053933D2*
X1070058D1*
X1153933D2*
X1170058D1*
X1253933D2*
X1270058D1*
X1353933D2*
X1370058D1*
X1453933D2*
X1470058D1*
X1553933D2*
X1570058D1*
X1653933D2*
X1670058D1*
X1818894D2*
X2012012D1*
X2087996D2*
X2112012D1*
X2187996D2*
X2212012D1*
X2287996D2*
X2312012D1*
X2387996D2*
X2412012D1*
X2487996D2*
X2494648D1*
X2551512D2*
X2694765D1*
X30242Y364639D2*
X79004D1*
X591394D2*
X618535D1*
X740262D2*
X766074D1*
X857937D2*
X866914D1*
X957098D2*
X966914D1*
X1057098D2*
X1066914D1*
X1157098D2*
X1166914D1*
X1257098D2*
X1266914D1*
X1357098D2*
X1366914D1*
X1457098D2*
X1466914D1*
X1557098D2*
X1566914D1*
X1657098D2*
X1666914D1*
X1818894D2*
X2021289D1*
X2078719D2*
X2121289D1*
X2178719D2*
X2221289D1*
X2278719D2*
X2321289D1*
X2378719D2*
X2421289D1*
X2478719D2*
X2484785D1*
X2544480D2*
X2694765D1*
X30242Y354770D2*
X79004D1*
X591394D2*
X618535D1*
X706453D2*
X766074D1*
X857937D2*
X866094D1*
X957918D2*
X966094D1*
X1057918D2*
X1066094D1*
X1157918D2*
X1166094D1*
X1257918D2*
X1266094D1*
X1357918D2*
X1366094D1*
X1457918D2*
X1466094D1*
X1557918D2*
X1566094D1*
X1657918D2*
X1666094D1*
X1818894D2*
X2474922D1*
X2534617D2*
X2694765D1*
X30242Y344902D2*
X79004D1*
X591394D2*
X618535D1*
X857937D2*
X867461D1*
X956531D2*
X967461D1*
X1056531D2*
X1067461D1*
X1156531D2*
X1167461D1*
X1256531D2*
X1267461D1*
X1356531D2*
X1367461D1*
X1456531D2*
X1467461D1*
X1556531D2*
X1567461D1*
X1656531D2*
X1667461D1*
X1818894D2*
X2004082D1*
X2095926D2*
X2147480D1*
X2152525D2*
X2247480D1*
X2252525D2*
X2347480D1*
X2352525D2*
X2404082D1*
X2524754D2*
X2694765D1*
X30242Y335033D2*
X79004D1*
X591394D2*
X697285D1*
X857937D2*
X871269D1*
X952742D2*
X971269D1*
X1052742D2*
X1071269D1*
X1152742D2*
X1171269D1*
X1252742D2*
X1271269D1*
X1352742D2*
X1371269D1*
X1452742D2*
X1471269D1*
X1552742D2*
X1571269D1*
X1652742D2*
X1671269D1*
X1818894D2*
X2004082D1*
X2095926D2*
X2120879D1*
X2179129D2*
X2220879D1*
X2279129D2*
X2320879D1*
X2379129D2*
X2404082D1*
X2514890D2*
X2694765D1*
X30242Y325164D2*
X79004D1*
X591394D2*
X697285D1*
X857937D2*
X878320D1*
X945672D2*
X978320D1*
X1045672D2*
X1078320D1*
X1145672D2*
X1178320D1*
X1245672D2*
X1278320D1*
X1345672D2*
X1378320D1*
X1445672D2*
X1478320D1*
X1545672D2*
X1578320D1*
X1645672D2*
X1678320D1*
X1745672D2*
X1756094D1*
X1818894D2*
X2004082D1*
X2095926D2*
X2111777D1*
X2188211D2*
X2211777D1*
X2288211D2*
X2311777D1*
X2388211D2*
X2404082D1*
X2505008D2*
X2694765D1*
X30242Y315295D2*
X79004D1*
X591394D2*
X697285D1*
X857937D2*
X888320D1*
X936121D2*
X991992D1*
X1032019D2*
X1088594D1*
X1136394D2*
X1188496D1*
X1236297D2*
X1291992D1*
X1332019D2*
X1388496D1*
X1436297D2*
X1491992D1*
X1532019D2*
X1588496D1*
X1636297D2*
X1691992D1*
X1732019D2*
X1756094D1*
X1818894D2*
X2004082D1*
X2095926D2*
X2106758D1*
X2193250D2*
X2206758D1*
X2293250D2*
X2306758D1*
X2393250D2*
X2404082D1*
X2495926D2*
X2694765D1*
X30242Y305427D2*
X79004D1*
X591394D2*
X697285D1*
X785203D2*
X888379D1*
X936180D2*
X1088594D1*
X1136394D2*
X1188496D1*
X1236297D2*
X1388496D1*
X1436297D2*
X1588496D1*
X1636297D2*
X1756094D1*
X1818894D2*
X2004082D1*
X2095926D2*
X2104394D1*
X2195594D2*
X2204394D1*
X2295594D2*
X2304394D1*
X2395594D2*
X2404082D1*
X2495926D2*
X2694765D1*
X30242Y295558D2*
X79492D1*
X590750D2*
X697285D1*
X785203D2*
X882324D1*
X942683D2*
X1082324D1*
X1142683D2*
X1188496D1*
X1236297D2*
X1388496D1*
X1436297D2*
X1588496D1*
X1636297D2*
X1756094D1*
X1818894D2*
X2004082D1*
X2095926D2*
X2104297D1*
X2195711D2*
X2204297D1*
X2295711D2*
X2304297D1*
X2395711D2*
X2404082D1*
X2495926D2*
X2694765D1*
X30242Y285689D2*
X85019D1*
X581687D2*
X697285D1*
X785203D2*
X882324D1*
X942683D2*
X1082324D1*
X1142683D2*
X1183203D1*
X1241590D2*
X1383203D1*
X1441590D2*
X1583203D1*
X1641590D2*
X1756094D1*
X1818894D2*
X2004082D1*
X2095926D2*
X2106406D1*
X2193582D2*
X2206406D1*
X2293582D2*
X2306406D1*
X2393582D2*
X2404082D1*
X2495926D2*
X2694765D1*
X30242Y275820D2*
X697285D1*
X785203D2*
X882324D1*
X942683D2*
X1082324D1*
X1142683D2*
X1183203D1*
X1241590D2*
X1383203D1*
X1441590D2*
X1583203D1*
X1641590D2*
X1756094D1*
X1818894D2*
X2004082D1*
X2095926D2*
X2111133D1*
X2188875D2*
X2211133D1*
X2288875D2*
X2311133D1*
X2388875D2*
X2404082D1*
X2495926D2*
X2694765D1*
X30242Y265951D2*
X697285D1*
X785203D2*
X882324D1*
X942683D2*
X1082324D1*
X1142683D2*
X1183203D1*
X1241590D2*
X1383203D1*
X1441590D2*
X1583203D1*
X1641590D2*
X1756094D1*
X1828035D2*
X2004082D1*
X2095926D2*
X2119687D1*
X2180320D2*
X2219687D1*
X2280320D2*
X2319687D1*
X2380320D2*
X2404082D1*
X2495926D2*
X2694765D1*
X30242Y256083D2*
X882324D1*
X942683D2*
X1082324D1*
X1142683D2*
X1183203D1*
X1241590D2*
X1383203D1*
X1441590D2*
X1583203D1*
X1641590D2*
X1756777D1*
X1837918D2*
X2004082D1*
X2095926D2*
X2139531D1*
X2160476D2*
X2239531D1*
X2260476D2*
X2339531D1*
X2360476D2*
X2404082D1*
X2495926D2*
X2694765D1*
X30242Y246214D2*
X882324D1*
X942683D2*
X1082324D1*
X1142683D2*
X1183203D1*
X1241590D2*
X1383203D1*
X1441590D2*
X1583203D1*
X1641590D2*
X1760840D1*
X1847781D2*
X2694765D1*
X30379Y236345D2*
X882324D1*
X942683D2*
X1082324D1*
X1857644D2*
X2122598D1*
X2177410D2*
X2222598D1*
X2277410D2*
X2322598D1*
X2377410D2*
X2694609D1*
X31160Y226476D2*
X684160D1*
X2187293D2*
X2212695D1*
X2287293D2*
X2312695D1*
X2387293D2*
X2693848D1*
X31941Y216608D2*
X674258D1*
X2192742D2*
X2207246D1*
X2292742D2*
X2307246D1*
X2392742D2*
X2693066D1*
X32723Y206739D2*
X664394D1*
X2195418D2*
X2204590D1*
X2295418D2*
X2304590D1*
X2395418D2*
X2692285D1*
X34695Y196870D2*
X654512D1*
X2195828D2*
X2204180D1*
X2295828D2*
X2304180D1*
X2395828D2*
X2690312D1*
X37058Y187001D2*
X539805D1*
X627723D2*
X645000D1*
X704344D2*
X882324D1*
X942683D2*
X1082324D1*
X1798191D2*
X1819004D1*
X2194012D2*
X2205996D1*
X2294012D2*
X2305996D1*
X2394012D2*
X2687949D1*
X39422Y177133D2*
X539805D1*
X627723D2*
X641211D1*
X694480D2*
X1145801D1*
X1204187D2*
X1220605D1*
X1278992D2*
X1345801D1*
X1404187D2*
X1420605D1*
X1478992D2*
X1545801D1*
X1604187D2*
X1620605D1*
X1678992D2*
X1828965D1*
X2189676D2*
X2210332D1*
X2289676D2*
X2310332D1*
X2389676D2*
X2685566D1*
X42625Y167264D2*
X539805D1*
X627723D2*
X641094D1*
X684617D2*
X1145801D1*
X1204187D2*
X1220605D1*
X1278992D2*
X1345801D1*
X1404187D2*
X1420605D1*
X1478992D2*
X1545801D1*
X1604187D2*
X1620605D1*
X1678992D2*
X2118223D1*
X2181765D2*
X2218223D1*
X2281765D2*
X2318223D1*
X2381765D2*
X2682363D1*
X46707Y157395D2*
X539805D1*
X627723D2*
X641094D1*
X683894D2*
X1145801D1*
X1204187D2*
X1220605D1*
X1278992D2*
X1345801D1*
X1404187D2*
X1420605D1*
X1478992D2*
X1545801D1*
X1604187D2*
X1620605D1*
X1678992D2*
X2134746D1*
X2165262D2*
X2234746D1*
X2265262D2*
X2334746D1*
X2365262D2*
X2678281D1*
X50808Y147526D2*
X539805D1*
X627723D2*
X641094D1*
X683894D2*
X1110234D1*
X1139773D2*
X1145801D1*
X1204187D2*
X1220605D1*
X1278992D2*
X1310234D1*
X1339773D2*
X1345801D1*
X1404187D2*
X1420605D1*
X1478992D2*
X1510234D1*
X1539773D2*
X1545801D1*
X1604187D2*
X1620605D1*
X1678992D2*
X2674199D1*
X55652Y137657D2*
X539805D1*
X627723D2*
X641094D1*
X683894D2*
X1100840D1*
X1204187D2*
X1220605D1*
X1278992D2*
X1300840D1*
X1404187D2*
X1420605D1*
X1478992D2*
X1500840D1*
X1604187D2*
X1620605D1*
X1678992D2*
X2669355D1*
X61687Y127789D2*
X539805D1*
X627723D2*
X641094D1*
X683894D2*
X1090879D1*
X1210301D2*
X1220605D1*
X1278992D2*
X1290879D1*
X1410301D2*
X1420605D1*
X1478992D2*
X1490879D1*
X1610301D2*
X1620605D1*
X1678992D2*
X2663301D1*
X67742Y117920D2*
X539805D1*
X627723D2*
X641094D1*
X683894D2*
X1090879D1*
X1210301D2*
X1290879D1*
X1410301D2*
X1490879D1*
X1610301D2*
X2657265D1*
X75027Y108051D2*
X539805D1*
X706453D2*
X1090879D1*
X1210301D2*
X1290879D1*
X1410301D2*
X1490879D1*
X1610301D2*
X2649980D1*
X83465Y98182D2*
X618535D1*
X706453D2*
X1090879D1*
X1210301D2*
X1290879D1*
X1410301D2*
X1490879D1*
X1610301D2*
X2641543D1*
X91883Y88314D2*
X618535D1*
X706453D2*
X1090879D1*
X1210301D2*
X1290879D1*
X1410301D2*
X1490879D1*
X1610301D2*
X2633125D1*
X103348Y78445D2*
X618535D1*
X706453D2*
X1090879D1*
X1210301D2*
X1290879D1*
X1410301D2*
X1490879D1*
X1610301D2*
X2621660D1*
X114890Y68576D2*
X618535D1*
X706453D2*
X2610098D1*
X130027Y58707D2*
X618535D1*
X706453D2*
X2594961D1*
X146394Y48839D2*
X618535D1*
X706453D2*
X2578594D1*
X170223Y38970D2*
X618535D1*
X706453D2*
X2554765D1*
X207000Y29101D2*
X2518008D1*
X821883Y816680D2*
X824598D1*
X824600Y835293D1*
X812947Y835289D1*
Y964514D1*
X887054D1*
Y957698D1*
X983048Y957640D1*
X986210Y957140D1*
X989254Y956150D1*
X992107Y954697D1*
X994696Y952815D1*
X1013550Y934051D1*
X1103012Y844499D1*
X1104894Y841910D1*
X1106347Y839057D1*
X1107336Y836013D1*
X1107837Y832851D1*
X1107900Y808106D1*
X1116680Y808116D1*
Y690702D1*
X1007910D1*
X1007900Y642940D1*
X1044239Y642959D1*
Y625400D1*
X1058340D1*
X1058321Y684297D1*
X1166680D1*
Y627208D1*
X1237054Y627211D1*
Y497986D1*
X1220394D1*
X1220400Y492287D1*
X1283707Y492270D1*
Y450414D1*
X1669559Y450400D1*
X1669541Y544238D1*
X1755459D1*
Y430761D1*
X1737901D1*
X1737822Y423007D1*
X1737586Y421019D1*
X1737400Y410000D1*
Y393066D1*
X1741178Y390163D1*
X1743769Y387769D1*
X1746163Y385178D1*
X1748347Y382408D1*
X1750307Y379475D1*
X1752031Y376397D1*
X1753508Y373193D1*
X1754729Y369883D1*
X1755686Y366488D1*
X1756374Y363028D1*
X1756789Y359525D1*
X1756928Y356000D1*
X1756789Y352475D1*
X1756374Y348972D1*
X1755686Y345512D1*
X1754729Y342117D1*
X1753508Y338807D1*
X1752031Y335603D1*
X1750307Y332525D1*
X1748347Y329592D1*
X1746163Y326822D1*
X1743769Y324231D1*
X1741178Y321837D1*
X1738408Y319653D1*
X1735475Y317693D1*
X1732397Y315969D1*
X1729193Y314492D1*
X1725883Y313271D1*
X1722488Y312314D1*
X1719028Y311626D1*
X1715525Y311211D1*
X1712000Y311072D1*
X1708475Y311211D1*
X1704972Y311626D1*
X1701512Y312314D1*
X1698117Y313271D1*
X1694807Y314492D1*
X1691603Y315969D1*
X1688525Y317693D1*
X1685592Y319653D1*
X1682822Y321837D1*
X1680231Y324231D1*
X1677837Y326822D1*
X1675653Y329592D1*
X1673693Y332525D1*
X1671969Y335603D1*
X1670492Y338807D1*
X1669271Y342117D1*
X1668314Y345512D1*
X1667626Y348972D1*
X1667211Y352475D1*
X1667072Y356000D1*
X1667211Y359525D1*
X1667626Y363028D1*
X1668314Y366488D1*
X1669271Y369883D1*
X1670492Y373193D1*
X1671969Y376397D1*
X1673693Y379475D1*
X1675653Y382408D1*
X1677837Y385178D1*
X1680231Y387769D1*
X1682822Y390163D1*
X1686589Y393013D1*
X1686600Y399613D1*
X1622840Y399600D1*
X1629193Y397508D1*
X1632397Y396031D1*
X1635475Y394307D1*
X1638408Y392347D1*
X1641178Y390163D1*
X1643769Y387769D1*
X1646163Y385178D1*
X1648347Y382408D1*
X1650307Y379475D1*
X1652031Y376397D1*
X1653508Y373193D1*
X1654729Y369883D1*
X1655686Y366488D1*
X1656374Y363028D1*
X1656789Y359525D1*
X1656928Y356000D1*
X1656789Y352475D1*
X1656374Y348972D1*
X1655686Y345512D1*
X1654729Y342117D1*
X1653508Y338807D1*
X1652031Y335603D1*
X1650307Y332525D1*
X1648347Y329592D1*
X1646163Y326822D1*
X1643769Y324231D1*
X1641178Y321837D1*
X1638408Y319653D1*
X1635294Y317592D1*
X1635302Y289134D1*
X1640597Y289120D1*
Y239218D1*
X1767793Y239219D1*
X1764384Y242757D1*
X1761580Y246616D1*
X1759414Y250866D1*
X1757940Y255403D1*
X1757194Y260115D1*
X1757100Y272500D1*
Y549902D1*
X1724899Y582108D1*
X1391699Y582100D1*
X1391680Y528202D1*
X1343356D1*
X1343353Y497986D1*
X1269246D1*
Y552408D1*
X1333328D1*
X1333321Y572792D1*
X1269246Y572789D1*
Y627211D1*
X1315789D1*
X1319654Y628518D1*
X1323203Y629080D1*
X1332090Y629151D1*
X1332100Y862402D1*
X1264147Y930360D1*
X1264087Y679649D1*
X1263586Y676487D1*
X1262597Y673443D1*
X1261143Y670590D1*
X1259262Y668001D1*
X1257525Y666175D1*
X1256920Y662586D1*
X1255640Y658647D1*
X1253759Y654955D1*
X1251324Y651604D1*
X1248395Y648675D1*
X1245043Y646240D1*
X1241352Y644359D1*
X1237412Y643079D1*
X1233321Y642431D1*
X1229178D1*
X1225086Y643079D1*
X1221147Y644359D1*
X1217455Y646240D1*
X1215624Y647477D1*
X1211985Y645227D1*
X1208158Y643641D1*
X1204130Y642674D1*
X1200000Y642349D1*
X1195870Y642674D1*
X1191842Y643641D1*
X1188015Y645227D1*
X1184482Y647391D1*
X1181332Y650082D1*
X1178642Y653232D1*
X1176477Y656764D1*
X1174892Y660591D1*
X1173925Y664619D1*
X1173600Y668749D1*
X1173925Y672879D1*
X1174892Y676907D1*
X1176477Y680735D1*
X1178642Y684267D1*
X1181332Y687417D1*
X1184482Y690107D1*
X1188015Y692272D1*
X1191842Y693857D1*
X1195870Y694824D1*
X1197406Y695006D1*
X1204592Y702192D1*
X1204600Y717753D1*
X1200000Y717351D1*
X1195870Y717676D1*
X1191842Y718643D1*
X1188015Y720228D1*
X1184482Y722393D1*
X1181332Y725083D1*
X1178642Y728233D1*
X1176477Y731765D1*
X1174892Y735593D1*
X1173925Y739621D1*
X1173743Y741157D1*
X1121988Y793002D1*
X1120106Y795592D1*
X1118653Y798444D1*
X1117664Y801488D1*
X1117163Y804650D1*
X1117100Y831251D1*
Y885294D1*
X919630Y1082771D1*
X919632Y999167D1*
X825840D1*
Y1100833D1*
X901571D1*
X815737Y1186753D1*
X813855Y1189342D1*
X812402Y1192195D1*
X811413Y1195239D1*
X810912Y1198401D1*
X810849Y1225001D1*
X810912Y1451601D1*
X811413Y1454762D1*
X812402Y1457807D1*
X813855Y1460659D1*
X815737Y1463249D1*
X834502Y1482103D1*
X868001Y1515513D1*
X870591Y1517394D1*
X873443Y1518848D1*
X876487Y1519837D1*
X879649Y1520337D1*
X885354Y1520507D1*
X886278Y1522740D1*
X887544Y1524804D1*
X887541Y1525200D1*
X886278Y1527261D1*
X885352Y1529498D1*
X880000Y1529600D1*
X760899Y1529663D1*
X757737Y1530164D1*
X754693Y1531153D1*
X751841Y1532606D1*
X749251Y1534488D1*
X730397Y1553253D1*
X554048Y1729602D1*
X210899Y1729663D1*
X207738Y1730164D1*
X204693Y1731153D1*
X201841Y1732606D1*
X199251Y1734488D1*
X180397Y1753253D1*
X171003Y1762735D1*
X169122Y1765325D1*
X167669Y1768177D1*
X166679Y1771222D1*
X166179Y1774384D1*
X166116Y1800984D1*
Y1829246D1*
X151431Y1829261D1*
Y1919116D1*
X347585D1*
Y1829261D1*
X206916Y1829189D1*
Y1784443D1*
X220952Y1770398D1*
X564101Y1770337D1*
X567262Y1769836D1*
X570307Y1768847D1*
X573159Y1767394D1*
X575749Y1765512D1*
X594603Y1746747D1*
X770951Y1570399D1*
X836152Y1570400D1*
X833741Y1573706D1*
X831860Y1577397D1*
X830580Y1581337D1*
X829994Y1584906D1*
X809488Y1605502D1*
X807606Y1608092D1*
X806153Y1610944D1*
X805164Y1613988D1*
X804663Y1617150D1*
X804600Y1643751D1*
Y1766544D1*
X779045Y1792105D1*
X705449Y1792100D1*
X705459Y1780674D1*
X784199Y1780656D1*
Y1694738D1*
X698281D1*
Y1769539D1*
X619541Y1769541D1*
Y1855459D1*
X642100D1*
Y1870840D1*
X578202Y1870820D1*
Y1927098D1*
X548203Y1927170D1*
X544654Y1927733D1*
X541236Y1928843D1*
X538035Y1930474D1*
X535128Y1932587D1*
X519665Y1947949D1*
X348399Y2119216D1*
X278191Y2119202D1*
X278195Y2112035D1*
X347585Y2112030D1*
Y2022175D1*
X151431D1*
Y2112030D1*
X219849D1*
X219836Y2226400D1*
X278195D1*
Y2165005D1*
X359694Y2164932D1*
X363244Y2164370D1*
X366661Y2163259D1*
X369863Y2161628D1*
X372770Y2159516D1*
X388233Y2144153D1*
X559499Y1972887D1*
X683340Y1972900D1*
X683321Y1983116D1*
X739908D1*
X739915Y2044997D1*
X511127Y2045054D1*
X508415Y2045483D1*
X505803Y2046332D1*
X503356Y2047579D1*
X501135Y2049193D1*
X499193Y2051135D1*
X497579Y2053356D1*
X496332Y2055803D1*
X495483Y2058415D1*
X495054Y2061127D1*
X495000Y2097500D1*
Y2298926D1*
X84613Y2298916D1*
X69118Y2296880D1*
X56207Y2291535D1*
X45122Y2283030D1*
X36616Y2271946D1*
X31270Y2259037D1*
X29232Y2243535D1*
X29234Y238286D1*
X31910Y204264D1*
X39647Y172044D1*
X52327Y141434D1*
X69640Y113185D1*
X91159Y87993D1*
X116354Y66476D1*
X144605Y49166D1*
X175216Y36489D1*
X207433Y28756D1*
X241429Y26083D1*
X2483575D1*
X2517586Y28759D1*
X2549806Y36495D1*
X2580415Y49176D1*
X2608665Y66489D1*
X2633857Y88009D1*
X2655374Y113204D1*
X2672684Y141455D1*
X2685361Y172066D1*
X2693094Y204283D1*
X2695767Y238279D1*
X2695769Y2243542D1*
X2693732Y2259030D1*
X2688387Y2271941D1*
X2679881Y2283027D1*
X2668796Y2291533D1*
X2655887Y2296879D1*
X2640385Y2298918D1*
X2136246Y2298917D1*
X2136251Y2083848D1*
X2142804Y2090315D1*
X2145394Y2092197D1*
X2148246Y2093650D1*
X2151296Y2094641D1*
X2151431Y2102998D1*
X2223569D1*
Y2093643D1*
X2226370Y2092727D1*
X2229083Y2091344D1*
X2231546Y2089555D1*
X2253877Y2067308D1*
X2258228Y2062958D1*
X2286390Y2062951D1*
X2288614Y2067026D1*
X2290574Y2069959D1*
X2292758Y2072729D1*
X2295153Y2075320D1*
X2297743Y2077714D1*
X2300514Y2079898D1*
X2303447Y2081858D1*
X2306525Y2083582D1*
X2309728Y2085059D1*
X2313038Y2086280D1*
X2316433Y2087237D1*
X2319893Y2087926D1*
X2323396Y2088340D1*
X2326921Y2088479D1*
X2330446Y2088340D1*
X2333949Y2087926D1*
X2337409Y2087237D1*
X2340805Y2086280D1*
X2344114Y2085059D1*
X2347318Y2083582D1*
X2350396Y2081858D1*
X2353329Y2079898D1*
X2356099Y2077714D1*
X2358690Y2075320D1*
X2361084Y2072729D1*
X2363268Y2069959D1*
X2365228Y2067026D1*
X2366952Y2063948D1*
X2368429Y2060744D1*
X2369650Y2057435D1*
X2370607Y2054039D1*
X2371296Y2050579D1*
X2371710Y2047076D1*
X2371849Y2043551D1*
X2371730Y2040536D1*
X2376603Y2043424D1*
X2379807Y2044901D1*
X2383117Y2046122D1*
X2386512Y2047080D1*
X2389972Y2047768D1*
X2393475Y2048183D1*
X2397000Y2048321D1*
X2400525Y2048183D1*
X2404028Y2047768D1*
X2407488Y2047080D1*
X2410883Y2046122D1*
X2414193Y2044901D1*
X2417397Y2043424D1*
X2420475Y2041701D1*
X2423408Y2039741D1*
X2426178Y2037557D1*
X2428769Y2035162D1*
X2431163Y2032572D1*
X2433347Y2029801D1*
X2435307Y2026868D1*
X2437031Y2023790D1*
X2438508Y2020587D1*
X2439729Y2017277D1*
X2440686Y2013882D1*
X2441374Y2010422D1*
X2441789Y2006919D1*
X2441928Y2003394D1*
X2441789Y1999869D1*
X2441374Y1996365D1*
X2440686Y1992906D1*
X2439729Y1989510D1*
X2438508Y1986201D1*
X2437031Y1982997D1*
X2435307Y1979919D1*
X2433347Y1976986D1*
X2431163Y1974216D1*
X2428769Y1971625D1*
X2426178Y1969231D1*
X2423408Y1967047D1*
X2420475Y1965087D1*
X2417134Y1963242D1*
X2420475Y1961386D1*
X2423408Y1959426D1*
X2426178Y1957242D1*
X2428769Y1954847D1*
X2431163Y1952257D1*
X2433347Y1949486D1*
X2435307Y1946553D1*
X2437031Y1943475D1*
X2438508Y1940272D1*
X2439729Y1936962D1*
X2440686Y1933567D1*
X2441374Y1930107D1*
X2441789Y1926604D1*
X2441928Y1923079D1*
X2441789Y1919554D1*
X2441374Y1916051D1*
X2440686Y1912591D1*
X2439729Y1909195D1*
X2438508Y1905886D1*
X2437031Y1902682D1*
X2435307Y1899604D1*
X2433347Y1896671D1*
X2431163Y1893901D1*
X2428769Y1891310D1*
X2426178Y1888916D1*
X2423408Y1886732D1*
X2420475Y1884772D1*
X2417134Y1882927D1*
X2420475Y1881071D1*
X2423408Y1879111D1*
X2426178Y1876927D1*
X2428769Y1874532D1*
X2431163Y1871942D1*
X2433347Y1869172D1*
X2435307Y1866238D1*
X2437031Y1863160D1*
X2438508Y1859957D1*
X2439729Y1856647D1*
X2440686Y1853252D1*
X2441374Y1849792D1*
X2441789Y1846289D1*
X2441928Y1842764D1*
X2441789Y1839239D1*
X2441374Y1835736D1*
X2440686Y1832276D1*
X2439729Y1828880D1*
X2438508Y1825571D1*
X2437031Y1822367D1*
X2435307Y1819289D1*
X2433347Y1816356D1*
X2431163Y1813586D1*
X2428769Y1810995D1*
X2425280Y1807893D1*
X2483340Y1807900D1*
X2483321Y1870616D1*
X2492090D1*
X2487428Y1871509D1*
X2467572D1*
X2467573Y2028293D1*
X2557428D1*
Y1871509D1*
X2532916D1*
X2533321Y1870616D1*
X2541680D1*
Y1753202D1*
X2483320D1*
Y1767089D1*
X2441690Y1767100D1*
X2441928Y1762449D1*
X2441789Y1758924D1*
X2441374Y1755421D1*
X2440686Y1751961D1*
X2439729Y1748565D1*
X2438508Y1745256D1*
X2437031Y1742052D1*
X2435307Y1738974D1*
X2433347Y1736041D1*
X2431163Y1733271D1*
X2428769Y1730680D1*
X2426178Y1728286D1*
X2423408Y1726102D1*
X2420475Y1724142D1*
X2417397Y1722418D1*
X2414193Y1720941D1*
X2410883Y1719720D1*
X2407488Y1718763D1*
X2404028Y1718074D1*
X2400525Y1717660D1*
X2397000Y1717521D1*
X2391327Y1717914D1*
X2281639Y1608218D1*
X2281571Y1548007D1*
X2280948Y1544070D1*
X2279716Y1540280D1*
X2277906Y1536729D1*
X2275564Y1533504D1*
X2263603Y1521433D1*
X2213981Y1471811D1*
X2216680Y1471798D1*
Y1412903D1*
X2264493Y1412822D1*
X2268430Y1412198D1*
X2272220Y1410967D1*
X2275771Y1409157D1*
X2278996Y1406814D1*
X2291067Y1394854D1*
X2370078Y1315843D1*
X2378235Y1315857D1*
X2378237Y1334573D1*
X2378684Y1337535D1*
X2379697Y1340354D1*
X2381236Y1342923D1*
X2383243Y1345147D1*
X2385642Y1346939D1*
X2388344Y1348233D1*
X2391244Y1348980D1*
X2394615Y1349164D1*
X2405315D1*
X2402714Y1354870D1*
X2402056Y1357792D1*
X2401937Y1362698D1*
X2402067Y1370453D1*
X2402742Y1373372D1*
X2404764Y1377844D1*
X2408246Y1384775D1*
X2410120Y1387111D1*
X2413882Y1390263D1*
X2420026Y1394997D1*
X2422729Y1396289D1*
X2427486Y1397496D1*
X2435075Y1399095D1*
X2445529Y1399164D1*
X2480835Y1399131D1*
X2484238Y1398555D1*
X2493277Y1396414D1*
X2496010Y1395190D1*
X2498761Y1393231D1*
X2506307Y1387048D1*
X2508167Y1384700D1*
X2510403Y1380331D1*
X2513651Y1373288D1*
X2514309Y1370366D1*
X2514428Y1365459D1*
X2514298Y1357704D1*
X2513623Y1354786D1*
X2511601Y1350314D1*
X2508119Y1343383D1*
X2506245Y1341046D1*
X2502483Y1337895D1*
X2496339Y1333161D1*
X2493781Y1331820D1*
X2497360Y1329219D1*
X2500488Y1326091D1*
X2503089Y1322512D1*
X2505098Y1318569D1*
X2506465Y1314362D1*
X2507157Y1309992D1*
Y1305567D1*
X2506465Y1301197D1*
X2505436Y1297906D1*
X2509833Y1297618D1*
X2513327Y1296779D1*
X2516647Y1295404D1*
X2519711Y1293527D1*
X2522443Y1291193D1*
X2548664Y1264872D1*
X2550776Y1261965D1*
X2552408Y1258763D1*
X2553518Y1255346D1*
X2554080Y1251797D1*
X2554151Y1230000D1*
X2554080Y1135703D1*
X2553518Y1132154D1*
X2552408Y1128737D1*
X2550776Y1125535D1*
X2548664Y1122628D1*
X2533301Y1107165D1*
X2521123Y1095087D1*
X2518216Y1092974D1*
X2515014Y1091343D1*
X2511597Y1090233D1*
X2508047Y1089670D1*
X2505645Y1089600D1*
X2506465Y1086803D1*
X2507157Y1082433D1*
Y1078008D1*
X2506465Y1073638D1*
X2505098Y1069431D1*
X2503089Y1065488D1*
X2500488Y1061909D1*
X2497360Y1058781D1*
X2493667Y1056117D1*
X2496414Y1054793D1*
X2500324Y1051827D1*
X2506307Y1046890D1*
X2508167Y1044543D1*
X2510403Y1040174D1*
X2513497Y1033574D1*
X2514244Y1030673D1*
X2514428Y1027302D1*
X2514298Y1017547D1*
X2513623Y1014628D1*
X2511601Y1010156D1*
X2508119Y1003225D1*
X2507543Y1002403D1*
X2510001Y1001649D1*
X2583797Y1001694D1*
X2582091Y1004160D1*
X2577468Y1013774D1*
X2576621Y1016647D1*
X2576374Y1018634D1*
X2576379Y1029301D1*
X2576863Y1032257D1*
X2577502Y1034155D1*
X2582136Y1043763D1*
X2583854Y1046216D1*
X2585254Y1047648D1*
X2593597Y1054295D1*
X2596210Y1055759D1*
X2598092Y1056443D1*
X2608567Y1058823D1*
X2611938Y1059006D1*
X2636555Y1058877D1*
X2646528Y1056671D1*
X2649370Y1055724D1*
X2651977Y1054242D1*
X2660314Y1047587D1*
X2662323Y1045365D1*
X2663408Y1043682D1*
X2668031Y1034069D1*
X2668878Y1031196D1*
X2669125Y1029209D1*
X2669120Y1018542D1*
X2668635Y1015586D1*
X2667996Y1013688D1*
X2663363Y1004080D1*
X2661644Y1001627D1*
X2660245Y1000194D1*
X2651902Y993548D1*
X2649285Y992082D1*
X2671762Y969498D1*
X2673643Y966908D1*
X2675097Y964056D1*
X2676086Y961012D1*
X2676587Y957850D1*
X2676649Y931249D1*
X2676587Y773399D1*
X2676086Y770238D1*
X2675097Y767193D1*
X2673643Y764341D1*
X2671762Y761751D1*
X2652997Y742897D1*
X2644498Y734488D1*
X2641908Y732606D1*
X2639056Y731153D1*
X2636012Y730164D1*
X2632850Y729663D1*
X2606249Y729600D1*
X2523399Y729663D1*
X2521803Y729852D1*
X2521798Y685092D1*
X2420400Y685000D1*
Y683457D1*
X2546762Y556999D1*
X2548643Y554410D1*
X2550097Y551557D1*
X2551086Y548513D1*
X2551587Y545351D1*
X2551649Y518751D1*
X2551587Y379649D1*
X2551086Y376487D1*
X2550097Y373443D1*
X2548643Y370590D1*
X2546762Y368001D1*
X2527997Y349147D1*
X2494920Y316070D1*
X2494928Y255072D1*
X2405073D1*
Y344927D1*
X2466069D1*
X2510857Y389707D1*
X2510849Y432011D1*
X2492735Y413885D1*
X2493686Y410488D1*
X2494374Y407028D1*
X2494789Y403525D1*
X2494928Y400000D1*
X2494789Y396475D1*
X2494374Y392972D1*
X2493686Y389512D1*
X2492729Y386117D1*
X2491508Y382807D1*
X2490031Y379603D1*
X2488307Y376525D1*
X2486347Y373592D1*
X2484163Y370822D1*
X2481769Y368231D1*
X2479178Y365837D1*
X2476408Y363653D1*
X2473475Y361693D1*
X2470397Y359969D1*
X2467193Y358492D1*
X2463883Y357271D1*
X2460488Y356314D1*
X2457028Y355626D1*
X2453525Y355211D1*
X2450000Y355072D1*
X2446475Y355211D1*
X2442972Y355626D1*
X2439512Y356314D1*
X2436117Y357271D1*
X2432807Y358492D1*
X2429603Y359969D1*
X2426525Y361693D1*
X2423592Y363653D1*
X2420822Y365837D1*
X2418231Y368231D1*
X2415837Y370822D1*
X2413653Y373592D1*
X2411693Y376525D1*
X2409969Y379603D1*
X2408492Y382807D1*
X2407271Y386117D1*
X2406314Y389512D1*
X2405626Y392972D1*
X2405211Y396475D1*
X2405072Y400000D1*
X2405211Y403525D1*
X2405626Y407028D1*
X2406314Y410488D1*
X2407271Y413883D1*
X2408492Y417193D1*
X2409969Y420397D1*
X2411693Y423475D1*
X2413653Y426408D1*
X2415837Y429178D1*
X2418231Y431769D1*
X2420822Y434163D1*
X2423592Y436347D1*
X2426525Y438307D1*
X2429603Y440031D1*
X2432807Y441508D1*
X2436117Y442729D1*
X2439512Y443686D1*
X2442972Y444374D1*
X2446475Y444789D1*
X2450000Y444928D1*
X2453525Y444789D1*
X2457028Y444374D1*
X2460488Y443686D1*
X2463870Y442732D1*
X2485860Y464710D1*
X2485849Y472910D1*
X2482665Y469154D1*
X2479037Y465717D1*
X2475050Y462704D1*
X2470753Y460153D1*
X2466199Y458094D1*
X2461445Y456555D1*
X2456549Y455552D1*
X2451572Y455100D1*
X2446575Y455203D1*
X2441621Y455861D1*
X2436771Y457064D1*
X2432084Y458799D1*
X2427619Y461044D1*
X2423431Y463770D1*
X2419572Y466945D1*
X2416089Y470529D1*
X2413026Y474477D1*
X2410420Y478742D1*
X2408304Y483269D1*
X2406704Y488003D1*
X2405639Y492886D1*
X2405124Y497857D1*
X2405163Y502854D1*
X2405758Y507816D1*
X2406899Y512681D1*
X2408574Y517390D1*
X2410762Y521883D1*
X2413435Y526105D1*
X2416560Y530005D1*
X2420100Y533533D1*
X2424009Y536646D1*
X2428239Y539306D1*
X2432739Y541480D1*
X2437453Y543140D1*
X2442322Y544267D1*
X2447286Y544845D1*
X2452283Y544870D1*
X2457252Y544338D1*
X2462131Y543259D1*
X2466861Y541644D1*
X2467076Y541574D1*
X2359488Y649251D1*
X2357606Y651841D1*
X2356153Y654693D1*
X2355164Y657738D1*
X2354663Y660899D1*
X2354600Y687500D1*
X2354663Y814101D1*
X2355164Y817262D1*
X2356153Y820307D1*
X2357606Y823159D1*
X2359488Y825749D1*
X2378253Y844603D1*
X2385570Y851831D1*
X2388160Y853713D1*
X2391012Y855166D1*
X2394057Y856155D1*
X2397218Y856656D1*
X2420127Y856719D1*
X2420132Y910774D1*
X2520815D1*
X2520821Y914598D1*
X2310410Y914600D1*
X2310329Y704453D1*
X2309767Y700903D1*
X2308657Y697486D1*
X2307026Y694284D1*
X2304913Y691377D1*
X2289551Y675914D1*
X2172892Y559256D1*
X2172900Y544941D1*
X2194928Y544927D1*
Y455072D1*
X2105073D1*
Y544927D1*
X2127100Y545000D1*
X2127171Y570546D1*
X2127733Y574095D1*
X2128843Y577513D1*
X2130474Y580715D1*
X2132587Y583622D1*
X2147949Y599084D1*
X2233948Y685083D1*
X2136667Y685092D1*
Y689057D1*
X2125749Y678238D1*
X2123159Y676357D1*
X2120307Y674903D1*
X2117262Y673914D1*
X2114101Y673413D1*
X2104199Y673351D1*
X2104180Y604383D1*
X2045821D1*
Y908309D1*
X2040703Y908320D1*
Y942285D1*
X2000412Y901991D1*
X2000400Y512500D1*
X2000087Y508527D1*
X1999157Y504651D1*
X1997632Y500969D1*
X1995549Y497570D1*
X1992961Y494539D1*
X1966496Y468186D1*
X1963272Y465843D1*
X1959720Y464033D1*
X1955930Y462802D1*
X1951993Y462178D1*
X1935000Y462100D1*
X1909004D1*
X1908997Y430761D1*
X1823079D1*
Y544238D1*
X1908997D1*
Y512891D1*
X1939495Y512900D1*
X1949593Y523014D1*
X1949678Y914493D1*
X1950302Y918430D1*
X1951533Y922220D1*
X1953343Y925772D1*
X1955686Y928996D1*
X1967646Y941067D1*
X2064749Y1038170D1*
X2061206Y1039990D1*
X2057855Y1042425D1*
X2054925Y1045355D1*
X2054158Y1046327D1*
X2054097Y1038409D1*
X2053596Y1035247D1*
X2052607Y1032202D1*
X2051154Y1029350D1*
X2049272Y1026760D1*
X2030507Y1007906D1*
X2019499Y996988D1*
X2016910Y995106D1*
X2014057Y993653D1*
X2011013Y992664D1*
X2007851Y992163D1*
X1981251Y992100D1*
X1797989D1*
X1795045Y989990D1*
X1791353Y988110D1*
X1787414Y986829D1*
X1783322Y986181D1*
X1779179D1*
X1775397Y986768D1*
X1775400Y617588D1*
X1810616Y582243D1*
X1813420Y578384D1*
X1815586Y574134D1*
X1817060Y569597D1*
X1817806Y564885D1*
X1817900Y552500D1*
Y275098D1*
X1862579Y230413D1*
X2116934Y230400D1*
X2120822Y234163D1*
X2123592Y236347D1*
X2126525Y238307D1*
X2129603Y240031D1*
X2132807Y241508D1*
X2136117Y242729D1*
X2139512Y243686D1*
X2142972Y244374D1*
X2146475Y244789D1*
X2150000Y244928D1*
X2153525Y244789D1*
X2157028Y244374D1*
X2160488Y243686D1*
X2163883Y242729D1*
X2167193Y241508D1*
X2170397Y240031D1*
X2173475Y238307D1*
X2176408Y236347D1*
X2179178Y234163D1*
X2181769Y231769D1*
X2184163Y229178D1*
X2186347Y226408D1*
X2188307Y223475D1*
X2190031Y220397D1*
X2191508Y217193D1*
X2192729Y213883D1*
X2193686Y210488D1*
X2194374Y207028D1*
X2194789Y203525D1*
X2194928Y200000D1*
X2194789Y196475D1*
X2194374Y192972D1*
X2193686Y189512D1*
X2192729Y186117D1*
X2191508Y182807D1*
X2190031Y179603D1*
X2188307Y176525D1*
X2186347Y173592D1*
X2184163Y170822D1*
X2181769Y168231D1*
X2179178Y165837D1*
X2176408Y163653D1*
X2173475Y161693D1*
X2170397Y159969D1*
X2167193Y158492D1*
X2163883Y157271D1*
X2160488Y156314D1*
X2157028Y155626D1*
X2153525Y155211D1*
X2150000Y155072D1*
X2146475Y155211D1*
X2142972Y155626D1*
X2139512Y156314D1*
X2136117Y157271D1*
X2132807Y158492D1*
X2129603Y159969D1*
X2126525Y161693D1*
X2123592Y163653D1*
X2120822Y165837D1*
X2116969Y169597D1*
X1847615Y169694D1*
X1842903Y170440D1*
X1838366Y171914D1*
X1834116Y174080D1*
X1830257Y176884D1*
X1821433Y185575D1*
X1809321Y197687D1*
X1801638Y190104D1*
X1798096Y187530D1*
X1794195Y185543D1*
X1790032Y184190D1*
X1785707Y183505D1*
X1768518Y183419D1*
X1677991D1*
X1677998Y126431D1*
X1621608D1*
Y183419D1*
X1603186D1*
X1603195Y129175D1*
X1609298Y129179D1*
Y70820D1*
X1491884D1*
Y129179D1*
X1498935D1*
X1499892Y133158D1*
X1501477Y136985D1*
X1503642Y140518D1*
X1506332Y143668D1*
X1509482Y146358D1*
X1513015Y148523D1*
X1516842Y150108D1*
X1520870Y151075D1*
X1525000Y151400D1*
X1529130Y151075D1*
X1533158Y150108D1*
X1536985Y148523D1*
X1540518Y146358D1*
X1543668Y143668D1*
X1546358Y140518D1*
X1546803Y139851D1*
X1546805Y183403D1*
X1477991Y183419D1*
X1477998Y126431D1*
X1421608D1*
Y183419D1*
X1403186D1*
X1403196Y129174D1*
X1409298Y129179D1*
Y70820D1*
X1291884D1*
Y129179D1*
X1298935D1*
X1299892Y133158D1*
X1301477Y136985D1*
X1303642Y140518D1*
X1306332Y143668D1*
X1309482Y146358D1*
X1313015Y148523D1*
X1316842Y150108D1*
X1320870Y151075D1*
X1325000Y151400D1*
X1329130Y151075D1*
X1333158Y150108D1*
X1336985Y148523D1*
X1340518Y146358D1*
X1343668Y143668D1*
X1346358Y140518D1*
X1346803Y139851D1*
X1346805Y183403D1*
X1277991Y183419D1*
X1277999Y126430D1*
X1221608D1*
Y183419D1*
X1203186D1*
X1203196Y129174D1*
X1209298Y129179D1*
Y70820D1*
X1091884D1*
Y129179D1*
X1098934D1*
X1099892Y133158D1*
X1101477Y136985D1*
X1103642Y140518D1*
X1106332Y143668D1*
X1109482Y146358D1*
X1113015Y148523D1*
X1116842Y150108D1*
X1120870Y151075D1*
X1125000Y151400D1*
X1129130Y151075D1*
X1133158Y150108D1*
X1136985Y148523D1*
X1140518Y146358D1*
X1143668Y143668D1*
X1146358Y140518D1*
X1146803Y139851D1*
X1146805Y183403D1*
X1141663Y183419D1*
X1141680Y178202D1*
X1083321D1*
Y188417D1*
X941699Y188419D1*
X941680Y178202D1*
X883321D1*
Y190917D1*
X707285Y190919D1*
X682902Y166552D1*
X682900Y117129D1*
X705459Y117123D1*
Y31205D1*
X619541D1*
Y105990D1*
X540801Y106008D1*
Y191926D1*
X626719D1*
Y117141D1*
X642100Y117123D1*
X642163Y176601D1*
X642664Y179762D1*
X643653Y182807D1*
X645106Y185659D1*
X646988Y188249D1*
X665753Y207103D1*
X685570Y226831D1*
X688160Y228713D1*
X691012Y230166D1*
X694057Y231155D1*
X697218Y231656D1*
X723819Y231719D1*
X883331D1*
X883321Y295616D1*
X889434D1*
X889307Y317240D1*
X885592Y319653D1*
X882822Y321837D1*
X880231Y324231D1*
X877837Y326822D1*
X875653Y329592D1*
X873693Y332525D1*
X871969Y335603D1*
X870492Y338807D1*
X869271Y342117D1*
X868314Y345512D1*
X867626Y348972D1*
X867211Y352475D1*
X867072Y356000D1*
X867211Y359525D1*
X867626Y363028D1*
X868314Y366488D1*
X869271Y369883D1*
X870492Y373193D1*
X871969Y376397D1*
X873693Y379475D1*
X875653Y382408D1*
X877837Y385178D1*
X880231Y387769D1*
X882822Y390163D1*
X885592Y392347D1*
X888525Y394307D1*
X891603Y396031D1*
X894807Y397508D1*
X898117Y398729D1*
X901512Y399686D1*
X904972Y400374D1*
X908475Y400789D1*
X912000Y400928D1*
X915525Y400789D1*
X919028Y400374D1*
X922488Y399686D1*
X925883Y398729D1*
X929193Y397508D1*
X932397Y396031D1*
X935475Y394307D1*
X938408Y392347D1*
X941178Y390163D1*
X943769Y387769D1*
X946163Y385178D1*
X948347Y382408D1*
X950307Y379475D1*
X952031Y376397D1*
X953508Y373193D1*
X954729Y369883D1*
X955686Y366488D1*
X956374Y363028D1*
X956789Y359525D1*
X956928Y356000D1*
X956789Y352475D1*
X956374Y348972D1*
X955686Y345512D1*
X954729Y342117D1*
X953508Y338807D1*
X952031Y335603D1*
X950307Y332525D1*
X948347Y329592D1*
X946163Y326822D1*
X943769Y324231D1*
X941178Y321837D1*
X938408Y319653D1*
X935102Y317484D1*
X935223Y295635D1*
X941680Y295616D1*
Y234220D1*
X1083340Y234219D1*
X1083321Y295616D1*
X1089590D1*
X1089600Y317051D1*
X1085592Y319653D1*
X1082822Y321837D1*
X1080231Y324231D1*
X1077837Y326822D1*
X1075653Y329592D1*
X1073693Y332525D1*
X1071969Y335603D1*
X1070492Y338807D1*
X1069271Y342117D1*
X1068314Y345512D1*
X1067626Y348972D1*
X1067211Y352475D1*
X1067072Y356000D1*
X1067211Y359525D1*
X1067626Y363028D1*
X1068314Y366488D1*
X1069271Y369883D1*
X1070492Y373193D1*
X1071969Y376397D1*
X1073693Y379475D1*
X1075653Y382408D1*
X1077837Y385178D1*
X1080231Y387769D1*
X1082822Y390163D1*
X1085592Y392347D1*
X1088525Y394307D1*
X1091603Y396031D1*
X1094807Y397508D1*
X1098117Y398729D1*
X1101512Y399686D1*
X1104972Y400374D1*
X1108475Y400789D1*
X1112000Y400928D1*
X1115525Y400789D1*
X1119028Y400374D1*
X1122488Y399686D1*
X1125883Y398729D1*
X1129193Y397508D1*
X1132397Y396031D1*
X1135475Y394307D1*
X1138408Y392347D1*
X1141178Y390163D1*
X1143769Y387769D1*
X1146163Y385178D1*
X1148347Y382408D1*
X1150307Y379475D1*
X1152031Y376397D1*
X1153508Y373193D1*
X1154729Y369883D1*
X1155686Y366488D1*
X1156374Y363028D1*
X1156789Y359525D1*
X1156928Y356000D1*
X1156789Y352475D1*
X1156374Y348972D1*
X1155686Y345512D1*
X1154729Y342117D1*
X1153508Y338807D1*
X1152031Y335603D1*
X1150307Y332525D1*
X1148347Y329592D1*
X1146163Y326822D1*
X1143769Y324231D1*
X1141178Y321837D1*
X1138408Y319653D1*
X1135390Y317646D1*
X1135400Y295598D1*
X1141680Y295616D1*
Y239220D1*
X1184199Y239219D1*
X1184207Y289120D1*
X1189500D1*
X1189501Y317094D1*
X1185592Y319653D1*
X1182822Y321837D1*
X1180231Y324231D1*
X1177837Y326822D1*
X1175653Y329592D1*
X1173693Y332525D1*
X1171969Y335603D1*
X1170492Y338807D1*
X1169271Y342117D1*
X1168314Y345512D1*
X1167626Y348972D1*
X1167211Y352475D1*
X1167072Y356000D1*
X1167211Y359525D1*
X1167626Y363028D1*
X1168314Y366488D1*
X1169271Y369883D1*
X1170492Y373193D1*
X1171969Y376397D1*
X1173693Y379475D1*
X1175653Y382408D1*
X1177837Y385178D1*
X1180231Y387769D1*
X1182822Y390163D1*
X1185592Y392347D1*
X1188525Y394307D1*
X1191603Y396031D1*
X1194807Y397508D1*
X1198117Y398729D1*
X1201207Y399600D1*
X1160507Y399678D1*
X1156570Y400302D1*
X1152780Y401533D1*
X1149229Y403343D1*
X1146004Y405686D1*
X1133933Y417646D1*
X1118186Y433504D1*
X1115843Y436729D1*
X1114033Y440280D1*
X1112802Y444070D1*
X1112178Y448007D1*
X1112100Y465000D1*
Y566895D1*
X1058321Y566883D1*
Y574598D1*
X1044238Y574600D1*
X1044239Y557041D1*
X930761D1*
Y642959D1*
X967109D1*
X967100Y690684D1*
X958321Y690702D1*
Y808116D1*
X1066680Y808097D1*
X1067100Y810000D1*
Y822793D1*
X972989Y916912D1*
X887053Y916903D1*
X887054Y835289D1*
X875394D1*
X875400Y816660D1*
X883117Y816680D1*
Y758320D1*
X769103D1*
X769101Y756738D1*
X792959D1*
Y643261D1*
X775401D1*
X775400Y628496D1*
X794140Y628490D1*
Y578979D1*
X922585Y578983D1*
Y500393D1*
X939493Y500322D1*
X943430Y499698D1*
X947220Y498467D1*
X950771Y496657D1*
X953996Y494314D1*
X959010Y489411D1*
X1044239Y489421D1*
Y403503D1*
X930761D1*
Y445827D1*
X926989Y449590D1*
X922585Y447053D1*
Y437946D1*
X789915D1*
Y440192D1*
X605860Y440210D1*
Y522191D1*
X789903D1*
X789915Y546512D1*
X605860Y546509D1*
Y628490D1*
X724590D1*
X724600Y643262D1*
X707041Y643261D1*
Y756738D1*
X718311D1*
X718301Y835293D1*
X706648Y835289D1*
Y874507D1*
X704180Y871935D1*
Y865702D1*
X645821D1*
Y874003D1*
X643332Y874662D1*
X639650Y876187D1*
X636251Y878270D1*
X633215Y880864D1*
X618186Y896004D1*
X615843Y899228D1*
X614033Y902780D1*
X612802Y906570D1*
X612178Y910507D1*
X612100Y927500D1*
X612178Y1001993D1*
X612802Y1005930D1*
X614033Y1009720D1*
X615843Y1013272D1*
X618186Y1016496D1*
X630146Y1028567D1*
X671004Y1069314D1*
X674228Y1071657D1*
X677780Y1073467D1*
X681570Y1074698D1*
X685507Y1075322D1*
X702500Y1075400D1*
X715605D1*
X715604Y1100833D1*
X727108D1*
X727100Y1108223D1*
X717573Y1108222D1*
Y1193279D1*
X657041Y1193261D1*
Y1306739D1*
X742959D1*
Y1285391D1*
X746527Y1285291D1*
X752013Y1284422D1*
X757296Y1282705D1*
X762246Y1280184D1*
X766740Y1276918D1*
X775852Y1267961D1*
X789418Y1254240D1*
X792684Y1249746D1*
X795205Y1244796D1*
X796922Y1239513D1*
X797791Y1234027D1*
X797900Y1221249D1*
Y1198066D1*
X807428Y1198077D1*
Y1108222D1*
X797900Y1108150D1*
Y1100825D1*
X809396Y1100833D1*
Y999167D1*
X715604D1*
Y1024616D1*
X698027Y1024600D1*
X662910Y989489D1*
X662900Y983105D1*
X704180Y983116D1*
Y957706D1*
X706648Y960092D1*
Y964514D1*
X780755D1*
Y835289D1*
X769094D1*
X769101Y816660D1*
X821883Y816680D1*
X810085Y2045002D2*
Y2034299D1*
X866680Y2034298D1*
Y1975403D1*
X887370Y1975441D1*
X885903Y1978052D1*
X884970Y1980899D1*
X884605Y1983871D1*
X884706Y2017554D1*
X885345Y2020480D1*
X886538Y2023227D1*
X888240Y2025692D1*
X890388Y2027780D1*
X892898Y2029413D1*
X895678Y2030530D1*
X898621Y2031087D1*
X909000Y2031148D1*
X951805Y2031042D1*
X954732Y2030404D1*
X957479Y2029210D1*
X959944Y2027508D1*
X962032Y2025361D1*
X963665Y2022850D1*
X964781Y2020070D1*
X965338Y2017127D1*
X965400Y2006748D1*
X965270Y1982258D1*
X965000Y1980400D1*
X1008634Y1980307D1*
X1013346Y1979560D1*
X1017883Y1978086D1*
X1022133Y1975921D1*
X1025992Y1973117D1*
X1034816Y1964425D1*
X1073116Y1925993D1*
X1075920Y1922133D1*
X1078086Y1917883D1*
X1079560Y1913346D1*
X1080306Y1908635D1*
X1080400Y1896249D1*
X1080306Y1378864D1*
X1079560Y1374153D1*
X1078086Y1369616D1*
X1075920Y1365365D1*
X1073116Y1361506D1*
X1064425Y1352682D1*
X1049137Y1337394D1*
X1049149Y1321659D1*
X1079057Y1321630D1*
X1082019Y1321182D1*
X1084838Y1320170D1*
X1087411Y1318629D1*
X1089760Y1319973D1*
X1091993Y1320897D1*
X1094343Y1321462D1*
X1096757Y1321651D1*
X1129456Y1321604D1*
X1131843Y1321225D1*
X1134141Y1320479D1*
X1136295Y1319382D1*
X1137304Y1318707D1*
X1137700Y1318710D1*
X1139760Y1319973D1*
X1141993Y1320897D1*
X1144343Y1321461D1*
X1146752Y1321651D1*
X1179456Y1321604D1*
X1181843Y1321226D1*
X1184141Y1320479D1*
X1186295Y1319382D1*
X1187304Y1318707D1*
X1187700Y1318710D1*
X1189760Y1319973D1*
X1191993Y1320897D1*
X1194343Y1321462D1*
X1196752Y1321651D1*
X1229456Y1321604D1*
X1231843Y1321226D1*
X1234141Y1320479D1*
X1236295Y1319382D1*
X1237304Y1318707D1*
X1237700Y1318710D1*
X1239761Y1319973D1*
X1241993Y1320897D1*
X1244343Y1321461D1*
X1246752Y1321651D1*
X1279456Y1321604D1*
X1281843Y1321226D1*
X1284141Y1320479D1*
X1286295Y1319382D1*
X1287304Y1318707D1*
X1287700Y1318710D1*
X1289760Y1319973D1*
X1291993Y1320897D1*
X1294343Y1321461D1*
X1296752Y1321651D1*
X1329456Y1321604D1*
X1331843Y1321226D1*
X1334141Y1320479D1*
X1336295Y1319382D1*
X1337304Y1318707D1*
X1337700Y1318710D1*
X1339760Y1319973D1*
X1341993Y1320897D1*
X1344343Y1321462D1*
X1346752Y1321651D1*
X1379456Y1321604D1*
X1381843Y1321226D1*
X1384141Y1320479D1*
X1386295Y1319382D1*
X1387304Y1318707D1*
X1387700Y1318710D1*
X1389760Y1319973D1*
X1391993Y1320897D1*
X1394343Y1321461D1*
X1396752Y1321651D1*
X1429456Y1321604D1*
X1431843Y1321226D1*
X1434141Y1320479D1*
X1436295Y1319382D1*
X1437304Y1318707D1*
X1437700Y1318710D1*
X1439760Y1319973D1*
X1441993Y1320897D1*
X1444343Y1321461D1*
X1446752Y1321651D1*
X1479456Y1321604D1*
X1481843Y1321226D1*
X1484141Y1320479D1*
X1486295Y1319382D1*
X1487304Y1318707D1*
X1487700Y1318710D1*
X1489761Y1319972D1*
X1491993Y1320897D1*
X1494343Y1321461D1*
X1496752Y1321651D1*
X1523334D1*
X1523351Y1900000D1*
X1523602Y1903191D1*
X1524349Y1906304D1*
X1525574Y1909261D1*
X1527247Y1911991D1*
X1529330Y1914429D1*
X1580502Y1965513D1*
X1583092Y1967394D1*
X1585944Y1968848D1*
X1588989Y1969837D1*
X1592150Y1970338D1*
X1610333Y1970400D1*
X1611278Y1972740D1*
X1612544Y1974804D1*
X1611825Y1976279D1*
X1610530Y1978981D1*
X1609784Y1981881D1*
X1609600Y1985252D1*
X1609706Y2017554D1*
X1610345Y2020480D1*
X1611538Y2023228D1*
X1613241Y2025692D1*
X1615388Y2027780D1*
X1617899Y2029413D1*
X1620678Y2030530D1*
X1623621Y2031087D1*
X1634000Y2031148D1*
X1676806Y2031042D1*
X1679732Y2030403D1*
X1682479Y2029210D1*
X1684944Y2027508D1*
X1687032Y2025361D1*
X1688665Y2022850D1*
X1689781Y2020070D1*
X1690338Y2017127D1*
X1690400Y2006748D1*
X1690270Y1982258D1*
X1689595Y1979340D1*
X1688368Y1976607D1*
X1687459Y1974800D1*
X1688722Y1972740D1*
X1689646Y1970507D1*
X1690211Y1968157D1*
X1690400Y1965748D1*
X1690353Y1933044D1*
X1689975Y1930657D1*
X1689228Y1928359D1*
X1688131Y1926206D1*
X1687456Y1925197D1*
X1687459Y1924800D1*
X1688722Y1922740D1*
X1689648Y1920503D1*
X1695000Y1920400D1*
X1707851Y1920338D1*
X1711013Y1919837D1*
X1714057Y1918848D1*
X1716909Y1917394D1*
X1719499Y1915513D1*
X1729611Y1905490D1*
X1729663Y1964101D1*
X1730164Y1967262D1*
X1731153Y1970307D1*
X1732606Y1973159D1*
X1734488Y1975749D1*
X1753253Y1994603D1*
X1780501Y2021762D1*
X1783090Y2023643D1*
X1785943Y2025097D1*
X1788987Y2026086D1*
X1792149Y2026586D1*
X1818749Y2026649D1*
X2060878D1*
X2060880Y2044999D1*
X1650801Y2045000D1*
X1648709Y2043176D1*
X1646702Y2041946D1*
X1644528Y2041046D1*
X1642239Y2040496D1*
X1639888Y2040312D1*
X930056Y2040358D1*
X927731Y2040726D1*
X925492Y2041453D1*
X923395Y2042522D1*
X921491Y2043905D1*
X920623Y2044708D1*
X918751Y2045000D1*
X810098D1*
X807416Y1349000D2*
X807028Y1344018D1*
X806088Y1339110D1*
X804609Y1334336D1*
X802608Y1329756D1*
X800112Y1325427D1*
X797150Y1321402D1*
X793760Y1317731D1*
X789982Y1314458D1*
X785865Y1311626D1*
X781459Y1309269D1*
X776818Y1307415D1*
X772000Y1306088D1*
X767064Y1305305D1*
X762072Y1305074D1*
X757085Y1305400D1*
X752165Y1306277D1*
X747373Y1307695D1*
X742769Y1309637D1*
X738408Y1312078D1*
X734345Y1314988D1*
X730631Y1318332D1*
X727311Y1322067D1*
X724427Y1326148D1*
X722013Y1330524D1*
X720101Y1335141D1*
X718713Y1339942D1*
X717867Y1344867D1*
X717573Y1349856D1*
X717835Y1354846D1*
X718649Y1359777D1*
X720006Y1364587D1*
X721889Y1369216D1*
X724275Y1373607D1*
X727133Y1377706D1*
X730429Y1381463D1*
X734121Y1384830D1*
X738165Y1387766D1*
X742510Y1390235D1*
X747102Y1392207D1*
X751885Y1393656D1*
X756799Y1394564D1*
X761784Y1394922D1*
X766777Y1394723D1*
X771718Y1393972D1*
X776544Y1392676D1*
X781197Y1390852D1*
X785619Y1388523D1*
X789754Y1385717D1*
X793552Y1382469D1*
X796966Y1378820D1*
X799954Y1374814D1*
X802478Y1370500D1*
X804507Y1365934D1*
X806017Y1361170D1*
X806988Y1356268D1*
X807409Y1351288D1*
X807416Y1349000D1*
X2617102Y803793D2*
X2579180D1*
Y803202D1*
X2530590D1*
X2533104Y801642D1*
X2535538Y799563D1*
X2545937Y789163D1*
X2616543Y789151D1*
X2617100Y791251D1*
Y803809D1*
X2095821Y1407918D2*
Y1455850D1*
X2091777D1*
X1965924Y1330003D1*
X2052714Y1330000D1*
X2052793Y1374730D1*
X2053294Y1377892D1*
X2054283Y1380937D1*
X2055736Y1383789D1*
X2057618Y1386379D1*
X2073075Y1401925D1*
X2075509Y1404004D1*
X2078239Y1405677D1*
X2081196Y1406902D1*
X2084309Y1407649D1*
X2087500Y1407900D1*
X2095840D1*
X2216680Y1305558D2*
Y1254383D1*
X2207910D1*
X2207837Y1248399D1*
X2207336Y1245238D1*
X2206347Y1242193D1*
X2204894Y1239341D1*
X2203012Y1236751D1*
X2201920Y1235571D1*
X2202500Y1234640D1*
X2216895D1*
X2216883Y1291679D1*
X2322381D1*
X2251965Y1362114D1*
X2216699Y1362100D1*
X2216676Y1305564D1*
X2096884Y966679D2*
X2135731D1*
X2116167Y986234D1*
X2112588Y986829D1*
X2108648Y988110D1*
X2104957Y989990D1*
X2101605Y992425D1*
X2098676Y995355D1*
X2096596Y998174D1*
X2065102Y966680D1*
X2096884Y966679D1*
X545397Y1306739D2*
X589421D1*
Y1193261D1*
X545417D1*
X545400Y1051973D1*
X547047Y1048971D1*
X548782Y1045206D1*
X550217Y1041317D1*
X551343Y1037326D1*
X552151Y1033260D1*
X552639Y1029143D1*
X552802Y1025000D1*
X552639Y1020857D1*
X552151Y1016740D1*
X551343Y1012674D1*
X550217Y1008683D1*
X548782Y1004794D1*
X547047Y1001029D1*
X545021Y997411D1*
X542717Y993964D1*
X540151Y990708D1*
X537336Y987664D1*
X534292Y984849D1*
X531036Y982283D1*
X527589Y979979D1*
X523971Y977953D1*
X520206Y976218D1*
X516317Y974783D1*
X512326Y973657D1*
X508260Y972849D1*
X504143Y972361D1*
X500000Y972198D1*
X495857Y972361D1*
X491740Y972849D1*
X487674Y973657D1*
X483683Y974783D1*
X479794Y976218D1*
X476029Y977953D1*
X472411Y979979D1*
X468964Y982283D1*
X465708Y984849D1*
X462664Y987664D1*
X459849Y990708D1*
X457283Y993964D1*
X454979Y997411D1*
X452953Y1001029D1*
X451218Y1004794D1*
X449783Y1008683D1*
X448657Y1012674D1*
X447849Y1016740D1*
X447361Y1020857D1*
X447198Y1025000D1*
X447361Y1029143D1*
X447849Y1033260D1*
X448657Y1037326D1*
X449783Y1041317D1*
X451218Y1045206D1*
X452953Y1048971D1*
X454607Y1051925D1*
X454600Y1287441D1*
X436647Y1305399D1*
X434227Y1308016D1*
X432020Y1310816D1*
X430039Y1313780D1*
X428298Y1316890D1*
X426805Y1320127D1*
X425567Y1323485D1*
X421249Y1323751D1*
X404680Y1323812D1*
X401580Y1324303D1*
X398596Y1325273D1*
X395799Y1326698D1*
X393260Y1328542D1*
X391041Y1330762D1*
X389196Y1333301D1*
X387772Y1336097D1*
X386802Y1339082D1*
X386311Y1342181D1*
X386249Y1368751D1*
X386311Y1570320D1*
X386802Y1573420D1*
X387772Y1576404D1*
X389196Y1579201D1*
X391041Y1581740D1*
X393260Y1583959D1*
X395799Y1585804D1*
X398596Y1587228D1*
X401580Y1588198D1*
X404680Y1588689D1*
X431249Y1588751D1*
X532819Y1588689D1*
X535918Y1588198D1*
X538903Y1587228D1*
X540335Y1586568D1*
X540801Y1587257D1*
Y1623176D1*
X626719D1*
Y1548375D1*
X705459Y1548372D1*
Y1462454D1*
X619541D1*
Y1537255D1*
X551246Y1537257D1*
X551188Y1342181D1*
X550697Y1339082D1*
X549727Y1336097D1*
X548302Y1333301D1*
X546458Y1330762D1*
X544238Y1328542D1*
X541694Y1326695D1*
X541944Y1323625D1*
X543178Y1320280D1*
X544146Y1316849D1*
X544841Y1313353D1*
X545261Y1309799D1*
X861579Y756738D2*
X946497D1*
Y643261D1*
X860579D1*
Y756738D1*
X861579D1*
X2043931Y1915695D2*
X2111069D1*
Y1913488D1*
X2135479Y1937831D1*
X2137942Y1939620D1*
X2140655Y1941002D1*
X2143550Y1941943D1*
X2146557Y1942419D1*
X2178079Y1942479D1*
X2287083D1*
X2286435Y1943828D1*
X2111081Y1943836D1*
X2111070Y1934108D1*
X2038931D1*
Y1941901D1*
X2020527Y1941903D1*
X2020518Y1907897D1*
X2038926Y1907900D1*
X2038931Y1915695D1*
X2043931D1*
X1948380Y1907897D2*
Y1941905D1*
X1833262Y1941903D1*
X1832324Y1939621D1*
X1831357Y1935593D1*
X1829772Y1931765D1*
X1827607Y1928233D1*
X1824917Y1925083D1*
X1821767Y1922393D1*
X1818235Y1920228D1*
X1814407Y1918643D1*
X1810379Y1917676D1*
X1806249Y1917351D1*
X1802119Y1917676D1*
X1798091Y1918643D1*
X1795404Y1919703D1*
X1795400Y1861738D1*
X1836751Y1903012D1*
X1839341Y1904894D1*
X1842193Y1906347D1*
X1845238Y1907336D1*
X1848399Y1907837D1*
X1875000Y1907900D1*
X1948379D1*
X2156431Y1803195D2*
X2223570D1*
Y1800988D1*
X2280164Y1857516D1*
X2282627Y1859305D1*
X2285340Y1860687D1*
X2286775Y1861216D1*
X2286891Y1862525D1*
X2286435Y1863513D1*
X2278464Y1863521D1*
X2249903Y1835051D1*
X2247440Y1833262D1*
X2244727Y1831880D1*
X2241832Y1830939D1*
X2238825Y1830463D1*
X2223573Y1830403D1*
X2223570Y1821608D1*
X2151431D1*
Y1829401D1*
X2133027Y1829403D1*
X2133018Y1795397D1*
X2151426Y1795400D1*
X2151431Y1803195D1*
X2156431D1*
X2223570Y1755597D2*
Y1746804D1*
X2207886D1*
X2207900Y1734316D1*
X2216680Y1734297D1*
Y1616883D1*
X2164152D1*
X2164088Y1523401D1*
X2163587Y1520239D1*
X2162598Y1517195D1*
X2161145Y1514342D1*
X2159263Y1511752D1*
X2154240Y1506640D1*
X2176973Y1506651D1*
X2230845Y1560517D1*
X2230928Y1620742D1*
X2231551Y1624679D1*
X2232783Y1628470D1*
X2234592Y1632021D1*
X2236935Y1635245D1*
X2248895Y1647316D1*
X2353346Y1751767D1*
X2352626Y1755421D1*
X2352211Y1758924D1*
X2352072Y1762449D1*
X2352191Y1765464D1*
X2348556Y1763231D1*
X2344049Y1761072D1*
X2339330Y1759426D1*
X2334458Y1758315D1*
X2329492Y1757752D1*
X2324494Y1757744D1*
X2319527Y1758291D1*
X2314651Y1759387D1*
X2309927Y1761017D1*
X2305413Y1763161D1*
X2301166Y1765794D1*
X2297237Y1768882D1*
X2293675Y1772388D1*
X2290524Y1776267D1*
X2287824Y1780472D1*
X2285608Y1784951D1*
X2283903Y1789649D1*
X2282730Y1794507D1*
X2282104Y1799465D1*
X2282040Y1804606D1*
X2237599Y1760248D1*
X2235137Y1758459D1*
X2232424Y1757077D1*
X2229529Y1756136D1*
X2226522Y1755660D1*
X2223574Y1755600D1*
X2156431Y1877998D2*
X2223570D1*
Y1869190D1*
X2229277Y1869203D1*
X2257822Y1897673D1*
X2260285Y1899463D1*
X2262997Y1900845D1*
X2265892Y1901785D1*
X2268899Y1902262D1*
X2286417Y1902321D1*
X2287000Y1903679D1*
X2156121D1*
X2125099Y1872748D1*
X2122636Y1870959D1*
X2121302Y1870212D1*
X2151424Y1870203D1*
X2151431Y1877998D1*
X2156431D1*
X177759Y1505394D2*
X177981Y1510391D1*
X178657Y1515344D1*
X179782Y1520214D1*
X181347Y1524961D1*
X183337Y1529546D1*
X185738Y1533930D1*
X188528Y1538077D1*
X191684Y1541952D1*
X195181Y1545524D1*
X198988Y1548762D1*
X203075Y1551639D1*
X207407Y1554132D1*
X211949Y1556220D1*
X216662Y1557885D1*
X221507Y1559113D1*
X226444Y1559894D1*
X231431Y1560222D1*
X236428Y1560094D1*
X241392Y1559511D1*
X246282Y1558478D1*
X251058Y1557004D1*
X255679Y1555100D1*
X260108Y1552783D1*
X264307Y1550072D1*
X268241Y1546989D1*
X271878Y1543560D1*
X275188Y1539814D1*
X278142Y1535782D1*
X280716Y1531498D1*
X282888Y1526997D1*
X284642Y1522316D1*
X285961Y1517495D1*
X286835Y1512574D1*
X287258Y1507593D1*
X287299Y1468463D1*
X287217Y1404040D1*
X286716Y1399066D1*
X285763Y1394160D1*
X284368Y1389360D1*
X282540Y1384708D1*
X280296Y1380242D1*
X277655Y1375999D1*
X274637Y1372014D1*
X271269Y1368321D1*
X267578Y1364951D1*
X263595Y1361931D1*
X259354Y1359287D1*
X254889Y1357040D1*
X250237Y1355210D1*
X245439Y1353811D1*
X240533Y1352856D1*
X235560Y1352352D1*
X230562Y1352303D1*
X225580Y1352711D1*
X220657Y1353570D1*
X215832Y1354875D1*
X211146Y1356615D1*
X206638Y1358774D1*
X202346Y1361335D1*
X198305Y1364277D1*
X194549Y1367575D1*
X191110Y1371202D1*
X188015Y1375127D1*
X185292Y1379318D1*
X182961Y1383740D1*
X181044Y1388355D1*
X179555Y1393127D1*
X178507Y1398014D1*
X177910Y1402977D1*
X177759Y1409038D1*
Y1505382D1*
X301424Y1594394D2*
X296466Y1594619D1*
X291514Y1595298D1*
X286645Y1596426D1*
X281899Y1597994D1*
X277315Y1599987D1*
X272932Y1602390D1*
X268787Y1605182D1*
X264913Y1608341D1*
X261343Y1611840D1*
X258108Y1615649D1*
X255233Y1619738D1*
X252743Y1624072D1*
X250658Y1628614D1*
X248996Y1633328D1*
X247770Y1638174D1*
X246992Y1643111D1*
X246667Y1648099D1*
X246798Y1653095D1*
X247384Y1658059D1*
X248420Y1662949D1*
X249897Y1667724D1*
X251804Y1672344D1*
X254123Y1676772D1*
X256837Y1680969D1*
X259922Y1684901D1*
X263353Y1688536D1*
X267101Y1691843D1*
X271135Y1694795D1*
X275421Y1697366D1*
X279923Y1699536D1*
X284605Y1701287D1*
X289427Y1702603D1*
X294348Y1703475D1*
X299329Y1703894D1*
X343427Y1703934D1*
X402752Y1703857D1*
X407726Y1703365D1*
X412635Y1702421D1*
X417437Y1701034D1*
X422092Y1699215D1*
X426562Y1696979D1*
X430810Y1694345D1*
X434800Y1691335D1*
X438499Y1687973D1*
X441876Y1684288D1*
X444903Y1680311D1*
X447555Y1676074D1*
X449810Y1671613D1*
X451648Y1666965D1*
X453055Y1662169D1*
X454019Y1657265D1*
X454532Y1652293D1*
X454585Y1647164D1*
X454175Y1642183D1*
X453312Y1637260D1*
X452005Y1632436D1*
X450262Y1627751D1*
X448100Y1623244D1*
X445537Y1618954D1*
X442592Y1614915D1*
X439292Y1611161D1*
X435663Y1607724D1*
X431736Y1604632D1*
X427544Y1601910D1*
X423121Y1599583D1*
X418504Y1597668D1*
X413731Y1596182D1*
X408843Y1595137D1*
X403881Y1594542D1*
X397852Y1594394D1*
X301427Y1594398D1*
X2405315Y1038836D2*
X2391810Y1038942D1*
X2388884Y1039581D1*
X2386136Y1040774D1*
X2383672Y1042476D1*
X2381584Y1044624D1*
X2379951Y1047135D1*
X2378834Y1049914D1*
X2378277Y1052857D1*
X2378215Y1063236D1*
Y1072146D1*
X2170577Y1072143D1*
X2158075Y1059654D1*
X2160896Y1057575D1*
X2163825Y1054645D1*
X2166260Y1051294D1*
X2168141Y1047603D1*
X2169421Y1043663D1*
X2170007Y1040094D1*
X2208460Y1001640D1*
X2409388Y1001694D1*
X2407681Y1004160D1*
X2403058Y1013773D1*
X2402212Y1016647D1*
X2401964Y1018634D1*
X2401970Y1029301D1*
X2402454Y1032257D1*
X2403093Y1034155D1*
X2405318Y1038837D1*
X2378215Y1222251D2*
X2378263Y1230641D1*
X2378642Y1233033D1*
X2378263Y1236099D1*
X2378215Y1242483D1*
X2334288Y1242498D1*
X2334298Y1233320D1*
X2240801Y1233240D1*
X2243374Y1231929D1*
X2245710Y1230232D1*
X2253773Y1222249D1*
X2378208Y1222243D1*
X2598982Y1396831D2*
X2609485Y1399095D1*
X2619938Y1399164D1*
X2636555Y1399034D1*
X2646528Y1396828D1*
X2649370Y1395881D1*
X2651977Y1394399D1*
X2660314Y1387744D1*
X2662323Y1385523D1*
X2663408Y1383840D1*
X2668031Y1374226D1*
X2668877Y1371353D1*
X2669125Y1369366D1*
X2669119Y1358699D1*
X2668635Y1355743D1*
X2667996Y1353845D1*
X2663094Y1343780D1*
X2661292Y1341387D1*
X2658771Y1339142D1*
X2651063Y1333161D1*
X2648361Y1331869D1*
X2643603Y1330662D1*
X2636014Y1329062D1*
X2625560Y1328994D1*
X2608944Y1329123D1*
X2598970Y1331329D1*
X2596129Y1332276D1*
X2593521Y1333758D1*
X2585185Y1340413D1*
X2583176Y1342635D1*
X2582091Y1344318D1*
X2577467Y1353931D1*
X2576621Y1356804D1*
X2576374Y1358791D1*
X2576379Y1369458D1*
X2576863Y1372414D1*
X2577502Y1374312D1*
X2582136Y1383920D1*
X2583854Y1386373D1*
X2585254Y1387806D1*
X2593597Y1394452D1*
X2596210Y1395917D1*
X2598092Y1396600D1*
X1627671Y1057428D2*
X1688678D1*
Y967572D1*
X1617526D1*
X1629871Y955230D1*
X1633263Y956186D1*
X1636722Y956874D1*
X1640226Y957289D1*
X1643751Y957428D1*
X1647276Y957289D1*
X1650779Y956874D1*
X1654239Y956186D1*
X1657634Y955229D1*
X1660944Y954008D1*
X1664147Y952531D1*
X1667225Y950807D1*
X1670158Y948847D1*
X1672929Y946663D1*
X1675519Y944269D1*
X1677914Y941678D1*
X1680098Y938908D1*
X1682058Y935975D1*
X1683781Y932897D1*
X1685258Y929693D1*
X1686479Y926383D1*
X1687437Y922988D1*
X1688125Y919528D1*
X1688540Y916025D1*
X1688678Y912500D1*
X1688540Y908975D1*
X1688125Y905472D1*
X1687437Y902012D1*
X1686479Y898617D1*
X1685258Y895307D1*
X1683781Y892103D1*
X1682058Y889025D1*
X1680098Y886092D1*
X1677914Y883322D1*
X1675519Y880731D1*
X1672929Y878337D1*
X1670158Y876153D1*
X1667225Y874193D1*
X1664147Y872469D1*
X1660944Y870992D1*
X1657634Y869771D1*
X1654239Y868814D1*
X1650779Y868126D1*
X1647276Y867711D1*
X1643751Y867572D1*
X1640226Y867711D1*
X1636722Y868126D1*
X1633263Y868814D1*
X1629867Y869771D1*
X1626558Y870992D1*
X1623354Y872469D1*
X1620276Y874193D1*
X1617343Y876153D1*
X1614573Y878337D1*
X1611982Y880731D1*
X1609587Y883322D1*
X1607403Y886092D1*
X1605444Y889025D1*
X1603720Y892103D1*
X1602243Y895307D1*
X1601022Y898617D1*
X1600064Y902012D1*
X1599376Y905472D1*
X1598962Y908975D1*
X1598823Y912500D1*
X1598962Y916025D1*
X1599376Y919528D1*
X1600064Y922988D1*
X1601018Y926370D1*
X1578237Y949253D1*
X1576355Y951842D1*
X1574902Y954695D1*
X1573913Y957739D1*
X1573412Y960901D1*
X1573349Y978693D1*
X1570158Y976153D1*
X1567225Y974193D1*
X1564147Y972469D1*
X1560944Y970992D1*
X1557634Y969771D1*
X1554239Y968814D1*
X1550779Y968126D1*
X1547276Y967711D1*
X1543751Y967572D1*
X1540226Y967711D1*
X1536722Y968126D1*
X1533263Y968814D1*
X1529867Y969771D1*
X1526558Y970992D1*
X1523354Y972469D1*
X1520276Y974193D1*
X1517343Y976153D1*
X1514158Y978720D1*
X1514149Y946309D1*
X1517343Y948847D1*
X1520276Y950807D1*
X1523354Y952531D1*
X1526558Y954008D1*
X1529867Y955229D1*
X1533263Y956186D1*
X1536722Y956874D1*
X1540226Y957289D1*
X1543751Y957428D1*
X1547276Y957289D1*
X1550779Y956874D1*
X1554239Y956186D1*
X1557634Y955229D1*
X1560944Y954008D1*
X1564147Y952531D1*
X1567225Y950807D1*
X1570158Y948847D1*
X1572929Y946663D1*
X1575519Y944269D1*
X1577914Y941678D1*
X1580098Y938908D1*
X1582058Y935975D1*
X1583781Y932897D1*
X1585258Y929693D1*
X1586479Y926383D1*
X1587437Y922988D1*
X1588125Y919528D1*
X1588540Y916025D1*
X1588678Y912500D1*
X1588540Y908975D1*
X1588125Y905472D1*
X1587437Y902012D1*
X1586479Y898617D1*
X1585258Y895307D1*
X1583781Y892103D1*
X1582058Y889025D1*
X1580098Y886092D1*
X1577914Y883322D1*
X1575519Y880731D1*
X1572929Y878337D1*
X1570158Y876153D1*
X1567225Y874193D1*
X1564147Y872469D1*
X1560944Y870992D1*
X1557634Y869771D1*
X1554239Y868814D1*
X1550779Y868126D1*
X1547276Y867711D1*
X1543751Y867572D1*
X1540226Y867711D1*
X1536722Y868126D1*
X1533263Y868814D1*
X1529867Y869771D1*
X1526558Y870992D1*
X1523354Y872469D1*
X1520276Y874193D1*
X1517343Y876153D1*
X1514158Y878720D1*
X1514149Y764708D1*
X1570944Y707906D1*
X1677012Y707900D1*
X1679955Y710010D1*
X1683647Y711890D1*
X1687586Y713171D1*
X1691678Y713819D1*
X1695821D1*
X1699912Y713171D1*
X1703852Y711890D1*
X1707543Y710010D1*
X1710895Y707575D1*
X1713824Y704645D1*
X1716259Y701294D1*
X1718140Y697603D1*
X1719420Y693663D1*
X1720068Y689571D1*
Y685429D1*
X1719420Y681337D1*
X1718140Y677397D1*
X1716259Y673706D1*
X1713824Y670355D1*
X1710895Y667425D1*
X1707543Y664990D1*
X1703852Y663110D1*
X1699912Y661829D1*
X1695821Y661181D1*
X1691678D1*
X1687586Y661829D1*
X1683647Y663110D1*
X1679955Y664990D1*
X1677017Y667099D1*
X1560899Y667163D1*
X1557738Y667664D1*
X1554693Y668653D1*
X1551841Y670106D1*
X1549251Y671988D1*
X1530397Y690753D1*
X1478237Y743002D1*
X1476355Y745592D1*
X1474902Y748444D1*
X1473913Y751488D1*
X1473412Y754650D1*
X1473349Y781251D1*
Y878692D1*
X1469624Y875771D1*
X1465385Y873124D1*
X1460878Y870965D1*
X1456159Y869320D1*
X1451287Y868209D1*
X1446321Y867646D1*
X1441324Y867638D1*
X1436356Y868185D1*
X1431481Y869280D1*
X1426757Y870911D1*
X1422243Y873055D1*
X1417995Y875688D1*
X1414066Y878776D1*
X1410504Y882282D1*
X1407354Y886161D1*
X1404654Y890366D1*
X1402437Y894845D1*
X1400732Y899543D1*
X1399559Y904400D1*
X1398933Y909358D1*
X1398861Y914355D1*
X1399345Y919329D1*
X1400378Y924219D1*
X1401948Y928963D1*
X1404035Y933504D1*
X1406614Y937785D1*
X1409652Y941753D1*
X1413111Y945359D1*
X1416950Y948559D1*
X1421121Y951312D1*
X1425571Y953585D1*
X1430247Y955350D1*
X1435089Y956585D1*
X1440039Y957274D1*
X1445034Y957409D1*
X1450014Y956989D1*
X1454916Y956018D1*
X1459680Y954509D1*
X1464247Y952480D1*
X1468561Y949956D1*
X1472567Y946969D1*
X1473347Y946301D1*
X1473349Y978692D1*
X1470158Y976153D1*
X1467225Y974193D1*
X1464147Y972469D1*
X1460944Y970992D1*
X1457634Y969771D1*
X1454239Y968814D1*
X1450779Y968126D1*
X1447276Y967711D1*
X1443751Y967572D1*
X1440226Y967711D1*
X1436722Y968126D1*
X1433263Y968814D1*
X1429867Y969771D1*
X1426558Y970992D1*
X1423354Y972469D1*
X1420276Y974193D1*
X1417343Y976153D1*
X1414573Y978337D1*
X1411982Y980731D1*
X1409587Y983322D1*
X1407403Y986092D1*
X1405444Y989025D1*
X1403720Y992103D1*
X1402243Y995307D1*
X1401022Y998617D1*
X1400064Y1002012D1*
X1399376Y1005472D1*
X1398962Y1008975D1*
X1398823Y1012500D1*
X1398962Y1016025D1*
X1399376Y1019528D1*
X1400064Y1022988D1*
X1401022Y1026383D1*
X1402243Y1029693D1*
X1403720Y1032897D1*
X1405444Y1035975D1*
X1407403Y1038908D1*
X1409587Y1041678D1*
X1411982Y1044269D1*
X1414573Y1046663D1*
X1417343Y1048847D1*
X1420276Y1050807D1*
X1423354Y1052531D1*
X1426558Y1054008D1*
X1429867Y1055229D1*
X1433263Y1056186D1*
X1436722Y1056874D1*
X1440226Y1057289D1*
X1443751Y1057428D1*
X1447276Y1057289D1*
X1450779Y1056874D1*
X1454239Y1056186D1*
X1457634Y1055229D1*
X1460944Y1054008D1*
X1464147Y1052531D1*
X1467225Y1050807D1*
X1470158Y1048847D1*
X1473344Y1046280D1*
X1473349Y1072794D1*
X1446988Y1099251D1*
X1445106Y1101841D1*
X1443653Y1104693D1*
X1442664Y1107738D1*
X1442163Y1110899D1*
X1442100Y1137500D1*
X1441993Y1241605D1*
X1439760Y1242529D1*
X1437696Y1243795D1*
X1437300Y1243792D1*
X1435240Y1242529D1*
X1433007Y1241605D1*
X1430657Y1241041D1*
X1428248Y1240851D1*
X1395544Y1240898D1*
X1393157Y1241276D1*
X1390859Y1242023D1*
X1388705Y1243120D1*
X1387696Y1243795D1*
X1387300Y1243792D1*
X1385240Y1242529D1*
X1383007Y1241605D1*
X1380657Y1241040D1*
X1378243Y1240851D1*
X1345544Y1240898D1*
X1343157Y1241276D1*
X1340859Y1242023D1*
X1338705Y1243120D1*
X1337696Y1243795D1*
X1337300Y1243792D1*
X1335240Y1242529D1*
X1333007Y1241605D1*
X1330657Y1241040D1*
X1328248Y1240851D1*
X1295544Y1240898D1*
X1293157Y1241276D1*
X1290859Y1242023D1*
X1288705Y1243120D1*
X1287696Y1243795D1*
X1287300Y1243792D1*
X1285240Y1242529D1*
X1283007Y1241605D1*
X1280657Y1241041D1*
X1278248Y1240851D1*
X1245544Y1240898D1*
X1243157Y1241276D1*
X1240859Y1242023D1*
X1238705Y1243120D1*
X1237696Y1243795D1*
X1237300Y1243792D1*
X1235240Y1242529D1*
X1233007Y1241605D1*
X1230657Y1241040D1*
X1228248Y1240851D1*
X1195544Y1240898D1*
X1193157Y1241276D1*
X1190859Y1242023D1*
X1188705Y1243120D1*
X1187696Y1243795D1*
X1187300Y1243792D1*
X1185240Y1242529D1*
X1183007Y1241605D1*
X1180657Y1241041D1*
X1178248Y1240851D1*
X1145544Y1240898D1*
X1143157Y1241276D1*
X1140859Y1242023D1*
X1138705Y1243120D1*
X1137696Y1243795D1*
X1137300Y1243792D1*
X1135239Y1242529D1*
X1133007Y1241605D1*
X1130657Y1241041D1*
X1128248Y1240851D1*
X1095544Y1240898D1*
X1093157Y1241276D1*
X1090859Y1242023D1*
X1088705Y1243120D1*
X1087696Y1243795D1*
X1086221Y1243076D1*
X1083520Y1241781D1*
X1080619Y1241035D1*
X1077248Y1240851D1*
X1049150D1*
X1049149Y1231346D1*
X1385616Y894743D1*
X1388420Y890884D1*
X1390586Y886634D1*
X1392060Y882097D1*
X1392806Y877385D1*
X1392900Y865000D1*
Y642910D1*
X1724590Y642900D1*
X1724600Y1259434D1*
X1720821Y1259451D1*
Y1329597D1*
X1689646Y1329493D1*
X1688722Y1327261D1*
X1687459Y1325200D1*
X1685890Y1323363D1*
X1684052Y1321793D1*
X1681991Y1320531D1*
X1679759Y1319606D1*
X1677409Y1319042D1*
X1674995Y1318852D1*
X1670400Y1315000D1*
X1670337Y1273399D1*
X1669836Y1270238D1*
X1668847Y1267193D1*
X1667394Y1264341D1*
X1665512Y1261751D1*
X1646747Y1242897D1*
X1632895Y1229045D1*
X1632900Y1147988D1*
X1635010Y1145043D1*
X1636890Y1141352D1*
X1638171Y1137412D1*
X1638819Y1133321D1*
Y1129178D1*
X1638171Y1125086D1*
X1636890Y1121147D1*
X1635010Y1117455D1*
X1632575Y1114104D1*
X1629645Y1111175D1*
X1626294Y1108740D1*
X1622603Y1106859D1*
X1618663Y1105579D1*
X1614571Y1104931D1*
X1610429D1*
X1607902Y1105268D1*
X1607900Y1077207D1*
X1627682Y1057419D1*
X2436409Y2221882D2*
X2436087Y2215892D1*
X2435248Y2209752D1*
X2438147Y2212755D1*
X2441811Y2216156D1*
X2445672Y2219332D1*
X2449715Y2222272D1*
X2453927Y2224966D1*
X2458291Y2227404D1*
X2462793Y2229579D1*
X2467416Y2231481D1*
X2472144Y2233104D1*
X2476961Y2234442D1*
X2481849Y2235492D1*
X2486791Y2236248D1*
X2491769Y2236708D1*
X2496765Y2236871D1*
X2501763Y2236736D1*
X2506743Y2236304D1*
X2511689Y2235575D1*
X2516583Y2234553D1*
X2521407Y2233242D1*
X2526144Y2231645D1*
X2530778Y2229769D1*
X2535292Y2227620D1*
X2539670Y2225206D1*
X2543896Y2222535D1*
X2547956Y2219618D1*
X2551834Y2216463D1*
X2555518Y2213084D1*
X2558994Y2209490D1*
X2562249Y2205696D1*
X2565273Y2201715D1*
X2568054Y2197561D1*
X2570583Y2193249D1*
X2572850Y2188793D1*
X2574848Y2184210D1*
X2576569Y2179517D1*
X2578008Y2174729D1*
X2579159Y2169864D1*
X2580017Y2164939D1*
X2580581Y2159971D1*
X2580871Y2153000D1*
X2580722Y2148003D1*
X2580276Y2143024D1*
X2579534Y2138080D1*
X2578498Y2133189D1*
X2577173Y2128369D1*
X2575563Y2123636D1*
X2573674Y2119007D1*
X2571512Y2114499D1*
X2569086Y2110128D1*
X2566404Y2105909D1*
X2563475Y2101858D1*
X2560310Y2097988D1*
X2556920Y2094314D1*
X2553317Y2090848D1*
X2549514Y2087603D1*
X2545524Y2084591D1*
X2541362Y2081821D1*
X2537043Y2079305D1*
X2532581Y2077050D1*
X2527992Y2075065D1*
X2523294Y2073357D1*
X2518502Y2071932D1*
X2513634Y2070795D1*
X2508707Y2069950D1*
X2503738Y2069400D1*
X2498745Y2069147D1*
X2493746Y2069192D1*
X2488758Y2069535D1*
X2483800Y2070174D1*
X2478889Y2071107D1*
X2474042Y2072332D1*
X2469276Y2073843D1*
X2464609Y2075636D1*
X2460058Y2077703D1*
X2455637Y2080038D1*
X2451363Y2082632D1*
X2447252Y2085476D1*
X2443317Y2088560D1*
X2439573Y2091872D1*
X2436033Y2095402D1*
X2432710Y2099137D1*
X2429615Y2103063D1*
X2426760Y2107167D1*
X2424154Y2111433D1*
X2421806Y2115847D1*
X2419726Y2120393D1*
X2417921Y2125055D1*
X2416397Y2129816D1*
X2415158Y2134660D1*
X2414211Y2139568D1*
X2413558Y2144525D1*
X2413201Y2149511D1*
X2413142Y2154510D1*
X2413381Y2159504D1*
X2413917Y2164474D1*
X2415042Y2170679D1*
X2410562Y2166477D1*
X2405864Y2162748D1*
X2400880Y2159409D1*
X2395645Y2156482D1*
X2390190Y2153986D1*
X2384553Y2151937D1*
X2378768Y2150349D1*
X2372875Y2149231D1*
X2366911Y2148592D1*
X2360914Y2148434D1*
X2354925Y2148760D1*
X2348981Y2149567D1*
X2343121Y2150850D1*
X2337384Y2152600D1*
X2331806Y2154806D1*
X2326424Y2157455D1*
X2321273Y2160528D1*
X2316385Y2164005D1*
X2311794Y2167865D1*
X2307528Y2172082D1*
X2303615Y2176628D1*
X2300081Y2181475D1*
X2296949Y2186591D1*
X2294239Y2191942D1*
X2291968Y2197494D1*
X2290151Y2203211D1*
X2288801Y2209055D1*
X2287925Y2214989D1*
X2287530Y2220974D1*
X2287618Y2226972D1*
X2288188Y2232943D1*
X2289238Y2238849D1*
X2290759Y2244651D1*
X2292743Y2250312D1*
X2295175Y2255795D1*
X2298042Y2261065D1*
X2301323Y2266086D1*
X2304997Y2270827D1*
X2309042Y2275257D1*
X2313430Y2279347D1*
X2318132Y2283070D1*
X2323120Y2286403D1*
X2328359Y2289324D1*
X2333817Y2291813D1*
X2339457Y2293855D1*
X2345243Y2295436D1*
X2351138Y2296546D1*
X2357103Y2297178D1*
X2363099Y2297328D1*
X2369088Y2296995D1*
X2375031Y2296181D1*
X2380889Y2294891D1*
X2386624Y2293133D1*
X2392199Y2290920D1*
X2397578Y2288265D1*
X2402726Y2285186D1*
X2407609Y2281702D1*
X2412196Y2277837D1*
X2416456Y2273614D1*
X2420363Y2269063D1*
X2423891Y2264212D1*
X2427017Y2259092D1*
X2429721Y2253738D1*
X2431985Y2248183D1*
X2433794Y2242464D1*
X2435138Y2236618D1*
X2436006Y2230683D1*
X2436394Y2224697D1*
X2436409Y2221882D1*
Y1582118D2*
X2436087Y1576128D1*
X2435284Y1570184D1*
X2434005Y1564324D1*
X2432258Y1558585D1*
X2430055Y1553006D1*
X2427410Y1547622D1*
X2424340Y1542469D1*
X2420866Y1537579D1*
X2417009Y1532985D1*
X2412794Y1528717D1*
X2408250Y1524801D1*
X2403406Y1521264D1*
X2398292Y1518129D1*
X2392943Y1515415D1*
X2387392Y1513141D1*
X2381676Y1511321D1*
X2375833Y1509967D1*
X2369899Y1509087D1*
X2363914Y1508689D1*
X2357916Y1508773D1*
X2351945Y1509340D1*
X2346038Y1510385D1*
X2340235Y1511903D1*
X2334573Y1513883D1*
X2329089Y1516312D1*
X2323818Y1519175D1*
X2318794Y1522453D1*
X2314051Y1526125D1*
X2309618Y1530167D1*
X2305526Y1534552D1*
X2301799Y1539253D1*
X2298464Y1544238D1*
X2295540Y1549475D1*
X2293047Y1554931D1*
X2291002Y1560570D1*
X2289417Y1566355D1*
X2288303Y1572249D1*
X2287667Y1578214D1*
X2287514Y1584210D1*
X2287843Y1590200D1*
X2288654Y1596143D1*
X2289940Y1602002D1*
X2291694Y1607738D1*
X2293904Y1613315D1*
X2296555Y1618695D1*
X2299632Y1623845D1*
X2303112Y1628730D1*
X2306975Y1633319D1*
X2311194Y1637582D1*
X2315743Y1641492D1*
X2320592Y1645023D1*
X2325710Y1648152D1*
X2331063Y1650859D1*
X2336616Y1653127D1*
X2342334Y1654940D1*
X2348179Y1656287D1*
X2354114Y1657159D1*
X2360099Y1657550D1*
X2366097Y1657458D1*
X2372068Y1656884D1*
X2377973Y1655831D1*
X2383774Y1654306D1*
X2389434Y1652319D1*
X2394915Y1649883D1*
X2400183Y1647013D1*
X2405202Y1643729D1*
X2409941Y1640052D1*
X2414369Y1636005D1*
X2415005Y1635365D1*
X2414211Y1639568D1*
X2413558Y1644525D1*
X2413201Y1649511D1*
X2413142Y1654510D1*
X2413381Y1659504D1*
X2413917Y1664474D1*
X2414748Y1669404D1*
X2415872Y1674275D1*
X2417284Y1679071D1*
X2418978Y1683774D1*
X2420951Y1688368D1*
X2423193Y1692836D1*
X2425697Y1697163D1*
X2428455Y1701333D1*
X2431457Y1705331D1*
X2434691Y1709143D1*
X2438147Y1712755D1*
X2441811Y1716156D1*
X2445672Y1719332D1*
X2449715Y1722272D1*
X2453927Y1724966D1*
X2458291Y1727404D1*
X2462793Y1729579D1*
X2467416Y1731481D1*
X2472144Y1733104D1*
X2476961Y1734442D1*
X2481849Y1735492D1*
X2486791Y1736248D1*
X2491769Y1736708D1*
X2496765Y1736871D1*
X2501763Y1736736D1*
X2506743Y1736304D1*
X2511689Y1735575D1*
X2516583Y1734553D1*
X2521407Y1733242D1*
X2526144Y1731645D1*
X2530778Y1729769D1*
X2535292Y1727620D1*
X2539670Y1725206D1*
X2543896Y1722535D1*
X2547956Y1719618D1*
X2551834Y1716463D1*
X2555518Y1713084D1*
X2558994Y1709490D1*
X2562249Y1705696D1*
X2565273Y1701715D1*
X2568054Y1697561D1*
X2570583Y1693249D1*
X2572850Y1688793D1*
X2574848Y1684210D1*
X2576569Y1679517D1*
X2578008Y1674729D1*
X2579159Y1669864D1*
X2580017Y1664939D1*
X2580581Y1659971D1*
X2580871Y1653000D1*
X2580722Y1648003D1*
X2580276Y1643024D1*
X2579534Y1638080D1*
X2578498Y1633189D1*
X2577173Y1628369D1*
X2575563Y1623636D1*
X2573674Y1619007D1*
X2571512Y1614499D1*
X2569086Y1610128D1*
X2566404Y1605909D1*
X2563475Y1601858D1*
X2560310Y1597988D1*
X2556920Y1594314D1*
X2553317Y1590848D1*
X2549514Y1587603D1*
X2545524Y1584591D1*
X2541362Y1581821D1*
X2537043Y1579305D1*
X2532581Y1577050D1*
X2527992Y1575065D1*
X2523294Y1573357D1*
X2518502Y1571932D1*
X2513634Y1570795D1*
X2508707Y1569950D1*
X2503738Y1569400D1*
X2498745Y1569147D1*
X2493746Y1569192D1*
X2488758Y1569535D1*
X2483800Y1570174D1*
X2478889Y1571107D1*
X2474042Y1572332D1*
X2469276Y1573843D1*
X2464609Y1575636D1*
X2460058Y1577703D1*
X2455637Y1580038D1*
X2451363Y1582632D1*
X2447252Y1585476D1*
X2443317Y1588560D1*
X2439573Y1591872D1*
X2435241Y1596292D1*
X2436104Y1589924D1*
X2436411Y1583933D1*
X2436409Y1582118D1*
X2194789Y396475D2*
X2194374Y392972D1*
X2193686Y389512D1*
X2192729Y386117D1*
X2191508Y382807D1*
X2190031Y379603D1*
X2188307Y376525D1*
X2186347Y373592D1*
X2184163Y370822D1*
X2181769Y368231D1*
X2179178Y365837D1*
X2176408Y363653D1*
X2173475Y361693D1*
X2170397Y359969D1*
X2167193Y358492D1*
X2163883Y357271D1*
X2160488Y356314D1*
X2157028Y355626D1*
X2153525Y355211D1*
X2150000Y355072D1*
X2146475Y355211D1*
X2142972Y355626D1*
X2139512Y356314D1*
X2136117Y357271D1*
X2132807Y358492D1*
X2129603Y359969D1*
X2126525Y361693D1*
X2123592Y363653D1*
X2120822Y365837D1*
X2118231Y368231D1*
X2115837Y370822D1*
X2113653Y373592D1*
X2111693Y376525D1*
X2109969Y379603D1*
X2108492Y382807D1*
X2107271Y386117D1*
X2106314Y389512D1*
X2105626Y392972D1*
X2105211Y396475D1*
X2105072Y400000D1*
X2105211Y403525D1*
X2105626Y407028D1*
X2106314Y410488D1*
X2107271Y413883D1*
X2108492Y417193D1*
X2109969Y420397D1*
X2111693Y423475D1*
X2113653Y426408D1*
X2115837Y429178D1*
X2118231Y431769D1*
X2120822Y434163D1*
X2123592Y436347D1*
X2126525Y438307D1*
X2129603Y440031D1*
X2132807Y441508D1*
X2136117Y442729D1*
X2139512Y443686D1*
X2142972Y444374D1*
X2146475Y444789D1*
X2150000Y444928D1*
X2153525Y444789D1*
X2157028Y444374D1*
X2160488Y443686D1*
X2163883Y442729D1*
X2167193Y441508D1*
X2170397Y440031D1*
X2173475Y438307D1*
X2176408Y436347D1*
X2179178Y434163D1*
X2181769Y431769D1*
X2184163Y429178D1*
X2186347Y426408D1*
X2188307Y423475D1*
X2190031Y420397D1*
X2191508Y417193D1*
X2192729Y413883D1*
X2193686Y410488D1*
X2194374Y407028D1*
X2194789Y403525D1*
X2194928Y400000D1*
X2194789Y396475D1*
Y296475D2*
X2194374Y292972D1*
X2193686Y289512D1*
X2192729Y286117D1*
X2191508Y282807D1*
X2190031Y279603D1*
X2188307Y276525D1*
X2186347Y273592D1*
X2184163Y270822D1*
X2181769Y268231D1*
X2179178Y265837D1*
X2176408Y263653D1*
X2173475Y261693D1*
X2170397Y259969D1*
X2167193Y258492D1*
X2163883Y257271D1*
X2160488Y256314D1*
X2157028Y255626D1*
X2153525Y255211D1*
X2150000Y255072D1*
X2146475Y255211D1*
X2142972Y255626D1*
X2139512Y256314D1*
X2136117Y257271D1*
X2132807Y258492D1*
X2129603Y259969D1*
X2126525Y261693D1*
X2123592Y263653D1*
X2120822Y265837D1*
X2118231Y268231D1*
X2115837Y270822D1*
X2113653Y273592D1*
X2111693Y276525D1*
X2109969Y279603D1*
X2108492Y282807D1*
X2107271Y286117D1*
X2106314Y289512D1*
X2105626Y292972D1*
X2105211Y296475D1*
X2105072Y300000D1*
X2105211Y303525D1*
X2105626Y307028D1*
X2106314Y310488D1*
X2107271Y313883D1*
X2108492Y317193D1*
X2109969Y320397D1*
X2111693Y323475D1*
X2113653Y326408D1*
X2115837Y329178D1*
X2118231Y331769D1*
X2120822Y334163D1*
X2123592Y336347D1*
X2126525Y338307D1*
X2129603Y340031D1*
X2132807Y341508D1*
X2136117Y342729D1*
X2139512Y343686D1*
X2142972Y344374D1*
X2146475Y344789D1*
X2150000Y344928D1*
X2153525Y344789D1*
X2157028Y344374D1*
X2160488Y343686D1*
X2163883Y342729D1*
X2167193Y341508D1*
X2170397Y340031D1*
X2173475Y338307D1*
X2176408Y336347D1*
X2179178Y334163D1*
X2181769Y331769D1*
X2184163Y329178D1*
X2186347Y326408D1*
X2188307Y323475D1*
X2190031Y320397D1*
X2191508Y317193D1*
X2192729Y313883D1*
X2193686Y310488D1*
X2194374Y307028D1*
X2194789Y303525D1*
X2194928Y300000D1*
X2194789Y296475D1*
X2306073Y544927D2*
X2394928D1*
Y455072D1*
X2305073D1*
Y544927D1*
X2306073D1*
X2394916Y399000D2*
X2394528Y394018D1*
X2393588Y389110D1*
X2392109Y384336D1*
X2390108Y379756D1*
X2387612Y375427D1*
X2384650Y371402D1*
X2381260Y367731D1*
X2377482Y364458D1*
X2373365Y361626D1*
X2368959Y359269D1*
X2364318Y357415D1*
X2359500Y356088D1*
X2354564Y355305D1*
X2349572Y355074D1*
X2344585Y355400D1*
X2339665Y356277D1*
X2334873Y357695D1*
X2330269Y359637D1*
X2325908Y362078D1*
X2321845Y364988D1*
X2318131Y368332D1*
X2314811Y372067D1*
X2311927Y376148D1*
X2309513Y380524D1*
X2307601Y385141D1*
X2306213Y389942D1*
X2305367Y394867D1*
X2305073Y399856D1*
X2305335Y404846D1*
X2306149Y409777D1*
X2307506Y414587D1*
X2309389Y419216D1*
X2311775Y423607D1*
X2314633Y427706D1*
X2317929Y431463D1*
X2321621Y434830D1*
X2325665Y437766D1*
X2330010Y440235D1*
X2334602Y442207D1*
X2339385Y443656D1*
X2344299Y444564D1*
X2349284Y444922D1*
X2354277Y444723D1*
X2359218Y443972D1*
X2364044Y442676D1*
X2368697Y440852D1*
X2373119Y438523D1*
X2377254Y435717D1*
X2381052Y432469D1*
X2384466Y428820D1*
X2387454Y424814D1*
X2389978Y420500D1*
X2392007Y415934D1*
X2393517Y411170D1*
X2394488Y406268D1*
X2394909Y401288D1*
X2394916Y399000D1*
Y299000D2*
X2394528Y294018D1*
X2393588Y289110D1*
X2392109Y284336D1*
X2390108Y279756D1*
X2387612Y275427D1*
X2384650Y271402D1*
X2381260Y267731D1*
X2377482Y264458D1*
X2373365Y261626D1*
X2368959Y259269D1*
X2364318Y257415D1*
X2359500Y256088D1*
X2354564Y255305D1*
X2349572Y255074D1*
X2344585Y255400D1*
X2339665Y256277D1*
X2334873Y257695D1*
X2330269Y259637D1*
X2325908Y262078D1*
X2321845Y264988D1*
X2318131Y268332D1*
X2314811Y272067D1*
X2311927Y276148D1*
X2309513Y280524D1*
X2307601Y285141D1*
X2306213Y289942D1*
X2305367Y294867D1*
X2305073Y299856D1*
X2305335Y304846D1*
X2306149Y309777D1*
X2307506Y314587D1*
X2309389Y319216D1*
X2311775Y323607D1*
X2314633Y327706D1*
X2317929Y331463D1*
X2321621Y334830D1*
X2325665Y337766D1*
X2330010Y340235D1*
X2334602Y342207D1*
X2339385Y343656D1*
X2344299Y344564D1*
X2349284Y344922D1*
X2354277Y344723D1*
X2359218Y343972D1*
X2364044Y342676D1*
X2368697Y340852D1*
X2373119Y338523D1*
X2377254Y335717D1*
X2381052Y332469D1*
X2384466Y328820D1*
X2387454Y324814D1*
X2389978Y320500D1*
X2392007Y315934D1*
X2393517Y311170D1*
X2394488Y306268D1*
X2394909Y301288D1*
X2394916Y299000D1*
Y199000D2*
X2394528Y194018D1*
X2393588Y189110D1*
X2392109Y184336D1*
X2390108Y179756D1*
X2387612Y175427D1*
X2384650Y171402D1*
X2381260Y167731D1*
X2377482Y164458D1*
X2373365Y161626D1*
X2368959Y159269D1*
X2364318Y157415D1*
X2359500Y156088D1*
X2354564Y155305D1*
X2349572Y155074D1*
X2344585Y155400D1*
X2339665Y156277D1*
X2334873Y157695D1*
X2330269Y159637D1*
X2325908Y162078D1*
X2321845Y164988D1*
X2318131Y168332D1*
X2314811Y172067D1*
X2311927Y176148D1*
X2309513Y180524D1*
X2307601Y185141D1*
X2306213Y189942D1*
X2305367Y194867D1*
X2305073Y199856D1*
X2305335Y204846D1*
X2306149Y209777D1*
X2307506Y214587D1*
X2309389Y219216D1*
X2311775Y223607D1*
X2314633Y227706D1*
X2317929Y231463D1*
X2321621Y234830D1*
X2325665Y237766D1*
X2330010Y240235D1*
X2334602Y242207D1*
X2339385Y243656D1*
X2344299Y244564D1*
X2349284Y244922D1*
X2354277Y244723D1*
X2359218Y243972D1*
X2364044Y242676D1*
X2368697Y240852D1*
X2373119Y238523D1*
X2377254Y235717D1*
X2381052Y232469D1*
X2384466Y228820D1*
X2387454Y224814D1*
X2389978Y220500D1*
X2392007Y215934D1*
X2393517Y211170D1*
X2394488Y206268D1*
X2394909Y201288D1*
X2394916Y199000D1*
X768073Y400927D2*
X856928D1*
Y311072D1*
X784197D1*
X784199Y263488D1*
X698281D1*
Y338273D1*
X619541Y338292D1*
Y424210D1*
X705459D1*
Y404073D1*
X708648Y405640D1*
X712588Y406920D1*
X716679Y407568D1*
X720822D1*
X724914Y406920D1*
X728853Y405640D1*
X732545Y403759D1*
X735896Y401324D1*
X738825Y398395D1*
X741260Y395043D1*
X743141Y391352D1*
X744421Y387412D1*
X745069Y383321D1*
Y379178D1*
X744421Y375086D1*
X743141Y371147D1*
X741260Y367455D1*
X738825Y364104D1*
X735896Y361175D1*
X732545Y358740D1*
X728853Y356859D1*
X724914Y355579D1*
X720822Y354931D1*
X716679D1*
X712588Y355579D1*
X708648Y356859D1*
X705458Y358459D1*
X705459Y349424D1*
X767090Y349406D1*
X767073Y400927D1*
X768073D1*
X1056916Y355000D2*
X1056528Y350018D1*
X1055588Y345110D1*
X1054109Y340336D1*
X1052108Y335756D1*
X1049612Y331427D1*
X1046650Y327402D1*
X1043260Y323731D1*
X1039482Y320458D1*
X1035365Y317626D1*
X1030959Y315269D1*
X1026318Y313415D1*
X1021500Y312088D1*
X1016564Y311305D1*
X1011572Y311074D1*
X1006585Y311400D1*
X1001665Y312277D1*
X996873Y313695D1*
X992269Y315637D1*
X987908Y318078D1*
X983845Y320988D1*
X980131Y324332D1*
X976811Y328067D1*
X973927Y332148D1*
X971513Y336524D1*
X969601Y341141D1*
X968213Y345942D1*
X967367Y350867D1*
X967073Y355856D1*
X967335Y360846D1*
X968149Y365777D1*
X969506Y370587D1*
X971389Y375216D1*
X973775Y379607D1*
X976633Y383706D1*
X979929Y387463D1*
X983621Y390830D1*
X987665Y393766D1*
X992010Y396235D1*
X996602Y398207D1*
X1001385Y399656D1*
X1006299Y400564D1*
X1011284Y400922D1*
X1016277Y400723D1*
X1021218Y399972D1*
X1026044Y398676D1*
X1030697Y396852D1*
X1035119Y394523D1*
X1039254Y391717D1*
X1043052Y388469D1*
X1046466Y384820D1*
X1049454Y380814D1*
X1051978Y376500D1*
X1054007Y371934D1*
X1055517Y367170D1*
X1056488Y362268D1*
X1056909Y357288D1*
X1056916Y355000D1*
X1256789Y352475D2*
X1256374Y348972D1*
X1255686Y345512D1*
X1254729Y342117D1*
X1253508Y338807D1*
X1252031Y335603D1*
X1250307Y332525D1*
X1248347Y329592D1*
X1246163Y326822D1*
X1243769Y324231D1*
X1241178Y321837D1*
X1238408Y319653D1*
X1235294Y317592D1*
X1235302Y289134D1*
X1240597Y289120D1*
Y239218D1*
X1384199Y239219D1*
X1384206Y289120D1*
X1389499D1*
X1389501Y317094D1*
X1385592Y319653D1*
X1382822Y321837D1*
X1380231Y324231D1*
X1377837Y326822D1*
X1375653Y329592D1*
X1373693Y332525D1*
X1371969Y335603D1*
X1370492Y338807D1*
X1369271Y342117D1*
X1368314Y345512D1*
X1367626Y348972D1*
X1367211Y352475D1*
X1367072Y356000D1*
X1367211Y359525D1*
X1367626Y363028D1*
X1368314Y366488D1*
X1369271Y369883D1*
X1370492Y373193D1*
X1371969Y376397D1*
X1373693Y379475D1*
X1375653Y382408D1*
X1377837Y385178D1*
X1380231Y387769D1*
X1382822Y390163D1*
X1385592Y392347D1*
X1388525Y394307D1*
X1391603Y396031D1*
X1394807Y397508D1*
X1398117Y398729D1*
X1401207Y399600D1*
X1337410D1*
X1337400Y393066D1*
X1341178Y390163D1*
X1343769Y387769D1*
X1346163Y385178D1*
X1348347Y382408D1*
X1350307Y379475D1*
X1352031Y376397D1*
X1353508Y373193D1*
X1354729Y369883D1*
X1355686Y366488D1*
X1356374Y363028D1*
X1356789Y359525D1*
X1356928Y356000D1*
X1356789Y352475D1*
X1356374Y348972D1*
X1355686Y345512D1*
X1354729Y342117D1*
X1353508Y338807D1*
X1352031Y335603D1*
X1350307Y332525D1*
X1348347Y329592D1*
X1346163Y326822D1*
X1343769Y324231D1*
X1341178Y321837D1*
X1338408Y319653D1*
X1335475Y317693D1*
X1332397Y315969D1*
X1329193Y314492D1*
X1325883Y313271D1*
X1322488Y312314D1*
X1319028Y311626D1*
X1315525Y311211D1*
X1312000Y311072D1*
X1308475Y311211D1*
X1304972Y311626D1*
X1301512Y312314D1*
X1298117Y313271D1*
X1294807Y314492D1*
X1291603Y315969D1*
X1288525Y317693D1*
X1285592Y319653D1*
X1282822Y321837D1*
X1280231Y324231D1*
X1277837Y326822D1*
X1275653Y329592D1*
X1273693Y332525D1*
X1271969Y335603D1*
X1270492Y338807D1*
X1269271Y342117D1*
X1268314Y345512D1*
X1267626Y348972D1*
X1267211Y352475D1*
X1267072Y356000D1*
X1267211Y359525D1*
X1267626Y363028D1*
X1268314Y366488D1*
X1269271Y369883D1*
X1270492Y373193D1*
X1271969Y376397D1*
X1273693Y379475D1*
X1275653Y382408D1*
X1277837Y385178D1*
X1280231Y387769D1*
X1282822Y390163D1*
X1286589Y393013D1*
X1286600Y399613D1*
X1222837Y399600D1*
X1229193Y397508D1*
X1232397Y396031D1*
X1235475Y394307D1*
X1238408Y392347D1*
X1241178Y390163D1*
X1243769Y387769D1*
X1246163Y385178D1*
X1248347Y382408D1*
X1250307Y379475D1*
X1252031Y376397D1*
X1253508Y373193D1*
X1254729Y369883D1*
X1255686Y366488D1*
X1256374Y363028D1*
X1256789Y359525D1*
X1256928Y356000D1*
X1256789Y352475D1*
X1456789D2*
X1456374Y348972D1*
X1455686Y345512D1*
X1454729Y342117D1*
X1453508Y338807D1*
X1452031Y335603D1*
X1450307Y332525D1*
X1448347Y329592D1*
X1446163Y326822D1*
X1443769Y324231D1*
X1441178Y321837D1*
X1438408Y319653D1*
X1435294Y317592D1*
X1435302Y289134D1*
X1440597Y289120D1*
Y239218D1*
X1584199Y239219D1*
X1584206Y289120D1*
X1589499D1*
X1589501Y317094D1*
X1585592Y319653D1*
X1582822Y321837D1*
X1580231Y324231D1*
X1577837Y326822D1*
X1575653Y329592D1*
X1573693Y332525D1*
X1571969Y335603D1*
X1570492Y338807D1*
X1569271Y342117D1*
X1568314Y345512D1*
X1567626Y348972D1*
X1567211Y352475D1*
X1567072Y356000D1*
X1567211Y359525D1*
X1567626Y363028D1*
X1568314Y366488D1*
X1569271Y369883D1*
X1570492Y373193D1*
X1571969Y376397D1*
X1573693Y379475D1*
X1575653Y382408D1*
X1577837Y385178D1*
X1580231Y387769D1*
X1582822Y390163D1*
X1585592Y392347D1*
X1588525Y394307D1*
X1591603Y396031D1*
X1594807Y397508D1*
X1598117Y398729D1*
X1601207Y399600D1*
X1537410D1*
X1537400Y393066D1*
X1541178Y390163D1*
X1543769Y387769D1*
X1546163Y385178D1*
X1548347Y382408D1*
X1550307Y379475D1*
X1552031Y376397D1*
X1553508Y373193D1*
X1554729Y369883D1*
X1555686Y366488D1*
X1556374Y363028D1*
X1556789Y359525D1*
X1556928Y356000D1*
X1556789Y352475D1*
X1556374Y348972D1*
X1555686Y345512D1*
X1554729Y342117D1*
X1553508Y338807D1*
X1552031Y335603D1*
X1550307Y332525D1*
X1548347Y329592D1*
X1546163Y326822D1*
X1543769Y324231D1*
X1541178Y321837D1*
X1538408Y319653D1*
X1535475Y317693D1*
X1532397Y315969D1*
X1529193Y314492D1*
X1525883Y313271D1*
X1522488Y312314D1*
X1519028Y311626D1*
X1515525Y311211D1*
X1512000Y311072D1*
X1508475Y311211D1*
X1504972Y311626D1*
X1501512Y312314D1*
X1498117Y313271D1*
X1494807Y314492D1*
X1491603Y315969D1*
X1488525Y317693D1*
X1485592Y319653D1*
X1482822Y321837D1*
X1480231Y324231D1*
X1477837Y326822D1*
X1475653Y329592D1*
X1473693Y332525D1*
X1471969Y335603D1*
X1470492Y338807D1*
X1469271Y342117D1*
X1468314Y345512D1*
X1467626Y348972D1*
X1467211Y352475D1*
X1467072Y356000D1*
X1467211Y359525D1*
X1467626Y363028D1*
X1468314Y366488D1*
X1469271Y369883D1*
X1470492Y373193D1*
X1471969Y376397D1*
X1473693Y379475D1*
X1475653Y382408D1*
X1477837Y385178D1*
X1480231Y387769D1*
X1482822Y390163D1*
X1486589Y393013D1*
X1486600Y399613D1*
X1422840Y399600D1*
X1429193Y397508D1*
X1432397Y396031D1*
X1435475Y394307D1*
X1438408Y392347D1*
X1441178Y390163D1*
X1443769Y387769D1*
X1446163Y385178D1*
X1448347Y382408D1*
X1450307Y379475D1*
X1452031Y376397D1*
X1453508Y373193D1*
X1454729Y369883D1*
X1455686Y366488D1*
X1456374Y363028D1*
X1456789Y359525D1*
X1456928Y356000D1*
X1456789Y352475D1*
X2010073Y344927D2*
X2094928D1*
Y255072D1*
X2005073D1*
Y344927D1*
X2010073D1*
X2094789Y396475D2*
X2094374Y392972D1*
X2093686Y389512D1*
X2092729Y386117D1*
X2091508Y382807D1*
X2090031Y379603D1*
X2088307Y376525D1*
X2086347Y373592D1*
X2084163Y370822D1*
X2081769Y368231D1*
X2079178Y365837D1*
X2076408Y363653D1*
X2073475Y361693D1*
X2070397Y359969D1*
X2067193Y358492D1*
X2063883Y357271D1*
X2060488Y356314D1*
X2057028Y355626D1*
X2053525Y355211D1*
X2050000Y355072D1*
X2046475Y355211D1*
X2042972Y355626D1*
X2039512Y356314D1*
X2036117Y357271D1*
X2032807Y358492D1*
X2029603Y359969D1*
X2026525Y361693D1*
X2023592Y363653D1*
X2020822Y365837D1*
X2018231Y368231D1*
X2015837Y370822D1*
X2013653Y373592D1*
X2011693Y376525D1*
X2009969Y379603D1*
X2008492Y382807D1*
X2007271Y386117D1*
X2006314Y389512D1*
X2005626Y392972D1*
X2005211Y396475D1*
X2005072Y400000D1*
X2005211Y403525D1*
X2005626Y407028D1*
X2006314Y410488D1*
X2007271Y413883D1*
X2008492Y417193D1*
X2009969Y420397D1*
X2011693Y423475D1*
X2013653Y426408D1*
X2015837Y429178D1*
X2018231Y431769D1*
X2020822Y434163D1*
X2023592Y436347D1*
X2026525Y438307D1*
X2029603Y440031D1*
X2032807Y441508D1*
X2036117Y442729D1*
X2039512Y443686D1*
X2042972Y444374D1*
X2046475Y444789D1*
X2050000Y444928D1*
X2053525Y444789D1*
X2057028Y444374D1*
X2060488Y443686D1*
X2063883Y442729D1*
X2067193Y441508D1*
X2070397Y440031D1*
X2073475Y438307D1*
X2076408Y436347D1*
X2079178Y434163D1*
X2081769Y431769D1*
X2084163Y429178D1*
X2086347Y426408D1*
X2088307Y423475D1*
X2090031Y420397D1*
X2091508Y417193D1*
X2092729Y413883D1*
X2093686Y410488D1*
X2094374Y407028D1*
X2094789Y403525D1*
X2094928Y400000D1*
X2094789Y396475D1*
X2094916Y499000D2*
X2094528Y494018D1*
X2093588Y489110D1*
X2092109Y484336D1*
X2090108Y479756D1*
X2087612Y475427D1*
X2084650Y471402D1*
X2081260Y467731D1*
X2077482Y464458D1*
X2073365Y461626D1*
X2068959Y459269D1*
X2064318Y457415D1*
X2059500Y456088D1*
X2054564Y455305D1*
X2049572Y455074D1*
X2044585Y455400D1*
X2039665Y456277D1*
X2034873Y457695D1*
X2030269Y459637D1*
X2025908Y462078D1*
X2021845Y464988D1*
X2018131Y468332D1*
X2014811Y472067D1*
X2011927Y476148D1*
X2009513Y480524D1*
X2007601Y485141D1*
X2006213Y489942D1*
X2005367Y494867D1*
X2005073Y499856D1*
X2005335Y504846D1*
X2006149Y509777D1*
X2007506Y514587D1*
X2009389Y519216D1*
X2011775Y523607D1*
X2014633Y527706D1*
X2017929Y531463D1*
X2021621Y534830D1*
X2025665Y537766D1*
X2030010Y540235D1*
X2034602Y542207D1*
X2039385Y543656D1*
X2044299Y544564D1*
X2049284Y544922D1*
X2054277Y544723D1*
X2059218Y543972D1*
X2064044Y542676D1*
X2068697Y540852D1*
X2073119Y538523D1*
X2077254Y535717D1*
X2081052Y532469D1*
X2084466Y528820D1*
X2087454Y524814D1*
X2089978Y520500D1*
X2092007Y515934D1*
X2093517Y511170D1*
X2094488Y506268D1*
X2094909Y501288D1*
X2094916Y499000D1*
X2210073Y544927D2*
X2294928D1*
Y455072D1*
X2205073D1*
Y544927D1*
X2210073D1*
X2294789Y396475D2*
X2294374Y392972D1*
X2293686Y389512D1*
X2292729Y386117D1*
X2291508Y382807D1*
X2290031Y379603D1*
X2288307Y376525D1*
X2286347Y373592D1*
X2284163Y370822D1*
X2281769Y368231D1*
X2279178Y365837D1*
X2276408Y363653D1*
X2273475Y361693D1*
X2270397Y359969D1*
X2267193Y358492D1*
X2263883Y357271D1*
X2260488Y356314D1*
X2257028Y355626D1*
X2253525Y355211D1*
X2250000Y355072D1*
X2246475Y355211D1*
X2242972Y355626D1*
X2239512Y356314D1*
X2236117Y357271D1*
X2232807Y358492D1*
X2229603Y359969D1*
X2226525Y361693D1*
X2223592Y363653D1*
X2220822Y365837D1*
X2218231Y368231D1*
X2215837Y370822D1*
X2213653Y373592D1*
X2211693Y376525D1*
X2209969Y379603D1*
X2208492Y382807D1*
X2207271Y386117D1*
X2206314Y389512D1*
X2205626Y392972D1*
X2205211Y396475D1*
X2205072Y400000D1*
X2205211Y403525D1*
X2205626Y407028D1*
X2206314Y410488D1*
X2207271Y413883D1*
X2208492Y417193D1*
X2209969Y420397D1*
X2211693Y423475D1*
X2213653Y426408D1*
X2215837Y429178D1*
X2218231Y431769D1*
X2220822Y434163D1*
X2223592Y436347D1*
X2226525Y438307D1*
X2229603Y440031D1*
X2232807Y441508D1*
X2236117Y442729D1*
X2239512Y443686D1*
X2242972Y444374D1*
X2246475Y444789D1*
X2250000Y444928D1*
X2253525Y444789D1*
X2257028Y444374D1*
X2260488Y443686D1*
X2263883Y442729D1*
X2267193Y441508D1*
X2270397Y440031D1*
X2273475Y438307D1*
X2276408Y436347D1*
X2279178Y434163D1*
X2281769Y431769D1*
X2284163Y429178D1*
X2286347Y426408D1*
X2288307Y423475D1*
X2290031Y420397D1*
X2291508Y417193D1*
X2292729Y413883D1*
X2293686Y410488D1*
X2294374Y407028D1*
X2294789Y403525D1*
X2294928Y400000D1*
X2294789Y396475D1*
Y296475D2*
X2294374Y292972D1*
X2293686Y289512D1*
X2292729Y286117D1*
X2291508Y282807D1*
X2290031Y279603D1*
X2288307Y276525D1*
X2286347Y273592D1*
X2284163Y270822D1*
X2281769Y268231D1*
X2279178Y265837D1*
X2276408Y263653D1*
X2273475Y261693D1*
X2270397Y259969D1*
X2267193Y258492D1*
X2263883Y257271D1*
X2260488Y256314D1*
X2257028Y255626D1*
X2253525Y255211D1*
X2250000Y255072D1*
X2246475Y255211D1*
X2242972Y255626D1*
X2239512Y256314D1*
X2236117Y257271D1*
X2232807Y258492D1*
X2229603Y259969D1*
X2226525Y261693D1*
X2223592Y263653D1*
X2220822Y265837D1*
X2218231Y268231D1*
X2215837Y270822D1*
X2213653Y273592D1*
X2211693Y276525D1*
X2209969Y279603D1*
X2208492Y282807D1*
X2207271Y286117D1*
X2206314Y289512D1*
X2205626Y292972D1*
X2205211Y296475D1*
X2205072Y300000D1*
X2205211Y303525D1*
X2205626Y307028D1*
X2206314Y310488D1*
X2207271Y313883D1*
X2208492Y317193D1*
X2209969Y320397D1*
X2211693Y323475D1*
X2213653Y326408D1*
X2215837Y329178D1*
X2218231Y331769D1*
X2220822Y334163D1*
X2223592Y336347D1*
X2226525Y338307D1*
X2229603Y340031D1*
X2232807Y341508D1*
X2236117Y342729D1*
X2239512Y343686D1*
X2242972Y344374D1*
X2246475Y344789D1*
X2250000Y344928D1*
X2253525Y344789D1*
X2257028Y344374D1*
X2260488Y343686D1*
X2263883Y342729D1*
X2267193Y341508D1*
X2270397Y340031D1*
X2273475Y338307D1*
X2276408Y336347D1*
X2279178Y334163D1*
X2281769Y331769D1*
X2284163Y329178D1*
X2286347Y326408D1*
X2288307Y323475D1*
X2290031Y320397D1*
X2291508Y317193D1*
X2292729Y313883D1*
X2293686Y310488D1*
X2294374Y307028D1*
X2294789Y303525D1*
X2294928Y300000D1*
X2294789Y296475D1*
Y196475D2*
X2294374Y192972D1*
X2293686Y189512D1*
X2292729Y186117D1*
X2291508Y182807D1*
X2290031Y179603D1*
X2288307Y176525D1*
X2286347Y173592D1*
X2284163Y170822D1*
X2281769Y168231D1*
X2279178Y165837D1*
X2276408Y163653D1*
X2273475Y161693D1*
X2270397Y159969D1*
X2267193Y158492D1*
X2263883Y157271D1*
X2260488Y156314D1*
X2257028Y155626D1*
X2253525Y155211D1*
X2250000Y155072D1*
X2246475Y155211D1*
X2242972Y155626D1*
X2239512Y156314D1*
X2236117Y157271D1*
X2232807Y158492D1*
X2229603Y159969D1*
X2226525Y161693D1*
X2223592Y163653D1*
X2220822Y165837D1*
X2218231Y168231D1*
X2215837Y170822D1*
X2213653Y173592D1*
X2211693Y176525D1*
X2209969Y179603D1*
X2208492Y182807D1*
X2207271Y186117D1*
X2206314Y189512D1*
X2205626Y192972D1*
X2205211Y196475D1*
X2205072Y200000D1*
X2205211Y203525D1*
X2205626Y207028D1*
X2206314Y210488D1*
X2207271Y213883D1*
X2208492Y217193D1*
X2209969Y220397D1*
X2211693Y223475D1*
X2213653Y226408D1*
X2215837Y229178D1*
X2218231Y231769D1*
X2220822Y234163D1*
X2223592Y236347D1*
X2226525Y238307D1*
X2229603Y240031D1*
X2232807Y241508D1*
X2236117Y242729D1*
X2239512Y243686D1*
X2242972Y244374D1*
X2246475Y244789D1*
X2250000Y244928D1*
X2253525Y244789D1*
X2257028Y244374D1*
X2260488Y243686D1*
X2263883Y242729D1*
X2267193Y241508D1*
X2270397Y240031D1*
X2273475Y238307D1*
X2276408Y236347D1*
X2279178Y234163D1*
X2281769Y231769D1*
X2284163Y229178D1*
X2286347Y226408D1*
X2288307Y223475D1*
X2290031Y220397D1*
X2291508Y217193D1*
X2292729Y213883D1*
X2293686Y210488D1*
X2294374Y207028D1*
X2294789Y203525D1*
X2294928Y200000D1*
X2294789Y196475D1*
X887544Y1875197D2*
X886278Y1877261D1*
X885771Y1878363D1*
X848819Y1878419D1*
X741690D1*
X741680Y1865702D1*
X683321D1*
Y1870839D1*
X682900Y1870000D1*
Y1855449D1*
X705459Y1855459D1*
Y1832900D1*
X789101Y1832837D1*
X792262Y1832336D1*
X795307Y1831347D1*
X798159Y1829894D1*
X800749Y1828012D1*
X819603Y1809247D1*
X840512Y1788249D1*
X842394Y1785659D1*
X843847Y1782807D1*
X844836Y1779762D1*
X845337Y1776601D1*
X845400Y1750000D1*
Y1627207D1*
X858829Y1613772D1*
X862414Y1613171D1*
X866353Y1611890D1*
X870045Y1610010D1*
X873396Y1607575D1*
X876325Y1604645D1*
X878760Y1601294D1*
X880641Y1597603D1*
X881921Y1593663D1*
X882569Y1589571D1*
Y1585429D1*
X881921Y1581337D1*
X880641Y1577397D1*
X878760Y1573706D1*
X876360Y1570399D1*
X885354Y1570507D1*
X886278Y1572740D1*
X887544Y1574804D1*
X887541Y1575200D1*
X886278Y1577261D1*
X885354Y1579493D1*
X884789Y1581843D1*
X884600Y1584252D1*
X884647Y1616957D1*
X885025Y1619343D1*
X885772Y1621642D1*
X886869Y1623795D1*
X887544Y1624804D1*
X887541Y1625200D1*
X886278Y1627261D1*
X885354Y1629493D1*
X884789Y1631843D1*
X884600Y1634252D1*
X884647Y1666957D1*
X885025Y1669343D1*
X885772Y1671642D1*
X886869Y1673795D1*
X887544Y1674804D1*
X887541Y1675200D1*
X886278Y1677261D1*
X885354Y1679493D1*
X884790Y1681843D1*
X884600Y1684252D1*
X884647Y1716957D1*
X885025Y1719343D1*
X885772Y1721642D1*
X886869Y1723795D1*
X887544Y1724804D1*
X887541Y1725200D1*
X886278Y1727261D1*
X885354Y1729493D1*
X884790Y1731843D1*
X884600Y1734252D1*
X884647Y1766957D1*
X885025Y1769343D1*
X885772Y1771642D1*
X886869Y1773795D1*
X887544Y1774804D1*
X887541Y1775200D1*
X886278Y1777261D1*
X885354Y1779493D1*
X884789Y1781843D1*
X884600Y1784252D1*
X884647Y1816957D1*
X885025Y1819343D1*
X885772Y1821642D1*
X886869Y1823795D1*
X887544Y1824804D1*
X887541Y1825200D1*
X886278Y1827261D1*
X885354Y1829493D1*
X884790Y1831843D1*
X884600Y1834252D1*
X884647Y1866957D1*
X885025Y1869343D1*
X885772Y1871642D1*
X886869Y1873795D1*
X887544Y1874804D1*
X1687456Y1524804D2*
X1688722Y1522740D1*
X1689648Y1520503D1*
X1695000Y1520400D1*
X1745351Y1520338D1*
X1748513Y1519837D1*
X1751557Y1518848D1*
X1754409Y1517394D1*
X1756999Y1515513D1*
X1775853Y1496748D1*
X1783822Y1488779D1*
X1787414Y1488171D1*
X1791353Y1486890D1*
X1795045Y1485010D1*
X1798396Y1482575D1*
X1801325Y1479645D1*
X1803760Y1476294D1*
X1804603Y1474789D1*
X1804600Y1625762D1*
X1713249Y1534488D1*
X1710659Y1532606D1*
X1707807Y1531153D1*
X1704763Y1530164D1*
X1701601Y1529663D1*
X1689668Y1529600D1*
X1688722Y1527261D1*
X1687456Y1525197D1*
Y1674804D2*
X1688722Y1672740D1*
X1689648Y1670503D1*
X1695000Y1670400D1*
X1716543D1*
X1754590Y1708440D1*
X1754600Y1750762D1*
X1738249Y1734488D1*
X1735659Y1732606D1*
X1732807Y1731153D1*
X1729763Y1730164D1*
X1726601Y1729663D1*
X1700000Y1729600D1*
X1689646Y1729493D1*
X1688722Y1727261D1*
X1687456Y1725197D1*
X1687459Y1724800D1*
X1688722Y1722740D1*
X1689646Y1720507D1*
X1690210Y1718157D1*
X1690400Y1715748D1*
X1690353Y1683044D1*
X1689975Y1680657D1*
X1689228Y1678359D1*
X1688131Y1676206D1*
X1687456Y1675197D1*
X1690400Y1703942D2*
Y1703933D1*
Y1692131D2*
Y1692122D1*
X1163881Y1574914D2*
X1163987Y1812928D1*
X1164626Y1815854D1*
X1165819Y1818602D1*
X1167521Y1821066D1*
X1169669Y1823154D1*
X1172179Y1824787D1*
X1174959Y1825904D1*
X1177902Y1826461D1*
X1188281Y1826522D1*
X1417307Y1826416D1*
X1420233Y1825778D1*
X1422980Y1824584D1*
X1425445Y1822882D1*
X1427533Y1820735D1*
X1429166Y1818224D1*
X1430282Y1815444D1*
X1430840Y1812501D1*
X1430901Y1802122D1*
X1430869Y1573903D1*
X1430385Y1570947D1*
X1429338Y1568140D1*
X1427767Y1565590D1*
X1425733Y1563392D1*
X1423311Y1561629D1*
X1420594Y1560368D1*
X1417684Y1559657D1*
X1414501Y1559502D1*
X1178282Y1559534D1*
X1175326Y1560018D1*
X1172519Y1561066D1*
X1169969Y1562636D1*
X1167771Y1564671D1*
X1166008Y1567092D1*
X1164747Y1569809D1*
X1164036Y1572719D1*
X1163882Y1574715D1*
X1992105Y1484501D2*
X1979683D1*
X1979673Y1483320D1*
X1914137D1*
X1914151Y1386754D1*
X1992097Y1464697D1*
X1992100Y1484512D1*
X1779180Y1274610D2*
Y1259451D1*
X1775410D1*
X1775400Y1038252D1*
X1779179Y1038819D1*
X1783322D1*
X1787414Y1038171D1*
X1791353Y1036890D1*
X1795045Y1035010D1*
X1797983Y1032901D1*
X1811505Y1032900D1*
X1811100Y1037500D1*
X1811425Y1041630D1*
X1812392Y1045658D1*
X1813977Y1049485D1*
X1816142Y1053018D1*
X1818832Y1056168D1*
X1821982Y1058858D1*
X1825515Y1061023D1*
X1829342Y1062608D1*
X1833370Y1063575D1*
X1837500Y1063900D1*
X1841630Y1063575D1*
X1845658Y1062608D1*
X1849485Y1061023D1*
X1853018Y1058858D1*
X1854232Y1057901D1*
X1882012Y1057900D1*
X1859488Y1080502D1*
X1857606Y1083092D1*
X1856153Y1085944D1*
X1855164Y1088988D1*
X1854663Y1092150D1*
X1854600Y1118751D1*
Y1251973D1*
X1852490Y1254955D1*
X1850610Y1258647D1*
X1849329Y1262586D1*
X1848681Y1266678D1*
Y1270821D1*
X1849268Y1274603D1*
X1779199Y1274600D1*
X1870703Y1691679D2*
X1871738D1*
X1870228Y1694265D1*
X1868643Y1698093D1*
X1867676Y1702121D1*
X1867351Y1706251D1*
X1867432Y1708314D1*
X1866884Y1708320D1*
Y1766679D1*
X1880028D1*
X1881153Y1770308D1*
X1882606Y1773160D1*
X1884488Y1775750D1*
X1891824Y1783176D1*
X1894258Y1785255D1*
X1896988Y1786927D1*
X1899945Y1788152D1*
X1903058Y1788900D1*
X1906249Y1789151D1*
X2032011D1*
X2016560Y1804590D1*
X1872988Y1804600D1*
X1870043Y1802490D1*
X1866352Y1800610D1*
X1862412Y1799329D1*
X1858321Y1798681D1*
X1854178D1*
X1850086Y1799329D1*
X1846147Y1800610D1*
X1845404Y1800952D1*
X1845400Y1682363D1*
X1848399Y1682837D1*
X1865684Y1682900D1*
X1865703Y1691679D1*
X1870703D1*
X1885705Y1633320D2*
X1865703D1*
Y1642090D1*
X1858448Y1642100D1*
X1845408Y1629058D1*
X1845337Y1410899D1*
X1844836Y1407738D1*
X1843847Y1404693D1*
X1842394Y1401841D1*
X1840512Y1399251D1*
X1821747Y1380397D1*
X1805492Y1364142D1*
X1854043Y1364149D1*
X1873362Y1383462D1*
X1873351Y1483340D1*
X1862259Y1483320D1*
Y1541679D1*
X1871732D1*
X1870228Y1544265D1*
X1868643Y1548093D1*
X1867676Y1552121D1*
X1867351Y1556251D1*
X1867432Y1558314D1*
X1862259Y1558320D1*
Y1616680D1*
X1873802D1*
X1874349Y1618804D1*
X1875574Y1621761D1*
X1877247Y1624491D1*
X1879330Y1626929D1*
X1885720Y1633319D1*
X2217884Y1172929D2*
X2226051D1*
X2220830Y1178149D1*
X2148738Y1178155D1*
X2148751Y1120293D1*
X2152194Y1121700D1*
X2156070Y1122631D1*
X2160051Y1122943D1*
X2216899D1*
X2216884Y1172929D1*
X2217884D1*
X2238333Y841565D2*
Y689472D1*
X2264608Y715743D1*
X2264600Y860761D1*
X2250158Y846397D1*
X2247568Y844516D1*
X2244716Y843062D1*
X2241672Y842073D1*
X2238504Y841572D1*
X274980Y280000D2*
X98431Y280062D1*
X95331Y280552D1*
X92346Y281522D1*
X89550Y282947D1*
X87011Y284792D1*
X84792Y287011D1*
X82947Y289550D1*
X81522Y292346D1*
X80552Y295331D1*
X80062Y298431D1*
X80000Y325000D1*
X80062Y651569D1*
X80553Y654669D1*
X81522Y657654D1*
X82947Y660450D1*
X84792Y662989D1*
X103536Y681820D1*
X155008Y733292D1*
X155000Y916699D1*
X72292Y999511D1*
X70447Y1002050D1*
X69022Y1004846D1*
X68053Y1007831D1*
X67562Y1010931D1*
X67500Y1037500D1*
X67561Y1351569D1*
X68052Y1354669D1*
X69022Y1357654D1*
X70447Y1360450D1*
X72292Y1362989D1*
X74511Y1365208D1*
X77050Y1367053D1*
X79846Y1368478D1*
X82831Y1369448D1*
X85931Y1369939D1*
X112500Y1370000D1*
X176569Y1369939D1*
X179669Y1369448D1*
X182654Y1368478D1*
X185450Y1367053D1*
X187989Y1365208D1*
X190208Y1362989D1*
X192053Y1360450D1*
X193478Y1357654D1*
X194448Y1354669D1*
X194939Y1351569D1*
X195000Y1325000D1*
Y1315410D1*
X401208Y1315353D1*
X403595Y1314975D1*
X405893Y1314228D1*
X408047Y1313131D1*
X410002Y1311710D1*
X411710Y1310002D1*
X413131Y1308047D1*
X414228Y1305893D1*
X414975Y1303595D1*
X415353Y1301208D1*
X415400Y1250000D1*
Y940410D1*
X576208Y940353D1*
X578595Y939975D1*
X580893Y939228D1*
X583047Y938131D1*
X585002Y936710D1*
X586710Y935002D1*
X588131Y933047D1*
X589228Y930893D1*
X589975Y928595D1*
X590353Y926208D1*
X590400Y875000D1*
X590353Y298792D1*
X589975Y296405D1*
X589228Y294107D1*
X588131Y291953D1*
X586710Y289998D1*
X585002Y288290D1*
X583047Y286869D1*
X580893Y285772D1*
X578595Y285025D1*
X576208Y284647D1*
X525000Y284600D1*
X298792Y284647D1*
X296405Y285025D1*
X294107Y285772D1*
X291953Y286869D1*
X290944Y287544D1*
X287989Y284792D1*
X285450Y282947D1*
X282654Y281522D1*
X279669Y280552D1*
X276569Y280062D1*
X274994Y280000D1*
X739935Y2016929D2*
D14*
X775000D1*
X837500Y2034278D2*
Y2001181D1*
X866660D1*
X887500Y578963D2*
Y541929D1*
X922566D1*
X825000Y578963D2*
Y541929D1*
X789935D2*
X825000D1*
X1087500Y684278D2*
Y651181D1*
X1058340D2*
X1087500D1*
X1137500Y684278D2*
Y651181D1*
X1166660D1*
X1362500Y561319D2*
Y528222D1*
X1333340Y561319D2*
X1391660D1*
X762500Y1394908D2*
Y1305092D1*
X717592Y1350000D2*
X807408D1*
X872736Y1100814D2*
Y999186D1*
X825860Y1050000D2*
X919613D1*
X611319Y1900000D2*
Y1870840D1*
X578222Y1900000D2*
X611319D1*
X2600591Y836909D2*
Y803812D1*
X2550000Y836319D2*
Y803222D1*
X2187500Y1438681D2*
X2216660D1*
X2095840D2*
X2125000D1*
X2187500Y1338681D2*
X2216660D1*
X2073819Y966660D2*
Y937500D1*
X2040722D2*
X2073819D1*
X2075000Y637500D2*
Y604403D1*
X2045840Y637500D2*
X2104160D1*
X249016Y2226380D2*
Y2193283D1*
X219856D2*
X278176D1*
X903538Y756719D2*
Y643281D1*
X860599Y700000D2*
X946478D1*
X2060899Y2037402D2*
X2096949D1*
X1948399Y1924902D2*
X2020499D1*
X2096949Y1812402D2*
X2132999D1*
X2512500Y2028274D2*
Y1987303D1*
X2467592D2*
X2557408D1*
X232529Y1560214D2*
Y1352288D1*
X177778Y1456251D2*
X287279D1*
X350639Y1703915D2*
Y1594413D1*
X246676Y1649164D2*
X454602D1*
X2378225Y1066047D2*
X2422159D1*
X2378225Y1321953D2*
X2422159D1*
X2622749Y1399154D2*
Y1329004D1*
X2576357Y1364079D2*
X2669142D1*
X2401947Y1023921D2*
X2514418D1*
X2458182Y1399154D2*
Y1364079D1*
X2401947D2*
X2514418D1*
X2622749Y1058996D2*
Y1023921D1*
X2576357D2*
X2669142D1*
X1443751Y957408D2*
Y867592D1*
X1398843Y912500D2*
X1443751D1*
X2450000Y544908D2*
Y455092D1*
X2405092Y500000D2*
X2450000D1*
X2326921Y1802606D2*
Y1757698D1*
X2282013Y1802606D2*
X2326921D1*
X2361961Y2297317D2*
Y2148446D1*
X2287525Y2222882D2*
X2436396D1*
X2361961Y1657554D2*
Y1508683D1*
X2287525Y1583118D2*
X2436396D1*
X2350000Y544908D2*
Y455092D1*
X2305092Y500000D2*
X2394908D1*
X2350000Y444908D2*
Y355092D1*
X2305092Y400000D2*
X2394908D1*
X2350000Y344908D2*
Y255092D1*
X2305092Y300000D2*
X2394908D1*
X2350000Y244908D2*
Y155092D1*
X2305092Y200000D2*
X2394908D1*
X812000Y400908D2*
Y311092D1*
X767092Y356000D2*
X856908D1*
X1012000Y400908D2*
Y311092D1*
X967092Y356000D2*
X1056908D1*
X2050000Y544908D2*
Y455092D1*
X2005092Y500000D2*
X2094908D1*
X925000Y2031138D2*
Y2000000D1*
X884610D2*
X965390D1*
X1062500Y1321641D2*
Y1240861D1*
X1650000Y2031138D2*
Y2000000D1*
X1609610D2*
X1690390D1*
X1297391Y1826512D2*
Y1559512D1*
X1163891Y1693012D2*
X1430891D1*
X1249803Y162500D2*
Y126450D1*
X1221628Y162500D2*
X1277979D1*
X1449803D2*
Y126450D1*
X1421627Y162500D2*
X1477979D1*
X1649803D2*
Y126450D1*
X1621627Y162500D2*
X1677979D1*
X1087500Y723819D2*
Y690722D1*
Y723819D2*
X1116660D1*
X2250000Y1291660D2*
Y1233340D1*
X2216903Y1262500D2*
X2250000D1*
X2216903Y1143749D2*
X2250000D1*
X2187500Y1650000D2*
Y1616903D1*
Y1650000D2*
X2216660D1*
X662500Y1548353D2*
Y1462474D1*
X619561Y1505413D2*
X705440D1*
X583760Y1623156D2*
Y1537277D1*
Y1580217D2*
X626699D1*
X741240Y1780636D2*
Y1694757D1*
X698301Y1737697D2*
X784180D1*
X1200000Y562598D2*
X1237034D1*
X812966Y899902D2*
X887034D1*
X2420151Y861909D2*
X2470965D1*
X249508Y1919097D2*
Y1829281D1*
X192808Y1288131D2*
D15*
X395192D1*
X192808Y1280262D2*
X395192D1*
X192808Y1272394D2*
X395192D1*
X192808Y1264525D2*
X395192D1*
X192808Y1256656D2*
X395192D1*
X192808Y1248787D2*
X395192D1*
X192808Y1240919D2*
X395192D1*
X192808Y1233050D2*
X395192D1*
X192808Y1225181D2*
X395192D1*
X192808Y1217312D2*
X395192D1*
X192808Y1209444D2*
X395192D1*
X192808Y1201575D2*
X395192D1*
X192808Y1193706D2*
X395192D1*
X192808Y1185837D2*
X395192D1*
X192808Y1177969D2*
X395192D1*
X192808Y1170100D2*
X395192D1*
X192808Y1162231D2*
X395192D1*
X192808Y1154362D2*
X395192D1*
X192808Y1146493D2*
X395192D1*
X192808Y1138625D2*
X395192D1*
X192808Y1130756D2*
X395192D1*
X192808Y1122887D2*
X395192D1*
X192808Y1115018D2*
X395192D1*
X192808Y1107150D2*
X395192D1*
X192808Y1099281D2*
X395192D1*
X192808Y1091412D2*
X395192D1*
X192808Y1083543D2*
X395192D1*
X192808Y1075675D2*
X395192D1*
X192808Y1067806D2*
X395192D1*
X201027Y1059937D2*
X395192D1*
X210870Y1052068D2*
X395192D1*
X220698Y1044199D2*
X395192D1*
X230542Y1036331D2*
X395192D1*
X240370Y1028462D2*
X395192D1*
X250214Y1020593D2*
X395192D1*
X260042Y1012724D2*
X395192D1*
X269886Y1004856D2*
X395192D1*
X279714Y996987D2*
X395192D1*
X289558Y989118D2*
X395192D1*
X299386Y981249D2*
X395192D1*
X304808Y973381D2*
X395192D1*
X304808Y965512D2*
X395192D1*
X304808Y957643D2*
X395192D1*
X304808Y949774D2*
X395192D1*
X304808Y941906D2*
X395192D1*
X304808Y934037D2*
X395192D1*
X304808Y926168D2*
X395192D1*
X304808Y918299D2*
X570192D1*
X304808Y910430D2*
X570192D1*
X304808Y902562D2*
X570192D1*
X304808Y894693D2*
X570192D1*
X304808Y886824D2*
X570192D1*
X304808Y878955D2*
X570192D1*
X304808Y871087D2*
X449473D1*
X550527D2*
X570192D1*
X304808Y863218D2*
X449473D1*
X550527D2*
X570192D1*
X304808Y855349D2*
X449473D1*
X550527D2*
X570192D1*
X304808Y847480D2*
X449473D1*
X550527D2*
X570192D1*
X304808Y839612D2*
X449473D1*
X550527D2*
X570192D1*
X304808Y831743D2*
X449473D1*
X550527D2*
X570192D1*
X304808Y823874D2*
X449473D1*
X550527D2*
X570192D1*
X304808Y816005D2*
X449473D1*
X550527D2*
X570192D1*
X304808Y808136D2*
X449473D1*
X550527D2*
X570192D1*
X304808Y800268D2*
X449473D1*
X550527D2*
X570192D1*
X304808Y792399D2*
X449473D1*
X550527D2*
X570192D1*
X304808Y784530D2*
X449473D1*
X550527D2*
X570192D1*
X304808Y776661D2*
X449473D1*
X550527D2*
X570192D1*
X304808Y768793D2*
X570192D1*
X304808Y760924D2*
X570192D1*
X304808Y753055D2*
X570192D1*
X304808Y745186D2*
X570192D1*
X304808Y737318D2*
X570192D1*
X304808Y729449D2*
X570192D1*
X304808Y721580D2*
X570192D1*
X304808Y713711D2*
X570192D1*
X304808Y705843D2*
X570192D1*
X304808Y697974D2*
X570192D1*
X304808Y690105D2*
X570192D1*
X304808Y682236D2*
X570192D1*
X304808Y674367D2*
X570192D1*
X304808Y666499D2*
X570192D1*
X304808Y658630D2*
X570192D1*
X304808Y650761D2*
X570192D1*
X304808Y642892D2*
X570192D1*
X304808Y635024D2*
X570192D1*
X304808Y627155D2*
X570192D1*
X304808Y619286D2*
X570192D1*
X304808Y611417D2*
X570192D1*
X304808Y603549D2*
X570192D1*
X304808Y595680D2*
X570192D1*
X304808Y587811D2*
X570192D1*
X304808Y579942D2*
X570192D1*
X304808Y572073D2*
X570192D1*
X304808Y564205D2*
X570192D1*
X304808Y556336D2*
X570192D1*
X304808Y548467D2*
X570192D1*
X304808Y540598D2*
X570192D1*
X304808Y532730D2*
X570192D1*
X304808Y524861D2*
X570192D1*
X304808Y516992D2*
X570192D1*
X304808Y509123D2*
X570192D1*
X304808Y501255D2*
X570192D1*
X304808Y493386D2*
X570192D1*
X304808Y485517D2*
X570192D1*
X304808Y477648D2*
X570192D1*
X304808Y469780D2*
X570192D1*
X304808Y461911D2*
X570192D1*
X304808Y454042D2*
X570192D1*
X304808Y446173D2*
X570192D1*
X304808Y438304D2*
X570192D1*
X304808Y430436D2*
X570192D1*
X304808Y422567D2*
X331630D1*
X441214D2*
X570192D1*
X304808Y414698D2*
X324598D1*
X448261D2*
X570192D1*
X304808Y406829D2*
X324098D1*
X448761D2*
X570192D1*
X304808Y398961D2*
X324098D1*
X448761D2*
X570192D1*
X304808Y391092D2*
X324098D1*
X448761D2*
X570192D1*
X304808Y383223D2*
X324098D1*
X448761D2*
X570192D1*
X304808Y375354D2*
X324098D1*
X448761D2*
X570192D1*
X304808Y367486D2*
X324098D1*
X448761D2*
X570192D1*
X304808Y359617D2*
X324098D1*
X448761D2*
X570192D1*
X304808Y351748D2*
X324098D1*
X448761D2*
X570192D1*
X304808Y343879D2*
X324098D1*
X448761D2*
X570192D1*
X304808Y336010D2*
X324098D1*
X448761D2*
X570192D1*
X304808Y328142D2*
X324098D1*
X448761D2*
X570192D1*
X304808Y320273D2*
X324098D1*
X448761D2*
X570192D1*
X304808Y312404D2*
X324098D1*
X448745D2*
X570192D1*
X304808Y304535D2*
X327270D1*
X445589D2*
X570192D1*
X451079Y874721D2*
X549722D1*
Y775278D1*
X450279D1*
Y874721D1*
X451079D1*
X324892Y313587D2*
X324977Y412657D1*
X325488Y414998D1*
X326443Y417196D1*
X327805Y419167D1*
X329523Y420838D1*
X331531Y422145D1*
X333755Y423038D1*
X336109Y423483D1*
X344413Y423533D1*
X437082Y423448D1*
X439423Y422937D1*
X441621Y421982D1*
X443593Y420620D1*
X445263Y418903D1*
X446570Y416894D1*
X447463Y414670D1*
X447908Y412316D1*
X447958Y404013D1*
X447932Y311988D1*
X447545Y309623D1*
X446707Y307378D1*
X445451Y305338D1*
X444401Y304128D1*
X452000Y304000D1*
X570984D1*
X571000Y920984D1*
X399686Y921012D1*
X398469Y921304D1*
X397402Y921958D1*
X396589Y922910D1*
X396110Y924066D1*
X396000Y925001D1*
Y1295984D1*
X192016Y1296000D1*
X192000Y1066516D1*
X302957Y977694D1*
X303645Y976649D1*
X303976Y975442D1*
X304000Y811000D1*
Y304016D1*
X328578Y304000D1*
X327108Y305738D1*
X325935Y307827D1*
X325188Y310104D1*
X324896Y312483D1*
X324892Y313587D1*
X500000Y874706D2*
D20*
Y775294D1*
X450294Y825000D2*
X549706D1*
X386425Y423525D2*
D19*
Y362000D1*
X324900D2*
X447950D1*
D22*
X850000Y787500D3*
X798819D3*
D23*
X775000Y1950000D3*
Y2016929D3*
D24*
X837500Y1950000D3*
Y2001181D3*
D23*
X887500Y475000D3*
Y541929D3*
X825000Y475000D3*
Y541929D3*
D24*
X987500Y723819D3*
Y775000D3*
X1087500Y600000D3*
Y651181D3*
X1137500Y600000D3*
Y651181D3*
X1362500Y612500D3*
Y561319D3*
D25*
X762500Y1153150D3*
D26*
Y1350000D3*
D27*
Y1050000D3*
X872736D3*
D22*
X662500Y1900000D3*
X611319D3*
D24*
X2600591Y888091D3*
Y836909D3*
X2550000Y887500D3*
Y836319D3*
X2187500Y1387500D3*
Y1438681D3*
X2125000Y1387500D3*
Y1438681D3*
X2187500Y1287500D3*
Y1338681D3*
X2075000Y887500D3*
Y836319D3*
Y787500D3*
Y736319D3*
D22*
X2125000Y937500D3*
X2073819D3*
D24*
X2075000Y637500D3*
Y688681D3*
X249016Y2142102D3*
Y2193283D3*
D29*
X987500Y600000D3*
Y446462D3*
D30*
X500000Y825000D3*
D31*
Y1025000D3*
D33*
X700000Y1250000D3*
X546462D3*
X750000Y700000D3*
X903538D3*
D130*
X225000Y612500D3*
D34*
Y1229232D3*
D33*
X1712500Y487500D3*
X1866038D3*
D35*
X2512500Y1987303D3*
Y1912500D3*
D37*
X2187500Y2000000D3*
Y2074803D3*
X2096949Y2037402D3*
X2075000Y1887500D3*
Y1962303D3*
X1984449Y1924902D3*
X2187500Y1775000D3*
Y1849803D3*
X2096949Y1812402D3*
D38*
X468749Y1456251D3*
D39*
X232529D3*
D40*
X350639Y1649164D3*
D133*
X386425Y362000D3*
D41*
X189575D3*
D136*
X2422159Y1066047D3*
Y1097543D3*
D139*
Y1125102D3*
Y1144787D3*
Y1164472D3*
Y1184157D3*
Y1203843D3*
Y1223528D3*
Y1243213D3*
Y1262898D3*
D136*
Y1290457D3*
Y1321953D3*
D142*
X2622749Y1364079D3*
D145*
X2458182Y1023921D3*
Y1364079D3*
D142*
X2622749Y1023921D3*
D25*
X1643751Y1012500D3*
D26*
Y912500D3*
X1543751Y1012500D3*
Y912500D3*
X1443751Y1012500D3*
Y912500D3*
D25*
X2450000Y300000D3*
D26*
Y400000D3*
Y500000D3*
X2397000Y1762449D3*
X2326921Y1802606D3*
X2397000Y1842764D3*
X2326921Y1882921D3*
X2397000Y1923079D3*
X2326921Y1963236D3*
X2397000Y2003394D3*
X2326921Y2043551D3*
D43*
X2361961Y2222882D3*
Y1583118D3*
D25*
X2150000Y500000D3*
D26*
Y400000D3*
Y300000D3*
Y200000D3*
D25*
X2350000Y500000D3*
D26*
Y400000D3*
Y300000D3*
Y200000D3*
D25*
X812000Y356000D3*
D26*
X912000D3*
X1012000D3*
X1112000D3*
X1212000D3*
X1312000D3*
X1412000D3*
X1512000D3*
X1612000D3*
X1712000D3*
D25*
X2050000Y300000D3*
D26*
Y400000D3*
Y500000D3*
D25*
X2250000D3*
D26*
Y400000D3*
Y300000D3*
Y200000D3*
D44*
X700000Y587500D3*
Y481201D3*
D148*
X925000Y2000000D3*
Y1950000D3*
Y1900000D3*
Y1850000D3*
Y1800000D3*
Y1750000D3*
Y1700000D3*
Y1650000D3*
Y1600000D3*
Y1550000D3*
Y1500000D3*
Y1450000D3*
Y1400000D3*
Y1350000D3*
D151*
X1062500Y1281251D3*
X1112500D3*
X1162500D3*
X1212500D3*
X1262500D3*
X1312500D3*
X1362500D3*
X1412500D3*
X1462500D3*
X1512500D3*
D148*
X1650000Y1350000D3*
Y1400000D3*
Y1450000D3*
Y1500000D3*
Y1550000D3*
Y1600000D3*
Y1650000D3*
Y1700000D3*
Y1750000D3*
Y1800000D3*
Y1850000D3*
Y1900000D3*
Y1950000D3*
Y2000000D3*
D154*
X1297391Y1693012D3*
D37*
X2012500Y1737500D3*
Y1662697D3*
X2103051Y1700098D3*
X2012500Y1587500D3*
Y1512697D3*
X2103051Y1550098D3*
D46*
X1175000Y162500D3*
X1249803D3*
X1212402Y253051D3*
X1375000Y162500D3*
X1449803D3*
X1412402Y253051D3*
X1575000Y162500D3*
X1649803D3*
X1612402Y253051D3*
D24*
X712500Y1950000D3*
Y1898819D3*
X1037500Y775000D3*
Y723819D3*
D22*
X1199409Y463091D3*
X1250591D3*
D24*
X675000Y950000D3*
Y898819D3*
X1087500Y723819D3*
Y775000D3*
X1750000Y1343749D3*
Y1292568D3*
D22*
X1950000Y1662500D3*
X1898819D3*
X1900000Y1737500D3*
X1951181D3*
D24*
X2512500Y1837500D3*
Y1786319D3*
D22*
X1895375Y1587500D3*
X1946556D3*
X2250000Y1262500D3*
X2301181D3*
X2250000Y1143749D3*
X2301181D3*
X1946556Y1512500D3*
X1895375D3*
D24*
X2187500Y1650000D3*
Y1701181D3*
X912500Y262500D3*
Y211319D3*
X1112500Y262500D3*
Y211319D3*
D22*
X1176181Y100000D3*
X1125000D3*
X1376181D3*
X1325000D3*
X1576181D3*
X1525000D3*
D48*
X662500Y1812500D3*
Y1505413D3*
X583760Y1580217D3*
X741240Y1737697D3*
X662500Y381251D3*
Y74164D3*
X583760Y148967D3*
X741240Y306448D3*
D50*
X1200000Y600000D3*
Y562598D3*
Y525197D3*
X1306299D3*
Y600000D3*
X850000Y862500D3*
Y899902D3*
Y937303D3*
X743701D3*
Y899902D3*
Y862500D3*
D52*
X2112500Y1137500D3*
Y1157185D3*
Y1176870D3*
Y1196555D3*
Y1216240D3*
Y1235925D3*
Y1255610D3*
D53*
X2073130Y1294980D3*
X2053445D3*
X2033760D3*
X2014075D3*
X1994390D3*
X1974705D3*
X1955020D3*
D52*
X1915650Y1255610D3*
Y1235925D3*
Y1216240D3*
Y1196555D3*
Y1176870D3*
Y1157185D3*
Y1137500D3*
D53*
X1955020Y1098130D3*
X1974705D3*
X1994390D3*
X2014075D3*
X2033760D3*
X2053445D3*
X2073130D3*
D54*
X2014075Y1196555D3*
D55*
X2187500Y887500D3*
Y861909D3*
Y836319D3*
Y810728D3*
Y785138D3*
Y759547D3*
Y733957D3*
Y708366D3*
X2470965D3*
Y733957D3*
Y759547D3*
Y785138D3*
Y810728D3*
Y836319D3*
Y861909D3*
Y887500D3*
D56*
X186516Y2067102D3*
Y1874189D3*
X249508D3*
Y2067102D3*
X312500D3*
Y1874189D3*
M02*
