G04 DipTrace 3.3.1.3*
G04 TopPaste.gbr*
%MOIN*%
G04 #@! TF.FileFunction,Paste,Top*
G04 #@! TF.Part,Single*
%AMOUTLINE8*
4,1,4,
0.027543,0.010811,
0.027543,-0.010811,
-0.027543,-0.010811,
-0.027543,0.010811,
0.027543,0.010811,
0*%
%AMOUTLINE11*
4,1,4,
0.027543,0.004906,
0.027543,-0.004906,
-0.027543,-0.004906,
-0.027543,0.004906,
0.027543,0.004906,
0*%
%AMOUTLINE20*
4,1,4,
0.024,-0.014748,
-0.024,-0.014748,
-0.024,0.014748,
0.024,0.014748,
0.024,-0.014748,
0*%
%AMOUTLINE23*
4,1,4,
-0.014748,-0.024,
-0.014748,0.024,
0.014748,0.024,
0.014748,-0.024,
-0.014748,-0.024,
0*%
%AMOUTLINE26*
4,1,4,
0.11711,-0.11711,
-0.11711,-0.11711,
-0.11711,0.11711,
0.11711,0.11711,
0.11711,-0.11711,
0*%
%ADD72R,0.03737X0.057055*%
%ADD74R,0.068866X0.013748*%
%ADD76R,0.135795X0.135795*%
%ADD78O,0.009811X0.031465*%
%ADD80O,0.031465X0.009811*%
%ADD82R,0.041307X0.021622*%
%ADD84R,0.053118X0.053118*%
%ADD86R,0.023591X0.039339*%
%ADD88R,0.15548X0.049181*%
%ADD100R,0.039339X0.023591*%
%ADD102R,0.057055X0.049181*%
%ADD106R,0.053118X0.080677*%
%ADD112R,0.080677X0.053118*%
%ADD114R,0.060992X0.068866*%
%ADD120R,0.025559X0.033433*%
%ADD122R,0.03737X0.041307*%
%ADD124R,0.033433X0.025559*%
%ADD138OUTLINE8*%
%ADD141OUTLINE11*%
%ADD150OUTLINE20*%
%ADD153OUTLINE23*%
%ADD156OUTLINE26*%
%FSLAX26Y26*%
G04*
G70*
G90*
G75*
G01*
G04 TopPaste*
%LPD*%
D124*
X850000Y787500D3*
X798819D3*
D122*
X775000Y1950000D3*
Y2016929D3*
D120*
X837500Y1950000D3*
Y2001181D3*
D122*
X887500Y475000D3*
Y541929D3*
X825000Y475000D3*
Y541929D3*
D120*
X987500Y723819D3*
Y775000D3*
X1087500Y600000D3*
Y651181D3*
X1137500Y600000D3*
Y651181D3*
X1362500Y612500D3*
Y561319D3*
D114*
X762500Y1050000D3*
X872736D3*
D124*
X662500Y1900000D3*
X611319D3*
D120*
X2600591Y888091D3*
Y836909D3*
X2550000Y887500D3*
Y836319D3*
X2187500Y1387500D3*
Y1438681D3*
X2125000Y1387500D3*
Y1438681D3*
X2187500Y1287500D3*
Y1338681D3*
X2075000Y887500D3*
Y836319D3*
Y787500D3*
Y736319D3*
D124*
X2125000Y937500D3*
X2073819D3*
D120*
X2075000Y637500D3*
Y688681D3*
X249016Y2142102D3*
Y2193283D3*
D112*
X987500Y600000D3*
Y446462D3*
D106*
X700000Y1250000D3*
X546462D3*
X750000Y700000D3*
X903538D3*
X1712500Y487500D3*
X1866038D3*
D102*
X2512500Y1987303D3*
Y1912500D3*
D100*
X2187500Y2000000D3*
Y2074803D3*
X2096949Y2037402D3*
X2075000Y1887500D3*
Y1962303D3*
X1984449Y1924902D3*
X2187500Y1775000D3*
Y1849803D3*
X2096949Y1812402D3*
D138*
X2422159Y1066047D3*
Y1097543D3*
D141*
Y1125102D3*
Y1144787D3*
Y1164472D3*
Y1184157D3*
Y1203843D3*
Y1223528D3*
Y1243213D3*
Y1262898D3*
D138*
Y1290457D3*
Y1321953D3*
D88*
X700000Y587500D3*
Y481201D3*
D150*
X925000Y2000000D3*
Y1950000D3*
Y1900000D3*
Y1850000D3*
Y1800000D3*
Y1750000D3*
Y1700000D3*
Y1650000D3*
Y1600000D3*
Y1550000D3*
Y1500000D3*
Y1450000D3*
Y1400000D3*
Y1350000D3*
D153*
X1062500Y1281251D3*
X1112500D3*
X1162500D3*
X1212500D3*
X1262500D3*
X1312500D3*
X1362500D3*
X1412500D3*
X1462500D3*
X1512500D3*
D150*
X1650000Y1350000D3*
Y1400000D3*
Y1450000D3*
Y1500000D3*
Y1550000D3*
Y1600000D3*
Y1650000D3*
Y1700000D3*
Y1750000D3*
Y1800000D3*
Y1850000D3*
Y1900000D3*
Y1950000D3*
Y2000000D3*
D156*
X1297391Y1693012D3*
D100*
X2012500Y1737500D3*
Y1662697D3*
X2103051Y1700098D3*
X2012500Y1587500D3*
Y1512697D3*
X2103051Y1550098D3*
D86*
X1175000Y162500D3*
X1249803D3*
X1212402Y253051D3*
X1375000Y162500D3*
X1449803D3*
X1412402Y253051D3*
X1575000Y162500D3*
X1649803D3*
X1612402Y253051D3*
D120*
X712500Y1950000D3*
Y1898819D3*
X1037500Y775000D3*
Y723819D3*
D124*
X1199409Y463091D3*
X1250591D3*
D120*
X675000Y950000D3*
Y898819D3*
X1087500Y723819D3*
Y775000D3*
X1750000Y1343749D3*
Y1292568D3*
D124*
X1950000Y1662500D3*
X1898819D3*
X1900000Y1737500D3*
X1951181D3*
D120*
X2512500Y1837500D3*
Y1786319D3*
D124*
X1895375Y1587500D3*
X1946556D3*
X2250000Y1262500D3*
X2301181D3*
X2250000Y1143749D3*
X2301181D3*
X1946556Y1512500D3*
X1895375D3*
D120*
X2187500Y1650000D3*
Y1701181D3*
X912500Y262500D3*
Y211319D3*
X1112500Y262500D3*
Y211319D3*
D124*
X1176181Y100000D3*
X1125000D3*
X1376181D3*
X1325000D3*
X1576181D3*
X1525000D3*
D84*
X662500Y1812500D3*
Y1505413D3*
X583760Y1580217D3*
X741240Y1737697D3*
X662500Y381251D3*
Y74164D3*
X583760Y148967D3*
X741240Y306448D3*
D82*
X1200000Y600000D3*
Y562598D3*
Y525197D3*
X1306299D3*
Y600000D3*
X850000Y862500D3*
Y899902D3*
Y937303D3*
X743701D3*
Y899902D3*
Y862500D3*
D80*
X2112500Y1137500D3*
Y1157185D3*
Y1176870D3*
Y1196555D3*
Y1216240D3*
Y1235925D3*
Y1255610D3*
D78*
X2073130Y1294980D3*
X2053445D3*
X2033760D3*
X2014075D3*
X1994390D3*
X1974705D3*
X1955020D3*
D80*
X1915650Y1255610D3*
Y1235925D3*
Y1216240D3*
Y1196555D3*
Y1176870D3*
Y1157185D3*
Y1137500D3*
D78*
X1955020Y1098130D3*
X1974705D3*
X1994390D3*
X2014075D3*
X2033760D3*
X2053445D3*
X2073130D3*
D76*
X2014075Y1196555D3*
D74*
X2187500Y887500D3*
Y861909D3*
Y836319D3*
Y810728D3*
Y785138D3*
Y759547D3*
Y733957D3*
Y708366D3*
X2470965D3*
Y733957D3*
Y759547D3*
Y785138D3*
Y810728D3*
Y836319D3*
Y861909D3*
Y887500D3*
D72*
X186516Y2067102D3*
Y1874189D3*
X249508D3*
Y2067102D3*
X312500D3*
Y1874189D3*
M02*
