G04 DipTrace 3.3.1.3*
G04 TopSilk.gbr*
%MOIN*%
G04 #@! TF.FileFunction,Legend,Top*
G04 #@! TF.Part,Single*
%ADD10C,0.01*%
%ADD28C,0.023623*%
%ADD32C,0.023631*%
%ADD36C,0.015422*%
%ADD45C,0.015404*%
%ADD49C,0.015395*%
%ADD51C,0.011774*%
%ADD125C,0.004632*%
%ADD126C,0.015439*%
%ADD129C,0.00772*%
%FSLAX26Y26*%
G04*
G70*
G90*
G75*
G01*
G04 TopSilk*
%LPD*%
X813287Y1018535D2*
D10*
Y1081465D1*
X805839Y1018535D2*
Y1081465D1*
Y1018535D2*
X829398D1*
X805839Y1081465D2*
X829398D1*
X1044589Y609841D2*
Y436626D1*
X930414Y609841D2*
Y436626D1*
D28*
X987496Y649211D3*
X381496Y725000D2*
D10*
Y1125000D1*
X409067Y728200D2*
Y1121800D1*
X566535Y739800D2*
Y1110200D1*
X409437Y725000D2*
X381496D1*
X409437Y1125000D2*
X381496D1*
X481417Y736200D2*
Y767400D1*
Y885800D2*
Y964200D1*
Y1082600D2*
Y1113800D1*
X408327Y725000D2*
X565425Y739800D1*
X412953Y1125000D2*
X564130Y1110200D1*
X709841Y1192911D2*
X536626D1*
X709841Y1307086D2*
X536626D1*
D32*
X749211Y1250004D3*
X740159Y757089D2*
D10*
X913374D1*
X740159Y642914D2*
X913374D1*
D32*
X700789Y699996D3*
X337500Y758389D2*
D10*
Y1083344D1*
X112500Y758389D2*
Y1083344D1*
X337500Y758389D2*
X112500D1*
X337500Y1083344D2*
X112500D1*
X149985Y945801D2*
Y920866D1*
X300015D1*
Y895931D1*
X225000Y920866D2*
X175005Y1008393D1*
X274995D1*
X225000Y920866D1*
X274995Y833339D1*
X175005D1*
X225000Y920866D1*
Y833339D2*
Y683366D1*
Y1008393D2*
Y1158367D1*
X1702659Y544589D2*
X1875874D1*
X1702659Y430414D2*
X1875874D1*
D32*
X1663289Y487496D3*
X2486929Y2024684D2*
D10*
X2538071D1*
D36*
X2202209Y1969151D3*
X2152067Y1978352D2*
D10*
Y2096457D1*
X2132382D1*
Y1978352D1*
X2152067D1*
D36*
X2089709Y1856651D3*
X2039567Y1865852D2*
D10*
Y1983957D1*
X2019882D1*
Y1865852D1*
X2039567D1*
D36*
X2202209Y1744151D3*
X2152067Y1753352D2*
D10*
Y1871457D1*
X2132382D1*
Y1753352D1*
X2152067D1*
X508472Y519480D2*
X91150D1*
Y165150D1*
X508472D1*
Y519480D1*
G36*
X402013Y484756D2*
X370631D1*
Y516256D1*
X402013D1*
Y484756D1*
G37*
G36*
X205287D2*
X173863D1*
Y516256D1*
X205287D1*
Y484756D1*
G37*
X1585451Y1062500D2*
D10*
X1393751D1*
X1693751D2*
X1393751D1*
X1693751Y862500D2*
X1393751D1*
X1693751Y1062500D2*
Y862500D1*
X1393751Y1062500D2*
Y862500D1*
X2500000Y250000D2*
X2400000D1*
Y550000D1*
X2500000D2*
X2400000D1*
X2500000Y250000D2*
Y550000D1*
X2100000Y150000D2*
X2200000D1*
X2100000Y550000D2*
Y150000D1*
X2200000Y550000D2*
Y150000D1*
X2100000Y550000D2*
X2200000D1*
X2300000Y150000D2*
X2400000D1*
X2300000Y550000D2*
Y150000D1*
X2400000Y550000D2*
Y150000D1*
X2300000Y550000D2*
X2400000D1*
X2100000Y250000D2*
X2000000D1*
Y550000D1*
X2100000D2*
X2000000D1*
X2100000Y250000D2*
Y550000D1*
X2200000Y150000D2*
X2300000D1*
X2200000Y550000D2*
Y150000D1*
X2300000Y550000D2*
Y150000D1*
X2200000Y550000D2*
X2300000D1*
X925033Y2023542D2*
Y2304749D1*
X1649967D1*
Y2023542D1*
X925033D2*
X962465D1*
Y1317274D1*
X931232D1*
Y1279738D1*
X1037485D1*
Y1317274D1*
X1537515D1*
Y1286029D1*
X1649967D1*
Y1323460D1*
X1612535D1*
Y2023542D1*
X1649967D1*
D36*
X1997791Y1768349D3*
X2047933Y1759148D2*
D10*
Y1641043D1*
X2067618D1*
Y1759148D1*
X2047933D1*
D36*
X1997791Y1618349D3*
X2047933Y1609148D2*
D10*
Y1491043D1*
X2067618D1*
Y1609148D1*
X2047933D1*
D45*
X1144151Y147791D3*
X1153352Y197933D2*
D10*
X1271457D1*
Y217618D1*
X1153352D1*
Y197933D1*
D45*
X1344151Y147791D3*
X1353352Y197933D2*
D10*
X1471457D1*
Y217618D1*
X1353352D1*
Y197933D1*
D45*
X1544151Y147791D3*
X1553352Y197933D2*
D10*
X1671457D1*
Y217618D1*
X1553352D1*
Y197933D1*
D49*
X1183375Y626914D3*
X1237440Y621651D2*
D10*
Y503543D1*
X1268931Y621651D2*
Y503543D1*
X1237440D2*
X1268931D1*
X1237440Y621651D2*
X1268931D1*
D49*
X866625Y835586D3*
X812560Y840849D2*
D10*
Y958957D1*
X781069Y840849D2*
Y958957D1*
X812560D2*
X781069D1*
X812560Y840849D2*
X781069D1*
X1935309Y1098119D2*
X1915645D1*
Y1117810D1*
X1935309Y1294992D2*
X1915645D1*
Y1275300D2*
Y1294992D1*
X2112465D2*
X2092775D1*
X2112465Y1275300D2*
Y1294992D1*
D51*
X2141949Y1137491D3*
X2092775Y1098119D2*
D10*
X2112465Y1117810D1*
X2234732Y923917D2*
Y671949D1*
X2423732Y923917D2*
Y671949D1*
X2234732D2*
X2423732D1*
X2234732Y923917D2*
X2305598D1*
X2352866D2*
X2423732D1*
X2305598D2*
G03X2352866Y923917I23634J4353D01*
G01*
G36*
X324508Y2020636D2*
X299508D1*
X324508Y1995641D1*
Y2020636D1*
G37*
X349508Y2083150D2*
D10*
Y1858142D1*
X149508Y2083150D2*
Y1858142D1*
X751941Y800550D2*
D125*
X750515Y803402D1*
X747630Y806287D1*
X744778Y807713D1*
X739041D1*
X736156Y806287D1*
X733304Y803402D1*
X731845Y800550D1*
X730419Y796239D1*
Y789043D1*
X731845Y784765D1*
X733304Y781880D1*
X736156Y779028D1*
X739041Y777569D1*
X744778D1*
X747630Y779028D1*
X750515Y781880D1*
X751941Y784765D1*
X761204Y801943D2*
X764089Y803402D1*
X768400Y807680D1*
Y777569D1*
X768544Y1892046D2*
X765692Y1890620D1*
X762807Y1887735D1*
X761381Y1884883D1*
Y1879146D1*
X762807Y1876261D1*
X765692Y1873409D1*
X768544Y1871950D1*
X772855Y1870524D1*
X780051D1*
X784329Y1871950D1*
X787214Y1873409D1*
X790066Y1876261D1*
X791525Y1879146D1*
Y1884883D1*
X790066Y1887735D1*
X787214Y1890620D1*
X784329Y1892046D1*
X768577Y1902769D2*
X767151D1*
X764266Y1904194D1*
X762840Y1905620D1*
X761414Y1908505D1*
Y1914242D1*
X762840Y1917094D1*
X764266Y1918520D1*
X767151Y1919979D1*
X770003D1*
X772888Y1918520D1*
X777166Y1915668D1*
X791525Y1901309D1*
Y1921405D1*
X830700Y1896672D2*
X827848Y1895246D1*
X824963Y1892361D1*
X823537Y1889509D1*
Y1883772D1*
X824963Y1880887D1*
X827848Y1878035D1*
X830700Y1876576D1*
X835011Y1875150D1*
X842207D1*
X846485Y1876576D1*
X849370Y1878035D1*
X852222Y1880887D1*
X853681Y1883772D1*
Y1889509D1*
X852222Y1892361D1*
X849370Y1895246D1*
X846485Y1896672D1*
X823571Y1908820D2*
Y1924572D1*
X835044Y1915983D1*
Y1920294D1*
X836470Y1923146D1*
X837896Y1924572D1*
X842207Y1926031D1*
X845059D1*
X849370Y1924572D1*
X852255Y1921720D1*
X853681Y1917409D1*
Y1913098D1*
X852255Y1908820D1*
X850796Y1907394D1*
X847944Y1905935D1*
X881044Y597582D2*
X878192Y596156D1*
X875307Y593271D1*
X873881Y590419D1*
Y584682D1*
X875307Y581797D1*
X878192Y578945D1*
X881044Y577486D1*
X885355Y576060D1*
X892551D1*
X896829Y577486D1*
X899714Y578945D1*
X902566Y581797D1*
X904025Y584682D1*
Y590419D1*
X902566Y593271D1*
X899714Y596156D1*
X896829Y597582D1*
X904025Y621205D2*
X873914D1*
X893977Y606846D1*
Y628368D1*
X818544Y598295D2*
X815692Y596869D1*
X812807Y593984D1*
X811381Y591132D1*
Y585395D1*
X812807Y582510D1*
X815692Y579658D1*
X818544Y578199D1*
X822855Y576773D1*
X830051D1*
X834329Y578199D1*
X837214Y579658D1*
X840066Y582510D1*
X841525Y585395D1*
Y591132D1*
X840066Y593984D1*
X837214Y596869D1*
X834329Y598295D1*
X811414Y624770D2*
Y610444D1*
X824314Y609018D1*
X822888Y610444D1*
X821429Y614755D1*
Y619033D1*
X822888Y623344D1*
X825740Y626229D1*
X830051Y627655D1*
X832903D1*
X837214Y626229D1*
X840099Y623344D1*
X841525Y619033D1*
Y614755D1*
X840099Y610444D1*
X838640Y609018D1*
X835788Y607559D1*
X980699Y827470D2*
X977847Y826044D1*
X974962Y823159D1*
X973536Y820307D1*
Y814570D1*
X974962Y811685D1*
X977847Y808833D1*
X980699Y807374D1*
X985010Y805948D1*
X992206D1*
X996484Y807374D1*
X999369Y808833D1*
X1002221Y811685D1*
X1003680Y814570D1*
Y820307D1*
X1002221Y823159D1*
X999369Y826044D1*
X996484Y827470D1*
X977847Y853944D2*
X974995Y852518D1*
X973569Y848207D1*
Y845355D1*
X974995Y841044D1*
X979306Y838159D1*
X986469Y836733D1*
X993632D1*
X999369Y838159D1*
X1002254Y841044D1*
X1003680Y845355D1*
Y846781D1*
X1002254Y851059D1*
X999369Y853944D1*
X995058Y855370D1*
X993632D1*
X989321Y853944D1*
X986469Y851059D1*
X985043Y846781D1*
Y845355D1*
X986469Y841044D1*
X989321Y838159D1*
X993632Y836733D1*
X1080700Y540423D2*
X1077848Y538997D1*
X1074963Y536111D1*
X1073537Y533260D1*
Y527523D1*
X1074963Y524638D1*
X1077848Y521786D1*
X1080700Y520327D1*
X1085011Y518901D1*
X1092207D1*
X1096485Y520327D1*
X1099370Y521786D1*
X1102222Y524638D1*
X1103681Y527523D1*
Y533260D1*
X1102222Y536111D1*
X1099370Y538997D1*
X1096485Y540422D1*
X1103681Y555423D2*
X1073571Y569782D1*
Y549686D1*
X1124450Y540439D2*
X1121598Y539013D1*
X1118713Y536128D1*
X1117287Y533276D1*
Y527539D1*
X1118713Y524654D1*
X1121598Y521802D1*
X1124450Y520343D1*
X1128761Y518917D1*
X1135957D1*
X1140235Y520343D1*
X1143120Y521802D1*
X1145972Y524654D1*
X1147431Y527539D1*
Y533276D1*
X1145972Y536128D1*
X1143120Y539013D1*
X1140235Y540439D1*
X1117320Y556866D2*
X1118746Y552588D1*
X1121598Y551129D1*
X1124483D1*
X1127335Y552588D1*
X1128794Y555440D1*
X1130220Y561177D1*
X1131646Y565488D1*
X1134531Y568339D1*
X1137383Y569765D1*
X1141694D1*
X1144546Y568339D1*
X1146005Y566913D1*
X1147431Y562602D1*
Y556865D1*
X1146005Y552588D1*
X1144546Y551129D1*
X1141694Y549703D1*
X1137383D1*
X1134531Y551129D1*
X1131646Y554014D1*
X1130220Y558291D1*
X1128794Y564028D1*
X1127335Y566914D1*
X1124483Y568339D1*
X1121598D1*
X1118746Y566914D1*
X1117320Y562603D1*
Y556866D1*
X1399450Y583704D2*
X1396598Y582278D1*
X1393713Y579393D1*
X1392287Y576541D1*
Y570804D1*
X1393713Y567919D1*
X1396598Y565067D1*
X1399450Y563608D1*
X1403761Y562182D1*
X1410957D1*
X1415235Y563608D1*
X1418120Y565067D1*
X1420972Y567919D1*
X1422431Y570804D1*
Y576541D1*
X1420972Y579393D1*
X1418120Y582278D1*
X1415235Y583704D1*
X1402335Y611637D2*
X1406646Y610178D1*
X1409531Y607326D1*
X1410957Y603015D1*
Y601589D1*
X1409531Y597278D1*
X1406646Y594426D1*
X1402335Y592967D1*
X1400909D1*
X1396598Y594426D1*
X1393746Y597278D1*
X1392320Y601589D1*
Y603015D1*
X1393746Y607326D1*
X1396598Y610178D1*
X1402335Y611637D1*
X1409531D1*
X1416694Y610178D1*
X1421005Y607326D1*
X1422431Y603015D1*
Y600163D1*
X1421005Y595852D1*
X1418120Y594426D1*
X818170Y1122204D2*
X816744Y1125056D1*
X813859Y1127941D1*
X811007Y1129367D1*
X805270D1*
X802385Y1127941D1*
X799533Y1125056D1*
X798074Y1122204D1*
X796648Y1117893D1*
Y1110697D1*
X798074Y1106419D1*
X799533Y1103534D1*
X802385Y1100682D1*
X805270Y1099223D1*
X811007D1*
X813859Y1100682D1*
X816744Y1103534D1*
X818170Y1106419D1*
X827434Y1123597D2*
X830319Y1125056D1*
X834630Y1129334D1*
Y1099223D1*
X843893Y1123597D2*
X846778Y1125056D1*
X851089Y1129334D1*
Y1099223D1*
X624760Y1944301D2*
X623334Y1947153D1*
X620448Y1950038D1*
X617597Y1951464D1*
X611860D1*
X608975Y1950038D1*
X606123Y1947153D1*
X604664Y1944301D1*
X603238Y1939990D1*
Y1932794D1*
X604664Y1928516D1*
X606123Y1925631D1*
X608975Y1922779D1*
X611860Y1921320D1*
X617597D1*
X620448Y1922779D1*
X623334Y1925631D1*
X624760Y1928516D1*
X634023Y1945694D2*
X636908Y1947153D1*
X641219Y1951431D1*
Y1921320D1*
X651942Y1944268D2*
Y1945694D1*
X653368Y1948579D1*
X654794Y1950005D1*
X657679Y1951431D1*
X663416D1*
X666268Y1950005D1*
X667694Y1948579D1*
X669153Y1945694D1*
Y1942842D1*
X667694Y1939957D1*
X664842Y1935679D1*
X650483Y1921320D1*
X670579D1*
X2593791Y762851D2*
X2590939Y761426D1*
X2588054Y758540D1*
X2586628Y755689D1*
Y749952D1*
X2588054Y747067D1*
X2590939Y744215D1*
X2593791Y742756D1*
X2598102Y741330D1*
X2605298D1*
X2609576Y742756D1*
X2612461Y744215D1*
X2615313Y747067D1*
X2616772Y749952D1*
Y755689D1*
X2615313Y758540D1*
X2612461Y761425D1*
X2609576Y762851D1*
X2592398Y772115D2*
X2590939Y775000D1*
X2586661Y779311D1*
X2616772D1*
X2586661Y791460D2*
Y807211D1*
X2598135Y798623D1*
Y802934D1*
X2599561Y805786D1*
X2600987Y807211D1*
X2605298Y808671D1*
X2608150D1*
X2612461Y807211D1*
X2615346Y804360D1*
X2616772Y800049D1*
Y795738D1*
X2615346Y791460D1*
X2613887Y790034D1*
X2611035Y788575D1*
X2543199Y761548D2*
X2540347Y760122D1*
X2537462Y757237D1*
X2536036Y754385D1*
Y748648D1*
X2537462Y745763D1*
X2540347Y742911D1*
X2543199Y741452D1*
X2547510Y740026D1*
X2554706D1*
X2558984Y741452D1*
X2561869Y742911D1*
X2564721Y745763D1*
X2566180Y748648D1*
Y754385D1*
X2564721Y757237D1*
X2561869Y760122D1*
X2558984Y761548D1*
X2541806Y770811D2*
X2540347Y773697D1*
X2536069Y778008D1*
X2566180D1*
Y801630D2*
X2536069D1*
X2556132Y787271D1*
Y808793D1*
X2218200Y1400942D2*
X2215348Y1399516D1*
X2212463Y1396631D1*
X2211037Y1393779D1*
Y1388042D1*
X2212463Y1385157D1*
X2215348Y1382305D1*
X2218200Y1380846D1*
X2222511Y1379420D1*
X2229707D1*
X2233985Y1380846D1*
X2236870Y1382305D1*
X2239722Y1385157D1*
X2241181Y1388042D1*
Y1393779D1*
X2239722Y1396631D1*
X2236870Y1399516D1*
X2233985Y1400942D1*
X2216807Y1410206D2*
X2215348Y1413091D1*
X2211071Y1417402D1*
X2241181D1*
X2211071Y1443876D2*
Y1429550D1*
X2223970Y1428124D1*
X2222544Y1429550D1*
X2221085Y1433861D1*
Y1438139D1*
X2222544Y1442450D1*
X2225396Y1445335D1*
X2229707Y1446761D1*
X2232559D1*
X2236870Y1445335D1*
X2239755Y1442450D1*
X2241181Y1438139D1*
Y1433861D1*
X2239755Y1429550D1*
X2238296Y1428124D1*
X2235444Y1426665D1*
X2080699Y1401672D2*
X2077847Y1400246D1*
X2074962Y1397361D1*
X2073536Y1394509D1*
Y1388772D1*
X2074962Y1385887D1*
X2077847Y1383035D1*
X2080699Y1381576D1*
X2085010Y1380150D1*
X2092206D1*
X2096484Y1381576D1*
X2099369Y1383035D1*
X2102221Y1385887D1*
X2103680Y1388772D1*
Y1394509D1*
X2102221Y1397361D1*
X2099369Y1400246D1*
X2096484Y1401672D1*
X2079306Y1410935D2*
X2077847Y1413820D1*
X2073569Y1418131D1*
X2103680D1*
X2077847Y1444606D2*
X2074995Y1443180D1*
X2073569Y1438869D1*
Y1436017D1*
X2074995Y1431706D1*
X2079306Y1428821D1*
X2086469Y1427395D1*
X2093632D1*
X2099369Y1428821D1*
X2102254Y1431706D1*
X2103680Y1436017D1*
Y1437443D1*
X2102254Y1441721D1*
X2099369Y1444606D1*
X2095058Y1446032D1*
X2093632D1*
X2089321Y1444606D1*
X2086469Y1441721D1*
X2085043Y1437443D1*
Y1436017D1*
X2086469Y1431706D1*
X2089321Y1428821D1*
X2093632Y1427395D1*
X2136950Y1300942D2*
X2134098Y1299516D1*
X2131213Y1296631D1*
X2129787Y1293779D1*
Y1288042D1*
X2131213Y1285157D1*
X2134098Y1282305D1*
X2136950Y1280846D1*
X2141261Y1279420D1*
X2148457D1*
X2152735Y1280846D1*
X2155620Y1282305D1*
X2158472Y1285157D1*
X2159931Y1288042D1*
Y1293779D1*
X2158472Y1296631D1*
X2155620Y1299516D1*
X2152735Y1300942D1*
X2135557Y1310206D2*
X2134098Y1313091D1*
X2129820Y1317402D1*
X2159931D1*
Y1332402D2*
X2129820Y1346761D1*
Y1326665D1*
X2024450Y849778D2*
X2021598Y848352D1*
X2018713Y845466D1*
X2017287Y842615D1*
Y836878D1*
X2018713Y833993D1*
X2021598Y831141D1*
X2024450Y829682D1*
X2028761Y828256D1*
X2035957D1*
X2040235Y829682D1*
X2043120Y831141D1*
X2045972Y833993D1*
X2047431Y836878D1*
Y842615D1*
X2045972Y845466D1*
X2043120Y848352D1*
X2040235Y849777D1*
X2023057Y859041D2*
X2021598Y861926D1*
X2017320Y866237D1*
X2047431D1*
X2017320Y882664D2*
X2018746Y878386D1*
X2021598Y876927D1*
X2024483D1*
X2027335Y878386D1*
X2028794Y881238D1*
X2030220Y886975D1*
X2031646Y891286D1*
X2034531Y894138D1*
X2037383Y895563D1*
X2041694D1*
X2044546Y894137D1*
X2046005Y892712D1*
X2047431Y888401D1*
Y882664D1*
X2046005Y878386D1*
X2044546Y876927D1*
X2041694Y875501D1*
X2037383D1*
X2034531Y876927D1*
X2031646Y879812D1*
X2030220Y884090D1*
X2028794Y889826D1*
X2027335Y892712D1*
X2024483Y894138D1*
X2021598D1*
X2018746Y892712D1*
X2017320Y888401D1*
Y882664D1*
X2024450Y750474D2*
X2021598Y749048D1*
X2018713Y746163D1*
X2017287Y743311D1*
Y737574D1*
X2018713Y734689D1*
X2021598Y731837D1*
X2024450Y730378D1*
X2028761Y728952D1*
X2035957D1*
X2040235Y730378D1*
X2043120Y731837D1*
X2045972Y734689D1*
X2047431Y737574D1*
Y743311D1*
X2045972Y746163D1*
X2043120Y749048D1*
X2040235Y750474D1*
X2023057Y759737D2*
X2021598Y762622D1*
X2017320Y766934D1*
X2047431Y766933D1*
X2027335Y794867D2*
X2031646Y793408D1*
X2034531Y790556D1*
X2035957Y786245D1*
Y784819D1*
X2034531Y780508D1*
X2031646Y777656D1*
X2027335Y776197D1*
X2025909D1*
X2021598Y777656D1*
X2018746Y780508D1*
X2017320Y784819D1*
Y786245D1*
X2018746Y790556D1*
X2021598Y793408D1*
X2027335Y794867D1*
X2034531D1*
X2041694Y793408D1*
X2046005Y790556D1*
X2047431Y786245D1*
Y783393D1*
X2046005Y779082D1*
X2043120Y777656D1*
X2080811Y988050D2*
X2079385Y990902D1*
X2076500Y993787D1*
X2073648Y995213D1*
X2067911D1*
X2065026Y993787D1*
X2062174Y990902D1*
X2060715Y988050D1*
X2059289Y983739D1*
Y976543D1*
X2060715Y972265D1*
X2062174Y969380D1*
X2065026Y966528D1*
X2067911Y965069D1*
X2073648D1*
X2076500Y966528D1*
X2079385Y969380D1*
X2080811Y972265D1*
X2091534Y988017D2*
Y989443D1*
X2092959Y992328D1*
X2094385Y993754D1*
X2097271Y995180D1*
X2103007D1*
X2105859Y993754D1*
X2107285Y992328D1*
X2108744Y989443D1*
Y986591D1*
X2107285Y983706D1*
X2104433Y979428D1*
X2090074Y965069D1*
X2110170D1*
X2128056Y995180D2*
X2123745Y993754D1*
X2120860Y989443D1*
X2119434Y982280D1*
Y977969D1*
X2120860Y970806D1*
X2123745Y966495D1*
X2128056Y965069D1*
X2130908D1*
X2135219Y966495D1*
X2138071Y970806D1*
X2139530Y977969D1*
Y982280D1*
X2138071Y989443D1*
X2135219Y993754D1*
X2130908Y995180D1*
X2128056D1*
X2138071Y989443D2*
X2120860Y970806D1*
X2024450Y650942D2*
X2021598Y649516D1*
X2018713Y646631D1*
X2017287Y643779D1*
Y638042D1*
X2018713Y635157D1*
X2021598Y632305D1*
X2024450Y630846D1*
X2028761Y629420D1*
X2035957D1*
X2040235Y630846D1*
X2043120Y632305D1*
X2045972Y635157D1*
X2047431Y638042D1*
Y643779D1*
X2045972Y646631D1*
X2043120Y649516D1*
X2040235Y650942D1*
X2024483Y661665D2*
X2023057D1*
X2020172Y663091D1*
X2018746Y664517D1*
X2017320Y667402D1*
Y673139D1*
X2018746Y675991D1*
X2020172Y677416D1*
X2023057Y678876D1*
X2025909D1*
X2028794Y677416D1*
X2033072Y674565D1*
X2047431Y660205D1*
Y680301D1*
X2023057Y689565D2*
X2021598Y692450D1*
X2017320Y696761D1*
X2047431D1*
X279715Y2149094D2*
X276863Y2147668D1*
X273978Y2144783D1*
X272552Y2141932D1*
Y2136195D1*
X273978Y2133309D1*
X276863Y2130458D1*
X279715Y2128998D1*
X284026Y2127573D1*
X291222D1*
X295500Y2128998D1*
X298385Y2130458D1*
X301237Y2133309D1*
X302696Y2136195D1*
Y2141931D1*
X301237Y2144783D1*
X298385Y2147668D1*
X295500Y2149094D1*
X279748Y2159817D2*
X278322D1*
X275437Y2161243D1*
X274011Y2162669D1*
X272585Y2165554D1*
Y2171291D1*
X274011Y2174143D1*
X275437Y2175569D1*
X278322Y2177028D1*
X281174D1*
X284059Y2175569D1*
X288337Y2172717D1*
X302696Y2158358D1*
Y2178454D1*
X279748Y2189177D2*
X278322D1*
X275437Y2190603D1*
X274011Y2192028D1*
X272585Y2194914D1*
Y2200651D1*
X274011Y2203502D1*
X275437Y2204928D1*
X278322Y2206388D1*
X281174D1*
X284059Y2204928D1*
X288337Y2202076D1*
X302696Y2187717D1*
Y2207813D1*
X1062316Y430249D2*
X1092460D1*
Y440297D1*
X1091001Y444608D1*
X1088149Y447493D1*
X1085264Y448919D1*
X1080986Y450345D1*
X1073790D1*
X1069479Y448919D1*
X1066627Y447493D1*
X1063742Y444608D1*
X1062316Y440297D1*
Y430249D1*
X1068086Y459608D2*
X1066627Y462493D1*
X1062349Y466804D1*
X1092460D1*
X449288Y1168934D2*
Y1138790D1*
X459336D1*
X463647Y1140249D1*
X466532Y1143101D1*
X467958Y1145986D1*
X469384Y1150264D1*
Y1157460D1*
X467958Y1161771D1*
X466532Y1164623D1*
X463647Y1167508D1*
X459336Y1168934D1*
X449288D1*
X480107Y1161738D2*
Y1163164D1*
X481533Y1166049D1*
X482959Y1167475D1*
X485844Y1168901D1*
X491581D1*
X494433Y1167475D1*
X495858Y1166049D1*
X497318Y1163164D1*
Y1160312D1*
X495858Y1157427D1*
X493007Y1153149D1*
X478648Y1138790D1*
X498744D1*
X615237Y1351020D2*
Y1320876D1*
X625285D1*
X629596Y1322335D1*
X632481Y1325187D1*
X633907Y1328072D1*
X635333Y1332350D1*
Y1339546D1*
X633907Y1343857D1*
X632481Y1346709D1*
X629596Y1349594D1*
X625285Y1351020D1*
X615237D1*
X647481Y1350987D2*
X663233D1*
X654644Y1339513D1*
X658955D1*
X661807Y1338087D1*
X663233Y1336661D1*
X664692Y1332350D1*
Y1329498D1*
X663233Y1325187D1*
X660381Y1322302D1*
X656070Y1320876D1*
X651759D1*
X647481Y1322302D1*
X646055Y1323761D1*
X644596Y1326613D1*
X634595Y713522D2*
Y683378D1*
X644643D1*
X648954Y684838D1*
X651839Y687689D1*
X653265Y690575D1*
X654691Y694852D1*
Y702048D1*
X653265Y706359D1*
X651839Y709211D1*
X648954Y712096D1*
X644643Y713522D1*
X634595D1*
X678313Y683378D2*
Y713489D1*
X663954Y693426D1*
X685476D1*
X56522Y1003284D2*
Y973140D1*
X66570D1*
X70881Y974599D1*
X73766Y977451D1*
X75192Y980336D1*
X76618Y984614D1*
Y991810D1*
X75192Y996121D1*
X73766Y998973D1*
X70881Y1001858D1*
X66570Y1003284D1*
X56522D1*
X103092Y1003251D2*
X88766D1*
X87340Y990351D1*
X88766Y991777D1*
X93077Y993236D1*
X97355D1*
X101666Y991777D1*
X104551Y988925D1*
X105977Y984614D1*
Y981762D1*
X104551Y977451D1*
X101666Y974566D1*
X97355Y973140D1*
X93077D1*
X88766Y974566D1*
X87340Y976025D1*
X85881Y978877D1*
X1767288Y588522D2*
Y558378D1*
X1777336D1*
X1781647Y559838D1*
X1784532Y562689D1*
X1785958Y565575D1*
X1787384Y569852D1*
Y577048D1*
X1785958Y581359D1*
X1784532Y584211D1*
X1781647Y587096D1*
X1777336Y588522D1*
X1767288D1*
X1813858Y584211D2*
X1812432Y587063D1*
X1808121Y588489D1*
X1805269D1*
X1800958Y587063D1*
X1798073Y582752D1*
X1796647Y575589D1*
Y568426D1*
X1798073Y562689D1*
X1800958Y559804D1*
X1805269Y558378D1*
X1806695D1*
X1810973Y559804D1*
X1813858Y562689D1*
X1815284Y567000D1*
Y568426D1*
X1813858Y572737D1*
X1810973Y575589D1*
X1806695Y577015D1*
X1805269D1*
X1800958Y575589D1*
X1798073Y572737D1*
X1796647Y568426D1*
X2439039Y1931069D2*
X2469183D1*
Y1941117D1*
X2467724Y1945428D1*
X2464872Y1948313D1*
X2461987Y1949739D1*
X2457709Y1951165D1*
X2450513D1*
X2446202Y1949739D1*
X2443350Y1948313D1*
X2440465Y1945428D1*
X2439039Y1941117D1*
Y1931069D1*
X2469183Y1966165D2*
X2439072Y1980524D1*
Y1960428D1*
X2118389Y2140391D2*
Y2110247D1*
X2128437D1*
X2132748Y2111706D1*
X2135633Y2114558D1*
X2137059Y2117443D1*
X2138485Y2121720D1*
Y2128917D1*
X2137059Y2133228D1*
X2135633Y2136080D1*
X2132748Y2138965D1*
X2128437Y2140391D1*
X2118389D1*
X2154911Y2140357D2*
X2150633Y2138931D1*
X2149174Y2136080D1*
Y2133194D1*
X2150633Y2130343D1*
X2153485Y2128883D1*
X2159222Y2127457D1*
X2163533Y2126032D1*
X2166385Y2123146D1*
X2167811Y2120295D1*
Y2115984D1*
X2166385Y2113132D1*
X2164959Y2111672D1*
X2160648Y2110247D1*
X2154911D1*
X2150633Y2111672D1*
X2149174Y2113132D1*
X2147748Y2115984D1*
Y2120295D1*
X2149174Y2123146D1*
X2152059Y2126032D1*
X2156337Y2127457D1*
X2162074Y2128883D1*
X2164959Y2130343D1*
X2166385Y2133194D1*
Y2136080D1*
X2164959Y2138931D1*
X2160648Y2140357D1*
X2154911D1*
X2006585Y2027891D2*
Y1997747D1*
X2016633D1*
X2020944Y1999206D1*
X2023829Y2002058D1*
X2025255Y2004943D1*
X2026681Y2009220D1*
Y2016417D1*
X2025255Y2020728D1*
X2023829Y2023580D1*
X2020944Y2026465D1*
X2016633Y2027891D1*
X2006585D1*
X2054615Y2017843D2*
X2053155Y2013532D1*
X2050304Y2010646D1*
X2045992Y2009220D1*
X2044567D1*
X2040256Y2010646D1*
X2037404Y2013532D1*
X2035944Y2017843D1*
Y2019268D1*
X2037404Y2023580D1*
X2040256Y2026431D1*
X2044567Y2027857D1*
X2045992D1*
X2050304Y2026431D1*
X2053155Y2023580D1*
X2054615Y2017843D1*
Y2010646D1*
X2053155Y2003484D1*
X2050304Y1999172D1*
X2045992Y1997747D1*
X2043141D1*
X2038830Y1999172D1*
X2037404Y2002058D1*
X2110142Y1921641D2*
Y1891497D1*
X2120190D1*
X2124501Y1892956D1*
X2127386Y1895808D1*
X2128812Y1898693D1*
X2130238Y1902971D1*
Y1910167D1*
X2128812Y1914478D1*
X2127386Y1917330D1*
X2124501Y1920215D1*
X2120190Y1921641D1*
X2110142D1*
X2139502Y1915871D2*
X2142387Y1917330D1*
X2146698Y1921608D1*
Y1891497D1*
X2164583Y1921608D2*
X2160272Y1920182D1*
X2157387Y1915871D1*
X2155961Y1908708D1*
Y1904397D1*
X2157387Y1897234D1*
X2160272Y1892923D1*
X2164583Y1891497D1*
X2167435D1*
X2171746Y1892923D1*
X2174598Y1897234D1*
X2176057Y1904397D1*
Y1908708D1*
X2174598Y1915871D1*
X2171746Y1920182D1*
X2167435Y1921608D1*
X2164583D1*
X2174598Y1915871D2*
X2157387Y1897234D1*
X317311Y563414D2*
Y540466D1*
X315885Y536155D1*
X314426Y534729D1*
X311574Y533270D1*
X308689D1*
X305837Y534729D1*
X304411Y536155D1*
X302952Y540466D1*
Y543318D1*
X328033Y556218D2*
Y557644D1*
X329459Y560529D1*
X330885Y561955D1*
X333770Y563381D1*
X339507D1*
X342359Y561955D1*
X343785Y560529D1*
X345244Y557644D1*
Y554792D1*
X343785Y551907D1*
X340933Y547629D1*
X326574Y533270D1*
X346670D1*
X156031Y150663D2*
X153179Y153548D1*
X148868Y154974D1*
X143131D1*
X138820Y153548D1*
X135935Y150663D1*
Y147811D1*
X137394Y144926D1*
X138820Y143500D1*
X141672Y142074D1*
X150294Y139189D1*
X153179Y137763D1*
X154605Y136304D1*
X156031Y133452D1*
Y129141D1*
X153179Y126290D1*
X148868Y124830D1*
X143131D1*
X138820Y126290D1*
X135935Y129141D1*
X183931Y154974D2*
X165295D1*
Y124830D1*
X183931D1*
X165295Y140615D2*
X176768D1*
X193195D2*
X206095D1*
X210406Y142074D1*
X211865Y143500D1*
X213291Y146352D1*
Y149237D1*
X211865Y152089D1*
X210406Y153548D1*
X206095Y154974D1*
X193195D1*
Y124830D1*
X203243Y140615D2*
X213291Y124830D1*
X222555Y154974D2*
X234028Y124830D1*
X245502Y154974D1*
X263388D2*
X260503Y153548D1*
X257651Y150663D1*
X256192Y147811D1*
X254766Y143500D1*
Y136304D1*
X256192Y132026D1*
X257651Y129141D1*
X260503Y126290D1*
X263388Y124830D1*
X269125D1*
X271977Y126290D1*
X274862Y129141D1*
X276288Y132026D1*
X277714Y136304D1*
Y143500D1*
X276288Y147811D1*
X274862Y150663D1*
X271977Y153548D1*
X269125Y154974D1*
X263388D1*
X316138Y139189D2*
X329071D1*
X333349Y140615D1*
X334808Y142074D1*
X336234Y144926D1*
Y149237D1*
X334808Y152089D1*
X333349Y153548D1*
X329071Y154974D1*
X316138D1*
Y124830D1*
X354120Y154974D2*
X351235Y153548D1*
X348383Y150663D1*
X346924Y147811D1*
X345498Y143500D1*
Y136304D1*
X346924Y132026D1*
X348383Y129141D1*
X351235Y126290D1*
X354120Y124830D1*
X359857D1*
X362709Y126290D1*
X365594Y129141D1*
X367020Y132026D1*
X368445Y136304D1*
Y143500D1*
X367020Y147811D1*
X365594Y150663D1*
X362709Y153548D1*
X359857Y154974D1*
X354120D1*
X377709D2*
X384905Y124830D1*
X392068Y154974D1*
X399231Y124830D1*
X406427Y154974D1*
X434328D2*
X415691D1*
Y124830D1*
X434328D1*
X415691Y140615D2*
X427165D1*
X443591D2*
X456491D1*
X460802Y142074D1*
X462261Y143500D1*
X463687Y146352D1*
Y149237D1*
X462261Y152089D1*
X460802Y153548D1*
X456491Y154974D1*
X443591D1*
Y124830D1*
X453639Y140615D2*
X463687Y124830D1*
X2664362Y983946D2*
Y960998D1*
X2662936Y956687D1*
X2661477Y955261D1*
X2658625Y953802D1*
X2655740D1*
X2652888Y955261D1*
X2651462Y956687D1*
X2650003Y960998D1*
Y963850D1*
X2676511Y983912D2*
X2692262D1*
X2683673Y972439D1*
X2687985D1*
X2690836Y971013D1*
X2692262Y969587D1*
X2693721Y965276D1*
Y962424D1*
X2692262Y958113D1*
X2689410Y955228D1*
X2685099Y953802D1*
X2680788D1*
X2676511Y955228D1*
X2675085Y956687D1*
X2673625Y959539D1*
X1535537Y1106434D2*
Y1083486D1*
X1534111Y1079175D1*
X1532652Y1077749D1*
X1529800Y1076290D1*
X1526915D1*
X1524063Y1077749D1*
X1522638Y1079175D1*
X1521178Y1083486D1*
Y1086338D1*
X1559160Y1076290D2*
Y1106401D1*
X1544801Y1086338D1*
X1566323D1*
X1403519Y852325D2*
X1384882D1*
Y822181D1*
X1403519D1*
X1384882Y837966D2*
X1396356D1*
X1432878Y848014D2*
X1430027Y850899D1*
X1425716Y852325D1*
X1419979D1*
X1415668Y850899D1*
X1412782Y848014D1*
Y845162D1*
X1414242Y842277D1*
X1415668Y840851D1*
X1418519Y839425D1*
X1427141Y836540D1*
X1430027Y835114D1*
X1431453Y833655D1*
X1432878Y830803D1*
Y826492D1*
X1430027Y823640D1*
X1425716Y822181D1*
X1419979D1*
X1415668Y823640D1*
X1412782Y826492D1*
X1442142Y836540D2*
X1455075D1*
X1459353Y837966D1*
X1460812Y839425D1*
X1462238Y842277D1*
Y846588D1*
X1460812Y849440D1*
X1459353Y850899D1*
X1455075Y852325D1*
X1442142D1*
Y822181D1*
X1500662Y836540D2*
X1513595D1*
X1517873Y837966D1*
X1519332Y839425D1*
X1520758Y842277D1*
Y846588D1*
X1519332Y849440D1*
X1517873Y850899D1*
X1513595Y852325D1*
X1500662D1*
Y822181D1*
X1530022Y837966D2*
X1542922D1*
X1547233Y839425D1*
X1548692Y840851D1*
X1550118Y843703D1*
Y846588D1*
X1548692Y849440D1*
X1547233Y850899D1*
X1542922Y852325D1*
X1530022D1*
Y822181D1*
X1540070Y837966D2*
X1550118Y822181D1*
X1568003Y852325D2*
X1565118Y850899D1*
X1562266Y848014D1*
X1560807Y845162D1*
X1559381Y840851D1*
Y833655D1*
X1560807Y829377D1*
X1562266Y826492D1*
X1565118Y823640D1*
X1568003Y822181D1*
X1573740D1*
X1576592Y823640D1*
X1579477Y826492D1*
X1580903Y829377D1*
X1582329Y833655D1*
Y840851D1*
X1580903Y845162D1*
X1579477Y848014D1*
X1576592Y850899D1*
X1573740Y852325D1*
X1568003D1*
X1613115Y845162D2*
X1611689Y848014D1*
X1608804Y850899D1*
X1605952Y852325D1*
X1600215D1*
X1597330Y850899D1*
X1594478Y848014D1*
X1593019Y845162D1*
X1591593Y840851D1*
Y833655D1*
X1593019Y829377D1*
X1594478Y826492D1*
X1597330Y823640D1*
X1600215Y822181D1*
X1605952D1*
X1608804Y823640D1*
X1611689Y826492D1*
X1613115Y829377D1*
Y833655D1*
X1605952D1*
X1622378Y822181D2*
X1642474Y852292D1*
X1671834Y852325D2*
Y822181D1*
X1651738Y852325D1*
Y822181D1*
X1702619Y845162D2*
X1701193Y848014D1*
X1698308Y850899D1*
X1695456Y852325D1*
X1689719D1*
X1686834Y850899D1*
X1683982Y848014D1*
X1682523Y845162D1*
X1681097Y840851D1*
Y833655D1*
X1682523Y829377D1*
X1683982Y826492D1*
X1686834Y823640D1*
X1689719Y822181D1*
X1695456D1*
X1698308Y823640D1*
X1701193Y826492D1*
X1702619Y829377D1*
X2442500Y593934D2*
Y570986D1*
X2441074Y566675D1*
X2439615Y565249D1*
X2436763Y563790D1*
X2433878D1*
X2431026Y565249D1*
X2429600Y566675D1*
X2428141Y570986D1*
Y573838D1*
X2468974Y593901D2*
X2454648D1*
X2453222Y581001D1*
X2454648Y582427D1*
X2458959Y583886D1*
X2463237D1*
X2467548Y582427D1*
X2470433Y579575D1*
X2471859Y575264D1*
Y572412D1*
X2470433Y568101D1*
X2467548Y565216D1*
X2463237Y563790D1*
X2458959D1*
X2454648Y565216D1*
X2453222Y566675D1*
X2451763Y569527D1*
X2451675Y49982D2*
Y62882D1*
X2450215Y67193D1*
X2448790Y68652D1*
X2445938Y70078D1*
X2443053D1*
X2440201Y68652D1*
X2438741Y67193D1*
X2437316Y62882D1*
X2437315Y49982D1*
X2467460D1*
X2451675Y60030D2*
X2467460Y70078D1*
X2441627Y99438D2*
X2438742Y96586D1*
X2437316Y92275D1*
Y86538D1*
X2438742Y82227D1*
X2441627Y79342D1*
X2444478D1*
X2447364Y80801D1*
X2448790Y82227D1*
X2450215Y85079D1*
X2453101Y93701D1*
X2454526Y96586D1*
X2455986Y98012D1*
X2458838Y99438D1*
X2463149D1*
X2466000Y96586D1*
X2467460Y92275D1*
Y86538D1*
X2466000Y82227D1*
X2463149Y79342D1*
X2444512Y110160D2*
X2443086D1*
X2440201Y111586D1*
X2438775Y113012D1*
X2437349Y115897D1*
Y121634D1*
X2438775Y124486D1*
X2440201Y125912D1*
X2443086Y127371D1*
X2445938D1*
X2448823Y125912D1*
X2453101Y123060D1*
X2467460Y108701D1*
Y128797D1*
X2437349Y140946D2*
Y156698D1*
X2448823Y148109D1*
Y152420D1*
X2450249Y155272D1*
X2451675Y156698D1*
X2455986Y158157D1*
X2458837D1*
X2463148Y156698D1*
X2466034Y153846D1*
X2467460Y149535D1*
Y145224D1*
X2466034Y140946D1*
X2464574Y139520D1*
X2461723Y138061D1*
X2444512Y168880D2*
X2443086D1*
X2440201Y170306D1*
X2438775Y171731D1*
X2437349Y174617D1*
Y180354D1*
X2438775Y183205D1*
X2440201Y184631D1*
X2443086Y186091D1*
X2445938Y186090D1*
X2448823Y184631D1*
X2453101Y181779D1*
X2467460Y167420D1*
Y187516D1*
X2142500Y593934D2*
Y570986D1*
X2141074Y566675D1*
X2139615Y565249D1*
X2136763Y563790D1*
X2133878D1*
X2131026Y565249D1*
X2129600Y566675D1*
X2128141Y570986D1*
Y573838D1*
X2157500Y563790D2*
X2171859Y593901D1*
X2151763D1*
X2143599Y49552D2*
Y65303D1*
X2155073Y56715D1*
Y61026D1*
X2156499Y63878D1*
X2157925Y65303D1*
X2162236Y66763D1*
X2165088D1*
X2169399Y65303D1*
X2172284Y62452D1*
X2173710Y58141D1*
Y53830D1*
X2172284Y49552D1*
X2170825Y48126D1*
X2167973Y46667D1*
X2143566Y76026D2*
X2173710Y87500D1*
X2143566Y98974D1*
X2143599Y111123D2*
Y126874D1*
X2155073Y118286D1*
Y122597D1*
X2156499Y125448D1*
X2157925Y126874D1*
X2162236Y128334D1*
X2165088D1*
X2169399Y126874D1*
X2172284Y124022D1*
X2173710Y119711D1*
Y115400D1*
X2172284Y111123D1*
X2170825Y109697D1*
X2167973Y108238D1*
X2342516Y593934D2*
Y570986D1*
X2341090Y566675D1*
X2339631Y565249D1*
X2336779Y563790D1*
X2333894D1*
X2331042Y565249D1*
X2329616Y566675D1*
X2328157Y570986D1*
Y573838D1*
X2358943Y593901D2*
X2354665Y592475D1*
X2353206Y589623D1*
Y586738D1*
X2354665Y583886D1*
X2357517Y582427D1*
X2363254Y581001D1*
X2367565Y579575D1*
X2370417Y576690D1*
X2371843Y573838D1*
Y569527D1*
X2370417Y566675D1*
X2368991Y565216D1*
X2364680Y563790D1*
X2358943D1*
X2354665Y565216D1*
X2353206Y566675D1*
X2351780Y569527D1*
Y573838D1*
X2353206Y576690D1*
X2356091Y579575D1*
X2360369Y581001D1*
X2366106Y582427D1*
X2368991Y583886D1*
X2370417Y586738D1*
Y589623D1*
X2368991Y592475D1*
X2364680Y593901D1*
X2358943D1*
X2338229Y68902D2*
X2335377Y67476D1*
X2332492Y64591D1*
X2331066Y61739D1*
Y56002D1*
X2332492Y53117D1*
X2335377Y50265D1*
X2338229Y48806D1*
X2342540Y47380D1*
X2349736D1*
X2354014Y48806D1*
X2356899Y50265D1*
X2359751Y53117D1*
X2361210Y56002D1*
Y61739D1*
X2359751Y64590D1*
X2356899Y67476D1*
X2354014Y68901D1*
X2349736D1*
Y61739D1*
X2331066Y98261D2*
X2361210D1*
X2331066Y78165D1*
X2361210D1*
X2331066Y107525D2*
X2361210D1*
Y117573D1*
X2359751Y121884D1*
X2356899Y124769D1*
X2354014Y126195D1*
X2349736Y127621D1*
X2342540D1*
X2338229Y126195D1*
X2335377Y124769D1*
X2332492Y121884D1*
X2331066Y117573D1*
Y107525D1*
X2034270Y593934D2*
Y570986D1*
X2032844Y566675D1*
X2031385Y565249D1*
X2028533Y563790D1*
X2025648D1*
X2022796Y565249D1*
X2021370Y566675D1*
X2019911Y570986D1*
Y573838D1*
X2043533Y588164D2*
X2046419Y589623D1*
X2050730Y593901D1*
Y563790D1*
X2068615Y593901D2*
X2064304Y592475D1*
X2061419Y588164D1*
X2059993Y581001D1*
Y576690D1*
X2061419Y569527D1*
X2064304Y565216D1*
X2068615Y563790D1*
X2071467D1*
X2075778Y565216D1*
X2078630Y569527D1*
X2080089Y576690D1*
Y581001D1*
X2078630Y588164D1*
X2075778Y592475D1*
X2071467Y593901D1*
X2068615D1*
X2078630Y588164D2*
X2061419Y569527D1*
X2031066Y53605D2*
X2061210D1*
X2031066Y73701D2*
X2061210D1*
X2045425Y53605D2*
Y73701D1*
X2061210Y105945D2*
X2031066Y94438D1*
X2061210Y82964D1*
X2051162Y87275D2*
Y101634D1*
X2031066Y115209D2*
X2061210D1*
Y132420D1*
X2031066Y141683D2*
X2061210D1*
Y158894D1*
X2240720Y593934D2*
Y570986D1*
X2239294Y566675D1*
X2237835Y565249D1*
X2234983Y563790D1*
X2232098D1*
X2229246Y565249D1*
X2227820Y566675D1*
X2226361Y570986D1*
Y573838D1*
X2249983Y588164D2*
X2252868Y589623D1*
X2257180Y593901D1*
Y563790D1*
X2266443Y588164D2*
X2269328Y589623D1*
X2273639Y593901D1*
Y563790D1*
X2238229Y62844D2*
X2235377Y61418D1*
X2232492Y58533D1*
X2231066Y55681D1*
Y49944D1*
X2232492Y47059D1*
X2235377Y44207D1*
X2238229Y42748D1*
X2242540Y41322D1*
X2249736D1*
X2254014Y42748D1*
X2256899Y44207D1*
X2259751Y47059D1*
X2261210Y49944D1*
Y55681D1*
X2259751Y58533D1*
X2256899Y61418D1*
X2254014Y62844D1*
X2249736D1*
Y55681D1*
X2246851Y72107D2*
Y85040D1*
X2245425Y89318D1*
X2243966Y90777D1*
X2241114Y92203D1*
X2236803D1*
X2233951Y90777D1*
X2232492Y89318D1*
X2231066Y85040D1*
Y72107D1*
X2261210D1*
X2231066Y101467D2*
X2261210D1*
X2231066Y119352D2*
X2232492Y116467D1*
X2235377Y113615D1*
X2238229Y112156D1*
X2242540Y110730D1*
X2249736D1*
X2254014Y112156D1*
X2256899Y113615D1*
X2259751Y116467D1*
X2261210Y119352D1*
Y125089D1*
X2259751Y127941D1*
X2256899Y130826D1*
X2254014Y132252D1*
X2249736Y133678D1*
X2242540D1*
X2238229Y132252D1*
X2235377Y130826D1*
X2232492Y127941D1*
X2231066Y125089D1*
Y119352D1*
X570665Y544524D2*
Y514380D1*
X587876D1*
X597139Y538754D2*
X600024Y540213D1*
X604335Y544491D1*
Y514380D1*
X1290744Y1212290D2*
Y1242434D1*
X1279270Y1212290D1*
X1267796Y1242434D1*
Y1212290D1*
X1300008Y1236663D2*
X1302893Y1238122D1*
X1307204Y1242400D1*
Y1212290D1*
X2095802Y1669985D2*
X2092950Y1668592D1*
X2090065Y1665707D1*
X2088639Y1662822D1*
X2087180Y1658511D1*
Y1651348D1*
X2088639Y1647037D1*
X2090065Y1644185D1*
X2092950Y1641300D1*
X2095802Y1639874D1*
X2101539D1*
X2104424Y1641300D1*
X2107276Y1644185D1*
X2108702Y1647037D1*
X2110161Y1651348D1*
Y1658511D1*
X2108702Y1662822D1*
X2107276Y1665707D1*
X2104424Y1668592D1*
X2101539Y1669985D1*
X2095802D1*
X2100113Y1645611D2*
X2108702Y1636989D1*
X2119425Y1664215D2*
X2122310Y1665674D1*
X2126621Y1669952D1*
Y1639841D1*
X2095601Y1607486D2*
X2092749Y1606094D1*
X2089864Y1603208D1*
X2088438Y1600323D1*
X2086979Y1596012D1*
Y1588849D1*
X2088438Y1584538D1*
X2089864Y1581687D1*
X2092749Y1578801D1*
X2095601Y1577375D1*
X2101338D1*
X2104223Y1578801D1*
X2107075Y1581687D1*
X2108501Y1584538D1*
X2109960Y1588849D1*
Y1596012D1*
X2108501Y1600323D1*
X2107075Y1603208D1*
X2104223Y1606094D1*
X2101338Y1607486D1*
X2095601D1*
X2099912Y1583112D2*
X2108501Y1574490D1*
X2120683Y1600290D2*
Y1601716D1*
X2122109Y1604601D1*
X2123535Y1606027D1*
X2126420Y1607453D1*
X2132157D1*
X2135009Y1606027D1*
X2136435Y1604601D1*
X2137894Y1601716D1*
Y1598864D1*
X2136435Y1595979D1*
X2133583Y1591701D1*
X2119224Y1577342D1*
X2139320D1*
X1186404Y317654D2*
X1183553Y316262D1*
X1180668Y313376D1*
X1179242Y310491D1*
X1177782Y306180D1*
Y299017D1*
X1179242Y294706D1*
X1180668Y291854D1*
X1183553Y288969D1*
X1186404Y287543D1*
X1192141D1*
X1195027Y288969D1*
X1197878Y291854D1*
X1199304Y294706D1*
X1200764Y299017D1*
Y306180D1*
X1199304Y310491D1*
X1197878Y313376D1*
X1195027Y316262D1*
X1192141Y317654D1*
X1186404D1*
X1190716Y293280D2*
X1199304Y284658D1*
X1212912Y317621D2*
X1228664D1*
X1220075Y306147D1*
X1224386D1*
X1227238Y304721D1*
X1228664Y303295D1*
X1230123Y298984D1*
Y296132D1*
X1228664Y291821D1*
X1225812Y288936D1*
X1221501Y287510D1*
X1217190D1*
X1212912Y288936D1*
X1211486Y290395D1*
X1210027Y293247D1*
X1385692Y317654D2*
X1382840Y316262D1*
X1379955Y313376D1*
X1378529Y310491D1*
X1377069Y306180D1*
Y299017D1*
X1378529Y294706D1*
X1379955Y291854D1*
X1382840Y288969D1*
X1385692Y287543D1*
X1391428D1*
X1394314Y288969D1*
X1397165Y291854D1*
X1398591Y294706D1*
X1400051Y299017D1*
Y306180D1*
X1398591Y310491D1*
X1397165Y313376D1*
X1394314Y316262D1*
X1391428Y317654D1*
X1385692D1*
X1390003Y293280D2*
X1398591Y284658D1*
X1423673Y287510D2*
Y317621D1*
X1409314Y297558D1*
X1430836D1*
X1586404Y317654D2*
X1583553Y316262D1*
X1580668Y313376D1*
X1579242Y310491D1*
X1577782Y306180D1*
Y299017D1*
X1579242Y294706D1*
X1580668Y291854D1*
X1583553Y288969D1*
X1586404Y287543D1*
X1592141D1*
X1595027Y288969D1*
X1597878Y291854D1*
X1599304Y294706D1*
X1600764Y299017D1*
Y306180D1*
X1599304Y310491D1*
X1597878Y313376D1*
X1595027Y316262D1*
X1592141Y317654D1*
X1586404D1*
X1590716Y293280D2*
X1599304Y284658D1*
X1627238Y317621D2*
X1612912D1*
X1611486Y304721D1*
X1612912Y306147D1*
X1617223Y307606D1*
X1621501D1*
X1625812Y306147D1*
X1628697Y303295D1*
X1630123Y298984D1*
Y296132D1*
X1628697Y291821D1*
X1625812Y288936D1*
X1621501Y287510D1*
X1617223D1*
X1612912Y288936D1*
X1611486Y290395D1*
X1610027Y293247D1*
X712896Y1831132D2*
Y1844032D1*
X711437Y1848343D1*
X710011Y1849802D1*
X707159Y1851228D1*
X704274D1*
X701422Y1849802D1*
X699963Y1848343D1*
X698537Y1844032D1*
Y1831132D1*
X728681D1*
X712896Y1841180D2*
X728681Y1851228D1*
X704307Y1860491D2*
X702848Y1863376D1*
X698571Y1867687D1*
X728681D1*
X1037896Y805931D2*
Y818831D1*
X1036437Y823142D1*
X1035011Y824601D1*
X1032159Y826027D1*
X1029274D1*
X1026422Y824601D1*
X1024963Y823142D1*
X1023537Y818831D1*
Y805931D1*
X1053681D1*
X1037896Y815979D2*
X1053681Y826027D1*
X1030733Y836750D2*
X1029307D1*
X1026422Y838176D1*
X1024996Y839602D1*
X1023571Y842487D1*
Y848224D1*
X1024996Y851076D1*
X1026422Y852502D1*
X1029307Y853961D1*
X1032159D1*
X1035044Y852502D1*
X1039322Y849650D1*
X1053681Y835291D1*
Y855387D1*
X1200272Y425194D2*
X1213172D1*
X1217483Y426653D1*
X1218942Y428079D1*
X1220368Y430931D1*
Y433816D1*
X1218942Y436668D1*
X1217483Y438127D1*
X1213172Y439553D1*
X1200272D1*
Y409409D1*
X1210320Y425194D2*
X1220368Y409409D1*
X1232517Y439520D2*
X1248269D1*
X1239680Y428046D1*
X1243991D1*
X1246843Y426620D1*
X1248269Y425194D1*
X1249728Y420883D1*
Y418031D1*
X1248269Y413720D1*
X1245417Y410835D1*
X1241106Y409409D1*
X1236795D1*
X1232517Y410835D1*
X1231091Y412294D1*
X1229632Y415146D1*
X631646Y898969D2*
Y911869D1*
X630187Y916180D1*
X628761Y917639D1*
X625909Y919065D1*
X623024D1*
X620172Y917639D1*
X618713Y916180D1*
X617287Y911869D1*
Y898969D1*
X647431D1*
X631646Y909017D2*
X647431Y919065D1*
Y942687D2*
X617320D1*
X637383Y928328D1*
Y949850D1*
X1087895Y805932D2*
Y818832D1*
X1086436Y823143D1*
X1085010Y824602D1*
X1082158Y826028D1*
X1079273D1*
X1076421Y824602D1*
X1074962Y823143D1*
X1073536Y818832D1*
Y805932D1*
X1103680D1*
X1087895Y815980D2*
X1103680Y826028D1*
X1073569Y852503D2*
Y838177D1*
X1086469Y836751D1*
X1085043Y838177D1*
X1083584Y842488D1*
Y846766D1*
X1085043Y851077D1*
X1087895Y853962D1*
X1092206Y855388D1*
X1095058D1*
X1099369Y853962D1*
X1102254Y851077D1*
X1103680Y846766D1*
Y842488D1*
X1102254Y838177D1*
X1100795Y836751D1*
X1097943Y835292D1*
X1706646Y1294161D2*
Y1307061D1*
X1705187Y1311372D1*
X1703761Y1312831D1*
X1700909Y1314257D1*
X1698024D1*
X1695172Y1312831D1*
X1693713Y1311372D1*
X1692287Y1307061D1*
Y1294161D1*
X1722431D1*
X1706646Y1304209D2*
X1722431Y1314257D1*
X1696598Y1340731D2*
X1693746Y1339305D1*
X1692320Y1334994D1*
Y1332142D1*
X1693746Y1327831D1*
X1698057Y1324946D1*
X1705220Y1323520D1*
X1712383D1*
X1718120Y1324946D1*
X1721005Y1327831D1*
X1722431Y1332142D1*
Y1333568D1*
X1721005Y1337846D1*
X1718120Y1340731D1*
X1713809Y1342157D1*
X1712383D1*
X1708072Y1340731D1*
X1705220Y1337846D1*
X1703794Y1333568D1*
Y1332142D1*
X1705220Y1327831D1*
X1708072Y1324946D1*
X1712383Y1323520D1*
X1899682Y1699605D2*
X1912582D1*
X1916893Y1701064D1*
X1918352Y1702490D1*
X1919778Y1705342D1*
Y1708227D1*
X1918352Y1711079D1*
X1916893Y1712538D1*
X1912582Y1713964D1*
X1899682D1*
Y1683820D1*
X1909730Y1699605D2*
X1919778Y1683820D1*
X1934778D2*
X1949137Y1713931D1*
X1929041D1*
X1900879Y1774605D2*
X1913779D1*
X1918090Y1776064D1*
X1919549Y1777490D1*
X1920975Y1780342D1*
Y1783227D1*
X1919549Y1786079D1*
X1918090Y1787538D1*
X1913779Y1788964D1*
X1900879D1*
Y1758820D1*
X1910927Y1774605D2*
X1920975Y1758820D1*
X1937402Y1788931D2*
X1933124Y1787505D1*
X1931665Y1784653D1*
Y1781768D1*
X1933124Y1778916D1*
X1935976Y1777457D1*
X1941713Y1776031D1*
X1946024Y1774605D1*
X1948876Y1771720D1*
X1950302Y1768868D1*
Y1764557D1*
X1948876Y1761705D1*
X1947450Y1760246D1*
X1943139Y1758820D1*
X1937402D1*
X1933124Y1760246D1*
X1931665Y1761705D1*
X1930239Y1764557D1*
Y1768868D1*
X1931665Y1771720D1*
X1934550Y1774605D1*
X1938828Y1776031D1*
X1944565Y1777457D1*
X1947450Y1778916D1*
X1948876Y1781768D1*
Y1784653D1*
X1947450Y1787505D1*
X1943139Y1788931D1*
X1937402D1*
X2469146Y1787895D2*
Y1800795D1*
X2467687Y1805106D1*
X2466261Y1806565D1*
X2463409Y1807991D1*
X2460524D1*
X2457672Y1806565D1*
X2456213Y1805106D1*
X2454787Y1800795D1*
Y1787895D1*
X2484931D1*
X2469146Y1797943D2*
X2484931Y1807991D1*
X2464835Y1835924D2*
X2469146Y1834465D1*
X2472031Y1831613D1*
X2473457Y1827302D1*
Y1825876D1*
X2472031Y1821565D1*
X2469146Y1818713D1*
X2464835Y1817254D1*
X2463409D1*
X2459098Y1818713D1*
X2456246Y1821565D1*
X2454820Y1825876D1*
Y1827302D1*
X2456246Y1831613D1*
X2459098Y1834465D1*
X2464835Y1835924D1*
X2472031D1*
X2479194Y1834465D1*
X2483505Y1831613D1*
X2484931Y1827302D1*
Y1824450D1*
X2483505Y1820139D1*
X2480620Y1818713D1*
X1888008Y1624605D2*
X1900908D1*
X1905219Y1626064D1*
X1906678Y1627490D1*
X1908104Y1630342D1*
Y1633227D1*
X1906678Y1636079D1*
X1905219Y1637538D1*
X1900908Y1638964D1*
X1888008D1*
Y1608820D1*
X1898056Y1624605D2*
X1908104Y1608820D1*
X1917368Y1633194D2*
X1920253Y1634653D1*
X1924564Y1638931D1*
Y1608820D1*
X1942450Y1638931D2*
X1938138Y1637505D1*
X1935253Y1633194D1*
X1933827Y1626031D1*
Y1621720D1*
X1935253Y1614557D1*
X1938138Y1610246D1*
X1942450Y1608820D1*
X1945301D1*
X1949612Y1610246D1*
X1952464Y1614557D1*
X1953923Y1621720D1*
Y1626031D1*
X1952464Y1633194D1*
X1949612Y1637505D1*
X1945301Y1638931D1*
X1942450D1*
X1952464Y1633194D2*
X1935253Y1614557D1*
X2249083Y1305854D2*
X2261983D1*
X2266294Y1307313D1*
X2267753Y1308739D1*
X2269179Y1311591D1*
Y1314476D1*
X2267753Y1317328D1*
X2266294Y1318787D1*
X2261983Y1320213D1*
X2249083D1*
Y1290069D1*
X2259131Y1305854D2*
X2269179Y1290069D1*
X2278442Y1314443D2*
X2281328Y1315902D1*
X2285639Y1320180D1*
Y1290069D1*
X2294902Y1314443D2*
X2297787Y1315902D1*
X2302098Y1320180D1*
Y1290069D1*
X2242633Y1187104D2*
X2255533D1*
X2259844Y1188563D1*
X2261303Y1189989D1*
X2262729Y1192841D1*
Y1195726D1*
X2261303Y1198578D1*
X2259844Y1200037D1*
X2255533Y1201463D1*
X2242633D1*
Y1171319D1*
X2252681Y1187104D2*
X2262729Y1171319D1*
X2271993Y1195693D2*
X2274878Y1197152D1*
X2279189Y1201430D1*
Y1171319D1*
X2289911Y1194267D2*
Y1195693D1*
X2291337Y1198578D1*
X2292763Y1200004D1*
X2295648Y1201430D1*
X2301385D1*
X2304237Y1200004D1*
X2305663Y1198578D1*
X2307122Y1195693D1*
Y1192841D1*
X2305663Y1189956D1*
X2302811Y1185678D1*
X2288452Y1171319D1*
X2308548D1*
X1888008Y1549605D2*
X1900908D1*
X1905219Y1551064D1*
X1906678Y1552490D1*
X1908104Y1555342D1*
Y1558227D1*
X1906678Y1561079D1*
X1905219Y1562538D1*
X1900908Y1563964D1*
X1888008D1*
Y1533820D1*
X1898056Y1549605D2*
X1908104Y1533820D1*
X1917368Y1558194D2*
X1920253Y1559653D1*
X1924564Y1563931D1*
Y1533820D1*
X1936713Y1563931D2*
X1952464D1*
X1943875Y1552457D1*
X1948186D1*
X1951038Y1551031D1*
X1952464Y1549605D1*
X1953923Y1545294D1*
Y1542442D1*
X1952464Y1538131D1*
X1949612Y1535246D1*
X1945301Y1533820D1*
X1940990D1*
X1936713Y1535246D1*
X1935287Y1536705D1*
X1933827Y1539557D1*
X2225395Y1641920D2*
Y1654820D1*
X2223936Y1659131D1*
X2222510Y1660590D1*
X2219658Y1662016D1*
X2216773D1*
X2213921Y1660590D1*
X2212462Y1659131D1*
X2211036Y1654820D1*
Y1641920D1*
X2241180D1*
X2225395Y1651968D2*
X2241180Y1662016D1*
X2216806Y1671280D2*
X2215347Y1674165D1*
X2211069Y1678476D1*
X2241180D1*
Y1702098D2*
X2211069D1*
X2231132Y1687739D1*
Y1709261D1*
X869146Y203952D2*
Y216852D1*
X867687Y221163D1*
X866261Y222622D1*
X863409Y224048D1*
X860524D1*
X857672Y222622D1*
X856213Y221163D1*
X854787Y216852D1*
Y203952D1*
X884931D1*
X869146Y214000D2*
X884931Y224048D1*
X860557Y233311D2*
X859098Y236197D1*
X854820Y240508D1*
X884931D1*
X854820Y266982D2*
Y252656D1*
X867720Y251230D1*
X866294Y252656D1*
X864835Y256967D1*
Y261245D1*
X866294Y265556D1*
X869146Y268441D1*
X873457Y269867D1*
X876309D1*
X880620Y268441D1*
X883505Y265556D1*
X884931Y261245D1*
Y256967D1*
X883505Y252656D1*
X882046Y251230D1*
X879194Y249771D1*
X1069146Y204682D2*
Y217581D1*
X1067687Y221892D1*
X1066261Y223352D1*
X1063409Y224778D1*
X1060524D1*
X1057672Y223352D1*
X1056213Y221892D1*
X1054787Y217581D1*
Y204682D1*
X1084931D1*
X1069146Y214730D2*
X1084931Y224777D1*
X1060557Y234041D2*
X1059098Y236926D1*
X1054820Y241237D1*
X1084931D1*
X1059098Y267712D2*
X1056246Y266286D1*
X1054820Y261975D1*
Y259123D1*
X1056246Y254812D1*
X1060557Y251927D1*
X1067720Y250501D1*
X1074883D1*
X1080620Y251927D1*
X1083505Y254812D1*
X1084931Y259123D1*
Y260549D1*
X1083505Y264826D1*
X1080620Y267712D1*
X1076309Y269137D1*
X1074883Y269138D1*
X1070572Y267712D1*
X1067720Y264826D1*
X1066294Y260549D1*
Y259123D1*
X1067720Y254812D1*
X1070572Y251927D1*
X1074883Y250501D1*
X1117633Y55854D2*
X1130533D1*
X1134844Y57313D1*
X1136303Y58739D1*
X1137729Y61591D1*
Y64476D1*
X1136303Y67328D1*
X1134844Y68787D1*
X1130533Y70213D1*
X1117633D1*
Y40069D1*
X1127681Y55854D2*
X1137729Y40069D1*
X1146993Y64443D2*
X1149878Y65902D1*
X1154189Y70180D1*
Y40069D1*
X1169189D2*
X1183548Y70180D1*
X1163452D1*
X1317650Y55854D2*
X1330549D1*
X1334860Y57313D1*
X1336320Y58739D1*
X1337746Y61591D1*
Y64476D1*
X1336320Y67328D1*
X1334860Y68787D1*
X1330549Y70213D1*
X1317650D1*
Y40069D1*
X1327698Y55854D2*
X1337746Y40069D1*
X1347009Y64443D2*
X1349894Y65902D1*
X1354205Y70180D1*
Y40069D1*
X1370632Y70180D2*
X1366354Y68754D1*
X1364895Y65902D1*
Y63017D1*
X1366354Y60165D1*
X1369206Y58706D1*
X1374943Y57280D1*
X1379254Y55854D1*
X1382106Y52969D1*
X1383532Y50117D1*
Y45806D1*
X1382106Y42954D1*
X1380680Y41495D1*
X1376369Y40069D1*
X1370632D1*
X1366354Y41495D1*
X1364895Y42954D1*
X1363469Y45806D1*
Y50117D1*
X1364895Y52969D1*
X1367780Y55854D1*
X1372058Y57280D1*
X1377795Y58706D1*
X1380680Y60165D1*
X1382106Y63017D1*
Y65902D1*
X1380680Y68754D1*
X1376369Y70180D1*
X1370632D1*
X1518346Y55854D2*
X1531246D1*
X1535557Y57313D1*
X1537016Y58739D1*
X1538442Y61591D1*
Y64476D1*
X1537016Y67328D1*
X1535557Y68787D1*
X1531246Y70213D1*
X1518346D1*
Y40069D1*
X1528394Y55854D2*
X1538442Y40069D1*
X1547705Y64443D2*
X1550591Y65902D1*
X1554902Y70180D1*
Y40069D1*
X1582835Y60165D2*
X1581376Y55854D1*
X1578524Y52969D1*
X1574213Y51543D1*
X1572787D1*
X1568476Y52969D1*
X1565624Y55854D1*
X1564165Y60165D1*
Y61591D1*
X1565624Y65902D1*
X1568476Y68754D1*
X1572787Y70180D1*
X1574213D1*
X1578524Y68754D1*
X1581376Y65902D1*
X1582835Y60165D1*
Y52969D1*
X1581376Y45806D1*
X1578524Y41495D1*
X1574213Y40069D1*
X1571361D1*
X1567050Y41495D1*
X1565624Y44380D1*
X776818Y1667182D2*
X773966Y1670067D1*
X769655Y1671493D1*
X763918D1*
X759607Y1670067D1*
X756722Y1667182D1*
Y1664330D1*
X758181Y1661445D1*
X759607Y1660019D1*
X762459Y1658593D1*
X771081Y1655708D1*
X773966Y1654282D1*
X775392Y1652823D1*
X776818Y1649971D1*
Y1645660D1*
X773966Y1642808D1*
X769655Y1641349D1*
X763918D1*
X759607Y1642808D1*
X756722Y1645660D1*
X786082Y1665723D2*
X788967Y1667182D1*
X793278Y1671460D1*
Y1641349D1*
X570368Y398433D2*
X567516Y401318D1*
X563205Y402744D1*
X557468D1*
X553157Y401318D1*
X550272Y398433D1*
Y395581D1*
X551731Y392696D1*
X553157Y391270D1*
X556009Y389844D1*
X564631Y386959D1*
X567516Y385533D1*
X568942Y384074D1*
X570368Y381222D1*
Y376911D1*
X567516Y374059D1*
X563205Y372600D1*
X557468D1*
X553157Y374059D1*
X550272Y376911D1*
X581091Y395547D2*
Y396973D1*
X582517Y399858D1*
X583943Y401284D1*
X586828Y402710D1*
X592565D1*
X595417Y401284D1*
X596843Y399858D1*
X598302Y396973D1*
Y394122D1*
X596843Y391236D1*
X593991Y386959D1*
X579632Y372600D1*
X599728D1*
X1233537Y672299D2*
Y650777D1*
X1234963Y646466D1*
X1237848Y643614D1*
X1242159Y642155D1*
X1245011D1*
X1249322Y643614D1*
X1252207Y646466D1*
X1253633Y650777D1*
Y672299D1*
X1262897Y666529D2*
X1265782Y667988D1*
X1270093Y672266D1*
Y642155D1*
X773457Y1002891D2*
Y981369D1*
X774883Y977058D1*
X777768Y974206D1*
X782079Y972747D1*
X784931D1*
X789242Y974206D1*
X792127Y977058D1*
X793553Y981369D1*
Y1002891D1*
X804276Y995694D2*
Y997120D1*
X805702Y1000005D1*
X807128Y1001431D1*
X810013Y1002857D1*
X815750D1*
X818602Y1001431D1*
X820028Y1000005D1*
X821487Y997120D1*
Y994268D1*
X820028Y991383D1*
X817176Y987106D1*
X802817Y972747D1*
X822913D1*
X2004898Y1355646D2*
Y1334124D1*
X2006324Y1329813D1*
X2009209Y1326962D1*
X2013520Y1325502D1*
X2016372D1*
X2020683Y1326962D1*
X2023568Y1329813D1*
X2024994Y1334124D1*
Y1355646D1*
X2037143Y1355613D2*
X2052895D1*
X2044306Y1344139D1*
X2048617D1*
X2051469Y1342713D1*
X2052895Y1341287D1*
X2054354Y1336976D1*
Y1334124D1*
X2052895Y1329813D1*
X2050043Y1326928D1*
X2045732Y1325502D1*
X2041421D1*
X2037143Y1326928D1*
X2035717Y1328388D1*
X2034258Y1331239D1*
X2303792Y967851D2*
Y946329D1*
X2305217Y942018D1*
X2308103Y939166D1*
X2312414Y937707D1*
X2315265D1*
X2319577Y939166D1*
X2322462Y942018D1*
X2323888Y946329D1*
Y967851D1*
X2347510Y937707D2*
Y967818D1*
X2333151Y947755D1*
X2354673D1*
X224780Y1828064D2*
Y1806542D1*
X226206Y1802231D1*
X229091Y1799379D1*
X233402Y1797920D1*
X236254D1*
X240565Y1799379D1*
X243450Y1802231D1*
X244876Y1806542D1*
Y1828064D1*
X271351Y1828031D2*
X257025D1*
X255599Y1815131D1*
X257025Y1816557D1*
X261336Y1818016D1*
X265614D1*
X269925Y1816557D1*
X272810Y1813705D1*
X274236Y1809394D1*
Y1806542D1*
X272810Y1802231D1*
X269925Y1799346D1*
X265614Y1797920D1*
X261336D1*
X257025Y1799346D1*
X255599Y1800805D1*
X254140Y1803657D1*
X166360Y69647D2*
D126*
X221630D1*
X392710Y112702D2*
Y26592D1*
X349710Y69592D2*
X435820D1*
X2608633Y1773311D2*
D129*
Y1794866D1*
X2606257Y1801996D1*
X2603825Y1804428D1*
X2599072Y1806805D1*
X2591887D1*
X2587133Y1804428D1*
X2584701Y1801996D1*
X2582325Y1794866D1*
Y1773311D1*
X2632565D1*
X2582325Y1836614D2*
X2584701Y1831806D1*
X2589510Y1827052D1*
X2594263Y1824621D1*
X2601448Y1822244D1*
X2613442D1*
X2620571Y1824620D1*
X2625380Y1827052D1*
X2630133Y1831805D1*
X2632565Y1836614D1*
Y1846176D1*
X2630133Y1850929D1*
X2625380Y1855737D1*
X2620571Y1858114D1*
X2613442Y1860490D1*
X2601448D1*
X2594263Y1858114D1*
X2589510Y1855737D1*
X2584701Y1850929D1*
X2582325Y1846176D1*
Y1836614D1*
Y1875930D2*
X2632565Y1887923D1*
X2582325Y1899861D1*
X2632565Y1911800D1*
X2582325Y1923793D1*
Y1970294D2*
Y1939232D1*
X2632565D1*
Y1970294D1*
X2606257Y1939232D2*
Y1958356D1*
Y1985733D2*
Y2007233D1*
X2603825Y2014418D1*
X2601448Y2016850D1*
X2596695Y2019226D1*
X2591886D1*
X2587133Y2016850D1*
X2584701Y2014418D1*
X2582325Y2007233D1*
Y1985733D1*
X2632565D1*
X2606257Y2002480D2*
X2632565Y2019226D1*
X520479Y1634090D2*
Y1655589D1*
X518047Y1662774D1*
X515671Y1665206D1*
X510917Y1667583D1*
X506109D1*
X501356Y1665206D1*
X498924Y1662774D1*
X496547Y1655589D1*
Y1634090D1*
X546787D1*
X520479Y1650836D2*
X546787Y1667583D1*
X496547Y1714083D2*
Y1683022D1*
X546787D1*
Y1714083D1*
X520479Y1683022D2*
Y1702145D1*
X503732Y1763016D2*
X498924Y1758263D1*
X496547Y1751078D1*
Y1741516D1*
X498924Y1734331D1*
X503732Y1729523D1*
X508486D1*
X513294Y1731955D1*
X515671Y1734331D1*
X518047Y1739084D1*
X522856Y1753454D1*
X525232Y1758263D1*
X527664Y1760639D1*
X532417Y1763016D1*
X539602D1*
X544356Y1758263D1*
X546787Y1751078D1*
Y1741516D1*
X544356Y1734331D1*
X539602Y1729523D1*
X496547Y1809517D2*
Y1778455D1*
X546787D1*
Y1809517D1*
X520479Y1778455D2*
Y1797579D1*
X496547Y1841703D2*
X546787D1*
X496547Y1824956D2*
Y1858449D1*
X782325Y110811D2*
X832565D1*
Y132366D1*
X830133Y139551D1*
X827756Y141928D1*
X823003Y144305D1*
X815818D1*
X811010Y141928D1*
X808633Y139552D1*
X806257Y132366D1*
X803825Y139552D1*
X801448Y141928D1*
X796695Y144305D1*
X791887D1*
X787133Y141928D1*
X784701Y139552D1*
X782325Y132366D1*
Y110811D1*
X806257D2*
Y132366D1*
X782325Y176491D2*
X832565D1*
X782325Y159744D2*
Y193237D1*
Y242170D2*
X832565D1*
X782325Y208676D1*
X832565D1*
M02*
