G04 DipTrace 3.3.1.3*
G04 TopMask.gbr*
%MOIN*%
G04 #@! TF.FileFunction,Soldermask,Top*
G04 #@! TF.Part,Single*
%AMOUTLINE1*
4,1,4,
0.056118,0.056118,
0.056118,-0.056118,
-0.056118,-0.056118,
-0.056118,0.056118,
0.056118,0.056118,
0*%
%AMOUTLINE4*
4,1,4,
0.050213,-0.050213,
-0.050213,-0.050213,
-0.050213,0.050213,
0.050213,0.050213,
0.050213,-0.050213,
0*%
%AMOUTLINE7*
4,1,4,
0.029543,0.012811,
0.029543,-0.012811,
-0.029543,-0.012811,
-0.029543,0.012811,
0.029543,0.012811,
0*%
%AMOUTLINE10*
4,1,4,
0.029543,0.006906,
0.029543,-0.006906,
-0.029543,-0.006906,
-0.029543,0.006906,
0.029543,0.006906,
0*%
%AMOUTLINE13*
4,1,16,
-0.011924,0.020685,
-0.020797,0.01866,
-0.028003,0.012913,
-0.032003,0.004609,
-0.032003,-0.004609,
-0.028003,-0.012913,
-0.020797,-0.01866,
-0.011924,-0.020685,
0.011924,-0.020685,
0.020797,-0.01866,
0.028003,-0.012913,
0.032003,-0.004609,
0.032003,0.004609,
0.028003,0.012913,
0.020797,0.01866,
0.011924,0.020685,
-0.011924,0.020685,
0*%
%AMOUTLINE16*
4,1,16,
-0.021766,0.020685,
-0.03064,0.01866,
-0.037846,0.012913,
-0.041845,0.004609,
-0.041845,-0.004609,
-0.037846,-0.012913,
-0.03064,-0.01866,
-0.021766,-0.020685,
0.021766,-0.020685,
0.03064,-0.01866,
0.037846,-0.012913,
0.041845,-0.004609,
0.041845,0.004609,
0.037846,0.012913,
0.03064,0.01866,
0.021766,0.020685,
-0.021766,0.020685,
0*%
%AMOUTLINE19*
4,1,4,
0.026,-0.016748,
-0.026,-0.016748,
-0.026,0.016748,
0.026,0.016748,
0.026,-0.016748,
0*%
%AMOUTLINE22*
4,1,4,
-0.016748,-0.026,
-0.016748,0.026,
0.016748,0.026,
0.016748,-0.026,
-0.016748,-0.026,
0*%
%AMOUTLINE25*
4,1,4,
0.11911,-0.11911,
-0.11911,-0.11911,
-0.11911,0.11911,
0.11911,0.11911,
0.11911,-0.11911,
0*%
%ADD58C,0.025591*%
%ADD59C,0.127953*%
%ADD60C,0.14173*%
%ADD71R,0.04137X0.061055*%
%ADD73R,0.072866X0.017748*%
%ADD75R,0.139795X0.139795*%
%ADD77O,0.013811X0.035465*%
%ADD79O,0.035465X0.013811*%
%ADD81R,0.045307X0.025622*%
%ADD83R,0.057118X0.057118*%
%ADD85R,0.027591X0.043339*%
%ADD87R,0.15948X0.053181*%
%ADD89C,0.12011*%
%ADD91C,0.100425*%
%ADD93O,0.179165X0.08074*%
%ADD95O,0.08074X0.179165*%
%ADD97O,0.08074X0.19885*%
%ADD99R,0.043339X0.027591*%
%ADD101R,0.061055X0.053181*%
%ADD103C,0.112236*%
%ADD105R,0.057118X0.084677*%
%ADD107C,0.076803*%
%ADD109R,0.076803X0.076803*%
%ADD111R,0.084677X0.057118*%
%ADD113R,0.064992X0.072866*%
%ADD115C,0.061055*%
%ADD117R,0.061055X0.061055*%
%ADD119R,0.029559X0.037433*%
%ADD121R,0.04137X0.045307*%
%ADD123R,0.037433X0.029559*%
%ADD131OUTLINE1*%
%ADD134OUTLINE4*%
%ADD137OUTLINE7*%
%ADD140OUTLINE10*%
%ADD143OUTLINE13*%
%ADD146OUTLINE16*%
%ADD149OUTLINE19*%
%ADD152OUTLINE22*%
%ADD155OUTLINE25*%
%FSLAX26Y26*%
G04*
G70*
G90*
G75*
G01*
G04 TopMask*
%LPD*%
D123*
X850000Y787500D3*
X798819D3*
D121*
X775000Y1950000D3*
Y2016929D3*
D119*
X837500Y1950000D3*
Y2001181D3*
D121*
X887500Y475000D3*
Y541929D3*
X825000Y475000D3*
Y541929D3*
D119*
X987500Y723819D3*
Y775000D3*
X1087500Y600000D3*
Y651181D3*
X1137500Y600000D3*
Y651181D3*
X1362500Y612500D3*
Y561319D3*
D117*
X762500Y1153150D3*
D115*
Y1350000D3*
D113*
Y1050000D3*
X872736D3*
D123*
X662500Y1900000D3*
X611319D3*
D119*
X2600591Y888091D3*
Y836909D3*
X2550000Y887500D3*
Y836319D3*
X2187500Y1387500D3*
Y1438681D3*
X2125000Y1387500D3*
Y1438681D3*
X2187500Y1287500D3*
Y1338681D3*
X2075000Y887500D3*
Y836319D3*
Y787500D3*
Y736319D3*
D123*
X2125000Y937500D3*
X2073819D3*
D119*
X2075000Y637500D3*
Y688681D3*
X249016Y2142102D3*
Y2193283D3*
D111*
X987500Y600000D3*
Y446462D3*
D109*
X500000Y825000D3*
D107*
Y1025000D3*
D105*
X700000Y1250000D3*
X546462D3*
X750000Y700000D3*
X903538D3*
D131*
X225000Y612500D3*
D103*
Y1229232D3*
D105*
X1712500Y487500D3*
X1866038D3*
D101*
X2512500Y1987303D3*
Y1912500D3*
D99*
X2187500Y2000000D3*
Y2074803D3*
X2096949Y2037402D3*
X2075000Y1887500D3*
Y1962303D3*
X1984449Y1924902D3*
X2187500Y1775000D3*
Y1849803D3*
X2096949Y1812402D3*
D97*
X468749Y1456251D3*
D95*
X232529D3*
D93*
X350639Y1649164D3*
D134*
X386425Y362000D3*
D91*
X189575D3*
D137*
X2422159Y1066047D3*
Y1097543D3*
D140*
Y1125102D3*
Y1144787D3*
Y1164472D3*
Y1184157D3*
Y1203843D3*
Y1223528D3*
Y1243213D3*
Y1262898D3*
D137*
Y1290457D3*
Y1321953D3*
D143*
X2622749Y1364079D3*
D146*
X2458182Y1023921D3*
Y1364079D3*
D143*
X2622749Y1023921D3*
D58*
X2479049Y1080220D3*
Y1307780D3*
D117*
X1643751Y1012500D3*
D115*
Y912500D3*
X1543751Y1012500D3*
Y912500D3*
X1443751Y1012500D3*
Y912500D3*
D117*
X2450000Y300000D3*
D115*
Y400000D3*
Y500000D3*
X2397000Y1762449D3*
X2326921Y1802606D3*
X2397000Y1842764D3*
X2326921Y1882921D3*
X2397000Y1923079D3*
X2326921Y1963236D3*
X2397000Y2003394D3*
X2326921Y2043551D3*
D89*
X2361961Y2222882D3*
Y1583118D3*
D59*
X2497000Y2153000D3*
Y1653000D3*
D117*
X2150000Y500000D3*
D115*
Y400000D3*
Y300000D3*
Y200000D3*
D117*
X2350000Y500000D3*
D115*
Y400000D3*
Y300000D3*
Y200000D3*
D117*
X812000Y356000D3*
D115*
X912000D3*
X1012000D3*
X1112000D3*
X1212000D3*
X1312000D3*
X1412000D3*
X1512000D3*
X1612000D3*
X1712000D3*
D117*
X2050000Y300000D3*
D115*
Y400000D3*
Y500000D3*
D117*
X2250000D3*
D115*
Y400000D3*
Y300000D3*
Y200000D3*
D87*
X700000Y587500D3*
Y481201D3*
D149*
X925000Y2000000D3*
Y1950000D3*
Y1900000D3*
Y1850000D3*
Y1800000D3*
Y1750000D3*
Y1700000D3*
Y1650000D3*
Y1600000D3*
Y1550000D3*
Y1500000D3*
Y1450000D3*
Y1400000D3*
Y1350000D3*
D152*
X1062500Y1281251D3*
X1112500D3*
X1162500D3*
X1212500D3*
X1262500D3*
X1312500D3*
X1362500D3*
X1412500D3*
X1462500D3*
X1512500D3*
D149*
X1650000Y1350000D3*
Y1400000D3*
Y1450000D3*
Y1500000D3*
Y1550000D3*
Y1600000D3*
Y1650000D3*
Y1700000D3*
Y1750000D3*
Y1800000D3*
Y1850000D3*
Y1900000D3*
Y1950000D3*
Y2000000D3*
D155*
X1297391Y1693012D3*
D99*
X2012500Y1737500D3*
Y1662697D3*
X2103051Y1700098D3*
X2012500Y1587500D3*
Y1512697D3*
X2103051Y1550098D3*
D85*
X1175000Y162500D3*
X1249803D3*
X1212402Y253051D3*
X1375000Y162500D3*
X1449803D3*
X1412402Y253051D3*
X1575000Y162500D3*
X1649803D3*
X1612402Y253051D3*
D119*
X712500Y1950000D3*
Y1898819D3*
X1037500Y775000D3*
Y723819D3*
D123*
X1199409Y463091D3*
X1250591D3*
D119*
X675000Y950000D3*
Y898819D3*
X1087500Y723819D3*
Y775000D3*
X1750000Y1343749D3*
Y1292568D3*
D123*
X1950000Y1662500D3*
X1898819D3*
X1900000Y1737500D3*
X1951181D3*
D119*
X2512500Y1837500D3*
Y1786319D3*
D123*
X1895375Y1587500D3*
X1946556D3*
X2250000Y1262500D3*
X2301181D3*
X2250000Y1143749D3*
X2301181D3*
X1946556Y1512500D3*
X1895375D3*
D119*
X2187500Y1650000D3*
Y1701181D3*
X912500Y262500D3*
Y211319D3*
X1112500Y262500D3*
Y211319D3*
D123*
X1176181Y100000D3*
X1125000D3*
X1376181D3*
X1325000D3*
X1576181D3*
X1525000D3*
D83*
X662500Y1812500D3*
Y1505413D3*
X583760Y1580217D3*
X741240Y1737697D3*
X662500Y381251D3*
Y74164D3*
X583760Y148967D3*
X741240Y306448D3*
D81*
X1200000Y600000D3*
Y562598D3*
Y525197D3*
X1306299D3*
Y600000D3*
X850000Y862500D3*
Y899902D3*
Y937303D3*
X743701D3*
Y899902D3*
Y862500D3*
D79*
X2112500Y1137500D3*
Y1157185D3*
Y1176870D3*
Y1196555D3*
Y1216240D3*
Y1235925D3*
Y1255610D3*
D77*
X2073130Y1294980D3*
X2053445D3*
X2033760D3*
X2014075D3*
X1994390D3*
X1974705D3*
X1955020D3*
D79*
X1915650Y1255610D3*
Y1235925D3*
Y1216240D3*
Y1196555D3*
Y1176870D3*
Y1157185D3*
Y1137500D3*
D77*
X1955020Y1098130D3*
X1974705D3*
X1994390D3*
X2014075D3*
X2033760D3*
X2053445D3*
X2073130D3*
D75*
X2014075Y1196555D3*
D73*
X2187500Y887500D3*
Y861909D3*
Y836319D3*
Y810728D3*
Y785138D3*
Y759547D3*
Y733957D3*
Y708366D3*
X2470965D3*
Y733957D3*
Y759547D3*
Y785138D3*
Y810728D3*
Y836319D3*
Y861909D3*
Y887500D3*
D71*
X186516Y2067102D3*
Y1874189D3*
X249508D3*
Y2067102D3*
X312500D3*
Y1874189D3*
D60*
X787500Y2175000D3*
X1945000D3*
M02*
