G04 DipTrace 3.3.1.3*
G04 BottomMask.gbr*
%MOIN*%
G04 #@! TF.FileFunction,Soldermask,Bot*
G04 #@! TF.Part,Single*
%AMOUTLINE1*
4,1,4,
0.050213,-0.050213,
-0.050213,-0.050213,
-0.050213,0.050213,
0.050213,0.050213,
0.050213,-0.050213,
0*%
%AMOUTLINE10*
4,1,16,
-0.011924,0.020685,
-0.020797,0.01866,
-0.028003,0.012913,
-0.032003,0.004609,
-0.032003,-0.004609,
-0.028003,-0.012913,
-0.020797,-0.01866,
-0.011924,-0.020685,
0.011924,-0.020685,
0.020797,-0.01866,
0.028003,-0.012913,
0.032003,-0.004609,
0.032003,0.004609,
0.028003,0.012913,
0.020797,0.01866,
0.011924,0.020685,
-0.011924,0.020685,
0*%
%AMOUTLINE13*
4,1,16,
-0.021766,0.020685,
-0.03064,0.01866,
-0.037846,0.012913,
-0.041845,0.004609,
-0.041845,-0.004609,
-0.037846,-0.012913,
-0.03064,-0.01866,
-0.021766,-0.020685,
0.021766,-0.020685,
0.03064,-0.01866,
0.037846,-0.012913,
0.041845,-0.004609,
0.041845,0.004609,
0.037846,0.012913,
0.03064,0.01866,
0.021766,0.020685,
-0.021766,0.020685,
0*%
%ADD59C,0.025591*%
%ADD60C,0.127953*%
%ADD61C,0.14173*%
%ADD91C,0.12011*%
%ADD93C,0.100425*%
%ADD95O,0.179165X0.08074*%
%ADD97O,0.08074X0.179165*%
%ADD99O,0.08074X0.19885*%
%ADD107C,0.076803*%
%ADD109R,0.076803X0.076803*%
%ADD115C,0.061055*%
%ADD117R,0.061055X0.061055*%
%ADD131OUTLINE1*%
%ADD140OUTLINE10*%
%ADD143OUTLINE13*%
%FSLAX26Y26*%
G04*
G70*
G90*
G75*
G01*
G04 BotMask*
%LPD*%
D117*
X762500Y1156249D3*
D115*
Y1353100D3*
D109*
X225000Y925000D3*
D107*
Y1125000D3*
D99*
X468749Y1456251D3*
D97*
X232529D3*
D95*
X350639Y1649164D3*
D131*
X386425Y362000D3*
D93*
X189575D3*
D140*
X2622749Y1364079D3*
D143*
X2458182Y1023921D3*
Y1364079D3*
D140*
X2622749Y1023921D3*
D59*
X2479049Y1080220D3*
Y1307780D3*
D117*
X162500Y2087500D3*
D115*
Y2187500D3*
D117*
X2450000Y300000D3*
D115*
Y400000D3*
Y500000D3*
X2397000Y1762449D3*
X2326921Y1802606D3*
X2397000Y1842764D3*
X2326921Y1882921D3*
X2397000Y1923079D3*
X2326921Y1963236D3*
X2397000Y2003394D3*
X2326921Y2043551D3*
D91*
X2361961Y2222882D3*
Y1583118D3*
D60*
X2497000Y2153000D3*
Y1653000D3*
D117*
X2150000Y500000D3*
D115*
Y400000D3*
Y300000D3*
Y200000D3*
D117*
X2350000Y500000D3*
D115*
Y400000D3*
Y300000D3*
Y200000D3*
D117*
X812000Y356000D3*
D115*
X912000D3*
X1012000D3*
X1112000D3*
X1212000D3*
X1312000D3*
X1412000D3*
X1512000D3*
X1612000D3*
X1712000D3*
D117*
X2250000Y500000D3*
D115*
Y400000D3*
Y300000D3*
Y200000D3*
D117*
X362500Y2087500D3*
D115*
Y2187500D3*
D61*
X787500Y2175000D3*
X1945000D3*
G36*
X1950000Y1262500D2*
X2081249D1*
Y1131249D1*
X1950000D1*
Y1262500D1*
G37*
M02*
