0
SECTION
2
HEADER
9
$INSUNITS
70
4
9
$ACADVER
1
AC1014
9
$HANDSEED
5
FFFF
0
ENDSEC
0
SECTION
2
TABLES
0
TABLE
2
VPORT
5
8
100
AcDbSymbolTable
0
ENDTAB
0
TABLE
2
LTYPE
5
5
100
AcDbSymbolTable
0
LTYPE
5
14
100
AcDbSymbolTableRecord
100
AcDbLinetypeTableRecord
2
BYBLOCK
70
0
0
LTYPE
5
15
100
AcDbSymbolTableRecord
100
AcDbLinetypeTableRecord
2
BYLAYER
70
0
0
LTYPE
5
16
100
AcDbSymbolTableRecord
100
AcDbLinetypeTableRecord
2
DASHED
70
0
3
Dashed __ __ __ __ __ __ __ __ __ __ __ __ __ _
72
65
73
2
40
0.75
49
0.5
74
0
49
-0.25
74
0
0
ENDTAB
0
TABLE
2
LAYER
5
2
100
AcDbSymbolTable
70
2
0
LAYER
5
50
100
AcDbSymbolTableRecord
100
AcDbLayerTableRecord
2
0
70
0
62
7
6
CONTINUOUS
0
ENDTAB
0
TABLE
2
STYLE
5
3
100
AcDbSymbolTable
70
1
0
STYLE
5
11
100
AcDbSymbolTableRecord
100
AcDbTextStyleTableRecord
2
STANDARD
70
0
0
ENDTAB
0
TABLE
2
VIEW
5
6
100
AcDbSymbolTable
70
0
0
ENDTAB
0
TABLE
2
UCS
5
7
100
AcDbSymbolTable
70
0
0
ENDTAB
0
TABLE
2
APPID
5
9
100
AcDbSymbolTable
70
2
0
APPID
5
12
100
AcDbSymbolTableRecord
100
AcDbRegAppTableRecord
2
ACAD
70
0
0
ENDTAB
0
TABLE
2
DIMSTYLE
5
A
100
AcDbSymbolTable
70
1
0
ENDTAB
0
TABLE
2
BLOCK_RECORD
5
1
100
AcDbSymbolTable
70
1
0
BLOCK_RECORD
5
1F
100
AcDbSymbolTableRecord
100
AcDbBlockTableRecord
2
*MODEL_SPACE
0
BLOCK_RECORD
5
1B
100
AcDbSymbolTableRecord
100
AcDbBlockTableRecord
2
*PAPER_SPACE
0
ENDTAB
0
ENDSEC
0
SECTION
2
BLOCKS
0
BLOCK
5
20
100
AcDbEntity
100
AcDbBlockBegin
2
*MODEL_SPACE
0
ENDBLK
5
21
100
AcDbEntity
100
AcDbBlockEnd
0
BLOCK
5
1C
100
AcDbEntity
100
AcDbBlockBegin
2
*PAPER_SPACE
0
ENDBLK
5
1D
100
AcDbEntity
100
AcDbBlockEnd
0
ENDSEC
0
SECTION
2
ENTITIES
0
POINT
5
100
100
AcDbEntity
8
0
100
AcDbPoint
10
0
20
0
30
0
0
POINT
5
101
100
AcDbEntity
8
0
100
AcDbPoint
10
-160
20
0
30
0
0
POINT
5
102
100
AcDbEntity
8
0
100
AcDbPoint
10
-160
20
0
30
0
0
POINT
5
103
100
AcDbEntity
8
0
100
AcDbPoint
10
-160
20
0
30
0
0
POINT
5
104
100
AcDbEntity
8
0
100
AcDbPoint
10
-160
20
0
30
0
0
POINT
5
105
100
AcDbEntity
8
0
100
AcDbPoint
10
-81.5
20
1.1102230246251565e-15
30
0
0
POINT
5
106
100
AcDbEntity
8
0
100
AcDbPoint
10
-160
20
0
30
0
0
LINE
5
107
100
AcDbEntity
8
0
100
AcDbLine
10
0
20
0
30
0
11
-40
21
0
31
0
0
LINE
5
108
100
AcDbEntity
8
0
100
AcDbLine
10
-40
20
0
30
0
11
-80
21
0
31
0
0
LINE
5
109
100
AcDbEntity
8
0
100
AcDbLine
10
-80
20
0
30
0
11
-120
21
0
31
0
0
LINE
5
110
100
AcDbEntity
8
0
100
AcDbLine
10
-120
20
0
30
0
11
-160
21
0
31
0
0
CIRCLE
5
111
100
AcDbEntity
8
0
100
AcDbCircle
10
-120
20
0
30
0
40
8.2499999999999929
210
0
220
0
230
1
0
CIRCLE
5
112
100
AcDbEntity
8
0
100
AcDbCircle
10
-120
20
0
30
0
40
5.2500000000000036
210
0
220
0
230
1
0
CIRCLE
5
113
100
AcDbEntity
8
0
100
AcDbCircle
10
-80
20
0
30
0
40
5.2500000000000036
210
0
220
0
230
1
0
CIRCLE
5
114
100
AcDbEntity
8
0
100
AcDbCircle
10
-80
20
0
30
0
40
8.2499999999999929
210
0
220
0
230
1
0
LWPOLYLINE
5
115
100
AcDbEntity
8
0
100
AcDbPolyline
90
6
70
1
43
0.0
10
-151.75
20
4.7631397208144035
10
-160
20
9.5262794416288141
10
-168.25
20
4.763139720814408
10
-168.25
20
-4.763139720814408
10
-160
20
-9.5262794416288159
10
-151.75
20
-4.7631397208144097
0
LWPOLYLINE
5
116
100
AcDbEntity
8
0
100
AcDbPolyline
90
6
70
1
43
0.0
10
-148.75
20
6.4951905283832891
10
-160
20
12.99038105676658
10
-171.25
20
6.4951905283832909
10
-171.25
20
-6.4951905283832883
10
-160
20
-12.990381056766578
10
-148.75
20
-6.49519052838329
0
CIRCLE
5
117
100
AcDbEntity
8
0
100
AcDbCircle
10
-40
20
0
30
0
40
5.2500000000000036
210
0
220
0
230
1
0
CIRCLE
5
118
100
AcDbEntity
8
0
100
AcDbCircle
10
-40
20
0
30
0
40
8.2500000000000018
210
0
220
0
230
1
0
CIRCLE
5
119
100
AcDbEntity
8
0
100
AcDbCircle
10
0
20
0
30
0
40
5.25
210
0
220
0
230
1
0
CIRCLE
5
120
100
AcDbEntity
8
0
100
AcDbCircle
10
0
20
0
30
0
40
8.25
210
0
220
0
230
1
0
LINE
5
121
100
AcDbEntity
8
0
100
AcDbLine
10
-171.25
20
1.1102230246251565e-15
30
0
11
-81.5
21
1.1102230246251565e-15
31
0
0
LWPOLYLINE
5
122
100
AcDbEntity
8
0
100
AcDbPolyline
90
4
70
1
43
0.0
10
9.5000000000000107
20
14.75
10
-172.5
20
14.75
10
-172.5
20
-14.75
10
9.5000000000000107
20
-14.75
0
LINE
5
123
100
AcDbEntity
8
0
100
AcDbLine
10
9.5000000000000107
20
14.75
30
0
11
-172.5
21
-14.75
31
0
6
DASHED
0
LINE
5
124
100
AcDbEntity
8
0
100
AcDbLine
10
-172.5
20
14.75
30
0
11
9.5000000000000107
21
-14.75
31
0
6
DASHED
0
LINE
5
125
100
AcDbEntity
8
0
100
AcDbLine
10
-160
20
-9.5262794416288159
30
0
11
-160
21
-12.990381056766578
31
0
0
LINE
5
126
100
AcDbEntity
8
0
100
AcDbLine
10
-168.25
20
-4.763139720814408
30
0
11
-151.75
21
-4.7631397208144097
31
0
0
LINE
5
127
100
AcDbEntity
8
0
100
AcDbLine
10
-168.25
20
4.763139720814408
30
0
11
-151.75
21
4.7631397208144035
31
0
0
LWPOLYLINE
5
128
100
AcDbEntity
8
0
100
AcDbPolyline
90
4
70
1
43
0.0
10
-165.625
20
-9.7427857925749333
10
-154.375
20
-9.7427857925749333
10
-154.375
20
9.7427857925749333
10
-165.625
20
9.7427857925749333
0
LINE
5
129
100
AcDbEntity
8
0
100
AcDbLine
10
-165.625
20
-9.7427857925749333
30
0
11
-154.375
21
9.7427857925749333
31
0
6
DASHED
0
LINE
5
130
100
AcDbEntity
8
0
100
AcDbLine
10
-154.375
20
-9.7427857925749333
30
0
11
-165.625
21
9.7427857925749333
31
0
6
DASHED
0
LINE
5
131
100
AcDbEntity
8
0
100
AcDbLine
10
-165.625
20
-6.2786841774371718
30
0
11
-167.12500000000003
21
-8.8767603887904905
31
0
0
LINE
5
132
100
AcDbEntity
8
0
100
AcDbLine
10
-154.375
20
-6.2786841774371727
30
0
11
-152.875
21
-8.876760388790494
31
0
0
LINE
5
133
100
AcDbEntity
8
0
100
AcDbLine
10
-165.625
20
6.2786841774371718
30
0
11
-167.125
21
8.8767603887904993
31
0
0
LINE
5
134
100
AcDbEntity
8
0
100
AcDbLine
10
-154.375
20
6.2786841774371656
30
0
11
-152.875
21
8.8767603887904922
31
0
0
LINE
5
135
100
AcDbEntity
8
0
100
AcDbLine
10
9.5000000000000107
20
-14.75
30
0
11
-50.499999999999986
21
-14.75
31
0
0
LINE
5
136
100
AcDbEntity
8
0
100
AcDbLine
10
-172.5
20
-14.75
30
0
11
-112.5
21
-14.75
31
0
0
LINE
5
137
100
AcDbEntity
8
0
100
AcDbLine
10
-50.499999999999986
20
-21.25
30
0
11
-50.499999999999986
21
-24.75
31
0
0
LINE
5
138
100
AcDbEntity
8
0
100
AcDbLine
10
-112.5
20
-14.75
30
0
11
-112.5
21
-24.75
31
0
0
LINE
5
139
100
AcDbEntity
8
0
100
AcDbLine
10
-50.499999999999986
20
-14.75
30
0
11
-52.499999999999993
21
-14.75
31
0
0
LINE
5
140
100
AcDbEntity
8
0
100
AcDbLine
10
-52.499999999999993
20
-14.75
30
0
11
-52.499999999999993
21
-17.25
31
0
0
LINE
5
141
100
AcDbEntity
8
0
100
AcDbLine
10
-50.499999999999986
20
-14.75
30
0
11
-48.499999999999986
21
-14.75
31
0
0
LINE
5
142
100
AcDbEntity
8
0
100
AcDbLine
10
-48.499999999999986
20
-14.75
30
0
11
-48.499999999999986
21
-17.25
31
0
0
LINE
5
143
100
AcDbEntity
8
0
100
AcDbLine
10
-54.499999999999993
20
-19.25
30
0
11
-54.499999999999993
21
-21.25
31
0
0
LINE
5
144
100
AcDbEntity
8
0
100
AcDbLine
10
-54.499999999999993
20
-21.25
30
0
11
-50.499999999999986
21
-21.25
31
0
0
LINE
5
145
100
AcDbEntity
8
0
100
AcDbLine
10
-50.499999999999986
20
-21.25
30
0
11
-50.499999999999986
21
-17.25
31
0
0
LINE
5
146
100
AcDbEntity
8
0
100
AcDbLine
10
-46.499999999999986
20
-19.25
30
0
11
-46.499999999999986
21
-21.25
31
0
0
LINE
5
147
100
AcDbEntity
8
0
100
AcDbLine
10
-46.499999999999986
20
-21.25
30
0
11
-50.499999999999986
21
-21.25
31
0
0
LINE
5
148
100
AcDbEntity
8
0
100
AcDbLine
10
-46.499999999999986
20
-21.25
30
0
11
-46.499999999999986
21
-19.25
31
0
0
LINE
5
149
100
AcDbEntity
8
0
100
AcDbLine
10
-46.499999999999986
20
-19.25
30
0
11
-48.499999999999986
21
-17.25
31
0
0
LINE
5
150
100
AcDbEntity
8
0
100
AcDbLine
10
-54.499999999999993
20
-21.25
30
0
11
-54.499999999999993
21
-19.25
31
0
0
LINE
5
151
100
AcDbEntity
8
0
100
AcDbLine
10
-54.499999999999993
20
-19.25
30
0
11
-52.499999999999993
21
-17.25
31
0
0
LINE
5
152
100
AcDbEntity
8
0
100
AcDbLine
10
-52.499999999999993
20
-14.75
30
0
11
-52.499999999999993
21
-17.25
31
0
0
LINE
5
153
100
AcDbEntity
8
0
100
AcDbLine
10
-48.499999999999986
20
-14.75
30
0
11
-48.499999999999986
21
-17.25
31
0
0
LINE
5
154
100
AcDbEntity
8
0
100
AcDbLine
10
-46.499999999999986
20
-19.25
30
0
11
-48.499999999999986
21
-17.25
31
0
0
LINE
5
155
100
AcDbEntity
8
0
100
AcDbLine
10
-46.499999999999986
20
-21.25
30
0
11
-46.499999999999986
21
-19.25
31
0
0
LINE
5
156
100
AcDbEntity
8
0
100
AcDbLine
10
-46.499999999999986
20
-21.25
30
0
11
-50.499999999999986
21
-21.25
31
0
0
LINE
5
157
100
AcDbEntity
8
0
100
AcDbLine
10
-54.499999999999993
20
-21.25
30
0
11
-50.499999999999986
21
-21.25
31
0
0
LINE
5
158
100
AcDbEntity
8
0
100
AcDbLine
10
-54.499999999999993
20
-19.25
30
0
11
-54.499999999999993
21
-21.25
31
0
0
LINE
5
159
100
AcDbEntity
8
0
100
AcDbLine
10
-54.499999999999993
20
-19.25
30
0
11
-52.499999999999993
21
-17.25
31
0
0
LINE
5
160
100
AcDbEntity
8
0
100
AcDbLine
10
-112.5
20
-14.75
30
0
11
-112.5
21
-21.25
31
0
0
LINE
5
161
100
AcDbEntity
8
0
100
AcDbLine
10
-114.5
20
-14.75
30
0
11
-114.5
21
-17.25
31
0
0
LINE
5
162
100
AcDbEntity
8
0
100
AcDbLine
10
-110.5
20
-14.75
30
0
11
-110.5
21
-17.25
31
0
0
LINE
5
163
100
AcDbEntity
8
0
100
AcDbLine
10
-108.5
20
-19.250000000000004
30
0
11
-110.5
21
-17.25
31
0
0
LINE
5
164
100
AcDbEntity
8
0
100
AcDbLine
10
-108.5
20
-21.250000000000004
30
0
11
-108.5
21
-19.250000000000004
31
0
0
LINE
5
165
100
AcDbEntity
8
0
100
AcDbLine
10
-108.5
20
-21.250000000000004
30
0
11
-112.5
21
-21.25
31
0
0
LINE
5
166
100
AcDbEntity
8
0
100
AcDbLine
10
-116.5
20
-21.25
30
0
11
-112.5
21
-21.25
31
0
0
LINE
5
167
100
AcDbEntity
8
0
100
AcDbLine
10
-116.5
20
-19.25
30
0
11
-116.5
21
-21.25
31
0
0
LINE
5
168
100
AcDbEntity
8
0
100
AcDbLine
10
-116.5
20
-19.25
30
0
11
-114.5
21
-17.25
31
0
0
LINE
5
169
100
AcDbEntity
8
0
100
AcDbLine
10
-50.499999999999986
20
-14.75
30
0
11
-50.499999999999986
21
14.75
31
0
0
LINE
5
170
100
AcDbEntity
8
0
100
AcDbLine
10
-112.5
20
-14.75
30
0
11
-112.5
21
14.75
31
0
0
LINE
5
171
100
AcDbEntity
8
0
100
AcDbLine
10
-50.499999999999986
20
14.75
30
0
11
-48.374999999999986
21
14.75
31
0
0
LINE
5
172
100
AcDbEntity
8
0
100
AcDbLine
10
-54.499999999999993
20
10.250000000000002
30
0
11
-54.624999999999993
21
10.250000000000002
31
0
0
LINE
5
173
100
AcDbEntity
8
0
100
AcDbLine
10
-52.499999999999993
20
14.75
30
0
11
-52.624999999999993
21
14.75
31
0
0
LINE
5
174
100
AcDbEntity
8
0
100
AcDbLine
10
-52.624999999999993
20
14.75
30
0
11
-52.624999999999993
21
12.300911694529228
31
0
0
LINE
5
175
100
AcDbEntity
8
0
100
AcDbLine
10
-52.624999999999993
20
12.300911694529228
30
0
11
-54.588388347648319
21
10.338388347648319
31
0
0
LINE
5
176
100
AcDbEntity
8
0
100
AcDbLine
10
-54.624999999999993
20
10.250000000000002
30
0
11
-54.624999999999993
21
8.2500000000000018
31
0
0
LINE
5
177
100
AcDbEntity
8
0
100
AcDbLine
10
-54.624999999999993
20
8.2500000000000018
30
0
11
-54.624999999999993
21
8.1250000000000018
31
0
0
LINE
5
178
100
AcDbEntity
8
0
100
AcDbLine
10
-54.624999999999993
20
8.1250000000000018
30
0
11
-46.374999999999986
21
8.1250000000000018
31
0
0
LINE
5
179
100
AcDbEntity
8
0
100
AcDbLine
10
-46.374999999999986
20
8.1250000000000018
30
0
11
-46.374999999999986
21
10.25
31
0
0
LINE
5
180
100
AcDbEntity
8
0
100
AcDbLine
10
-46.411611652359696
20
10.338388347640288
30
0
11
-48.374999999999986
21
12.301776695296349
31
0
0
LINE
5
181
100
AcDbEntity
8
0
100
AcDbLine
10
-48.374999999999986
20
12.301776695296349
30
0
11
-48.374999999999986
21
14.75
31
0
0
LINE
5
182
100
AcDbEntity
8
0
100
AcDbLine
10
-46.374999999999986
20
10.25
30
0
11
-46.374999999999986
21
10.301776695280287
31
0
0
LINE
5
183
100
AcDbEntity
8
0
100
AcDbLine
10
-46.411611652359696
20
10.338388347640288
30
0
11
-46.374999999999986
21
10.301776695280287
31
0
0
LINE
5
184
100
AcDbEntity
8
0
100
AcDbLine
10
-54.624999999999993
20
10.250000000000002
30
0
11
-54.624999999999993
21
10.301792825120078
31
0
0
LINE
5
185
100
AcDbEntity
8
0
100
AcDbLine
10
-54.588388347648319
20
10.338388347648319
30
0
11
-54.624999999999993
21
10.301792825120078
31
0
0
LINE
5
186
100
AcDbEntity
8
0
100
AcDbLine
10
-116.62500000000001
20
8.1250000000000018
30
0
11
-108.37499999999999
21
8.1250000000000018
31
0
0
LINE
5
187
100
AcDbEntity
8
0
100
AcDbLine
10
-116.62500000000001
20
10.250000000000002
30
0
11
-116.62500000000001
21
8.2500000000000018
31
0
0
LINE
5
188
100
AcDbEntity
8
0
100
AcDbLine
10
-114.625
20
12.300911694529228
30
0
11
-116.58838834764833
21
10.338388347648319
31
0
0
LINE
5
189
100
AcDbEntity
8
0
100
AcDbLine
10
-114.625
20
14.75
30
0
11
-114.625
21
12.300911694529228
31
0
0
LINE
5
190
100
AcDbEntity
8
0
100
AcDbLine
10
-110.375
20
12.301776695296349
30
0
11
-110.375
21
14.75
31
0
0
LINE
5
191
100
AcDbEntity
8
0
100
AcDbLine
10
-108.41161165235971
20
10.338388347640288
30
0
11
-110.375
21
12.301776695296349
31
0
0
LINE
5
192
100
AcDbEntity
8
0
100
AcDbLine
10
-108.37499999999999
20
8.1250000000000018
30
0
11
-108.37499999999999
21
10.25
31
0
0
LINE
5
193
100
AcDbEntity
8
0
100
AcDbLine
10
-116.62500000000001
20
8.1250000000000018
30
0
11
-116.62500000000001
21
10.301792825120067
31
0
0
LINE
5
194
100
AcDbEntity
8
0
100
AcDbLine
10
-116.58838834764833
20
10.338388347648319
30
0
11
-116.62500000000001
21
10.301792825120067
31
0
0
LINE
5
195
100
AcDbEntity
8
0
100
AcDbLine
10
-108.37499999999999
20
10.25
30
0
11
-108.37499999999999
21
10.301776695280569
31
0
0
LINE
5
196
100
AcDbEntity
8
0
100
AcDbLine
10
-108.41161165235971
20
10.338388347640288
30
0
11
-108.37499999999999
21
10.301776695280569
31
0
0
LINE
5
197
100
AcDbEntity
8
0
100
AcDbLine
10
-108.41161165235971
20
10.338388347640288
30
0
11
-108.37499999999999
21
10.338388347640288
31
0
6
DASHED
0
ENDSEC
0
SECTION
2
OBJECTS
0
DICTIONARY
5
C
100
AcDbDictionary
3
ACAD_GROUP
350
D
3
ACAD_MLINESTYLE
350
17
0
DICTIONARY
5
D
100
AcDbDictionary
0
DICTIONARY
5
1A
330
C
100
AcDbDictionary
0
DICTIONARY
5
17
100
AcDbDictionary
0
ENDSEC
0
EOF
