0
SECTION
2
HEADER
9
$INSUNITS
70
4
9
$ACADVER
1
AC1014
9
$HANDSEED
5
FFFF
0
ENDSEC
0
SECTION
2
TABLES
0
TABLE
2
VPORT
5
8
100
AcDbSymbolTable
0
ENDTAB
0
TABLE
2
LTYPE
5
5
100
AcDbSymbolTable
0
LTYPE
5
14
100
AcDbSymbolTableRecord
100
AcDbLinetypeTableRecord
2
BYBLOCK
70
0
0
LTYPE
5
15
100
AcDbSymbolTableRecord
100
AcDbLinetypeTableRecord
2
BYLAYER
70
0
0
LTYPE
5
16
100
AcDbSymbolTableRecord
100
AcDbLinetypeTableRecord
2
DASHED
70
0
3
Dashed __ __ __ __ __ __ __ __ __ __ __ __ __ _
72
65
73
2
40
0.75
49
0.5
74
0
49
-0.25
74
0
0
ENDTAB
0
TABLE
2
LAYER
5
2
100
AcDbSymbolTable
70
2
0
LAYER
5
50
100
AcDbSymbolTableRecord
100
AcDbLayerTableRecord
2
0
70
0
62
7
6
CONTINUOUS
0
ENDTAB
0
TABLE
2
STYLE
5
3
100
AcDbSymbolTable
70
1
0
STYLE
5
11
100
AcDbSymbolTableRecord
100
AcDbTextStyleTableRecord
2
STANDARD
70
0
0
ENDTAB
0
TABLE
2
VIEW
5
6
100
AcDbSymbolTable
70
0
0
ENDTAB
0
TABLE
2
UCS
5
7
100
AcDbSymbolTable
70
0
0
ENDTAB
0
TABLE
2
APPID
5
9
100
AcDbSymbolTable
70
2
0
APPID
5
12
100
AcDbSymbolTableRecord
100
AcDbRegAppTableRecord
2
ACAD
70
0
0
ENDTAB
0
TABLE
2
DIMSTYLE
5
A
100
AcDbSymbolTable
70
1
0
ENDTAB
0
TABLE
2
BLOCK_RECORD
5
1
100
AcDbSymbolTable
70
1
0
BLOCK_RECORD
5
1F
100
AcDbSymbolTableRecord
100
AcDbBlockTableRecord
2
*MODEL_SPACE
0
BLOCK_RECORD
5
1B
100
AcDbSymbolTableRecord
100
AcDbBlockTableRecord
2
*PAPER_SPACE
0
ENDTAB
0
ENDSEC
0
SECTION
2
BLOCKS
0
BLOCK
5
20
100
AcDbEntity
100
AcDbBlockBegin
2
*MODEL_SPACE
0
ENDBLK
5
21
100
AcDbEntity
100
AcDbBlockEnd
0
BLOCK
5
1C
100
AcDbEntity
100
AcDbBlockBegin
2
*PAPER_SPACE
0
ENDBLK
5
1D
100
AcDbEntity
100
AcDbBlockEnd
0
ENDSEC
0
SECTION
2
ENTITIES
0
POINT
5
100
100
AcDbEntity
8
0
100
AcDbPoint
10
0
20
0
30
0
0
LINE
5
101
100
AcDbEntity
8
0
100
AcDbLine
10
-45.000000000000007
20
0
30
0
11
-42
21
0
31
0
0
SPLINE
5
102
100
AcDbEntity
8
0
100
AcDbSpline
70
0
71
3
72
20
73
16
74
0
42
0.000000001
43
0.0000000001
44
0.0000000001
40
0
40
0
40
0
40
0
40
0.3545693085374414
40
0.3545693085374414
40
0.3545693085374414
40
0.7068118312089654
40
0.7068118312089654
40
0.7068118312089654
40
1.056463013836582
40
1.056463013836582
40
1.056463013836582
40
1.4030060671499138
40
1.4030060671499138
40
1.4030060671499138
40
1.5079644737231006
40
1.5079644737231006
40
1.5079644737231006
40
1.5079644737231006
10
-42
20
0
30
0
10
-47.680766784322522
20
4.9639703195241793
30
0
10
-52.464973770965685
20
11.982278982415826
30
0
10
-55.369639363428519
20
20.49868941503091
30
0
10
-58.255243704161366
20
28.959212710925964
30
0
10
-59.273868299637769
20
38.889420428857406
30
0
10
-57.772438186477196
20
49.337676171795962
30
0
10
-56.282053633477425
20
59.709067306536959
30
0
10
-52.301339182005492
20
70.578164480492447
30
0
10
-45.642889581849857
20
80.775053870736883
30
0
10
-39.043628462723831
20
90.881300779551225
30
0
10
-29.812689013199293
20
100.31295689650504
30
0
10
-18.276121081496314
20
107.89831095678493
30
0
10
-14.782010390608926
20
110.19570710381021
30
0
10
-11.079979475259236
20
112.32432737907102
30
0
10
-7.1882586757158107
20
114.25409987046849
30
0
0
LINE
5
103
100
AcDbEntity
8
0
100
AcDbLine
10
-7.1882586757158116
20
114.25409987046849
30
0
11
-7.3766302343037538
21
117.24818005575335
31
0
0
SPLINE
5
104
100
AcDbEntity
8
0
100
AcDbSpline
70
0
71
3
72
20
73
16
74
0
42
0.000000001
43
0.0000000001
44
0.0000000001
40
-1.5079644737231006
40
-1.5079644737231006
40
-1.5079644737231006
40
-1.5079644737231006
40
-1.1625208232583706
40
-1.1625208232583706
40
-1.1625208232583706
40
-0.81254203719459239
40
-0.81254203719459239
40
-0.81254203719459239
40
-0.46104358721083066
40
-0.46104358721083066
40
-0.46104358721083066
40
-0.10684587313959037
40
-0.10684587313959037
40
-0.10684587313959037
40
0
40
0
40
0
40
0
10
-7.3766302343037538
20
117.24818005575335
30
0
10
-20.529992165374004
20
110.87513872245138
30
0
10
-31.587046043627929
20
102.2763835497659
30
0
10
-40.050640286231683
20
92.584980726489761
30
0
10
-48.625348302366653
20
82.766344920672424
30
0
10
-54.537079681357881
20
71.840891955442629
30
0
10
-57.800613984756936
20
61.026843895196244
30
0
10
-61.078319076586567
20
50.165839506965085
30
0
10
-61.690545348666824
20
39.430988038170462
30
0
10
-60.14770604235764
20
29.878324737740272
30
0
10
-58.59301880120703
20
20.252303614571979
30
0
10
-54.860824713839293
20
11.837305684619906
30
0
10
-49.849622307048314
20
5.3465875425230447
30
0
10
-48.337962927662517
20
3.3886233331441185
30
0
10
-46.711841585152968
20
1.6026880970938557
30
0
10
-45.000000000000007
20
0
30
0
0
SPLINE
5
105
100
AcDbEntity
8
0
100
AcDbSpline
70
0
71
3
72
20
73
16
74
0
42
0.000000001
43
0.0000000001
44
0.0000000001
40
0
40
0
40
0
40
0
40
0.3545693085374414
40
0.3545693085374414
40
0.3545693085374414
40
0.7068118312089654
40
0.7068118312089654
40
0.7068118312089654
40
1.056463013836582
40
1.056463013836582
40
1.056463013836582
40
1.4030060671499138
40
1.4030060671499138
40
1.4030060671499138
40
1.5079644737231006
40
1.5079644737231006
40
1.5079644737231006
40
1.5079644737231006
10
-36.373066958946424
20
-20.999999999999996
30
0
10
-43.774740466906657
20
-19.541458991821361
30
0
10
-51.427139585748456
20
-15.855528891478381
30
0
10
-58.200858994627389
20
-9.9324339040103116
30
0
10
-64.930127306920213
20
-4.0482079708215712
30
0
10
-70.777385942488138
20
4.0422918800251573
30
0
10
-74.701237193953403
20
13.84146183522688
30
0
10
-78.596221877018195
20
23.568542306997195
30
0
10
-80.583370623809415
20
34.971813801580261
30
0
10
-79.915428815378519
20
47.13180385318978
30
0
10
-79.253424494415611
20
59.183700972703967
30
0
10
-75.97502448880833
20
71.967224494507121
30
0
10
-69.776740617608596
20
84.304617773260446
30
0
10
-67.899450069177959
20
88.041276544584534
30
0
10
-65.757707388520174
20
91.735731235645829
30
0
10
-63.352264557378021
20
95.352823636492161
30
0
0
LINE
5
106
100
AcDbEntity
8
0
100
AcDbLine
10
-38.971143170299747
20
-22.5
30
0
11
-36.373066958946424
21
-20.999999999999996
31
0
0
SPLINE
5
107
100
AcDbEntity
8
0
100
AcDbSpline
70
0
71
3
72
20
73
16
74
0
42
0.000000001
43
0.0000000001
44
0.0000000001
40
-1.5079644737231006
40
-1.5079644737231006
40
-1.5079644737231006
40
-1.5079644737231006
40
-1.1625208232583706
40
-1.1625208232583706
40
-1.1625208232583706
40
-0.81254203719459239
40
-0.81254203719459239
40
-0.81254203719459239
40
-0.46104358721083066
40
-0.46104358721083066
40
-0.46104358721083066
40
-0.10684587313959037
40
-0.10684587313959037
40
-0.10684587313959037
40
0
40
0
40
0
40
0
10
-65.01243920510808
20
97.851587358622481
30
0
10
-73.217064115935074
20
85.755690699079594
30
0
10
-78.493376079173473
20
72.780423339484173
30
0
10
-80.977362288953984
20
60.155625174916935
30
0
10
-83.493959358052251
20
47.365083128504125
30
0
10
-83.150942429993364
20
34.947497623267502
30
0
10
-80.570222012735712
20
23.950490133648778
30
0
10
-77.978295694258208
20
12.905731876911513
30
0
10
-73.141073464346647
20
3.3029646630425402
30
0
10
-67.028603780910629
20
-4.1984647757747151
30
0
10
-60.869194573550516
20
-11.757499985228764
30
0
10
-53.429520717059937
20
-17.179004921676857
30
0
10
-45.844333058224798
20
-20.294530518141784
30
0
10
-43.556215529118212
20
-21.234347573471748
30
0
10
-41.254985518843768
20
-21.96795218615026
30
0
10
-38.971143170299747
20
-22.5
30
0
0
LINE
5
108
100
AcDbEntity
8
0
100
AcDbLine
10
-63.352264557378021
20
95.352823636492161
30
0
11
-65.01243920510808
21
97.851587358622481
31
0
0
SPLINE
5
109
100
AcDbEntity
8
0
100
AcDbSpline
70
0
71
3
72
20
73
16
74
0
42
0.000000001
43
0.0000000001
44
0.0000000001
40
0
40
0
40
0
40
0
40
0.3545693085374414
40
0.3545693085374414
40
0.3545693085374414
40
0.7068118312089654
40
0.7068118312089654
40
0.7068118312089654
40
1.056463013836582
40
1.056463013836582
40
1.056463013836582
40
1.4030060671499138
40
1.4030060671499138
40
1.4030060671499138
40
1.5079644737231006
40
1.5079644737231006
40
1.5079644737231006
40
1.5079644737231006
10
-21.000000000000007
20
-36.373066958946424
30
0
10
-28.13930779250116
20
-38.81077014738247
30
0
10
-36.609444879487313
20
-39.444860603332629
30
0
10
-45.437205459418209
20
-37.702169579596479
30
0
10
-54.207035733339794
20
-35.970914595994245
30
0
10
-63.316160179662916
20
-31.887965513630725
30
0
10
-71.613900021704069
20
-25.363561022157452
30
0
10
-79.850595940474619
20
-18.887154570481233
30
0
10
-87.273152983585746
20
-10.005206143316947
30
0
10
-92.774693435039637
20
0.85962505535838396
30
0
10
-98.227329435427777
20
11.627876285135624
30
0
10
-101.7799135077064
20
24.337932407696712
30
0
10
-102.58073885475675
20
38.121570339176337
30
0
10
-102.82328693519344
20
42.296257034632262
30
0
10
-102.81571071090508
20
46.566619990550848
30
0
10
-102.54108231220796
20
50.90183531309048
30
0
0
LINE
5
110
100
AcDbEntity
8
0
100
AcDbLine
10
-22.500000000000007
20
-38.971143170299747
30
0
11
-21.000000000000007
21
-36.373066958946424
31
0
0
SPLINE
5
111
100
AcDbEntity
8
0
100
AcDbSpline
70
0
71
3
72
20
73
16
74
0
42
0.000000001
43
0.0000000001
44
0.0000000001
40
-1.5079644737231006
40
-1.5079644737231006
40
-1.5079644737231006
40
-1.5079644737231006
40
-1.1625208232583706
40
-1.1625208232583706
40
-1.1625208232583706
40
-0.81254203719459239
40
-0.81254203719459239
40
-0.81254203719459239
40
-0.46104358721083066
40
-0.46104358721083066
40
-0.46104358721083066
40
-0.10684587313959037
40
-0.10684587313959037
40
-0.10684587313959037
40
0
40
0
40
0
40
0
10
-105.22821759292624
20
52.235740850645278
30
0
10
-106.28568286445361
20
37.658074606516315
30
0
10
-104.36746938311208
20
23.783007470592423
30
0
10
-100.20626546114862
20
11.607618437535789
30
0
10
-95.990431430870785
20
-0.727614437379831
30
0
10
-89.484577304625375
20
-11.310050474550742
30
0
10
-81.751104118405706
20
-19.543378117539461
30
0
10
-73.98405095349807
20
-27.812456187293112
30
0
10
-64.993510011709361
20
-33.710085426176171
30
0
10
-55.949241266582931
20
-37.150279043170357
30
0
10
-46.835518815978261
20
-40.61689095897853
30
0
10
-37.681819792162436
20
-41.592215032440023
30
0
10
-29.55509178890653
20
-40.497745515701745
30
0
10
-27.103615354190769
20
-40.167592195974102
30
0
10
-24.743889399002708
20
-39.6522974217499
30
0
10
-22.500000000000007
20
-38.971143170299747
30
0
0
LINE
5
112
100
AcDbEntity
8
0
100
AcDbLine
10
-102.54108231220796
20
50.90183531309048
30
0
11
-105.22821759292624
21
52.235740850645278
31
0
0
SPLINE
5
113
100
AcDbEntity
8
0
100
AcDbSpline
70
0
71
3
72
20
73
16
74
0
42
0.000000001
43
0.0000000001
44
0.0000000001
40
0
40
0
40
0
40
0
40
0.3545693085374414
40
0.3545693085374414
40
0.3545693085374414
40
0.7068118312089654
40
0.7068118312089654
40
0.7068118312089654
40
1.056463013836582
40
1.056463013836582
40
1.056463013836582
40
1.4030060671499138
40
1.4030060671499138
40
1.4030060671499138
40
1.5079644737231006
40
1.5079644737231006
40
1.5079644737231006
40
1.5079644737231006
10
9.3258734068513149e-15
20
-42.000000000000014
30
0
10
-4.9639703195241704
20
-47.680766784322529
30
0
10
-11.982278982415817
20
-52.464973770965699
30
0
10
-20.498689415030903
20
-55.36963936342854
30
0
10
-28.959212710925954
20
-58.255243704161387
30
0
10
-38.889420428857406
20
-59.27386829963779
30
0
10
-49.337676171795962
20
-57.772438186477217
30
0
10
-59.709067306536959
20
-56.282053633477446
30
0
10
-70.578164480492461
20
-52.301339182005513
30
0
10
-80.775053870736883
20
-45.642889581849886
30
0
10
-90.881300779551253
20
-39.043628462723859
30
0
10
-100.31295689650506
20
-29.812689013199321
30
0
10
-107.89831095678494
20
-18.276121081496342
30
0
10
-110.19570710381024
20
-14.782010390608953
30
0
10
-112.32432737907104
20
-11.079979475259263
30
0
10
-114.25409987046851
20
-7.1882586757158373
30
0
0
LINE
5
114
100
AcDbEntity
8
0
100
AcDbLine
10
9.9920072216264104e-15
20
-45.000000000000014
30
0
11
9.3258734068513149e-15
21
-42.000000000000014
31
0
0
SPLINE
5
115
100
AcDbEntity
8
0
100
AcDbSpline
70
0
71
3
72
20
73
16
74
0
42
0.000000001
43
0.0000000001
44
0.0000000001
40
-1.5079644737231006
40
-1.5079644737231006
40
-1.5079644737231006
40
-1.5079644737231006
40
-1.1625208232583706
40
-1.1625208232583706
40
-1.1625208232583706
40
-0.81254203719459239
40
-0.81254203719459239
40
-0.81254203719459239
40
-0.46104358721083066
40
-0.46104358721083066
40
-0.46104358721083066
40
-0.10684587313959037
40
-0.10684587313959037
40
-0.10684587313959037
40
0
40
0
40
0
40
0
10
-117.24818005575337
20
-7.3766302343037804
30
0
10
-110.8751387224514
20
-20.529992165374033
30
0
10
-102.27638354976591
20
-31.587046043627961
30
0
10
-92.584980726489761
20
-40.050640286231712
30
0
10
-82.766344920672424
20
-48.625348302366682
30
0
10
-71.840891955442629
20
-54.537079681357909
30
0
10
-61.026843895196251
20
-57.800613984756957
30
0
10
-50.165839506965078
20
-61.078319076586595
30
0
10
-39.430988038170455
20
-61.690545348666852
30
0
10
-29.878324737740265
20
-60.147706042357669
30
0
10
-20.252303614571971
20
-58.593018801207045
30
0
10
-11.837305684619896
20
-54.8608247138393
30
0
10
-5.3465875425230349
20
-49.849622307048321
30
0
10
-3.3886233331441087
20
-48.337962927662524
30
0
10
-1.6026880970938455
20
-46.711841585152982
30
0
10
9.9920072216264104e-15
20
-45.000000000000014
30
0
0
LINE
5
116
100
AcDbEntity
8
0
100
AcDbLine
10
-114.25409987046851
20
-7.1882586757158382
30
0
11
-117.24818005575337
21
-7.3766302343037804
31
0
0
SPLINE
5
117
100
AcDbEntity
8
0
100
AcDbSpline
70
0
71
3
72
20
73
16
74
0
42
0.000000001
43
0.0000000001
44
0.0000000001
40
0
40
0
40
0
40
0
40
0.3545693085374414
40
0.3545693085374414
40
0.3545693085374414
40
0.7068118312089654
40
0.7068118312089654
40
0.7068118312089654
40
1.056463013836582
40
1.056463013836582
40
1.056463013836582
40
1.4030060671499138
40
1.4030060671499138
40
1.4030060671499138
40
1.5079644737231006
40
1.5079644737231006
40
1.5079644737231006
40
1.5079644737231006
10
20.999999999999993
20
-36.373066958946431
30
0
10
19.541458991821354
20
-43.774740466906657
30
0
10
15.85552889147837
20
-51.427139585748456
30
0
10
9.9324339040103009
20
-58.200858994627396
30
0
10
4.0482079708215579
20
-64.930127306920213
30
0
10
-4.0422918800251706
20
-70.777385942488152
30
0
10
-13.841461835226898
20
-74.701237193953418
30
0
10
-23.568542306997205
20
-78.596221877018195
30
0
10
-34.971813801580275
20
-80.583370623809401
30
0
10
-47.131803853189794
20
-79.915428815378505
30
0
10
-59.183700972703981
20
-79.253424494415597
30
0
10
-71.96722449450715
20
-75.975024488808316
30
0
10
-84.304617773260446
20
-69.776740617608567
30
0
10
-88.041276544584534
20
-67.899450069177945
30
0
10
-91.735731235645858
20
-65.75770738852016
30
0
10
-95.352823636492175
20
-63.352264557378
30
0
0
LINE
5
118
100
AcDbEntity
8
0
100
AcDbLine
10
22.499999999999996
20
-38.971143170299754
30
0
11
20.999999999999993
21
-36.373066958946431
31
0
0
SPLINE
5
119
100
AcDbEntity
8
0
100
AcDbSpline
70
0
71
3
72
20
73
16
74
0
42
0.000000001
43
0.0000000001
44
0.0000000001
40
-1.5079644737231006
40
-1.5079644737231006
40
-1.5079644737231006
40
-1.5079644737231006
40
-1.1625208232583706
40
-1.1625208232583706
40
-1.1625208232583706
40
-0.81254203719459239
40
-0.81254203719459239
40
-0.81254203719459239
40
-0.46104358721083066
40
-0.46104358721083066
40
-0.46104358721083066
40
-0.10684587313959037
40
-0.10684587313959037
40
-0.10684587313959037
40
0
40
0
40
0
40
0
10
-97.85158735862251
20
-65.012439205108052
30
0
10
-85.755690699079636
20
-73.217064115935045
30
0
10
-72.780423339484187
20
-78.493376079173458
30
0
10
-60.155625174916949
20
-80.977362288953969
30
0
10
-47.365083128504146
20
-83.493959358052251
30
0
10
-34.947497623267523
20
-83.150942429993364
30
0
10
-23.950490133648788
20
-80.570222012735712
30
0
10
-12.905731876911521
20
-77.978295694258208
30
0
10
-3.3029646630425535
20
-73.141073464346647
30
0
10
4.1984647757747018
20
-67.028603780910629
30
0
10
11.757499985228751
20
-60.869194573550516
30
0
10
17.179004921676842
20
-53.429520717059944
30
0
10
20.29453051814178
20
-45.844333058224798
30
0
10
21.234347573471744
20
-43.556215529118219
30
0
10
21.967952186150256
20
-41.254985518843775
30
0
10
22.499999999999996
20
-38.971143170299754
30
0
0
LINE
5
120
100
AcDbEntity
8
0
100
AcDbLine
10
-95.352823636492175
20
-63.352264557378
30
0
11
-97.85158735862251
21
-65.012439205108052
31
0
0
SPLINE
5
121
100
AcDbEntity
8
0
100
AcDbSpline
70
0
71
3
72
20
73
16
74
0
42
0.000000001
43
0.0000000001
44
0.0000000001
40
0
40
0
40
0
40
0
40
0.3545693085374414
40
0.3545693085374414
40
0.3545693085374414
40
0.7068118312089654
40
0.7068118312089654
40
0.7068118312089654
40
1.056463013836582
40
1.056463013836582
40
1.056463013836582
40
1.4030060671499138
40
1.4030060671499138
40
1.4030060671499138
40
1.5079644737231006
40
1.5079644737231006
40
1.5079644737231006
40
1.5079644737231006
10
36.37306695894641
20
-21.000000000000014
30
0
10
38.810770147382463
20
-28.139307792501175
30
0
10
39.444860603332614
20
-36.60944487948732
30
0
10
37.702169579596458
20
-45.437205459418223
30
0
10
35.970914595994216
20
-54.207035733339801
30
0
10
31.887965513630707
20
-63.31616017966293
30
0
10
25.36356102215742
20
-71.613900021704069
30
0
10
18.887154570481201
20
-79.850595940474605
30
0
10
10.005206143316926
20
-87.273152983585746
30
0
10
-0.85962505535841061
20
-92.774693435039637
30
0
10
-11.627876285135645
20
-98.227329435427762
30
0
10
-24.337932407696744
20
-101.7799135077064
30
0
10
-38.121570339176365
20
-102.58073885475673
30
0
10
-42.296257034632283
20
-102.82328693519344
30
0
10
-46.566619990550876
20
-102.81571071090504
30
0
10
-50.901835313090508
20
-102.54108231220795
30
0
0
LINE
5
122
100
AcDbEntity
8
0
100
AcDbLine
10
38.971143170299733
20
-22.500000000000018
30
0
11
36.37306695894641
21
-21.000000000000014
31
0
0
SPLINE
5
123
100
AcDbEntity
8
0
100
AcDbSpline
70
0
71
3
72
20
73
16
74
0
42
0.000000001
43
0.0000000001
44
0.0000000001
40
-1.5079644737231006
40
-1.5079644737231006
40
-1.5079644737231006
40
-1.5079644737231006
40
-1.1625208232583706
40
-1.1625208232583706
40
-1.1625208232583706
40
-0.81254203719459239
40
-0.81254203719459239
40
-0.81254203719459239
40
-0.46104358721083066
40
-0.46104358721083066
40
-0.46104358721083066
40
-0.10684587313959037
40
-0.10684587313959037
40
-0.10684587313959037
40
0
40
0
40
0
40
0
10
-52.235740850645307
20
-105.2282175929262
30
0
10
-37.658074606516351
20
-106.28568286445358
30
0
10
-23.783007470592459
20
-104.36746938311208
30
0
10
-11.607618437535816
20
-100.2062654611486
30
0
10
0.72761443737980436
20
-95.990431430870757
30
0
10
11.31005047455071
20
-89.484577304625361
30
0
10
19.543378117539429
20
-81.751104118405706
30
0
10
27.812456187293087
20
-73.984050953498084
30
0
10
33.71008542617615
20
-64.993510011709375
30
0
10
37.150279043170336
20
-55.949241266582931
30
0
10
40.616890958978509
20
-46.835518815978276
30
0
10
41.592215032440009
20
-37.681819792162443
30
0
10
40.497745515701737
20
-29.555091788906545
30
0
10
40.167592195974095
20
-27.103615354190783
30
0
10
39.652297421749893
20
-24.743889399002722
30
0
10
38.971143170299733
20
-22.500000000000018
30
0
0
LINE
5
124
100
AcDbEntity
8
0
100
AcDbLine
10
-50.901835313090508
20
-102.54108231220795
30
0
11
-52.235740850645307
21
-105.2282175929262
31
0
0
SPLINE
5
125
100
AcDbEntity
8
0
100
AcDbSpline
70
0
71
3
72
20
73
16
74
0
42
0.000000001
43
0.0000000001
44
0.0000000001
40
0
40
0
40
0
40
0
40
0.3545693085374414
40
0.3545693085374414
40
0.3545693085374414
40
0.7068118312089654
40
0.7068118312089654
40
0.7068118312089654
40
1.056463013836582
40
1.056463013836582
40
1.056463013836582
40
1.4030060671499138
40
1.4030060671499138
40
1.4030060671499138
40
1.5079644737231006
40
1.5079644737231006
40
1.5079644737231006
40
1.5079644737231006
10
42
20
-5.1435165564188841e-15
30
0
10
47.680766784322522
20
-4.9639703195241855
30
0
10
52.464973770965685
20
-11.982278982415833
30
0
10
55.369639363428519
20
-20.49868941503092
30
0
10
58.255243704161366
20
-28.959212710925971
30
0
10
59.273868299637762
20
-38.88942042885742
30
0
10
57.772438186477189
20
-49.33767617179597
30
0
10
56.282053633477418
20
-59.709067306536966
30
0
10
52.301339182005478
20
-70.578164480492461
30
0
10
45.64288958184985
20
-80.775053870736883
30
0
10
39.043628462723817
20
-90.881300779551225
30
0
10
29.812689013199282
20
-100.31295689650504
30
0
10
18.276121081496299
20
-107.89831095678493
30
0
10
14.782010390608914
20
-110.19570710381021
30
0
10
11.079979475259222
20
-112.32432737907102
30
0
10
7.1882586757157965
20
-114.25409987046849
30
0
0
LINE
5
126
100
AcDbEntity
8
0
100
AcDbLine
10
45.000000000000007
20
-5.5109105961630903e-15
30
0
11
42
21
-5.1435165564188841e-15
31
0
0
SPLINE
5
127
100
AcDbEntity
8
0
100
AcDbSpline
70
0
71
3
72
20
73
16
74
0
42
0.000000001
43
0.0000000001
44
0.0000000001
40
-1.5079644737231006
40
-1.5079644737231006
40
-1.5079644737231006
40
-1.5079644737231006
40
-1.1625208232583706
40
-1.1625208232583706
40
-1.1625208232583706
40
-0.81254203719459239
40
-0.81254203719459239
40
-0.81254203719459239
40
-0.46104358721083066
40
-0.46104358721083066
40
-0.46104358721083066
40
-0.10684587313959037
40
-0.10684587313959037
40
-0.10684587313959037
40
0
40
0
40
0
40
0
10
7.3766302343037395
20
-117.24818005575335
30
0
10
20.52999216537399
20
-110.87513872245138
30
0
10
31.587046043627915
20
-102.2763835497659
30
0
10
40.050640286231676
20
-92.584980726489761
30
0
10
48.625348302366646
20
-82.766344920672424
30
0
10
54.537079681357874
20
-71.840891955442629
30
0
10
57.800613984756922
20
-61.026843895196251
30
0
10
61.07831907658656
20
-50.165839506965099
30
0
10
61.690545348666816
20
-39.430988038170469
30
0
10
60.14770604235764
20
-29.878324737740279
30
0
10
58.59301880120703
20
-20.252303614571989
30
0
10
54.860824713839293
20
-11.837305684619912
30
0
10
49.849622307048314
20
-5.34658754252305
30
0
10
48.337962927662517
20
-3.3886233331441247
30
0
10
46.711841585152968
20
-1.6026880970938615
30
0
10
45.000000000000007
20
-5.5109105961630903e-15
30
0
0
LINE
5
128
100
AcDbEntity
8
0
100
AcDbLine
10
7.1882586757157974
20
-114.25409987046849
30
0
11
7.3766302343037395
21
-117.24818005575335
31
0
0
SPLINE
5
129
100
AcDbEntity
8
0
100
AcDbSpline
70
0
71
3
72
20
73
16
74
0
42
0.000000001
43
0.0000000001
44
0.0000000001
40
0
40
0
40
0
40
0
40
0.3545693085374414
40
0.3545693085374414
40
0.3545693085374414
40
0.7068118312089654
40
0.7068118312089654
40
0.7068118312089654
40
1.056463013836582
40
1.056463013836582
40
1.056463013836582
40
1.4030060671499138
40
1.4030060671499138
40
1.4030060671499138
40
1.5079644737231006
40
1.5079644737231006
40
1.5079644737231006
40
1.5079644737231006
10
36.373066958946431
20
20.999999999999993
30
0
10
43.774740466906657
20
19.541458991821354
30
0
10
51.427139585748456
20
15.85552889147837
30
0
10
58.200858994627396
20
9.9324339040103009
30
0
10
64.930127306920213
20
4.0482079708215579
30
0
10
70.777385942488152
20
-4.0422918800251706
30
0
10
74.701237193953418
20
-13.841461835226898
30
0
10
78.596221877018195
20
-23.568542306997205
30
0
10
80.583370623809401
20
-34.971813801580275
30
0
10
79.915428815378505
20
-47.131803853189794
30
0
10
79.253424494415597
20
-59.183700972703981
30
0
10
75.975024488808316
20
-71.96722449450715
30
0
10
69.776740617608567
20
-84.304617773260446
30
0
10
67.899450069177945
20
-88.041276544584534
30
0
10
65.75770738852016
20
-91.735731235645858
30
0
10
63.352264557378
20
-95.352823636492175
30
0
0
LINE
5
130
100
AcDbEntity
8
0
100
AcDbLine
10
38.971143170299754
20
22.499999999999996
30
0
11
36.373066958946431
21
20.999999999999993
31
0
0
SPLINE
5
131
100
AcDbEntity
8
0
100
AcDbSpline
70
0
71
3
72
20
73
16
74
0
42
0.000000001
43
0.0000000001
44
0.0000000001
40
-1.5079644737231006
40
-1.5079644737231006
40
-1.5079644737231006
40
-1.5079644737231006
40
-1.1625208232583706
40
-1.1625208232583706
40
-1.1625208232583706
40
-0.81254203719459239
40
-0.81254203719459239
40
-0.81254203719459239
40
-0.46104358721083066
40
-0.46104358721083066
40
-0.46104358721083066
40
-0.10684587313959037
40
-0.10684587313959037
40
-0.10684587313959037
40
0
40
0
40
0
40
0
10
65.012439205108052
20
-97.85158735862251
30
0
10
73.217064115935045
20
-85.755690699079636
30
0
10
78.493376079173458
20
-72.780423339484187
30
0
10
80.977362288953969
20
-60.155625174916949
30
0
10
83.493959358052251
20
-47.365083128504146
30
0
10
83.150942429993364
20
-34.947497623267523
30
0
10
80.570222012735712
20
-23.950490133648788
30
0
10
77.978295694258208
20
-12.905731876911521
30
0
10
73.141073464346647
20
-3.3029646630425535
30
0
10
67.028603780910629
20
4.1984647757747018
30
0
10
60.869194573550516
20
11.757499985228751
30
0
10
53.429520717059944
20
17.179004921676842
30
0
10
45.844333058224798
20
20.29453051814178
30
0
10
43.556215529118219
20
21.234347573471744
30
0
10
41.254985518843775
20
21.967952186150256
30
0
10
38.971143170299754
20
22.499999999999996
30
0
0
LINE
5
132
100
AcDbEntity
8
0
100
AcDbLine
10
63.352264557378
20
-95.352823636492175
30
0
11
65.012439205108052
21
-97.85158735862251
31
0
0
SPLINE
5
133
100
AcDbEntity
8
0
100
AcDbSpline
70
0
71
3
72
20
73
16
74
0
42
0.000000001
43
0.0000000001
44
0.0000000001
40
0
40
0
40
0
40
0
40
0.3545693085374414
40
0.3545693085374414
40
0.3545693085374414
40
0.7068118312089654
40
0.7068118312089654
40
0.7068118312089654
40
1.056463013836582
40
1.056463013836582
40
1.056463013836582
40
1.4030060671499138
40
1.4030060671499138
40
1.4030060671499138
40
1.5079644737231006
40
1.5079644737231006
40
1.5079644737231006
40
1.5079644737231006
10
21.000000000000011
20
36.37306695894641
30
0
10
28.139307792501164
20
38.810770147382463
30
0
10
36.609444879487313
20
39.444860603332614
30
0
10
45.437205459418209
20
37.702169579596458
30
0
10
54.207035733339794
20
35.970914595994216
30
0
10
63.316160179662916
20
31.887965513630707
30
0
10
71.613900021704069
20
25.36356102215743
30
0
10
79.850595940474591
20
18.887154570481208
30
0
10
87.273152983585746
20
10.005206143316929
30
0
10
92.774693435039609
20
-0.85962505535840172
30
0
10
98.227329435427762
20
-11.627876285135637
30
0
10
101.7799135077064
20
-24.337932407696737
30
0
10
102.58073885475673
20
-38.121570339176358
30
0
10
102.82328693519341
20
-42.296257034632276
30
0
10
102.81571071090504
20
-46.566619990550862
30
0
10
102.54108231220795
20
-50.901835313090501
30
0
0
LINE
5
134
100
AcDbEntity
8
0
100
AcDbLine
10
22.500000000000014
20
38.971143170299733
30
0
11
21.000000000000011
21
36.37306695894641
31
0
0
SPLINE
5
135
100
AcDbEntity
8
0
100
AcDbSpline
70
0
71
3
72
20
73
16
74
0
42
0.000000001
43
0.0000000001
44
0.0000000001
40
-1.5079644737231006
40
-1.5079644737231006
40
-1.5079644737231006
40
-1.5079644737231006
40
-1.1625208232583706
40
-1.1625208232583706
40
-1.1625208232583706
40
-0.81254203719459239
40
-0.81254203719459239
40
-0.81254203719459239
40
-0.46104358721083066
40
-0.46104358721083066
40
-0.46104358721083066
40
-0.10684587313959037
40
-0.10684587313959037
40
-0.10684587313959037
40
0
40
0
40
0
40
0
10
105.2282175929262
20
-52.2357408506453
30
0
10
106.28568286445358
20
-37.658074606516337
30
0
10
104.36746938311205
20
-23.783007470592452
30
0
10
100.2062654611486
20
-11.607618437535807
30
0
10
95.990431430870757
20
0.72761443737981324
30
0
10
89.484577304625361
20
11.310050474550714
30
0
10
81.751104118405692
20
19.54337811753944
30
0
10
73.98405095349807
20
27.812456187293094
30
0
10
64.993510011709361
20
33.710085426176157
30
0
10
55.949241266582924
20
37.150279043170336
30
0
10
46.835518815978276
20
40.616890958978509
30
0
10
37.681819792162436
20
41.592215032440009
30
0
10
29.555091788906537
20
40.497745515701737
30
0
10
27.103615354190772
20
40.167592195974095
30
0
10
24.743889399002711
20
39.652297421749893
30
0
10
22.500000000000014
20
38.971143170299733
30
0
0
LINE
5
136
100
AcDbEntity
8
0
100
AcDbLine
10
102.54108231220795
20
-50.901835313090501
30
0
11
105.2282175929262
21
-52.2357408506453
31
0
0
SPLINE
5
137
100
AcDbEntity
8
0
100
AcDbSpline
70
0
71
3
72
20
73
16
74
0
42
0.000000001
43
0.0000000001
44
0.0000000001
40
0
40
0
40
0
40
0
40
0.3545693085374414
40
0.3545693085374414
40
0.3545693085374414
40
0.7068118312089654
40
0.7068118312089654
40
0.7068118312089654
40
1.056463013836582
40
1.056463013836582
40
1.056463013836582
40
1.4030060671499138
40
1.4030060671499138
40
1.4030060671499138
40
1.5079644737231006
40
1.5079644737231006
40
1.5079644737231006
40
1.5079644737231006
10
9.3258734068513149e-15
20
42
30
0
10
4.96397031952419
20
47.680766784322522
30
0
10
11.982278982415837
20
52.464973770965685
30
0
10
20.498689415030924
20
55.369639363428512
30
0
10
28.959212710925975
20
58.255243704161359
30
0
10
38.88942042885742
20
59.273868299637762
30
0
10
49.33767617179597
20
57.772438186477189
30
0
10
59.709067306536966
20
56.282053633477418
30
0
10
70.578164480492461
20
52.301339182005471
30
0
10
80.775053870736912
20
45.642889581849843
30
0
10
90.881300779551225
20
39.043628462723802
30
0
10
100.31295689650504
20
29.812689013199272
30
0
10
107.89831095678493
20
18.276121081496289
30
0
10
110.19570710381021
20
14.782010390608901
30
0
10
112.32432737907102
20
11.079979475259211
30
0
10
114.25409987046849
20
7.1882586757157849
30
0
0
LINE
5
138
100
AcDbEntity
8
0
100
AcDbLine
10
9.9920072216264104e-15
20
45.000000000000007
30
0
11
9.3258734068513149e-15
21
42
31
0
0
SPLINE
5
139
100
AcDbEntity
8
0
100
AcDbSpline
70
0
71
3
72
20
73
16
74
0
42
0.000000001
43
0.0000000001
44
0.0000000001
40
-1.5079644737231006
40
-1.5079644737231006
40
-1.5079644737231006
40
-1.5079644737231006
40
-1.1625208232583706
40
-1.1625208232583706
40
-1.1625208232583706
40
-0.81254203719459239
40
-0.81254203719459239
40
-0.81254203719459239
40
-0.46104358721083066
40
-0.46104358721083066
40
-0.46104358721083066
40
-0.10684587313959037
40
-0.10684587313959037
40
-0.10684587313959037
40
0
40
0
40
0
40
0
10
117.24818005575335
20
7.376630234303728
30
0
10
110.87513872245138
20
20.529992165373976
30
0
10
102.2763835497659
20
31.587046043627907
30
0
10
92.584980726489775
20
40.050640286231669
30
0
10
82.766344920672438
20
48.625348302366632
30
0
10
71.840891955442629
20
54.537079681357866
30
0
10
61.026843895196251
20
57.800613984756914
30
0
10
50.165839506965106
20
61.07831907658656
30
0
10
39.430988038170476
20
61.690545348666816
30
0
10
29.878324737740286
20
60.147706042357633
30
0
10
20.252303614571993
20
58.593018801207023
30
0
10
11.837305684619917
20
54.860824713839293
30
0
10
5.3465875425230553
20
49.849622307048314
30
0
10
3.3886233331441291
20
48.337962927662517
30
0
10
1.6026880970938659
20
46.711841585152968
30
0
10
9.9920072216264104e-15
20
45.000000000000007
30
0
0
LINE
5
140
100
AcDbEntity
8
0
100
AcDbLine
10
114.25409987046849
20
7.1882586757157867
30
0
11
117.24818005575335
21
7.376630234303728
31
0
0
SPLINE
5
141
100
AcDbEntity
8
0
100
AcDbSpline
70
0
71
3
72
20
73
16
74
0
42
0.000000001
43
0.0000000001
44
0.0000000001
40
0
40
0
40
0
40
0
40
0.3545693085374414
40
0.3545693085374414
40
0.3545693085374414
40
0.7068118312089654
40
0.7068118312089654
40
0.7068118312089654
40
1.056463013836582
40
1.056463013836582
40
1.056463013836582
40
1.4030060671499138
40
1.4030060671499138
40
1.4030060671499138
40
1.5079644737231006
40
1.5079644737231006
40
1.5079644737231006
40
1.5079644737231006
10
-20.999999999999975
20
36.373066958946445
30
0
10
-19.541458991821333
20
43.774740466906664
30
0
10
-15.855528891478345
20
51.427139585748478
30
0
10
-9.9324339040102743
20
58.200858994627403
30
0
10
-4.0482079708215268
20
64.930127306920213
30
0
10
4.0422918800252061
20
70.777385942488138
30
0
10
13.841461835226934
20
74.701237193953403
30
0
10
23.568542306997244
20
78.596221877018181
30
0
10
34.971813801580318
20
80.583370623809373
30
0
10
47.131803853189837
20
79.915428815378476
30
0
10
59.183700972704017
20
79.253424494415569
30
0
10
71.967224494507178
20
75.975024488808288
30
0
10
84.304617773260475
20
69.776740617608525
30
0
10
88.041276544584562
20
67.899450069177902
30
0
10
91.735731235645886
20
65.757707388520117
30
0
10
95.35282363649219
20
63.35226455737795
30
0
0
LINE
5
142
100
AcDbEntity
8
0
100
AcDbLine
10
-22.499999999999972
20
38.971143170299761
30
0
11
-20.999999999999975
21
36.373066958946445
31
0
0
SPLINE
5
143
100
AcDbEntity
8
0
100
AcDbSpline
70
0
71
3
72
20
73
16
74
0
42
0.000000001
43
0.0000000001
44
0.0000000001
40
-1.5079644737231006
40
-1.5079644737231006
40
-1.5079644737231006
40
-1.5079644737231006
40
-1.1625208232583706
40
-1.1625208232583706
40
-1.1625208232583706
40
-0.81254203719459239
40
-0.81254203719459239
40
-0.81254203719459239
40
-0.46104358721083066
40
-0.46104358721083066
40
-0.46104358721083066
40
-0.10684587313959037
40
-0.10684587313959037
40
-0.10684587313959037
40
0
40
0
40
0
40
0
10
97.851587358622524
20
65.012439205108009
30
0
10
85.755690699079651
20
73.217064115935017
30
0
10
72.780423339484216
20
78.493376079173416
30
0
10
60.155625174916985
20
80.977362288953927
30
0
10
47.365083128504182
20
83.493959358052223
30
0
10
34.947497623267552
20
83.15094242999335
30
0
10
23.950490133648831
20
80.570222012735698
30
0
10
12.905731876911567
20
77.978295694258193
30
0
10
3.3029646630425891
20
73.141073464346647
30
0
10
-4.1984647757746663
20
67.028603780910629
30
0
10
-11.757499985228721
20
60.869194573550523
30
0
10
-17.179004921676821
20
53.429520717059951
30
0
10
-20.294530518141755
20
45.844333058224819
30
0
10
-21.234347573471723
20
43.556215529118234
30
0
10
-21.967952186150232
20
41.254985518843782
30
0
10
-22.499999999999972
20
38.971143170299761
30
0
0
LINE
5
144
100
AcDbEntity
8
0
100
AcDbLine
10
95.35282363649219
20
63.352264557377957
30
0
11
97.851587358622524
21
65.012439205108009
31
0
0
SPLINE
5
145
100
AcDbEntity
8
0
100
AcDbSpline
70
0
71
3
72
20
73
16
74
0
42
0.000000001
43
0.0000000001
44
0.0000000001
40
0
40
0
40
0
40
0
40
0.3545693085374414
40
0.3545693085374414
40
0.3545693085374414
40
0.7068118312089654
40
0.7068118312089654
40
0.7068118312089654
40
1.056463013836582
40
1.056463013836582
40
1.056463013836582
40
1.4030060671499138
40
1.4030060671499138
40
1.4030060671499138
40
1.5079644737231006
40
1.5079644737231006
40
1.5079644737231006
40
1.5079644737231006
10
-36.37306695894641
20
21.000000000000018
30
0
10
-38.810770147382463
20
28.139307792501178
30
0
10
-39.444860603332614
20
36.60944487948732
30
0
10
-37.702169579596458
20
45.437205459418223
30
0
10
-35.970914595994216
20
54.207035733339808
30
0
10
-31.887965513630697
20
63.316160179662937
30
0
10
-25.363561022157416
20
71.613900021704083
30
0
10
-18.887154570481194
20
79.850595940474619
30
0
10
-10.005206143316915
20
87.273152983585746
30
0
10
0.85962505535841949
20
92.774693435039637
30
0
10
11.627876285135663
20
98.227329435427777
30
0
10
24.337932407696755
20
101.7799135077064
30
0
10
38.121570339176372
20
102.58073885475673
30
0
10
42.296257034632305
20
102.82328693519344
30
0
10
46.56661999055089
20
102.81571071090504
30
0
10
50.901835313090523
20
102.54108231220795
30
0
0
LINE
5
146
100
AcDbEntity
8
0
100
AcDbLine
10
-38.971143170299733
20
22.500000000000028
30
0
11
-36.37306695894641
21
21.000000000000018
31
0
0
SPLINE
5
147
100
AcDbEntity
8
0
100
AcDbSpline
70
0
71
3
72
20
73
16
74
0
42
0.000000001
43
0.0000000001
44
0.0000000001
40
-1.5079644737231006
40
-1.5079644737231006
40
-1.5079644737231006
40
-1.5079644737231006
40
-1.1625208232583706
40
-1.1625208232583706
40
-1.1625208232583706
40
-0.81254203719459239
40
-0.81254203719459239
40
-0.81254203719459239
40
-0.46104358721083066
40
-0.46104358721083066
40
-0.46104358721083066
40
-0.10684587313959037
40
-0.10684587313959037
40
-0.10684587313959037
40
0
40
0
40
0
40
0
10
52.235740850645328
20
105.2282175929262
30
0
10
37.658074606516365
20
106.28568286445358
30
0
10
23.783007470592466
20
104.36746938311208
30
0
10
11.607618437535834
20
100.20626546114862
30
0
10
-0.72761443737979548
20
95.990431430870785
30
0
10
-11.310050474550701
20
89.484577304625375
30
0
10
-19.543378117539426
20
81.751104118405706
30
0
10
-27.812456187293083
20
73.984050953498084
30
0
10
-33.71008542617615
20
64.993510011709375
30
0
10
-37.150279043170336
20
55.949241266582931
30
0
10
-40.616890958978509
20
46.835518815978283
30
0
10
-41.592215032440009
20
37.68181979216245
30
0
10
-40.497745515701737
20
29.555091788906548
30
0
10
-40.167592195974095
20
27.103615354190786
30
0
10
-39.652297421749893
20
24.743889399002725
30
0
10
-38.971143170299733
20
22.500000000000028
30
0
0
LINE
5
148
100
AcDbEntity
8
0
100
AcDbLine
10
50.901835313090523
20
102.54108231220795
30
0
11
52.235740850645328
21
105.2282175929262
31
0
0
SPLINE
5
149
100
AcDbEntity
8
0
100
AcDbSpline
70
0
71
3
72
20
73
16
74
0
42
0.000000001
43
0.0000000001
44
0.0000000001
40
-1.5079644737231006
40
-1.5079644737231006
40
-1.5079644737231006
40
-1.5079644737231006
40
-1.1625208232583706
40
-1.1625208232583706
40
-1.1625208232583706
40
-0.81254203719459239
40
-0.81254203719459239
40
-0.81254203719459239
40
-0.46104358721083066
40
-0.46104358721083066
40
-0.46104358721083066
40
-0.10684587313959037
40
-0.10684587313959037
40
-0.10684587313959037
40
0
40
0
40
0
40
0
10
-52.235740850645307
20
-105.22821759292623
30
0
10
-37.658074606516358
20
-106.28568286445359
30
0
10
-23.783007470592462
20
-104.36746938311209
30
0
10
-11.607618437535825
20
-100.2062654611486
30
0
10
0.72761443737980436
20
-95.990431430870785
30
0
10
11.310050474550707
20
-89.484577304625375
30
0
10
19.543378117539444
20
-81.751104118405706
30
0
10
27.812456187293098
20
-73.98405095349807
30
0
10
33.710085426176157
20
-64.993510011709375
30
0
10
37.150279043170343
20
-55.949241266582931
30
0
10
40.616890958978516
20
-46.835518815978283
30
0
10
41.592215032440016
20
-37.68181979216245
30
0
10
40.497745515701745
20
-29.555091788906537
30
0
10
40.167592195974095
20
-27.103615354190779
30
0
10
39.6522974217499
20
-24.743889399002725
30
0
10
38.97114317029974
20
-22.500000000000018
30
0
0
SPLINE
5
150
100
AcDbEntity
8
0
100
AcDbSpline
70
0
71
3
72
20
73
16
74
0
42
0.000000001
43
0.0000000001
44
0.0000000001
40
0
40
0
40
0
40
0
40
0.3545693085374414
40
0.3545693085374414
40
0.3545693085374414
40
0.7068118312089654
40
0.7068118312089654
40
0.7068118312089654
40
1.056463013836582
40
1.056463013836582
40
1.056463013836582
40
1.4030060671499138
40
1.4030060671499138
40
1.4030060671499138
40
1.5079644737231006
40
1.5079644737231006
40
1.5079644737231006
40
1.5079644737231006
10
36.373066958946424
20
-21.000000000000018
30
0
10
38.810770147382463
20
-28.139307792501171
30
0
10
39.444860603332614
20
-36.609444879487313
30
0
10
37.702169579596465
20
-45.437205459418223
30
0
10
35.970914595994223
20
-54.207035733339808
30
0
10
31.887965513630711
20
-63.316160179662937
30
0
10
25.36356102215743
20
-71.613900021704083
30
0
10
18.887154570481211
20
-79.850595940474619
30
0
10
10.005206143316926
20
-87.273152983585746
30
0
10
-0.85962505535841061
20
-92.774693435039637
30
0
10
-11.627876285135649
20
-98.227329435427777
30
0
10
-24.337932407696744
20
-101.77991350770641
30
0
10
-38.121570339176365
20
-102.5807388547567
30
0
10
-42.296257034632283
20
-102.82328693519344
30
0
10
-46.566619990550876
20
-102.81571071090505
30
0
10
-50.901835313090515
20
-102.54108231220795
30
0
0
LINE
5
151
100
AcDbEntity
8
0
100
AcDbLine
10
38.97114317029974
20
-22.500000000000018
30
0
11
36.373066958946424
21
-21.000000000000018
31
0
0
LINE
5
152
100
AcDbEntity
8
0
100
AcDbLine
10
-50.901835313090515
20
-102.54108231220795
30
0
11
-52.235740850645307
21
-105.22821759292623
31
0
0
SPLINE
5
153
100
AcDbEntity
8
0
100
AcDbSpline
70
0
71
3
72
20
73
16
74
0
42
0.000000001
43
0.0000000001
44
0.0000000001
40
-1.5079644737231006
40
-1.5079644737231006
40
-1.5079644737231006
40
-1.5079644737231006
40
-1.1625208232583706
40
-1.1625208232583706
40
-1.1625208232583706
40
-0.81254203719459239
40
-0.81254203719459239
40
-0.81254203719459239
40
-0.46104358721083066
40
-0.46104358721083066
40
-0.46104358721083066
40
-0.10684587313959037
40
-0.10684587313959037
40
-0.10684587313959037
40
0
40
0
40
0
40
0
10
7.3766302343037093
20
-117.24818005575337
30
0
10
20.529992165373947
20
-110.8751387224514
30
0
10
31.587046043627879
20
-102.27638354976591
30
0
10
40.050640286231641
20
-92.584980726489775
30
0
10
48.625348302366618
20
-82.766344920672438
30
0
10
54.537079681357845
20
-71.840891955442657
30
0
10
57.800613984756914
20
-61.026843895196272
30
0
10
61.078319076586553
20
-50.165839506965106
30
0
10
61.690545348666809
20
-39.43098803817049
30
0
10
60.147706042357633
20
-29.8783247377403
30
0
10
58.593018801207023
20
-20.252303614572007
30
0
10
54.860824713839293
20
-11.837305684619929
30
0
10
49.849622307048314
20
-5.346587542523058
30
0
10
48.337962927662517
20
-3.3886233331441362
30
0
10
46.711841585152982
20
-1.6026880970938784
30
0
10
45.000000000000007
20
-1.5543122344752192e-14
30
0
0
SPLINE
5
154
100
AcDbEntity
8
0
100
AcDbSpline
70
0
71
3
72
20
73
16
74
0
42
0.000000001
43
0.0000000001
44
0.0000000001
40
0
40
0
40
0
40
0
40
0.3545693085374414
40
0.3545693085374414
40
0.3545693085374414
40
0.7068118312089654
40
0.7068118312089654
40
0.7068118312089654
40
1.056463013836582
40
1.056463013836582
40
1.056463013836582
40
1.4030060671499138
40
1.4030060671499138
40
1.4030060671499138
40
1.5079644737231006
40
1.5079644737231006
40
1.5079644737231006
40
1.5079644737231006
10
42.000000000000014
20
-1.7763568394002505e-14
30
0
10
47.680766784322522
20
-4.963970319524198
30
0
10
52.464973770965685
20
-11.982278982415846
30
0
10
55.369639363428512
20
-20.498689415030931
30
0
10
58.255243704161359
20
-28.959212710925989
30
0
10
59.273868299637762
20
-38.889420428857441
30
0
10
57.772438186477181
20
-49.337676171795984
30
0
10
56.282053633477403
20
-59.709067306536987
30
0
10
52.301339182005449
20
-70.578164480492461
30
0
10
45.642889581849829
20
-80.775053870736912
30
0
10
39.043628462723788
20
-90.881300779551253
30
0
10
29.812689013199254
20
-100.31295689650506
30
0
10
18.276121081496271
20
-107.89831095678494
30
0
10
14.782010390608882
20
-110.19570710381021
30
0
10
11.079979475259192
20
-112.32432737907102
30
0
10
7.1882586757157618
20
-114.25409987046851
30
0
0
LINE
5
155
100
AcDbEntity
8
0
100
AcDbLine
10
45.000000000000007
20
-1.5543122344752192e-14
30
0
11
42.000000000000014
21
-1.7763568394002505e-14
31
0
0
LINE
5
156
100
AcDbEntity
8
0
100
AcDbLine
10
7.1882586757157618
20
-114.25409987046851
30
0
11
7.3766302343037093
21
-117.24818005575337
31
0
0
SPLINE
5
157
100
AcDbEntity
8
0
100
AcDbSpline
70
0
71
3
72
20
73
16
74
0
42
0.000000001
43
0.0000000001
44
0.0000000001
40
-1.5079644737231006
40
-1.5079644737231006
40
-1.5079644737231006
40
-1.5079644737231006
40
-1.1625208232583706
40
-1.1625208232583706
40
-1.1625208232583706
40
-0.81254203719459239
40
-0.81254203719459239
40
-0.81254203719459239
40
-0.46104358721083066
40
-0.46104358721083066
40
-0.46104358721083066
40
-0.10684587313959037
40
-0.10684587313959037
40
-0.10684587313959037
40
0
40
0
40
0
40
0
10
65.012439205108095
20
-97.85158735862251
30
0
10
73.217064115935088
20
-85.755690699079636
30
0
10
78.493376079173487
20
-72.780423339484187
30
0
10
80.977362288953998
20
-60.155625174916949
30
0
10
83.49395935805228
20
-47.365083128504139
30
0
10
83.150942429993378
20
-34.947497623267509
30
0
10
80.570222012735741
20
-23.950490133648774
30
0
10
77.978295694258222
20
-12.905731876911506
30
0
10
73.141073464346661
20
-3.302964663042538
30
0
10
67.028603780910657
20
4.1984647757747178
30
0
10
60.86919457355053
20
11.757499985228767
30
0
10
53.429520717059951
20
17.17900492167686
30
0
10
45.844333058224798
20
20.294530518141794
30
0
10
43.556215529118219
20
21.234347573471759
30
0
10
41.254985518843775
20
21.967952186150267
30
0
10
38.971143170299754
20
22.500000000000007
30
0
0
SPLINE
5
158
100
AcDbEntity
8
0
100
AcDbSpline
70
0
71
3
72
20
73
16
74
0
42
0.000000001
43
0.0000000001
44
0.0000000001
40
0
40
0
40
0
40
0
40
0.3545693085374414
40
0.3545693085374414
40
0.3545693085374414
40
0.7068118312089654
40
0.7068118312089654
40
0.7068118312089654
40
1.056463013836582
40
1.056463013836582
40
1.056463013836582
40
1.4030060671499138
40
1.4030060671499138
40
1.4030060671499138
40
1.5079644737231006
40
1.5079644737231006
40
1.5079644737231006
40
1.5079644737231006
10
36.373066958946438
20
21.000000000000007
30
0
10
43.774740466906664
20
19.541458991821369
30
0
10
51.427139585748463
20
15.855528891478386
30
0
10
58.200858994627403
20
9.9324339040103169
30
0
10
64.930127306920227
20
4.0482079708215739
30
0
10
70.777385942488166
20
-4.0422918800251564
30
0
10
74.701237193953432
20
-13.841461835226884
30
0
10
78.596221877018223
20
-23.568542306997191
30
0
10
80.583370623809415
20
-34.971813801580268
30
0
10
79.915428815378533
20
-47.131803853189787
30
0
10
79.253424494415626
20
-59.183700972703974
30
0
10
75.975024488808344
20
-71.96722449450715
30
0
10
69.77674061760861
20
-84.304617773260446
30
0
10
67.899450069177988
20
-88.041276544584534
30
0
10
65.757707388520188
20
-91.735731235645858
30
0
10
63.352264557378035
20
-95.352823636492175
30
0
0
LINE
5
159
100
AcDbEntity
8
0
100
AcDbLine
10
38.971143170299754
20
22.500000000000007
30
0
11
36.373066958946438
21
21.000000000000007
31
0
0
LINE
5
160
100
AcDbEntity
8
0
100
AcDbLine
10
63.352264557378035
20
-95.352823636492175
30
0
11
65.012439205108095
21
-97.85158735862251
31
0
0
SPLINE
5
161
100
AcDbEntity
8
0
100
AcDbSpline
70
0
71
3
72
20
73
16
74
0
42
0.000000001
43
0.0000000001
44
0.0000000001
40
-1.5079644737231006
40
-1.5079644737231006
40
-1.5079644737231006
40
-1.5079644737231006
40
-1.1625208232583706
40
-1.1625208232583706
40
-1.1625208232583706
40
-0.81254203719459239
40
-0.81254203719459239
40
-0.81254203719459239
40
-0.46104358721083066
40
-0.46104358721083066
40
-0.46104358721083066
40
-0.10684587313959037
40
-0.10684587313959037
40
-0.10684587313959037
40
0
40
0
40
0
40
0
10
105.22821759292623
20
-52.235740850645328
30
0
10
106.28568286445359
20
-37.658074606516379
30
0
10
104.36746938311208
20
-23.783007470592487
30
0
10
100.2062654611486
20
-11.607618437535843
30
0
10
95.990431430870785
20
0.72761443737979548
30
0
10
89.484577304625375
20
11.310050474550692
30
0
10
81.751104118405721
20
19.543378117539433
30
0
10
73.984050953498084
20
27.81245618729308
30
0
10
64.993510011709375
20
33.710085426176143
30
0
10
55.949241266582945
20
37.150279043170336
30
0
10
46.835518815978283
20
40.616890958978509
30
0
10
37.681819792162457
20
41.592215032440009
30
0
10
29.555091788906545
20
40.497745515701737
30
0
10
27.103615354190786
20
40.167592195974095
30
0
10
24.743889399002732
20
39.6522974217499
30
0
10
22.500000000000028
20
38.97114317029974
30
0
0
SPLINE
5
162
100
AcDbEntity
8
0
100
AcDbSpline
70
0
71
3
72
20
73
16
74
0
42
0.000000001
43
0.0000000001
44
0.0000000001
40
0
40
0
40
0
40
0
40
0.3545693085374414
40
0.3545693085374414
40
0.3545693085374414
40
0.7068118312089654
40
0.7068118312089654
40
0.7068118312089654
40
1.056463013836582
40
1.056463013836582
40
1.056463013836582
40
1.4030060671499138
40
1.4030060671499138
40
1.4030060671499138
40
1.5079644737231006
40
1.5079644737231006
40
1.5079644737231006
40
1.5079644737231006
10
21.000000000000021
20
36.373066958946417
30
0
10
28.139307792501178
20
38.810770147382463
30
0
10
36.609444879487327
20
39.444860603332607
30
0
10
45.43720545941823
20
37.702169579596458
30
0
10
54.207035733339808
20
35.970914595994216
30
0
10
63.316160179662944
20
31.887965513630697
30
0
10
71.613900021704097
20
25.363561022157416
30
0
10
79.850595940474619
20
18.887154570481197
30
0
10
87.273152983585746
20
10.005206143316911
30
0
10
92.774693435039637
20
-0.85962505535843281
30
0
10
98.227329435427777
20
-11.627876285135672
30
0
10
101.7799135077064
20
-24.337932407696769
30
0
10
102.5807388547567
20
-38.121570339176387
30
0
10
102.82328693519344
20
-42.296257034632305
30
0
10
102.81571071090505
20
-46.56661999055089
30
0
10
102.54108231220795
20
-50.90183531309053
30
0
0
LINE
5
163
100
AcDbEntity
8
0
100
AcDbLine
10
22.500000000000028
20
38.97114317029974
30
0
11
21.000000000000021
21
36.373066958946417
31
0
0
LINE
5
164
100
AcDbEntity
8
0
100
AcDbLine
10
102.54108231220795
20
-50.90183531309053
30
0
11
105.22821759292623
21
-52.235740850645328
31
0
0
SPLINE
5
165
100
AcDbEntity
8
0
100
AcDbSpline
70
0
71
3
72
20
73
16
74
0
42
0.000000001
43
0.0000000001
44
0.0000000001
40
-1.5079644737231006
40
-1.5079644737231006
40
-1.5079644737231006
40
-1.5079644737231006
40
-1.1625208232583706
40
-1.1625208232583706
40
-1.1625208232583706
40
-0.81254203719459239
40
-0.81254203719459239
40
-0.81254203719459239
40
-0.46104358721083066
40
-0.46104358721083066
40
-0.46104358721083066
40
-0.10684587313959037
40
-0.10684587313959037
40
-0.10684587313959037
40
0
40
0
40
0
40
0
10
117.24818005575335
20
7.3766302343036738
30
0
10
110.8751387224514
20
20.529992165373923
30
0
10
102.27638354976591
20
31.587046043627851
30
0
10
92.584980726489789
20
40.050640286231612
30
0
10
82.766344920672452
20
48.625348302366589
30
0
10
71.840891955442657
20
54.537079681357824
30
0
10
61.026843895196293
20
57.800613984756886
30
0
10
50.165839506965128
20
61.078319076586524
30
0
10
39.430988038170504
20
61.690545348666788
30
0
10
29.878324737740311
20
60.147706042357626
30
0
10
20.252303614572025
20
58.593018801207009
30
0
10
11.837305684619947
20
54.860824713839293
30
0
10
5.3465875425230713
20
49.849622307048307
30
0
10
3.3886233331441495
20
48.337962927662517
30
0
10
1.6026880970938917
20
46.711841585152968
30
0
10
3.1086244689504383e-14
20
45
30
0
0
SPLINE
5
166
100
AcDbEntity
8
0
100
AcDbSpline
70
0
71
3
72
20
73
16
74
0
42
0.000000001
43
0.0000000001
44
0.0000000001
40
0
40
0
40
0
40
0
40
0.3545693085374414
40
0.3545693085374414
40
0.3545693085374414
40
0.7068118312089654
40
0.7068118312089654
40
0.7068118312089654
40
1.056463013836582
40
1.056463013836582
40
1.056463013836582
40
1.4030060671499138
40
1.4030060671499138
40
1.4030060671499138
40
1.5079644737231006
40
1.5079644737231006
40
1.5079644737231006
40
1.5079644737231006
10
2.886579864025407e-14
20
42
30
0
10
4.9639703195242113
20
47.680766784322515
30
0
10
11.982278982415863
20
52.46497377096567
30
0
10
20.498689415030952
20
55.369639363428504
30
0
10
28.959212710926003
20
58.255243704161337
30
0
10
38.889420428857449
20
59.273868299637741
30
0
10
49.337676171796005
20
57.772438186477153
30
0
10
59.709067306536994
20
56.282053633477382
30
0
10
70.578164480492489
20
52.301339182005435
30
0
10
80.775053870736926
20
45.642889581849801
30
0
10
90.881300779551253
20
39.04362846272376
30
0
10
100.31295689650506
20
29.812689013199222
30
0
10
107.89831095678494
20
18.276121081496235
30
0
10
110.19570710381021
20
14.782010390608855
30
0
10
112.32432737907102
20
11.079979475259156
30
0
10
114.25409987046849
20
7.1882586757157174
30
0
0
LINE
5
167
100
AcDbEntity
8
0
100
AcDbLine
10
3.1086244689504383e-14
20
45
30
0
11
2.886579864025407e-14
21
42
31
0
0
LINE
5
168
100
AcDbEntity
8
0
100
AcDbLine
10
114.25409987046849
20
7.1882586757157174
30
0
11
117.24818005575335
21
7.3766302343036738
31
0
0
SPLINE
5
169
100
AcDbEntity
8
0
100
AcDbSpline
70
0
71
3
72
20
73
16
74
0
42
0.000000001
43
0.0000000001
44
0.0000000001
40
-1.5079644737231006
40
-1.5079644737231006
40
-1.5079644737231006
40
-1.5079644737231006
40
-1.1625208232583706
40
-1.1625208232583706
40
-1.1625208232583706
40
-0.81254203719459239
40
-0.81254203719459239
40
-0.81254203719459239
40
-0.46104358721083066
40
-0.46104358721083066
40
-0.46104358721083066
40
-0.10684587313959037
40
-0.10684587313959037
40
-0.10684587313959037
40
0
40
0
40
0
40
0
10
97.85158735862251
20
65.012439205108052
30
0
10
85.755690699079651
20
73.217064115935045
30
0
10
72.780423339484202
20
78.493376079173444
30
0
10
60.155625174916956
20
80.977362288953969
30
0
10
47.365083128504153
20
83.493959358052251
30
0
10
34.94749762326753
20
83.150942429993364
30
0
10
23.950490133648795
20
80.570222012735712
30
0
10
12.905731876911531
20
77.978295694258208
30
0
10
3.3029646630425624
20
73.141073464346647
30
0
10
-4.1984647757746938
20
67.028603780910629
30
0
10
-11.757499985228746
20
60.869194573550516
30
0
10
-17.179004921676835
20
53.429520717059944
30
0
10
-20.294530518141777
20
45.844333058224798
30
0
10
-21.234347573471737
20
43.556215529118219
30
0
10
-21.967952186150249
20
41.254985518843775
30
0
10
-22.499999999999993
20
38.971143170299754
30
0
0
SPLINE
5
170
100
AcDbEntity
8
0
100
AcDbSpline
70
0
71
3
72
20
73
16
74
0
42
0.000000001
43
0.0000000001
44
0.0000000001
40
0
40
0
40
0
40
0
40
0.3545693085374414
40
0.3545693085374414
40
0.3545693085374414
40
0.7068118312089654
40
0.7068118312089654
40
0.7068118312089654
40
1.056463013836582
40
1.056463013836582
40
1.056463013836582
40
1.4030060671499138
40
1.4030060671499138
40
1.4030060671499138
40
1.5079644737231006
40
1.5079644737231006
40
1.5079644737231006
40
1.5079644737231006
10
-20.999999999999986
20
36.373066958946438
30
0
10
-19.541458991821351
20
43.774740466906657
30
0
10
-15.855528891478363
20
51.427139585748456
30
0
10
-9.9324339040102938
20
58.200858994627396
30
0
10
-4.0482079708215499
20
64.930127306920213
30
0
10
4.0422918800251795
20
70.777385942488152
30
0
10
13.841461835226907
20
74.701237193953418
30
0
10
23.568542306997212
20
78.596221877018195
30
0
10
34.971813801580282
20
80.583370623809401
30
0
10
47.131803853189808
20
79.915428815378505
30
0
10
59.183700972703988
20
79.253424494415597
30
0
10
71.96722449450715
20
75.975024488808302
30
0
10
84.304617773260446
20
69.776740617608567
30
0
10
88.041276544584534
20
67.899450069177931
30
0
10
91.735731235645858
20
65.757707388520146
30
0
10
95.352823636492175
20
63.352264557377993
30
0
0
LINE
5
171
100
AcDbEntity
8
0
100
AcDbLine
10
-22.499999999999993
20
38.971143170299754
30
0
11
-20.999999999999986
21
36.373066958946438
31
0
0
LINE
5
172
100
AcDbEntity
8
0
100
AcDbLine
10
95.352823636492175
20
63.352264557377993
30
0
11
97.85158735862251
21
65.012439205108052
31
0
0
SPLINE
5
173
100
AcDbEntity
8
0
100
AcDbSpline
70
0
71
3
72
20
73
16
74
0
42
0.000000001
43
0.0000000001
44
0.0000000001
40
-1.5079644737231006
40
-1.5079644737231006
40
-1.5079644737231006
40
-1.5079644737231006
40
-1.1625208232583706
40
-1.1625208232583706
40
-1.1625208232583706
40
-0.81254203719459239
40
-0.81254203719459239
40
-0.81254203719459239
40
-0.46104358721083066
40
-0.46104358721083066
40
-0.46104358721083066
40
-0.10684587313959037
40
-0.10684587313959037
40
-0.10684587313959037
40
0
40
0
40
0
40
0
10
52.235740850645328
20
105.22821759292623
30
0
10
37.658074606516379
20
106.28568286445359
30
0
10
23.783007470592487
20
104.36746938311208
30
0
10
11.607618437535843
20
100.2062654611486
30
0
10
-0.72761443737979548
20
95.990431430870785
30
0
10
-11.310050474550692
20
89.484577304625375
30
0
10
-19.543378117539433
20
81.751104118405721
30
0
10
-27.81245618729308
20
73.984050953498084
30
0
10
-33.710085426176143
20
64.993510011709375
30
0
10
-37.150279043170336
20
55.949241266582945
30
0
10
-40.616890958978509
20
46.835518815978283
30
0
10
-41.592215032440009
20
37.681819792162457
30
0
10
-40.497745515701737
20
29.555091788906545
30
0
10
-40.167592195974095
20
27.103615354190786
30
0
10
-39.6522974217499
20
24.743889399002732
30
0
10
-38.97114317029974
20
22.500000000000028
30
0
0
SPLINE
5
174
100
AcDbEntity
8
0
100
AcDbSpline
70
0
71
3
72
20
73
16
74
0
42
0.000000001
43
0.0000000001
44
0.0000000001
40
0
40
0
40
0
40
0
40
0.3545693085374414
40
0.3545693085374414
40
0.3545693085374414
40
0.7068118312089654
40
0.7068118312089654
40
0.7068118312089654
40
1.056463013836582
40
1.056463013836582
40
1.056463013836582
40
1.4030060671499138
40
1.4030060671499138
40
1.4030060671499138
40
1.5079644737231006
40
1.5079644737231006
40
1.5079644737231006
40
1.5079644737231006
10
-36.373066958946417
20
21.000000000000021
30
0
10
-38.810770147382463
20
28.139307792501178
30
0
10
-39.444860603332607
20
36.609444879487327
30
0
10
-37.702169579596458
20
45.43720545941823
30
0
10
-35.970914595994216
20
54.207035733339808
30
0
10
-31.887965513630697
20
63.316160179662944
30
0
10
-25.363561022157416
20
71.613900021704097
30
0
10
-18.887154570481197
20
79.850595940474619
30
0
10
-10.005206143316911
20
87.273152983585746
30
0
10
0.85962505535843281
20
92.774693435039637
30
0
10
11.627876285135672
20
98.227329435427777
30
0
10
24.337932407696769
20
101.7799135077064
30
0
10
38.121570339176387
20
102.5807388547567
30
0
10
42.296257034632305
20
102.82328693519344
30
0
10
46.56661999055089
20
102.81571071090505
30
0
10
50.90183531309053
20
102.54108231220795
30
0
0
LINE
5
175
100
AcDbEntity
8
0
100
AcDbLine
10
-38.97114317029974
20
22.500000000000028
30
0
11
-36.373066958946417
21
21.000000000000021
31
0
0
LINE
5
176
100
AcDbEntity
8
0
100
AcDbLine
10
50.90183531309053
20
102.54108231220795
30
0
11
52.235740850645328
21
105.22821759292623
31
0
0
SPLINE
5
177
100
AcDbEntity
8
0
100
AcDbSpline
70
0
71
3
72
20
73
16
74
0
42
0.000000001
43
0.0000000001
44
0.0000000001
40
-1.5079644737231006
40
-1.5079644737231006
40
-1.5079644737231006
40
-1.5079644737231006
40
-1.1625208232583706
40
-1.1625208232583706
40
-1.1625208232583706
40
-0.81254203719459239
40
-0.81254203719459239
40
-0.81254203719459239
40
-0.46104358721083066
40
-0.46104358721083066
40
-0.46104358721083066
40
-0.10684587313959037
40
-0.10684587313959037
40
-0.10684587313959037
40
0
40
0
40
0
40
0
10
-7.3766302343036916
20
117.24818005575335
30
0
10
-20.529992165373933
20
110.8751387224514
30
0
10
-31.587046043627854
20
102.27638354976591
30
0
10
-40.050640286231612
20
92.584980726489775
30
0
10
-48.625348302366604
20
82.766344920672438
30
0
10
-54.537079681357824
20
71.840891955442657
30
0
10
-57.800613984756893
20
61.026843895196272
30
0
10
-61.078319076586524
20
50.165839506965114
30
0
10
-61.690545348666788
20
39.430988038170497
30
0
10
-60.147706042357626
20
29.878324737740304
30
0
10
-58.593018801207002
20
20.252303614572014
30
0
10
-54.860824713839278
20
11.837305684619944
30
0
10
-49.849622307048307
20
5.3465875425230669
30
0
10
-48.33796292766251
20
3.3886233331441451
30
0
10
-46.711841585152968
20
1.6026880970938873
30
0
10
-45
20
2.6645352591003757e-14
30
0
0
SPLINE
5
178
100
AcDbEntity
8
0
100
AcDbSpline
70
0
71
3
72
20
73
16
74
0
42
0.000000001
43
0.0000000001
44
0.0000000001
40
0
40
0
40
0
40
0
40
0.3545693085374414
40
0.3545693085374414
40
0.3545693085374414
40
0.7068118312089654
40
0.7068118312089654
40
0.7068118312089654
40
1.056463013836582
40
1.056463013836582
40
1.056463013836582
40
1.4030060671499138
40
1.4030060671499138
40
1.4030060671499138
40
1.5079644737231006
40
1.5079644737231006
40
1.5079644737231006
40
1.5079644737231006
10
-42
20
2.6645352591003757e-14
30
0
10
-47.680766784322515
20
4.9639703195242069
30
0
10
-52.46497377096567
20
11.98227898241586
30
0
10
-55.369639363428504
20
20.498689415030945
30
0
10
-58.255243704161337
20
28.959212710925996
30
0
10
-59.273868299637741
20
38.889420428857449
30
0
10
-57.77243818647716
20
49.337676171795991
30
0
10
-56.282053633477389
20
59.709067306536987
30
0
10
-52.301339182005435
20
70.578164480492461
30
0
10
-45.642889581849808
20
80.775053870736912
30
0
10
-39.043628462723767
20
90.881300779551253
30
0
10
-29.812689013199225
20
100.31295689650506
30
0
10
-18.276121081496246
20
107.89831095678493
30
0
10
-14.782010390608864
20
110.19570710381021
30
0
10
-11.079979475259165
20
112.32432737907101
30
0
10
-7.1882586757157352
20
114.25409987046849
30
0
0
LINE
5
179
100
AcDbEntity
8
0
100
AcDbLine
10
-45
20
2.6645352591003757e-14
30
0
11
-42
21
2.6645352591003757e-14
31
0
0
LINE
5
180
100
AcDbEntity
8
0
100
AcDbLine
10
-7.1882586757157352
20
114.25409987046849
30
0
11
-7.3766302343036916
21
117.24818005575335
31
0
0
SPLINE
5
181
100
AcDbEntity
8
0
100
AcDbSpline
70
0
71
3
72
20
73
16
74
0
42
0.000000001
43
0.0000000001
44
0.0000000001
40
-1.5079644737231006
40
-1.5079644737231006
40
-1.5079644737231006
40
-1.5079644737231006
40
-1.1625208232583706
40
-1.1625208232583706
40
-1.1625208232583706
40
-0.81254203719459239
40
-0.81254203719459239
40
-0.81254203719459239
40
-0.46104358721083066
40
-0.46104358721083066
40
-0.46104358721083066
40
-0.10684587313959037
40
-0.10684587313959037
40
-0.10684587313959037
40
0
40
0
40
0
40
0
10
-65.012439205108038
20
97.851587358622524
30
0
10
-73.217064115935031
20
85.755690699079651
30
0
10
-78.49337607917343
20
72.780423339484216
30
0
10
-80.977362288953941
20
60.155625174916963
30
0
10
-83.493959358052223
20
47.365083128504168
30
0
10
-83.150942429993364
20
34.947497623267537
30
0
10
-80.570222012735712
20
23.950490133648806
30
0
10
-77.978295694258208
20
12.905731876911538
30
0
10
-73.141073464346647
20
3.3029646630425695
30
0
10
-67.028603780910629
20
-4.1984647757746867
30
0
10
-60.869194573550516
20
-11.757499985228739
30
0
10
-53.429520717059944
20
-17.179004921676832
30
0
10
-45.844333058224805
20
-20.294530518141769
30
0
10
-43.556215529118234
20
-21.234347573471734
30
0
10
-41.254985518843782
20
-21.967952186150246
30
0
10
-38.971143170299754
20
-22.499999999999986
30
0
0
SPLINE
5
182
100
AcDbEntity
8
0
100
AcDbSpline
70
0
71
3
72
20
73
16
74
0
42
0.000000001
43
0.0000000001
44
0.0000000001
40
0
40
0
40
0
40
0
40
0.3545693085374414
40
0.3545693085374414
40
0.3545693085374414
40
0.7068118312089654
40
0.7068118312089654
40
0.7068118312089654
40
1.056463013836582
40
1.056463013836582
40
1.056463013836582
40
1.4030060671499138
40
1.4030060671499138
40
1.4030060671499138
40
1.5079644737231006
40
1.5079644737231006
40
1.5079644737231006
40
1.5079644737231006
10
-36.373066958946438
20
-20.999999999999982
30
0
10
-43.774740466906657
20
-19.541458991821344
30
0
10
-51.427139585748456
20
-15.855528891478359
30
0
10
-58.200858994627396
20
-9.9324339040102867
30
0
10
-64.930127306920213
20
-4.0482079708215437
30
0
10
-70.777385942488152
20
4.0422918800251857
30
0
10
-74.701237193953418
20
13.841461835226914
30
0
10
-78.596221877018181
20
23.568542306997223
30
0
10
-80.583370623809401
20
34.971813801580296
30
0
10
-79.915428815378505
20
47.131803853189815
30
0
10
-79.253424494415597
20
59.183700972704003
30
0
10
-75.975024488808302
20
71.967224494507164
30
0
10
-69.776740617608553
20
84.30461777326046
30
0
10
-67.899450069177931
20
88.041276544584548
30
0
10
-65.757707388520132
20
91.735731235645872
30
0
10
-63.352264557377978
20
95.35282363649219
30
0
0
LINE
5
183
100
AcDbEntity
8
0
100
AcDbLine
10
-38.971143170299754
20
-22.499999999999986
30
0
11
-36.373066958946438
21
-20.999999999999982
31
0
0
LINE
5
184
100
AcDbEntity
8
0
100
AcDbLine
10
-63.352264557377978
20
95.35282363649219
30
0
11
-65.012439205108038
21
97.851587358622524
31
0
0
SPLINE
5
185
100
AcDbEntity
8
0
100
AcDbSpline
70
0
71
3
72
20
73
16
74
0
42
0.000000001
43
0.0000000001
44
0.0000000001
40
-1.5079644737231006
40
-1.5079644737231006
40
-1.5079644737231006
40
-1.5079644737231006
40
-1.1625208232583706
40
-1.1625208232583706
40
-1.1625208232583706
40
-0.81254203719459239
40
-0.81254203719459239
40
-0.81254203719459239
40
-0.46104358721083066
40
-0.46104358721083066
40
-0.46104358721083066
40
-0.10684587313959037
40
-0.10684587313959037
40
-0.10684587313959037
40
0
40
0
40
0
40
0
10
-105.22821759292619
20
52.235740850645385
30
0
10
-106.28568286445358
20
37.658074606516429
30
0
10
-104.36746938311205
20
23.783007470592537
30
0
10
-100.2062654611486
20
11.607618437535887
30
0
10
-95.990431430870785
20
-0.72761443737974218
30
0
10
-89.484577304625375
20
-11.310050474550653
30
0
10
-81.751104118405721
20
-19.543378117539394
30
0
10
-73.984050953498098
20
-27.812456187293044
30
0
10
-64.99351001170939
20
-33.710085426176107
30
0
10
-55.949241266582973
20
-37.1502790431703
30
0
10
-46.835518815978304
20
-40.61689095897848
30
0
10
-37.681819792162486
20
-41.592215032439988
30
0
10
-29.555091788906562
20
-40.497745515701723
30
0
10
-27.103615354190804
20
-40.167592195974073
30
0
10
-24.743889399002754
20
-39.652297421749893
30
0
10
-22.500000000000043
20
-38.971143170299726
30
0
0
SPLINE
5
186
100
AcDbEntity
8
0
100
AcDbSpline
70
0
71
3
72
20
73
16
74
0
42
0.000000001
43
0.0000000001
44
0.0000000001
40
0
40
0
40
0
40
0
40
0.3545693085374414
40
0.3545693085374414
40
0.3545693085374414
40
0.7068118312089654
40
0.7068118312089654
40
0.7068118312089654
40
1.056463013836582
40
1.056463013836582
40
1.056463013836582
40
1.4030060671499138
40
1.4030060671499138
40
1.4030060671499138
40
1.5079644737231006
40
1.5079644737231006
40
1.5079644737231006
40
1.5079644737231006
10
-21.000000000000043
20
-36.373066958946403
30
0
10
-28.139307792501199
20
-38.810770147382442
30
0
10
-36.609444879487341
20
-39.444860603332586
30
0
10
-45.437205459418244
20
-37.702169579596429
30
0
10
-54.207035733339822
20
-35.970914595994181
30
0
10
-63.316160179662958
20
-31.887965513630668
30
0
10
-71.613900021704097
20
-25.363561022157381
30
0
10
-79.850595940474619
20
-18.887154570481151
30
0
10
-87.273152983585746
20
-10.005206143316867
30
0
10
-92.774693435039637
20
0.85962505535847722
30
0
10
-98.227329435427777
20
11.627876285135716
30
0
10
-101.7799135077064
20
24.337932407696808
30
0
10
-102.5807388547567
20
38.121570339176436
30
0
10
-102.82328693519339
20
42.296257034632347
30
0
10
-102.81571071090502
20
46.566619990550947
30
0
10
-102.54108231220791
20
50.901835313090594
30
0
0
LINE
5
187
100
AcDbEntity
8
0
100
AcDbLine
10
-22.500000000000043
20
-38.971143170299726
30
0
11
-21.000000000000043
21
-36.373066958946403
31
0
0
LINE
5
188
100
AcDbEntity
8
0
100
AcDbLine
10
-102.54108231220791
20
50.901835313090594
30
0
11
-105.22821759292619
21
52.235740850645385
31
0
0
SPLINE
5
189
100
AcDbEntity
8
0
100
AcDbSpline
70
0
71
3
72
20
73
16
74
0
42
0.000000001
43
0.0000000001
44
0.0000000001
40
-1.5079644737231006
40
-1.5079644737231006
40
-1.5079644737231006
40
-1.5079644737231006
40
-1.1625208232583706
40
-1.1625208232583706
40
-1.1625208232583706
40
-0.81254203719459239
40
-0.81254203719459239
40
-0.81254203719459239
40
-0.46104358721083066
40
-0.46104358721083066
40
-0.46104358721083066
40
-0.10684587313959037
40
-0.10684587313959037
40
-0.10684587313959037
40
0
40
0
40
0
40
0
10
-117.24818005575337
20
-7.3766302343036649
30
0
10
-110.8751387224514
20
-20.529992165373912
30
0
10
-102.27638354976591
20
-31.58704604362784
30
0
10
-92.584980726489789
20
-40.050640286231605
30
0
10
-82.766344920672452
20
-48.625348302366582
30
0
10
-71.840891955442672
20
-54.537079681357817
30
0
10
-61.026843895196293
20
-57.800613984756886
30
0
10
-50.165839506965135
20
-61.078319076586524
30
0
10
-39.430988038170511
20
-61.690545348666788
30
0
10
-29.878324737740321
20
-60.147706042357626
30
0
10
-20.252303614572025
20
-58.593018801207009
30
0
10
-11.837305684619952
20
-54.860824713839293
30
0
10
-5.3465875425230802
20
-49.849622307048307
30
0
10
-3.388623333144154
20
-48.337962927662517
30
0
10
-1.6026880970938961
20
-46.711841585152968
30
0
10
-3.5527136788005009e-14
20
-45.000000000000007
30
0
0
SPLINE
5
190
100
AcDbEntity
8
0
100
AcDbSpline
70
0
71
3
72
20
73
16
74
0
42
0.000000001
43
0.0000000001
44
0.0000000001
40
0
40
0
40
0
40
0
40
0.3545693085374414
40
0.3545693085374414
40
0.3545693085374414
40
0.7068118312089654
40
0.7068118312089654
40
0.7068118312089654
40
1.056463013836582
40
1.056463013836582
40
1.056463013836582
40
1.4030060671499138
40
1.4030060671499138
40
1.4030060671499138
40
1.5079644737231006
40
1.5079644737231006
40
1.5079644737231006
40
1.5079644737231006
10
-3.3306690738754696e-14
20
-42
30
0
10
-4.9639703195242157
20
-47.680766784322515
30
0
10
-11.982278982415869
20
-52.46497377096567
30
0
10
-20.49868941503096
20
-55.369639363428504
30
0
10
-28.959212710926007
20
-58.255243704161337
30
0
10
-38.889420428857456
20
-59.273868299637741
30
0
10
-49.337676171796012
20
-57.772438186477153
30
0
10
-59.709067306537008
20
-56.282053633477382
30
0
10
-70.578164480492489
20
-52.301339182005428
30
0
10
-80.775053870736926
20
-45.642889581849801
30
0
10
-90.881300779551268
20
-39.043628462723753
30
0
10
-100.31295689650506
20
-29.812689013199215
30
0
10
-107.89831095678494
20
-18.276121081496228
30
0
10
-110.19570710381021
20
-14.782010390608846
30
0
10
-112.32432737907104
20
-11.079979475259139
30
0
10
-114.25409987046851
20
-7.1882586757157085
30
0
0
LINE
5
191
100
AcDbEntity
8
0
100
AcDbLine
10
-3.5527136788005009e-14
20
-45.000000000000007
30
0
11
-3.3306690738754696e-14
21
-42
31
0
0
LINE
5
192
100
AcDbEntity
8
0
100
AcDbLine
10
-114.25409987046851
20
-7.1882586757157085
30
0
11
-117.24818005575337
21
-7.3766302343036649
31
0
0
SPLINE
5
193
100
AcDbEntity
8
0
100
AcDbSpline
70
0
71
3
72
20
73
16
74
0
42
0.000000001
43
0.0000000001
44
0.0000000001
40
0
40
0
40
0
40
0
40
0.3545693085374414
40
0.3545693085374414
40
0.3545693085374414
40
0.7068118312089654
40
0.7068118312089654
40
0.7068118312089654
40
1.056463013836582
40
1.056463013836582
40
1.056463013836582
40
1.4030060671499138
40
1.4030060671499138
40
1.4030060671499138
40
1.5079644737231006
40
1.5079644737231006
40
1.5079644737231006
40
1.5079644737231006
10
-36.373066958946445
20
-20.999999999999986
30
0
10
-38.810770147382485
20
-28.139307792501143
30
0
10
-39.444860603332621
20
-36.609444879487292
30
0
10
-37.702169579596465
20
-45.437205459418202
30
0
10
-35.970914595994216
20
-54.207035733339772
30
0
10
-31.887965513630693
20
-63.316160179662901
30
0
10
-25.363561022157405
20
-71.613900021704055
30
0
10
-18.887154570481172
20
-79.850595940474577
30
0
10
-10.005206143316885
20
-87.273152983585689
30
0
10
0.85962505535845946
20
-92.774693435039552
30
0
10
11.627876285135708
20
-98.22732943542772
30
0
10
24.337932407696805
20
-101.77991350770633
30
0
10
38.121570339176429
20
-102.58073885475662
30
0
10
42.296257034632347
20
-102.82328693519332
30
0
10
46.566619990550947
20
-102.81571071090495
30
0
10
50.901835313090579
20
-102.54108231220783
30
0
0
LINE
5
194
100
AcDbEntity
8
0
100
AcDbLine
10
-38.971143170299754
20
-22.499999999999986
30
0
11
-36.373066958946438
21
-20.999999999999982
31
0
0
SPLINE
5
195
100
AcDbEntity
8
0
100
AcDbSpline
70
0
71
3
72
20
73
16
74
0
42
0.000000001
43
0.0000000001
44
0.0000000001
40
-1.5079644737231006
40
-1.5079644737231006
40
-1.5079644737231006
40
-1.5079644737231006
40
-1.1625208232583706
40
-1.1625208232583706
40
-1.1625208232583706
40
-0.81254203719459239
40
-0.81254203719459239
40
-0.81254203719459239
40
-0.46104358721083066
40
-0.46104358721083066
40
-0.46104358721083066
40
-0.10684587313959037
40
-0.10684587313959037
40
-0.10684587313959037
40
0
40
0
40
0
40
0
10
52.235740850645371
20
-105.22821759292611
30
0
10
37.658074606516429
20
-106.28568286445351
30
0
10
23.783007470592526
20
-104.367469383112
30
0
10
11.607618437535887
20
-100.20626546114852
30
0
10
-0.72761443737975107
20
-95.990431430870714
30
0
10
-11.310050474550666
20
-89.484577304625333
30
0
10
-19.543378117539408
20
-81.751104118405664
30
0
10
-27.812456187293062
20
-73.984050953498041
30
0
10
-33.710085426176136
20
-64.993510011709347
30
0
10
-37.150279043170336
20
-55.949241266582916
30
0
10
-40.616890958978516
20
-46.835518815978254
30
0
10
-41.592215032440023
20
-37.681819792162422
30
0
10
-40.497745515701766
20
-29.555091788906513
30
0
10
-40.167592195974116
20
-27.103615354190755
30
0
10
-39.652297421749921
20
-24.743889399002704
30
0
10
-38.971143170299769
20
-22.499999999999993
30
0
0
LINE
5
196
100
AcDbEntity
8
0
100
AcDbLine
10
50.901835313090622
20
-102.54108231220791
30
0
11
52.235740850645414
21
-105.2282175929262
31
0
0
SPLINE
5
197
100
AcDbEntity
8
0
100
AcDbSpline
70
0
71
3
72
20
73
16
74
0
42
0.000000001
43
0.0000000001
44
0.0000000001
40
0
40
0
40
0
40
0
40
0.3545693085374414
40
0.3545693085374414
40
0.3545693085374414
40
0.7068118312089654
40
0.7068118312089654
40
0.7068118312089654
40
1.056463013836582
40
1.056463013836582
40
1.056463013836582
40
1.4030060671499138
40
1.4030060671499138
40
1.4030060671499138
40
1.5079644737231006
40
1.5079644737231006
40
1.5079644737231006
40
1.5079644737231006
10
-21.000000000000032
20
-36.373066958946424
30
0
10
-19.541458991821383
20
-43.774740466906643
30
0
10
-15.855528891478389
20
-51.427139585748442
30
0
10
-9.9324339040103116
20
-58.200858994627382
30
0
10
-4.0482079708215668
20
-64.93012730692017
30
0
10
4.0422918800251662
20
-70.77738594248811
30
0
10
13.841461835226902
20
-74.701237193953375
30
0
10
23.568542306997223
20
-78.596221877018138
30
0
10
34.971813801580282
20
-80.583370623809316
30
0
10
47.131803853189794
20
-79.915428815378405
30
0
10
59.183700972704003
20
-79.253424494415512
30
0
10
71.967224494507164
20
-75.975024488808216
30
0
10
84.304617773260446
20
-69.776740617608453
30
0
10
88.041276544584548
20
-67.899450069177831
30
0
10
91.735731235645872
20
-65.757707388520032
30
0
10
95.352823636492175
20
-63.352264557377865
30
0
0
SPLINE
5
198
100
AcDbEntity
8
0
100
AcDbSpline
70
0
71
3
72
20
73
16
74
0
42
0.000000001
43
0.0000000001
44
0.0000000001
40
-1.5079644737231006
40
-1.5079644737231006
40
-1.5079644737231006
40
-1.5079644737231006
40
-1.1625208232583706
40
-1.1625208232583706
40
-1.1625208232583706
40
-0.81254203719459239
40
-0.81254203719459239
40
-0.81254203719459239
40
-0.46104358721083066
40
-0.46104358721083066
40
-0.46104358721083066
40
-0.10684587313959037
40
-0.10684587313959037
40
-0.10684587313959037
40
0
40
0
40
0
40
0
10
97.85158735862251
20
-65.012439205107938
30
0
10
85.755690699079651
20
-73.217064115934932
30
0
10
72.780423339484202
20
-78.493376079173345
30
0
10
60.155625174916956
20
-80.977362288953856
30
0
10
47.365083128504168
20
-83.493959358052166
30
0
10
34.94749762326753
20
-83.150942429993293
30
0
10
23.950490133648799
20
-80.57022201273567
30
0
10
12.905731876911535
20
-77.978295694258165
30
0
10
3.3029646630425535
20
-73.141073464346604
30
0
10
-4.1984647757747062
20
-67.028603780910615
30
0
10
-11.757499985228765
20
-60.869194573550502
30
0
10
-17.179004921676867
20
-53.42952071705993
30
0
10
-20.294530518141805
20
-45.844333058224791
30
0
10
-21.23434757347178
20
-43.556215529118212
30
0
10
-21.967952186150285
20
-41.254985518843768
30
0
10
-22.500000000000036
20
-38.971143170299747
30
0
0
LINE
5
199
100
AcDbEntity
8
0
100
AcDbLine
10
-22.500000000000007
20
-38.97114317029974
30
0
11
-21.000000000000007
21
-36.373066958946424
31
0
0
LINE
5
200
100
AcDbEntity
8
0
100
AcDbLine
10
95.352823636492246
20
-63.352264557377907
30
0
11
97.851587358622567
21
-65.012439205107995
31
0
0
SPLINE
5
201
100
AcDbEntity
8
0
100
AcDbSpline
70
0
71
3
72
20
73
16
74
0
42
0.000000001
43
0.0000000001
44
0.0000000001
40
0
40
0
40
0
40
0
40
0.3545693085374414
40
0.3545693085374414
40
0.3545693085374414
40
0.7068118312089654
40
0.7068118312089654
40
0.7068118312089654
40
1.056463013836582
40
1.056463013836582
40
1.056463013836582
40
1.4030060671499138
40
1.4030060671499138
40
1.4030060671499138
40
1.5079644737231006
40
1.5079644737231006
40
1.5079644737231006
40
1.5079644737231006
10
-2.886579864025407e-14
20
-42.000000000000014
30
0
10
4.9639703195241536
20
-47.680766784322522
30
0
10
11.982278982415814
20
-52.464973770965678
30
0
10
20.49868941503091
20
-55.369639363428504
30
0
10
28.959212710925961
20
-58.25524370416133
30
0
10
38.889420428857406
20
-59.273868299637734
30
0
10
49.337676171795962
20
-57.772438186477153
30
0
10
59.709067306536959
20
-56.282053633477361
30
0
10
70.578164480492433
20
-52.3013391820054
30
0
10
80.775053870736869
20
-45.642889581849758
30
0
10
90.881300779551211
20
-39.043628462723717
30
0
10
100.31295689650503
20
-29.812689013199176
30
0
10
107.89831095678487
20
-18.276121081496175
30
0
10
110.19570710381016
20
-14.782010390608789
30
0
10
112.32432737907097
20
-11.079979475259094
30
0
10
114.25409987046845
20
-7.1882586757156641
30
0
0
SPLINE
5
202
100
AcDbEntity
8
0
100
AcDbSpline
70
0
71
3
72
20
73
16
74
0
42
0.000000001
43
0.0000000001
44
0.0000000001
40
-1.5079644737231006
40
-1.5079644737231006
40
-1.5079644737231006
40
-1.5079644737231006
40
-1.1625208232583706
40
-1.1625208232583706
40
-1.1625208232583706
40
-0.81254203719459239
40
-0.81254203719459239
40
-0.81254203719459239
40
-0.46104358721083066
40
-0.46104358721083066
40
-0.46104358721083066
40
-0.10684587313959037
40
-0.10684587313959037
40
-0.10684587313959037
40
0
40
0
40
0
40
0
10
117.24818005575329
20
-7.3766302343036205
30
0
10
110.87513872245134
20
-20.529992165373862
30
0
10
102.27638354976585
20
-31.58704604362779
30
0
10
92.584980726489746
20
-40.050640286231555
30
0
10
82.766344920672395
20
-48.625348302366547
30
0
10
71.840891955442615
20
-54.537079681357795
30
0
10
61.026843895196244
20
-57.800613984756872
30
0
10
50.165839506965099
20
-61.07831907658651
30
0
10
39.430988038170469
20
-61.690545348666788
30
0
10
29.878324737740272
20
-60.147706042357626
30
0
10
20.252303614571971
20
-58.593018801207023
30
0
10
11.837305684619892
20
-54.860824713839293
30
0
10
5.3465875425230225
20
-49.849622307048314
30
0
10
3.3886233331440963
20
-48.337962927662531
30
0
10
1.6026880970938384
20
-46.711841585152989
30
0
10
-2.6645352591003757e-14
20
-45.000000000000014
30
0
0
LINE
5
203
100
AcDbEntity
8
0
100
AcDbLine
10
-1.1102230246251565e-14
20
-45.000000000000007
30
0
11
-8.8817841970012523e-15
21
-42
31
0
0
LINE
5
204
100
AcDbEntity
8
0
100
AcDbLine
10
114.25409987046851
20
-7.1882586757156641
30
0
11
117.24818005575338
21
-7.3766302343036205
31
0
0
SPLINE
5
205
100
AcDbEntity
8
0
100
AcDbSpline
70
0
71
3
72
20
73
16
74
0
42
0.000000001
43
0.0000000001
44
0.0000000001
40
0
40
0
40
0
40
0
40
0.3545693085374414
40
0.3545693085374414
40
0.3545693085374414
40
0.7068118312089654
40
0.7068118312089654
40
0.7068118312089654
40
1.056463013836582
40
1.056463013836582
40
1.056463013836582
40
1.4030060671499138
40
1.4030060671499138
40
1.4030060671499138
40
1.5079644737231006
40
1.5079644737231006
40
1.5079644737231006
40
1.5079644737231006
10
21
20
-36.373066958946453
30
0
10
28.139307792501157
20
-38.810770147382485
30
0
10
36.609444879487313
20
-39.444860603332621
30
0
10
45.437205459418223
20
-37.702169579596465
30
0
10
54.207035733339794
20
-35.970914595994209
30
0
10
63.31616017966293
20
-31.887965513630689
30
0
10
71.613900021704083
20
-25.363561022157391
30
0
10
79.850595940474591
20
-18.887154570481158
30
0
10
87.273152983585703
20
-10.005206143316867
30
0
10
92.77469343503958
20
0.85962505535848011
30
0
10
98.227329435427734
20
11.627876285135732
30
0
10
101.77991350770634
20
24.33793240769683
30
0
10
102.58073885475665
20
38.121570339176458
30
0
10
102.82328693519332
20
42.296257034632383
30
0
10
102.81571071090495
20
46.566619990550976
30
0
10
102.54108231220783
20
50.901835313090615
30
0
0
SPLINE
5
206
100
AcDbEntity
8
0
100
AcDbSpline
70
0
71
3
72
20
73
16
74
0
42
0.000000001
43
0.0000000001
44
0.0000000001
40
-1.5079644737231006
40
-1.5079644737231006
40
-1.5079644737231006
40
-1.5079644737231006
40
-1.1625208232583706
40
-1.1625208232583706
40
-1.1625208232583706
40
-0.81254203719459239
40
-0.81254203719459239
40
-0.81254203719459239
40
-0.46104358721083066
40
-0.46104358721083066
40
-0.46104358721083066
40
-0.10684587313959037
40
-0.10684587313959037
40
-0.10684587313959037
40
0
40
0
40
0
40
0
10
105.22821759292611
20
52.235740850645406
30
0
10
106.28568286445352
20
37.658074606516458
30
0
10
104.36746938311201
20
23.783007470592551
30
0
10
100.20626546114853
20
11.607618437535912
30
0
10
95.990431430870728
20
-0.72761443737972986
30
0
10
89.484577304625347
20
-11.310050474550648
30
0
10
81.751104118405692
20
-19.543378117539394
30
0
10
73.98405095349807
20
-27.812456187293048
30
0
10
64.993510011709375
20
-33.710085426176136
30
0
10
55.949241266582931
20
-37.150279043170329
30
0
10
46.835518815978276
20
-40.616890958978516
30
0
10
37.681819792162436
20
-41.592215032440023
30
0
10
29.555091788906527
20
-40.497745515701766
30
0
10
27.103615354190769
20
-40.167592195974116
30
0
10
24.743889399002718
20
-39.652297421749928
30
0
10
22.500000000000004
20
-38.971143170299769
30
0
0
LINE
5
207
100
AcDbEntity
8
0
100
AcDbLine
10
22.500000000000014
20
-38.971143170299754
30
0
11
21.000000000000011
21
-36.373066958946431
31
0
0
LINE
5
208
100
AcDbEntity
8
0
100
AcDbLine
10
102.54108231220791
20
50.901835313090658
30
0
11
105.2282175929262
21
52.235740850645449
31
0
0
SPLINE
5
209
100
AcDbEntity
8
0
100
AcDbSpline
70
0
71
3
72
20
73
16
74
0
42
0.000000001
43
0.0000000001
44
0.0000000001
40
0
40
0
40
0
40
0
40
0.3545693085374414
40
0.3545693085374414
40
0.3545693085374414
40
0.7068118312089654
40
0.7068118312089654
40
0.7068118312089654
40
1.056463013836582
40
1.056463013836582
40
1.056463013836582
40
1.4030060671499138
40
1.4030060671499138
40
1.4030060671499138
40
1.5079644737231006
40
1.5079644737231006
40
1.5079644737231006
40
1.5079644737231006
10
36.373066958946424
20
-21.000000000000036
30
0
10
43.774740466906643
20
-19.541458991821393
30
0
10
51.427139585748442
20
-15.8555288914784
30
0
10
58.200858994627382
20
-9.9324339040103204
30
0
10
64.93012730692017
20
-4.0482079708215801
30
0
10
70.77738594248811
20
4.0422918800251573
30
0
10
74.701237193953375
20
13.841461835226889
30
0
10
78.596221877018152
20
23.568542306997209
30
0
10
80.583370623809344
20
34.971813801580268
30
0
10
79.915428815378419
20
47.131803853189787
30
0
10
79.253424494415526
20
59.183700972703988
30
0
10
75.975024488808231
20
71.96722449450715
30
0
10
69.776740617608468
20
84.304617773260446
30
0
10
67.899450069177846
20
88.041276544584534
30
0
10
65.757707388520032
20
91.735731235645829
30
0
10
63.352264557377893
20
95.352823636492161
30
0
0
SPLINE
5
210
100
AcDbEntity
8
0
100
AcDbSpline
70
0
71
3
72
20
73
16
74
0
42
0.000000001
43
0.0000000001
44
0.0000000001
40
-1.5079644737231006
40
-1.5079644737231006
40
-1.5079644737231006
40
-1.5079644737231006
40
-1.1625208232583706
40
-1.1625208232583706
40
-1.1625208232583706
40
-0.81254203719459239
40
-0.81254203719459239
40
-0.81254203719459239
40
-0.46104358721083066
40
-0.46104358721083066
40
-0.46104358721083066
40
-0.10684587313959037
40
-0.10684587313959037
40
-0.10684587313959037
40
0
40
0
40
0
40
0
10
65.012439205107952
20
97.85158735862251
30
0
10
73.21706411593496
20
85.755690699079636
30
0
10
78.493376079173359
20
72.780423339484187
30
0
10
80.97736228895387
20
60.155625174916942
30
0
10
83.493959358052166
20
47.365083128504153
30
0
10
83.150942429993307
20
34.947497623267523
30
0
10
80.57022201273567
20
23.950490133648788
30
0
10
77.978295694258165
20
12.905731876911517
30
0
10
73.141073464346618
20
3.3029646630425447
30
0
10
67.028603780910615
20
-4.1984647757747195
30
0
10
60.869194573550502
20
-11.757499985228774
30
0
10
53.42952071705993
20
-17.179004921676878
30
0
10
45.844333058224791
20
-20.294530518141816
30
0
10
43.556215529118212
20
-21.234347573471787
30
0
10
41.254985518843768
20
-21.967952186150292
30
0
10
38.97114317029974
20
-22.500000000000039
30
0
0
LINE
5
211
100
AcDbEntity
8
0
100
AcDbLine
10
38.97114317029974
20
-22.500000000000018
30
0
11
36.373066958946417
21
-21.000000000000014
31
0
0
LINE
5
212
100
AcDbEntity
8
0
100
AcDbLine
10
63.352264557377929
20
95.352823636492232
30
0
11
65.012439205108024
21
97.851587358622567
31
0
0
SPLINE
5
213
100
AcDbEntity
8
0
100
AcDbSpline
70
0
71
3
72
20
73
16
74
0
42
0.000000001
43
0.0000000001
44
0.0000000001
40
0
40
0
40
0
40
0
40
0.3545693085374414
40
0.3545693085374414
40
0.3545693085374414
40
0.7068118312089654
40
0.7068118312089654
40
0.7068118312089654
40
1.056463013836582
40
1.056463013836582
40
1.056463013836582
40
1.4030060671499138
40
1.4030060671499138
40
1.4030060671499138
40
1.5079644737231006
40
1.5079644737231006
40
1.5079644737231006
40
1.5079644737231006
10
42.000000000000014
20
-3.9968028886505635e-14
30
0
10
47.680766784322522
20
4.9639703195241403
30
0
10
52.464973770965678
20
11.982278982415796
30
0
10
55.369639363428504
20
20.498689415030892
30
0
10
58.255243704161344
20
28.959212710925932
30
0
10
59.273868299637741
20
38.889420428857385
30
0
10
57.772438186477153
20
49.337676171795941
30
0
10
56.282053633477375
20
59.709067306536944
30
0
10
52.301339182005421
20
70.578164480492404
30
0
10
45.642889581849779
20
80.775053870736855
30
0
10
39.043628462723746
20
90.881300779551168
30
0
10
29.812689013199204
20
100.31295689650499
30
0
10
18.276121081496211
20
107.89831095678487
30
0
10
14.782010390608828
20
110.19570710381016
30
0
10
11.07997947525913
20
112.32432737907095
30
0
10
7.1882586757156997
20
114.25409987046842
30
0
0
SPLINE
5
214
100
AcDbEntity
8
0
100
AcDbSpline
70
0
71
3
72
20
73
16
74
0
42
0.000000001
43
0.0000000001
44
0.0000000001
40
-1.5079644737231006
40
-1.5079644737231006
40
-1.5079644737231006
40
-1.5079644737231006
40
-1.1625208232583706
40
-1.1625208232583706
40
-1.1625208232583706
40
-0.81254203719459239
40
-0.81254203719459239
40
-0.81254203719459239
40
-0.46104358721083066
40
-0.46104358721083066
40
-0.46104358721083066
40
-0.10684587313959037
40
-0.10684587313959037
40
-0.10684587313959037
40
0
40
0
40
0
40
0
10
7.3766302343036561
20
117.24818005575329
30
0
10
20.529992165373898
20
110.87513872245133
30
0
10
31.587046043627822
20
102.27638354976584
30
0
10
40.050640286231584
20
92.584980726489704
30
0
10
48.625348302366575
20
82.766344920672381
30
0
10
54.53707968135781
20
71.840891955442601
30
0
10
57.800613984756879
20
61.026843895196222
30
0
10
61.078319076586531
20
50.165839506965071
30
0
10
61.690545348666802
20
39.43098803817044
30
0
10
60.147706042357626
20
29.878324737740254
30
0
10
58.593018801207023
20
20.252303614571954
30
0
10
54.860824713839278
20
11.837305684619874
30
0
10
49.849622307048314
20
5.3465875425230092
30
0
10
48.337962927662524
20
3.3886233331440785
30
0
10
46.711841585152982
20
1.6026880970938251
30
0
10
45.000000000000014
20
-3.9968028886505635e-14
30
0
0
LINE
5
215
100
AcDbEntity
8
0
100
AcDbLine
10
45.000000000000007
20
-2.4424906541753444e-14
30
0
11
41.999999999999993
21
-1.9984014443252818e-14
31
0
0
LINE
5
216
100
AcDbEntity
8
0
100
AcDbLine
10
7.1882586757156997
20
114.25409987046851
30
0
11
7.3766302343036561
21
117.24818005575338
31
0
0
SPLINE
5
217
100
AcDbEntity
8
0
100
AcDbSpline
70
0
71
3
72
20
73
16
74
0
42
0.000000001
43
0.0000000001
44
0.0000000001
40
0
40
0
40
0
40
0
40
0.3545693085374414
40
0.3545693085374414
40
0.3545693085374414
40
0.7068118312089654
40
0.7068118312089654
40
0.7068118312089654
40
1.056463013836582
40
1.056463013836582
40
1.056463013836582
40
1.4030060671499138
40
1.4030060671499138
40
1.4030060671499138
40
1.5079644737231006
40
1.5079644737231006
40
1.5079644737231006
40
1.5079644737231006
10
36.373066958946453
20
20.999999999999982
30
0
10
38.810770147382485
20
28.139307792501139
30
0
10
39.444860603332629
20
36.609444879487285
30
0
10
37.702169579596465
20
45.437205459418195
30
0
10
35.970914595994216
20
54.207035733339772
30
0
10
31.887965513630704
20
63.316160179662901
30
0
10
25.363561022157413
20
71.613900021704055
30
0
10
18.887154570481179
20
79.850595940474577
30
0
10
10.005206143316896
20
87.273152983585689
30
0
10
-0.85962505535844813
20
92.774693435039552
30
0
10
-11.627876285135697
20
98.22732943542772
30
0
10
-24.33793240769679
20
101.77991350770633
30
0
10
-38.121570339176415
20
102.58073885475662
30
0
10
-42.29625703463234
20
102.82328693519332
30
0
10
-46.566619990550933
20
102.81571071090495
30
0
10
-50.901835313090572
20
102.54108231220783
30
0
0
SPLINE
5
218
100
AcDbEntity
8
0
100
AcDbSpline
70
0
71
3
72
20
73
16
74
0
42
0.000000001
43
0.0000000001
44
0.0000000001
40
-1.5079644737231006
40
-1.5079644737231006
40
-1.5079644737231006
40
-1.5079644737231006
40
-1.1625208232583706
40
-1.1625208232583706
40
-1.1625208232583706
40
-0.81254203719459239
40
-0.81254203719459239
40
-0.81254203719459239
40
-0.46104358721083066
40
-0.46104358721083066
40
-0.46104358721083066
40
-0.10684587313959037
40
-0.10684587313959037
40
-0.10684587313959037
40
0
40
0
40
0
40
0
10
-52.235740850645357
20
105.22821759292611
30
0
10
-37.658074606516415
20
106.28568286445351
30
0
10
-23.783007470592512
20
104.367469383112
30
0
10
-11.607618437535873
20
100.20626546114852
30
0
10
0.72761443737976284
20
95.990431430870714
30
0
10
11.310050474550676
20
89.484577304625333
30
0
10
19.543378117539419
20
81.751104118405664
30
0
10
27.812456187293073
20
73.984050953498041
30
0
10
33.71008542617615
20
64.993510011709347
30
0
10
37.150279043170343
20
55.949241266582909
30
0
10
40.61689095897853
20
46.835518815978247
30
0
10
41.592215032440038
20
37.681819792162415
30
0
10
40.497745515701766
20
29.555091788906509
30
0
10
40.167592195974116
20
27.103615354190751
30
0
10
39.652297421749928
20
24.743889399002697
30
0
10
38.971143170299769
20
22.499999999999986
30
0
0
LINE
5
219
100
AcDbEntity
8
0
100
AcDbLine
10
38.971143170299754
20
22.499999999999996
30
0
11
36.373066958946431
21
20.999999999999993
31
0
0
LINE
5
220
100
AcDbEntity
8
0
100
AcDbLine
10
-50.901835313090615
20
102.54108231220791
30
0
11
-52.235740850645406
21
105.2282175929262
31
0
0
SPLINE
5
221
100
AcDbEntity
8
0
100
AcDbSpline
70
0
71
3
72
20
73
16
74
0
42
0.000000001
43
0.0000000001
44
0.0000000001
40
0
40
0
40
0
40
0
40
0.3545693085374414
40
0.3545693085374414
40
0.3545693085374414
40
0.7068118312089654
40
0.7068118312089654
40
0.7068118312089654
40
1.056463013836582
40
1.056463013836582
40
1.056463013836582
40
1.4030060671499138
40
1.4030060671499138
40
1.4030060671499138
40
1.5079644737231006
40
1.5079644737231006
40
1.5079644737231006
40
1.5079644737231006
10
21.000000000000036
20
36.373066958946424
30
0
10
19.541458991821393
20
43.774740466906643
30
0
10
15.8555288914784
20
51.427139585748442
30
0
10
9.9324339040103204
20
58.200858994627382
30
0
10
4.0482079708215801
20
64.93012730692017
30
0
10
-4.0422918800251573
20
70.77738594248811
30
0
10
-13.841461835226889
20
74.701237193953375
30
0
10
-23.568542306997209
20
78.596221877018152
30
0
10
-34.971813801580268
20
80.583370623809344
30
0
10
-47.131803853189787
20
79.915428815378419
30
0
10
-59.183700972703988
20
79.253424494415526
30
0
10
-71.96722449450715
20
75.975024488808231
30
0
10
-84.304617773260446
20
69.776740617608468
30
0
10
-88.041276544584534
20
67.899450069177846
30
0
10
-91.735731235645829
20
65.757707388520032
30
0
10
-95.352823636492161
20
63.352264557377893
30
0
0
SPLINE
5
222
100
AcDbEntity
8
0
100
AcDbSpline
70
0
71
3
72
20
73
16
74
0
42
0.000000001
43
0.0000000001
44
0.0000000001
40
-1.5079644737231006
40
-1.5079644737231006
40
-1.5079644737231006
40
-1.5079644737231006
40
-1.1625208232583706
40
-1.1625208232583706
40
-1.1625208232583706
40
-0.81254203719459239
40
-0.81254203719459239
40
-0.81254203719459239
40
-0.46104358721083066
40
-0.46104358721083066
40
-0.46104358721083066
40
-0.10684587313959037
40
-0.10684587313959037
40
-0.10684587313959037
40
0
40
0
40
0
40
0
10
-97.85158735862251
20
65.012439205107952
30
0
10
-85.755690699079636
20
73.21706411593496
30
0
10
-72.780423339484187
20
78.493376079173359
30
0
10
-60.155625174916942
20
80.97736228895387
30
0
10
-47.365083128504153
20
83.493959358052166
30
0
10
-34.947497623267523
20
83.150942429993307
30
0
10
-23.950490133648788
20
80.57022201273567
30
0
10
-12.905731876911517
20
77.978295694258165
30
0
10
-3.3029646630425447
20
73.141073464346618
30
0
10
4.1984647757747195
20
67.028603780910615
30
0
10
11.757499985228774
20
60.869194573550502
30
0
10
17.179004921676878
20
53.42952071705993
30
0
10
20.294530518141816
20
45.844333058224791
30
0
10
21.234347573471787
20
43.556215529118212
30
0
10
21.967952186150292
20
41.254985518843768
30
0
10
22.500000000000039
20
38.97114317029974
30
0
0
LINE
5
223
100
AcDbEntity
8
0
100
AcDbLine
10
22.500000000000018
20
38.97114317029974
30
0
11
21.000000000000014
21
36.373066958946417
31
0
0
LINE
5
224
100
AcDbEntity
8
0
100
AcDbLine
10
-95.352823636492232
20
63.352264557377929
30
0
11
-97.851587358622567
21
65.012439205108024
31
0
0
SPLINE
5
225
100
AcDbEntity
8
0
100
AcDbSpline
70
0
71
3
72
20
73
16
74
0
42
0.000000001
43
0.0000000001
44
0.0000000001
40
0
40
0
40
0
40
0
40
0.3545693085374414
40
0.3545693085374414
40
0.3545693085374414
40
0.7068118312089654
40
0.7068118312089654
40
0.7068118312089654
40
1.056463013836582
40
1.056463013836582
40
1.056463013836582
40
1.4030060671499138
40
1.4030060671499138
40
1.4030060671499138
40
1.5079644737231006
40
1.5079644737231006
40
1.5079644737231006
40
1.5079644737231006
10
3.7747582837255322e-14
20
42.000000000000014
30
0
10
-4.9639703195241447
20
47.680766784322522
30
0
10
-11.982278982415799
20
52.46497377096567
30
0
10
-20.498689415030896
20
55.369639363428504
30
0
10
-28.959212710925936
20
58.255243704161337
30
0
10
-38.889420428857385
20
59.273868299637726
30
0
10
-49.337676171795941
20
57.772438186477153
30
0
10
-59.709067306536944
20
56.282053633477361
30
0
10
-70.578164480492404
20
52.301339182005407
30
0
10
-80.775053870736855
20
45.642889581849772
30
0
10
-90.881300779551168
20
39.043628462723731
30
0
10
-100.31295689650499
20
29.812689013199197
30
0
10
-107.89831095678487
20
18.2761210814962
30
0
10
-110.19570710381015
20
14.78201039060882
30
0
10
-112.32432737907095
20
11.079979475259121
30
0
10
-114.25409987046841
20
7.1882586757156908
30
0
0
SPLINE
5
226
100
AcDbEntity
8
0
100
AcDbSpline
70
0
71
3
72
20
73
16
74
0
42
0.000000001
43
0.0000000001
44
0.0000000001
40
-1.5079644737231006
40
-1.5079644737231006
40
-1.5079644737231006
40
-1.5079644737231006
40
-1.1625208232583706
40
-1.1625208232583706
40
-1.1625208232583706
40
-0.81254203719459239
40
-0.81254203719459239
40
-0.81254203719459239
40
-0.46104358721083066
40
-0.46104358721083066
40
-0.46104358721083066
40
-0.10684587313959037
40
-0.10684587313959037
40
-0.10684587313959037
40
0
40
0
40
0
40
0
10
-117.24818005575329
20
7.3766302343036472
30
0
10
-110.87513872245133
20
20.529992165373887
30
0
10
-102.27638354976584
20
31.587046043627815
30
0
10
-92.584980726489704
20
40.05064028623157
30
0
10
-82.766344920672381
20
48.625348302366554
30
0
10
-71.840891955442601
20
54.537079681357802
30
0
10
-61.02684389519623
20
57.800613984756879
30
0
10
-50.165839506965071
20
61.07831907658651
30
0
10
-39.430988038170447
20
61.690545348666781
30
0
10
-29.878324737740265
20
60.147706042357626
30
0
10
-20.252303614571957
20
58.593018801207009
30
0
10
-11.837305684619878
20
54.860824713839278
30
0
10
-5.3465875425230136
20
49.849622307048307
30
0
10
-3.3886233331440829
20
48.337962927662524
30
0
10
-1.6026880970938295
20
46.711841585152982
30
0
10
3.5527136788005009e-14
20
45.000000000000014
30
0
0
LINE
5
227
100
AcDbEntity
8
0
100
AcDbLine
10
1.9984014443252818e-14
20
45
30
0
11
1.7763568394002505e-14
21
41.999999999999993
31
0
0
LINE
5
228
100
AcDbEntity
8
0
100
AcDbLine
10
-114.25409987046851
20
7.1882586757156908
30
0
11
-117.24818005575338
21
7.3766302343036472
31
0
0
SPLINE
5
229
100
AcDbEntity
8
0
100
AcDbSpline
70
0
71
3
72
20
73
16
74
0
42
0.000000001
43
0.0000000001
44
0.0000000001
40
0
40
0
40
0
40
0
40
0.3545693085374414
40
0.3545693085374414
40
0.3545693085374414
40
0.7068118312089654
40
0.7068118312089654
40
0.7068118312089654
40
1.056463013836582
40
1.056463013836582
40
1.056463013836582
40
1.4030060671499138
40
1.4030060671499138
40
1.4030060671499138
40
1.5079644737231006
40
1.5079644737231006
40
1.5079644737231006
40
1.5079644737231006
10
-20.999999999999979
20
36.373066958946453
30
0
10
-28.139307792501135
20
38.810770147382485
30
0
10
-36.609444879487285
20
39.444860603332629
30
0
10
-45.437205459418195
20
37.702169579596472
30
0
10
-54.207035733339765
20
35.97091459599423
30
0
10
-63.316160179662894
20
31.887965513630707
30
0
10
-71.61390002170404
20
25.36356102215742
30
0
10
-79.850595940474577
20
18.887154570481187
30
0
10
-87.273152983585689
20
10.005206143316904
30
0
10
-92.774693435039552
20
-0.85962505535843892
30
0
10
-98.22732943542772
20
-11.627876285135684
30
0
10
-101.77991350770633
20
-24.33793240769678
30
0
10
-102.58073885475662
20
-38.121570339176408
30
0
10
-102.82328693519334
20
-42.296257034632319
30
0
10
-102.81571071090497
20
-46.566619990550919
30
0
10
-102.54108231220785
20
-50.901835313090551
30
0
0
SPLINE
5
230
100
AcDbEntity
8
0
100
AcDbSpline
70
0
71
3
72
20
73
16
74
0
42
0.000000001
43
0.0000000001
44
0.0000000001
40
-1.5079644737231006
40
-1.5079644737231006
40
-1.5079644737231006
40
-1.5079644737231006
40
-1.1625208232583706
40
-1.1625208232583706
40
-1.1625208232583706
40
-0.81254203719459239
40
-0.81254203719459239
40
-0.81254203719459239
40
-0.46104358721083066
40
-0.46104358721083066
40
-0.46104358721083066
40
-0.10684587313959037
40
-0.10684587313959037
40
-0.10684587313959037
40
0
40
0
40
0
40
0
10
-105.22821759292613
20
-52.235740850645342
30
0
10
-106.28568286445351
20
-37.658074606516408
30
0
10
-104.367469383112
20
-23.783007470592501
30
0
10
-100.20626546114852
20
-11.607618437535866
30
0
10
-95.990431430870714
20
0.72761443737977238
30
0
10
-89.484577304625333
20
11.310050474550685
30
0
10
-81.751104118405664
20
19.543378117539426
30
0
10
-73.984050953498041
20
27.81245618729308
30
0
10
-64.993510011709333
20
33.71008542617615
30
0
10
-55.949241266582909
20
37.150279043170343
30
0
10
-46.835518815978247
20
40.61689095897853
30
0
10
-37.681819792162415
20
41.592215032440038
30
0
10
-29.555091788906505
20
40.497745515701773
30
0
10
-27.103615354190747
20
40.167592195974123
30
0
10
-24.743889399002693
20
39.652297421749928
30
0
10
-22.499999999999982
20
38.971143170299769
30
0
0
LINE
5
231
100
AcDbEntity
8
0
100
AcDbLine
10
-22.499999999999993
20
38.971143170299754
30
0
11
-20.999999999999986
21
36.373066958946431
31
0
0
LINE
5
232
100
AcDbEntity
8
0
100
AcDbLine
10
-102.54108231220792
20
-50.901835313090594
30
0
11
-105.22821759292623
21
-52.235740850645385
31
0
0
SPLINE
5
233
100
AcDbEntity
8
0
100
AcDbSpline
70
0
71
3
72
20
73
16
74
0
42
0.000000001
43
0.0000000001
44
0.0000000001
40
0
40
0
40
0
40
0
40
0.3545693085374414
40
0.3545693085374414
40
0.3545693085374414
40
0.7068118312089654
40
0.7068118312089654
40
0.7068118312089654
40
1.056463013836582
40
1.056463013836582
40
1.056463013836582
40
1.4030060671499138
40
1.4030060671499138
40
1.4030060671499138
40
1.5079644737231006
40
1.5079644737231006
40
1.5079644737231006
40
1.5079644737231006
10
-36.37306695894641
20
21.000000000000053
30
0
10
-43.774740466906636
20
19.541458991821411
30
0
10
-51.427139585748435
20
15.855528891478425
30
0
10
-58.200858994627367
20
9.9324339040103524
30
0
10
-64.93012730692017
20
4.0482079708216112
30
0
10
-70.77738594248811
20
-4.0422918800251217
30
0
10
-74.701237193953389
20
-13.841461835226854
30
0
10
-78.596221877018152
20
-23.56854230699717
30
0
10
-80.583370623809358
20
-34.971813801580225
30
0
10
-79.915428815378448
20
-47.131803853189744
30
0
10
-79.253424494415555
20
-59.183700972703946
30
0
10
-75.975024488808259
20
-71.967224494507093
30
0
10
-69.776740617608496
20
-84.304617773260418
30
0
10
-67.899450069177888
20
-88.041276544584491
30
0
10
-65.757707388520089
20
-91.735731235645815
30
0
10
-63.352264557377929
20
-95.352823636492133
30
0
0
SPLINE
5
234
100
AcDbEntity
8
0
100
AcDbSpline
70
0
71
3
72
20
73
16
74
0
42
0.000000001
43
0.0000000001
44
0.0000000001
40
-1.5079644737231006
40
-1.5079644737231006
40
-1.5079644737231006
40
-1.5079644737231006
40
-1.1625208232583706
40
-1.1625208232583706
40
-1.1625208232583706
40
-0.81254203719459239
40
-0.81254203719459239
40
-0.81254203719459239
40
-0.46104358721083066
40
-0.46104358721083066
40
-0.46104358721083066
40
-0.10684587313959037
40
-0.10684587313959037
40
-0.10684587313959037
40
0
40
0
40
0
40
0
10
-65.012439205107995
20
-97.851587358622467
30
0
10
-73.217064115934988
20
-85.755690699079594
30
0
10
-78.493376079173402
20
-72.780423339484145
30
0
10
-80.977362288953884
20
-60.155625174916892
30
0
10
-83.493959358052194
20
-47.365083128504111
30
0
10
-83.150942429993336
20
-34.947497623267473
30
0
10
-80.570222012735684
20
-23.950490133648749
30
0
10
-77.978295694258165
20
-12.905731876911481
30
0
10
-73.141073464346618
20
-3.3029646630425047
30
0
10
-67.028603780910615
20
4.1984647757747506
30
0
10
-60.869194573550502
20
11.757499985228804
30
0
10
-53.429520717059908
20
17.179004921676903
30
0
10
-45.844333058224777
20
20.294530518141837
30
0
10
-43.556215529118205
20
21.234347573471808
30
0
10
-41.254985518843753
20
21.967952186150313
30
0
10
-38.971143170299726
20
22.500000000000064
30
0
0
LINE
5
235
100
AcDbEntity
8
0
100
AcDbLine
10
-38.971143170299726
20
22.500000000000036
30
0
11
-36.373066958946403
21
21.000000000000032
31
0
0
LINE
5
236
100
AcDbEntity
8
0
100
AcDbLine
10
-63.352264557377978
20
-95.35282363649219
30
0
11
-65.012439205108052
21
-97.851587358622538
31
0
0
SPLINE
5
237
100
AcDbEntity
8
0
100
AcDbSpline
70
0
71
3
72
20
73
16
74
0
42
0.000000001
43
0.0000000001
44
0.0000000001
40
0
40
0
40
0
40
0
40
0.3545693085374414
40
0.3545693085374414
40
0.3545693085374414
40
0.7068118312089654
40
0.7068118312089654
40
0.7068118312089654
40
1.056463013836582
40
1.056463013836582
40
1.056463013836582
40
1.4030060671499138
40
1.4030060671499138
40
1.4030060671499138
40
1.5079644737231006
40
1.5079644737231006
40
1.5079644737231006
40
1.5079644737231006
10
-42.000000000000014
20
4.4408920985006262e-14
30
0
10
-47.680766784322529
20
-4.9639703195241358
30
0
10
-52.464973770965678
20
-11.98227898241579
30
0
10
-55.369639363428519
20
-20.498689415030888
30
0
10
-58.255243704161344
20
-28.959212710925932
30
0
10
-59.273868299637741
20
-38.889420428857377
30
0
10
-57.772438186477174
20
-49.337676171795934
30
0
10
-56.282053633477382
20
-59.709067306536937
30
0
10
-52.301339182005428
20
-70.578164480492404
30
0
10
-45.642889581849801
20
-80.775053870736855
30
0
10
-39.04362846272376
20
-90.881300779551196
30
0
10
-29.812689013199215
20
-100.31295689650499
30
0
10
-18.276121081496221
20
-107.89831095678487
30
0
10
-14.782010390608837
20
-110.19570710381016
30
0
10
-11.079979475259139
20
-112.32432737907097
30
0
10
-7.1882586757157085
20
-114.25409987046842
30
0
0
SPLINE
5
238
100
AcDbEntity
8
0
100
AcDbSpline
70
0
71
3
72
20
73
16
74
0
42
0.000000001
43
0.0000000001
44
0.0000000001
40
-1.5079644737231006
40
-1.5079644737231006
40
-1.5079644737231006
40
-1.5079644737231006
40
-1.1625208232583706
40
-1.1625208232583706
40
-1.1625208232583706
40
-0.81254203719459239
40
-0.81254203719459239
40
-0.81254203719459239
40
-0.46104358721083066
40
-0.46104358721083066
40
-0.46104358721083066
40
-0.10684587313959037
40
-0.10684587313959037
40
-0.10684587313959037
40
0
40
0
40
0
40
0
10
-7.3766302343036649
20
-117.24818005575329
30
0
10
-20.529992165373905
20
-110.87513872245134
30
0
10
-31.587046043627829
20
-102.27638354976584
30
0
10
-40.050640286231591
20
-92.584980726489704
30
0
10
-48.625348302366582
20
-82.766344920672381
30
0
10
-54.537079681357817
20
-71.840891955442601
30
0
10
-57.800613984756893
20
-61.026843895196222
30
0
10
-61.078319076586531
20
-50.165839506965071
30
0
10
-61.690545348666802
20
-39.43098803817044
30
0
10
-60.147706042357633
20
-29.878324737740254
30
0
10
-58.593018801207023
20
-20.25230361457195
30
0
10
-54.860824713839293
20
-11.837305684619871
30
0
10
-49.849622307048314
20
-5.3465875425230047
30
0
10
-48.337962927662531
20
-3.388623333144074
30
0
10
-46.711841585152989
20
-1.6026880970938207
30
0
10
-45.000000000000014
20
4.4408920985006262e-14
30
0
0
LINE
5
239
100
AcDbEntity
8
0
100
AcDbLine
10
-45.000000000000007
20
2.886579864025407e-14
30
0
11
-41.999999999999993
21
2.4424906541753444e-14
31
0
0
LINE
5
240
100
AcDbEntity
8
0
100
AcDbLine
10
-7.1882586757157085
20
-114.25409987046851
30
0
11
-7.3766302343036649
21
-117.24818005575338
31
0
0
ENDSEC
0
SECTION
2
OBJECTS
0
DICTIONARY
5
C
100
AcDbDictionary
3
ACAD_GROUP
350
D
3
ACAD_MLINESTYLE
350
17
0
DICTIONARY
5
D
100
AcDbDictionary
0
DICTIONARY
5
1A
330
C
100
AcDbDictionary
0
DICTIONARY
5
17
100
AcDbDictionary
0
ENDSEC
0
EOF
