0
SECTION
2
HEADER
9
$INSUNITS
70
4
9
$ACADVER
1
AC1014
9
$HANDSEED
5
FFFF
0
ENDSEC
0
SECTION
2
TABLES
0
TABLE
2
VPORT
5
8
100
AcDbSymbolTable
0
ENDTAB
0
TABLE
2
LTYPE
5
5
100
AcDbSymbolTable
0
LTYPE
5
14
100
AcDbSymbolTableRecord
100
AcDbLinetypeTableRecord
2
BYBLOCK
70
0
0
LTYPE
5
15
100
AcDbSymbolTableRecord
100
AcDbLinetypeTableRecord
2
BYLAYER
70
0
0
LTYPE
5
16
100
AcDbSymbolTableRecord
100
AcDbLinetypeTableRecord
2
DASHED
70
0
3
Dashed __ __ __ __ __ __ __ __ __ __ __ __ __ _
72
65
73
2
40
0.75
49
0.5
74
0
49
-0.25
74
0
0
ENDTAB
0
TABLE
2
LAYER
5
2
100
AcDbSymbolTable
70
2
0
LAYER
5
50
100
AcDbSymbolTableRecord
100
AcDbLayerTableRecord
2
0
70
0
62
7
6
CONTINUOUS
0
ENDTAB
0
TABLE
2
STYLE
5
3
100
AcDbSymbolTable
70
1
0
STYLE
5
11
100
AcDbSymbolTableRecord
100
AcDbTextStyleTableRecord
2
STANDARD
70
0
0
ENDTAB
0
TABLE
2
VIEW
5
6
100
AcDbSymbolTable
70
0
0
ENDTAB
0
TABLE
2
UCS
5
7
100
AcDbSymbolTable
70
0
0
ENDTAB
0
TABLE
2
APPID
5
9
100
AcDbSymbolTable
70
2
0
APPID
5
12
100
AcDbSymbolTableRecord
100
AcDbRegAppTableRecord
2
ACAD
70
0
0
ENDTAB
0
TABLE
2
DIMSTYLE
5
A
100
AcDbSymbolTable
70
1
0
ENDTAB
0
TABLE
2
BLOCK_RECORD
5
1
100
AcDbSymbolTable
70
1
0
BLOCK_RECORD
5
1F
100
AcDbSymbolTableRecord
100
AcDbBlockTableRecord
2
*MODEL_SPACE
0
BLOCK_RECORD
5
1B
100
AcDbSymbolTableRecord
100
AcDbBlockTableRecord
2
*PAPER_SPACE
0
ENDTAB
0
ENDSEC
0
SECTION
2
BLOCKS
0
BLOCK
5
20
100
AcDbEntity
100
AcDbBlockBegin
2
*MODEL_SPACE
0
ENDBLK
5
21
100
AcDbEntity
100
AcDbBlockEnd
0
BLOCK
5
1C
100
AcDbEntity
100
AcDbBlockBegin
2
*PAPER_SPACE
0
ENDBLK
5
1D
100
AcDbEntity
100
AcDbBlockEnd
0
ENDSEC
0
SECTION
2
ENTITIES
0
CIRCLE
5
100
100
AcDbEntity
8
0
100
AcDbCircle
10
0
20
0
30
0
40
113.54999999999998
210
0
220
0
230
1
0
CIRCLE
5
101
100
AcDbEntity
8
0
100
AcDbCircle
10
0
20
68.204999999999998
30
0
40
5.8499999999999996
210
0
220
-0
230
1
0
CIRCLE
5
102
100
AcDbEntity
8
0
100
AcDbCircle
10
-55.500000000000007
20
0
30
0
40
5.0999999999999996
210
0
220
-0
230
1
0
CIRCLE
5
103
100
AcDbEntity
8
0
100
AcDbCircle
10
0
20
42.800000000000004
30
0
40
5.0999999999999996
210
0
220
-0
230
1
0
CIRCLE
5
104
100
AcDbEntity
8
0
100
AcDbCircle
10
55.500000000000007
20
0
30
0
40
5.0999999999999996
210
0
220
-0
230
1
0
CIRCLE
5
105
100
AcDbEntity
8
0
100
AcDbCircle
10
0
20
-42.800000000000004
30
0
40
5.0999999999999996
210
0
220
-0
230
1
0
CIRCLE
5
106
100
AcDbEntity
8
0
100
AcDbCircle
10
0
20
-68.204999999999998
30
0
40
5.0999999999999996
210
0
220
-0
230
1
0
CIRCLE
5
107
100
AcDbEntity
8
0
100
AcDbCircle
10
0
20
-55.500000000000007
30
0
40
5.0999999999999996
210
0
220
-0
230
1
0
CIRCLE
5
108
100
AcDbEntity
8
0
100
AcDbCircle
10
68.204999999999998
20
0
30
0
40
5.0999999999999996
210
0
220
-0
230
1
0
CIRCLE
5
109
100
AcDbEntity
8
0
100
AcDbCircle
10
42.800000000000004
20
0
30
0
40
5.0999999999999996
210
0
220
-0
230
1
0
CIRCLE
5
110
100
AcDbEntity
8
0
100
AcDbCircle
10
0
20
55.500000000000007
30
0
40
5.0999999999999996
210
0
220
-0
230
1
0
CIRCLE
5
111
100
AcDbEntity
8
0
100
AcDbCircle
10
-68.204999999999998
20
0
30
0
40
5.0999999999999996
210
0
220
-0
230
1
0
CIRCLE
5
112
100
AcDbEntity
8
0
100
AcDbCircle
10
-42.800000000000004
20
0
30
0
40
5.0999999999999996
210
0
220
-0
230
1
0
LWPOLYLINE
5
113
100
AcDbEntity
8
0
100
AcDbPolyline
90
3
70
1
43
0.0
10
55.722374821190705
20
-12.694071225841199
10
55.812914122560706
20
-12.751984976954001
10
55.693296481198608
20
-12.821046254394201
42
0.00056982552708535446
0
CIRCLE
5
114
100
AcDbEntity
8
0
100
AcDbCircle
10
-80.90000000000002
20
0
30
0
40
5.0999999999999996
210
0
220
-0
230
1
0
CIRCLE
5
115
100
AcDbEntity
8
0
100
AcDbCircle
10
0
20
-80.90000000000002
30
0
40
5.0999999999999996
210
0
220
-0
230
1
0
CIRCLE
5
116
100
AcDbEntity
8
0
100
AcDbCircle
10
80.90000000000002
20
0
30
0
40
5.0999999999999996
210
0
220
-0
230
1
0
CIRCLE
5
117
100
AcDbEntity
8
0
100
AcDbCircle
10
0
20
80.90000000000002
30
0
40
5.0999999999999996
210
0
220
-0
230
1
0
CIRCLE
5
118
100
AcDbEntity
8
0
100
AcDbCircle
10
93.599999999999994
20
0
30
0
40
5.0999999999999996
210
0
220
-0
230
1
0
CIRCLE
5
119
100
AcDbEntity
8
0
100
AcDbCircle
10
-93.599999999999994
20
0
30
0
40
5.0999999999999996
210
0
220
-0
230
1
0
CIRCLE
5
120
100
AcDbEntity
8
0
100
AcDbCircle
10
0
20
-93.599999999999994
30
0
40
5.0999999999999996
210
0
220
-0
230
1
0
CIRCLE
5
121
100
AcDbEntity
8
0
100
AcDbCircle
10
0
20
93.599999999999994
30
0
40
5.0999999999999996
210
0
220
-0
230
1
0
CIRCLE
5
122
100
AcDbEntity
8
0
100
AcDbCircle
10
0
20
-106.30000000000001
30
0
40
5.0999999999999996
210
0
220
-0
230
1
0
CIRCLE
5
123
100
AcDbEntity
8
0
100
AcDbCircle
10
0
20
106.30000000000001
30
0
40
5.0999999999999996
210
0
220
-0
230
1
0
CIRCLE
5
124
100
AcDbEntity
8
0
100
AcDbCircle
10
106.30000000000001
20
0
30
0
40
5.0999999999999996
210
0
220
-0
230
1
0
CIRCLE
5
125
100
AcDbEntity
8
0
100
AcDbCircle
10
-106.30000000000001
20
0
30
0
40
5.0999999999999996
210
0
220
-0
230
1
0
CIRCLE
5
126
100
AcDbEntity
8
0
100
AcDbCircle
10
-3.2026692409203861e-08
20
7.3320638449558828e-09
30
0
40
114.3
210
0
220
0
230
1
0
LINE
5
127
100
AcDbEntity
8
0
100
AcDbLine
10
-3.2026692409203861e-08
20
7.3320638449558828e-09
30
0
11
-114.30000003202667
21
7.3320638449558828e-09
31
0
0
LINE
5
128
100
AcDbEntity
8
0
100
AcDbLine
10
-3.2026692409203861e-08
20
7.3320638449558828e-09
30
0
11
-110.40532197686719
21
-29.583016847886054
31
0
0
LINE
5
129
100
AcDbEntity
8
0
100
AcDbLine
10
-3.2026692409203861e-08
20
7.3320638449558828e-09
30
0
11
-110.40532197686719
21
29.583016862550181
31
0
0
LINE
5
130
100
AcDbEntity
8
0
100
AcDbLine
10
-3.2026692409203861e-08
20
7.3320638449558828e-09
30
0
11
-114.30000003202667
21
7.3320638449558828e-09
31
0
6
DASHED
0
LINE
5
131
100
AcDbEntity
8
0
100
AcDbLine
10
-3.2026692409203861e-08
20
7.3320638449558828e-09
30
0
11
110.40532191281379
21
-29.583016847886046
31
0
0
LINE
5
132
100
AcDbEntity
8
0
100
AcDbLine
10
-3.2026692409203861e-08
20
7.3320638449558828e-09
30
0
11
114.29999996797328
21
7.3320638449558828e-09
31
0
6
DASHED
0
LINE
5
133
100
AcDbEntity
8
0
100
AcDbLine
10
-3.2026692409203861e-08
20
7.3320638449558828e-09
30
0
11
110.40532191281383
21
29.583016862550181
31
0
0
LINE
5
134
100
AcDbEntity
8
0
100
AcDbLine
10
-3.2026692409203861e-08
20
7.3320638449558828e-09
30
0
11
114.29999996797332
21
7.3320638449558828e-09
31
0
6
DASHED
0
LINE
5
135
100
AcDbEntity
8
0
100
AcDbLine
10
-3.2026692409203861e-08
20
7.3320638449558828e-09
30
0
11
-98.986703684588022
21
57.150000007332054
31
0
0
LINE
5
136
100
AcDbEntity
8
0
100
AcDbLine
10
-3.2026692409203861e-08
20
7.3320638449558828e-09
30
0
11
-114.30000003202667
21
7.3320638449558828e-09
31
0
6
DASHED
0
LINE
5
137
100
AcDbEntity
8
0
100
AcDbLine
10
-3.2026692409203861e-08
20
7.3320638449558828e-09
30
0
11
98.986703620534655
21
57.150000007332054
31
0
0
LINE
5
138
100
AcDbEntity
8
0
100
AcDbLine
10
-3.2026692409203861e-08
20
7.3320638449558828e-09
30
0
11
114.29999996797332
21
7.3320638449558828e-09
31
0
6
DASHED
0
LINE
5
139
100
AcDbEntity
8
0
100
AcDbLine
10
-3.2026692409203861e-08
20
7.3320638449558828e-09
30
0
11
-57.150000032026718
21
-98.986703645229255
31
0
0
LINE
5
140
100
AcDbEntity
8
0
100
AcDbLine
10
-3.2026692409203861e-08
20
7.3320638449558828e-09
30
0
11
98.986703620534655
21
-57.149999992667929
31
0
0
LINE
5
141
100
AcDbEntity
8
0
100
AcDbLine
10
-3.2026692409203861e-08
20
7.3320638449558828e-09
30
0
11
114.29999996797332
21
7.3320638449558828e-09
31
0
6
DASHED
0
LINE
5
142
100
AcDbEntity
8
0
100
AcDbLine
10
-3.2026692409203861e-08
20
7.3320638449558828e-09
30
0
11
-80.822305121649094
21
80.822305096954423
31
0
0
LINE
5
143
100
AcDbEntity
8
0
100
AcDbLine
10
-3.2026692409203861e-08
20
7.3320638449558828e-09
30
0
11
80.822305057595685
21
80.822305096954466
31
0
0
LINE
5
144
100
AcDbEntity
8
0
100
AcDbLine
10
-3.2026692409203861e-08
20
7.3320638449558828e-09
30
0
11
114.29999996797332
21
7.3320638449558828e-09
31
0
6
DASHED
0
LINE
5
145
100
AcDbEntity
8
0
100
AcDbLine
10
-3.2026692409203861e-08
20
7.3320638449558828e-09
30
0
11
80.822305057595685
21
-80.822305082290313
31
0
0
LINE
5
146
100
AcDbEntity
8
0
100
AcDbLine
10
-3.2026692409203861e-08
20
7.3320638449558828e-09
30
0
11
114.29999996797328
21
7.3320638449558828e-09
31
0
6
DASHED
0
LINE
5
147
100
AcDbEntity
8
0
100
AcDbLine
10
-3.2026692409203861e-08
20
7.3320638449558828e-09
30
0
11
-80.822305121649094
21
-80.822305082290313
31
0
0
LINE
5
148
100
AcDbEntity
8
0
100
AcDbLine
10
-3.2026692409203861e-08
20
7.3320638449558828e-09
30
0
11
-114.30000003202667
21
7.3320638449558828e-09
31
0
6
DASHED
0
LINE
5
149
100
AcDbEntity
8
0
100
AcDbLine
10
-3.2026692409203861e-08
20
7.3320638449558828e-09
30
0
11
-57.150000032026696
21
98.986703659893394
31
0
0
LINE
5
150
100
AcDbEntity
8
0
100
AcDbLine
10
-3.2026692409203861e-08
20
7.3320638449558828e-09
30
0
11
-114.30000003202667
21
7.3320638449558828e-09
31
0
6
DASHED
0
LINE
5
151
100
AcDbEntity
8
0
100
AcDbLine
10
-3.2026692409203861e-08
20
7.3320638449558828e-09
30
0
11
57.149999967973301
21
98.986703659893436
31
0
0
LINE
5
152
100
AcDbEntity
8
0
100
AcDbLine
10
-3.2026692409203861e-08
20
7.3320638449558828e-09
30
0
11
57.149999967973287
21
-98.986703645229255
31
0
0
LINE
5
153
100
AcDbEntity
8
0
100
AcDbLine
10
-3.2026692409203861e-08
20
7.3320638449558828e-09
30
0
11
114.29999996797328
21
7.3320638449558828e-09
31
0
6
DASHED
0
LINE
5
154
100
AcDbEntity
8
0
100
AcDbLine
10
-3.2026692409203861e-08
20
7.3320638449558828e-09
30
0
11
-98.986703684588022
21
-57.149999992667929
31
0
0
LINE
5
155
100
AcDbEntity
8
0
100
AcDbLine
10
-3.2026692409203861e-08
20
7.3320638449558828e-09
30
0
11
114.29999996797332
21
7.3320638449558828e-09
31
0
6
DASHED
0
LINE
5
156
100
AcDbEntity
8
0
100
AcDbLine
10
-3.2026692409203861e-08
20
7.3320638449558828e-09
30
0
11
-3.2026692409203861e-08
21
114.30000000733209
31
0
0
LINE
5
157
100
AcDbEntity
8
0
100
AcDbLine
10
-3.2026692409203861e-08
20
7.3320638449558828e-09
30
0
11
-29.583016887244852
21
110.40532195217256
31
0
0
LINE
5
158
100
AcDbEntity
8
0
100
AcDbLine
10
-3.2026692409203861e-08
20
7.3320638449558828e-09
30
0
11
29.583016823191425
21
110.40532195217256
31
0
0
LINE
5
159
100
AcDbEntity
8
0
100
AcDbLine
10
-3.2026692409203861e-08
20
7.3320638449558828e-09
30
0
11
114.29999996797332
21
7.3320638449558828e-09
31
0
6
DASHED
0
LINE
5
160
100
AcDbEntity
8
0
100
AcDbLine
10
0
20
0
30
0
11
0
21
-114.3
31
0
0
LINE
5
161
100
AcDbEntity
8
0
100
AcDbLine
10
0
20
0
30
0
11
29.38890257139122
21
-109.68087757512367
31
0
0
LINE
5
162
100
AcDbEntity
8
0
100
AcDbLine
10
0
20
0
30
0
11
113.54999999999997
21
0
31
0
6
DASHED
0
LINE
5
163
100
AcDbEntity
8
0
100
AcDbLine
10
-3.2026692409203861e-08
20
7.3320638449558828e-09
30
0
11
-29.583016887244824
21
-110.40532193750842
31
0
0
LINE
5
164
100
AcDbEntity
8
0
100
AcDbLine
10
-3.2026692409203861e-08
20
7.3320638449558828e-09
30
0
11
114.29999996797328
21
7.3320638449558828e-09
31
0
6
DASHED
0
LINE
5
165
100
AcDbEntity
8
0
100
AcDbLine
10
0
20
0
30
0
11
114.29999996797332
21
7.3320638449558828e-09
31
0
0
LINE
5
166
100
AcDbEntity
8
0
100
AcDbLine
10
-42.800000000000004
20
0
30
0
11
-3.2026692409203861e-08
21
7.3320638449558828e-09
31
0
0
CIRCLE
5
167
100
AcDbEntity
8
0
100
AcDbCircle
10
-3.2026692409203861e-08
20
7.3320638449558828e-09
30
0
40
55.499999967973316
210
0
220
0
230
1
0
CIRCLE
5
168
100
AcDbEntity
8
0
100
AcDbCircle
10
-3.2026692409203861e-08
20
7.3320638449558828e-09
30
0
40
80.899999967973315
210
0
220
0
230
1
0
CIRCLE
5
169
100
AcDbEntity
8
0
100
AcDbCircle
10
-3.2026692409203861e-08
20
7.3320638449558828e-09
30
0
40
93.599999967973304
210
0
220
0
230
1
0
CIRCLE
5
170
100
AcDbEntity
8
0
100
AcDbCircle
10
-3.2026692409203861e-08
20
7.3320638449558828e-09
30
0
40
106.29999996797331
210
0
220
0
230
1
0
LINE
5
171
100
AcDbEntity
8
0
100
AcDbLine
10
-42.800000000000004
20
0
30
0
11
-30.100000000000001
21
0
31
0
0
CIRCLE
5
172
100
AcDbEntity
8
0
100
AcDbCircle
10
-3.2026692409203861e-08
20
7.3320638449558828e-09
30
0
40
30.099999967973311
210
0
220
0
230
1
0
CIRCLE
5
173
100
AcDbEntity
8
0
100
AcDbCircle
10
-48.064409914327122
20
27.749999991318717
30
0
40
5.0999999999999988
210
0
220
0
230
1
0
CIRCLE
5
174
100
AcDbEntity
8
0
100
AcDbCircle
10
-27.750000016013349
20
48.064409889632486
30
0
40
5.0999999999999988
210
0
220
0
230
1
0
CIRCLE
5
175
100
AcDbEntity
8
0
100
AcDbCircle
10
0
20
55.500000000000007
30
0
40
5.0999999999999979
210
0
220
0
230
1
0
CIRCLE
5
176
100
AcDbEntity
8
0
100
AcDbCircle
10
-55.500000000000007
20
0
30
0
40
5.0999999999999979
210
0
220
0
230
1
0
CIRCLE
5
177
100
AcDbEntity
8
0
100
AcDbCircle
10
-48.064409914327122
20
-27.749999976654589
30
0
40
5.1000000000000023
210
0
220
0
230
1
0
CIRCLE
5
178
100
AcDbEntity
8
0
100
AcDbCircle
10
-27.750000016013363
20
-48.064409874968348
30
0
40
5.1000000000000014
210
0
220
0
230
1
0
CIRCLE
5
179
100
AcDbEntity
8
0
100
AcDbCircle
10
48.064409850273734
20
-27.749999976654589
30
0
40
5.0999999999999988
210
0
220
0
230
1
0
CIRCLE
5
180
100
AcDbEntity
8
0
100
AcDbCircle
10
55.500000000000007
20
0
30
0
40
5.0999999999999979
210
0
220
0
230
1
0
CIRCLE
5
181
100
AcDbEntity
8
0
100
AcDbCircle
10
48.064409850273734
20
27.749999991318717
30
0
40
5.0999999999999988
210
0
220
0
230
1
0
CIRCLE
5
182
100
AcDbEntity
8
0
100
AcDbCircle
10
27.74999995195995
20
48.064409889632493
30
0
40
5.099999999999997
210
0
220
0
230
1
0
CIRCLE
5
183
100
AcDbEntity
8
0
100
AcDbCircle
10
27.74999995195996
20
-48.064409874968355
30
0
40
5.0999999999999988
210
0
220
0
230
1
0
CIRCLE
5
184
100
AcDbEntity
8
0
100
AcDbCircle
10
0
20
-55.500000000000007
30
0
40
5.0999999999999979
210
0
220
0
230
1
0
CIRCLE
5
185
100
AcDbEntity
8
0
100
AcDbCircle
10
-65.880970983137189
20
17.652752970260369
30
0
40
5.1000000000000023
210
0
220
0
230
1
0
CIRCLE
5
186
100
AcDbEntity
8
0
100
AcDbCircle
10
-90.410657341748077
20
24.22546262063889
30
0
40
5.0999999999999943
210
0
220
0
230
1
0
CIRCLE
5
187
100
AcDbEntity
8
0
100
AcDbCircle
10
-70.061455170451865
20
40.449999991318712
30
0
40
5.099999999999997
210
0
220
0
230
1
0
CIRCLE
5
188
100
AcDbEntity
8
0
100
AcDbCircle
10
-66.185194728441274
20
66.185194703746618
30
0
40
5.1000000000000014
210
0
220
0
230
1
0
CIRCLE
5
189
100
AcDbEntity
8
0
100
AcDbCircle
10
-92.058500426576586
20
53.149999991318708
30
0
40
5.0999999999999961
210
0
220
0
230
1
0
CIRCLE
5
190
100
AcDbEntity
8
0
100
AcDbCircle
10
-40.411152576837893
20
70.083869369818615
30
0
40
5.1000000000000032
210
0
220
0
230
1
0
CIRCLE
5
191
100
AcDbEntity
8
0
100
AcDbCircle
10
-53.150000016013344
20
92.058500401881957
30
0
40
5.1000000000000014
210
0
220
0
230
1
0
CIRCLE
5
192
100
AcDbEntity
8
0
100
AcDbCircle
10
-24.22546264533355
20
90.410657317053449
30
0
40
5.0999999999999934
210
0
220
0
230
1
0
CIRCLE
5
193
100
AcDbEntity
8
0
100
AcDbCircle
10
0
20
80.90000000000002
30
0
40
5.0999999999999979
210
0
220
0
230
1
0
CIRCLE
5
194
100
AcDbEntity
8
0
100
AcDbCircle
10
0
20
106.30000000000001
30
0
40
5.0999999999999979
210
0
220
0
230
1
0
CIRCLE
5
195
100
AcDbEntity
8
0
100
AcDbCircle
10
24.225462581280134
20
90.410657317053449
30
0
40
5.0999999999999943
210
0
220
0
230
1
0
CIRCLE
5
196
100
AcDbEntity
8
0
100
AcDbCircle
10
40.449999951959946
20
70.061455145757236
30
0
40
5.0999999999999988
210
0
220
0
230
1
0
CIRCLE
5
197
100
AcDbEntity
8
0
100
AcDbCircle
10
66.185194664387865
20
66.185194703746646
30
0
40
5.0999999999999996
210
0
220
0
230
1
0
CIRCLE
5
198
100
AcDbEntity
8
0
100
AcDbCircle
10
53.149999951959934
20
92.058500401881986
30
0
40
5.1000000000000014
210
0
220
0
230
1
0
CIRCLE
5
199
100
AcDbEntity
8
0
100
AcDbCircle
10
92.058500362523219
20
53.149999991318708
30
0
40
5.1000000000000068
210
0
220
0
230
1
0
CIRCLE
5
200
100
AcDbEntity
8
0
100
AcDbCircle
10
70.061455106398483
20
40.449999991318712
30
0
40
5.1000000000000032
210
0
220
0
230
1
0
CIRCLE
5
201
100
AcDbEntity
8
0
100
AcDbCircle
10
90.41065727769471
20
24.22546262063889
30
0
40
5.0999999999999934
210
0
220
0
230
1
0
CIRCLE
5
202
100
AcDbEntity
8
0
100
AcDbCircle
10
80.90000000000002
20
0
30
0
40
5.0999999999999979
210
0
220
0
230
1
0
CIRCLE
5
203
100
AcDbEntity
8
0
100
AcDbCircle
10
90.41065727769471
20
-24.225462605974762
30
0
40
5.0999999999999934
210
0
220
0
230
1
0
CIRCLE
5
204
100
AcDbEntity
8
0
100
AcDbCircle
10
70.061455106398483
20
-40.449999976654581
30
0
40
5.0999999999999988
210
0
220
0
230
1
0
CIRCLE
5
205
100
AcDbEntity
8
0
100
AcDbCircle
10
106.30000000000001
20
0
30
0
40
5.0999999999999979
210
0
220
0
230
1
0
CIRCLE
5
206
100
AcDbEntity
8
0
100
AcDbCircle
10
92.058500362523219
20
-53.149999976654584
30
0
40
5.1000000000000014
210
0
220
0
230
1
0
CIRCLE
5
207
100
AcDbEntity
8
0
100
AcDbCircle
10
66.185194664387865
20
-66.185194689082493
30
0
40
5.0999999999999996
210
0
220
0
230
1
0
CIRCLE
5
208
100
AcDbEntity
8
0
100
AcDbCircle
10
40.449999951959953
20
-70.061455131093084
30
0
40
5.1000000000000032
210
0
220
0
230
1
0
CIRCLE
5
209
100
AcDbEntity
8
0
100
AcDbCircle
10
53.149999951959963
20
-92.058500387217848
30
0
40
5.1000000000000068
210
0
220
0
230
1
0
CIRCLE
5
210
100
AcDbEntity
8
0
100
AcDbCircle
10
24.225462609328432
20
-90.410657294873829
30
0
40
5.0999999999999943
210
0
220
0
230
1
0
CIRCLE
5
211
100
AcDbEntity
8
0
100
AcDbCircle
10
0
20
-80.90000000000002
30
0
40
5.0999999999999979
210
0
220
0
230
1
0
CIRCLE
5
212
100
AcDbEntity
8
0
100
AcDbCircle
10
0
20
-106.30000000000001
30
0
40
5.0999999999999979
210
0
220
0
230
1
0
CIRCLE
5
213
100
AcDbEntity
8
0
100
AcDbCircle
10
-24.225462645333529
20
-90.410657302389296
30
0
40
5.0999999999999943
210
0
220
0
230
1
0
CIRCLE
5
214
100
AcDbEntity
8
0
100
AcDbCircle
10
-40.450000016013369
20
-70.061455131093084
30
0
40
5.1000000000000014
210
0
220
0
230
1
0
CIRCLE
5
215
100
AcDbEntity
8
0
100
AcDbCircle
10
-70.061455170451865
20
-40.449999976654581
30
0
40
5.0999999999999988
210
0
220
0
230
1
0
CIRCLE
5
216
100
AcDbEntity
8
0
100
AcDbCircle
10
-66.185194728441274
20
-66.185194689082493
30
0
40
5.0999999999999996
210
0
220
0
230
1
0
CIRCLE
5
217
100
AcDbEntity
8
0
100
AcDbCircle
10
-92.058500426576586
20
-53.149999976654584
30
0
40
5.1000000000000068
210
0
220
0
230
1
0
CIRCLE
5
218
100
AcDbEntity
8
0
100
AcDbCircle
10
-90.410657341748077
20
-24.225462605974762
30
0
40
5.1000000000000085
210
0
220
0
230
1
0
CIRCLE
5
219
100
AcDbEntity
8
0
100
AcDbCircle
10
-80.90000000000002
20
0
30
0
40
5.0999999999999979
210
0
220
0
230
1
0
CIRCLE
5
220
100
AcDbEntity
8
0
100
AcDbCircle
10
-106.30000000000001
20
0
30
0
40
5.0999999999999979
210
0
220
0
230
1
0
CIRCLE
5
221
100
AcDbEntity
8
0
100
AcDbCircle
10
-53.150000016013379
20
-92.058500387217805
30
0
40
5.0999999999999961
210
0
220
0
230
1
0
CIRCLE
5
222
100
AcDbEntity
8
0
100
AcDbCircle
10
-3.2026692409203861e-08
20
7.3320638449558828e-09
30
0
40
16
210
0
220
0
230
1
0
LINE
5
223
100
AcDbEntity
8
0
100
AcDbLine
10
15.454813188598402
20
4.1411047289723948
30
0
11
41.34162533314543
21
11.07745513771995
31
0
0
CIRCLE
5
224
100
AcDbEntity
8
0
100
AcDbCircle
10
-3.2026692409203861e-08
20
7.3320638449558828e-09
30
0
40
42.799999999999997
210
0
220
0
230
1
0
CIRCLE
5
225
100
AcDbEntity
8
0
100
AcDbCircle
10
41.34162533314543
20
11.07745513771995
30
0
40
5.1000000000000023
210
0
220
0
230
1
0
CIRCLE
5
226
100
AcDbEntity
8
0
100
AcDbCircle
10
30.264170202757544
20
30.26417024211629
30
0
40
5.1000000000000023
210
0
220
0
230
1
0
CIRCLE
5
227
100
AcDbEntity
8
0
100
AcDbCircle
10
11.077455098361202
20
41.34162537250419
30
0
40
5.1000000000000023
210
0
220
0
230
1
0
CIRCLE
5
228
100
AcDbEntity
8
0
100
AcDbCircle
10
-11.077455162414589
20
41.34162537250419
30
0
40
5.1000000000000023
210
0
220
0
230
1
0
CIRCLE
5
229
100
AcDbEntity
8
0
100
AcDbCircle
10
-30.264170266810915
20
30.264170242116307
30
0
40
5.1000000000000023
210
0
220
0
230
1
0
CIRCLE
5
230
100
AcDbEntity
8
0
100
AcDbCircle
10
-41.341625397198804
20
11.077455137719971
30
0
40
5.1000000000000023
210
0
220
0
230
1
0
CIRCLE
5
231
100
AcDbEntity
8
0
100
AcDbCircle
10
-41.341625397198811
20
-11.077455123055817
30
0
40
5.1000000000000023
210
0
220
0
230
1
0
CIRCLE
5
232
100
AcDbEntity
8
0
100
AcDbCircle
10
-30.264170266810936
20
-30.264170227452158
30
0
40
5.1000000000000023
210
0
220
0
230
1
0
CIRCLE
5
233
100
AcDbEntity
8
0
100
AcDbCircle
10
-11.077455162414596
20
-41.341625357840044
30
0
40
5.1000000000000023
210
0
220
0
230
1
0
CIRCLE
5
234
100
AcDbEntity
8
0
100
AcDbCircle
10
11.077455098361185
20
-41.341625357840059
30
0
40
5.1000000000000023
210
0
220
0
230
1
0
CIRCLE
5
235
100
AcDbEntity
8
0
100
AcDbCircle
10
30.264170202757516
20
-30.264170227452194
30
0
40
5.1000000000000023
210
0
220
0
230
1
0
CIRCLE
5
236
100
AcDbEntity
8
0
100
AcDbCircle
10
41.341625333145416
20
-11.077455123055849
30
0
40
5.1000000000000023
210
0
220
0
230
1
0
LINE
5
237
100
AcDbEntity
8
0
100
AcDbLine
10
90.41065727769471
20
-24.225462605974762
30
0
11
41.341625333145416
21
-11.077455123055849
31
0
0
LINE
5
238
100
AcDbEntity
8
0
100
AcDbLine
10
41.341625333145416
20
-11.077455123055849
30
0
11
65.876141305420063
21
-17.651458864515305
31
0
0
CIRCLE
5
239
100
AcDbEntity
8
0
100
AcDbCircle
10
-3.2026692409203861e-08
20
7.3320638449558828e-09
30
0
40
68.199999983986658
210
0
220
0
230
1
0
CIRCLE
5
240
100
AcDbEntity
8
0
100
AcDbCircle
10
65.876141305420063
20
-17.651458864515305
30
0
40
5.0999999999999996
210
0
220
0
230
1
0
CIRCLE
5
241
100
AcDbEntity
8
0
100
AcDbCircle
10
65.876141305420063
20
17.651458879179405
30
0
40
5.0999999999999996
210
0
220
0
230
1
0
CIRCLE
5
242
100
AcDbEntity
8
0
100
AcDbCircle
10
48.224682433572717
20
48.224682472931448
30
0
40
5.0999999999999996
210
0
220
0
230
1
0
CIRCLE
5
243
100
AcDbEntity
8
0
100
AcDbCircle
10
17.651458839820663
20
65.87614134477883
30
0
40
5.0999999999999996
210
0
220
0
230
1
0
CIRCLE
5
244
100
AcDbEntity
8
0
100
AcDbCircle
10
-17.651458903874023
20
65.87614134477883
30
0
40
5.0999999999999996
210
0
220
0
230
1
0
CIRCLE
5
245
100
AcDbEntity
8
0
100
AcDbCircle
10
-48.22468249762607
20
48.224682472931484
30
0
40
5.0999999999999996
210
0
220
0
230
1
0
CIRCLE
5
246
100
AcDbEntity
8
0
100
AcDbCircle
10
-65.876141369473444
20
17.65145887917944
30
0
40
5.0999999999999996
210
0
220
0
230
1
0
CIRCLE
5
247
100
AcDbEntity
8
0
100
AcDbCircle
10
-65.876141369473459
20
-17.651458864515266
30
0
40
5.0999999999999996
210
0
220
0
230
1
0
CIRCLE
5
248
100
AcDbEntity
8
0
100
AcDbCircle
10
-48.224682497626105
20
-48.22468245826731
30
0
40
5.0999999999999996
210
0
220
0
230
1
0
CIRCLE
5
249
100
AcDbEntity
8
0
100
AcDbCircle
10
-17.651458903874076
20
-65.876141330114692
30
0
40
5.0999999999999996
210
0
220
0
230
1
0
CIRCLE
5
250
100
AcDbEntity
8
0
100
AcDbCircle
10
17.651458839820606
20
-65.87614133011472
30
0
40
5.0999999999999996
210
0
220
0
230
1
0
CIRCLE
5
251
100
AcDbEntity
8
0
100
AcDbCircle
10
48.224682433572681
20
-48.224682458267367
30
0
40
5.0999999999999996
210
0
220
0
230
1
0
LINE
5
252
100
AcDbEntity
8
0
100
AcDbLine
10
-48.064409914327122
20
-27.749999976654589
30
0
11
-55.500000000000007
21
0
31
0
0
ENDSEC
0
SECTION
2
OBJECTS
0
DICTIONARY
5
C
100
AcDbDictionary
3
ACAD_GROUP
350
D
3
ACAD_MLINESTYLE
350
17
0
DICTIONARY
5
D
100
AcDbDictionary
0
DICTIONARY
5
1A
330
C
100
AcDbDictionary
0
DICTIONARY
5
17
100
AcDbDictionary
0
ENDSEC
0
EOF
