0
SECTION
2
HEADER
9
$INSUNITS
70
4
9
$ACADVER
1
AC1014
9
$HANDSEED
5
FFFF
0
ENDSEC
0
SECTION
2
TABLES
0
TABLE
2
VPORT
5
8
100
AcDbSymbolTable
0
ENDTAB
0
TABLE
2
LTYPE
5
5
100
AcDbSymbolTable
0
LTYPE
5
14
100
AcDbSymbolTableRecord
100
AcDbLinetypeTableRecord
2
BYBLOCK
70
0
0
LTYPE
5
15
100
AcDbSymbolTableRecord
100
AcDbLinetypeTableRecord
2
BYLAYER
70
0
0
LTYPE
5
16
100
AcDbSymbolTableRecord
100
AcDbLinetypeTableRecord
2
DASHED
70
0
3
Dashed __ __ __ __ __ __ __ __ __ __ __ __ __ _
72
65
73
2
40
0.75
49
0.5
74
0
49
-0.25
74
0
0
ENDTAB
0
TABLE
2
LAYER
5
2
100
AcDbSymbolTable
70
2
0
LAYER
5
50
100
AcDbSymbolTableRecord
100
AcDbLayerTableRecord
2
0
70
0
62
7
6
CONTINUOUS
0
ENDTAB
0
TABLE
2
STYLE
5
3
100
AcDbSymbolTable
70
1
0
STYLE
5
11
100
AcDbSymbolTableRecord
100
AcDbTextStyleTableRecord
2
STANDARD
70
0
0
ENDTAB
0
TABLE
2
VIEW
5
6
100
AcDbSymbolTable
70
0
0
ENDTAB
0
TABLE
2
UCS
5
7
100
AcDbSymbolTable
70
0
0
ENDTAB
0
TABLE
2
APPID
5
9
100
AcDbSymbolTable
70
2
0
APPID
5
12
100
AcDbSymbolTableRecord
100
AcDbRegAppTableRecord
2
ACAD
70
0
0
ENDTAB
0
TABLE
2
DIMSTYLE
5
A
100
AcDbSymbolTable
70
1
0
ENDTAB
0
TABLE
2
BLOCK_RECORD
5
1
100
AcDbSymbolTable
70
1
0
BLOCK_RECORD
5
1F
100
AcDbSymbolTableRecord
100
AcDbBlockTableRecord
2
*MODEL_SPACE
0
BLOCK_RECORD
5
1B
100
AcDbSymbolTableRecord
100
AcDbBlockTableRecord
2
*PAPER_SPACE
0
ENDTAB
0
ENDSEC
0
SECTION
2
BLOCKS
0
BLOCK
5
20
100
AcDbEntity
100
AcDbBlockBegin
2
*MODEL_SPACE
0
ENDBLK
5
21
100
AcDbEntity
100
AcDbBlockEnd
0
BLOCK
5
1C
100
AcDbEntity
100
AcDbBlockBegin
2
*PAPER_SPACE
0
ENDBLK
5
1D
100
AcDbEntity
100
AcDbBlockEnd
0
ENDSEC
0
SECTION
2
ENTITIES
0
POINT
5
100
100
AcDbEntity
8
0
100
AcDbPoint
10
0
20
0
30
0
0
POINT
5
101
100
AcDbEntity
8
0
100
AcDbPoint
10
-42.799999999999997
20
0
30
0
0
POINT
5
102
100
AcDbEntity
8
0
100
AcDbPoint
10
42.800000000000004
20
0
30
0
0
POINT
5
103
100
AcDbEntity
8
0
100
AcDbPoint
10
42.800000000000004
20
0
30
0
0
POINT
5
104
100
AcDbEntity
8
0
100
AcDbPoint
10
-42.799999999999997
20
0
30
0
0
LINE
5
105
100
AcDbEntity
8
0
100
AcDbLine
10
0
20
0
30
0
11
0
21
40
31
0
0
LINE
5
106
100
AcDbEntity
8
0
100
AcDbLine
10
0
20
0
30
0
11
0
21
-40
31
0
0
LINE
5
107
100
AcDbEntity
8
0
100
AcDbLine
10
0
20
0
30
0
11
35
21
0
31
0
0
LINE
5
108
100
AcDbEntity
8
0
100
AcDbLine
10
0
20
0
30
0
11
-35
21
0
31
0
0
LINE
5
109
100
AcDbEntity
8
0
100
AcDbLine
10
0
20
-40
30
0
11
0
21
-45
31
0
0
LINE
5
110
100
AcDbEntity
8
0
100
AcDbLine
10
0
20
0
30
0
11
-42.799999999999997
21
0
31
0
0
LINE
5
111
100
AcDbEntity
8
0
100
AcDbLine
10
0
20
0
30
0
11
42.800000000000004
21
0
31
0
0
CIRCLE
5
112
100
AcDbEntity
8
0
100
AcDbCircle
10
-42.799999999999997
20
0
30
0
40
5.0999999999999996
210
0
220
0
230
1
0
CIRCLE
5
113
100
AcDbEntity
8
0
100
AcDbCircle
10
42.800000000000004
20
0
30
0
40
5.0999999999999979
210
0
220
0
230
1
0
ELLIPSE
5
114
100
AcDbEntity
8
0
100
AcDbEllipse
10
0
20
0
30
0
11
0
21
37.5
31
0.0
40
0.8666666666666667
41
0
42
6.2831853071795862
0
LINE
5
115
100
AcDbEntity
8
0
100
AcDbLine
10
0
20
-37.5
30
0
11
0
21
37.5
31
0
6
DASHED
0
LINE
5
116
100
AcDbEntity
8
0
100
AcDbLine
10
32.5
20
0
30
0
11
-32.5
21
0
31
0
6
DASHED
0
ELLIPSE
5
117
100
AcDbEntity
8
0
100
AcDbEllipse
10
0
20
0
30
0
11
0
21
40
31
0.0
40
0.875
41
0
42
6.2831853071795862
0
LINE
5
118
100
AcDbEntity
8
0
100
AcDbLine
10
0
20
-40
30
0
11
0
21
40
31
0
6
DASHED
0
LINE
5
119
100
AcDbEntity
8
0
100
AcDbLine
10
35
20
0
30
0
11
-35
21
0
31
0
6
DASHED
0
LINE
5
120
100
AcDbEntity
8
0
100
AcDbLine
10
0
20
0
30
0
11
-7.8000000000000007
21
0
31
0
0
LINE
5
121
100
AcDbEntity
8
0
100
AcDbLine
10
0
20
0
30
0
11
7.8000000000000007
21
0
31
0
0
CIRCLE
5
122
100
AcDbEntity
8
0
100
AcDbCircle
10
-42.799999999999997
20
0
30
0
40
8.1000000000000014
210
0
220
0
230
1
0
CIRCLE
5
123
100
AcDbEntity
8
0
100
AcDbCircle
10
42.800000000000004
20
0
30
0
40
8.1000000000000014
210
0
220
0
230
1
0
LINE
5
124
100
AcDbEntity
8
0
100
AcDbLine
10
-35
20
0
30
0
11
-37.5
21
0
31
0
0
LINE
5
125
100
AcDbEntity
8
0
100
AcDbLine
10
35
20
0
30
0
11
37.5
21
0
31
0
0
LINE
5
126
100
AcDbEntity
8
0
100
AcDbLine
10
0
20
40
30
0
11
0
21
42.5
31
0
0
LINE
5
127
100
AcDbEntity
8
0
100
AcDbLine
10
0
20
-40
30
0
11
0
21
-42.5
31
0
0
ELLIPSE
5
128
100
AcDbEntity
8
0
100
AcDbEllipse
10
0
20
0
30
0
11
0
21
42.5
31
0.0
40
0.88235294117647056
41
0
42
6.2831853071795862
0
LINE
5
129
100
AcDbEntity
8
0
100
AcDbLine
10
0
20
-42.5
30
0
11
0
21
42.5
31
0
6
DASHED
0
LINE
5
130
100
AcDbEntity
8
0
100
AcDbLine
10
37.5
20
0
30
0
11
-37.5
21
0
31
0
6
DASHED
0
ELLIPSE
5
131
100
AcDbEntity
8
0
100
AcDbEllipse
10
0
20
0
30
0
11
-50.899999999999999
21
0
31
0.0
40
0.83497053045186653
41
-1.5707963267948966
42
4.7123889803846897
0
LINE
5
132
100
AcDbEntity
8
0
100
AcDbLine
10
0
20
-42.5
30
0
11
0
21
42.5
31
0
6
DASHED
0
LINE
5
133
100
AcDbEntity
8
0
100
AcDbLine
10
50.899999999999999
20
0
30
0
11
-50.899999999999999
21
0
31
0
6
DASHED
0
LWPOLYLINE
5
134
100
AcDbEntity
8
0
100
AcDbPolyline
90
6
70
1
43
0.0
10
-34.799999999999997
20
4.618802153517005
10
-42.799999999999997
20
9.2376043070340099
10
-50.79999999999999
20
4.6188021535170058
10
-50.79999999999999
20
-4.6188021535170032
10
-42.799999999999997
20
-9.2376043070340081
10
-34.799999999999997
20
-4.6188021535170058
0
LWPOLYLINE
5
135
100
AcDbEntity
8
0
100
AcDbPolyline
90
6
70
1
43
0.0
10
34.800000000000004
20
-4.6188021535170041
10
42.800000000000004
20
-9.2376043070340099
10
50.799999999999997
20
-4.6188021535170058
10
50.799999999999997
20
4.6188021535170032
10
42.800000000000004
20
9.2376043070340081
10
34.800000000000004
20
4.6188021535170058
0
LWPOLYLINE
5
136
100
AcDbEntity
8
0
100
AcDbPolyline
90
6
70
1
43
0.0
10
31.799999999999997
20
-6.3508529610858826
10
42.799999999999997
20
-12.701705922171771
10
53.799999999999997
20
-6.3508529610858941
10
53.800000000000011
20
6.3508529610858737
10
42.800000000000011
20
12.701705922171767
10
31.800000000000004
20
6.3508529610858924
0
LWPOLYLINE
5
137
100
AcDbEntity
8
0
100
AcDbPolyline
90
6
70
1
43
0.0
10
-31.79999999999999
20
6.3508529610858835
10
-42.799999999999997
20
12.701705922171771
10
-53.799999999999997
20
6.3508529610858862
10
-53.799999999999997
20
-6.3508529610858844
10
-42.799999999999997
20
-12.701705922171771
10
-31.79999999999999
20
-6.3508529610858862
0
LWPOLYLINE
5
138
100
AcDbEntity
8
0
100
AcDbPolyline
90
4
70
1
43
0.0
10
0
20
-45
10
-58.000000864267349
20
-45
10
-58.000000864267349
20
44.000000655651093
10
0
20
44.000000655651093
0
CIRCLE
5
139
100
AcDbEntity
8
0
100
AcDbCircle
10
42.800000000000004
20
0
30
0
40
12.701705922171767
210
0
220
0
230
1
0
LINE
5
140
100
AcDbEntity
8
0
100
AcDbLine
10
0
20
-37.5
30
0
11
0
21
-38.75
31
0
0
LINE
5
141
100
AcDbEntity
8
0
100
AcDbLine
10
0
20
-38.75
30
0
11
1.25
21
-38.75
31
0
0
LINE
5
142
100
AcDbEntity
8
0
100
AcDbLine
10
0
20
-38.75
30
0
11
-1.25
21
-38.75
31
0
0
LINE
5
143
100
AcDbEntity
8
0
100
AcDbLine
10
0
20
-38.75
30
0
11
0
21
-38.344000000000001
31
0
0
LINE
5
144
100
AcDbEntity
8
0
100
AcDbLine
10
0
20
-38.75
30
0
11
0
21
-38.722000000000001
31
0
0
LINE
5
145
100
AcDbEntity
8
0
100
AcDbLine
10
0
20
-38.722000000000001
30
0
11
-1.2499999720603228
21
-38.722000000000001
31
0
0
LINE
5
146
100
AcDbEntity
8
0
100
AcDbLine
10
-1.2499999720603228
20
-38.722000000000001
30
0
11
1.2499999720603228
21
-38.722000000000001
31
0
0
CIRCLE
5
147
100
AcDbEntity
8
0
100
AcDbCircle
10
1.2499999720603228
20
-38.722000000000001
30
0
40
1.2497469503940195
210
0
220
0
230
1
0
CIRCLE
5
148
100
AcDbEntity
8
0
100
AcDbCircle
10
-1.2499999720603228
20
-38.722000000000001
30
0
40
1.2497469503940195
210
0
220
0
230
1
0
LINE
5
149
100
AcDbEntity
8
0
100
AcDbLine
10
0
20
37.5
30
0
11
0
21
38.722000000000001
31
0
0
LINE
5
150
100
AcDbEntity
8
0
100
AcDbLine
10
0
20
38.722000000000001
30
0
11
1.25
21
38.722000000000001
31
0
0
CIRCLE
5
151
100
AcDbEntity
8
0
100
AcDbCircle
10
1.25
20
38.722000000000001
30
0
40
1.2497469516348625
210
0
220
0
230
1
0
ENDSEC
0
SECTION
2
OBJECTS
0
DICTIONARY
5
C
100
AcDbDictionary
3
ACAD_GROUP
350
D
3
ACAD_MLINESTYLE
350
17
0
DICTIONARY
5
D
100
AcDbDictionary
0
DICTIONARY
5
1A
330
C
100
AcDbDictionary
0
DICTIONARY
5
17
100
AcDbDictionary
0
ENDSEC
0
EOF
