0
SECTION
2
HEADER
9
$INSUNITS
70
4
9
$ACADVER
1
AC1014
9
$HANDSEED
5
FFFF
0
ENDSEC
0
SECTION
2
TABLES
0
TABLE
2
VPORT
5
8
100
AcDbSymbolTable
0
ENDTAB
0
TABLE
2
LTYPE
5
5
100
AcDbSymbolTable
0
LTYPE
5
14
100
AcDbSymbolTableRecord
100
AcDbLinetypeTableRecord
2
BYBLOCK
70
0
0
LTYPE
5
15
100
AcDbSymbolTableRecord
100
AcDbLinetypeTableRecord
2
BYLAYER
70
0
0
LTYPE
5
16
100
AcDbSymbolTableRecord
100
AcDbLinetypeTableRecord
2
DASHED
70
0
3
Dashed __ __ __ __ __ __ __ __ __ __ __ __ __ _
72
65
73
2
40
0.75
49
0.5
74
0
49
-0.25
74
0
0
ENDTAB
0
TABLE
2
LAYER
5
2
100
AcDbSymbolTable
70
2
0
LAYER
5
50
100
AcDbSymbolTableRecord
100
AcDbLayerTableRecord
2
0
70
0
62
7
6
CONTINUOUS
0
ENDTAB
0
TABLE
2
STYLE
5
3
100
AcDbSymbolTable
70
1
0
STYLE
5
11
100
AcDbSymbolTableRecord
100
AcDbTextStyleTableRecord
2
STANDARD
70
0
0
ENDTAB
0
TABLE
2
VIEW
5
6
100
AcDbSymbolTable
70
0
0
ENDTAB
0
TABLE
2
UCS
5
7
100
AcDbSymbolTable
70
0
0
ENDTAB
0
TABLE
2
APPID
5
9
100
AcDbSymbolTable
70
2
0
APPID
5
12
100
AcDbSymbolTableRecord
100
AcDbRegAppTableRecord
2
ACAD
70
0
0
ENDTAB
0
TABLE
2
DIMSTYLE
5
A
100
AcDbSymbolTable
70
1
0
ENDTAB
0
TABLE
2
BLOCK_RECORD
5
1
100
AcDbSymbolTable
70
1
0
BLOCK_RECORD
5
1F
100
AcDbSymbolTableRecord
100
AcDbBlockTableRecord
2
*MODEL_SPACE
0
BLOCK_RECORD
5
1B
100
AcDbSymbolTableRecord
100
AcDbBlockTableRecord
2
*PAPER_SPACE
0
ENDTAB
0
ENDSEC
0
SECTION
2
BLOCKS
0
BLOCK
5
20
100
AcDbEntity
100
AcDbBlockBegin
2
*MODEL_SPACE
0
ENDBLK
5
21
100
AcDbEntity
100
AcDbBlockEnd
0
BLOCK
5
1C
100
AcDbEntity
100
AcDbBlockBegin
2
*PAPER_SPACE
0
ENDBLK
5
1D
100
AcDbEntity
100
AcDbBlockEnd
0
ENDSEC
0
SECTION
2
ENTITIES
0
POINT
5
100
100
AcDbEntity
8
0
100
AcDbPoint
10
0
20
0
30
0
0
POINT
5
101
100
AcDbEntity
8
0
100
AcDbPoint
10
93.600000000000023
20
0
30
0
0
POINT
5
102
100
AcDbEntity
8
0
100
AcDbPoint
10
93.600000000000023
20
0
30
0
0
CIRCLE
5
103
100
AcDbEntity
8
0
100
AcDbCircle
10
0
20
0
30
0
40
25.399999999999999
210
0
220
0
230
1
0
CIRCLE
5
104
100
AcDbEntity
8
0
100
AcDbCircle
10
0
20
0
30
0
40
50.799999999999997
210
0
220
0
230
1
0
CIRCLE
5
105
100
AcDbEntity
8
0
100
AcDbCircle
10
0
20
0
30
0
40
38.100000000000009
210
0
220
0
230
1
0
CIRCLE
5
106
100
AcDbEntity
8
0
100
AcDbCircle
10
0
20
0
30
0
40
31.750000000000011
210
0
220
0
230
1
0
CIRCLE
5
107
100
AcDbEntity
8
0
100
AcDbCircle
10
0
20
0
30
0
40
63.500000000000021
210
0
220
0
230
1
0
CIRCLE
5
108
100
AcDbEntity
8
0
100
AcDbCircle
10
0
20
0
30
0
40
57.150000000000027
210
0
220
0
230
1
0
CIRCLE
5
109
100
AcDbEntity
8
0
100
AcDbCircle
10
0
20
0
30
0
40
44.45000000000001
210
0
220
0
230
1
0
CIRCLE
5
110
100
AcDbEntity
8
0
100
AcDbCircle
10
0
20
0
30
0
40
82.550000000000026
210
0
220
0
230
1
0
CIRCLE
5
111
100
AcDbEntity
8
0
100
AcDbCircle
10
0
20
0
30
0
40
95.25
210
0
220
0
230
1
0
CIRCLE
5
112
100
AcDbEntity
8
0
100
AcDbCircle
10
0
20
0
30
0
40
107.95000000000002
210
0
220
0
230
1
0
CIRCLE
5
113
100
AcDbEntity
8
0
100
AcDbCircle
10
0
20
0
30
0
40
114.3
210
0
220
0
230
1
0
LINE
5
114
100
AcDbEntity
8
0
100
AcDbLine
10
0
20
-25.399999999999999
30
0
11
0
21
-50.799999999999997
31
0
0
LINE
5
115
100
AcDbEntity
8
0
100
AcDbLine
10
16.934632434790128
20
18.930880177597508
30
0
11
34.260352722991925
21
37.508242178169048
31
0
0
LINE
5
116
100
AcDbEntity
8
0
100
AcDbLine
10
24.009540297210972
20
20.775092652419211
30
0
11
46.600603156553433
21
43.135064453938476
31
0
0
LINE
5
117
100
AcDbEntity
8
0
100
AcDbLine
10
33.343836239404354
20
18.43362647011665
30
0
11
61.668168449357552
21
44.768728205094931
31
0
0
LINE
5
118
100
AcDbEntity
8
0
100
AcDbLine
10
40.866284172522896
20
17.485688946410033
30
0
11
77.008575504290633
21
44.417218494633005
31
0
0
LINE
5
119
100
AcDbEntity
8
0
100
AcDbLine
10
48.699721955822675
20
14.456039617597964
30
0
11
91.376532551854012
21
44.417218494633005
31
0
0
LINE
5
120
100
AcDbEntity
8
0
100
AcDbLine
10
55.722374821190726
20
12.694071225841226
30
0
11
105.31666867690049
21
44.417218494633005
31
0
0
CIRCLE
5
121
100
AcDbEntity
8
0
100
AcDbCircle
10
0
20
0
30
0
40
16
210
0
220
0
230
1
0
LINE
5
122
100
AcDbEntity
8
0
100
AcDbLine
10
0
20
50.799999999999997
30
0
11
0
21
42.800000000000004
31
0
0
LINE
5
123
100
AcDbEntity
8
0
100
AcDbLine
10
0
20
42.800000000000004
30
0
11
0
21
34.800000000000004
31
0
0
LWPOLYLINE
5
124
100
AcDbEntity
8
0
100
AcDbPolyline
90
6
70
1
43
0.0
10
4.7342722073549286
20
34.600000000000001
10
9.4685444147098625
20
42.800000000000004
10
4.7342722073549401
20
51.000000000000021
10
-4.7342722073549206
20
51.000000000000021
10
-9.468544414709859
20
42.800000000000011
10
-4.7342722073549375
20
34.600000000000009
0
CIRCLE
5
125
100
AcDbEntity
8
0
100
AcDbCircle
10
0
20
42.800000000000004
30
0
40
5.0999999999999979
210
0
220
0
230
1
0
LINE
5
126
100
AcDbEntity
8
0
100
AcDbLine
10
0
20
63.500000000000021
30
0
11
0
21
55.500000000000028
31
0
0
LINE
5
127
100
AcDbEntity
8
0
100
AcDbLine
10
0
20
55.500000000000028
30
0
11
-7.5042446297895183e-15
21
47.500000000000028
31
0
0
LWPOLYLINE
5
128
100
AcDbEntity
8
0
100
AcDbPolyline
90
6
70
1
43
0.0
10
4.7342722073549464
20
63.700000000000017
10
-4.7342722073549259
20
63.700000000000045
10
-9.4685444147098696
20
55.500000000000028
10
-4.7342722073549437
20
47.300000000000011
10
4.7342722073549321
20
47.299999999999997
10
9.4685444147098767
20
55.500000000000007
0
CIRCLE
5
129
100
AcDbEntity
8
0
100
AcDbCircle
10
0
20
55.500000000000028
30
0
40
5.1000000000000032
210
0
220
0
230
1
0
LINE
5
130
100
AcDbEntity
8
0
100
AcDbLine
10
0
20
76.205000000000013
30
0
11
0
21
68.205000000000013
31
0
0
LINE
5
131
100
AcDbEntity
8
0
100
AcDbLine
10
0
20
68.205000000000013
30
0
11
0
21
60.20500000000002
31
0
0
LWPOLYLINE
5
132
100
AcDbEntity
8
0
100
AcDbPolyline
90
6
70
1
43
0.0
10
-9.468544414709859
20
68.205000000000013
10
-4.7342722073549375
20
60.005000000000024
10
4.7342722073549286
20
60.005000000000024
10
9.4685444147098625
20
68.204999999999998
10
4.7342722073549401
20
76.405000000000001
10
-4.7342722073549206
20
76.405000000000015
0
CIRCLE
5
133
100
AcDbEntity
8
0
100
AcDbCircle
10
0
20
68.205000000000013
30
0
40
5.0999999999999979
210
0
220
0
230
1
0
LINE
5
134
100
AcDbEntity
8
0
100
AcDbLine
10
0
20
88.900000000000006
30
0
11
0
21
80.90000000000002
31
0
0
LINE
5
135
100
AcDbEntity
8
0
100
AcDbLine
10
0
20
80.90000000000002
30
0
11
0
21
72.900000000000006
31
0
0
LWPOLYLINE
5
136
100
AcDbEntity
8
0
100
AcDbPolyline
90
6
70
1
43
0.0
10
-9.4685444147098643
20
80.90000000000002
10
-4.7342722073549339
20
72.700000000000003
10
4.7342722073549286
20
72.700000000000003
10
9.4685444147098625
20
80.90000000000002
10
4.7342722073549321
20
89.09999999999998
10
-4.7342722073549321
20
89.09999999999998
0
CIRCLE
5
137
100
AcDbEntity
8
0
100
AcDbCircle
10
0
20
80.90000000000002
30
0
40
5.1000000000000014
210
0
220
0
230
1
0
LINE
5
138
100
AcDbEntity
8
0
100
AcDbLine
10
0
20
101.60000000000004
30
0
11
0
21
93.600000000000023
31
0
0
LINE
5
139
100
AcDbEntity
8
0
100
AcDbLine
10
0
20
93.600000000000023
30
0
11
0
21
85.600000000000023
31
0
0
LWPOLYLINE
5
140
100
AcDbEntity
8
0
100
AcDbPolyline
90
6
70
1
43
0.0
10
-4.7342722073549339
20
85.400000000000006
10
4.7342722073549286
20
85.400000000000006
10
9.4685444147098625
20
93.600000000000023
10
4.7342722073549321
20
101.8
10
-4.7342722073549321
20
101.8
10
-9.4685444147098643
20
93.600000000000023
0
CIRCLE
5
141
100
AcDbEntity
8
0
100
AcDbCircle
10
0
20
93.600000000000023
30
0
40
5.0999999999999979
210
0
220
0
230
1
0
LINE
5
142
100
AcDbEntity
8
0
100
AcDbLine
10
0
20
114.3
30
0
11
0
21
106.29999999999998
31
0
0
LINE
5
143
100
AcDbEntity
8
0
100
AcDbLine
10
0
20
106.29999999999998
30
0
11
0
21
98.299999999999983
31
0
0
LWPOLYLINE
5
144
100
AcDbEntity
8
0
100
AcDbPolyline
90
6
70
1
43
0.0
10
-4.7342722073549321
20
114.50000000000001
10
-9.4685444147098643
20
106.29999999999998
10
-4.7342722073549339
20
98.100000000000023
10
4.7342722073549286
20
98.100000000000023
10
9.4685444147098625
20
106.29999999999998
10
4.7342722073549321
20
114.50000000000001
0
CIRCLE
5
145
100
AcDbEntity
8
0
100
AcDbCircle
10
0
20
106.29999999999998
30
0
40
5.0999999999999979
210
0
220
0
230
1
0
LINE
5
146
100
AcDbEntity
8
0
100
AcDbLine
10
50.799999999999997
20
0
30
0
11
42.800000000000004
21
0
31
0
0
LINE
5
147
100
AcDbEntity
8
0
100
AcDbLine
10
63.500000000000021
20
0
30
0
11
55.500000000000028
21
0
31
0
0
LINE
5
148
100
AcDbEntity
8
0
100
AcDbLine
10
76.205000000000013
20
0
30
0
11
68.205000000000013
21
0
31
0
0
LINE
5
149
100
AcDbEntity
8
0
100
AcDbLine
10
88.900000000000006
20
0
30
0
11
80.90000000000002
21
0
31
0
0
LINE
5
150
100
AcDbEntity
8
0
100
AcDbLine
10
101.60000000000004
20
0
30
0
11
93.600000000000023
21
0
31
0
0
LINE
5
151
100
AcDbEntity
8
0
100
AcDbLine
10
114.3
20
0
30
0
11
106.29999999999998
21
0
31
0
0
LINE
5
152
100
AcDbEntity
8
0
100
AcDbLine
10
42.800000000000004
20
-9.4685444147098643
30
0
11
50.554160597055002
21
-4.9916777066605871
31
0
0
LINE
5
153
100
AcDbEntity
8
0
100
AcDbLine
10
50.554160597054974
20
4.9916777066605809
30
0
11
42.800000000000004
21
9.4685444147098661
31
0
0
LINE
5
154
100
AcDbEntity
8
0
100
AcDbLine
10
34.600000000000001
20
-4.7342722073549313
30
0
11
42.800000000000004
21
-9.4685444147098643
31
0
0
LINE
5
155
100
AcDbEntity
8
0
100
AcDbLine
10
34.600000000000001
20
4.7342722073549339
30
0
11
34.600000000000001
21
-4.7342722073549313
31
0
0
LINE
5
156
100
AcDbEntity
8
0
100
AcDbLine
10
42.800000000000004
20
9.4685444147098661
30
0
11
34.600000000000001
21
4.7342722073549339
31
0
0
LINE
5
157
100
AcDbEntity
8
0
100
AcDbLine
10
63.3058462859453
20
4.9618369602665124
30
0
11
55.500000000000028
21
9.4685444147098661
31
0
0
LINE
5
158
100
AcDbEntity
8
0
100
AcDbLine
10
55.500000000000028
20
9.4685444147098661
30
0
11
47.300000000000011
21
4.7342722073549339
31
0
0
LINE
5
159
100
AcDbEntity
8
0
100
AcDbLine
10
47.300000000000011
20
-4.7342722073549313
30
0
11
55.500000000000028
21
-9.4685444147098643
31
0
0
LINE
5
160
100
AcDbEntity
8
0
100
AcDbLine
10
47.300000000000011
20
4.7342722073549339
30
0
11
47.300000000000011
21
-4.7342722073549313
31
0
0
LINE
5
161
100
AcDbEntity
8
0
100
AcDbLine
10
55.500000000000028
20
-9.4685444147098643
30
0
11
63.3058462859453
21
-4.9618369602665036
31
0
0
LINE
5
162
100
AcDbEntity
8
0
100
AcDbLine
10
60.005000000000024
20
4.7342722073549339
30
0
11
60.005000000000024
21
-4.7342722073549313
31
0
0
LINE
5
163
100
AcDbEntity
8
0
100
AcDbLine
10
60.005000000000024
20
-4.7342722073549313
30
0
11
68.205000000000013
21
-9.4685444147098643
31
0
0
LINE
5
164
100
AcDbEntity
8
0
100
AcDbLine
10
68.205000000000013
20
-9.4685444147098643
30
0
11
76.044559146584561
21
-4.9423728311013084
31
0
0
LINE
5
165
100
AcDbEntity
8
0
100
AcDbLine
10
68.205000000000013
20
9.4685444147098643
30
0
11
60.005000000000024
21
4.7342722073549339
31
0
0
LINE
5
166
100
AcDbEntity
8
0
100
AcDbLine
10
76.044559146584561
20
4.9423728311013004
30
0
11
68.205000000000013
21
9.4685444147098643
31
0
0
LINE
5
167
100
AcDbEntity
8
0
100
AcDbLine
10
80.90000000000002
20
-9.4685444147098643
30
0
11
88.76326987900903
21
-4.9286834333533189
31
0
0
LINE
5
168
100
AcDbEntity
8
0
100
AcDbLine
10
80.90000000000002
20
9.4685444147098643
30
0
11
72.700000000000003
21
4.7342722073549339
31
0
0
LINE
5
169
100
AcDbEntity
8
0
100
AcDbLine
10
88.76326987900903
20
4.9286834333533234
30
0
11
80.90000000000002
21
9.4685444147098643
31
0
0
LINE
5
170
100
AcDbEntity
8
0
100
AcDbLine
10
72.700000000000003
20
-4.7342722073549313
30
0
11
80.90000000000002
21
-9.4685444147098643
31
0
0
LINE
5
171
100
AcDbEntity
8
0
100
AcDbLine
10
72.700000000000003
20
4.7342722073549339
30
0
11
72.700000000000003
21
-4.7342722073549313
31
0
0
LINE
5
172
100
AcDbEntity
8
0
100
AcDbLine
10
114.19446255215007
20
4.91067433511859
30
0
11
106.29999999999998
21
9.4685444147098643
31
0
0
LINE
5
173
100
AcDbEntity
8
0
100
AcDbLine
10
98.100000000000023
20
-4.7342722073549313
30
0
11
106.29999999999998
21
-9.4685444147098643
31
0
0
LINE
5
174
100
AcDbEntity
8
0
100
AcDbLine
10
106.29999999999998
20
-9.4685444147098643
30
0
11
114.19446255215007
21
-4.9106743351186086
31
0
0
LINE
5
175
100
AcDbEntity
8
0
100
AcDbLine
10
98.100000000000023
20
4.7342722073549339
30
0
11
98.100000000000023
21
-4.7342722073549313
31
0
0
LINE
5
176
100
AcDbEntity
8
0
100
AcDbLine
10
106.29999999999998
20
9.4685444147098643
30
0
11
98.100000000000023
21
4.7342722073549339
31
0
0
CIRCLE
5
177
100
AcDbEntity
8
0
100
AcDbCircle
10
42.800000000000004
20
0
30
0
40
5.0999999999999979
210
0
220
0
230
1
0
CIRCLE
5
178
100
AcDbEntity
8
0
100
AcDbCircle
10
55.500000000000028
20
0
30
0
40
5.1000000000000014
210
0
220
0
230
1
0
CIRCLE
5
179
100
AcDbEntity
8
0
100
AcDbCircle
10
68.205000000000013
20
0
30
0
40
5.0999999999999996
210
0
220
0
230
1
0
CIRCLE
5
180
100
AcDbEntity
8
0
100
AcDbCircle
10
80.90000000000002
20
0
30
0
40
5.0999999999999996
210
0
220
0
230
1
0
CIRCLE
5
181
100
AcDbEntity
8
0
100
AcDbCircle
10
93.600000000000023
20
0
30
0
40
5.1000000000000059
210
0
220
0
230
1
0
CIRCLE
5
182
100
AcDbEntity
8
0
100
AcDbCircle
10
106.29999999999998
20
0
30
0
40
5.1000000000000059
210
0
220
0
230
1
0
LINE
5
183
100
AcDbEntity
8
0
100
AcDbLine
10
0
20
-50.799999999999997
30
0
11
0
21
-42.800000000000004
31
0
0
LINE
5
184
100
AcDbEntity
8
0
100
AcDbLine
10
0
20
-63.500000000000021
30
0
11
0
21
-55.500000000000028
31
0
0
LINE
5
185
100
AcDbEntity
8
0
100
AcDbLine
10
0
20
-76.205000000000013
30
0
11
0
21
-68.205000000000013
31
0
0
LINE
5
186
100
AcDbEntity
8
0
100
AcDbLine
10
0
20
-88.900000000000006
30
0
11
0
21
-80.90000000000002
31
0
0
LINE
5
187
100
AcDbEntity
8
0
100
AcDbLine
10
0
20
-101.60000000000004
30
0
11
0
21
-93.600000000000023
31
0
0
LINE
5
188
100
AcDbEntity
8
0
100
AcDbLine
10
0
20
-114.3
30
0
11
0
21
-106.29999999999998
31
0
0
LINE
5
189
100
AcDbEntity
8
0
100
AcDbLine
10
-114.3
20
0
30
0
11
-106.29999999999998
21
0
31
0
0
LINE
5
190
100
AcDbEntity
8
0
100
AcDbLine
10
-101.60000000000004
20
0
30
0
11
-93.600000000000023
21
0
31
0
0
LINE
5
191
100
AcDbEntity
8
0
100
AcDbLine
10
-88.900000000000006
20
0
30
0
11
-80.90000000000002
21
0
31
0
0
LINE
5
192
100
AcDbEntity
8
0
100
AcDbLine
10
-76.205000000000013
20
0
30
0
11
-68.205000000000013
21
0
31
0
0
LINE
5
193
100
AcDbEntity
8
0
100
AcDbLine
10
-63.500000000000021
20
0
30
0
11
-55.500000000000028
21
0
31
0
0
LINE
5
194
100
AcDbEntity
8
0
100
AcDbLine
10
-50.799999999999997
20
0
30
0
11
-42.800000000000004
21
0
31
0
0
LWPOLYLINE
5
195
100
AcDbEntity
8
0
100
AcDbPolyline
90
6
70
1
43
0.0
10
-34.600000000000001
20
-4.7342722073549464
10
-34.599999999999994
20
4.7342722073549259
10
-42.799999999999983
20
9.4685444147098714
10
-51.000000000000021
20
4.7342722073549535
10
-51.000000000000021
20
-4.7342722073549339
10
-42.800000000000011
20
-9.4685444147098767
0
LWPOLYLINE
5
196
100
AcDbEntity
8
0
100
AcDbPolyline
90
6
70
1
43
0.0
10
-47.299999999999997
20
4.7342722073549259
10
-55.500000000000007
20
9.4685444147098696
10
-63.700000000000017
20
4.7342722073549437
10
-63.700000000000045
20
-4.7342722073549348
10
-55.500000000000028
20
-9.4685444147098767
10
-47.300000000000011
20
-4.7342722073549464
0
LWPOLYLINE
5
197
100
AcDbEntity
8
0
100
AcDbPolyline
90
6
70
1
43
0.0
10
-76.405000000000015
20
-4.7342722073549313
10
-68.205000000000013
20
-9.4685444147098643
10
-60.005000000000024
20
-4.7342722073549339
10
-60.005000000000024
20
4.7342722073549295
10
-68.205000000000013
20
9.4685444147098643
10
-76.405000000000015
20
4.7342722073549339
0
LWPOLYLINE
5
198
100
AcDbEntity
8
0
100
AcDbPolyline
90
6
70
1
43
0.0
10
-89.09999999999998
20
-4.7342722073549313
10
-80.90000000000002
20
-9.4685444147098643
10
-72.700000000000003
20
-4.7342722073549339
10
-72.700000000000003
20
4.7342722073549295
10
-80.90000000000002
20
9.4685444147098643
10
-89.09999999999998
20
4.7342722073549339
0
LWPOLYLINE
5
199
100
AcDbEntity
8
0
100
AcDbPolyline
90
6
70
1
43
0.0
10
-93.600000000000023
20
-9.4685444147098643
10
-85.400000000000006
20
-4.7342722073549339
10
-85.400000000000006
20
4.7342722073549295
10
-93.600000000000023
20
9.4685444147098643
10
-101.8
20
4.7342722073549339
10
-101.8
20
-4.7342722073549313
0
LWPOLYLINE
5
200
100
AcDbEntity
8
0
100
AcDbPolyline
90
6
70
1
43
0.0
10
-114.50000000000001
20
4.7342722073549339
10
-114.50000000000001
20
-4.7342722073549313
10
-106.29999999999998
20
-9.4685444147098643
10
-98.100000000000023
20
-4.7342722073549339
10
-98.100000000000023
20
4.7342722073549295
10
-106.29999999999998
20
9.4685444147098643
0
LWPOLYLINE
5
201
100
AcDbEntity
8
0
100
AcDbPolyline
90
6
70
1
43
0.0
10
4.734272207354925
20
-51.000000000000021
10
9.4685444147098536
20
-42.800000000000004
10
4.7342722073549286
20
-34.600000000000009
10
-4.7342722073549295
20
-34.600000000000001
10
-9.468544414709859
20
-42.800000000000004
10
-4.7342722073549313
20
-51.000000000000021
0
LWPOLYLINE
5
202
100
AcDbEntity
8
0
100
AcDbPolyline
90
6
70
1
43
0.0
10
-4.7342722073549339
20
-63.700000000000017
10
4.7342722073549313
20
-63.700000000000017
10
9.4685444147098643
20
-55.500000000000028
10
4.7342722073549339
20
-47.300000000000011
10
-4.7342722073549339
20
-47.300000000000011
10
-9.4685444147098661
20
-55.500000000000028
0
LWPOLYLINE
5
203
100
AcDbEntity
8
0
100
AcDbPolyline
90
6
70
1
43
0.0
10
4.7342722073549313
20
-76.405000000000015
10
9.4685444147098643
20
-68.205000000000013
10
4.7342722073549339
20
-60.005000000000024
10
-4.7342722073549295
20
-60.005000000000024
10
-9.4685444147098643
20
-68.205000000000013
10
-4.7342722073549339
20
-76.405000000000015
0
LWPOLYLINE
5
204
100
AcDbEntity
8
0
100
AcDbPolyline
90
6
70
1
43
0.0
10
9.4685444147098643
20
-80.90000000000002
10
4.7342722073549339
20
-72.700000000000003
10
-4.7342722073549295
20
-72.700000000000003
10
-9.4685444147098643
20
-80.90000000000002
10
-4.7342722073549339
20
-89.09999999999998
10
4.7342722073549313
20
-89.09999999999998
0
LWPOLYLINE
5
205
100
AcDbEntity
8
0
100
AcDbPolyline
90
6
70
1
43
0.0
10
4.7342722073549339
20
-85.400000000000006
10
-4.7342722073549295
20
-85.400000000000006
10
-9.4685444147098643
20
-93.600000000000023
10
-4.7342722073549339
20
-101.8
10
4.7342722073549313
20
-101.8
10
9.4685444147098643
20
-93.600000000000023
0
LWPOLYLINE
5
206
100
AcDbEntity
8
0
100
AcDbPolyline
90
6
70
1
43
0.0
10
4.7342722073549339
20
-98.100000000000023
10
-4.7342722073549295
20
-98.100000000000023
10
-9.4685444147098643
20
-106.29999999999998
10
-4.7342722073549339
20
-114.50000000000001
10
4.7342722073549313
20
-114.50000000000001
10
9.4685444147098643
20
-106.29999999999998
0
CIRCLE
5
207
100
AcDbEntity
8
0
100
AcDbCircle
10
0
20
-42.800000000000004
30
0
40
5.1000000000000032
210
0
220
0
230
1
0
CIRCLE
5
208
100
AcDbEntity
8
0
100
AcDbCircle
10
0
20
-55.500000000000028
30
0
40
5.0999999999999996
210
0
220
0
230
1
0
CIRCLE
5
209
100
AcDbEntity
8
0
100
AcDbCircle
10
0
20
-68.205000000000013
30
0
40
5.1000000000000032
210
0
220
0
230
1
0
CIRCLE
5
210
100
AcDbEntity
8
0
100
AcDbCircle
10
0
20
-80.90000000000002
30
0
40
5.0999999999999996
210
0
220
0
230
1
0
CIRCLE
5
211
100
AcDbEntity
8
0
100
AcDbCircle
10
0
20
-93.600000000000023
30
0
40
5.1000000000000059
210
0
220
0
230
1
0
CIRCLE
5
212
100
AcDbEntity
8
0
100
AcDbCircle
10
0
20
-106.29999999999998
30
0
40
5.0999999999999996
210
0
220
0
230
1
0
CIRCLE
5
213
100
AcDbEntity
8
0
100
AcDbCircle
10
-106.29999999999998
20
0
30
0
40
5.1000000000000014
210
0
220
0
230
1
0
CIRCLE
5
214
100
AcDbEntity
8
0
100
AcDbCircle
10
-93.600000000000023
20
0
30
0
40
5.0999999999999996
210
0
220
0
230
1
0
CIRCLE
5
215
100
AcDbEntity
8
0
100
AcDbCircle
10
-80.90000000000002
20
0
30
0
40
5.0999999999999988
210
0
220
0
230
1
0
CIRCLE
5
216
100
AcDbEntity
8
0
100
AcDbCircle
10
-68.205000000000013
20
0
30
0
40
5.0999999999999988
210
0
220
0
230
1
0
CIRCLE
5
217
100
AcDbEntity
8
0
100
AcDbCircle
10
-55.500000000000028
20
0
30
0
40
5.0999999999999996
210
0
220
0
230
1
0
CIRCLE
5
218
100
AcDbEntity
8
0
100
AcDbCircle
10
-42.800000000000004
20
0
30
0
40
5.0999999999999996
210
0
220
0
230
1
0
LWPOLYLINE
5
219
100
AcDbEntity
8
0
100
AcDbPolyline
90
6
70
1
43
0.0
10
-53.999999999999993
20
6.4663230149238169
10
-54
20
-6.4663230149237974
10
-42.800000000000011
20
-12.932646029847614
10
-31.600000000000009
20
-6.4663230149238169
10
-31.600000000000001
20
6.4663230149238071
10
-42.800000000000004
20
12.932646029847614
0
LINE
5
220
100
AcDbEntity
8
0
100
AcDbLine
10
0
20
-42.800000000000004
30
0
11
0
21
-34.800000000000004
31
0
0
LINE
5
221
100
AcDbEntity
8
0
100
AcDbLine
10
0
20
34.800000000000004
30
0
11
0
21
26.800000000000004
31
0
0
LWPOLYLINE
5
222
100
AcDbEntity
8
0
100
AcDbPolyline
90
6
70
1
43
0.0
10
-44.300000000000026
20
-6.4663230149238169
10
-44.300000000000011
20
6.4663230149238062
10
-55.500000000000007
20
12.932646029847614
10
-66.700000000000003
20
6.4663230149238169
10
-66.700000000000017
20
-6.4663230149237974
10
-55.500000000000028
20
-12.932646029847614
0
LWPOLYLINE
5
223
100
AcDbEntity
8
0
100
AcDbPolyline
90
6
70
1
43
0.0
10
-79.405000000000015
20
-6.4663230149238071
10
-68.205000000000013
20
-12.932646029847614
10
-57.005000000000017
20
-6.4663230149238089
10
-57.005000000000017
20
6.4663230149238071
10
-68.205000000000013
20
12.932646029847614
10
-79.405000000000015
20
6.4663230149238089
0
LWPOLYLINE
5
224
100
AcDbEntity
8
0
100
AcDbPolyline
90
6
70
1
43
0.0
10
-69.700000000000003
20
-6.4663230149238036
10
-69.700000000000003
20
6.4663230149238062
10
-80.90000000000002
20
12.932646029847614
10
-92.099999999999994
20
6.4663230149238089
10
-92.099999999999994
20
-6.4663230149238
10
-80.90000000000002
20
-12.932646029847605
0
LWPOLYLINE
5
225
100
AcDbEntity
8
0
100
AcDbPolyline
90
6
70
1
43
0.0
10
-93.600000000000023
20
-12.932646029847605
10
-82.40000000000002
20
-6.4663230149238036
10
-82.40000000000002
20
6.4663230149238071
10
-93.600000000000023
20
12.932646029847614
10
-104.80000000000001
20
6.4663230149238071
10
-104.80000000000001
20
-6.4663230149238027
0
LWPOLYLINE
5
226
100
AcDbEntity
8
0
100
AcDbPolyline
90
6
70
1
43
0.0
10
-95.099999999999994
20
-6.4663230149238036
10
-95.099999999999994
20
6.4663230149238062
10
-106.29999999999998
20
12.932646029847614
10
-117.5
20
6.4663230149238071
10
-117.5
20
-6.4663230149238027
10
-106.29999999999998
20
-12.932646029847605
0
LINE
5
227
100
AcDbEntity
8
0
100
AcDbLine
10
31.600000000000009
20
6.4663230149238169
30
0
11
31.600000000000001
21
-6.4663230149238062
31
0
0
LINE
5
228
100
AcDbEntity
8
0
100
AcDbLine
10
31.600000000000001
20
-6.4663230149238062
30
0
11
42.800000000000004
21
-12.932646029847614
31
0
0
LINE
5
229
100
AcDbEntity
8
0
100
AcDbLine
10
42.800000000000011
20
12.932646029847614
30
0
11
31.600000000000009
21
6.4663230149238169
31
0
0
LINE
5
230
100
AcDbEntity
8
0
100
AcDbLine
10
50.040331948574547
20
8.7524384303158449
30
0
11
42.800000000000011
21
12.932646029847614
31
0
0
LINE
5
231
100
AcDbEntity
8
0
100
AcDbLine
10
42.800000000000004
20
-12.932646029847614
30
0
11
50.040331948574547
21
-8.752438430315868
31
0
0
LINE
5
232
100
AcDbEntity
8
0
100
AcDbLine
10
55.500000000000028
20
12.932646029847614
30
0
11
44.300000000000026
21
6.4663230149238169
31
0
0
LINE
5
233
100
AcDbEntity
8
0
100
AcDbLine
10
44.300000000000026
20
6.4663230149238169
30
0
11
44.300000000000011
21
-6.4663230149238062
31
0
0
LINE
5
234
100
AcDbEntity
8
0
100
AcDbLine
10
55.500000000000007
20
-12.932646029847614
30
0
11
64.85250000000002
21
-7.5329776372516477
31
0
0
LINE
5
235
100
AcDbEntity
8
0
100
AcDbLine
10
44.300000000000011
20
-6.4663230149238062
30
0
11
55.500000000000007
21
-12.932646029847614
31
0
0
LINE
5
236
100
AcDbEntity
8
0
100
AcDbLine
10
57.005000000000017
20
6.4663230149238089
30
0
11
57.005000000000017
21
-6.4663230149238071
31
0
0
LINE
5
237
100
AcDbEntity
8
0
100
AcDbLine
10
57.005000000000017
20
-6.4663230149238071
30
0
11
68.205000000000013
21
-12.932646029847614
31
0
0
LINE
5
238
100
AcDbEntity
8
0
100
AcDbLine
10
68.205000000000013
20
-12.932646029847614
30
0
11
75.718793179070403
21
-8.5945555152761557
31
0
0
LINE
5
239
100
AcDbEntity
8
0
100
AcDbLine
10
68.205000000000013
20
12.932646029847614
30
0
11
57.005000000000017
21
6.4663230149238089
31
0
0
LINE
5
240
100
AcDbEntity
8
0
100
AcDbLine
10
80.90000000000002
20
-12.932646029847605
30
0
11
88.487713195328524
21
-8.551877773990995
31
0
0
LINE
5
241
100
AcDbEntity
8
0
100
AcDbLine
10
69.700000000000003
20
-6.4663230149238027
30
0
11
80.90000000000002
21
-12.932646029847605
31
0
0
LINE
5
242
100
AcDbEntity
8
0
100
AcDbLine
10
69.700000000000003
20
6.4663230149238071
30
0
11
69.700000000000003
21
-6.4663230149238027
31
0
0
LINE
5
243
100
AcDbEntity
8
0
100
AcDbLine
10
80.90000000000002
20
12.932646029847614
30
0
11
69.700000000000003
21
6.4663230149238071
31
0
0
LINE
5
244
100
AcDbEntity
8
0
100
AcDbLine
10
88.487713195328524
20
8.5518777739910146
30
0
11
80.90000000000002
21
12.932646029847614
31
0
0
LINE
5
245
100
AcDbEntity
8
0
100
AcDbLine
10
95.099999999999994
20
-6.4663230149238027
30
0
11
106.29999999999998
21
-12.932646029847605
31
0
0
LINE
5
246
100
AcDbEntity
8
0
100
AcDbLine
10
113.98377474330003
20
8.4964166134109149
30
0
11
106.29999999999998
21
12.932646029847614
31
0
0
LINE
5
247
100
AcDbEntity
8
0
100
AcDbLine
10
106.29999999999998
20
-12.932646029847605
30
0
11
113.98377474330005
21
-8.4964166134109149
31
0
0
LINE
5
248
100
AcDbEntity
8
0
100
AcDbLine
10
106.29999999999998
20
12.932646029847614
30
0
11
95.099999999999994
21
6.4663230149238071
31
0
0
LWPOLYLINE
5
249
100
AcDbEntity
8
0
100
AcDbPolyline
90
6
70
1
43
0.0
10
6.4663230149238169
20
53.999999999999993
10
-6.4663230149237974
20
54
10
-12.932646029847614
20
42.800000000000011
10
-6.4663230149238169
20
31.600000000000009
10
6.4663230149238027
20
31.600000000000001
10
12.932646029847614
20
42.800000000000004
0
LWPOLYLINE
5
250
100
AcDbEntity
8
0
100
AcDbPolyline
90
6
70
1
43
0.0
10
-12.932646029847614
20
55.500000000000028
10
-6.4663230149238169
20
44.300000000000026
10
6.4663230149238036
20
44.300000000000011
10
12.932646029847614
20
55.500000000000007
10
6.4663230149238169
20
66.700000000000003
10
-6.4663230149237974
20
66.700000000000017
0
LWPOLYLINE
5
251
100
AcDbEntity
8
0
100
AcDbPolyline
90
6
70
1
43
0.0
10
12.932646029847614
20
68.204999999999998
10
6.4663230149238169
20
79.405000000000001
10
-6.4663230149237974
20
79.405000000000015
10
-12.932646029847614
20
68.205000000000013
10
-6.4663230149238249
20
57.005000000000017
10
6.4663230149238027
20
57.005000000000017
0
LWPOLYLINE
5
252
100
AcDbEntity
8
0
100
AcDbPolyline
90
6
70
1
43
0.0
10
6.4663230149238053
20
92.099999999999994
10
-6.4663230149238053
20
92.099999999999994
10
-12.932646029847607
20
80.90000000000002
10
-6.4663230149238053
20
69.700000000000003
10
6.4663230149238027
20
69.700000000000003
10
12.932646029847607
20
80.90000000000002
0
LWPOLYLINE
5
253
100
AcDbEntity
8
0
100
AcDbPolyline
90
6
70
1
43
0.0
10
12.932646029847607
20
93.600000000000023
10
6.4663230149238053
20
104.80000000000001
10
-6.4663230149238053
20
104.80000000000001
10
-12.932646029847607
20
93.600000000000023
10
-6.4663230149238053
20
82.40000000000002
10
6.4663230149238027
20
82.40000000000002
0
LWPOLYLINE
5
254
100
AcDbEntity
8
0
100
AcDbPolyline
90
6
70
1
43
0.0
10
6.4663230149238027
20
95.09999999999998
10
12.932646029847625
20
106.29999999999997
10
6.4663230149238293
20
117.5
10
-6.4663230149237894
20
117.5
10
-12.932646029847614
20
106.30000000000001
10
-6.4663230149238249
20
95.099999999999994
0
LWPOLYLINE
5
255
100
AcDbEntity
8
0
100
AcDbPolyline
90
6
70
1
43
0.0
10
-12.932646029847614
20
-42.800000000000004
10
-6.4663230149238169
20
-53.999999999999993
10
6.4663230149237974
20
-54
10
12.932646029847614
20
-42.800000000000011
10
6.4663230149238169
20
-31.600000000000009
10
-6.4663230149238071
20
-31.600000000000001
0
LWPOLYLINE
5
256
100
AcDbEntity
8
0
100
AcDbPolyline
90
6
70
1
43
0.0
10
-6.4663230149238169
20
-66.700000000000003
10
6.4663230149238018
20
-66.700000000000017
10
12.932646029847614
20
-55.500000000000028
10
6.4663230149238169
20
-44.300000000000026
10
-6.4663230149237974
20
-44.300000000000011
10
-12.932646029847614
20
-55.500000000000007
0
LWPOLYLINE
5
257
100
AcDbEntity
8
0
100
AcDbPolyline
90
6
70
1
43
0.0
10
6.4663230149238036
20
-92.100000000000023
10
12.932646029847625
20
-80.90000000000002
10
6.4663230149238293
20
-69.700000000000003
10
-6.4663230149237894
20
-69.699999999999989
10
-12.932646029847614
20
-80.899999999999977
10
-6.4663230149238249
20
-92.099999999999994
0
LWPOLYLINE
5
258
100
AcDbEntity
8
0
100
AcDbPolyline
90
6
70
1
43
0.0
10
-12.932646029847607
20
-93.600000000000023
10
-6.4663230149238053
20
-104.80000000000001
10
6.4663230149238053
20
-104.80000000000001
10
12.932646029847607
20
-93.600000000000023
10
6.4663230149238053
20
-82.40000000000002
10
-6.4663230149238027
20
-82.40000000000002
0
LWPOLYLINE
5
259
100
AcDbEntity
8
0
100
AcDbPolyline
90
6
70
1
43
0.0
10
6.4663230149238027
20
-117.5
10
12.932646029847625
20
-106.30000000000001
10
6.4663230149238293
20
-95.099999999999994
10
-6.4663230149237894
20
-95.09999999999998
10
-12.932646029847614
20
-106.29999999999997
10
-6.4663230149238249
20
-117.5
0
CIRCLE
5
260
100
AcDbEntity
8
0
100
AcDbCircle
10
0
20
0
30
0
40
29.400000000000013
210
0
220
0
230
1
0
CIRCLE
5
261
100
AcDbEntity
8
0
100
AcDbCircle
10
0
20
0
30
0
40
43.299999999999997
210
0
220
0
230
1
0
CIRCLE
5
262
100
AcDbEntity
8
0
100
AcDbCircle
10
0
20
0
30
0
40
56.000000000000021
210
0
220
0
230
1
0
CIRCLE
5
263
100
AcDbEntity
8
0
100
AcDbCircle
10
0
20
0
30
0
40
81.400000000000006
210
0
220
0
230
1
0
CIRCLE
5
264
100
AcDbEntity
8
0
100
AcDbCircle
10
0
20
0
30
0
40
94.099999999999994
210
0
220
0
230
1
0
CIRCLE
5
265
100
AcDbEntity
8
0
100
AcDbCircle
10
0
20
0
30
0
40
106.8
210
0
220
0
230
1
0
CIRCLE
5
266
100
AcDbEntity
8
0
100
AcDbCircle
10
0
20
0
30
0
40
76.200000000000017
210
0
220
0
230
1
0
CIRCLE
5
267
100
AcDbEntity
8
0
100
AcDbCircle
10
0
20
0
30
0
40
30.600000000000005
210
0
220
0
230
1
0
LWPOLYLINE
5
268
100
AcDbEntity
8
0
100
AcDbPolyline
90
6
70
1
43
0.0
10
6.4663230149238071
20
-79.40500000000003
10
12.932646029847625
20
-68.205000000000013
10
6.4663230149238204
20
-57.005000000000017
10
-6.4663230149238027
20
-57.005000000000017
10
-12.932646029847625
20
-68.205000000000013
10
-6.4663230149238204
20
-79.405000000000015
0
CIRCLE
5
269
100
AcDbEntity
8
0
100
AcDbCircle
10
0
20
0
30
0
40
48.450000000000024
210
0
220
0
230
1
0
CIRCLE
5
270
100
AcDbEntity
8
0
100
AcDbCircle
10
0
20
0
30
0
40
61.15000000000002
210
0
220
0
230
1
0
CIRCLE
5
271
100
AcDbEntity
8
0
100
AcDbCircle
10
0
20
0
30
0
40
73.84999999999998
210
0
220
0
230
1
0
CIRCLE
5
272
100
AcDbEntity
8
0
100
AcDbCircle
10
0
20
0
30
0
40
86.549999999999997
210
0
220
0
230
1
0
CIRCLE
5
273
100
AcDbEntity
8
0
100
AcDbCircle
10
0
20
0
30
0
40
99.249999999999986
210
0
220
0
230
1
0
CIRCLE
5
274
100
AcDbEntity
8
0
100
AcDbCircle
10
0
20
0
30
0
40
111.95
210
0
220
0
230
1
0
LINE
5
275
100
AcDbEntity
8
0
100
AcDbLine
10
75.718793179070445
20
8.5945555152761592
30
0
11
68.205000000000013
21
12.932646029847614
31
0
0
LINE
5
276
100
AcDbEntity
8
0
100
AcDbLine
10
62.907253280252505
20
8.6560663545381207
30
0
11
55.500000000000028
21
12.932646029847614
31
0
0
CIRCLE
5
277
100
AcDbEntity
8
0
100
AcDbCircle
10
0
20
0
30
0
40
50.799999999999997
210
0
220
0
230
1
0
LINE
5
278
100
AcDbEntity
8
0
100
AcDbLine
10
95.099999999999994
20
6.4663230149238071
30
0
11
95.099999999999994
21
0
31
0
0
LINE
5
279
100
AcDbEntity
8
0
100
AcDbLine
10
95.099999999999994
20
-4.8744230427815918
30
0
11
95.099999999999994
21
-6.4663230149238027
31
0
0
CIRCLE
5
280
100
AcDbEntity
8
0
100
AcDbCircle
10
0
20
0
30
0
40
88.900000000000006
210
0
220
0
230
1
0
CIRCLE
5
281
100
AcDbEntity
8
0
100
AcDbCircle
10
0
20
0
30
0
40
76.200000000000017
210
0
220
0
230
1
0
CIRCLE
5
282
100
AcDbEntity
8
0
100
AcDbCircle
10
0
20
0
30
0
40
101.59999999999999
210
0
220
0
230
1
0
CIRCLE
5
283
100
AcDbEntity
8
0
100
AcDbCircle
10
0
20
0
30
0
40
42.100000000000001
210
0
220
0
230
1
0
CIRCLE
5
284
100
AcDbEntity
8
0
100
AcDbCircle
10
0
20
0
30
0
40
105.45000000000003
210
0
220
0
230
1
0
CIRCLE
5
285
100
AcDbEntity
8
0
100
AcDbCircle
10
0
20
0
30
0
40
98.950000000000017
210
0
220
0
230
1
0
CIRCLE
5
286
100
AcDbEntity
8
0
100
AcDbCircle
10
0
20
0
30
0
40
92.75
210
0
220
0
230
1
0
CIRCLE
5
287
100
AcDbEntity
8
0
100
AcDbCircle
10
0
20
0
30
0
40
80.050000000000026
210
0
220
0
230
1
0
CIRCLE
5
288
100
AcDbEntity
8
0
100
AcDbCircle
10
0
20
0
30
0
40
67.34999999999998
210
0
220
0
230
1
0
CIRCLE
5
289
100
AcDbEntity
8
0
100
AcDbCircle
10
0
20
0
30
0
40
60.850000000000009
210
0
220
0
230
1
0
CIRCLE
5
290
100
AcDbEntity
8
0
100
AcDbCircle
10
0
20
0
30
0
40
54.800000000000004
210
0
220
0
230
1
0
LINE
5
291
100
AcDbEntity
8
0
100
AcDbLine
10
24.694327699386758
20
-69.06856837704251
30
0
11
23.131449240165033
21
-69.632962280984543
31
0
0
CIRCLE
5
292
100
AcDbEntity
8
0
100
AcDbCircle
10
0
20
0
30
0
40
69.849999999999994
210
0
220
0
230
1
0
CIRCLE
5
293
100
AcDbEntity
8
0
100
AcDbCircle
10
0
20
0
30
0
40
68.700000000000017
210
0
220
0
230
1
0
LWPOLYLINE
5
294
100
AcDbEntity
8
0
100
AcDbPolyline
90
6
70
1
43
0.0
10
85.400000000000034
20
-4.7342722073549286
10
93.600000000000023
20
-9.4685444147098643
10
101.80000000000004
20
-4.734272207354933
10
101.80000000000004
20
4.7342722073549313
10
93.600000000000023
20
9.4685444147098643
10
85.400000000000034
20
4.7342722073549339
0
LWPOLYLINE
5
295
100
AcDbEntity
8
0
100
AcDbPolyline
90
6
70
1
43
0.0
10
82.400000000000034
20
-6.4663230149238053
10
93.600000000000023
20
-12.932646029847607
10
104.80000000000003
20
-6.4663230149238053
10
104.80000000000003
20
6.4663230149238027
10
93.600000000000023
20
12.932646029847607
10
82.400000000000034
20
6.4663230149238053
0
CIRCLE
5
296
100
AcDbEntity
8
0
100
AcDbCircle
10
0
20
0
30
0
40
86.25
210
0
220
0
230
1
0
CIRCLE
5
297
100
AcDbEntity
8
0
100
AcDbCircle
10
0
20
0
30
0
40
80.200000000000017
210
0
220
0
230
1
0
ENDSEC
0
SECTION
2
OBJECTS
0
DICTIONARY
5
C
100
AcDbDictionary
3
ACAD_GROUP
350
D
3
ACAD_MLINESTYLE
350
17
0
DICTIONARY
5
D
100
AcDbDictionary
0
DICTIONARY
5
1A
330
C
100
AcDbDictionary
0
DICTIONARY
5
17
100
AcDbDictionary
0
ENDSEC
0
EOF
